<?xml version="1.0" encoding="utf-8"?>
<!-- Generator: Adobe Illustrator 25.3.1, SVG Export Plug-In . SVG Version: 6.00 Build 0)  -->
<svg version="1.1" id="Layer_1" xmlns="http://www.w3.org/2000/svg" xmlns:xlink="http://www.w3.org/1999/xlink" x="0px" y="0px"
	 viewBox="0 0 149.58 90.37" style="enable-background:new 0 0 149.58 90.37;" xml:space="preserve">
<style type="text/css">
	.st0{fill:#24487F;}
	.st1{fill:#8E8E8E;}
	.st2{fill:#FFFFFF;stroke:#8E8E8E;stroke-linecap:round;stroke-miterlimit:10;}
	.st3{fill:#FFFFFF;}
	.st4{fill:#4DB5D1;}
	.st5{fill:#60934D;}
	.st6{fill:#FFFFFF;stroke:#5F934D;stroke-linecap:round;stroke-miterlimit:10;}
	.st7{fill:#23497F;}
	.st8{fill:#FFFFFF;stroke:#23497F;stroke-linecap:round;stroke-miterlimit:10;}
	.st9{fill:url(#SVGID_1_);}
	.st10{fill:url(#SVGID_2_);}
	.st11{fill:url(#SVGID_3_);}
	.st12{fill:url(#SVGID_4_);}
	.st13{fill:#397BBF;}
	.st14{fill:#1466B1;}
	.st15{fill:#054F8C;}
	.st16{fill:url(#SVGID_5_);}
	.st17{fill:#EFA986;}
	.st18{fill:#152B3D;}
	.st19{fill:#62A9DC;}
	.st20{fill:#977332;}
	.st21{fill:#264480;}
	.st22{fill:#363B3D;}
	.st23{fill:#E45354;}
	.st24{fill:#F5F6F6;}
	.st25{fill:#1A5A8D;}
	.st26{fill:#2274B5;}
	.st27{fill:#3A88C8;}
	.st28{fill:#E3F3FC;}
	.st29{fill:#C5CCD1;}
	.st30{fill:#2A2C47;}
	.st31{fill:#E2D2CA;}
	.st32{fill:#434873;}
	.st33{fill:#3B4048;}
	.st34{fill:#323757;}
	.st35{fill:#81A358;}
	.st36{fill:#71A341;}
	.st37{fill:#618A3C;}
	.st38{fill:#87BD43;}
	.st39{fill:#7BA840;}
	.st40{fill:#70A341;}
	.st41{fill:#6A943E;}
	.st42{fill:#B2CF43;}
	.st43{fill:#9FB34D;}
	.st44{fill:url(#SVGID_6_);}
	.st45{filter:url(#Adobe_OpacityMaskFilter);}
	.st46{filter:url(#Adobe_OpacityMaskFilter_1_);}
	.st47{mask:url(#SVGID_7_);fill:url(#SVGID_8_);}
	.st48{fill:url(#SVGID_9_);}
	.st49{fill:#464443;}
	.st50{fill:#928783;}
	.st51{fill:#1D3C55;}
	.st52{fill:#152C3D;}
	.st53{fill:#A77961;}
	.st54{fill:#D8E9F7;}
	.st55{fill:#BFB2AC;}
	.st56{fill:#FED1A2;}
	.st57{fill:#B37953;}
	.st58{fill:#D6995E;}
	.st59{fill:#807167;}
	.st60{fill:#6E6760;}
	.st61{fill:#928880;}
	.st62{fill:#BC8552;}
	.st63{filter:url(#Adobe_OpacityMaskFilter_2_);}
	.st64{filter:url(#Adobe_OpacityMaskFilter_3_);}
	.st65{mask:url(#SVGID_10_);fill:url(#SVGID_11_);}
	.st66{fill:url(#SVGID_12_);}
	.st67{filter:url(#Adobe_OpacityMaskFilter_4_);}
	.st68{filter:url(#Adobe_OpacityMaskFilter_5_);}
	.st69{mask:url(#SVGID_13_);fill:url(#SVGID_14_);}
	.st70{fill:url(#SVGID_15_);}
	.st71{fill:#C3C8E5;}
	.st72{opacity:0.3;}
	.st73{fill:#F4F6FB;}
	.st74{fill:#E8E8F2;}
	.st75{fill:#D7D6E6;}
	.st76{fill:#F3F4F7;}
	.st77{fill:#FCFDFD;}
	.st78{filter:url(#Adobe_OpacityMaskFilter_6_);}
	.st79{mask:url(#SVGID_16_);}
	.st80{fill:#3F54A5;}
	.st81{fill:#A5A7D4;}
	.st82{fill:#B4BBDF;}
	.st83{fill:url(#SVGID_17_);}
	.st84{fill:#CED0E4;}
	.st85{fill:#EDF0F9;}
	.st86{opacity:0.5;fill:#CFD2D3;}
	.st87{opacity:0.5;fill:#A5A7AA;}
	.st88{fill:#332566;}
	.st89{fill:#FAAE42;}
	.st90{fill:#DFDFDE;}
	.st91{fill:#F6C6B1;}
	.st92{fill:#E8B8A9;}
	.st93{fill:#3D4592;}
	.st94{fill:url(#SVGID_18_);}
	.st95{fill:url(#SVGID_19_);}
	.st96{fill:url(#SVGID_20_);}
	.st97{fill:#112F41;}
	.st98{opacity:0.5;fill:#BDBCD8;}
	.st99{opacity:0.2;fill:#ED5B2A;}
	.st100{fill-rule:evenodd;clip-rule:evenodd;fill:#3E55A5;}
	.st101{fill:#2C1C28;}
	.st102{fill:#EE7762;}
	.st103{opacity:0.25;fill:#ED5B2A;}
	.st104{fill:#CD3046;}
	.st105{fill:#282B70;}
	.st106{fill:url(#SVGID_21_);}
	.st107{fill:url(#SVGID_22_);}
	.st108{fill:#212B46;}
	.st109{fill:#D2D2E9;}
	.st110{fill:#8F95CA;}
	.st111{fill:#BDBCD8;}
	.st112{fill:#F2F7F6;}
	.st113{fill:#C9C8DF;}
	.st114{fill:#E3E3EE;}
	.st115{fill:#FAF0F7;}
	.st116{fill:#FFFCFD;}
	.st117{fill:#E4A28B;}
	.st118{opacity:0.05;fill:#010101;}
	.st119{fill:#D9DDEC;}
	.st120{fill:#C6CBE7;}
	.st121{fill:#8A97CC;}
	.st122{fill:#DFE4F3;}
	.st123{fill:#D5A393;}
	.st124{fill:#182540;}
	.st125{fill:url(#SVGID_23_);}
	.st126{fill:#F1A993;}
	.st127{fill:#687094;}
	.st128{fill:#D7DBEF;}
	.st129{fill:#F4F4F8;}
	.st130{fill:#B2B9DE;}
	.st131{fill:#4D60AC;}
	.st132{fill:#8E97CB;}
	.st133{fill:#BCC6E5;}
	.st134{fill:#AAB9DF;}
	.st135{fill:#FFFBFD;}
	.st136{fill:#34479E;}
	.st137{opacity:0.2;}
	.st138{fill:#60848C;}
	.st139{fill:url(#SVGID_24_);}
	.st140{fill:#F36E5C;}
	.st141{fill:#85BEE7;}
	.st142{fill:#908F8F;}
	.st143{fill:#F1F0F0;}
	.st144{fill:url(#SVGID_25_);}
	.st145{fill:#CCCCCC;}
	.st146{fill:#F6F7FB;}
	.st147{fill:#E6E6E5;}
	.st148{fill:#F3F3F3;}
	.st149{fill:#EFF0F7;}
	.st150{fill:url(#SVGID_26_);}
	.st151{fill:url(#SVGID_27_);}
	.st152{fill:url(#SVGID_28_);}
	.st153{fill:url(#SVGID_29_);}
	.st154{fill:url(#SVGID_30_);}
	.st155{fill:url(#SVGID_31_);}
	.st156{fill:#3D426A;}
	.st157{fill:#252840;}
	.st158{fill:#C4B4AF;}
	.st159{fill:#EA4747;}
	.st160{fill:#6B7BBC;}
	.st161{fill:#5266AF;}
	.st162{fill:#5062AD;}
	.st163{fill:#EDDAD3;}
	.st164{fill:#DECDC7;}
	.st165{fill:#E3D1CA;}
	.st166{fill:#B39595;}
	.st167{fill:#DBB8B8;}
	.st168{fill:#F1CCCB;}
	.st169{fill:#323538;}
	.st170{fill:#EFAA88;}
	.st171{fill:#1D2133;}
	.st172{fill:#EFAA87;}
	.st173{fill:#D88A51;}
	.st174{fill:#C68D71;}
	.st175{fill:#A19FA7;}
	.st176{fill:#EAE6F1;}
	.st177{fill:#3B4167;}
	.st178{fill:#DE9674;}
	.st179{fill:#764937;}
	.st180{fill:#5D554E;}
	.st181{fill:#3D4246;}
	.st182{fill:#FFD356;}
	.st183{fill:url(#SVGID_32_);}
	.st184{fill:url(#SVGID_33_);}
	.st185{fill:url(#SVGID_34_);}
	.st186{fill:url(#SVGID_35_);}
	.st187{fill:url(#SVGID_36_);}
	.st188{fill:url(#SVGID_37_);}
	.st189{opacity:0.5;}
	.st190{fill:#FCEACF;}
	.st191{opacity:0.8;}
	.st192{fill:#D4EEF6;}
	.st193{fill:#3AA1C9;}
	.st194{fill:#3F9896;}
	.st195{fill:#7FC6A6;}
	.st196{fill:#DEF2FD;}
	.st197{fill:#223849;}
	.st198{fill:#B4E3F7;}
	.st199{fill:#F89F74;}
	.st200{fill:#E33F3E;}
	.st201{fill:#482B32;}
	.st202{fill:#D8E4F4;}
	.st203{fill:#683E47;}
	.st204{fill:#3788BA;}
	.st205{fill:#22131E;}
	.st206{fill:#FAB59D;}
	.st207{fill:#CC2327;}
	.st208{fill:#E2F3F1;}
	.st209{fill:#F07163;}
	.st210{fill:#49273F;}
	.st211{fill:#4C232E;}
	.st212{fill:#010101;}
	.st213{fill:#F7956E;}
	.st214{fill:#F68D64;}
	.st215{fill:#F27584;}
	.st216{fill:#4EB8D9;}
	.st217{fill:#EF4751;}
	.st218{fill:#ACC7E8;}
	.st219{fill:#268E8D;}
	.st220{fill:#3A1F33;}
	.st221{fill:#FECC87;}
	.st222{fill:#FBB359;}
	.st223{fill:#331A2C;}
	.st224{fill:#FDC886;}
	.st225{fill:#F7934B;}
	.st226{fill:#F04D65;}
	.st227{fill:#F6D6B2;}
	.st228{fill:#61A3C5;}
	.st229{fill:#B1D89B;}
	.st230{fill:#A8C8E5;}
	.st231{fill:#C1D1EC;}
	.st232{fill:#F2AC40;}
	.st233{fill:#3B57A6;}
	.st234{fill:#C2D5EE;}
	.st235{fill:#A9C4E6;}
	.st236{fill:#2D572A;}
	.st237{fill:#274392;}
	.st238{fill:#95B0DB;}
	.st239{fill:#BFBFBF;}
	.st240{fill:#E9F3FB;}
	.st241{fill:#6B81C0;}
	.st242{fill:#8FB1DD;}
	.st243{fill:#F58765;}
	.st244{fill:#2C1913;}
	.st245{fill:#6A3F31;}
	.st246{fill:#F37559;}
	.st247{fill:#F47A55;}
	.st248{fill:#E0B3A8;}
	.st249{fill:#D9D9D9;}
	.st250{fill:#C6DD74;}
	.st251{fill:#9FCB5F;}
	.st252{fill:#7C9D48;}
	.st253{fill:#E7E7E7;}
	.st254{fill:#F2C791;}
	.st255{fill:#B7B7B7;}
	.st256{fill:#7595CD;}
	.st257{fill:#FAB18D;}
	.st258{fill:#F6977C;}
	.st259{fill:#D1E28C;}
	.st260{fill:none;}
	.st261{fill:#1B1B1C;}
	.st262{fill:#F47E46;}
	.st263{fill:#EB6828;}
	.st264{fill:#F79668;}
	.st265{fill:#E6B54E;}
	.st266{fill:#676767;}
	.st267{fill:#4D4C4C;}
	.st268{fill:#F27070;}
	.st269{fill:#C24D4D;}
	.st270{enable-background:new    ;}
	.st271{fill:#C39B6A;}
	.st272{fill:#C9A475;}
	.st273{fill:#E6B880;}
	.st274{fill:#9F3D3E;}
	.st275{fill:#FFD679;}
	.st276{fill:#F4805D;}
	.st277{fill:#DA5958;}
	.st278{fill:#7D3D20;}
	.st279{fill:#562915;}
	.st280{fill:#B15931;}
	.st281{fill:#5076BA;}
	.st282{fill:#59ADC0;}
	.st283{fill:#099895;}
	.st284{fill:#F5AE87;}
	.st285{fill:#D9504F;}
	.st286{fill:#FCC79A;}
	.st287{fill:#FFDC7B;}
	.st288{fill:#F15958;}
	.st289{fill:#674E46;}
	.st290{fill:#785D51;}
	.st291{clip-path:url(#SVGID_39_);fill:#60934D;}
	.st292{clip-path:url(#SVGID_39_);}
	.st293{fill:#BD725F;}
	.st294{fill:#E6F1D1;}
	.st295{fill:#A86046;}
	.st296{fill:#3C251D;}
	.st297{fill:#4A413F;}
	.st298{fill:#716765;}
	.st299{fill:#EEBD7F;}
	.st300{fill:#7DA594;}
	.st301{fill:#252433;}
	.st302{fill:#F7E6C7;}
	.st303{fill:#E79F90;}
	.st304{fill:#CC4A38;}
	.st305{fill:#333333;}
	.st306{fill:#E1755E;}
	.st307{fill:#E8A180;}
	.st308{fill:#694136;}
	.st309{fill:#C06360;}
	.st310{fill:#CD5A5A;}
	.st311{fill:#E17660;}
	.st312{opacity:0.42;}
	.st313{fill-rule:evenodd;clip-rule:evenodd;fill:#B1D89B;}
	.st314{clip-path:url(#SVGID_41_);fill:#92B779;}
	.st315{clip-path:url(#SVGID_43_);fill:url(#SVGID_44_);}
	.st316{fill-rule:evenodd;clip-rule:evenodd;fill:#60934D;}
	.st317{clip-path:url(#SVGID_46_);fill:url(#SVGID_47_);}
	.st318{fill-rule:evenodd;clip-rule:evenodd;fill:#274CA1;}
	.st319{clip-path:url(#SVGID_49_);fill:url(#SVGID_50_);}
	.st320{clip-path:url(#SVGID_52_);fill:url(#SVGID_53_);}
	.st321{fill-rule:evenodd;clip-rule:evenodd;fill:#F3AF8F;}
	.st322{fill-rule:evenodd;clip-rule:evenodd;fill:#6E2D5F;}
	.st323{fill-rule:evenodd;clip-rule:evenodd;fill:#4D1942;}
	.st324{fill-rule:evenodd;clip-rule:evenodd;fill:#101841;}
	.st325{fill-rule:evenodd;clip-rule:evenodd;fill:#144984;}
	.st326{fill-rule:evenodd;clip-rule:evenodd;fill:#35AD82;}
	.st327{fill-rule:evenodd;clip-rule:evenodd;fill:#198C67;}
	.st328{fill-rule:evenodd;clip-rule:evenodd;fill:#F6C1C5;}
	.st329{fill-rule:evenodd;clip-rule:evenodd;fill:#53B9E9;}
	.st330{fill-rule:evenodd;clip-rule:evenodd;fill:#7DD3F7;}
	.st331{clip-path:url(#SVGID_55_);fill:url(#SVGID_56_);}
	.st332{clip-path:url(#SVGID_58_);fill:url(#SVGID_59_);}
	.st333{fill-rule:evenodd;clip-rule:evenodd;fill:#3DB4E8;}
	.st334{clip-path:url(#SVGID_61_);fill:url(#SVGID_62_);}
	.st335{fill-rule:evenodd;clip-rule:evenodd;fill:#F4FBFE;}
	.st336{fill-rule:evenodd;clip-rule:evenodd;fill:#F4B1B1;}
	.st337{fill-rule:evenodd;clip-rule:evenodd;fill:#D4EAD8;}
	.st338{fill-rule:evenodd;clip-rule:evenodd;fill:#E16C6C;}
	.st339{clip-path:url(#SVGID_64_);fill:url(#SVGID_65_);}
	.st340{clip-path:url(#SVGID_67_);fill:url(#SVGID_68_);}
	.st341{clip-path:url(#SVGID_70_);fill:url(#SVGID_71_);}
	.st342{clip-path:url(#SVGID_73_);fill:url(#SVGID_74_);}
	.st343{clip-path:url(#SVGID_76_);fill:url(#SVGID_77_);}
	.st344{fill-rule:evenodd;clip-rule:evenodd;fill:#316CB5;}
	.st345{clip-path:url(#SVGID_79_);fill:url(#SVGID_80_);}
	.st346{fill-rule:evenodd;clip-rule:evenodd;fill:#DF5D7B;}
	.st347{clip-path:url(#SVGID_82_);fill:url(#SVGID_83_);}
	.st348{fill-rule:evenodd;clip-rule:evenodd;fill:#2D572A;}
	.st349{clip-path:url(#SVGID_85_);fill:#60934D;}
	.st350{clip-path:url(#SVGID_87_);fill:url(#SVGID_88_);}
	.st351{clip-path:url(#SVGID_90_);fill:url(#SVGID_91_);}
	.st352{clip-path:url(#SVGID_93_);fill:url(#SVGID_94_);}
	.st353{fill:url(#SVGID_95_);}
	.st354{filter:url(#Adobe_OpacityMaskFilter_7_);}
	.st355{filter:url(#Adobe_OpacityMaskFilter_8_);}
	.st356{mask:url(#SVGID_96_);fill:url(#SVGID_97_);}
	.st357{fill:url(#SVGID_98_);}
	.st358{fill:none;stroke:#FFFFFF;stroke-miterlimit:10;}
	.st359{fill:url(#SVGID_99_);}
	.st360{filter:url(#Adobe_OpacityMaskFilter_9_);}
	.st361{filter:url(#Adobe_OpacityMaskFilter_10_);}
	.st362{mask:url(#SVGID_100_);fill:url(#SVGID_101_);}
	.st363{fill:url(#SVGID_102_);}
	.st364{fill:url(#SVGID_103_);}
	.st365{filter:url(#Adobe_OpacityMaskFilter_11_);}
	.st366{filter:url(#Adobe_OpacityMaskFilter_12_);}
	.st367{mask:url(#SVGID_104_);fill:url(#SVGID_105_);}
	.st368{fill:url(#SVGID_106_);}
	.st369{fill:url(#SVGID_107_);}
	.st370{filter:url(#Adobe_OpacityMaskFilter_13_);}
	.st371{filter:url(#Adobe_OpacityMaskFilter_14_);}
	.st372{mask:url(#SVGID_108_);fill:url(#SVGID_109_);}
	.st373{fill:url(#SVGID_110_);}
	.st374{fill:url(#SVGID_111_);}
	.st375{fill:url(#SVGID_112_);}
	.st376{fill:url(#SVGID_113_);}
	.st377{fill:url(#SVGID_114_);}
	.st378{fill:url(#SVGID_115_);}
	.st379{fill:url(#SVGID_116_);}
	.st380{fill:#FBC5B4;}
	.st381{fill:url(#SVGID_117_);}
	.st382{fill:url(#SVGID_118_);}
	.st383{filter:url(#Adobe_OpacityMaskFilter_15_);}
	.st384{filter:url(#Adobe_OpacityMaskFilter_16_);}
	.st385{mask:url(#SVGID_119_);fill:url(#SVGID_120_);}
	.st386{fill:url(#SVGID_121_);}
	.st387{fill:url(#SVGID_122_);}
	.st388{filter:url(#Adobe_OpacityMaskFilter_17_);}
	.st389{filter:url(#Adobe_OpacityMaskFilter_18_);}
	.st390{mask:url(#SVGID_123_);fill:url(#SVGID_124_);}
	.st391{fill:url(#SVGID_125_);}
	.st392{fill:url(#SVGID_126_);}
	.st393{fill:#F69575;}
	.st394{fill:url(#SVGID_127_);}
	.st395{fill:url(#SVGID_128_);}
	.st396{fill:url(#SVGID_129_);}
	.st397{fill:url(#SVGID_130_);}
	.st398{fill:url(#SVGID_131_);}
	.st399{fill:#F05253;}
	.st400{fill:#ED1C24;}
	.st401{fill:url(#SVGID_132_);}
	.st402{fill:url(#SVGID_133_);}
	.st403{fill:url(#SVGID_134_);}
	.st404{fill:url(#SVGID_135_);}
	.st405{fill:url(#SVGID_136_);}
	.st406{fill:url(#SVGID_137_);}
	.st407{fill:#FDC78D;}
	.st408{fill:#FFD10A;}
	.st409{fill:url(#SVGID_138_);}
	.st410{fill:url(#SVGID_139_);}
	.st411{fill:url(#SVGID_140_);}
	.st412{fill:#6899D1;}
	.st413{fill:#F4F4F4;}
	.st414{fill:#DAEEF6;}
	.st415{fill:url(#SVGID_141_);}
	.st416{fill:#85CEC1;}
	.st417{fill:url(#SVGID_142_);}
	.st418{fill:#F37878;}
	.st419{fill:url(#SVGID_143_);}
	.st420{fill:url(#SVGID_144_);}
	.st421{fill:url(#SVGID_145_);}
	.st422{fill:url(#SVGID_146_);}
	.st423{fill:url(#SVGID_147_);}
	.st424{fill:url(#SVGID_148_);}
	.st425{fill:url(#SVGID_149_);}
	.st426{fill:url(#SVGID_150_);}
	.st427{fill:url(#SVGID_151_);}
	.st428{fill:url(#SVGID_152_);}
	.st429{fill:url(#SVGID_153_);}
	.st430{fill:#F0EFEF;}
	.st431{fill:#DBD7D7;}
	.st432{fill:#63C7D3;}
	.st433{opacity:0.5;fill:#63C7D3;}
	.st434{fill:#E6E7F4;}
	.st435{fill:#23214D;}
	.st436{fill:#283996;}
	.st437{fill:#1B193A;}
	.st438{fill:#F68D63;}
	.st439{fill:#F9A575;}
	.st440{fill:#FEDA04;}
	.st441{fill:#312126;}
	.st442{fill:#F15F4B;}
	.st443{fill:#F15834;}
	.st444{fill:#EC4524;}
	.st445{fill:#F26B76;}
	.st446{fill:#4D5BA9;}
	.st447{fill:#2D327E;}
	.st448{fill:#39469D;}
	.st449{fill:#9AC181;}
	.st450{fill:#7ED0DC;}
	.st451{display:none;}
	.st452{display:inline;fill:#F9A575;}
	.st453{display:inline;}
	.st454{fill:#673A3C;}
	.st455{fill:#794447;}
	.st456{fill:#47222C;}
	.st457{fill:#29275C;}
	.st458{fill:#57B0B9;}
	.st459{fill:#EF434E;}
	.st460{fill:#E24826;}
	.st461{fill:#4754A5;}
	.st462{fill:#B6C153;}
	.st463{fill:#DD4361;}
	.st464{fill:#FBB67B;}
	.st465{fill:#F6EEEA;}
	.st466{fill:#251D1C;}
	.st467{fill:#E0B895;}
	.st468{fill:#DFB793;}
	.st469{fill:#B8A79D;}
	.st470{fill:#9B93C7;}
	.st471{fill:#6A8037;}
	.st472{fill:#E9633E;}
	.st473{fill:#F6936F;}
	.st474{fill:#DBD8EC;}
	.st475{fill:#221A19;}
	.st476{fill:#382621;}
	.st477{fill:#F7EFEC;}
	.st478{fill:#FBB67C;}
	.st479{fill:#70CACA;}
	.st480{fill:#004669;}
	.st481{fill:#33ADA9;}
	.st482{fill:#EE777A;}
	.st483{fill:#C3E8F0;}
	.st484{fill:#C39C44;}
	.st485{fill:#FFE6B0;}
	.st486{fill:#FFCB5D;}
	.st487{fill:#D2EDF5;}
	.st488{fill:none;stroke:#D2EDF5;stroke-width:2.2824;stroke-miterlimit:10;}
	.st489{fill:#0F4672;}
	.st490{fill:#92B779;}
	.st491{fill:#D47C60;}
	.st492{fill:#054A6E;}
	.st493{fill:#2B9996;}
	.st494{fill:#CAE9EB;}
	.st495{fill:#F7A581;}
	.st496{fill:#F18D24;}
	.st497{fill:#CF7929;}
	.st498{fill:#182F40;}
	.st499{fill:#0E1B2D;}
	.st500{fill:#406E34;}
	.st501{fill:#3B83B0;}
	.st502{fill:#3B3F4A;}
	.st503{fill:#242930;}
	.st504{fill:#FBD165;}
	.st505{fill:#FCB017;}
	.st506{fill:#155567;}
	.st507{fill:#236A7E;}
	.st508{fill:#3096B3;}
	.st509{fill:#84D2F6;}
	.st510{fill:#C4E4F8;}
	.st511{fill:#FCB774;}
	.st512{fill:#FAA31B;}
	.st513{fill:#E38D25;}
	.st514{fill:#AADFF3;}
	.st515{fill:#126E84;}
	.st516{fill:#064A56;}
	.st517{fill:#096D84;}
	.st518{fill:#D3CED9;}
	.st519{fill:#D89466;}
	.st520{fill:#FAA61A;}
	.st521{fill:#AA6549;}
	.st522{fill:#B35143;}
	.st523{fill:#3B3E54;}
	.st524{fill:#8A432D;}
	.st525{fill:#4C2F2C;}
	.st526{fill:#3C1C19;}
	.st527{fill:#9889C1;}
	.st528{fill:#CC8759;}
	.st529{fill:#665DA9;}
	.st530{fill:#5C2B20;}
	.st531{fill:#F4F5F0;}
	.st532{fill:#E04A95;}
	.st533{fill:#BC6944;}
	.st534{fill:#673021;}
	.st535{fill:#C4C2DF;}
	.st536{fill:#342B29;}
	.st537{fill:#E69F6F;}
	.st538{fill:#F173AC;}
	.st539{fill:#FAA43A;}
	.st540{fill:#F7F7FA;}
	.st541{fill:#3F4076;}
	.st542{fill:#5CA4DA;}
	.st543{fill:#BBD071;}
	.st544{fill:#97A33B;}
	.st545{fill:#49763A;}
	.st546{fill:#E5F2FC;}
	.st547{opacity:0.85;}
	.st548{fill:#4692CF;}
	.st549{fill:#0E2D3D;}
	.st550{fill:#5478B4;}
	.st551{fill:#5B83C3;}
	.st552{fill:#304664;}
	.st553{fill:#364D71;}
	.st554{fill:#2C3B57;}
	.st555{fill:#D5D8E8;}
	.st556{opacity:0.82;}
	.st557{fill:#418ECC;}
	.st558{fill:#173342;}
	.st559{fill:#295274;}
	.st560{fill:#F47D58;}
	.st561{fill:#183C59;}
	.st562{fill:#616262;}
	.st563{fill:#E0CFC8;}
	.st564{fill:#64A8DC;}
	.st565{opacity:0.66;}
	.st566{fill:#CBE1F5;}
	.st567{fill:#8CB6E1;}
	.st568{fill:#B5D3EF;}
	.st569{fill:#B8D8F2;}
	.st570{fill:#92B4DF;}
	.st571{fill:#BBDDDE;}
	.st572{fill:#D1ECED;}
	.st573{fill:#C8CBE2;}
	.st574{fill:#669AD2;}
	.st575{fill:#4D84C5;}
	.st576{fill:#181C4D;}
	.st577{fill:#EFBBBB;}
	.st578{fill:#F9CBCB;}
	.st579{fill:#2B3874;}
	.st580{fill:#EBAEAD;}
	.st581{fill:#21295D;}
	.st582{fill:#31344D;}
	.st583{fill:#FCD4D1;}
	.st584{fill:#B95050;}
	.st585{fill:#FEE9E2;}
	.st586{fill:#181A2E;}
	.st587{fill:#EB9B9C;}
	.st588{fill:#F9B7B3;}
	.st589{fill:#444C86;}
	.st590{fill:#2B3367;}
	.st591{fill:#93BAE3;}
	.st592{fill:#4B80C1;}
	.st593{fill:#396CAD;}
	.st594{fill:#C0D9F1;}
	.st595{fill:#F9B4AF;}
	.st596{fill:#4E88C7;}
	.st597{fill:#195595;}
	.st598{fill:#D9475A;}
	.st599{fill:#1172BA;}
	.st600{fill:#247BBC;}
	.st601{fill:#FAA71F;}
	.st602{fill:#D55127;}
	.st603{fill:none;stroke:#212F57;stroke-width:0.925;stroke-miterlimit:10;}
	.st604{fill:#212F57;}
	.st605{opacity:0.5;fill:#838DC5;}
	.st606{fill:#F2C7BD;}
	.st607{fill:none;stroke:#212F57;stroke-width:1.2665;stroke-linecap:round;stroke-linejoin:round;stroke-miterlimit:10;}
	.st608{fill:#272A41;}
	.st609{fill:none;stroke:#E8B1C3;stroke-width:2.5241;stroke-miterlimit:10;}
	.st610{fill:#5160A5;}
	.st611{opacity:0.5;fill:#D55127;}
	.st612{opacity:0.5;fill:#DA8727;}
	.st613{opacity:0.7;}
	.st614{fill:#DA8727;}
	.st615{fill:#A3BDE3;}
	.st616{fill:#1B7A84;}
	.st617{fill:#B1D2EF;}
	.st618{fill:#F8ACAD;}
	.st619{opacity:0.63;}
	.st620{clip-path:url(#SVGID_155_);}
	.st621{fill:#D7E7F6;}
	.st622{clip-path:url(#SVGID_157_);}
	.st623{clip-path:url(#SVGID_159_);}
	.st624{clip-path:url(#SVGID_161_);}
	.st625{clip-path:url(#SVGID_163_);}
	.st626{clip-path:url(#SVGID_165_);}
	.st627{clip-path:url(#SVGID_167_);}
	.st628{clip-path:url(#SVGID_169_);}
	.st629{clip-path:url(#SVGID_171_);}
	.st630{clip-path:url(#SVGID_173_);}
	.st631{clip-path:url(#SVGID_175_);}
	.st632{clip-path:url(#SVGID_177_);}
	.st633{clip-path:url(#SVGID_179_);}
	.st634{clip-path:url(#SVGID_181_);}
	.st635{clip-path:url(#SVGID_183_);}
	.st636{clip-path:url(#SVGID_185_);}
	.st637{clip-path:url(#SVGID_187_);}
	.st638{clip-path:url(#SVGID_189_);}
	.st639{clip-path:url(#SVGID_191_);}
	.st640{clip-path:url(#SVGID_193_);}
	.st641{clip-path:url(#SVGID_195_);}
	.st642{fill:#89B2DF;}
	.st643{fill:#4377BC;}
	.st644{fill:#DA6566;}
	.st645{fill:#F58E92;}
	.st646{fill-rule:evenodd;clip-rule:evenodd;fill:#4DB5D1;}
	.st647{fill:#F15C60;}
	.st648{fill:#FFD574;}
	.st649{fill:#F2B892;}
	.st650{fill:#EB836C;}
	.st651{fill:url(#SVGID_196_);}
	.st652{fill:#222C55;}
	.st653{fill:#4551A3;}
	.st654{fill:url(#SVGID_197_);}
	.st655{fill:#0B3C5F;}
	.st656{fill:#F8A187;}
	.st657{fill:#F4B68F;}
	.st658{fill:#232850;}
	.st659{fill:#306D9E;}
	.st660{fill:#255981;}
	.st661{fill:#F69E83;}
	.st662{fill:#0B3D60;}
	.st663{opacity:0.45;fill:#89B2DF;}
	.st664{filter:url(#Adobe_OpacityMaskFilter_19_);}
	.st665{filter:url(#Adobe_OpacityMaskFilter_20_);}
	.st666{mask:url(#SVGID_198_);fill:url(#SVGID_199_);}
	.st667{opacity:0.33;fill:#AADFF3;}
	.st668{filter:url(#Adobe_OpacityMaskFilter_21_);}
	.st669{filter:url(#Adobe_OpacityMaskFilter_22_);}
	.st670{mask:url(#SVGID_200_);fill:url(#SVGID_201_);}
	.st671{filter:url(#Adobe_OpacityMaskFilter_23_);}
	.st672{filter:url(#Adobe_OpacityMaskFilter_24_);}
	.st673{mask:url(#SVGID_202_);fill:url(#SVGID_203_);}
	.st674{fill:#CFD8EE;}
	.st675{fill:#E3E6F4;}
	.st676{fill:#ABBADF;}
	.st677{fill:#C3CCE8;}
	.st678{fill:url(#SVGID_204_);}
	.st679{fill:url(#SVGID_205_);}
	.st680{fill:#D3D0E9;}
	.st681{fill:#078BBF;}
	.st682{fill:#057B97;}
	.st683{fill:url(#SVGID_206_);}
	.st684{fill:#C74534;}
	.st685{fill:#F27B66;}
	.st686{fill:#58449B;}
	.st687{fill:#6B52A2;}
	.st688{fill:#A9A6D2;}
	.st689{fill:#C4C0E0;}
	.st690{opacity:0.33;}
	.st691{opacity:0.23;fill:url(#SVGID_207_);}
	.st692{opacity:0.36;fill:url(#SVGID_208_);}
	.st693{opacity:0.36;fill:url(#SVGID_209_);}
	.st694{opacity:0.23;fill:url(#SVGID_210_);}
	.st695{fill:#D8E0F2;}
	.st696{opacity:0.36;fill:url(#SVGID_211_);}
	.st697{opacity:0.42;fill:url(#SVGID_212_);}
	.st698{fill:#F6F9FD;}
	.st699{fill:#049AC9;}
	.st700{fill:#E0E0E0;}
	.st701{fill:#EBEBEB;}
	.st702{fill:none;stroke:#F2A59D;stroke-width:0.05;stroke-miterlimit:10;}
	.st703{fill:#FAFBFB;}
	.st704{fill:#E7515B;}
	.st705{fill:#CFCFCE;}
	.st706{fill:#FBBD9D;}
	.st707{fill:#EC996F;}
	.st708{opacity:0.6;fill:#FFFFFF;}
	.st709{opacity:0.6;}
	.st710{fill:#263238;}
	.st711{fill:#455B64;}
	.st712{fill:none;stroke:#43494E;stroke-miterlimit:10;}
	.st713{fill:#F5F5F5;}
	.st714{fill:#F3725F;}
	.st715{opacity:0;}
	.st716{clip-path:url(#SVGID_214_);}
	.st717{fill:#C9D8EF;}
	.st718{clip-path:url(#SVGID_216_);}
	.st719{clip-path:url(#SVGID_218_);}
	.st720{clip-path:url(#SVGID_220_);}
	.st721{clip-path:url(#SVGID_222_);}
	.st722{clip-path:url(#SVGID_224_);}
	.st723{clip-path:url(#SVGID_226_);}
	.st724{clip-path:url(#SVGID_228_);}
	.st725{clip-path:url(#SVGID_230_);}
	.st726{clip-path:url(#SVGID_232_);}
	.st727{clip-path:url(#SVGID_234_);}
	.st728{clip-path:url(#SVGID_236_);}
	.st729{clip-path:url(#SVGID_238_);}
	.st730{clip-path:url(#SVGID_240_);}
	.st731{clip-path:url(#SVGID_242_);}
	.st732{clip-path:url(#SVGID_244_);}
	.st733{clip-path:url(#SVGID_246_);}
	.st734{clip-path:url(#SVGID_248_);}
	.st735{clip-path:url(#SVGID_250_);}
	.st736{clip-path:url(#SVGID_252_);}
	.st737{clip-path:url(#SVGID_254_);}
	.st738{fill:#59595B;}
	.st739{fill:#EDF7F7;}
	.st740{fill:#FDD247;}
	.st741{fill:#1D2040;}
	.st742{fill:url(#SVGID_255_);}
	.st743{fill:#F89A45;}
	.st744{fill:#4F2E1F;}
	.st745{fill:#AEADAD;}
	.st746{fill:#3C2116;}
	.st747{fill:#76696D;}
	.st748{fill:#DFB0B4;}
	.st749{fill:#0E4363;}
	.st750{fill:#F8F6F1;}
	.st751{fill:#A4BAE1;}
	.st752{fill:#4D1F38;}
	.st753{fill:#3A1528;}
	.st754{fill:#746875;}
	.st755{fill:#DAADD1;}
	.st756{fill:url(#SVGID_256_);}
	.st757{fill:#CD3570;}
	.st758{fill:url(#SVGID_257_);}
	.st759{fill:url(#SVGID_258_);}
	.st760{fill:#A09F9F;}
	.st761{fill:none;stroke:#FFFFFF;stroke-linecap:round;stroke-miterlimit:10;}
	.st762{fill:none;stroke:#FFFFFF;stroke-linecap:round;stroke-linejoin:round;stroke-miterlimit:10;}
	.st763{fill:none;stroke:#A09F9F;stroke-miterlimit:10;}
	.st764{fill:#7B553A;}
	.st765{fill:#5F422D;}
	.st766{fill:#FDB839;}
	.st767{fill:#401B0F;}
	.st768{fill:#034B4E;}
	.st769{opacity:0.36;}
	.st770{opacity:0.1;fill:#CFCFCE;}
	.st771{opacity:0.15;}
	.st772{fill:#FBB781;}
	.st773{fill:#49A8D5;}
	.st774{fill:#077679;}
	.st775{opacity:0.1;}
	.st776{fill:#BEE0C0;}
	.st777{opacity:0.23;fill:#245C74;}
	.st778{fill:#245C74;}
	.st779{fill:#FCC69B;}
	.st780{fill:#DBA285;}
	.st781{fill:#757576;}
	.st782{fill:#ABABAA;}
	.st783{fill:#6F6F71;}
	.st784{fill:#FFCA70;}
	.st785{fill:#FAA325;}
	.st786{fill:none;stroke:#077679;stroke-width:0.25;stroke-linecap:round;stroke-linejoin:round;stroke-miterlimit:10;}
	.st787{fill:#963A20;}
	.st788{fill:#E2E2E2;}
	.st789{fill:#18184B;}
	.st790{fill:#F8B6C9;}
	.st791{fill:#F58531;}
	.st792{fill:#759CD2;}
	.st793{fill:#BACFEB;}
</style>
<g>
	<path class="st229" d="M23.09,84.94c0,0-8.61-19.34,4.33-41.83c10.25-17.81,38.65-38.1,69.99-24.31
		c37.82,16.65,41.92,33.2,40.28,47.58c-1.48,13.08-13.16,18.55-13.16,18.55H23.09z"/>
	<g>
		<path class="st3" d="M102.6,9.92H58.05c-2.9,0-5.26,2.35-5.26,5.26v64.34c0,2.9,2.35,5.26,5.26,5.26h44.55
			c2.9,0,5.26-2.35,5.26-5.26V15.18C107.85,12.28,105.5,9.92,102.6,9.92z"/>
		<path class="st282" d="M102.6,84.95H58.05c-2.99,0-5.42-2.43-5.42-5.42V15.18c0-2.99,2.43-5.42,5.42-5.42h44.55
			c2.99,0,5.42,2.43,5.42,5.42v64.34C108.02,82.52,105.59,84.95,102.6,84.95z M58.05,10.09c-2.81,0-5.09,2.28-5.09,5.09v64.34
			c0,2.81,2.28,5.09,5.09,5.09h44.55c2.81,0,5.09-2.28,5.09-5.09V15.18c0-2.81-2.28-5.09-5.09-5.09H58.05z"/>
	</g>
	<g>
		<g>
			<g>
				<path class="st3" d="M63.66,20.78c-0.74,0-1.45,0.17-2.08,0.46c-1.68,0.78-2.84,2.49-2.84,4.46c0,2.72,2.2,4.92,4.92,4.92
					c2.72,0,4.92-2.2,4.92-4.92C68.58,22.98,66.38,20.78,63.66,20.78z"/>
				<path class="st282" d="M63.66,30.78c-2.8,0-5.09-2.28-5.09-5.09c0-1.97,1.15-3.78,2.93-4.61l0,0c0.68-0.32,1.4-0.48,2.15-0.48
					c2.8,0,5.09,2.28,5.09,5.09S66.47,30.78,63.66,30.78z M61.65,21.39c-1.67,0.78-2.74,2.47-2.74,4.31c0,2.62,2.13,4.75,4.75,4.75
					c2.62,0,4.75-2.13,4.75-4.75c0-2.62-2.13-4.75-4.75-4.75C62.96,20.94,62.28,21.09,61.65,21.39L61.65,21.39z"/>
			</g>
			<g>
				<g>
					<polygon class="st283" points="63.81,29.79 59.51,24.14 61.78,22.49 64.01,25.42 70.31,18.63 72.41,20.5 					"/>
				</g>
			</g>
		</g>
		<g>
			<path class="st3" d="M100.64,24.19H75.42c-0.57,0-1.04,0.46-1.04,1.04l0,0c0,0.57,0.46,1.04,1.04,1.04h25.22
				c0.57,0,1.04-0.46,1.04-1.04l0,0C101.68,24.66,101.21,24.19,100.64,24.19z"/>
			<path class="st282" d="M100.64,26.43H75.42c-0.66,0-1.2-0.54-1.2-1.2c0-0.66,0.54-1.2,1.2-1.2h25.22c0.66,0,1.2,0.54,1.2,1.2
				C101.84,25.89,101.3,26.43,100.64,26.43z M75.42,24.36c-0.48,0-0.87,0.39-0.87,0.87s0.39,0.87,0.87,0.87h25.22
				c0.48,0,0.87-0.39,0.87-0.87s-0.39-0.87-0.87-0.87H75.42z"/>
		</g>
		<g>
			<path class="st3" d="M100.64,28.02H75.42c-0.57,0-1.04,0.46-1.04,1.04l0,0c0,0.57,0.46,1.04,1.04,1.04h25.22
				c0.57,0,1.04-0.46,1.04-1.04l0,0C101.68,28.49,101.21,28.02,100.64,28.02z"/>
			<path class="st282" d="M100.64,30.26H75.42c-0.66,0-1.2-0.54-1.2-1.2c0-0.66,0.54-1.2,1.2-1.2h25.22c0.66,0,1.2,0.54,1.2,1.2
				C101.84,29.72,101.3,30.26,100.64,30.26z M75.42,28.19c-0.48,0-0.87,0.39-0.87,0.87s0.39,0.87,0.87,0.87h25.22
				c0.48,0,0.87-0.39,0.87-0.87s-0.39-0.87-0.87-0.87H75.42z"/>
		</g>
		<g>
			<g>
				<path class="st3" d="M63.66,34.48c-0.74,0-1.45,0.17-2.08,0.46c-1.68,0.78-2.84,2.49-2.84,4.46c0,2.72,2.2,4.92,4.92,4.92
					c2.72,0,4.92-2.2,4.92-4.92C68.58,36.68,66.38,34.48,63.66,34.48z"/>
				<path class="st282" d="M63.66,44.49c-2.8,0-5.09-2.28-5.09-5.09c0-1.97,1.15-3.78,2.93-4.61l0,0c0.68-0.32,1.4-0.48,2.15-0.48
					c2.8,0,5.09,2.28,5.09,5.09C68.75,42.21,66.47,44.49,63.66,44.49z M61.65,35.09c-1.67,0.78-2.74,2.47-2.74,4.31
					c0,2.62,2.13,4.75,4.75,4.75c2.62,0,4.75-2.13,4.75-4.75c0-2.62-2.13-4.75-4.75-4.75C62.96,34.65,62.28,34.8,61.65,35.09
					L61.65,35.09z"/>
			</g>
		</g>
		<g>
			<path class="st3" d="M100.64,37.9H75.42c-0.57,0-1.04,0.46-1.04,1.04l0,0c0,0.57,0.46,1.04,1.04,1.04h25.22
				c0.57,0,1.04-0.46,1.04-1.04l0,0C101.68,38.36,101.21,37.9,100.64,37.9z"/>
			<path class="st282" d="M100.64,40.14H75.42c-0.66,0-1.2-0.54-1.2-1.2s0.54-1.2,1.2-1.2h25.22c0.66,0,1.2,0.54,1.2,1.2
				S101.3,40.14,100.64,40.14z M75.42,38.06c-0.48,0-0.87,0.39-0.87,0.87c0,0.48,0.39,0.87,0.87,0.87h25.22
				c0.48,0,0.87-0.39,0.87-0.87c0-0.48-0.39-0.87-0.87-0.87H75.42z"/>
		</g>
		<g>
			<path class="st3" d="M100.64,41.73H75.42c-0.57,0-1.04,0.46-1.04,1.04l0,0c0,0.57,0.46,1.04,1.04,1.04h25.22
				c0.57,0,1.04-0.46,1.04-1.04l0,0C101.68,42.19,101.21,41.73,100.64,41.73z"/>
			<path class="st282" d="M100.64,43.97H75.42c-0.66,0-1.2-0.54-1.2-1.2c0-0.66,0.54-1.2,1.2-1.2h25.22c0.66,0,1.2,0.54,1.2,1.2
				C101.84,43.43,101.3,43.97,100.64,43.97z M75.42,41.89c-0.48,0-0.87,0.39-0.87,0.87c0,0.48,0.39,0.87,0.87,0.87h25.22
				c0.48,0,0.87-0.39,0.87-0.87c0-0.48-0.39-0.87-0.87-0.87H75.42z"/>
		</g>
		<g>
			<g>
				<path class="st3" d="M63.66,48.19c-0.74,0-1.45,0.17-2.08,0.46c-1.68,0.78-2.84,2.49-2.84,4.46c0,2.72,2.2,4.92,4.92,4.92
					c2.72,0,4.92-2.2,4.92-4.92C68.58,50.39,66.38,48.19,63.66,48.19z"/>
				<path class="st282" d="M63.66,58.19c-2.8,0-5.09-2.28-5.09-5.09c0-1.97,1.15-3.78,2.93-4.61l0,0c0.68-0.32,1.4-0.48,2.15-0.48
					c2.8,0,5.09,2.28,5.09,5.09S66.47,58.19,63.66,58.19z M61.65,48.8c-1.67,0.78-2.74,2.47-2.74,4.31c0,2.62,2.13,4.75,4.75,4.75
					c2.62,0,4.75-2.13,4.75-4.75c0-2.62-2.13-4.75-4.75-4.75C62.96,48.35,62.28,48.5,61.65,48.8L61.65,48.8z"/>
			</g>
		</g>
		<g>
			<path class="st3" d="M100.64,51.6H75.42c-0.57,0-1.04,0.46-1.04,1.04l0,0c0,0.57,0.46,1.04,1.04,1.04h25.22
				c0.57,0,1.04-0.46,1.04-1.04l0,0C101.68,52.07,101.21,51.6,100.64,51.6z"/>
			<path class="st282" d="M100.64,53.84H75.42c-0.66,0-1.2-0.54-1.2-1.2c0-0.66,0.54-1.2,1.2-1.2h25.22c0.66,0,1.2,0.54,1.2,1.2
				C101.84,53.3,101.3,53.84,100.64,53.84z M75.42,51.77c-0.48,0-0.87,0.39-0.87,0.87c0,0.48,0.39,0.87,0.87,0.87h25.22
				c0.48,0,0.87-0.39,0.87-0.87c0-0.48-0.39-0.87-0.87-0.87H75.42z"/>
		</g>
		<g>
			<path class="st3" d="M100.64,55.43H75.42c-0.57,0-1.04,0.46-1.04,1.04l0,0c0,0.57,0.46,1.04,1.04,1.04h25.22
				c0.57,0,1.04-0.46,1.04-1.04l0,0C101.68,55.9,101.21,55.43,100.64,55.43z"/>
			<path class="st282" d="M100.64,57.68H75.42c-0.66,0-1.2-0.54-1.2-1.2s0.54-1.2,1.2-1.2h25.22c0.66,0,1.2,0.54,1.2,1.2
				S101.3,57.68,100.64,57.68z M75.42,55.6c-0.48,0-0.87,0.39-0.87,0.87c0,0.48,0.39,0.87,0.87,0.87h25.22
				c0.48,0,0.87-0.39,0.87-0.87c0-0.48-0.39-0.87-0.87-0.87H75.42z"/>
		</g>
		<g>
			<g>
				<path class="st3" d="M100.79,64.38h-5.04c-0.48,0-0.86,0.39-0.86,0.86v5.04c0,0.48,0.39,0.86,0.86,0.86h5.04
					c0.48,0,0.86-0.39,0.86-0.86v-5.04C101.65,64.77,101.27,64.38,100.79,64.38z"/>
				<path class="st282" d="M100.79,71.31h-5.04c-0.57,0-1.03-0.46-1.03-1.03v-5.04c0-0.57,0.46-1.03,1.03-1.03h5.04
					c0.57,0,1.03,0.46,1.03,1.03v5.04C101.82,70.85,101.36,71.31,100.79,71.31z M95.75,64.55c-0.38,0-0.7,0.31-0.7,0.7v5.04
					c0,0.38,0.31,0.7,0.7,0.7h5.04c0.38,0,0.7-0.31,0.7-0.7v-5.04c0-0.38-0.31-0.7-0.7-0.7H95.75z"/>
			</g>
			<g>
				<path class="st3" d="M100.79,73.11h-5.04c-0.48,0-0.86,0.39-0.86,0.86v5.04c0,0.48,0.39,0.86,0.86,0.86h5.04
					c0.48,0,0.86-0.39,0.86-0.86v-5.04C101.65,73.5,101.27,73.11,100.79,73.11z"/>
				<path class="st282" d="M100.79,80.04h-5.04c-0.57,0-1.03-0.46-1.03-1.03v-5.04c0-0.57,0.46-1.03,1.03-1.03h5.04
					c0.57,0,1.03,0.46,1.03,1.03v5.04C101.82,79.58,101.36,80.04,100.79,80.04z M95.75,73.28c-0.38,0-0.7,0.31-0.7,0.7v5.04
					c0,0.38,0.31,0.7,0.7,0.7h5.04c0.38,0,0.7-0.31,0.7-0.7v-5.04c0-0.38-0.31-0.7-0.7-0.7H95.75z"/>
			</g>
			<g>
				<path class="st3" d="M92.27,64.38h-5.04c-0.48,0-0.86,0.39-0.86,0.86v5.04c0,0.48,0.39,0.86,0.86,0.86h5.04
					c0.48,0,0.86-0.39,0.86-0.86v-5.04C93.13,64.77,92.74,64.38,92.27,64.38z"/>
				<path class="st282" d="M92.27,71.31h-5.04c-0.57,0-1.03-0.46-1.03-1.03v-5.04c0-0.57,0.46-1.03,1.03-1.03h5.04
					c0.57,0,1.03,0.46,1.03,1.03v5.04C93.3,70.85,92.83,71.31,92.27,71.31z M87.23,64.55c-0.38,0-0.7,0.31-0.7,0.7v5.04
					c0,0.38,0.31,0.7,0.7,0.7h5.04c0.38,0,0.7-0.31,0.7-0.7v-5.04c0-0.38-0.31-0.7-0.7-0.7H87.23z"/>
			</g>
			<g>
				<path class="st3" d="M92.27,73.11h-5.04c-0.48,0-0.86,0.39-0.86,0.86v5.04c0,0.48,0.39,0.86,0.86,0.86h5.04
					c0.48,0,0.86-0.39,0.86-0.86v-5.04C93.13,73.5,92.74,73.11,92.27,73.11z"/>
				<path class="st282" d="M92.27,80.04h-5.04c-0.57,0-1.03-0.46-1.03-1.03v-5.04c0-0.57,0.46-1.03,1.03-1.03h5.04
					c0.57,0,1.03,0.46,1.03,1.03v5.04C93.3,79.58,92.83,80.04,92.27,80.04z M87.23,73.28c-0.38,0-0.7,0.31-0.7,0.7v5.04
					c0,0.38,0.31,0.7,0.7,0.7h5.04c0.38,0,0.7-0.31,0.7-0.7v-5.04c0-0.38-0.31-0.7-0.7-0.7H87.23z"/>
			</g>
			<g>
				<path class="st3" d="M83.74,64.38H78.7c-0.48,0-0.86,0.39-0.86,0.86v5.04c0,0.48,0.39,0.86,0.86,0.86h5.04
					c0.48,0,0.86-0.39,0.86-0.86v-5.04C84.61,64.77,84.22,64.38,83.74,64.38z"/>
				<path class="st282" d="M83.74,71.31H78.7c-0.57,0-1.03-0.46-1.03-1.03v-5.04c0-0.57,0.46-1.03,1.03-1.03h5.04
					c0.57,0,1.03,0.46,1.03,1.03v5.04C84.77,70.85,84.31,71.31,83.74,71.31z M78.7,64.55c-0.38,0-0.7,0.31-0.7,0.7v5.04
					c0,0.38,0.31,0.7,0.7,0.7h5.04c0.38,0,0.7-0.31,0.7-0.7v-5.04c0-0.38-0.31-0.7-0.7-0.7H78.7z"/>
			</g>
			<g>
				<path class="st3" d="M83.74,73.11H78.7c-0.48,0-0.86,0.39-0.86,0.86v5.04c0,0.48,0.39,0.86,0.86,0.86h5.04
					c0.48,0,0.86-0.39,0.86-0.86v-5.04C84.61,73.5,84.22,73.11,83.74,73.11z"/>
				<path class="st282" d="M83.74,80.04H78.7c-0.57,0-1.03-0.46-1.03-1.03v-5.04c0-0.57,0.46-1.03,1.03-1.03h5.04
					c0.57,0,1.03,0.46,1.03,1.03v5.04C84.77,79.58,84.31,80.04,83.74,80.04z M78.7,73.28c-0.38,0-0.7,0.31-0.7,0.7v5.04
					c0,0.38,0.31,0.7,0.7,0.7h5.04c0.38,0,0.7-0.31,0.7-0.7v-5.04c0-0.38-0.31-0.7-0.7-0.7H78.7z"/>
			</g>
			<g>
				<path class="st3" d="M75.22,64.38h-5.04c-0.48,0-0.86,0.39-0.86,0.86v5.04c0,0.48,0.39,0.86,0.86,0.86h5.04
					c0.48,0,0.86-0.39,0.86-0.86v-5.04C76.08,64.77,75.7,64.38,75.22,64.38z"/>
				<path class="st282" d="M75.22,71.31h-5.04c-0.57,0-1.03-0.46-1.03-1.03v-5.04c0-0.57,0.46-1.03,1.03-1.03h5.04
					c0.57,0,1.03,0.46,1.03,1.03v5.04C76.25,70.85,75.79,71.31,75.22,71.31z M70.18,64.55c-0.38,0-0.7,0.31-0.7,0.7v5.04
					c0,0.38,0.31,0.7,0.7,0.7h5.04c0.38,0,0.7-0.31,0.7-0.7v-5.04c0-0.38-0.31-0.7-0.7-0.7H70.18z"/>
			</g>
			<g>
				<path class="st3" d="M75.22,73.11h-5.04c-0.48,0-0.86,0.39-0.86,0.86v5.04c0,0.48,0.39,0.86,0.86,0.86h5.04
					c0.48,0,0.86-0.39,0.86-0.86v-5.04C76.08,73.5,75.7,73.11,75.22,73.11z"/>
				<path class="st282" d="M75.22,80.04h-5.04c-0.57,0-1.03-0.46-1.03-1.03v-5.04c0-0.57,0.46-1.03,1.03-1.03h5.04
					c0.57,0,1.03,0.46,1.03,1.03v5.04C76.25,79.58,75.79,80.04,75.22,80.04z M70.18,73.28c-0.38,0-0.7,0.31-0.7,0.7v5.04
					c0,0.38,0.31,0.7,0.7,0.7h5.04c0.38,0,0.7-0.31,0.7-0.7v-5.04c0-0.38-0.31-0.7-0.7-0.7H70.18z"/>
			</g>
			<g>
				<path class="st3" d="M66.7,64.38h-5.04c-0.48,0-0.86,0.39-0.86,0.86v5.04c0,0.48,0.39,0.86,0.86,0.86h5.04
					c0.48,0,0.86-0.39,0.86-0.86v-5.04C67.56,64.77,67.18,64.38,66.7,64.38z"/>
				<path class="st282" d="M66.7,71.31h-5.04c-0.57,0-1.03-0.46-1.03-1.03v-5.04c0-0.57,0.46-1.03,1.03-1.03h5.04
					c0.57,0,1.03,0.46,1.03,1.03v5.04C67.73,70.85,67.27,71.31,66.7,71.31z M61.66,64.55c-0.38,0-0.7,0.31-0.7,0.7v5.04
					c0,0.38,0.31,0.7,0.7,0.7h5.04c0.38,0,0.7-0.31,0.7-0.7v-5.04c0-0.38-0.31-0.7-0.7-0.7H61.66z"/>
			</g>
			<g>
				<path class="st3" d="M66.7,73.11h-5.04c-0.48,0-0.86,0.39-0.86,0.86v5.04c0,0.48,0.39,0.86,0.86,0.86h5.04
					c0.48,0,0.86-0.39,0.86-0.86v-5.04C67.56,73.5,67.18,73.11,66.7,73.11z"/>
				<path class="st282" d="M66.7,80.04h-5.04c-0.57,0-1.03-0.46-1.03-1.03v-5.04c0-0.57,0.46-1.03,1.03-1.03h5.04
					c0.57,0,1.03,0.46,1.03,1.03v5.04C67.73,79.58,67.27,80.04,66.7,80.04z M61.66,73.28c-0.38,0-0.7,0.31-0.7,0.7v5.04
					c0,0.38,0.31,0.7,0.7,0.7h5.04c0.38,0,0.7-0.31,0.7-0.7v-5.04c0-0.38-0.31-0.7-0.7-0.7H61.66z"/>
			</g>
			<g>
				
					<rect x="63.22" y="64.65" transform="matrix(0.7071 -0.7071 0.7071 0.7071 -29.0406 65.201)" class="st282" width="1.95" height="6.01"/>
				
					<rect x="63.22" y="64.65" transform="matrix(-0.7071 -0.7071 0.7071 -0.7071 61.7353 160.8864)" class="st282" width="1.95" height="6.01"/>
			</g>
			<g>
				
					<rect x="71.77" y="64.65" transform="matrix(0.7071 -0.7071 0.7071 0.7071 -26.5361 71.2478)" class="st282" width="1.95" height="6.01"/>
				
					<rect x="71.77" y="64.65" transform="matrix(-0.7071 -0.7071 0.7071 -0.7071 76.3341 166.9335)" class="st282" width="1.95" height="6.01"/>
			</g>
			<g>
				
					<rect x="80.32" y="64.65" transform="matrix(0.7071 -0.7071 0.7071 0.7071 -24.0315 77.2946)" class="st282" width="1.95" height="6.01"/>
				
					<rect x="80.32" y="64.65" transform="matrix(-0.7071 -0.7071 0.7071 -0.7071 90.9328 172.9805)" class="st282" width="1.95" height="6.01"/>
			</g>
			<g>
				
					<rect x="63.22" y="73.49" transform="matrix(0.7071 -0.7071 0.7071 0.7071 -35.2911 67.7934)" class="st282" width="1.95" height="6.01"/>
				
					<rect x="63.22" y="73.49" transform="matrix(-0.7071 -0.7071 0.7071 -0.7071 55.4886 175.9765)" class="st282" width="1.95" height="6.01"/>
			</g>
			<g>
				
					<rect x="71.77" y="73.49" transform="matrix(0.7071 -0.7071 0.7071 0.7071 -32.7863 73.8404)" class="st282" width="1.95" height="6.01"/>
				
					<rect x="71.77" y="73.49" transform="matrix(-0.7071 -0.7071 0.7071 -0.7071 70.0875 182.0233)" class="st282" width="1.95" height="6.01"/>
			</g>
			<g>
				
					<rect x="80.32" y="73.49" transform="matrix(0.7071 -0.7071 0.7071 0.7071 -30.2816 79.8874)" class="st282" width="1.95" height="6.01"/>
				
					<rect x="80.32" y="73.49" transform="matrix(-0.7071 -0.7071 0.7071 -0.7071 84.6865 188.07)" class="st282" width="1.95" height="6.01"/>
			</g>
			<g>
				
					<rect x="88.87" y="64.65" transform="matrix(0.7071 -0.7071 0.7071 0.7071 -21.527 83.3413)" class="st282" width="1.95" height="6.01"/>
				
					<rect x="88.87" y="64.65" transform="matrix(-0.7071 -0.7071 0.7071 -0.7071 105.5315 179.0274)" class="st282" width="1.95" height="6.01"/>
			</g>
			<g>
				
					<rect x="97.42" y="64.65" transform="matrix(0.7071 -0.7071 0.7071 0.7071 -19.0217 89.3924)" class="st282" width="1.95" height="6.01"/>
				
					<rect x="97.42" y="64.65" transform="matrix(-0.7071 -0.7071 0.7071 -0.7071 120.126 185.0752)" class="st282" width="1.95" height="6.01"/>
			</g>
		</g>
	</g>
	<path class="st284" d="M35.08,71.83c-4.05,1.99-9.98,1.76-14.39,1.19c-1.93-0.25-3.26-2.68-4.91,0.1c-1.45,2.43-2.53,5.25,1.24,6.6
		c2.19,0.78,9.32-0.67,12.2-1.54c6.52-1.97,3.77-1.38,6.74-1.35c3.69,0.04,3.64-3.48,3.64-3.48L35.08,71.83z"/>
	<path class="st284" d="M26.73,56.25c0,0-3.2-5.54-5.91-0.4c-3.35,6.34-7.22,18.22-6.3,21.53c0.92,3.31,5.03,2.33,6.47-1.43
		c2.43-6.36,7.64-17.24,7.64-17.24L26.73,56.25z"/>
	<path class="st284" d="M67.08,59.69c0,0-0.88-1.53-0.13-2.46s-1.29-2.25,1.36-4.09c2.64-1.84,8.91-4.15,7.74-1.41
		c-0.45,1.05-0.92,1.95-1.11,2.26c-0.2,0.31-1.94,1.21-3.41,3.59C70.05,59.97,67.08,59.69,67.08,59.69z"/>
	<g>
		<g>
			
				<rect x="41.65" y="24.56" transform="matrix(0.4798 0.8774 -0.8774 0.4798 79.5895 -6.5871)" class="st285" width="7.39" height="78.54"/>
			<polygon class="st286" points="78.03,41.74 89.71,39.92 81.59,48.22 			"/>
			<path class="st285" d="M87.68,40.24c0,0,3.98-1.73,4.2-1.47c0.23,0.26-3.63,2.64-3.63,2.64s-0.45,0.03-0.62-0.33
				C87.46,40.72,87.68,40.24,87.68,40.24z"/>
			<path class="st286" d="M78.94,44.09c-0.75,0.41-1.62,0.25-1.95-0.35c-0.33-0.6,0.01-1.43,0.76-1.84
				c0.75-0.41,1.62-0.25,1.95,0.35C80.03,42.86,79.69,43.68,78.94,44.09z"/>
			<path class="st286" d="M80.11,46.24c-0.75,0.41-1.62,0.25-1.95-0.35c-0.33-0.6,0.01-1.43,0.76-1.84
				c0.75-0.41,1.62-0.25,1.95,0.35C81.2,45.01,80.86,45.83,80.11,46.24z"/>
			<path class="st286" d="M81.29,48.39c-0.75,0.41-1.62,0.25-1.95-0.35c-0.33-0.6,0.01-1.43,0.76-1.84
				c0.75-0.41,1.62-0.25,1.95,0.35C82.38,47.15,82.04,47.98,81.29,48.39z"/>
		</g>
		<path class="st282" d="M0.95,88.82l-0.59-1.07c-0.79-1.44-0.26-3.25,1.18-4.04l0.57-0.31c1.44-0.79,3.25-0.26,4.04,1.18l0.59,1.07
			c0.79,1.44,0.26,3.25-1.18,4.04L4.99,90C3.55,90.79,1.74,90.26,0.95,88.82z"/>
		<path class="st287" d="M12.96,85.4l-3.2-5.88c-0.29-0.54-0.87-0.79-1.28-0.56l-4.71,2.57c-0.42,0.23-0.52,0.85-0.23,1.38l3.2,5.88
			c0.29,0.54,0.87,0.79,1.28,0.56l4.71-2.57C13.15,86.55,13.25,85.93,12.96,85.4z"/>
		<g>
			
				<rect x="5.98" y="62.48" transform="matrix(0.8773 -0.4799 0.4799 0.8773 -24.5844 29.2027)" class="st288" width="77.7" height="0.41"/>
		</g>
		<g>
			
				<rect x="7.16" y="64.65" transform="matrix(0.8773 -0.4799 0.4799 0.8773 -25.4787 30.0371)" class="st288" width="77.7" height="0.41"/>
		</g>
	</g>
	<path class="st284" d="M28.21,51.37c-0.62,1.61-4.47-0.79-7.4,4.48c-2.93,5.27,6.61,10.02,15.39,8.15
		c8.79-1.87,12.76-8.42,10.66-9.49c-3.44-1.75-8.26-1.14-9.12-3.14C36.9,49.37,28.21,51.37,28.21,51.37z"/>
	<path class="st282" d="M44.88,59.67c0,0,0.07,0.04,0.19,0.13C45.57,59.57,44.88,59.67,44.88,59.67z"/>
	<path class="st284" d="M39.27,32.13c0,0,4.18,5.49,3.46,12.78c-0.31,3.17-12.11,4.67-14.63,0.11c-2.77-5.02-4.55-9.29-0.9-13.21
		C30.84,27.88,37.54,30.69,39.27,32.13z"/>
	<path class="st284" d="M42.15,57.16c0,0,1.68-6.17,5.61-1.89c4.85,5.28,12.84,11.46,14.84,13.22c2.58,2.26-0.47,7.15-4.22,4.93
		c-7.48-4.42-17.45-13.41-17.45-13.41L42.15,57.16z"/>
	<path class="st284" d="M37.47,46.92c0,0-0.16,2.16,0.1,3.55c0.14,0.79,0.49,2.74,1.57,2.76c1.09,0.01-1.23,2.79-6.47,2.16
		s-5.31-1.97-5.31-1.97s2.23-3.51,0.92-8.74L37.47,46.92z"/>
	<path class="st284" d="M46.79,54.81l-0.08-0.48c-2.18-1.59-5.52-1.31-6.86-1.69c-0.56-0.16-1.38-0.46-1.38-0.46l-0.31,0.39
		c-0.54,1.13-0.43,1.8-4.71,1.39L22.54,66.92c0,0,2.67,10.21,3.04,13.19c0.37,2.98-0.88,5.07-0.88,5.07H44l0.03-2.05
		c0.03-5.01,0.6-8.82,1.49-10.6c1.17-2.33,1.66-4.2,1.77-5.7L46.79,54.81z"/>
	<path class="st284" d="M68.27,55.64L67.4,56.3c-1.01,1.34-8.62,11.17-9,12.33c-0.61,1.85-1.25,1.64-0.98,2.73
		c0.15,0.6,1.27,4.24,4.8,2.34c1.5-0.81,2.45-3.36,3.75-6.06c2.71-5.61,4.51-8.52,5.81-11.32c0.02-0.05-0.01,0.05,0,0
		C72.43,53.4,70.25,54.14,68.27,55.64z"/>
	<path class="st284" d="M42.38,42.62c0,0,1.51-0.25,1.74-0.94c0.12-0.34-1.2-1.9-1.6-2.4c-0.4-0.5-0.4-0.5-0.4-0.5L42.38,42.62z"/>
	<g>
		<path class="st289" d="M41.75,38.38c0.11,0.4,0.01,0.77-0.23,0.82c-0.24,0.06-0.53-0.22-0.64-0.62c-0.11-0.4-0.01-0.77,0.23-0.82
			C41.35,37.7,41.63,37.98,41.75,38.38z"/>
		<path class="st289" d="M41.11,37.76l-1.27,0.61c0,0,0.37,0.67,1.06,0.29C41.58,38.27,41.11,37.76,41.11,37.76z"/>
	</g>
	<path class="st3" d="M42.79,44.17c-0.61,0.18-1.22-0.46-1.48-0.99c0,0,0.43,0.22,1.51-0.06L42.79,44.17z"/>
	<path class="st290" d="M36.49,34.43c0.57,7.51-2.89,12.58-2.89,12.58s-5.76,2.52-8.39-3.33s-2.25-12.31,3.03-13.98
		c5.28-1.67,9.6,1.53,9.6,1.53L36.49,34.43z"/>
	<path class="st290" d="M27.28,30.09c5.42-2.68,10.4-1.03,13.01,1.07c2.61,2.1,0.68,3.94,0.68,3.94s-1.11-2.58-2.3-3.21
		c-1.88-0.98-3.49-0.59-3.49-0.59L27.28,30.09z"/>
	<path class="st290" d="M39.74,32.82c1.25,3.35-0.4,6.78-3.38,6.18l-1.2-3.64c0,0,0.52-4.3,1.65-4.6
		C37.94,30.46,39.74,32.82,39.74,32.82z"/>
	<g>
		<defs>
			<path id="SVGID_38_" d="M40.54,52.77C36.21,64,43.5,69.75,46.5,64.71l0.73,0.66c0,0,0.59,1.19-0.08,3.48
				c-0.67,2.28-2.23,4.09-2.59,7.1c-0.36,3.01-0.43,9.07-0.43,9.07h-19.4c0,0,0.86-1.96,0.91-3.4c0.05-1.44-0.89-5.71-2.42-10.49
				c-1.53-4.78-2.43-11.97-2.43-11.97s1.6,3.01,7.58,2.93c5.97-0.08,10.81-9.66,10.81-9.66s0.04-0.14,0.64,0.05
				c0.6,0.19,0.61,0.16,0.68,0.2C40.56,52.72,40.54,52.77,40.54,52.77z"/>
		</defs>
		<clipPath id="SVGID_1_">
			<use xlink:href="#SVGID_38_"  style="overflow:visible;"/>
		</clipPath>
		<path style="clip-path:url(#SVGID_1_);fill:#60934D;" d="M40.54,52.77C36.21,64,43.5,69.75,46.5,64.71l0.73,0.66
			c0,0,0.59,1.19-0.08,3.48c-0.67,2.28-2.23,4.09-2.59,7.1c-0.36,3.01-0.43,9.07-0.43,9.07h-19.4c0,0,0.86-1.96,0.91-3.4
			c0.05-1.44-0.89-5.71-2.42-10.49c-1.53-4.78-2.43-11.97-2.43-11.97s1.6,3.01,7.58,2.93c5.97-0.08,10.81-9.66,10.81-9.66
			s0.04-0.14,0.64,0.05c0.6,0.19,0.61,0.16,0.68,0.2C40.56,52.72,40.54,52.77,40.54,52.77z"/>
		<g style="clip-path:url(#SVGID_1_);">
			<path class="st3" d="M50.49,82.31c0,0-1.27,2.02-1.5,0.89c-0.23-1.13,1.36-1.78,1.22-2.3c-0.14-0.52-0.28-1.5-1.25-2.07
				c-0.07-0.04-0.13-0.06-0.19-0.06c-0.29-0.09-0.49-0.13-0.49-0.13s-0.79,3.89-1.54,2.93c-0.75-0.96,0.99-2.9,0.86-3.58
				c-0.13-0.67-2.82-2.16-2.71-1.43c0.11,0.72-0.07,4.12-0.83,3.4c-0.77-0.73,0.35-3.02,0.19-3.82c-0.16-0.79-2.38-0.4-2.94-0.31
				c-0.56,0.09,0.12,0.6,0.85,2.06c0.73,1.47-0.75,0.73-1.19-0.47c-0.43-1.2-0.25-1.66-1.12-1.12c-0.87,0.54-1.56,0.69-1.12,1.24
				c0.44,0.55,1.91,2.53,1.33,2.28c-0.58-0.25-2.23-1.89-2.66-1.39c-0.43,0.5-2.44,0.95-1.89,1.7c0.55,0.74,1.35,1.97,1.35,1.97
				c1.69-1.46,2.86-1.21,3.48-1.18c0.62,0.03,0.41,0.46-0.66,0.65c-1.07,0.19-2.68,0.75-2.51,1.54c0.17,0.78,1.44,2.18,1.44,2.18
				s2.8-2.98,3.7-2.96c0.9,0.02,0.14,1.4-1.38,2.53c-1.52,1.13-2.06,0.85-1.15,1.68c0.91,0.83,2.39,1.01,2.39,1.01
				s0.82-1.25,2.38-3.52c1.55-2.27,1.54,0.82,0.19,2.4c-1.35,1.58-1.17,1.26,1.2,1.43c0.83,0.06,1.45-0.09,1.91-0.34
				c0.12-0.92,0.26-1.73,0.41-2.31c0.05-0.19,0.1-0.42,0.15-0.68c1.44-1.09,0.63,2.12,0.63,2.12s1.17-0.66,1.55-1.41
				C50.96,84.52,50.49,82.31,50.49,82.31z"/>
			<path class="st3" d="M47.14,64.04c0,0,0.24,1.47-0.34,1.04s-0.1-1.4-0.38-1.58c-0.28-0.18-0.75-0.59-1.44-0.45
				c-0.05,0.01-0.09,0.03-0.11,0.05c-0.17,0.08-0.28,0.14-0.28,0.14s1.23,2.15,0.49,2c-0.75-0.14-0.73-1.77-1.07-2.03
				c-0.34-0.26-2.21,0.15-1.86,0.44c0.35,0.29,1.67,1.96,1.01,1.93s-1.08-1.56-1.49-1.87c-0.4-0.3-1.28,0.79-1.51,1.07
				c-0.23,0.28,0.3,0.23,1.25,0.62c0.95,0.39-0.05,0.66-0.75,0.27c-0.7-0.39-0.8-0.67-0.98-0.06c-0.18,0.61-0.45,0.97-0.01,1.04
				c0.43,0.08,1.94,0.4,1.56,0.52c-0.37,0.12-1.82,0.03-1.82,0.44c0.01,0.41-0.75,1.45-0.19,1.57c0.56,0.12,1.44,0.37,1.44,0.37
				c0.19-1.38,0.84-1.75,1.15-1.98c0.3-0.24,0.38,0.05-0.04,0.57c-0.42,0.53-0.95,1.46-0.54,1.75c0.4,0.3,1.58,0.43,1.58,0.43
				s0.08-2.55,0.51-2.91c0.43-0.36,0.64,0.6,0.4,1.76c-0.25,1.16-0.62,1.25,0.15,1.26c0.77,0.01,1.54-0.51,1.54-0.51
				s-0.13-0.92-0.34-2.63c-0.21-1.71,1.06-0.25,1.08,1.05c0.02,1.3-0.03,1.07,1.15,0.18c0.42-0.31,0.64-0.64,0.76-0.94
				c-0.32-0.48-0.59-0.92-0.76-1.25c-0.06-0.11-0.13-0.24-0.21-0.38c0.22-1.1,1.17,0.74,1.17,0.74s0.28-0.79,0.15-1.3
				C48.27,64.88,47.14,64.04,47.14,64.04z"/>
			<path class="st3" d="M22.8,62.81c0,0,0.24,1.47-0.34,1.04c-0.57-0.43-0.1-1.4-0.38-1.58c-0.28-0.18-0.75-0.59-1.44-0.45
				c-0.05,0.01-0.09,0.03-0.11,0.05c-0.17,0.08-0.28,0.14-0.28,0.14s1.23,2.15,0.49,2c-0.75-0.14-0.73-1.77-1.07-2.03
				c-0.34-0.26-2.21,0.15-1.86,0.44c0.35,0.29,1.67,1.96,1.01,1.93c-0.66-0.02-1.08-1.56-1.49-1.87c-0.4-0.3-1.28,0.79-1.51,1.07
				c-0.23,0.28,0.3,0.23,1.25,0.62c0.95,0.39-0.05,0.66-0.75,0.27c-0.7-0.39-0.8-0.67-0.98-0.06c-0.18,0.61-0.45,0.97-0.01,1.04
				s1.94,0.4,1.56,0.52c-0.37,0.12-1.82,0.03-1.82,0.44c0.01,0.41-0.75,1.45-0.19,1.57c0.56,0.12,1.44,0.37,1.44,0.37
				c0.19-1.38,0.84-1.75,1.15-1.99c0.3-0.24,0.38,0.05-0.04,0.57c-0.42,0.53-0.95,1.46-0.54,1.75c0.4,0.3,1.58,0.43,1.58,0.43
				s0.08-2.55,0.51-2.91c0.43-0.36,0.64,0.6,0.4,1.76c-0.25,1.16-0.62,1.25,0.15,1.26c0.77,0.01,1.54-0.51,1.54-0.51
				s-0.13-0.92-0.34-2.63c-0.21-1.71,1.06-0.25,1.08,1.05c0.02,1.3-0.03,1.07,1.15,0.18c0.42-0.31,0.64-0.64,0.76-0.94
				c-0.32-0.48-0.59-0.92-0.76-1.25c-0.06-0.11-0.13-0.24-0.21-0.38c0.22-1.1,1.17,0.74,1.17,0.74s0.28-0.79,0.15-1.3
				C23.93,63.65,22.8,62.81,22.8,62.81z"/>
			<path class="st3" d="M24.51,59.46c0,0,0.58-2.39,1.18-1.37c0.6,1.03-0.75,2.19-0.44,2.65c0.31,0.46,0.77,1.38,1.9,1.62
				c0.08,0.02,0.15,0.01,0.2,0c0.32-0.01,0.52-0.03,0.52-0.03s-0.5-4.07,0.55-3.37c1.05,0.7-0.02,3.17,0.33,3.79
				c0.35,0.62,3.47,1.19,3.12,0.52c-0.35-0.67-1.28-4.06-0.29-3.6c0.99,0.46,0.64,3.08,1.07,3.81c0.42,0.73,2.46-0.39,2.99-0.66
				c0.52-0.28-0.32-0.54-1.51-1.75c-1.19-1.2,0.5-0.97,1.32,0.07c0.82,1.04,0.79,1.54,1.46,0.73c0.67-0.82,1.3-1.19,0.69-1.59
				c-0.61-0.4-2.7-1.85-2.05-1.8c0.65,0.06,2.8,1.13,3.06,0.49s2.08-1.73,1.3-2.28c-0.78-0.55-1.97-1.49-1.97-1.49
				c-1.18,1.99-2.41,2.12-3.03,2.29c-0.62,0.17-0.55-0.31,0.43-0.85c0.98-0.54,2.38-1.62,1.95-2.33c-0.43-0.71-2.13-1.67-2.13-1.67
				s-1.77,3.83-2.66,4.11c-0.89,0.28-0.6-1.33,0.52-2.94c1.12-1.6,1.75-1.51,0.58-2.02c-1.17-0.52-2.68-0.21-2.68-0.21
				s-0.4,1.49-1.18,4.23c-0.78,2.74-1.78-0.3-0.97-2.29c0.8-1.99,0.73-1.61-1.65-1.01c-0.84,0.21-1.39,0.56-1.76,0.95
				c0.18,0.94,0.31,1.79,0.35,2.4c0.01,0.2,0.04,0.45,0.08,0.72c-1.05,1.54-1.31-1.88-1.31-1.88s-0.94,1.03-1.06,1.89
				C23.33,57.46,24.51,59.46,24.51,59.46z"/>
			<path class="st3" d="M27.69,79.59c0,0-1.21-1.48-0.3-1.37c0.92,0.11,1.01,1.49,1.44,1.52c0.43,0.02,1.22,0.17,1.89-0.42
				c0.05-0.04,0.08-0.08,0.1-0.13c0.14-0.2,0.22-0.34,0.22-0.34s-2.76-1.6-1.84-1.92c0.92-0.32,1.96,1.5,2.51,1.57
				s2.36-1.59,1.78-1.69c-0.58-0.1-3.12-1.1-2.37-1.5c0.75-0.4,2.21,1.04,2.86,1.12c0.65,0.08,0.91-1.71,0.99-2.16
				c0.07-0.45-0.49-0.06-1.79,0.12c-1.3,0.18-0.37-0.76,0.66-0.78c1.03-0.02,1.33,0.23,1.14-0.57c-0.19-0.8-0.13-1.36-0.66-1.17
				c-0.53,0.19-2.41,0.81-2.08,0.43c0.34-0.38,2.01-1.21,1.74-1.67c-0.27-0.46-0.1-2.1-0.81-1.87c-0.71,0.23-1.85,0.52-1.85,0.52
				c0.68,1.66,0.19,2.49,0.01,2.95c-0.18,0.46-0.45,0.2-0.32-0.67c0.13-0.86,0.11-2.23-0.53-2.3c-0.64-0.07-2.03,0.54-2.03,0.54
				s1.55,2.89,1.31,3.57c-0.24,0.68-1.11-0.25-1.58-1.7c-0.47-1.45-0.12-1.79-0.99-1.31c-0.87,0.48-1.38,1.56-1.38,1.56
				s0.74,0.95,2.07,2.71c1.34,1.76-1.02,0.96-1.88-0.47c-0.86-1.43-0.66-1.21-1.4,0.55c-0.26,0.62-0.3,1.13-0.23,1.54
				c0.67,0.33,1.26,0.64,1.65,0.9c0.13,0.09,0.3,0.18,0.48,0.29c0.46,1.37-1.78-0.06-1.78-0.06s0.2,1.06,0.68,1.54
				C25.89,79.38,27.69,79.59,27.69,79.59z"/>
		</g>
	</g>
	<path class="st290" d="M36.1,42.08c0.74,7.53,0.2,12.97-1.38,14.44c-1.3,1.21-1.67,1.73-0.53,3.57c1.14,1.84-0.62,3.16-1.41,4.22
		c-0.79,1.05,1.67,3.34-0.97,4.57c-2.64,1.23-2.46-0.61-4.13,0.53c-1.67,1.14-3.41,0.71-4.13-1.76c-0.72-2.47-1.76-1.49-2.72-2.72
		c-0.97-1.23,0.11-2.38-0.09-4.39c-0.2-2.01-1.58-2.28-1.67-3.87c-0.09-1.58,1.93-2.2,1.93-3.6c0-1.41-1.76-1.85-0.97-3.25
		c0.79-1.41,2.37-1.32,2.37-2.81s-1.05-2.2-0.09-3.51c0.97-1.32,2.28-1.23,1.76-3.43c-0.53-2.2,0.5-1.39,0.84-3.59
		c0.34-2.21,7.69,4.56,7.69,4.56L36.1,42.08z"/>
	<path class="st293" d="M43.55,63.69c0.08-0.1,0.19-0.16,0.31-0.2c0.03-0.01,0.06-0.02,0.09-0.03c0.03-0.01,0.06-0.02,0.1-0.02
		c0.06,0,0.13-0.02,0.19-0.01c0.06,0,0.13,0,0.19,0.01l0.19,0.03c0.06,0.01,0.12,0.03,0.19,0.05c0.06,0.01,0.12,0.04,0.18,0.06
		c0.48,0.17,0.91,0.45,1.3,0.75l0.29,0.24l0.28,0.24c0.18,0.16,0.36,0.33,0.54,0.5c0.36,0.33,0.71,0.68,1.04,1.05
		c-0.42-0.26-0.82-0.55-1.2-0.85c-0.2-0.15-0.39-0.3-0.58-0.45l-0.28-0.23l-0.28-0.22c-0.38-0.29-0.77-0.57-1.19-0.78
		c-0.1-0.06-0.22-0.09-0.32-0.14l-0.17-0.05c-0.06-0.02-0.11-0.02-0.17-0.04c-0.06-0.01-0.12-0.01-0.17-0.02c-0.03,0-0.06,0-0.09,0
		c-0.03,0-0.06,0-0.09,0.01C43.77,63.59,43.65,63.62,43.55,63.69z"/>
	<g>
		<path class="st284" d="M36.36,38.99c0,0-1.18-1.07-1.94,0c-0.7,0.98,0.38,2.63,1.3,3.31c0.92,0.68,1.34-0.36,1.34-0.36
			S36.73,40.29,36.36,38.99z"/>
		<path class="st293" d="M36.2,40.91c0.07-0.22,0.07-0.44,0.02-0.67c-0.02-0.11-0.07-0.22-0.12-0.33c-0.06-0.11-0.13-0.2-0.22-0.29
			c-0.18-0.17-0.42-0.27-0.65-0.29c-0.23-0.02-0.47,0.02-0.66,0.15c0.22,0.05,0.41,0.1,0.59,0.17c0.17,0.07,0.32,0.16,0.44,0.28
			c0.13,0.12,0.23,0.26,0.32,0.43C36.02,40.52,36.1,40.71,36.2,40.91z"/>
	</g>
	<g>
		<path class="st229" d="M84.31,3.84c-0.33-0.59-0.95-0.95-1.62-0.95h-2.11h-0.48h-2.11c-0.67,0-1.29,0.36-1.62,0.95l-2.14,3.8h0.22
			h5.65h0.48h5.65h0.22L84.31,3.84z M80.32,6.6c-0.7,0-1.27-0.57-1.27-1.27s0.57-1.27,1.27-1.27s1.27,0.57,1.27,1.27
			S81.02,6.6,80.32,6.6z"/>
		<path class="st229" d="M88.3,7.64H72.05c-0.73,0-1.32,0.59-1.32,1.32v4.48c0,0.73,0.59,1.32,1.32,1.32H88.3
			c0.73,0,1.32-0.59,1.32-1.32V8.96C89.62,8.23,89.03,7.64,88.3,7.64z"/>
		<path class="st289" d="M74.22,7.64c1.02-0.1,2.04-0.16,3.06-0.2c1.02-0.04,2.04-0.05,3.06-0.05c1.02,0,2.04,0.02,3.06,0.05
			c1.02,0.04,2.04,0.09,3.06,0.2c-1.02,0.1-2.04,0.16-3.06,0.2c-1.02,0.04-2.04,0.05-3.06,0.05c-1.02,0-2.04-0.02-3.06-0.05
			C76.26,7.8,75.24,7.74,74.22,7.64z"/>
		<rect x="70.73" y="11.04" class="st289" width="18.89" height="1.41"/>
	</g>
	<g>
		<path class="st284" d="M71.95,57.48c0.24-0.35,1.1-1.24,1.26-2.09c0.11-0.61,0.08-0.83,0.17-1.65c0.09-0.81,0.31-1.5,0.77-1.95
			c0.46-0.45,0.52-0.71,0.1-0.9c-0.42-0.18-1.26,0.46-1.54,0.65c-0.27,0.2-0.19,1.04-0.58,1.42c-0.39,0.38-1.69,0.68-2.15,1.5
			c-0.14,0.24-0.5,1.19-0.43,1.32C69.62,55.93,71.95,57.48,71.95,57.48z"/>
	</g>
	<path class="st284" d="M71.26,55.5l-1.56,3.24l0.4,0.9c0.71-1.36,1.4-1.34,2.19-2.58C73.08,55.82,71.26,55.5,71.26,55.5z"/>
	<path class="st293" d="M73.33,54.32l0.07-0.72c0.02-0.24,0.05-0.48,0.08-0.72c0.02-0.12,0.05-0.24,0.09-0.36
		c0.04-0.12,0.1-0.24,0.17-0.34c0.07-0.11,0.15-0.2,0.24-0.29c0.08-0.09,0.17-0.18,0.24-0.27c0.08-0.09,0.15-0.18,0.19-0.27
		c0.04-0.09,0.04-0.16-0.02-0.22c-0.02-0.02-0.03-0.03-0.05-0.05c-0.02-0.01-0.04-0.03-0.06-0.04C74.23,51.01,74.19,51,74.14,51
		c-0.1-0.01-0.21,0.01-0.31,0.04c-0.21,0.07-0.42,0.18-0.62,0.3c-0.1,0.06-0.19,0.13-0.29,0.2c-0.05,0.04-0.09,0.07-0.13,0.11
		c-0.02,0.02-0.04,0.04-0.05,0.05l-0.01,0.01c0,0,0-0.01,0,0c0,0.01-0.01,0.02-0.01,0.03c-0.03,0.11-0.06,0.23-0.08,0.35
		c-0.03,0.12-0.06,0.24-0.1,0.36c-0.04,0.12-0.08,0.24-0.14,0.35c-0.03,0.06-0.07,0.12-0.11,0.17c-0.02,0.03-0.05,0.05-0.07,0.08
		c-0.03,0.02-0.06,0.04-0.08,0.06c-0.22,0.14-0.43,0.24-0.64,0.36c-0.21,0.12-0.42,0.24-0.62,0.37c-0.2,0.13-0.39,0.27-0.57,0.43
		c-0.18,0.16-0.35,0.32-0.48,0.52c-0.04,0.05-0.07,0.1-0.09,0.15c-0.03,0.05-0.06,0.1-0.08,0.16c-0.05,0.11-0.09,0.22-0.13,0.33
		c-0.07,0.23-0.12,0.46-0.16,0.71c0-0.24,0.03-0.49,0.09-0.72c0.03-0.12,0.06-0.24,0.11-0.35c0.02-0.06,0.05-0.11,0.08-0.17
		c0.03-0.06,0.05-0.11,0.09-0.16c0.26-0.43,0.64-0.76,1.04-1.04c0.2-0.14,0.41-0.27,0.62-0.4c0.21-0.12,0.43-0.24,0.61-0.37
		l0.06-0.05c0.02-0.02,0.03-0.03,0.05-0.05c0.03-0.04,0.06-0.09,0.08-0.13c0.05-0.1,0.09-0.21,0.12-0.32
		c0.03-0.11,0.06-0.23,0.09-0.34c0.03-0.12,0.05-0.23,0.08-0.36c0-0.02,0.01-0.04,0.02-0.05c0-0.01,0.01-0.03,0.02-0.04l0.02-0.03
		c0.03-0.03,0.05-0.06,0.07-0.08c0.05-0.05,0.1-0.09,0.15-0.12c0.1-0.08,0.2-0.15,0.31-0.21c0.21-0.13,0.44-0.25,0.69-0.32
		c0.12-0.03,0.26-0.06,0.4-0.04c0.07,0.01,0.15,0.03,0.22,0.07c0.04,0.02,0.06,0.04,0.09,0.06c0.03,0.02,0.05,0.05,0.08,0.08
		c0.03,0.03,0.05,0.07,0.07,0.1c0.01,0.02,0.01,0.04,0.02,0.06c0.01,0.02,0.01,0.04,0.01,0.06c0,0.02,0,0.04,0,0.06
		c0,0.02-0.01,0.04-0.01,0.06c-0.01,0.04-0.03,0.07-0.04,0.11c-0.07,0.13-0.15,0.22-0.24,0.31c-0.09,0.09-0.17,0.17-0.26,0.26
		c-0.08,0.09-0.17,0.17-0.23,0.26c-0.14,0.18-0.22,0.4-0.27,0.63c-0.05,0.23-0.09,0.47-0.13,0.71
		C73.42,53.85,73.37,54.08,73.33,54.32z"/>
	<path class="st293" d="M74.44,52.13c-0.01,0.12-0.03,0.24-0.07,0.35c-0.04,0.11-0.09,0.22-0.18,0.33
		c-0.02,0.03-0.04,0.05-0.07,0.07c-0.02,0.02-0.06,0.05-0.09,0.06c-0.06,0.03-0.11,0.05-0.17,0.07c-0.12,0.04-0.24,0.06-0.36,0.05
		c0.1-0.06,0.21-0.12,0.31-0.17c0.05-0.03,0.1-0.05,0.15-0.09c0.01-0.01,0.02-0.01,0.03-0.02c0.01-0.01,0.02-0.01,0.03-0.02
		c0.02-0.02,0.03-0.03,0.05-0.05c0.07-0.08,0.13-0.18,0.19-0.27C74.31,52.33,74.37,52.23,74.44,52.13z"/>
	<path class="st284" d="M124.99,51.79c-0.57,5.84-8.48,16.1-11.07,20.46c-2.59,4.36-7.39,3.08-5.86-4.57
		c2.2-10.95,4.47-22.08,10.14-21.17S124.99,51.79,124.99,51.79z"/>
	<g>
		<g>
			
				<ellipse transform="matrix(0.7071 -0.7071 0.7071 0.7071 22.4624 78.8103)" class="st3" cx="106.36" cy="12.29" rx="12.12" ry="12.12"/>
			<path class="st5" d="M106.36,24.58c-6.78,0-12.29-5.51-12.29-12.29C94.07,5.51,99.59,0,106.36,0s12.29,5.51,12.29,12.29
				C118.65,19.07,113.14,24.58,106.36,24.58z M106.36,0.33c-6.59,0-11.96,5.36-11.96,11.96s5.36,11.96,11.96,11.96
				c6.59,0,11.96-5.36,11.96-11.96S112.96,0.33,106.36,0.33z"/>
		</g>
		<g>
			<path class="st5" d="M106.36,13.5c-0.67,0-1.21-0.54-1.21-1.21c0-0.67,0.54-1.21,1.21-1.21c0.67,0,1.21,0.54,1.21,1.21
				C107.57,12.96,107.03,13.5,106.36,13.5z M106.36,11.66c-0.35,0-0.63,0.28-0.63,0.63c0,0.35,0.28,0.63,0.63,0.63
				c0.35,0,0.63-0.28,0.63-0.63C106.99,11.94,106.71,11.66,106.36,11.66z"/>
		</g>
		<g>
			<path class="st5" d="M106.36,3.56c0.16,0,0.29-0.13,0.29-0.29V0.31c0-0.16-0.13-0.29-0.29-0.29s-0.29,0.13-0.29,0.29v2.96
				C106.07,3.43,106.2,3.56,106.36,3.56z"/>
			<path class="st5" d="M106.36,20.96c-0.16,0-0.29,0.13-0.29,0.29v3.03c0,0.16,0.13,0.29,0.29,0.29s0.29-0.13,0.29-0.29v-3.03
				C106.65,21.09,106.52,20.96,106.36,20.96z"/>
			<path class="st5" d="M97.37,11.97h-3.03c-0.16,0-0.29,0.13-0.29,0.29c0,0.16,0.13,0.29,0.29,0.29h3.03
				c0.16,0,0.29-0.13,0.29-0.29C97.66,12.1,97.53,11.97,97.37,11.97z"/>
			<path class="st5" d="M118.38,11.97h-3.03c-0.16,0-0.29,0.13-0.29,0.29c0,0.16,0.13,0.29,0.29,0.29h3.03
				c0.16,0,0.29-0.13,0.29-0.29C118.67,12.1,118.54,11.97,118.38,11.97z"/>
			<path class="st5" d="M97.03,17.48l-1.21,0.71c-0.1,0.06-0.13,0.18-0.07,0.28c0.04,0.07,0.11,0.1,0.18,0.1
				c0.04,0,0.07-0.01,0.1-0.03l1.21-0.71c0.1-0.06,0.13-0.18,0.07-0.28C97.26,17.46,97.13,17.43,97.03,17.48z"/>
			<path class="st5" d="M115.59,7.07c0.04,0,0.07-0.01,0.1-0.03l1.19-0.7c0.1-0.06,0.13-0.18,0.07-0.28
				c-0.06-0.1-0.18-0.13-0.28-0.07l-1.19,0.7c-0.1,0.06-0.13,0.18-0.07,0.28C115.45,7.03,115.52,7.07,115.59,7.07z"/>
			<path class="st5" d="M101.24,21.41c-0.1-0.06-0.23-0.02-0.28,0.08l-0.69,1.23c-0.06,0.1-0.02,0.23,0.08,0.28
				c0.03,0.02,0.07,0.03,0.1,0.03c0.07,0,0.14-0.04,0.18-0.11l0.69-1.23C101.38,21.59,101.34,21.47,101.24,21.41z"/>
			<path class="st5" d="M111.47,3.1c0.03,0.02,0.07,0.03,0.1,0.03c0.07,0,0.14-0.04,0.18-0.11l0.67-1.2
				c0.06-0.1,0.02-0.23-0.08-0.28c-0.1-0.06-0.23-0.02-0.28,0.08l-0.67,1.2C111.34,2.92,111.37,3.05,111.47,3.1z"/>
			<path class="st5" d="M111.92,21.38c-0.06-0.1-0.19-0.13-0.28-0.07c-0.1,0.06-0.13,0.18-0.07,0.28l0.71,1.21
				c0.04,0.07,0.11,0.1,0.18,0.1c0.04,0,0.07-0.01,0.1-0.03c0.1-0.06,0.13-0.18,0.07-0.28L111.92,21.38z"/>
			<path class="st5" d="M100.94,3.24c0.04,0,0.07-0.01,0.1-0.03c0.1-0.06,0.13-0.18,0.07-0.28l-0.7-1.19
				c-0.06-0.1-0.18-0.13-0.28-0.07c-0.1,0.06-0.13,0.19-0.07,0.28l0.7,1.19C100.8,3.2,100.87,3.24,100.94,3.24z"/>
			<path class="st5" d="M117,17.98l-1.23-0.69c-0.1-0.06-0.23-0.02-0.28,0.08c-0.06,0.1-0.02,0.23,0.08,0.28l1.23,0.69
				c0.03,0.02,0.07,0.03,0.1,0.03c0.07,0,0.14-0.04,0.18-0.11C117.14,18.16,117.1,18.04,117,17.98z"/>
			<path class="st5" d="M95.7,6.56l1.2,0.67c0.03,0.02,0.07,0.03,0.1,0.03c0.07,0,0.14-0.04,0.18-0.11c0.06-0.1,0.02-0.23-0.08-0.28
				L95.9,6.2c-0.1-0.06-0.23-0.02-0.28,0.08C95.56,6.38,95.6,6.5,95.7,6.56z"/>
			<path class="st5" d="M107.04,11.58l2.81-7.03c0.06-0.15-0.01-0.32-0.16-0.38c-0.15-0.06-0.32,0.01-0.38,0.16l-2.81,7.03
				c-0.06,0.15,0.01,0.32,0.16,0.38c0.04,0.01,0.07,0.02,0.11,0.02C106.89,11.76,107,11.69,107.04,11.58z"/>
			<path class="st5" d="M112.44,10.82c-0.04-0.16-0.19-0.25-0.35-0.21l-4.91,1.19c-0.16,0.04-0.25,0.19-0.21,0.35
				c0.03,0.13,0.15,0.22,0.28,0.22c0.02,0,0.05,0,0.07-0.01l4.91-1.19C112.39,11.13,112.48,10.97,112.44,10.82z"/>
		</g>
	</g>
	<g>
		<path class="st284" d="M110.36,74.71c-7.03-1.64-10.27-8.2-15.95-10.06c-1.25-1.15,0.26-8.45,1.64-6.64
			c0.67,0.88,0.42,1.23,2.2,1.98c3.12,1.31,11.62,3.3,14.01,5.44c1.04,0.93,1.95,2.34,2.68,4.82
			C115.68,72.72,113.27,75.38,110.36,74.71z"/>
	</g>
	<g>
		<path class="st290" d="M123.32,30.72c0,0-3.18-1.83-1.52-3.97c1.66-2.14,8.62,1.95,8.62,1.95L123.32,30.72z"/>
		<path class="st284" d="M134.51,41.93l-1.2,7.26c0,0-2.22,4.99-7.5,4.2c-2.69-0.4-6.01-5.04-4.57-5.83
			c1.44-0.79,2.14-6.05,2.14-6.05L134.51,41.93z"/>
		<path class="st284" d="M126.94,26.33c-4.9,1.35-8.36,14.5-6.04,15.5c4.5,1.92,10.75,1.07,12.36,0.63c4-1.09,6.05-6.81,2.61-12.4
			C132.43,24.47,129.59,25.59,126.94,26.33z"/>
		<path class="st289" d="M123.82,33.39c-0.17,0.38-0.49,0.59-0.71,0.48s-0.26-0.51-0.09-0.89c0.17-0.38,0.49-0.59,0.71-0.48
			C123.95,32.61,123.99,33.01,123.82,33.39z"/>
		<path class="st284" d="M122.13,32.17c-1.36,1.79-2.62,2.66-2.83,3.42c-0.19,0.66,1.19,1.38,1.19,1.38l1.3-1.94L122.13,32.17z"/>
		<g>
			<path class="st290" d="M134.33,42.76c1.15-1.61,2.13-2.29,2.94-3.98c2.68-5.57,0.9-6.82-1.57-9.36
				c-2.46-2.54-5.92-3.59-7.25-2.97c-1.33,0.63-1.74,1.54-1.74,1.54s1.4-0.69,2.78,0c0.15,0.08,0.31,0.17,0.46,0.28
				c0.09,0.07,0.38,0.35,0.47,0.43c1.58,1.45,1.01,2.85,0.18,4.84c-0.77,1.83-1.23,2.91-1.56,3.52l0.99,0.41c0,0,1-1.89,1.87-1.52
				c1.69,0.7,1.76,3.29,1.8,5.33C133.71,41.89,134.05,43.16,134.33,42.76z"/>
		</g>
		<path class="st284" d="M133.2,36.17c0,0,1.72,0.3,0.63,2.13c-1.09,1.82-2.81,1.81-3.05,0.73c-0.24-1.08,1.26-2.74,1.26-2.74
			S132.42,36.04,133.2,36.17z"/>
		<path class="st293" d="M133.53,38.73c0,0-0.39,0.66-1.19,0.93c-0.8,0.27-1.39-0.05-1.49-0.41c0,0,0.08,0.68,1.17,0.77
			c1.1,0.09,1.6-0.48,1.6-0.48L133.53,38.73z"/>
		<path class="st293" d="M131.27,37.74c0.03-0.05,0.06-0.1,0.1-0.15c0.03-0.05,0.07-0.09,0.11-0.14c0.04-0.04,0.08-0.08,0.13-0.12
			c0.04-0.04,0.09-0.08,0.14-0.11c0.05-0.03,0.1-0.06,0.15-0.09c0.05-0.03,0.11-0.05,0.16-0.08c0.11-0.05,0.22-0.08,0.34-0.11
			c0.24-0.04,0.48-0.04,0.71,0.02c0.23,0.06,0.45,0.17,0.61,0.36c-0.24,0-0.44,0.01-0.64,0.03c-0.2,0.02-0.39,0.05-0.58,0.08
			l-0.14,0.03c-0.05,0.01-0.1,0.02-0.14,0.03c-0.05,0.01-0.1,0.02-0.15,0.03c-0.05,0.01-0.1,0.03-0.15,0.04
			c-0.02,0.01-0.05,0.01-0.08,0.02c-0.02,0.01-0.05,0.02-0.07,0.02c-0.05,0.01-0.1,0.03-0.16,0.04
			C131.5,37.7,131.4,37.73,131.27,37.74z"/>
		<path class="st290" d="M120.17,39.19C120.17,39.19,120.1,39.18,120.17,39.19c0.05-0.26,0.28-0.54,0.45-0.44
			c0.16,0.09,0.25,0.42,0.24,1.12c-0.01,0.62-0.03,0.61,0.29,1.18c0.09,0.16,0.31,0.39,0.73,0.8c0.31,0.31,1.1,0.65,1.12,0.65
			c-0.04,0.18-0.28,0.11-0.42,0.14c-0.51,0.11-2.04,0.12-2.94-0.13C118.73,42.25,120.17,39.19,120.17,39.19z"/>
		<path class="st290" d="M129.8,35.39c0.79-1.85,0.41-3.76-0.28-5.2c-0.69-1.43-0.69-1.43-0.69-1.43s-2.57,0.1-4.77-0.21
			c-2.2-0.32-2.96-1.37-1.84-2.27s4.71-0.15,7.31-1.28c2.59-1.12,6.01,1.45,6.37,3.22c0.37,1.77,2.9,0.86,2.68,5.48
			c-0.23,4.62-2.73,0.15-2.73,0.15l-4.4,1.05L129.8,35.39z"/>
		<path class="st290" d="M123.33,31.41c1.19,0.46,1.44,1.34,1.85,1.22c0.4-0.11,0.68-0.33,0.62-0.88c-0.06-0.54-1.41-1.54-2.02-1.43
			C123.16,30.43,123.08,31.31,123.33,31.41z"/>
		<path class="st3" d="M120.41,37.29c1.18,0.53,1.92,0.34,1.92,0.34s-0.54,1.14-2.11,0.89c0,0,0.03-0.36,0.06-0.64
			C120.31,37.6,120.41,37.29,120.41,37.29z"/>
		<path class="st293" d="M123.22,42.56c2.56,0.38,4.45-0.25,5.69-1.34c0,0-1.8,2.49-5.83,2.05L123.22,42.56z"/>
	</g>
	<path class="st293" d="M36.14,42.52c0.75,0.08,1.02-0.23,1.02-0.23s-0.09,0.7-0.98,0.62L36.14,42.52z"/>
	<path class="st290" d="M41.08,36.87c-0.76,0.19-1.27,1.11-1.68,0.93c-0.41-0.19,0.33-1.68,0.95-1.84
		C40.97,35.8,41.44,36.78,41.08,36.87z"/>
	<path class="st284" d="M133.68,46.98c-0.36,2.21,10.17,6.85,11.4,13c1.23,6.15-9.58,11.8-12.08,16.27c-2.5,4.47-2.5,6.85-2.5,6.85
		h-20.91c0,0,0.18-15.21,2.28-25.41c2.11-10.19,4.39-12.22,10.46-11.74C128.39,46.45,133.68,46.98,133.68,46.98z"/>
	<path class="st294" d="M135.77,59.62c-0.85,5.8,3.64,17.2,5.1,22.05s7.37,4.8,7.73-2.99c0.51-11.16-0.91-22.36-6.63-22.85
		C136.24,55.36,135.77,59.62,135.77,59.62z"/>
	<g>
		<path class="st284" d="M95.54,56.72c-0.49-1.04-1-2-0.76-3.06c0.24-1.06-0.03-1.7-0.51-1.43c-0.52,0.3-1.18,0.66-1.23,1.91
			c-0.05,1.25,0.56,2.01,0.58,2.63c0.01,0.36-0.27,0.46-0.51,0.48c-0.18,0.01-0.32,0.17-0.32,0.35l-0.02,7.12
			c0,0,1.41,0.2,2.18-0.31c0.77-0.51,1.13-1.17,1.15-2.39c0.02-1.22-0.4-1.53,0.07-2.06C96.65,59.44,96.03,57.76,95.54,56.72z"/>
		<path class="st284" d="M93.08,57.25c-1.94,0.17-3.18-0.05-4,0.76c-0.82,0.82-0.56,1.26-0.36,1.78c0.2,0.52-0.48,0.75-0.49,1.28
			c0,0.52,0.58,0.69,0.33,1.25c-0.25,0.57-0.43,0.79,0.02,1.14s0.52,0.54,0.59,1.12c0.07,0.57-0.03,0.72,1.16,0.96
			c1.2,0.24,1.63,0.35,2.29-0.18c0.65-0.52,1.22-0.74,0.96-1.67c0,0,0.37-0.41,0.44-0.97c0.07-0.56-0.12-0.97-0.12-0.97
			s0.41-0.7,0.26-1.15c-0.16-0.45-0.36-0.56-0.36-0.56s0.52-0.56,0.48-1.13c-0.04-0.58-0.36-0.98-0.5-0.98
			C93.62,57.93,93.08,57.25,93.08,57.25z"/>
		<g>
			<path class="st293" d="M90.6,58.17c0.04,0.11,0.08,0.21,0.14,0.3c0.05,0.09,0.13,0.19,0.22,0.21c0.21,0.05,0.44,0.09,0.65,0.13
				c0.11,0.02,0.22,0.04,0.33,0.06c0.05,0.01,0.11,0.02,0.16,0.02c0.03,0,0.05,0.01,0.08,0.01l0.02,0l0.01,0
				c0.01,0,0.02,0,0.03-0.01c0.19-0.07,0.39-0.17,0.57-0.3c0.09-0.06,0.17-0.13,0.24-0.21c0.07-0.07,0.14-0.16,0.21-0.25
				c0.07-0.09,0.14-0.18,0.27-0.26c0.06-0.04,0.14-0.06,0.22-0.06c0.04,0,0.08,0.01,0.11,0.02l0.05,0.02l0.05,0.02
				c0.12,0.06,0.22,0.14,0.3,0.24c0.08,0.1,0.13,0.22,0.17,0.34c0.06,0.24,0.04,0.5-0.04,0.73c-0.08,0.23-0.21,0.44-0.37,0.61
				c-0.15,0.17-0.29,0.34-0.45,0.5c-0.16,0.16-0.33,0.32-0.52,0.46c-0.1,0.07-0.2,0.13-0.32,0.17c-0.11,0.04-0.24,0.07-0.36,0.07
				c-0.24,0-0.46-0.03-0.69-0.08c-0.22-0.04-0.44-0.09-0.66-0.15c-0.22-0.06-0.43-0.12-0.65-0.19c-0.05-0.02-0.11-0.04-0.16-0.06
				c-0.05-0.02-0.11-0.04-0.15-0.08c-0.09-0.08-0.15-0.18-0.19-0.28c0.05,0.1,0.12,0.19,0.21,0.25c0.04,0.03,0.09,0.05,0.15,0.06
				c0.05,0.01,0.11,0.03,0.16,0.04c0.22,0.05,0.44,0.09,0.66,0.13c0.22,0.04,0.44,0.08,0.66,0.11c0.22,0.03,0.44,0.06,0.65,0.04
				c0.2-0.01,0.39-0.11,0.56-0.23c0.17-0.13,0.33-0.28,0.47-0.44c0.15-0.16,0.29-0.33,0.44-0.5c0.14-0.16,0.25-0.34,0.31-0.53
				c0.07-0.19,0.09-0.4,0.04-0.59c-0.04-0.19-0.17-0.35-0.33-0.43c-0.04-0.02-0.08-0.03-0.11-0.04c-0.03,0-0.06,0.01-0.1,0.02
				c-0.07,0.04-0.14,0.12-0.21,0.2c-0.07,0.08-0.14,0.17-0.23,0.26c-0.09,0.08-0.18,0.15-0.28,0.22c-0.1,0.06-0.2,0.12-0.3,0.17
				c-0.11,0.05-0.21,0.09-0.33,0.12c-0.02,0-0.03,0.01-0.05,0.01l-0.03,0l-0.02,0c-0.03,0-0.06-0.01-0.09-0.01
				c-0.06-0.01-0.11-0.02-0.17-0.03c-0.11-0.02-0.22-0.05-0.33-0.08c-0.22-0.06-0.43-0.11-0.65-0.19c-0.06-0.02-0.11-0.06-0.15-0.11
				c-0.04-0.05-0.06-0.1-0.09-0.15C90.66,58.38,90.62,58.28,90.6,58.17z"/>
			<path class="st293" d="M93.79,60.04c0.11,0.08,0.22,0.18,0.32,0.28c0.1,0.1,0.18,0.22,0.24,0.36c0.03,0.07,0.05,0.15,0.04,0.24
				c-0.01,0.04-0.02,0.08-0.03,0.12c-0.01,0.03-0.03,0.07-0.04,0.1c-0.06,0.13-0.15,0.25-0.23,0.37c-0.17,0.23-0.36,0.44-0.56,0.64
				c-0.21,0.19-0.44,0.37-0.71,0.5c-0.14,0.06-0.31,0.09-0.45,0.09c-0.15,0-0.29,0-0.43-0.02c-0.28-0.03-0.56-0.07-0.84-0.12
				c-0.28-0.05-0.55-0.11-0.82-0.18l-0.2-0.06l-0.1-0.03c-0.03-0.01-0.07-0.02-0.1-0.05c-0.13-0.09-0.19-0.22-0.25-0.35
				c0.04,0.06,0.08,0.11,0.13,0.16c0.05,0.05,0.1,0.1,0.15,0.12c0.05,0.02,0.13,0.03,0.19,0.04l0.21,0.03
				c0.27,0.04,0.55,0.08,0.83,0.11c0.28,0.03,0.55,0.06,0.82,0.08c0.14,0.01,0.27,0.01,0.41,0.01c0.14,0,0.24-0.03,0.36-0.08
				c0.23-0.1,0.45-0.27,0.65-0.45c0.2-0.18,0.39-0.38,0.57-0.59c0.09-0.11,0.17-0.21,0.24-0.33c0.02-0.03,0.03-0.06,0.05-0.08
				c0.01-0.03,0.02-0.05,0.03-0.08c0.01-0.05,0-0.11-0.01-0.18c-0.03-0.12-0.11-0.24-0.18-0.35C93.97,60.25,93.88,60.14,93.79,60.04
				z"/>
			<path class="st293" d="M93.89,61.75c0.1,0.22,0.17,0.45,0.2,0.69c0.02,0.12,0.02,0.24,0.02,0.37c-0.01,0.12-0.03,0.25-0.08,0.37
				c-0.02,0.06-0.06,0.12-0.09,0.17c-0.04,0.05-0.08,0.1-0.12,0.15c-0.08,0.09-0.18,0.17-0.28,0.25c-0.2,0.15-0.41,0.27-0.63,0.38
				c-0.11,0.05-0.23,0.1-0.35,0.13c-0.03,0.01-0.06,0.02-0.1,0.02c-0.03,0.01-0.08,0.01-0.11,0.01c-0.07,0-0.12-0.01-0.19-0.01
				c-0.24-0.03-0.47-0.06-0.71-0.1c-0.23-0.04-0.47-0.09-0.7-0.14c-0.06-0.01-0.12-0.03-0.17-0.05l-0.09-0.03
				c-0.03-0.01-0.06-0.02-0.09-0.04c-0.11-0.06-0.2-0.16-0.24-0.27c0.03,0.05,0.07,0.09,0.12,0.13c0.05,0.03,0.1,0.06,0.15,0.08
				c0.1,0.04,0.22,0.05,0.34,0.06c0.23,0.03,0.47,0.05,0.7,0.07c0.24,0.02,0.47,0.04,0.7,0.06c0.06,0,0.12,0.01,0.17,0.01
				c0.01,0,0.02,0,0.03,0c0.01,0,0.02,0,0.03-0.01c0.02-0.01,0.05-0.01,0.07-0.02c0.1-0.03,0.21-0.08,0.31-0.13
				c0.21-0.09,0.41-0.21,0.59-0.34c0.09-0.07,0.18-0.14,0.26-0.21c0.08-0.08,0.15-0.16,0.2-0.25c0.03-0.04,0.04-0.1,0.06-0.15
				c0.01-0.05,0.03-0.11,0.04-0.16c0.02-0.11,0.03-0.23,0.02-0.34C93.97,62.22,93.94,61.98,93.89,61.75z"/>
			<path class="st293" d="M93.7,63.59c0.06,0.09,0.08,0.19,0.1,0.28c0.02,0.1,0.02,0.19,0,0.29c-0.01,0.1-0.04,0.2-0.09,0.29
				c-0.05,0.09-0.12,0.18-0.23,0.21c0.03-0.1,0.03-0.19,0.04-0.27c0.01-0.09,0.02-0.17,0.03-0.26c0.01-0.09,0.03-0.17,0.05-0.26
				C93.63,63.77,93.66,63.68,93.7,63.59z"/>
			<path class="st293" d="M94.3,61.21c0.03,0.13,0.07,0.25,0.14,0.37c0.03,0.06,0.07,0.11,0.11,0.17c0.04,0.05,0.09,0.1,0.14,0.15
				c0.1,0.09,0.22,0.17,0.35,0.24c0.13,0.06,0.27,0.11,0.41,0.14c-0.15,0-0.29-0.02-0.44-0.06c-0.14-0.04-0.29-0.1-0.42-0.18
				c-0.07-0.04-0.13-0.09-0.19-0.14c-0.06-0.05-0.12-0.11-0.17-0.17c-0.11-0.12-0.18-0.26-0.25-0.41L94.3,61.21z"/>
		</g>
	</g>
	<path class="st294" d="M117.45,46.37c-2.53,0.19-4.61,2.74-6.87,9.19c-1.2,3.43-1.69,8.04-1.69,8.04l2.39,4.49L117.45,46.37z"/>
	<path class="st5" d="M108.99,62.8c-0.48-0.14-0.44,0.47-0.75,0.54c0,0,2.46,4.25,1.51,11.21l-0.83-0.26c0,0-0.13,0.7,0.31,1.24
		c0.44,0.55,1.76,0.55,1.76,0.55s2.42-9.57,1.37-10.97C111.3,63.69,108.99,62.8,108.99,62.8z"/>
	<path class="st294" d="M147.9,67.17c-0.49-4.06-0.54-7.46-3.34-10.19c-2.66-2.58-7.78-6.57-8.3-6.97
		c-0.56-0.73-0.27-1.48-0.73-2.37c-0.5-0.97-1.71-1.55-1.71-1.55s-0.19,0.63-0.15,1.06c0.03,0.43,0.35,0.78,0.66,1.15
		c-2.43,4.3-7.88,1.68-9.52,2.38c-1.64,0.7-3.98,3.63-3.98,3.63l1.29-4.69c-1.17-2.23-0.04-3.69-0.04-3.69l0.24,0.02l0.45-1.41
		c0,0-0.41-0.15-0.76,0.34c-0.35,0.49-1.09,0.68-3.08,1.03c-1.99,0.35-3.92,1.52-5.33,4.57c-1.41,3.05-2.73,9.68-3.28,15.78
		c-0.97,10.84-0.83,18.74-0.83,18.74l22.78-0.07c0,0-0.13-4.7,1.35-7.93c1.49-3.24,3.88-5.45,3.88-5.45
		c0.15,0.88,1.39,4.14,1.39,4.14l9.12,1.27C148.02,76.96,148.4,71.23,147.9,67.17z"/>
	<g>
		<g>
			<path class="st284" d="M145.36,84.89c-6.75,1.39-6.24,0.98-16.67-0.52c-1.67-0.32-3.76-3.91-1.5-4.11
				c2.02-0.18,2.58-0.94,4.45-1.44c6.64-1.78,9.23-2.78,12.39-2.23c1.37,0.24,0.84-0.12,2.8,1.75
				C148.8,80.2,148.29,84.29,145.36,84.89z"/>
		</g>
		<g>
			<path class="st284" d="M123.85,81.72c-0.01-0.54-0.17-1.4-1.15-1.84c-1.67-0.75-5.48-0.48-6.28-0.26
				c-1.07,0.3-2.19,3.43-2.94,4.52c-0.58,0.84,0.95,1,1.57,0.39c0.53-0.52,1.88-1.56,2.79-2.22c0.9-0.67,4.22,3.48,7.3,2.42
				C125.14,84.73,123.88,84.26,123.85,81.72z"/>
			<g>
				<path class="st295" d="M125.2,84.7C125.27,84.67,125.27,84.67,125.2,84.7L125.2,84.7z"/>
				<path class="st293" d="M122.7,84.58c-0.76-0.32-1.9-1.06-2.77-1.57c-0.78-0.46-1.39-0.82-1.63-0.88
					c-0.41-0.11-1.37,0.67-2.59,1.71c-0.3,0.25-0.56,0.47-0.73,0.6c-0.38,0.28-0.7,0.34-0.89,0.35c0.26-0.45,0.96-1.66,1.46-2.39
					c0.64-0.92,1.33-1.5,1.5-1.54l0.54-0.23l-0.42,0.06c-0.19,0.03-0.37,0.09-0.53,0.2c-0.36,0.25-0.88,0.73-1.32,1.37
					c-0.63,0.91-1.56,2.57-1.57,2.59c-0.02,0.03-0.02,0.08-0.01,0.11c0.02,0.04,0.05,0.06,0.09,0.07c0.02,0.01,0.59,0.15,1.29-0.37
					c0.17-0.13,0.43-0.35,0.74-0.61c0.67-0.56,2.05-1.74,2.36-1.65c0.21,0.06,0.87,0.45,1.57,0.86c0.87,0.51,1.96,1.15,2.73,1.48
					c0.91,0.39,1.7,0.33,2.17,0.22c0.28-0.06,0.48-0.22,0.5-0.23C125.19,84.71,124.03,85.15,122.7,84.58z"/>
			</g>
			<g>
				<path class="st293" d="M113.81,84.94c0.07-0.02,0.15-0.05,0.24-0.12c0.06-0.04,0.07-0.12,0.02-0.18
					c-0.04-0.06-0.12-0.07-0.18-0.02c-0.08,0.06-0.16,0.09-0.22,0.07c-0.09-0.03-0.15-0.13-0.19-0.21c0.22-0.34,0.44-0.82,0.67-1.33
					c0.29-0.64,0.56-1.41,0.96-1.95c0.69-0.96,1.7-1.32,1.71-1.33c0,0,0.07-0.02,0,0c-0.04,0.01-1.12,0.17-1.86,1.21
					c-0.41,0.57-0.74,1.31-1.04,1.96c-0.24,0.53-0.47,1.03-0.69,1.35c-0.02,0.03-0.03,0.08-0.02,0.12c0.01,0.04,0.12,0.35,0.38,0.43
					C113.65,84.95,113.73,84.96,113.81,84.94z"/>
			</g>
			<path class="st293" d="M117.61,79.35c-1.27,0-1.87,0.18-2.3,1.33c-0.02,0.07,0.02,0.01,0.08,0.03c0.07,0.02,0.14-0.07,0.17-0.14
				c0.32-0.81,0.72-0.99,1.97-1.08c0.32-0.02,1.39-0.04,2.05-0.09C119.01,79.35,117.94,79.35,117.61,79.35z"/>
		</g>
		<path class="st284" d="M122.02,79.65c2.32,0.62,4.15,0.78,8.54-0.48c4.39-1.27,4.9,5.98,2.84,5.84c-4.07-0.27-7.27-0.47-8.19-0.31
			c-0.92,0.16-2.03-1.24-2.03-1.24L122.02,79.65z"/>
	</g>
	<path class="st5" d="M137.51,71.56c-0.08-0.14-0.15-0.29-0.23-0.43c-0.04-0.07-0.07-0.15-0.11-0.22l-0.09-0.22l-0.18-0.45
		c-0.05-0.15-0.1-0.31-0.15-0.47l-0.07-0.23l-0.06-0.24c-0.04-0.16-0.08-0.32-0.11-0.48l-0.09-0.48c-0.03-0.16-0.05-0.32-0.07-0.48
		c-0.08-0.65-0.12-1.3-0.1-1.95c0.02-0.65,0.09-1.3,0.24-1.93c0.02,0.65,0.04,1.29,0.09,1.93c0.04,0.64,0.1,1.27,0.18,1.9
		c0.03,0.32,0.09,0.63,0.13,0.95c0.02,0.16,0.06,0.31,0.08,0.47l0.04,0.24l0.05,0.23c0.03,0.16,0.07,0.31,0.1,0.47l0.11,0.47
		l0.05,0.24c0.02,0.08,0.04,0.15,0.06,0.23C137.43,71.24,137.47,71.4,137.51,71.56z"/>
	<path class="st5" d="M143.67,56.37c-0.75,0-1.48,0.05-2.18,0.22c-0.35,0.1-0.69,0.21-1.01,0.36c-0.32,0.15-0.63,0.33-0.91,0.54
		c-0.57,0.42-1.07,0.94-1.49,1.53c-0.42,0.59-0.78,1.23-1.08,1.92c0.04-0.37,0.15-0.74,0.27-1.1c0.13-0.36,0.29-0.7,0.48-1.03
		c0.38-0.66,0.9-1.26,1.53-1.72c0.32-0.23,0.66-0.42,1.02-0.57c0.36-0.15,0.74-0.25,1.12-0.31
		C142.18,56.11,142.95,56.16,143.67,56.37z"/>
	<path class="st5" d="M135.09,51.72c0.58,0.25,1.14,0.54,1.67,0.89l0.2,0.13c0.07,0.04,0.13,0.09,0.19,0.14l0.38,0.28
		c0.25,0.2,0.5,0.39,0.73,0.6c0.24,0.21,0.47,0.42,0.7,0.64l0.33,0.34c0.11,0.11,0.21,0.23,0.32,0.35c0.42,0.47,0.81,0.97,1.13,1.51
		c-0.43-0.46-0.87-0.9-1.32-1.33c-0.45-0.43-0.9-0.86-1.38-1.26c-0.23-0.21-0.47-0.4-0.71-0.6c-0.24-0.19-0.48-0.39-0.73-0.58
		C136.12,52.44,135.6,52.09,135.09,51.72z"/>
	<path class="st5" d="M131.61,54.44c1.99-0.64,4.1-3.01,4.65-4.43c-0.56-0.73-0.27-1.48-0.73-2.37c-0.5-0.97-1.71-1.55-1.71-1.55
		s-0.19,0.63-0.15,1.06c0.03,0.43,0.35,0.78,0.66,1.15c-2.43,4.3-7.88,1.68-9.52,2.38c-1.64,0.7-3.98,3.63-3.98,3.63
		s4.57-3.28,4.65-2.85c0.08,0.43-0.23,2.97-0.23,2.97S129.39,55.16,131.61,54.44z"/>
	<g>
		<path class="st5" d="M113.99,75.65c-0.03,0.35-0.04,0.54-0.04,0.54C113.97,76.01,113.98,75.83,113.99,75.65z"/>
		<path class="st5" d="M122.32,45.96l0.45-1.41c0,0-0.41-0.15-0.76,0.34c-0.15,0.21-0.38,0.37-0.76,0.51
			c-0.45,0.43-0.77,0.89-0.99,1.35c-0.8,1.39-0.87,5.03-0.25,5.65c0.27,0.27,0.42-1.41,0.68-1.62l0,0l0.26-0.21
			c0,0-0.35,2.69-0.7,3.51c-0.35,0.81-5.33,8.65-6.25,21.57c0.18-2.27,1.25-11.48,6.84-21.33l1.29-4.69
			c-1.17-2.23-0.04-3.69-0.04-3.69L122.32,45.96z"/>
	</g>
	<path class="st5" d="M110.32,66.27c0.07-1.39,0.18-2.77,0.35-4.14c0.04-0.34,0.08-0.69,0.13-1.03c0.05-0.34,0.09-0.69,0.14-1.03
		c0.1-0.69,0.22-1.37,0.34-2.05l0.21-1.02c0.08-0.34,0.15-0.68,0.23-1.02c0.17-0.67,0.34-1.35,0.55-2.01
		c0.2-0.67,0.44-1.32,0.69-1.97c0.26-0.65,0.54-1.28,0.84-1.9c-0.22,0.66-0.45,1.31-0.65,1.97c-0.05,0.16-0.1,0.33-0.15,0.5
		c-0.05,0.17-0.1,0.33-0.14,0.5l-0.14,0.5c-0.05,0.17-0.09,0.33-0.13,0.5c-0.17,0.67-0.33,1.34-0.48,2.01l-0.21,1.01l-0.2,1.02
		l-0.19,1.02c-0.06,0.34-0.11,0.68-0.18,1.02c-0.06,0.34-0.12,0.68-0.17,1.02l-0.17,1.02C110.77,63.54,110.57,64.9,110.32,66.27z"/>
	<path class="st5" d="M139.13,76.4c5.09-0.68,7.66,0.33,9.46,2.29l0.05-1.37c0,0,1.08,0.71,0.92,2.42c-0.16,1.72-0.27,4.1-1.97,4.8
		c-1.7,0.7-4.33-3.87-6.68-4.8c-2.34-0.94-3.43-2.53-3.43-2.53s0.06-0.6,0.66-0.91c0.6-0.31,0.86-0.29,0.86-0.29L139.13,76.4z"/>
	<path class="st5" d="M128,63.27c-0.29,0.56-0.57,1.13-0.83,1.7c-0.27,0.57-0.52,1.15-0.76,1.74c-0.24,0.59-0.47,1.18-0.69,1.77
		c-0.22,0.6-0.43,1.2-0.62,1.8c0.14-0.62,0.29-1.24,0.46-1.85c0.17-0.61,0.35-1.23,0.54-1.83c0.19-0.61,0.39-1.21,0.61-1.82
		c0.21-0.6,0.45-1.2,0.69-1.79L128,63.27z"/>
	<path class="st5" d="M125.11,58.72c0,0-0.52,0.61-0.71,1.32c0,0,2.9,3.37,3.18,3.37c0.28,0,4.92-0.26,4.92-0.26s0.63-1.3,0.63-1.61
		c0,0-3.38-0.59-4.89-1.25C126.74,59.61,125.11,58.72,125.11,58.72z"/>
</g>
</svg>
