<?xml version="1.0" encoding="utf-8"?>
<!-- Generator: Adobe Illustrator 25.3.1, SVG Export Plug-In . SVG Version: 6.00 Build 0)  -->
<svg version="1.1" id="Layer_1" xmlns="http://www.w3.org/2000/svg" xmlns:xlink="http://www.w3.org/1999/xlink" x="0px" y="0px"
	 viewBox="0 0 150.2 90.58" style="enable-background:new 0 0 150.2 90.58;" xml:space="preserve">
<style type="text/css">
	.st0{fill:#24487F;}
	.st1{fill:#8E8E8E;}
	.st2{fill:#FFFFFF;stroke:#8E8E8E;stroke-linecap:round;stroke-miterlimit:10;}
	.st3{fill:#FFFFFF;}
	.st4{fill:#4DB5D1;}
	.st5{fill:#60934D;}
	.st6{fill:#FFFFFF;stroke:#5F934D;stroke-linecap:round;stroke-miterlimit:10;}
	.st7{fill:#23497F;}
	.st8{fill:#FFFFFF;stroke:#23497F;stroke-linecap:round;stroke-miterlimit:10;}
	.st9{fill:url(#SVGID_1_);}
	.st10{fill:url(#SVGID_2_);}
	.st11{fill:url(#SVGID_3_);}
	.st12{fill:url(#SVGID_4_);}
	.st13{fill:#397BBF;}
	.st14{fill:#1466B1;}
	.st15{fill:#054F8C;}
	.st16{fill:url(#SVGID_5_);}
	.st17{fill:#EFA986;}
	.st18{fill:#152B3D;}
	.st19{fill:#62A9DC;}
	.st20{fill:#977332;}
	.st21{fill:#264480;}
	.st22{fill:#363B3D;}
	.st23{fill:#E45354;}
	.st24{fill:#F5F6F6;}
	.st25{fill:#1A5A8D;}
	.st26{fill:#2274B5;}
	.st27{fill:#3A88C8;}
	.st28{fill:#E3F3FC;}
	.st29{fill:#C5CCD1;}
	.st30{fill:#2A2C47;}
	.st31{fill:#E2D2CA;}
	.st32{fill:#434873;}
	.st33{fill:#3B4048;}
	.st34{fill:#323757;}
	.st35{fill:#81A358;}
	.st36{fill:#71A341;}
	.st37{fill:#618A3C;}
	.st38{fill:#87BD43;}
	.st39{fill:#7BA840;}
	.st40{fill:#70A341;}
	.st41{fill:#6A943E;}
	.st42{fill:#B2CF43;}
	.st43{fill:#9FB34D;}
	.st44{fill:url(#SVGID_6_);}
	.st45{filter:url(#Adobe_OpacityMaskFilter);}
	.st46{filter:url(#Adobe_OpacityMaskFilter_1_);}
	.st47{mask:url(#SVGID_7_);fill:url(#SVGID_8_);}
	.st48{fill:url(#SVGID_9_);}
	.st49{fill:#464443;}
	.st50{fill:#928783;}
	.st51{fill:#1D3C55;}
	.st52{fill:#152C3D;}
	.st53{fill:#A77961;}
	.st54{fill:#D8E9F7;}
	.st55{fill:#BFB2AC;}
	.st56{fill:#FED1A2;}
	.st57{fill:#B37953;}
	.st58{fill:#D6995E;}
	.st59{fill:#807167;}
	.st60{fill:#6E6760;}
	.st61{fill:#928880;}
	.st62{fill:#BC8552;}
	.st63{filter:url(#Adobe_OpacityMaskFilter_2_);}
	.st64{filter:url(#Adobe_OpacityMaskFilter_3_);}
	.st65{mask:url(#SVGID_10_);fill:url(#SVGID_11_);}
	.st66{fill:url(#SVGID_12_);}
	.st67{filter:url(#Adobe_OpacityMaskFilter_4_);}
	.st68{filter:url(#Adobe_OpacityMaskFilter_5_);}
	.st69{mask:url(#SVGID_13_);fill:url(#SVGID_14_);}
	.st70{fill:url(#SVGID_15_);}
	.st71{fill:#C3C8E5;}
	.st72{opacity:0.3;}
	.st73{fill:#F4F6FB;}
	.st74{fill:#E8E8F2;}
	.st75{fill:#D7D6E6;}
	.st76{fill:#F3F4F7;}
	.st77{fill:#FCFDFD;}
	.st78{filter:url(#Adobe_OpacityMaskFilter_6_);}
	.st79{mask:url(#SVGID_16_);}
	.st80{fill:#3F54A5;}
	.st81{fill:#A5A7D4;}
	.st82{fill:#B4BBDF;}
	.st83{fill:url(#SVGID_17_);}
	.st84{fill:#CED0E4;}
	.st85{fill:#EDF0F9;}
	.st86{opacity:0.5;fill:#CFD2D3;}
	.st87{opacity:0.5;fill:#A5A7AA;}
	.st88{fill:#332566;}
	.st89{fill:#FAAE42;}
	.st90{fill:#DFDFDE;}
	.st91{fill:#F6C6B1;}
	.st92{fill:#E8B8A9;}
	.st93{fill:#3D4592;}
	.st94{fill:url(#SVGID_18_);}
	.st95{fill:url(#SVGID_19_);}
	.st96{fill:url(#SVGID_20_);}
	.st97{fill:#112F41;}
	.st98{opacity:0.5;fill:#BDBCD8;}
	.st99{opacity:0.2;fill:#ED5B2A;}
	.st100{fill-rule:evenodd;clip-rule:evenodd;fill:#3E55A5;}
	.st101{fill:#2C1C28;}
	.st102{fill:#EE7762;}
	.st103{opacity:0.25;fill:#ED5B2A;}
	.st104{fill:#CD3046;}
	.st105{fill:#282B70;}
	.st106{fill:url(#SVGID_21_);}
	.st107{fill:url(#SVGID_22_);}
	.st108{fill:#212B46;}
	.st109{fill:#D2D2E9;}
	.st110{fill:#8F95CA;}
	.st111{fill:#BDBCD8;}
	.st112{fill:#F2F7F6;}
	.st113{fill:#C9C8DF;}
	.st114{fill:#E3E3EE;}
	.st115{fill:#FAF0F7;}
	.st116{fill:#FFFCFD;}
	.st117{fill:#E4A28B;}
	.st118{opacity:0.05;fill:#010101;}
	.st119{fill:#D9DDEC;}
	.st120{fill:#C6CBE7;}
	.st121{fill:#8A97CC;}
	.st122{fill:#DFE4F3;}
	.st123{fill:#D5A393;}
	.st124{fill:#182540;}
	.st125{fill:url(#SVGID_23_);}
	.st126{fill:#F1A993;}
	.st127{fill:#687094;}
	.st128{fill:#D7DBEF;}
	.st129{fill:#F4F4F8;}
	.st130{fill:#B2B9DE;}
	.st131{fill:#4D60AC;}
	.st132{fill:#8E97CB;}
	.st133{fill:#BCC6E5;}
	.st134{fill:#AAB9DF;}
	.st135{fill:#FFFBFD;}
	.st136{fill:#34479E;}
	.st137{opacity:0.2;}
	.st138{fill:#60848C;}
	.st139{fill:url(#SVGID_24_);}
	.st140{fill:#F36E5C;}
	.st141{fill:#85BEE7;}
	.st142{fill:#908F8F;}
	.st143{fill:#F1F0F0;}
	.st144{fill:url(#SVGID_25_);}
	.st145{fill:#CCCCCC;}
	.st146{fill:#F6F7FB;}
	.st147{fill:#E6E6E5;}
	.st148{fill:#F3F3F3;}
	.st149{fill:#EFF0F7;}
	.st150{fill:url(#SVGID_26_);}
	.st151{fill:url(#SVGID_27_);}
	.st152{fill:url(#SVGID_28_);}
	.st153{fill:url(#SVGID_29_);}
	.st154{fill:url(#SVGID_30_);}
	.st155{fill:url(#SVGID_31_);}
	.st156{fill:#3D426A;}
	.st157{fill:#252840;}
	.st158{fill:#C4B4AF;}
	.st159{fill:#EA4747;}
	.st160{fill:#6B7BBC;}
	.st161{fill:#5266AF;}
	.st162{fill:#5062AD;}
	.st163{fill:#EDDAD3;}
	.st164{fill:#DECDC7;}
	.st165{fill:#E3D1CA;}
	.st166{fill:#B39595;}
	.st167{fill:#DBB8B8;}
	.st168{fill:#F1CCCB;}
	.st169{fill:#323538;}
	.st170{fill:#EFAA88;}
	.st171{fill:#1D2133;}
	.st172{fill:#EFAA87;}
	.st173{fill:#D88A51;}
	.st174{fill:#C68D71;}
	.st175{fill:#A19FA7;}
	.st176{fill:#EAE6F1;}
	.st177{fill:#3B4167;}
	.st178{fill:#DE9674;}
	.st179{fill:#764937;}
	.st180{fill:#5D554E;}
	.st181{fill:#3D4246;}
	.st182{fill:#FFD356;}
	.st183{fill:url(#SVGID_32_);}
	.st184{fill:url(#SVGID_33_);}
	.st185{fill:url(#SVGID_34_);}
	.st186{fill:url(#SVGID_35_);}
	.st187{fill:url(#SVGID_36_);}
	.st188{fill:url(#SVGID_37_);}
	.st189{opacity:0.5;}
	.st190{fill:#FCEACF;}
	.st191{opacity:0.8;}
	.st192{fill:#D4EEF6;}
	.st193{fill:#3AA1C9;}
	.st194{fill:#3F9896;}
	.st195{fill:#7FC6A6;}
	.st196{fill:#DEF2FD;}
	.st197{fill:#223849;}
	.st198{fill:#B4E3F7;}
	.st199{fill:#F89F74;}
	.st200{fill:#E33F3E;}
	.st201{fill:#482B32;}
	.st202{fill:#D8E4F4;}
	.st203{fill:#683E47;}
	.st204{fill:#3788BA;}
	.st205{fill:#22131E;}
	.st206{fill:#FAB59D;}
	.st207{fill:#CC2327;}
	.st208{fill:#E2F3F1;}
	.st209{fill:#F07163;}
	.st210{fill:#49273F;}
	.st211{fill:#4C232E;}
	.st212{fill:#010101;}
	.st213{fill:#F7956E;}
	.st214{fill:#F68D64;}
	.st215{fill:#F27584;}
	.st216{fill:#4EB8D9;}
	.st217{fill:#EF4751;}
	.st218{fill:#ACC7E8;}
	.st219{fill:#268E8D;}
	.st220{fill:#3A1F33;}
	.st221{fill:#FECC87;}
	.st222{fill:#FBB359;}
	.st223{fill:#331A2C;}
	.st224{fill:#FDC886;}
	.st225{fill:#F7934B;}
	.st226{fill:#F04D65;}
	.st227{fill:#F6D6B2;}
	.st228{fill:#61A3C5;}
	.st229{fill:#B1D89B;}
	.st230{fill:#A8C8E5;}
	.st231{fill:#C1D1EC;}
	.st232{fill:#F2AC40;}
	.st233{fill:#3B57A6;}
	.st234{fill:#C2D5EE;}
	.st235{fill:#A9C4E6;}
	.st236{fill:#2D572A;}
	.st237{fill:#274392;}
	.st238{fill:#95B0DB;}
	.st239{fill:#BFBFBF;}
	.st240{fill:#E9F3FB;}
	.st241{fill:#6B81C0;}
	.st242{fill:#8FB1DD;}
	.st243{fill:#F58765;}
	.st244{fill:#2C1913;}
	.st245{fill:#6A3F31;}
	.st246{fill:#F37559;}
	.st247{fill:#F47A55;}
	.st248{fill:#E0B3A8;}
	.st249{fill:#D9D9D9;}
	.st250{fill:#C6DD74;}
	.st251{fill:#9FCB5F;}
	.st252{fill:#7C9D48;}
	.st253{fill:#E7E7E7;}
	.st254{fill:#F2C791;}
	.st255{fill:#B7B7B7;}
	.st256{fill:#7595CD;}
	.st257{fill:#FAB18D;}
	.st258{fill:#F6977C;}
	.st259{fill:#D1E28C;}
	.st260{fill:none;}
	.st261{fill:#1B1B1C;}
	.st262{fill:#F47E46;}
	.st263{fill:#EB6828;}
	.st264{fill:#F79668;}
	.st265{fill:#E6B54E;}
	.st266{fill:#676767;}
	.st267{fill:#4D4C4C;}
	.st268{fill:#F27070;}
	.st269{fill:#C24D4D;}
	.st270{enable-background:new    ;}
	.st271{fill:#C39B6A;}
	.st272{fill:#C9A475;}
	.st273{fill:#E6B880;}
	.st274{fill:#9F3D3E;}
	.st275{fill:#FFD679;}
	.st276{fill:#F4805D;}
	.st277{fill:#DA5958;}
	.st278{fill:#7D3D20;}
	.st279{fill:#562915;}
	.st280{fill:#B15931;}
	.st281{fill:#5076BA;}
	.st282{fill:#59ADC0;}
	.st283{fill:#099895;}
	.st284{fill:#F5AE87;}
	.st285{fill:#D9504F;}
	.st286{fill:#FCC79A;}
	.st287{fill:#FFDC7B;}
	.st288{fill:#F15958;}
	.st289{fill:#674E46;}
	.st290{fill:#785D51;}
	.st291{clip-path:url(#SVGID_39_);fill:#60934D;}
	.st292{clip-path:url(#SVGID_39_);}
	.st293{fill:#BD725F;}
	.st294{fill:#E6F1D1;}
	.st295{fill:#A86046;}
	.st296{fill:#3C251D;}
	.st297{fill:#4A413F;}
	.st298{fill:#716765;}
	.st299{fill:#EEBD7F;}
	.st300{fill:#7DA594;}
	.st301{fill:#252433;}
	.st302{fill:#F7E6C7;}
	.st303{fill:#E79F90;}
	.st304{fill:#CC4A38;}
	.st305{fill:#333333;}
	.st306{fill:#E1755E;}
	.st307{fill:#E8A180;}
	.st308{fill:#694136;}
	.st309{fill:#C06360;}
	.st310{fill:#CD5A5A;}
	.st311{fill:#E17660;}
	.st312{opacity:0.42;}
	.st313{fill-rule:evenodd;clip-rule:evenodd;fill:#B1D89B;}
	.st314{clip-path:url(#SVGID_41_);fill:#92B779;}
	.st315{clip-path:url(#SVGID_43_);fill:url(#SVGID_44_);}
	.st316{fill-rule:evenodd;clip-rule:evenodd;fill:#60934D;}
	.st317{clip-path:url(#SVGID_46_);fill:url(#SVGID_47_);}
	.st318{fill-rule:evenodd;clip-rule:evenodd;fill:#274CA1;}
	.st319{clip-path:url(#SVGID_49_);fill:url(#SVGID_50_);}
	.st320{clip-path:url(#SVGID_52_);fill:url(#SVGID_53_);}
	.st321{fill-rule:evenodd;clip-rule:evenodd;fill:#F3AF8F;}
	.st322{fill-rule:evenodd;clip-rule:evenodd;fill:#6E2D5F;}
	.st323{fill-rule:evenodd;clip-rule:evenodd;fill:#4D1942;}
	.st324{fill-rule:evenodd;clip-rule:evenodd;fill:#101841;}
	.st325{fill-rule:evenodd;clip-rule:evenodd;fill:#144984;}
	.st326{fill-rule:evenodd;clip-rule:evenodd;fill:#35AD82;}
	.st327{fill-rule:evenodd;clip-rule:evenodd;fill:#198C67;}
	.st328{fill-rule:evenodd;clip-rule:evenodd;fill:#F6C1C5;}
	.st329{fill-rule:evenodd;clip-rule:evenodd;fill:#53B9E9;}
	.st330{fill-rule:evenodd;clip-rule:evenodd;fill:#7DD3F7;}
	.st331{clip-path:url(#SVGID_55_);fill:url(#SVGID_56_);}
	.st332{clip-path:url(#SVGID_58_);fill:url(#SVGID_59_);}
	.st333{fill-rule:evenodd;clip-rule:evenodd;fill:#3DB4E8;}
	.st334{clip-path:url(#SVGID_61_);fill:url(#SVGID_62_);}
	.st335{fill-rule:evenodd;clip-rule:evenodd;fill:#F4FBFE;}
	.st336{fill-rule:evenodd;clip-rule:evenodd;fill:#F4B1B1;}
	.st337{fill-rule:evenodd;clip-rule:evenodd;fill:#D4EAD8;}
	.st338{fill-rule:evenodd;clip-rule:evenodd;fill:#E16C6C;}
	.st339{clip-path:url(#SVGID_64_);fill:url(#SVGID_65_);}
	.st340{clip-path:url(#SVGID_67_);fill:url(#SVGID_68_);}
	.st341{clip-path:url(#SVGID_70_);fill:url(#SVGID_71_);}
	.st342{clip-path:url(#SVGID_73_);fill:url(#SVGID_74_);}
	.st343{clip-path:url(#SVGID_76_);fill:url(#SVGID_77_);}
	.st344{fill-rule:evenodd;clip-rule:evenodd;fill:#316CB5;}
	.st345{clip-path:url(#SVGID_79_);fill:url(#SVGID_80_);}
	.st346{fill-rule:evenodd;clip-rule:evenodd;fill:#DF5D7B;}
	.st347{clip-path:url(#SVGID_82_);fill:url(#SVGID_83_);}
	.st348{fill-rule:evenodd;clip-rule:evenodd;fill:#2D572A;}
	.st349{clip-path:url(#SVGID_85_);fill:#60934D;}
	.st350{clip-path:url(#SVGID_87_);fill:url(#SVGID_88_);}
	.st351{clip-path:url(#SVGID_90_);fill:url(#SVGID_91_);}
	.st352{clip-path:url(#SVGID_93_);fill:url(#SVGID_94_);}
	.st353{fill:url(#SVGID_95_);}
	.st354{filter:url(#Adobe_OpacityMaskFilter_7_);}
	.st355{filter:url(#Adobe_OpacityMaskFilter_8_);}
	.st356{mask:url(#SVGID_96_);fill:url(#SVGID_97_);}
	.st357{fill:url(#SVGID_98_);}
	.st358{fill:none;stroke:#FFFFFF;stroke-miterlimit:10;}
	.st359{fill:url(#SVGID_99_);}
	.st360{filter:url(#Adobe_OpacityMaskFilter_9_);}
	.st361{filter:url(#Adobe_OpacityMaskFilter_10_);}
	.st362{mask:url(#SVGID_100_);fill:url(#SVGID_101_);}
	.st363{fill:url(#SVGID_102_);}
	.st364{fill:url(#SVGID_103_);}
	.st365{filter:url(#Adobe_OpacityMaskFilter_11_);}
	.st366{filter:url(#Adobe_OpacityMaskFilter_12_);}
	.st367{mask:url(#SVGID_104_);fill:url(#SVGID_105_);}
	.st368{fill:url(#SVGID_106_);}
	.st369{fill:url(#SVGID_107_);}
	.st370{filter:url(#Adobe_OpacityMaskFilter_13_);}
	.st371{filter:url(#Adobe_OpacityMaskFilter_14_);}
	.st372{mask:url(#SVGID_108_);fill:url(#SVGID_109_);}
	.st373{fill:url(#SVGID_110_);}
	.st374{fill:url(#SVGID_111_);}
	.st375{fill:url(#SVGID_112_);}
	.st376{fill:url(#SVGID_113_);}
	.st377{fill:url(#SVGID_114_);}
	.st378{fill:url(#SVGID_115_);}
	.st379{fill:url(#SVGID_116_);}
	.st380{fill:#FBC5B4;}
	.st381{fill:url(#SVGID_117_);}
	.st382{fill:url(#SVGID_118_);}
	.st383{filter:url(#Adobe_OpacityMaskFilter_15_);}
	.st384{filter:url(#Adobe_OpacityMaskFilter_16_);}
	.st385{mask:url(#SVGID_119_);fill:url(#SVGID_120_);}
	.st386{fill:url(#SVGID_121_);}
	.st387{fill:url(#SVGID_122_);}
	.st388{filter:url(#Adobe_OpacityMaskFilter_17_);}
	.st389{filter:url(#Adobe_OpacityMaskFilter_18_);}
	.st390{mask:url(#SVGID_123_);fill:url(#SVGID_124_);}
	.st391{fill:url(#SVGID_125_);}
	.st392{fill:url(#SVGID_126_);}
	.st393{fill:#F69575;}
	.st394{fill:url(#SVGID_127_);}
	.st395{fill:url(#SVGID_128_);}
	.st396{fill:url(#SVGID_129_);}
	.st397{fill:url(#SVGID_130_);}
	.st398{fill:url(#SVGID_131_);}
	.st399{fill:#F05253;}
	.st400{fill:#ED1C24;}
	.st401{fill:url(#SVGID_132_);}
	.st402{fill:url(#SVGID_133_);}
	.st403{fill:url(#SVGID_134_);}
	.st404{fill:url(#SVGID_135_);}
	.st405{fill:url(#SVGID_136_);}
	.st406{fill:url(#SVGID_137_);}
	.st407{fill:#FDC78D;}
	.st408{fill:#FFD10A;}
	.st409{fill:url(#SVGID_138_);}
	.st410{fill:url(#SVGID_139_);}
	.st411{fill:url(#SVGID_140_);}
	.st412{fill:#6899D1;}
	.st413{fill:#F4F4F4;}
	.st414{fill:#DAEEF6;}
	.st415{fill:url(#SVGID_141_);}
	.st416{fill:#85CEC1;}
	.st417{fill:url(#SVGID_142_);}
	.st418{fill:#F37878;}
	.st419{fill:url(#SVGID_143_);}
	.st420{fill:url(#SVGID_144_);}
	.st421{fill:url(#SVGID_145_);}
	.st422{fill:url(#SVGID_146_);}
	.st423{fill:url(#SVGID_147_);}
	.st424{fill:url(#SVGID_148_);}
	.st425{fill:url(#SVGID_149_);}
	.st426{fill:url(#SVGID_150_);}
	.st427{fill:url(#SVGID_151_);}
	.st428{fill:url(#SVGID_152_);}
	.st429{fill:url(#SVGID_153_);}
	.st430{fill:#F0EFEF;}
	.st431{fill:#DBD7D7;}
	.st432{fill:#63C7D3;}
	.st433{opacity:0.5;fill:#63C7D3;}
	.st434{fill:#E6E7F4;}
	.st435{fill:#23214D;}
	.st436{fill:#283996;}
	.st437{fill:#1B193A;}
	.st438{fill:#F68D63;}
	.st439{fill:#F9A575;}
	.st440{fill:#FEDA04;}
	.st441{fill:#312126;}
	.st442{fill:#F15F4B;}
	.st443{fill:#F15834;}
	.st444{fill:#EC4524;}
	.st445{fill:#F26B76;}
	.st446{fill:#4D5BA9;}
	.st447{fill:#2D327E;}
	.st448{fill:#39469D;}
	.st449{fill:#9AC181;}
	.st450{fill:#7ED0DC;}
	.st451{display:none;}
	.st452{display:inline;fill:#F9A575;}
	.st453{display:inline;}
	.st454{fill:#673A3C;}
	.st455{fill:#794447;}
	.st456{fill:#47222C;}
	.st457{fill:#29275C;}
	.st458{fill:#57B0B9;}
	.st459{fill:#EF434E;}
	.st460{fill:#E24826;}
	.st461{fill:#4754A5;}
	.st462{fill:#B6C153;}
	.st463{fill:#DD4361;}
	.st464{fill:#FBB67B;}
	.st465{fill:#F6EEEA;}
	.st466{fill:#251D1C;}
	.st467{fill:#E0B895;}
	.st468{fill:#DFB793;}
	.st469{fill:#B8A79D;}
	.st470{fill:#9B93C7;}
	.st471{fill:#6A8037;}
	.st472{fill:#E9633E;}
	.st473{fill:#F6936F;}
	.st474{fill:#DBD8EC;}
	.st475{fill:#221A19;}
	.st476{fill:#382621;}
	.st477{fill:#F7EFEC;}
	.st478{fill:#FBB67C;}
	.st479{fill:#70CACA;}
	.st480{fill:#004669;}
	.st481{fill:#33ADA9;}
	.st482{fill:#EE777A;}
	.st483{fill:#C3E8F0;}
	.st484{fill:#C39C44;}
	.st485{fill:#FFE6B0;}
	.st486{fill:#FFCB5D;}
	.st487{fill:#D2EDF5;}
	.st488{fill:none;stroke:#D2EDF5;stroke-width:2.2824;stroke-miterlimit:10;}
	.st489{fill:#0F4672;}
	.st490{fill:#92B779;}
	.st491{fill:#D47C60;}
	.st492{fill:#054A6E;}
	.st493{fill:#2B9996;}
	.st494{fill:#CAE9EB;}
	.st495{fill:#F7A581;}
	.st496{fill:#F18D24;}
	.st497{fill:#CF7929;}
	.st498{fill:#182F40;}
	.st499{fill:#0E1B2D;}
	.st500{fill:#406E34;}
	.st501{fill:#3B83B0;}
	.st502{fill:#3B3F4A;}
	.st503{fill:#242930;}
	.st504{fill:#FBD165;}
	.st505{fill:#FCB017;}
	.st506{fill:#155567;}
	.st507{fill:#236A7E;}
	.st508{fill:#3096B3;}
	.st509{fill:#84D2F6;}
	.st510{fill:#C4E4F8;}
	.st511{fill:#FCB774;}
	.st512{fill:#FAA31B;}
	.st513{fill:#E38D25;}
	.st514{fill:#AADFF3;}
	.st515{fill:#126E84;}
	.st516{fill:#064A56;}
	.st517{fill:#096D84;}
	.st518{fill:#D3CED9;}
	.st519{fill:#D89466;}
	.st520{fill:#FAA61A;}
	.st521{fill:#AA6549;}
	.st522{fill:#B35143;}
	.st523{fill:#3B3E54;}
	.st524{fill:#8A432D;}
	.st525{fill:#4C2F2C;}
	.st526{fill:#3C1C19;}
	.st527{fill:#9889C1;}
	.st528{fill:#CC8759;}
	.st529{fill:#665DA9;}
	.st530{fill:#5C2B20;}
	.st531{fill:#F4F5F0;}
	.st532{fill:#E04A95;}
	.st533{fill:#BC6944;}
	.st534{fill:#673021;}
	.st535{fill:#C4C2DF;}
	.st536{fill:#342B29;}
	.st537{fill:#E69F6F;}
	.st538{fill:#F173AC;}
	.st539{fill:#FAA43A;}
	.st540{fill:#F7F7FA;}
	.st541{fill:#3F4076;}
	.st542{fill:#5CA4DA;}
	.st543{fill:#BBD071;}
	.st544{fill:#97A33B;}
	.st545{fill:#49763A;}
	.st546{fill:#E5F2FC;}
	.st547{opacity:0.85;}
	.st548{fill:#4692CF;}
	.st549{fill:#0E2D3D;}
	.st550{fill:#5478B4;}
	.st551{fill:#5B83C3;}
	.st552{fill:#304664;}
	.st553{fill:#364D71;}
	.st554{fill:#2C3B57;}
	.st555{fill:#D5D8E8;}
	.st556{opacity:0.82;}
	.st557{fill:#418ECC;}
	.st558{fill:#173342;}
	.st559{fill:#295274;}
	.st560{fill:#F47D58;}
	.st561{fill:#183C59;}
	.st562{fill:#616262;}
	.st563{fill:#E0CFC8;}
	.st564{fill:#64A8DC;}
	.st565{opacity:0.66;}
	.st566{fill:#CBE1F5;}
	.st567{fill:#8CB6E1;}
	.st568{fill:#B5D3EF;}
	.st569{fill:#B8D8F2;}
	.st570{fill:#92B4DF;}
	.st571{fill:#BBDDDE;}
	.st572{fill:#D1ECED;}
	.st573{fill:#C8CBE2;}
	.st574{fill:#669AD2;}
	.st575{fill:#4D84C5;}
	.st576{fill:#181C4D;}
	.st577{fill:#EFBBBB;}
	.st578{fill:#F9CBCB;}
	.st579{fill:#2B3874;}
	.st580{fill:#EBAEAD;}
	.st581{fill:#21295D;}
	.st582{fill:#31344D;}
	.st583{fill:#FCD4D1;}
	.st584{fill:#B95050;}
	.st585{fill:#FEE9E2;}
	.st586{fill:#181A2E;}
	.st587{fill:#EB9B9C;}
	.st588{fill:#F9B7B3;}
	.st589{fill:#444C86;}
	.st590{fill:#2B3367;}
	.st591{fill:#93BAE3;}
	.st592{fill:#4B80C1;}
	.st593{fill:#396CAD;}
	.st594{fill:#C0D9F1;}
	.st595{fill:#F9B4AF;}
	.st596{fill:#4E88C7;}
	.st597{fill:#195595;}
	.st598{fill:#D9475A;}
	.st599{fill:#1172BA;}
	.st600{fill:#247BBC;}
	.st601{fill:#FAA71F;}
	.st602{fill:#D55127;}
	.st603{fill:none;stroke:#212F57;stroke-width:0.925;stroke-miterlimit:10;}
	.st604{fill:#212F57;}
	.st605{opacity:0.5;fill:#838DC5;}
	.st606{fill:#F2C7BD;}
	.st607{fill:none;stroke:#212F57;stroke-width:1.2665;stroke-linecap:round;stroke-linejoin:round;stroke-miterlimit:10;}
	.st608{fill:#272A41;}
	.st609{fill:none;stroke:#E8B1C3;stroke-width:2.5241;stroke-miterlimit:10;}
	.st610{fill:#5160A5;}
	.st611{opacity:0.5;fill:#D55127;}
	.st612{opacity:0.5;fill:#DA8727;}
	.st613{opacity:0.7;}
	.st614{fill:#DA8727;}
	.st615{fill:#A3BDE3;}
	.st616{fill:#1B7A84;}
	.st617{fill:#B1D2EF;}
	.st618{fill:#F8ACAD;}
	.st619{opacity:0.63;}
	.st620{clip-path:url(#SVGID_155_);}
	.st621{fill:#D7E7F6;}
	.st622{clip-path:url(#SVGID_157_);}
	.st623{clip-path:url(#SVGID_159_);}
	.st624{clip-path:url(#SVGID_161_);}
	.st625{clip-path:url(#SVGID_163_);}
	.st626{clip-path:url(#SVGID_165_);}
	.st627{clip-path:url(#SVGID_167_);}
	.st628{clip-path:url(#SVGID_169_);}
	.st629{clip-path:url(#SVGID_171_);}
	.st630{clip-path:url(#SVGID_173_);}
	.st631{clip-path:url(#SVGID_175_);}
	.st632{clip-path:url(#SVGID_177_);}
	.st633{clip-path:url(#SVGID_179_);}
	.st634{clip-path:url(#SVGID_181_);}
	.st635{clip-path:url(#SVGID_183_);}
	.st636{clip-path:url(#SVGID_185_);}
	.st637{clip-path:url(#SVGID_187_);}
	.st638{clip-path:url(#SVGID_189_);}
	.st639{clip-path:url(#SVGID_191_);}
	.st640{clip-path:url(#SVGID_193_);}
	.st641{clip-path:url(#SVGID_195_);}
	.st642{fill:#89B2DF;}
	.st643{fill:#4377BC;}
	.st644{fill:#DA6566;}
	.st645{fill:#F58E92;}
	.st646{fill-rule:evenodd;clip-rule:evenodd;fill:#4DB5D1;}
	.st647{fill:#F15C60;}
	.st648{fill:#FFD574;}
	.st649{fill:#F2B892;}
	.st650{fill:#EB836C;}
	.st651{fill:url(#SVGID_196_);}
	.st652{fill:#222C55;}
	.st653{fill:#4551A3;}
	.st654{fill:url(#SVGID_197_);}
	.st655{fill:#0B3C5F;}
	.st656{fill:#F8A187;}
	.st657{fill:#F4B68F;}
	.st658{fill:#232850;}
	.st659{fill:#306D9E;}
	.st660{fill:#255981;}
	.st661{fill:#F69E83;}
	.st662{fill:#0B3D60;}
	.st663{opacity:0.45;fill:#89B2DF;}
	.st664{filter:url(#Adobe_OpacityMaskFilter_19_);}
	.st665{filter:url(#Adobe_OpacityMaskFilter_20_);}
	.st666{mask:url(#SVGID_198_);fill:url(#SVGID_199_);}
	.st667{opacity:0.33;fill:#AADFF3;}
	.st668{filter:url(#Adobe_OpacityMaskFilter_21_);}
	.st669{filter:url(#Adobe_OpacityMaskFilter_22_);}
	.st670{mask:url(#SVGID_200_);fill:url(#SVGID_201_);}
	.st671{filter:url(#Adobe_OpacityMaskFilter_23_);}
	.st672{filter:url(#Adobe_OpacityMaskFilter_24_);}
	.st673{mask:url(#SVGID_202_);fill:url(#SVGID_203_);}
	.st674{fill:#CFD8EE;}
	.st675{fill:#E3E6F4;}
	.st676{fill:#ABBADF;}
	.st677{fill:#C3CCE8;}
	.st678{fill:url(#SVGID_204_);}
	.st679{fill:url(#SVGID_205_);}
	.st680{fill:#D3D0E9;}
	.st681{fill:#078BBF;}
	.st682{fill:#057B97;}
	.st683{fill:url(#SVGID_206_);}
	.st684{fill:#C74534;}
	.st685{fill:#F27B66;}
	.st686{fill:#58449B;}
	.st687{fill:#6B52A2;}
	.st688{fill:#A9A6D2;}
	.st689{fill:#C4C0E0;}
	.st690{opacity:0.33;}
	.st691{opacity:0.23;fill:url(#SVGID_207_);}
	.st692{opacity:0.36;fill:url(#SVGID_208_);}
	.st693{opacity:0.36;fill:url(#SVGID_209_);}
	.st694{opacity:0.23;fill:url(#SVGID_210_);}
	.st695{fill:#D8E0F2;}
	.st696{opacity:0.36;fill:url(#SVGID_211_);}
	.st697{opacity:0.42;fill:url(#SVGID_212_);}
	.st698{fill:#F6F9FD;}
	.st699{fill:#049AC9;}
	.st700{fill:#E0E0E0;}
	.st701{fill:#EBEBEB;}
	.st702{fill:none;stroke:#F2A59D;stroke-width:0.05;stroke-miterlimit:10;}
	.st703{fill:#FAFBFB;}
	.st704{fill:#E7515B;}
	.st705{fill:#CFCFCE;}
	.st706{fill:#FBBD9D;}
	.st707{fill:#EC996F;}
	.st708{opacity:0.6;fill:#FFFFFF;}
	.st709{opacity:0.6;}
	.st710{fill:#263238;}
	.st711{fill:#455B64;}
	.st712{fill:none;stroke:#43494E;stroke-miterlimit:10;}
	.st713{fill:#F5F5F5;}
	.st714{fill:#F3725F;}
	.st715{opacity:0;}
	.st716{clip-path:url(#SVGID_214_);}
	.st717{fill:#C9D8EF;}
	.st718{clip-path:url(#SVGID_216_);}
	.st719{clip-path:url(#SVGID_218_);}
	.st720{clip-path:url(#SVGID_220_);}
	.st721{clip-path:url(#SVGID_222_);}
	.st722{clip-path:url(#SVGID_224_);}
	.st723{clip-path:url(#SVGID_226_);}
	.st724{clip-path:url(#SVGID_228_);}
	.st725{clip-path:url(#SVGID_230_);}
	.st726{clip-path:url(#SVGID_232_);}
	.st727{clip-path:url(#SVGID_234_);}
	.st728{clip-path:url(#SVGID_236_);}
	.st729{clip-path:url(#SVGID_238_);}
	.st730{clip-path:url(#SVGID_240_);}
	.st731{clip-path:url(#SVGID_242_);}
	.st732{clip-path:url(#SVGID_244_);}
	.st733{clip-path:url(#SVGID_246_);}
	.st734{clip-path:url(#SVGID_248_);}
	.st735{clip-path:url(#SVGID_250_);}
	.st736{clip-path:url(#SVGID_252_);}
	.st737{clip-path:url(#SVGID_254_);}
	.st738{fill:#59595B;}
	.st739{fill:#EDF7F7;}
	.st740{fill:#FDD247;}
	.st741{fill:#1D2040;}
	.st742{fill:url(#SVGID_255_);}
	.st743{fill:#F89A45;}
	.st744{fill:#4F2E1F;}
	.st745{fill:#AEADAD;}
	.st746{fill:#3C2116;}
	.st747{fill:#76696D;}
	.st748{fill:#DFB0B4;}
	.st749{fill:#0E4363;}
	.st750{fill:#F8F6F1;}
	.st751{fill:#A4BAE1;}
	.st752{fill:#4D1F38;}
	.st753{fill:#3A1528;}
	.st754{fill:#746875;}
	.st755{fill:#DAADD1;}
	.st756{fill:url(#SVGID_256_);}
	.st757{fill:#CD3570;}
	.st758{fill:url(#SVGID_257_);}
	.st759{fill:url(#SVGID_258_);}
	.st760{fill:#A09F9F;}
	.st761{fill:none;stroke:#FFFFFF;stroke-linecap:round;stroke-miterlimit:10;}
	.st762{fill:none;stroke:#FFFFFF;stroke-linecap:round;stroke-linejoin:round;stroke-miterlimit:10;}
	.st763{fill:none;stroke:#A09F9F;stroke-miterlimit:10;}
	.st764{fill:#7B553A;}
	.st765{fill:#5F422D;}
	.st766{fill:#FDB839;}
	.st767{fill:#401B0F;}
	.st768{fill:#034B4E;}
	.st769{opacity:0.36;}
	.st770{opacity:0.1;fill:#CFCFCE;}
	.st771{opacity:0.15;}
	.st772{fill:#FBB781;}
	.st773{fill:#49A8D5;}
	.st774{fill:#077679;}
	.st775{opacity:0.1;}
	.st776{fill:#BEE0C0;}
	.st777{opacity:0.23;fill:#245C74;}
	.st778{fill:#245C74;}
	.st779{fill:#FCC69B;}
	.st780{fill:#DBA285;}
	.st781{fill:#757576;}
	.st782{fill:#ABABAA;}
	.st783{fill:#6F6F71;}
	.st784{fill:#FFCA70;}
	.st785{fill:#FAA325;}
	.st786{fill:none;stroke:#077679;stroke-width:0.25;stroke-linecap:round;stroke-linejoin:round;stroke-miterlimit:10;}
	.st787{fill:#963A20;}
	.st788{fill:#E2E2E2;}
	.st789{fill:#18184B;}
	.st790{fill:#F8B6C9;}
	.st791{fill:#F58531;}
	.st792{fill:#759CD2;}
	.st793{fill:#BACFEB;}
</style>
<g>
	<g>
		<g>
			<path class="st430" d="M147.74,47.12c0,6.39-4.99,11.62-11.29,12c-0.03,0-0.07,0-0.1,0.01c-0.21,0.01-0.41,0.01-0.63,0.01
				c-0.17,0-0.35,0-0.52-0.01c-0.04,0-0.07,0-0.11,0c-6.35-0.33-11.39-5.58-11.39-12c0-6.64,5.38-12.02,12.02-12.02
				C142.36,35.1,147.74,40.48,147.74,47.12z"/>
		</g>
		<polygon class="st431" points="135.78,43.4 136.73,84.66 134.71,84.66 135.66,43.4 		"/>
		<polygon class="st431" points="126.71,48.23 136.15,57.18 135.45,57.17 144.7,48.77 144.76,48.83 136.14,57.88 135.79,58.25 
			135.44,57.87 		"/>
		<polygon class="st431" points="131.76,45.88 136.03,49.64 135.51,49.64 139.66,45.97 139.7,46 136.03,50.15 135.77,50.45 
			135.51,50.15 		"/>
	</g>
	<g>
		<rect x="3.46" y="41.42" class="st430" width="21.68" height="41.87"/>
		<rect x="5.85" y="45" class="st3" width="17.64" height="6.43"/>
		<rect x="5.85" y="55.62" class="st3" width="17.64" height="6.43"/>
		<path class="st430" d="M4.17,42.16c-0.19,0-0.34-0.15-0.34-0.34v-2.8c0-0.19,0.15-0.34,0.34-0.34h20.97
			c0.19,0,0.34,0.15,0.34,0.34c0,0.19-0.15,0.34-0.34,0.34H4.5v2.47C4.5,42.01,4.35,42.16,4.17,42.16z"/>
		<path class="st430" d="M5.89,42.46c-0.19,0-0.34-0.15-0.34-0.34v-3.1c0-0.19,0.15-0.34,0.34-0.34c0.19,0,0.34,0.15,0.34,0.34v3.1
			C6.22,42.31,6.07,42.46,5.89,42.46z"/>
		<path class="st430" d="M7.94,42.39c-0.19,0-0.34-0.15-0.34-0.34v-2.88c0-0.19,0.15-0.34,0.34-0.34c0.19,0,0.34,0.15,0.34,0.34
			v2.88C8.28,42.24,8.13,42.39,7.94,42.39z"/>
		<path class="st430" d="M10.07,42.5c-0.19,0-0.34-0.15-0.34-0.34v-2.99c0-0.19,0.15-0.34,0.34-0.34c0.19,0,0.34,0.15,0.34,0.34
			v2.99C10.41,42.35,10.26,42.5,10.07,42.5z"/>
		<path class="st430" d="M12.5,42.46c-0.19,0-0.34-0.15-0.34-0.34v-2.99c0-0.19,0.15-0.34,0.34-0.34c0.19,0,0.34,0.15,0.34,0.34
			v2.99C12.84,42.31,12.69,42.46,12.5,42.46z"/>
		<path class="st430" d="M14.48,42.24c-0.19,0-0.34-0.15-0.34-0.34v-2.62c0-0.19,0.15-0.34,0.34-0.34c0.19,0,0.34,0.15,0.34,0.34
			v2.62C14.82,42.09,14.67,42.24,14.48,42.24z"/>
		<path class="st430" d="M16.43,42.39c-0.19,0-0.34-0.15-0.34-0.34v-2.84c0-0.19,0.15-0.34,0.34-0.34c0.19,0,0.34,0.15,0.34,0.34
			v2.84C16.76,42.24,16.61,42.39,16.43,42.39z"/>
		<path class="st430" d="M18.97,42.31c-0.19,0-0.34-0.15-0.34-0.34v-2.84c0-0.19,0.15-0.34,0.34-0.34c0.19,0,0.34,0.15,0.34,0.34
			v2.84C19.3,42.16,19.15,42.31,18.97,42.31z"/>
		<path class="st430" d="M20.87,42.24c-0.19,0-0.34-0.15-0.34-0.34v-2.54c0-0.19,0.15-0.34,0.34-0.34c0.19,0,0.34,0.15,0.34,0.34
			v2.54C21.21,42.09,21.06,42.24,20.87,42.24z"/>
		<path class="st430" d="M23.27,42.16c-0.19,0-0.34-0.15-0.34-0.34v-2.54c0-0.19,0.15-0.34,0.34-0.34c0.19,0,0.34,0.15,0.34,0.34
			v2.54C23.6,42.01,23.45,42.16,23.27,42.16z"/>
	</g>
	<g>
		<rect x="24.99" y="28.41" class="st430" width="21.68" height="54.87"/>
		<g>
			<g>
				<rect x="26.56" y="30.65" class="st3" width="5.31" height="5.31"/>
				<rect x="33.07" y="30.65" class="st3" width="5.31" height="5.31"/>
				<rect x="39.42" y="30.65" class="st3" width="5.31" height="5.31"/>
			</g>
			<g>
				<rect x="26.56" y="37.08" class="st3" width="5.31" height="5.31"/>
				<rect x="33.07" y="37.08" class="st3" width="5.31" height="5.31"/>
				<rect x="39.42" y="37.08" class="st3" width="5.31" height="5.31"/>
			</g>
			<g>
				<rect x="26.56" y="43.43" class="st3" width="5.31" height="5.31"/>
				<rect x="33.07" y="43.43" class="st3" width="5.31" height="5.31"/>
				<rect x="39.42" y="43.43" class="st3" width="5.31" height="5.31"/>
			</g>
			<g>
				<rect x="26.56" y="49.86" class="st3" width="5.31" height="5.31"/>
				<rect x="33.07" y="49.86" class="st3" width="5.31" height="5.31"/>
				<rect x="39.42" y="49.86" class="st3" width="5.31" height="5.31"/>
			</g>
			<g>
				<rect x="26.56" y="56.29" class="st3" width="5.31" height="5.31"/>
				<rect x="33.07" y="56.29" class="st3" width="5.31" height="5.31"/>
				<rect x="39.42" y="56.29" class="st3" width="5.31" height="5.31"/>
			</g>
			<g>
				<rect x="26.56" y="62.65" class="st3" width="5.31" height="5.31"/>
				<rect x="33.07" y="62.65" class="st3" width="5.31" height="5.31"/>
				<rect x="39.42" y="62.65" class="st3" width="5.31" height="5.31"/>
			</g>
		</g>
	</g>
	<g>
		<g>
			<g>
				<path class="st236" d="M134.59,83.49v7.09H27.39v-9.6h106.5C134.22,81.77,134.46,82.61,134.59,83.49z"/>
				<path class="st236" d="M60.93,81.38c0,3.4-1.01,6.56-2.75,9.21H30.14c-1.74-2.64-2.75-5.81-2.75-9.21c0-0.13,0-0.26,0-0.39
					C27.6,71.9,35.03,64.6,44.16,64.6c9.13,0,16.56,7.3,16.77,16.38C60.93,81.11,60.93,81.24,60.93,81.38z"/>
				<path class="st236" d="M84.65,82.45c0,3-0.89,5.8-2.43,8.14H57.43C55.89,88.25,55,85.45,55,82.45c0-0.12,0-0.23,0-0.35
					c0.18-8.03,6.75-14.48,14.82-14.48c8.07,0,14.64,6.45,14.82,14.48C84.64,82.21,84.65,82.33,84.65,82.45z"/>
				<path class="st236" d="M121.39,82.98c0,2.81-0.84,5.42-2.27,7.6H95.96c-1.44-2.18-2.27-4.8-2.27-7.6c0-0.11,0-0.22,0-0.32
					c0.17-7.5,6.31-13.53,13.85-13.53c7.54,0,13.68,6.03,13.85,13.53C121.39,82.76,121.39,82.87,121.39,82.98z"/>
				<path class="st236" d="M134.69,84.97c0,0.5-0.04,0.99-0.11,1.47c-0.22,1.51-0.77,2.92-1.57,4.14h-17.1
					c-1.06-1.61-1.68-3.54-1.68-5.61c0-0.08,0-0.16,0-0.24c0.03-1.33,0.31-2.59,0.8-3.75c1.55-3.67,5.19-6.24,9.42-6.24
					c4.23,0,7.87,2.57,9.42,6.24c0.33,0.79,0.57,1.63,0.7,2.51c0.06,0.4,0.09,0.82,0.1,1.24C134.69,84.81,134.69,84.89,134.69,84.97
					z"/>
				<path class="st236" d="M98.92,84.97c0,0.5-0.04,0.99-0.11,1.47c-0.22,1.51-0.77,2.92-1.57,4.14h-17.1
					c-1.06-1.61-1.68-3.54-1.68-5.61c0-0.08,0-0.16,0-0.24c0.03-1.33,0.31-2.59,0.8-3.75c1.55-3.67,5.19-6.24,9.42-6.24
					c4.23,0,7.87,2.57,9.42,6.24c0.33,0.79,0.57,1.63,0.7,2.51c0.06,0.4,0.09,0.82,0.1,1.24C98.92,84.81,98.92,84.89,98.92,84.97z"
					/>
			</g>
			<g>
				<path class="st236" d="M53.48,87.04v3.54H0v-4.79h53.13c0.08,0.19,0.15,0.38,0.21,0.58c0.04,0.15,0.08,0.3,0.11,0.45
					C53.46,86.9,53.47,86.97,53.48,87.04z"/>
				<path class="st236" d="M16.74,85.99c0,0.13,0,0.26-0.01,0.39c0,0.15-0.02,0.3-0.03,0.45c-0.04,0.41-0.11,0.81-0.21,1.2
					c-0.08,0.31-0.17,0.61-0.28,0.9c-0.22,0.59-0.5,1.14-0.84,1.66H1.37c-0.34-0.52-0.62-1.07-0.84-1.66
					c-0.11-0.29-0.2-0.59-0.28-0.9c-0.1-0.39-0.17-0.79-0.21-1.2c-0.02-0.15-0.03-0.3-0.03-0.45C0,86.25,0,86.12,0,85.99
					c0-0.07,0-0.13,0-0.2c0.01-0.4,0.05-0.8,0.11-1.19c0.01-0.07,0.02-0.15,0.04-0.22c0.75-3.86,4.14-6.76,8.21-6.76
					c1.83,0,3.53,0.59,4.91,1.59c1.68,1.22,2.9,3.05,3.31,5.17c0.02,0.07,0.03,0.15,0.04,0.22c0.07,0.39,0.1,0.78,0.11,1.19
					C16.74,85.86,16.74,85.92,16.74,85.99z"/>
				<path class="st236" d="M33.97,84.53c0,2.24-0.67,4.32-1.81,6.05H13.72c-1.14-1.74-1.81-3.82-1.81-6.05c0-0.09,0-0.17,0-0.26
					c0.14-5.97,5.02-10.78,11.03-10.78c6.01,0,10.89,4.8,11.03,10.78C33.97,84.36,33.97,84.44,33.97,84.53z"/>
				<path class="st236" d="M46.9,86.79c0,1.4-0.42,2.7-1.13,3.79H34.21c-0.72-1.09-1.13-2.39-1.13-3.79c0-0.05,0-0.11,0-0.16
					c0.09-3.74,3.15-6.75,6.91-6.75s6.82,3.01,6.91,6.75C46.9,86.68,46.9,86.74,46.9,86.79z"/>
				<path class="st236" d="M53.53,87.78c0,0.25-0.02,0.49-0.05,0.73c-0.11,0.75-0.38,1.46-0.78,2.07h-8.53
					c-0.53-0.8-0.84-1.77-0.84-2.8c0-0.04,0-0.08,0-0.12c0.02-0.66,0.16-1.29,0.4-1.87c0.78-1.83,2.59-3.11,4.7-3.11
					c2.11,0,3.92,1.28,4.7,3.11c0.17,0.39,0.29,0.81,0.35,1.25c0.03,0.2,0.05,0.41,0.05,0.62C53.53,87.7,53.53,87.74,53.53,87.78z"
					/>
			</g>
			<g>
				<path class="st236" d="M150.2,85.79v4.79H96.72v-3.54c0.01-0.07,0.02-0.15,0.04-0.22c0.03-0.15,0.06-0.3,0.1-0.45
					c0.06-0.2,0.13-0.39,0.21-0.58H150.2z"/>
				<path class="st236" d="M150.2,85.99c0,0.13,0,0.26-0.01,0.39c0,0.15-0.02,0.3-0.03,0.45c-0.04,0.41-0.11,0.81-0.21,1.2
					c-0.08,0.31-0.17,0.61-0.28,0.9c-0.22,0.59-0.5,1.14-0.84,1.66h-13.99c-0.09-0.13-0.17-0.27-0.25-0.4
					c-0.23-0.4-0.43-0.82-0.59-1.25c-0.02-0.04-0.03-0.08-0.04-0.12c-0.09-0.25-0.17-0.51-0.24-0.78c-0.1-0.39-0.17-0.79-0.21-1.2
					c-0.02-0.15-0.03-0.3-0.03-0.45c-0.01-0.13-0.01-0.26-0.01-0.39c0-0.07,0-0.13,0-0.2c0.01-0.4,0.05-0.8,0.11-1.19
					c0.01-0.07,0.02-0.15,0.04-0.22c0.14-0.74,0.39-1.45,0.72-2.11c0.61-1.22,1.5-2.27,2.59-3.06c1.38-1,3.07-1.59,4.9-1.59
					c4.07,0,7.47,2.91,8.21,6.76c0.02,0.07,0.03,0.15,0.04,0.22c0.07,0.39,0.1,0.78,0.11,1.19C150.2,85.86,150.2,85.92,150.2,85.99z
					"/>
				<path class="st236" d="M116.23,84.53c0,2.24,0.67,4.32,1.81,6.05h18.45c1.14-1.74,1.81-3.82,1.81-6.05c0-0.09,0-0.17,0-0.26
					c-0.14-5.97-5.02-10.78-11.03-10.78c-6.01,0-10.89,4.8-11.03,10.78C116.23,84.36,116.23,84.44,116.23,84.53z"/>
				<path class="st236" d="M103.3,86.79c0,1.4,0.42,2.7,1.13,3.79h11.55c0.72-1.09,1.13-2.39,1.13-3.79c0-0.05,0-0.11,0-0.16
					c-0.09-3.74-3.15-6.75-6.91-6.75c-3.76,0-6.82,3.01-6.91,6.75C103.31,86.68,103.3,86.74,103.3,86.79z"/>
				<path class="st236" d="M96.67,87.78c0,0.25,0.02,0.49,0.05,0.73c0.11,0.75,0.38,1.46,0.78,2.07h8.53
					c0.53-0.8,0.84-1.77,0.84-2.8c0-0.04,0-0.08,0-0.12c-0.02-0.66-0.16-1.29-0.4-1.87c-0.78-1.83-2.59-3.11-4.7-3.11
					c-2.11,0-3.92,1.28-4.7,3.11c-0.17,0.39-0.29,0.81-0.35,1.25c-0.03,0.2-0.05,0.41-0.05,0.62C96.67,87.7,96.67,87.74,96.67,87.78
					z"/>
			</g>
		</g>
		<g>
			<rect y="88.03" class="st432" width="150.2" height="0.9"/>
		</g>
		<g>
			<rect y="86.38" class="st433" width="150.2" height="0.45"/>
		</g>
	</g>
	<g>
		<polygon class="st434" points="126.9,19.92 125.77,18.18 123.89,17.34 125.62,16.21 126.47,14.32 127.6,16.06 129.48,16.91 
			127.75,18.03 		"/>
		<polygon class="st434" points="133.9,8.91 134.51,10.03 135.63,10.64 134.51,11.24 133.9,12.36 133.3,11.24 132.18,10.64 
			133.3,10.03 		"/>
		<polygon class="st434" points="138.23,17.24 139.47,19.5 141.73,20.74 139.47,21.98 138.23,24.24 136.99,21.98 134.73,20.74 
			136.99,19.5 		"/>
	</g>
	<g>
		<g>
			<g>
				<path class="st431" d="M64.81,85.52c-0.01-0.06-0.01-0.12,0-0.18l0.02-0.08c0.01-0.05,0.02-0.11,0.03-0.15l0.07-0.29l0.14-0.58
					l0.29-1.14l0.6-2.28l1.23-4.55l2.5-9.1l0,0l0.01-0.04c0.13-0.39,0.55-0.6,0.94-0.47c0.25,0.08,0.42,0.29,0.48,0.52l4.51,17.94
					c0.03,0.12-0.04,0.24-0.16,0.27c-0.12,0.03-0.23-0.04-0.27-0.15l-5.53-17.65l1.44,0.02l0,0l-3,8.94l-1.48,4.48l-0.73,2.24
					l-0.35,1.12l-0.17,0.56l-0.08,0.28c-0.01,0.05-0.02,0.09-0.04,0.13l-0.02,0.06c0-0.01,0-0.03-0.02-0.03
					c0.04,0.12-0.03,0.24-0.14,0.28C64.98,85.7,64.85,85.64,64.81,85.52z"/>
				<path class="st431" d="M65.02,77.17c0.86-0.17,1.72-0.26,2.58-0.32c0.86-0.06,1.72-0.08,2.58-0.08
					c0.86,0.01,1.72,0.03,2.58,0.09c0.86,0.06,1.72,0.14,2.58,0.3c0,0,0,0,0,0c0,0,0,0,0,0c-0.86,0.16-1.72,0.24-2.58,0.3
					c-0.86,0.06-1.72,0.09-2.58,0.09c-0.86,0-1.72-0.01-2.58-0.08C66.74,77.43,65.88,77.35,65.02,77.17z"/>
			</g>
			<path class="st435" d="M75.71,67.62H65.22c-0.65,0-1.18-0.53-1.18-1.18l0,0c0-0.65,0.53-1.18,1.18-1.18h10.49
				c0.65,0,1.18,0.53,1.18,1.18l0,0C76.9,67.09,76.37,67.62,75.71,67.62z"/>
		</g>
		<g>
			<g>
				<path class="st436" d="M69.12,41.88c2-0.49,3.89-1.33,5.55-2.47c0.33-0.23,0.67-0.48,0.86-0.82c0.19-0.34,0.2-0.81-0.08-1.1
					c-0.29-0.3-0.76-0.34-1.19-0.34c-3.47,0.01-6.87,1.52-9.03,4.02c-0.09,0.1-0.17,0.21-0.19,0.33c-0.05,0.34,0.39,0.56,0.75,0.63
					c1.06,0.23,2.17,0.22,3.21-0.02"/>
			</g>
			<path class="st5" d="M73.92,44.19c0.73-0.08,6.71,9.94,6.71,9.94l5.08-4.93l1.35,1.05c0,0-2.84,6.88-5.98,7.78
				c-3.14,0.9-7.63-6.13-7.63-6.13L73.92,44.19z"/>
			<g>
				<path class="st437" d="M71.32,37.47c0.67,0.07,1.38,0.73,1.63,1.34c0.25,0.62,0.43,1.28,0.84,1.81c0.21,0.27,0.48,0.52,0.6,0.84
					c0.21,0.57-0.16,1.26-0.74,1.46c-0.58,0.2-1.27-0.07-1.61-0.58c-0.81,0.74-2.2,0.74-3.01,0c-0.21,0.34-0.61,0.55-1.01,0.54
					c-0.4-0.01-0.79-0.25-0.98-0.6c0.08,0.17-0.13,0.36-0.32,0.32c-0.19-0.04-0.3-0.22-0.36-0.4c-0.09-0.3-0.03-0.64,0.15-0.91
					c0.18-0.26,0.46-0.43,0.65-0.68c0.31-0.4,0.34-0.94,0.47-1.43c0.13-0.5,0.37-0.99,0.77-1.33c0.4-0.34,0.96-0.51,1.47-0.36
					l0.22,0.12C70.07,37.62,69.79,37.31,71.32,37.47z"/>
			</g>
			<path class="st438" d="M86.24,70.65c-0.27,0.73-0.84,1.81-1.55,3.04c-2.4,4.14-6.45,9.97-6.45,9.97l-1.79-0.17l-0.04,0
				c0,0-0.01-0.01-0.01-0.01c0,0,0,0,0,0c-0.11-0.1-0.24-0.19-0.39-0.25l3.54-11.06l0.48-1.51c0,0-12.34-5.46-13.46-8.15
				c-1.12-2.69,1.75-5.86,1.75-5.86l7.07,0.85C75.4,57.49,87.43,67.43,86.24,70.65z"/>
			<path class="st439" d="M78.16,69.37c-0.07,0.78-0.35,2.34-0.72,4.14c-0.86,4.27-2.19,9.91-2.19,9.91h-1.88l-1.59-9.44l-0.43-2.52
				L65.08,61.3l8.22-2.17C73.3,59.13,78.39,66.76,78.16,69.37z"/>
			<g>
				<path class="st440" d="M64.77,49.18c0,0.3,0,0.6,0.01,0.91c0.01,0.18,0.01,0.37,0.02,0.56c0.01,0.2,0.02,0.41,0.03,0.62
					c0,0.08,0.01,0.16,0.02,0.25v0c0,0.07,0.01,0.13,0.02,0.2v0.02c0.01,0.17,0.02,0.35,0.04,0.53c0.01,0.18,0.03,0.37,0.04,0.56
					c0.02,0.22,0.04,0.43,0.06,0.65c0.01,0.15,0.03,0.3,0.04,0.46v0c0,0,0,0.01,0,0.02c0.01,0.06,0.01,0.13,0.02,0.19
					c0,0.06,0.01,0.12,0.02,0.18c0.02,0.15,0.03,0.3,0.05,0.46v0.01c0.05,0.45,0.1,0.91,0.14,1.36c0.02,0.15,0.03,0.31,0.05,0.46
					c0.02,0.17,0.04,0.35,0.06,0.52c0.01,0.06,0.01,0.13,0.02,0.19c0.02,0.21,0.04,0.43,0.06,0.64c0.02,0.15,0.03,0.31,0.04,0.46
					c0.03,0.31,0.06,0.62,0.08,0.93c0.01,0.09,0.02,0.17,0.02,0.26l0.72-0.09h0l1.79-0.22h0l0.2-0.02l1.01-0.12l1.77-0.22h0
					l0.19-0.02l1.77-0.22l0.14-0.02l1.65-0.2l0.12-0.02l0.09-0.01l1.79-0.22c-0.08-0.43-0.16-0.87-0.24-1.31
					c-0.01-0.08-0.03-0.17-0.04-0.25c0,0,0,0,0-0.01c-0.01-0.07-0.02-0.13-0.04-0.2c-0.08-0.42-0.15-0.85-0.23-1.27
					c-0.03-0.15-0.06-0.31-0.08-0.46c-0.05-0.29-0.11-0.59-0.16-0.88c-0.01-0.06-0.02-0.11-0.03-0.17v0
					c-0.05-0.27-0.1-0.54-0.16-0.81c-0.02-0.1-0.03-0.19-0.05-0.29c0-0.02-0.01-0.04-0.01-0.05c-0.02-0.12-0.05-0.24-0.07-0.35
					c-0.01-0.04-0.02-0.07-0.02-0.11l-0.01-0.04c0-0.01,0-0.02-0.01-0.03c-0.08-0.39-0.16-0.76-0.24-1.14
					c-0.03-0.16-0.07-0.31-0.1-0.46c0,0,0,0,0,0c0,0,0,0,0,0c0-0.02-0.01-0.05-0.01-0.07c-0.01-0.03-0.01-0.06-0.02-0.1
					c0.18-0.11,0.34-0.23,0.49-0.37c0,0,0,0,0.01,0c0.15-0.14,0.29-0.3,0.4-0.48c0.06-0.09,0.11-0.18,0.16-0.27
					c0.03-0.06,0.06-0.13,0.05-0.19v-0.01c-0.02-0.09-0.09-0.14-0.15-0.2c-0.19-0.16-0.35-0.35-0.49-0.57
					c-0.08-0.12-0.15-0.25-0.21-0.38c-0.02-0.04-0.05-0.09-0.06-0.14l0,0c-0.13-0.29-0.24-0.6-0.35-0.9
					c-0.06-0.15-0.12-0.31-0.18-0.46c-0.02-0.05-0.04-0.09-0.06-0.14c-0.09-0.23-0.2-0.46-0.3-0.68c-0.09-0.19-0.18-0.37-0.28-0.54
					c-0.13-0.24-0.28-0.48-0.44-0.71c-0.03-0.04-0.05-0.08-0.08-0.12c-0.18-0.24-0.36-0.47-0.57-0.69
					c-0.08-0.03-0.16-0.05-0.24-0.08c-0.18-0.05-0.36-0.1-0.54-0.14h0c-1.26-0.27-2.5-0.19-3.88,0.07c-0.25,0.05-0.48,0.11-0.7,0.17
					c-0.02,0.01-0.03,0.01-0.05,0.02c-1.01,0.33-1.73,0.91-2.35,1.73c0,0.01-0.01,0.01-0.01,0.02c-0.01,0.02-0.03,0.04-0.04,0.06
					c-0.08,0.11-0.15,0.22-0.23,0.34c0,0,0,0,0,0c-0.02,0.08-0.04,0.15-0.07,0.24c-0.08,0.29-0.14,0.6-0.19,0.93
					c-0.03,0.15-0.04,0.31-0.06,0.47c-0.02,0.18-0.04,0.37-0.05,0.57l0,0.01c-0.01,0.13-0.02,0.26-0.02,0.39
					c-0.01,0.18-0.02,0.36-0.02,0.54v0.02C64.78,48.89,64.78,49.04,64.77,49.18z"/>
			</g>
			<path class="st440" d="M65.39,57.16c0,0-4.94,7.51-0.38,8.1c4.56,0.6,14.43-4.26,14.2-4.19c-0.22,0.07-2.62-5.01-2.62-5.01H65.33
				"/>
			<path class="st440" d="M66.2,63.27c-0.07,0.2-2.09,6.55-2.02,6.76c0.07,0.2,3.74,3.89,8.52,2.46c4.78-1.43,6.8-3.55,9.05-4.3
				c2.24-0.75,5.61-0.2,5.61-0.2l-9.79-9.89L66.2,63.27z"/>
			<polygon class="st3" points="72.73,43.52 72.87,45.72 70.84,44.44 68.81,45.94 68.24,43.47 			"/>
			<path class="st3" d="M77.44,73.52c-0.06,0.3-0.12,0.61-0.19,0.92c-0.03,0.15-0.06,0.3-0.09,0.45c-0.04,0.2-0.08,0.4-0.13,0.6
				c-0.03,0.15-0.07,0.3-0.1,0.45c-0.79,3.71-1.68,7.49-1.68,7.49h-1.88l-1.22-7.22l-0.08-0.44l-0.1-0.61l-0.07-0.45l-0.12-0.71
				L77.44,73.52z"/>
			<path class="st430" d="M84.69,73.69c-0.13,0.23-0.27,0.46-0.41,0.7c-0.08,0.13-0.16,0.26-0.24,0.39
				c-0.11,0.19-0.22,0.37-0.34,0.56c-0.08,0.13-0.16,0.27-0.25,0.4c-2.34,3.78-5.21,7.91-5.21,7.91l-1.79-0.17
				c-0.02,0-0.04-0.01-0.05-0.02c0,0,0,0,0,0c-0.11-0.1-0.24-0.19-0.39-0.25l2.77-8.64l0.14-0.43l0.24-0.74l0.14-0.43l0.26-0.81
				L84.69,73.69z"/>
			<path class="st439" d="M69.46,43.04l0.03-0.75c-0.02-0.01-0.04-0.02-0.06-0.03c0.45,0.02,0.9,0.08,1.35,0.09
				c0.12,0,0.26,0,0.39-0.02l0.01,0.06l0.06,0.57l0.01,0.09l0.02,0.24l-1.82-0.03l0.01-0.16L69.46,43.04z"/>
			<path class="st439" d="M71.62,43.03L71.62,43.03c0,0,0.01,0.01,0.04,0.02l0-0.01C71.65,43.03,71.64,43.03,71.62,43.03z"/>
			<path class="st439" d="M67.91,43.41c1.59,1.08,3.16,1.5,4.77,0.2c0.11-0.09,0.23-0.19,0.35-0.3c-0.46-0.14-0.91-0.22-1.36-0.27
				c-0.01,0-0.03-0.01-0.04-0.01v0c0,0,0.01,0,0.04,0.02l-1.79,0c-0.41,0.04-0.84,0.11-1.27,0.19
				C68.36,43.28,68.13,43.34,67.91,43.41z"/>
			<g>
				<path class="st439" d="M68.51,41.28c0.04,0.22,0.15,0.46,0.34,0.68c0.18,0.19,0.41,0.37,0.73,0.47
					c0.61,0.13,1.16,0.12,1.54-0.02c0.3-0.12,0.52-0.3,0.67-0.49c0.17-0.22,0.26-0.45,0.28-0.62c0.03-0.24,0.03-0.54,0.04-0.9
					c0.02-1.07-0.77-1.94-1.78-1.95c-1.01-0.01-1.85,0.84-1.88,1.91C68.43,40.35,68.43,40.74,68.51,41.28z"/>
				<path class="st439" d="M68.78,40.6c-0.02,0-0.48-0.5-0.7,0.06c-0.22,0.57,0.27,1.05,0.77,0.85"/>
				<path class="st439" d="M71.92,40.5c0.02,0,0.48-0.5,0.7,0.06c0.22,0.57-0.27,1.05-0.77,0.85"/>
				<path class="st437" d="M68.92,40.4c-0.03,0-0.05-0.01-0.07-0.04c-0.03-0.04-0.01-0.09,0.03-0.12c0.24-0.16,0.55-0.21,0.91-0.15
					c0.05,0,0.09,0.04,0.09,0.09c0,0.05-0.03,0.09-0.08,0.09c-0.01,0-0.02,0-0.04,0c-0.32-0.05-0.59,0-0.8,0.13
					C68.95,40.39,68.93,40.4,68.92,40.4z"/>
				<path class="st437" d="M70.82,40.28c-0.03,0-0.06-0.01-0.07-0.04c-0.02-0.04-0.01-0.09,0.03-0.12c0.39-0.23,0.8-0.02,0.81-0.01
					c0.04,0.02,0.06,0.07,0.04,0.11c-0.02,0.04-0.07,0.06-0.11,0.04c0,0-0.35-0.18-0.65,0.01C70.85,40.28,70.84,40.28,70.82,40.28z"
					/>
			</g>
			<path class="st229" d="M76.02,58.71c-0.23-3.72-0.46-6.8-0.66-8.36c-0.76-6.14-2.78-6.99-2.78-6.99l-0.48-0.26
				c0,0,0.7-0.03,1.85,0.49c1.15,0.52,1.61,1.63,3.75,9.73c0.33,1.24,0.63,2.81,0.91,4.58C77.78,58.25,76.91,58.52,76.02,58.71z"/>
			<path class="st5" d="M68.65,58.86c-1.29-0.18-2.56-0.47-3.8-0.86c-0.63-0.2-1.21-0.44-1.78-0.71l1.41-9.92
				c0.33-2.11,1.34-3.94,3.37-3.93c0.38,0.04,1.75,0.67,1.57,4.77C69.37,49.47,69.05,53.68,68.65,58.86z"/>
			<g>
				<g>
					<path class="st441" d="M71.01,46.23c1.29,0,1.29-2,0-2C69.72,44.23,69.72,46.23,71.01,46.23L71.01,46.23z"/>
				</g>
			</g>
			<g>
				<g>
					<path class="st441" d="M71.05,47.2c1.29,0,1.29-2,0-2C69.76,45.2,69.76,47.2,71.05,47.2L71.05,47.2z"/>
				</g>
			</g>
			<g>
				<g>
					<path class="st437" d="M71.19,41.57c0.97,0,0.97-1.5,0-1.5C70.23,40.07,70.23,41.57,71.19,41.57L71.19,41.57z"/>
				</g>
			</g>
			<g>
				<g>
					<path class="st437" d="M69.5,41.6c0.97,0,0.97-1.5,0-1.5C68.54,40.1,68.53,41.6,69.5,41.6L69.5,41.6z"/>
				</g>
			</g>
			<path class="st437" d="M78.59,83.23l0.01-0.04c-0.14,0.1-2.17,0.08-2.52-0.27c-0.47,0.84-0.75,1.59-0.27,1.98
				c0,0,6.15,0.32,6.05-0.12C81.77,84.36,78.88,83.33,78.59,83.23z"/>
			<path class="st437" d="M73.38,83.43c0,0-0.37,1.63-0.54,2.24c-0.17,0.62-0.5,1.46,0.95,1.46s2.41-0.3,2.24-1.18
				c-0.17-0.88-0.73-2.75-0.73-2.75L73.38,83.43z"/>
			<g>
				<g>
					<g>
						<path class="st229" d="M72.92,56.88c0.63-0.26,1.27-0.51,1.92-0.73c0.38,0.7,0.75,1.4,1.13,2.1c-0.5-0.03-1-0.04-1.5-0.02
							c-0.01-0.16-0.15-0.27-0.29-0.29c-0.14-0.03-0.28,0.01-0.42,0.03c-0.38,0.05-0.76-0.03-1.1-0.22"/>
					</g>
					<path class="st229" d="M74.46,56.77c0.08-0.03,1.18-0.53,1.18-0.53l1.4,1.68c0,0-0.39,0.14-0.62-0.14
						c-0.22-0.28-0.84-0.95-0.84-0.95l-0.71,0.45L74.46,56.77z"/>
				</g>
				<path class="st229" d="M67.57,54.26l0.56-9.36c-0.84-1.37-2.14-1.24-2.79,0.3c-0.65,1.54-2.43,7.67-2.43,8.28
					c0,0.61-0.51,2.52,1.4,3.03c1.19,0.8,8.93,2.07,8.93,2.07s0.03-1.53,0.12-2.01C72.01,56.01,69.4,54.95,67.57,54.26z"/>
			</g>
			<g>
				<path class="st437" d="M68.96,38.63c0.28,0.69,0.7,1.39,1.39,1.67c0.09,0.04,0.21,0.06,0.28-0.02c0.04-0.05,0.04-0.12,0.03-0.18
					c-0.06-0.25-0.35-0.39-0.39-0.64c0.25,0.42,0.69,0.71,1.17,0.78c0.09,0.01,0.18,0.02,0.26-0.04c0.07-0.05,0.09-0.18,0.02-0.22
					c0.24,0.1,0.49,0.21,0.73,0.31c0.13,0.06,0.3,0.1,0.4,0c0.06-0.07,0.05-0.18,0.04-0.27c-0.07-0.34-0.25-0.65-0.44-0.94
					c-0.15-0.24-0.31-0.48-0.54-0.64c-0.32-0.21-0.73-0.23-1.11-0.24c-0.53-0.02-1.09-0.03-1.57,0.2"/>
			</g>
			<path class="st437" d="M68.31,40.2c0,0,0.11,1.01,0.28,1.05s-0.07-1.25-0.07-1.25s0.69-0.28,0.69-1.12
				c0-0.84-0.71-0.39-0.71-0.39L68.31,40.2z"/>
			<path class="st437" d="M71.94,39.66c0,0.06-0.13,1.4,0.02,1.48c0.15,0.07,0.37-0.82,0.37-1.12
				C72.33,39.71,71.94,39.66,71.94,39.66z"/>
			<path class="st442" d="M70.2,41.64c-0.02,0-0.04-0.01-0.05-0.04c-0.01-0.03,0-0.06,0.03-0.07l0.53-0.2
				c-0.12-0.18-0.42-0.69-0.01-1.15c0.02-0.02,0.06-0.02,0.08,0c0.02,0.02,0.03,0.06,0,0.08c-0.44,0.49,0.04,1.04,0.06,1.06
				c0.01,0.01,0.02,0.03,0.01,0.05c0,0.02-0.02,0.03-0.03,0.04l-0.6,0.22C70.21,41.64,70.21,41.64,70.2,41.64z"/>
			<path class="st442" d="M70.24,41.99c-0.14,0-0.21-0.03-0.24-0.04c-0.03-0.01-0.05-0.04-0.04-0.07c0.01-0.03,0.04-0.05,0.07-0.04
				c0.01,0,0.01,0.01,0.02,0.01c0.04,0.02,0.16,0.07,0.57-0.01c0.03-0.01,0.06,0.01,0.07,0.04c0.01,0.03-0.01,0.06-0.04,0.07
				C70.46,41.97,70.33,41.99,70.24,41.99z"/>
			<path class="st438" d="M71.24,42.95c-0.45,0.02-1.04-0.04-1.42-0.46l0.03-0.06c0,0,0.43,0.34,1.33-0.06L71.24,42.95z"/>
			<g>
				<path class="st443" d="M77.26,74.44c-0.03,0.15-0.06,0.3-0.09,0.45c-1.73,0.09-3.45,0.17-5.18,0.26l-0.07-0.45
					C73.69,74.61,75.47,74.52,77.26,74.44z"/>
			</g>
			<g>
				<path class="st444" d="M84.28,74.38c-0.08,0.13-0.16,0.26-0.24,0.39c-1.62-0.5-3.25-0.96-4.89-1.38l0.14-0.43
					C80.96,73.4,82.63,73.87,84.28,74.38z"/>
			</g>
			<g>
				<path class="st445" d="M77.04,75.49c-0.03,0.15-0.07,0.3-0.1,0.45c-1.59,0.09-3.18,0.17-4.78,0.26l-0.08-0.44
					C73.73,75.67,75.39,75.58,77.04,75.49z"/>
			</g>
			<g>
				<path class="st445" d="M83.7,75.34c-0.08,0.13-0.16,0.27-0.25,0.4c-1.57-0.37-3.12-0.76-4.68-1.17l0.14-0.43
					C80.5,74.56,82.1,74.96,83.7,75.34z"/>
			</g>
			<path class="st446" d="M75.34,37.44c-0.49-0.22-2.45-0.52-5.29,0.63c-2.84,1.15-4.84,3.09-4.84,3.09s0.79-1.95,3.98-3.37
				c3.19-1.42,5.45-0.74,5.63-0.71C75.01,37.11,75.34,37.44,75.34,37.44z"/>
			<path class="st446" d="M72.09,37.22c0,0-1.91-1.76-2.89-1.18c-0.98,0.58-1.88,0.68-2.1,1.36c-0.22,0.68-0.3,2.13-0.3,2.13
				s2.36-1.59,3.32-1.84C71.07,37.43,72.09,37.22,72.09,37.22z"/>
		</g>
	</g>
	<g>
		<g>
			<polygon class="st438" points="31.76,34.88 35.54,27.64 37.13,27.75 33.64,37.9 			"/>
			<path class="st447" d="M26.97,28.19c0.7,0.47,4.95,5.71,4.95,5.71l3.33-5.71c0.15,0.08,2.31,1.85,2.31,1.85l-3.92,7.86h0
				c-0.3,0.88-1.92,1.75-3.18,0.77c-0.5-0.25-5.93-6.68-5.93-6.68S25.96,27.51,26.97,28.19z"/>
			<g>
				<g>
					<g>
						<path class="st437" d="M35.96,26.95l0.13-2.32c0.01-0.22,0.21-0.38,0.43-0.35l1.57,0.26c0.11,0.02,0.19,0.12,0.18,0.24
							l-0.24,2.81c-0.02,0.22-0.22,0.37-0.44,0.33l-1.33-0.26c-0.17-0.03-0.3-0.19-0.3-0.36l0-0.34
							C35.96,26.97,35.96,26.96,35.96,26.95z"/>
						<polygon class="st3" points="36.33,27.39 36.37,24.57 38.04,24.77 37.76,27.63 						"/>
					</g>
					<path class="st438" d="M38.34,25.51c-0.06,0-1.31,0.04-1.29,0.34c0.02,0.3,1.22,0.09,1.39,0.04
						C38.62,25.85,38.68,25.5,38.34,25.51z"/>
					<path class="st438" d="M38.37,26c-0.06-0.01-1,0.03-1.05,0.22c-0.05,0.19,0.75,0.2,1.07,0.16C38.72,26.33,38.57,26.02,38.37,26
						z"/>
					<path class="st438" d="M38.25,26.44c0,0-0.76-0.1-0.79,0.05c-0.03,0.15,0.71,0.32,0.92,0.23
						C38.59,26.62,38.46,26.44,38.25,26.44z"/>
					<path class="st438" d="M38.19,26.81c0,0-0.64-0.09-0.67,0.04c-0.02,0.13,0.6,0.27,0.78,0.19
						C38.48,26.96,38.37,26.81,38.19,26.81z"/>
				</g>
				<path class="st438" d="M35.61,27.8c0,0-0.57-0.5-0.54-0.9s0.62-0.68,0.83-1.08c0.22-0.4,0.2-0.66,0.2-0.66s0.43,0.36,0.25,0.71
					c-0.19,0.36-0.45,0.73-0.45,0.73s0.65,0.39,0.46,1.07C36.19,28.33,35.61,27.8,35.61,27.8z"/>
			</g>
		</g>
		<path class="st436" d="M30.45,33.95l1.29,9.08c-1.09,0.46-1.83,0.42-2.47,0.22l0.17-6.56L30.45,33.95z"/>
		<path class="st448" d="M29.5,42.21l2.24-0.26l0.22,1.27c0,0-2.28,0.37-2.65,0.34C28.94,43.52,29.5,42.21,29.5,42.21z"/>
		<g>
			<path class="st448" d="M24.39,26.52c3.06,0.03,5.44,1.97,5.44,1.97l-0.96,2.08c-0.02,0.04,2.32,1.99,2.32,1.99
				s-1.18,4.27-1.44,5.82c-0.46-1.84-0.93-3.68-1.62-5.45c-0.69-1.77-1.6-3.47-2.87-4.87c-0.36-0.4-0.76-0.79-0.94-1.3"/>
		</g>
		<path class="st448" d="M28.55,32.1c0,0,1.07,3.11,1.18,6.17c0.11,3.06,0.28,5.13,0.28,5.13l-0.73-0.14l-1.4-10.12L28.55,32.1z"/>
		<polygon class="st439" points="28.69,39.72 32.5,83.03 30.08,83.44 18,41.19 		"/>
		<path class="st449" d="M19,44.96l3.69,14.14c0,0,0,0,0,0l0.09,0.36l0.74,2.85l0.08,0.32l0.85,3.25l0.08,0.3l0.89,3.43l0.08,0.31
			l1.04,3.98l0.08,0.31l0.72,2.74l0.08,0.31l0.63,2.43c0.16-0.02,0.31-0.04,0.47-0.06c0.56-0.21,1.16-0.31,1.78-0.38
			c0.03-0.01,0.06-0.02,0.09-0.03c0.07-0.02,0.12-0.02,0.17,0.01c0.73-0.06,1.48-0.08,2.18-0.15c-0.01-0.16-0.03-0.32-0.04-0.48
			c0-0.08,0-0.16,0-0.24c0.13-10.27-1.15-21.74-2.2-29.31c-0.46-3.31-0.88-5.88-1.11-7.27c-0.13-0.76-0.2-1.18-0.2-1.18l-1.38,0.69
			l-2.06,1.03l-0.15,0.08c0,0,0.06,0.43,0.15,1.19c0.06,0.48,0.15,1.1,0.24,1.83l-0.24-0.02L19,44.96z"/>
		<polygon class="st439" points="29.34,42.07 18.42,84.16 16.01,83.73 18.77,39.88 		"/>
		<g>
			<polygon class="st229" points="17.56,40.74 19.02,40.96 17.52,41.11 			"/>
			<path class="st229" d="M15.47,78.54l0.02-0.32l0.15-3.42l0.01-0.32l0.17-3.72l0.02-0.33l0.2-4.36l0.02-0.33l0.15-3.3l0.01-0.33
				l0.19-4.07l0.02-0.34l0.15-3.42l0.02-0.34l0.17-3.63l0.02-0.33l0.17-3.81l0.01-0.35l0.15-1.33c0.8,0.16,1.89,0.34,3.23,0.46
				l-2.57,34.55l0.22,0.02l3.92-34.47l0,0c1.32,0.04,2.67-0.04,3.82-0.15v5.51l1.77-0.52c0,0.04,0,0.07,0,0.11l-0.03,0.14
				c-1.75,10.5-4.13,20.74-7.65,30.51l-0.07,0.29l-0.09,0.38l-4.31-0.29L15.47,78.54z"/>
			<path class="st229" d="M21.35,45.06c0.19,0.01,0.39,0.02,0.58,0.03l-3.92,34.47l-0.22-0.02l2.57-34.55c0,0,0,0,0,0
				C20.68,45.01,21,45.03,21.35,45.06z"/>
			<path class="st229" d="M28.86,44.49l-0.11-1.74l0.75-0.31c0.24,1.48,0.61,3.76,1,6.59c-0.18,0.1-0.4,0.17-0.66,0.22l-1.43,0.42
				l-0.27,0.08l-0.61,0.18c-0.05-1.29-0.65-3.35-1.22-5.06C27.8,44.7,28.86,44.49,28.86,44.49z"/>
			<path class="st229" d="M25.75,44.93c0.19-0.02,0.37-0.04,0.55-0.06c0.58,1.71,1.17,3.76,1.22,5.06l-1.77,0.52V44.93z"/>
			<path class="st229" d="M21.93,45.08L21.93,45.08l0.23-2.02l-1.65-0.15l-0.15,2.08c-1.34-0.12-2.43-0.31-3.23-0.46l0.39-3.41
				l1.51-0.15l6.18,0.93c0,0,0.23,0.57,0.54,1.43v1.61C24.6,45.05,23.25,45.13,21.93,45.08z"/>
			<path class="st229" d="M22.16,43.06l-0.23,2.02c-0.19,0-0.39-0.01-0.58-0.03c-0.34-0.02-0.67-0.05-0.99-0.08c0,0,0,0,0,0
				l0.15-2.08L22.16,43.06z"/>
			<path class="st229" d="M28.86,44.49c0,0-1.06,0.21-2.57,0.38c-0.19-0.57-0.38-1.1-0.55-1.55v-2.42l1.85,0.33l0.2,0.04l0.08,0.02
				l1.4,0.25c0.03,0.07,0.07,0.15,0.1,0.22c0.04,0.2,0.07,0.43,0.11,0.69l-0.75,0.31L28.86,44.49z"/>
			<path class="st229" d="M25.75,44.93v-1.61c0.17,0.45,0.35,0.98,0.55,1.55C26.12,44.89,25.94,44.91,25.75,44.93z"/>
		</g>
		<g>
			<path class="st443" d="M30.17,84.23l2.7-0.87c0.34-0.01,3.77-0.09,4.04,0.3c0.28,0.41-6.28,2.55-6.28,2.55L30.17,84.23z"/>
			<polygon class="st3" points="29.82,82.78 32.7,82.39 32.87,83.36 30.17,84.23 			"/>
		</g>
		<g>
			<path class="st443" d="M15.82,84.51l2.84,0.09c0.33,0.11,3.59,1.18,3.71,1.64c0.13,0.48-6.77,0.3-6.77,0.3L15.82,84.51z"/>
			<polygon class="st3" points="15.98,83.02 18.82,83.62 18.66,84.6 15.82,84.51 			"/>
		</g>
		<path class="st3" d="M19.67,28.57c0.61-0.28,1.2-0.58,1.81-0.86c0.04-0.02,0.07-0.04,0.1-0.07c0.08-0.02,0.15-0.04,0.23-0.05
			c0.08-0.01,0.12-0.07,0.14-0.14c0.17-0.02,0.34-0.04,0.51-0.05c0.02,0,0.05,0,0.07,0c0.16,0.02,0.27,0.03,0.27,0.03l0.35-0.05
			c1.33,0,2.58,0.29,2.58,0.29c2.39,1.96,4.06,14.29,4.06,14.29s-2.05,0.32-3.08,0.39c-1.73,0.13-3.48,0.09-5.21,0.18
			c-1.41,0.07-2.85,0.06-3.72-1.06C18.36,36.76,19.16,30.68,19.67,28.57z"/>
		<path class="st436" d="M16.49,42.98c0,0,1.61-13.07,3.72-14.55l2,0.7c1.83-0.08,3.4,3.42,4.97,6.77c0.69,0.86,1.12,7.05,1.03,7.19
			C27.65,43.92,16.14,43.79,16.49,42.98z"/>
		<path class="st448" d="M20.25,41.21c1.69-0.94,3.22-2.1,4.57-3.49c0.2-0.21-0.12-0.52-0.32-0.32c-1.32,1.36-2.82,2.5-4.48,3.42
			C19.77,40.96,20,41.35,20.25,41.21L20.25,41.21z"/>
		<path class="st448" d="M20.79,30.57c-0.61,4.02-0.99,8.06-1.13,12.13c-0.01,0.29,0.44,0.29,0.45,0c0.14-4.02,0.51-8.03,1.12-12.01
			C21.27,30.4,20.83,30.28,20.79,30.57L20.79,30.57z"/>
		
			<rect x="14.87" y="79.09" transform="matrix(-0.9987 -0.0505 0.0505 -0.9987 31.5438 161.2561)" class="st450" width="5.87" height="2.28"/>
		
			<rect x="27.54" y="78.49" transform="matrix(-0.9854 0.1703 -0.1703 -0.9854 74.0713 152.9117)" class="st432" width="5.87" height="2.28"/>
		<path class="st439" d="M22.85,27.93c-0.13-0.22-0.29-0.42-0.5-0.57l0.37-0.05c1.05,0,2.02,0.13,3.01,0.37
			C24.87,28.09,23.87,28.11,22.85,27.93z"/>
		<g>
			<g>
				<g>
					<polygon class="st439" points="22.85,27.4 23.16,27.43 24.71,27.61 24.7,26.98 24.69,26.34 24.66,24.91 23.33,24.06 
						22.97,26.56 					"/>
					<path class="st439" d="M22.9,25.98c0.25,0.16,0.54,0.26,0.86,0.3c1.24,0.14,1.74,0.1,1.98-0.31c0.08-0.14,0.14-0.33,0.18-0.57
						c0.05-0.25,0.08-0.57,0.12-0.95c0.06-0.58-0.12-1.14-0.47-1.55h0c-0.07-0.09-0.15-0.17-0.24-0.24c0,0,0,0-0.01,0
						c-0.3-0.26-0.68-0.43-1.11-0.48c-0.38-0.04-0.75,0.02-1.08,0.17c-0.64,0.29-1.12,0.9-1.2,1.65
						C21.85,24.81,22.25,25.57,22.9,25.98z"/>
					<polyline class="st439" points="26,24.14 26.65,25.11 25.78,25.23 25.99,24.18 					"/>
					<path class="st439" d="M23.53,24.09c-0.02,0-0.49-0.62-0.8,0c-0.31,0.61,0.19,1.21,0.77,1.04"/>
					<path class="st437" d="M24.62,23.94c-0.03,0-0.06-0.01-0.07-0.04c-0.02-0.04-0.01-0.09,0.03-0.12
						c0.71-0.44,1.13-0.09,1.15-0.08c0.04,0.03,0.04,0.08,0.01,0.12c-0.03,0.04-0.08,0.04-0.12,0.01c-0.02-0.01-0.36-0.28-0.96,0.09
						C24.65,23.93,24.63,23.94,24.62,23.94z"/>
				</g>
			</g>
			<g>
				<path class="st437" d="M22.9,25.98c0.02,0.01,0.04,0.01,0.05,0.02c0.06-0.14,0.09-0.29,0.09-0.44c0-0.06,0-0.11-0.03-0.16
					c-0.03-0.05-0.09-0.08-0.14-0.11c-0.22-0.12-0.44-0.29-0.49-0.54c-0.05-0.25,0.12-0.52,0.36-0.59c0.24-0.07,0.53,0.07,0.63,0.3
					c0.05,0.13,0.05,0.29,0.12,0.42c0.07,0.13,0.26,0.21,0.35,0.1c-0.08-0.41-0.15-0.82-0.23-1.22c-0.01-0.05-0.02-0.1,0-0.15
					c0.02-0.05,0.08-0.08,0.13-0.1c0.17-0.07,0.35-0.1,0.54-0.09c0.1,0,0.21,0.02,0.31,0c0.1-0.02,0.2-0.1,0.21-0.2
					c0-0.07-0.03-0.15,0.02-0.2c0.03-0.04,0.08-0.04,0.12-0.05c0.22-0.03,0.43-0.04,0.65-0.04l-0.07-0.02c0.02,0,0.04,0,0.06-0.01h0
					c0.02,0,0.04,0,0.06-0.01c-0.09-0.09-0.19-0.17-0.3-0.23c0,0,0,0-0.01,0c-0.59-0.35-1.41-0.35-2.19-0.31
					c-0.64,0.29-1.12,0.9-1.2,1.65C21.85,24.81,22.25,25.57,22.9,25.98z"/>
			</g>
			<path class="st442" d="M25.63,25.7c-0.12,0-0.24-0.03-0.38-0.09c-0.04-0.02-0.06-0.07-0.05-0.11c0.02-0.04,0.07-0.06,0.11-0.05
				c0.21,0.09,0.38,0.1,0.53,0.03c0.04-0.02,0.09,0,0.11,0.04c0.02,0.04,0,0.09-0.04,0.11C25.83,25.68,25.73,25.7,25.63,25.7z"/>
			<path class="st437" d="M25.41,24.53C25.41,24.53,25.41,24.53,25.41,24.53c0.22,0,0.22-0.34,0-0.34c0,0,0,0,0,0
				C25.19,24.2,25.19,24.53,25.41,24.53L25.41,24.53z"/>
			<path class="st442" d="M22.89,25c-0.01,0-0.02,0-0.03-0.01c-0.12-0.05-0.32-0.23-0.2-0.52c0.05-0.13,0.13-0.17,0.19-0.18
				c0.17-0.03,0.33,0.13,0.35,0.15c0.03,0.03,0.03,0.09,0,0.12c-0.03,0.03-0.09,0.03-0.12,0c-0.04-0.04-0.13-0.11-0.2-0.1
				c-0.03,0-0.05,0.03-0.07,0.08c-0.09,0.21,0.09,0.29,0.11,0.3c0.04,0.02,0.06,0.07,0.04,0.11C22.95,24.98,22.92,25,22.89,25z"/>
		</g>
		<g>
			<g>
				<path class="st439" d="M26.13,38.61l4.64-8.93l1.29,0.46c0,0-1.44,10.1-3.95,11.77C27,41.98,26.13,38.61,26.13,38.61z"/>
				<path class="st448" d="M20.57,27.98c1.75-1.21,2.78,0.29,4.24,1.91c0.16,0.16,0.32,0.36,0.48,0.6c0.19,0.27,0.36,0.56,0.51,0.87
					c0.68,1.31,1.28,3.05,1.7,4.41c1.12-2.15,2.57-4.68,2.57-4.68l2.59,1.51c0,0-2.35,8.08-4.4,9.43c-0.58,0.15-1.06-0.19-1.24-0.3
					C25.28,40.69,17.93,29.71,20.57,27.98z"/>
			</g>
			<g>
				<path class="st439" d="M30.93,30.14c0,0-0.5-1.6-0.48-1.76c0.01-0.16,0.08-0.32,0.3-0.48c0.22-0.16,1.31-0.64,1.46-0.85
					c0.14-0.22,0.23,0.13-0.23,0.57c-0.46,0.45-0.96,0.52-0.91,0.76c0.02,0.05,1.02-0.46,1.1-0.3c0.09,0.16,0.32,0.65,0.03,0.91
					c-0.3,0.26-0.47,0.18-0.47,0.18s0.38,0.09,0.5,0.36c0.12,0.27-0.21,0.75-0.21,0.75L30.93,30.14z"/>
				<path class="st439" d="M31.5,28.81c0,0,0.9-0.17,0.98,0.01c0.08,0.18,0.17,0.59,0.01,0.73c-0.17,0.14-0.2-0.17-0.2-0.17
					l-0.02-0.26l-0.7,0.14L31.5,28.81z"/>
				<path class="st442" d="M32.19,28.65c-0.25,0.08-0.51,0.17-0.76,0.25c-0.14,0.04-0.08,0.26,0.06,0.22
					c0.25-0.08,0.51-0.17,0.76-0.25C32.39,28.82,32.33,28.6,32.19,28.65L32.19,28.65z"/>
				<path class="st442" d="M32.03,28.2c-0.27,0.1-0.53,0.2-0.8,0.3c-0.13,0.05-0.08,0.27,0.06,0.22c0.27-0.1,0.53-0.2,0.8-0.3
					C32.22,28.36,32.16,28.15,32.03,28.2L32.03,28.2z"/>
			</g>
			<path class="st436" d="M32.62,34.98c-0.04,0-0.08-0.01-0.11-0.03l-3.73-2.21c-0.11-0.06-0.14-0.2-0.08-0.31
				c0.06-0.11,0.2-0.14,0.31-0.08l3.73,2.21c0.11,0.06,0.14,0.2,0.08,0.31C32.77,34.94,32.7,34.98,32.62,34.98z"/>
			<path class="st436" d="M21.49,28.61c0.13,0.49,0.3,1.01,0.48,1.51c0.18,0.5,0.38,1,0.6,1.49c0.43,0.98,0.93,1.94,1.47,2.87
				c0.55,0.93,1.12,1.85,1.73,2.75c0.61,0.9,1.24,1.78,1.93,2.61l0,0l-0.19,0.03l2.88-6.37l0.2,0.09l-2.88,6.37l-0.07,0.15
				l-0.12-0.13l0,0c-0.74-0.81-1.41-1.67-2.07-2.54c-0.65-0.88-1.27-1.77-1.87-2.69c-0.59-0.92-1.14-1.88-1.63-2.86
				c-0.25-0.49-0.47-0.99-0.69-1.5c-0.21-0.51-0.41-1.02-0.58-1.57L21.49,28.61z"/>
			<g>
				<g>
					<path class="st3" d="M30.45,33.21c1.29,0,1.29-2,0-2C29.17,31.21,29.16,33.21,30.45,33.21L30.45,33.21z"/>
				</g>
			</g>
		</g>
		<g>
			<path class="st448" d="M24.41,31.03l-0.9,1.84l4.35,5.72c0,0-1.33-7.52-3.96-9.59c-1.45-1.65-1.05-1.6-1.05-1.6l0.12-0.84
				c-1.93,0.03-2.45,1.67-2.45,1.67L24.41,31.03z"/>
		</g>
		<g class="st451">
			<path class="st452" d="M25.92,37.35c0.08-0.08,1.59-1.46,1.89-1.33c0.3,0.13,0.03,0.48,0.03,0.48s0.33,0,0.4,0.18
				c0.08,0.18-0.35,0.45-0.35,0.45s0.43-0.1,0.35,0.1c-0.08,0.2-0.38,0.48-0.38,0.48s0.35-0.28,0.35,0c0,0.28-1.31,1.23-1.53,1.13
				s-0.68-0.65-0.68-0.65L25.92,37.35z"/>
			<g class="st453">
				<path class="st439" d="M25.86,37.48c0.05-0.02,0.31-0.97,0.31-0.97s0-0.3,0.46-0.64c0.46-0.34,1.17-0.34,1.35-0.46
					c0.18-0.12,0.19,0.39-0.44,0.62c-0.63,0.23-0.52,0.91-0.52,0.91L25.86,37.48z"/>
			</g>
		</g>
		<polygon class="st436" points="24.39,31.06 20.49,28.57 20.62,28.38 24.43,31 		"/>
		<path class="st438" d="M23.93,26.32l0.77,0.66l-0.01-0.64C24.58,26.35,23.93,26.32,23.93,26.32z"/>
		<path class="st448" d="M28.23,43.37l0.04-1.12c-4.5,0.1-8.64,0.04-11.89-0.45l-0.19,1.53C16.19,43.33,23.82,44.27,28.23,43.37z"/>
		<path class="st448" d="M17.43,36.49c0.15,0.04,2.8,0.34,2.8,0.34l-0.22,1.61l-2.92-0.41L17.43,36.49z"/>
		<g>
			<path class="st437" d="M23.51,24.83c0.05,0.21,0.1,0.41,0.15,0.62c0.08,0.32,0.16,0.66,0.36,0.93c0.3,0.41,0.82,0.61,1.33,0.73
				c0.18,0.04,0.42,0.07,0.53-0.08c0.04-0.05,0.05-0.12,0.07-0.18c0.07-0.35,0.06-0.71-0.01-1.06c-0.16,0-0.31,0.08-0.48,0.09
				c-0.16,0.01-0.36-0.09-0.35-0.25c0.01-0.15,0.19-0.22,0.33-0.24c0.17-0.03,0.34-0.02,0.51,0c0.07-0.12-0.1-0.25-0.24-0.27
				c-0.18-0.03-0.37-0.01-0.54,0.05c-0.11,0.04-0.22,0.1-0.33,0.13c-0.12,0.03-0.25,0.01-0.33-0.08c-0.07-0.08-0.08-0.19-0.1-0.29
				c-0.09-0.32-0.45-0.54-0.78-0.48"/>
		</g>
		<g>
			<path class="st437" d="M22.74,22.64c-0.18-0.23-0.18-0.57-0.03-0.82c0.15-0.25,0.42-0.41,0.71-0.46
				c0.29-0.05,0.58,0.01,0.85,0.12c0.23,0.1,0.46,0.24,0.71,0.22c0.25-0.02,0.45-0.18,0.68-0.27c0.24-0.1,0.51-0.13,0.77-0.09
				c0.06,0.01,0.12,0.03,0.16,0.07c0.06,0.06,0.07,0.16,0.03,0.24c-0.03,0.08-0.1,0.14-0.16,0.2c0.16-0.07,0.34-0.12,0.52-0.15
				c0.11-0.01,0.24-0.01,0.3,0.09c0.04,0.07,0.02,0.17-0.04,0.23c-0.05,0.06-0.13,0.1-0.2,0.14c0.13-0.04,0.29-0.07,0.41,0.01
				c0.12,0.08,0.15,0.27,0.09,0.41c-0.06,0.14-0.18,0.24-0.31,0.32c-0.55,0.38-1.28,0.58-1.9,0.34c-0.33-0.13-0.66-0.38-1-0.28"/>
		</g>
	</g>
	<g>
		<g>
			<path class="st437" d="M42.65,40.59c0.67,0.19,1.22,0.77,1.37,1.45c0.03,0.16,0.05,0.32-0.01,0.47
				c-0.09,0.24-0.34,0.39-0.58,0.48c-0.37,0.14-0.77,0.19-1.16,0.14"/>
		</g>
		<g>
			<path class="st437" d="M39.51,40.37c0.08-0.83-0.46-1.65-1.19-2.05s-1.63-0.44-2.44-0.26c-0.82,0.18-1.57,0.57-2.3,0.98
				c-0.33,0.19-0.67,0.38-0.92,0.66c-0.26,0.28-0.43,0.66-0.39,1.04c0.02,0.12,0.05,0.24,0.14,0.32c0.1,0.11,0.26,0.14,0.41,0.16
				c0.3,0.04,0.6,0.03,0.89-0.03c-0.78,0.24-1.47,0.72-2.05,1.28c-0.23,0.22-0.45,0.46-0.62,0.74c-0.16,0.27-0.27,0.58-0.31,0.9
				c-0.04,0.33,0.01,0.71,0.27,0.92c0.25,0.2,0.61,0.19,0.93,0.15c-0.36,0.12-0.56,0.49-0.68,0.84c-0.22,0.69-0.22,1.44-0.12,2.15
				c0.06,0.43,0.17,0.87,0.38,1.25c0.56,1.02,1.93,1.5,3,1.06c0.78-0.32,1.35-1.03,1.64-1.82c0.3-0.79,0.35-1.64,0.35-2.48
				c0-0.47-0.02-0.94,0.05-1.4c0.19-1.34,1.17-2.59,2.5-2.87"/>
		</g>
		<path class="st437" d="M54.61,84.37l0.63,3.09c0,0,5.92-1.72,5.68-2.1c-0.23-0.36-3.29-0.38-3.6-0.39l-0.13-0.88L54.61,84.37z"/>
		<path class="st435" d="M42.39,75.14l-1.64,2.7c0,0,5.51,2.76,5.59,2.32c0.08-0.42-2.16-2.52-2.38-2.73l0.5-0.73L42.39,75.14z"/>
		<path class="st431" d="M46.01,61.74c6.19,2.25,9.41,8.98,10.04,9.75c1.59,1.03,3.37,13.2,1.05,13.49l-2.34,0.2
			c-2.86-1.26-2.45-5.85-2.29-10.18l-15.7-7.1C36.76,67.91,44.68,61.36,46.01,61.74z"/>
		<g>
			<path class="st431" d="M33.65,87.15c-0.01-0.05-0.01-0.12,0-0.17l0.01-0.08c0.01-0.05,0.02-0.1,0.03-0.15l0.07-0.29l0.14-0.56
				l0.29-1.12l0.59-2.23l1.21-4.46l2.45-8.9l0,0l0.79-2.33l0.59,2.35l4.43,17.55l-0.41,0.12l-5.4-17.28l1.38,0.02l0,0l-2.94,8.75
				l-1.45,4.38l-0.71,2.19l-0.35,1.1l-0.17,0.55l-0.08,0.27c-0.01,0.05-0.02,0.09-0.03,0.13l-0.02,0.06c0-0.01,0-0.02-0.02-0.03
				L33.65,87.15z"/>
			<path class="st431" d="M33.86,78.99c0.84-0.16,1.68-0.25,2.52-0.3c0.84-0.06,1.68-0.08,2.52-0.07c0.84,0.01,1.68,0.03,2.52,0.09
				c0.84,0.06,1.68,0.14,2.52,0.28v0c-0.84,0.15-1.68,0.23-2.52,0.28c-0.84,0.06-1.68,0.08-2.52,0.09c-0.84,0-1.68-0.01-2.52-0.07
				C35.54,79.24,34.7,79.15,33.86,78.99z"/>
		</g>
		<polygon class="st454" points="48.64,53.99 55.36,57.64 55.23,59.13 45.79,55.7 		"/>
		<path class="st5" d="M52.61,59.88l-6.82-4.18l2.85-1.72l5.42,2.94C53.84,57.44,52.61,59.88,52.61,59.88z"/>
		<path class="st5" d="M39.71,48.64l6.07,7.06l2.85-1.72c0,0-4.47-7.82-4.84-8.19L39.71,48.64z"/>
		<path class="st430" d="M43.7,77.23c-0.38-0.59-2.06-0.79-2.06-0.79c-0.99-3.75,3.06-6.34,6.67-9.03l-4.51-0.05l-2.09-0.02
			l3.59-5.45l0.83-1.26c0,0,0,0,0,0c0.17,0.02,0.42,0.05,0.71,0.09h0c2.4,0.33,10.02,1.41,10.21,5.05
			C57.48,69.48,44.65,78.69,43.7,77.23z"/>
		<path class="st430" d="M46.13,60.62C46.13,60.62,46.13,60.62,46.13,60.62c-0.01,0.04-0.11,0.36-0.25,0.83
			c-0.51,1.7-1.65,5.42-2.02,5.83c-0.02,0.02-0.04,0.04-0.06,0.07c-0.5,0.61-1.54,2.37-6.36,1.76c-3.71-0.46-4.73-3-4.76-4.98
			c-0.01-0.7,0.11-1.33,0.27-1.78l0.64-1.38l0.8-1.72c0.02-0.01,0.05-0.04,0.05-0.04l8.61,1.03l0.73,0.09l2.2,0.26L46.13,60.62z"/>
		<path class="st431" d="M46.84,60.71c-0.19,0.15-0.52,0.42-0.96,0.74c-0.18,0.13-0.37,0.28-0.58,0.43c-1.81,1.29-4.7,3.1-7.03,3.36
			c-2.34,0.26-4.4-0.51-5.59-1.11c-0.01-0.7,0.11-1.33,0.27-1.78l0.64-1.38l12.39-0.38l0.15,0.02
			C46.31,60.64,46.55,60.67,46.84,60.71z"/>
		<polyline class="st455" points="41.65,42.94 41.91,46.33 40.02,46.41 40.24,43.71 		"/>
		<path class="st455" d="M43.18,43.06c-0.16,0.5-0.27,0.87-0.41,1.14c-0.06,0.13-0.13,0.23-0.21,0.32c-0.32,0.34-0.83,0.27-2-0.11
			c-1.1-0.35-1.7-1.52-1.35-2.62c0.35-1.1,1.52-1.7,2.62-1.35C42.92,40.79,43.53,41.96,43.18,43.06z"/>
		<path class="st455" d="M40.77,42.2c-0.02-0.01-0.36-0.71-0.79-0.16c-0.43,0.54-0.05,1.23,0.55,1.18"/>
		<path class="st455" d="M42.71,43.92c0.03,0,0.57,0.23,0.57,0.23c-0.2-0.32-0.21-0.69-0.15-1.09l-0.4,0.81"/>
		<g>
			<path class="st440" d="M44.32,69.64H34.05c-0.64,0-1.16-0.52-1.16-1.16l0,0c0-0.64,0.52-1.16,1.16-1.16h10.27
				c0.64,0,1.16,0.52,1.16,1.16l0,0C45.48,69.12,44.96,69.64,44.32,69.64z"/>
		</g>
		<path class="st5" d="M46.59,59.16l0.19,1.39c0,0-0.34,0.28-0.93,0.69c-0.32,0.22-0.72,0.48-1.17,0.76
			c-1.58,0.95-3.86,2.04-6.16,2.16c-4.17,0.23-6.26-1.34-6.26-1.34l0.1-0.2l0.21-0.41l0.78-1.54l0.22-0.43l0.68-1.34l0.29-0.58
			l0.24-0.47l0.57-1.13l0.05-0.56l0.13-1.5l0.02-0.18c-0.01-0.09-0.02-0.18-0.03-0.26c-0.07-0.6-0.16-1.19-0.29-1.77
			c0-0.01-0.01-0.03-0.01-0.04c-0.01-0.07-0.06-0.11-0.11-0.13c0-0.05-0.01-0.1-0.01-0.16c0-0.04,0-0.07-0.01-0.11
			c-0.04-0.49-0.11-0.98-0.14-1.39c0-0.02-0.01-0.05-0.01-0.08c-0.01-0.16-0.02-0.33-0.04-0.5c-0.01-0.06-0.01-0.12-0.02-0.18
			c-0.01-0.15-0.03-0.3-0.04-0.45c-0.03-0.33-0.05-0.68-0.04-1.07c0-0.18,0.02-0.37,0.04-0.58c0.01-0.11,0.02-0.22,0.04-0.33
			c0.02-0.12,0.04-0.24,0.06-0.37c0-0.03,0.01-0.05,0.02-0.08c0.03-0.13,0.07-0.24,0.13-0.35c0.12-0.23,0.3-0.42,0.53-0.58
			c0.58-0.42,1.47-0.63,2.44-0.71c1.66-0.14,3.58,0.07,4.77,0.25c0.69,0.1,1.13,0.19,1.13,0.19l0.15,0.25l0.11,0.18l0.25,0.4
			l0.01,0.02l0.85,1.36l0.35,0.57l0.14,0.23l0.26,0.42l0.32,0.51l0.34,0.55l0.17,0.28l-0.48,0.48l-0.51,0.51l-0.04,0.04
			c-0.09,0.03-0.17,0.11-0.17,0.22c-0.01,0.22-0.01,0.45,0,0.67l0.1,0.74l0.06,0.44l0.35,2.66l0.05,0.41l0,0.04l0.17,1.28l0.09,0.69
			L46.59,59.16z"/>
		<g>
			<g>
				<path class="st3" d="M45.85,53.64c-1.53,0.3-3.06,0.54-4.61,0.71c-1.85,0.21-3.84,0.47-5.74,0.31l0.02-0.18
					c-0.01-0.09-0.02-0.18-0.03-0.26c1.9,0.16,3.9-0.11,5.75-0.31c1.53-0.17,3.05-0.41,4.55-0.7L45.85,53.64z"/>
			</g>
			<g>
				<path class="st3" d="M46.42,51.01l-0.51,0.51c-3.56,0.43-7.13,0.74-10.71,0.92c0-0.01-0.01-0.03-0.01-0.04
					c-0.01-0.07-0.06-0.11-0.11-0.13c0-0.05-0.01-0.1-0.01-0.16c0-0.04,0-0.07-0.01-0.11C38.87,51.81,42.65,51.48,46.42,51.01z"/>
			</g>
			<g>
				<path class="st3" d="M46.07,49.19c-3.71,0.52-7.44,0.87-11.2,0.66c-0.01-0.15-0.03-0.3-0.04-0.45
					c3.68,0.21,7.34-0.12,10.98-0.63L46.07,49.19z"/>
			</g>
			<g>
				<path class="st3" d="M44.47,46.62c-3.2,0.37-6.39,0.87-9.61,0.8c0.02-0.12,0.04-0.24,0.06-0.37c0-0.03,0.01-0.05,0.02-0.08
					c3.11,0.06,6.18-0.41,9.26-0.77l0.25,0.4L44.47,46.62z"/>
			</g>
			<g>
				<path class="st3" d="M46.26,56.74c-3.88,0.76-7.8,1.29-11.75,1.59l0.24-0.47c3.85-0.3,7.67-0.82,11.45-1.57l0.05,0.41
					L46.26,56.74z"/>
			</g>
			<g>
				<path class="st3" d="M46.59,59.16c-1.85,0.48-3.73,0.85-5.62,1.1c-2.48,0.33-5.1,0.57-7.63,0.42l0.22-0.43
					c2.52,0.14,5.14-0.12,7.59-0.46c1.82-0.25,3.61-0.61,5.39-1.07L46.59,59.16z"/>
			</g>
			<g>
				<path class="st3" d="M45.84,61.24c-0.32,0.22-0.72,0.48-1.17,0.76c-1.72,0.39-3.47,0.65-5.23,0.79
					c-2.29,0.18-4.81,0.37-7.09-0.16l0.21-0.41c2.22,0.49,4.67,0.3,6.88,0.13C41.61,62.17,43.75,61.81,45.84,61.24z"/>
			</g>
		</g>
		<path class="st455" d="M42.22,48.55c-1.54,0-1.74-0.19-2.46-1.74c-0.4-0.85-1.12-1.27-1.7-1.48c1.65-0.14,3.58,0.07,4.77,0.25
			C43.6,46.97,43.41,48.55,42.22,48.55z"/>
		<path class="st5" d="M46.44,58.02c-1.7,0.39-8.62,1.86-10.37,1.73c-0.85-0.06-1.44-0.44-1.84-0.85l1.1-2.18l0.05-0.56l10.88,0.54
			L46.44,58.02z"/>
		<g>
			<path class="st5" d="M37.07,56.88c-0.06,0.11-0.18,0.34-0.34,0.63c-0.18,0.35-0.37,0.71-0.56,1.06l10.05-1.19l-0.06-1.14
				l-8.32-0.83C37.57,55.9,37.31,56.38,37.07,56.88z"/>
			<path class="st5" d="M43.17,58.16c-0.39,0.04-0.81,0.08-1.26,0.12c-0.19,0.02-0.39,0.04-0.58,0.05c-0.4,0.04-0.81,0.08-1.21,0.11
				c-0.2,0.02-0.39,0.04-0.58,0.05c-0.42,0.04-0.83,0.07-1.2,0.1c-0.22,0.02-0.43,0.03-0.63,0.05c-0.22,0.01-0.43,0.02-0.6,0.03
				c-0.44,0.02-0.82-0.04-1.14-0.14c-0.2-0.06-0.38-0.15-0.53-0.25c-0.76-0.48-1.01-1.3-1.09-1.7c-0.01-0.06-0.03-0.15-0.04-0.27
				c-0.02-0.17-0.04-0.39-0.05-0.67c-0.03-0.58-0.06-1.38-0.04-2.33c0-0.18,0.01-0.38,0.01-0.57c0.02-0.55,0.05-1.14,0.09-1.77
				c0.01-0.19,0.03-0.38,0.05-0.58c0.04-0.49,0.1-1,0.17-1.53c0.02-0.19,0.05-0.38,0.08-0.58c0-0.04,0.01-0.08,0.02-0.12
				c0.06-0.41,0.15-0.76,0.27-1.07c0.08-0.21,0.18-0.4,0.28-0.57c1.22-1.91,3.79-0.74,4.22,1.31c0.03,0.13,0.05,0.27,0.06,0.41
				c0.01,0.09,0.01,0.18,0.01,0.27c0.01,0.24,0.01,0.48,0.01,0.73c0,0.2-0.01,0.41-0.02,0.61c-0.02,0.49-0.07,0.98-0.12,1.45
				c-0.02,0.2-0.05,0.4-0.07,0.59c-0.06,0.48-0.13,0.93-0.2,1.33c-0.04,0.21-0.07,0.4-0.1,0.57c-0.03,0.14-0.05,0.26-0.07,0.37
				c-0.01,0.06-0.02,0.11-0.04,0.16c-0.05,0.24-0.08,0.82-0.08,0.82l4.72,0.48c0,0-0.15,0.94-0.24,1.85
				C43.22,57.71,43.19,57.94,43.17,58.16z"/>
		</g>
		<path class="st437" d="M42.43,42.99C42.43,42.99,42.42,42.99,42.43,42.99c0.08,0,0.16,0,0.23,0c0,0,0,0,0,0
			c-0.15-0.16-0.38,0.08-0.24,0.24c0,0,0,0,0,0c0.06,0.07,0.18,0.06,0.24,0c0,0,0,0,0,0C42.81,43.07,42.58,42.83,42.43,42.99
			L42.43,42.99z"/>
		<path class="st456" d="M42.77,44.28C42.77,44.28,42.77,44.28,42.77,44.28c-0.23-0.03-0.41-0.13-0.57-0.23
			c-0.04-0.02-0.05-0.08-0.03-0.12c0.02-0.04,0.08-0.05,0.12-0.03c0.15,0.09,0.3,0.18,0.49,0.2c0.05,0.01,0.08,0.05,0.07,0.09
			C42.85,44.25,42.82,44.28,42.77,44.28z"/>
		<path class="st454" d="M41.82,45.45l0.1,1.46c0,0,0.48-1.05,0.61-1.37L41.82,45.45z"/>
		<g>
			<g>
				<g>
					<path class="st455" d="M46.03,56.29c0.61-0.25,1.22-0.49,1.84-0.7c0.36,0.67,0.72,1.34,1.08,2.02
						c-0.48-0.03-0.96-0.04-1.44-0.02c-0.01-0.15-0.14-0.26-0.28-0.28c-0.13-0.03-0.27,0.01-0.4,0.03
						c-0.36,0.05-0.73-0.03-1.06-0.21"/>
				</g>
				<path class="st455" d="M47.51,56.18c0.08-0.03,1.13-0.51,1.13-0.51l1.34,1.61c0,0-0.38,0.13-0.59-0.13
					c-0.22-0.27-0.81-0.91-0.81-0.91l-0.68,0.43L47.51,56.18z"/>
			</g>
			<g>
				<path class="st448" d="M47.64,57.72l3.92-6.24c0,0,0.03-0.19,0.59-0.19c0.56,0,7.98,0,7.98,0l0.34,0.22l-9.96,6.2H47.64z"/>
				<path class="st457" d="M48.01,57.61c0.16-0.16,3.66-6.09,3.87-6.09c0.22,0,8.6,0,8.6,0l-3.66,5.95
					C56.82,57.47,47.83,57.79,48.01,57.61z"/>
				<polygon class="st435" points="43.66,57.64 43.63,58.12 47.98,58.16 48.01,57.64 				"/>
				<polygon class="st435" points="56.82,57.47 56.78,58.12 47.98,58.16 48.01,57.64 				"/>
				<path class="st448" d="M55.51,54.62c0.11,0.37-0.14,0.77-0.55,0.89c-0.41,0.12-0.84-0.08-0.95-0.45
					c-0.11-0.37,0.14-0.77,0.55-0.89C54.98,54.05,55.4,54.25,55.51,54.62z"/>
			</g>
		</g>
		<path class="st437" d="M41.93,42.61c-0.04,0-0.07-0.02-0.09-0.05c-0.03-0.05-0.02-0.12,0.03-0.15c0.02-0.02,0.59-0.37,1.18-0.06
			c0.05,0.03,0.08,0.1,0.05,0.15c-0.03,0.05-0.1,0.08-0.15,0.05c-0.47-0.25-0.95,0.05-0.95,0.05
			C41.97,42.61,41.95,42.61,41.93,42.61z"/>
		<g>
			<path class="st437" d="M40.4,43.46c-0.34-0.05-0.61-0.37-0.62-0.71c0-0.24,0.14-0.5,0.37-0.58c0.23-0.08,0.53,0.06,0.58,0.3
				c0.04,0.19-0.07,0.38-0.03,0.56c0.22,0.05,0.38-0.2,0.46-0.41c0.1-0.3,0.17-0.61,0.19-0.93c0.69-0.02,1.38-0.32,1.86-0.82
				c-0.26-0.24-0.56-0.43-0.89-0.56c-0.28-0.11-0.57-0.17-0.87-0.22c-0.6-0.09-1.25-0.1-1.79,0.18c-0.46,0.24-0.8,0.68-0.96,1.18
				c-0.17,0.49-0.17,1.03-0.07,1.54c0.07,0.33,0.18,0.66,0.38,0.92c0.21,0.26,0.52,0.46,0.86,0.46c0.09,0,0.2-0.02,0.26-0.08
				c0.04-0.05,0.06-0.11,0.08-0.17c0.06-0.21,0.12-0.41,0.18-0.62"/>
		</g>
		<path class="st3" d="M39.96,43.43C39.97,43.44,39.97,43.44,39.96,43.43c0.01-0.07,0.01-0.14,0.01-0.22c0,0,0,0.01-0.01,0.01
			c0.03-0.03,0.05-0.05,0.08-0.08c0,0-0.01,0.01-0.01,0.01c0.04-0.01,0.08-0.02,0.11-0.03c0,0-0.01,0-0.01,0
			c0.06,0.04,0.13,0.07,0.19,0.11c0,0,0-0.01-0.01-0.01c-0.16-0.24-0.55-0.01-0.39,0.23c0,0,0,0.01,0.01,0.01
			c0.04,0.06,0.11,0.12,0.19,0.11c0.09-0.01,0.18-0.04,0.22-0.13c0.03-0.07,0.05-0.16,0-0.23c0,0,0-0.01-0.01-0.01
			c-0.07-0.1-0.19-0.15-0.31-0.08C39.95,43.18,39.89,43.34,39.96,43.43L39.96,43.43z"/>
	</g>
	<g>
		<g>
			<g>
				<rect x="85.57" y="52.8" class="st435" width="2.54" height="3.03"/>
				<path class="st435" d="M88.12,53.27v1.49c-0.51-0.26-2.45-1.24-2.45-1.38L88.12,53.27z"/>
				<path class="st437" d="M90.28,53.45h-6.5c-2.86,0-5.17-2.32-5.17-5.17v-1.41c0-2.86,2.32-5.17,5.17-5.17h6.5
					c2.86,0,5.17,2.32,5.17,5.17v1.41C95.45,51.13,93.14,53.45,90.28,53.45z"/>
				<path class="st435" d="M95.03,55.76h-16c-0.23,0-0.42,0.19-0.42,0.42l0,0c0,0.23,0.19,0.42,0.42,0.42h16
					c0.23,0,0.42-0.19,0.42-0.42l0,0C95.45,55.95,95.26,55.76,95.03,55.76z"/>
			</g>
		</g>
		<polygon class="st435" points="73.38,58.09 80.49,58.09 84,58.09 84,57.34 75.58,57.34 73.38,57.76 		"/>
		<rect x="77.94" y="56.55" class="st446" width="18.17" height="1.53"/>
	</g>
	<g>
		<g>
			<polygon class="st454" points="117.34,70.48 116.4,76.32 118.25,77.24 119.92,71.35 			"/>
			<path class="st437" d="M116.29,75.52l-0.46,3.41c0,0,6.7,0.35,6.59-0.12c-0.11-0.45-3.25-1.58-3.56-1.69l0.18-0.95L116.29,75.52z
				"/>
			<path class="st458" d="M116.27,73.52c0.37,0.03,3.68,0.69,3.68,0.69s3.37-13.18,3.66-14.37c0.29-1.19,1.18-5.04-3.35-5.62
				c-4.53-0.57-14.18-2.61-14.18-2.61s-1.61,5.66,4.52,7.31c6.12,1.65,7.25,1.55,7.25,1.55L116.27,73.52z"/>
			<path class="st458" d="M122.42,55.82c-0.64,0.05-5.87,2.48-12.89,2.74c0.33,0.13,0.69,0.26,1.07,0.36
				c6.12,1.65,7.25,1.55,7.25,1.55l-1.58,13.05c0.37,0.03,3.68,0.69,3.68,0.69s3.37-13.18,3.66-14.37c0.18-0.74,0.59-2.5-0.21-3.87
				C123.12,55.85,122.79,55.79,122.42,55.82z"/>
		</g>
		<g>
			<g>
				<path class="st437" d="M39.64,87.47c-0.02-0.05-0.01-0.14-0.01-0.15l0.01-0.07l0.02-0.11l0.05-0.22l0.1-0.42l0.22-0.84
					l0.45-1.67l0.93-3.33l1.89-6.66l3.85-13.3l0,0l0.76-2.3l0.61,2.31l6.97,26.22l-0.41,0.12l-7.94-25.94l1.38,0.02v0L44.2,74.27
					l-2.13,6.58l-1.05,3.29l-0.51,1.65l-0.25,0.83l-0.12,0.41l-0.05,0.2l-0.02,0.1l-0.01,0.04c0,0.03,0-0.02-0.01-0.04L39.64,87.47z
					"/>
			</g>
			<g>
				<path class="st437" d="M93.22,87.47c-0.02-0.05-0.01-0.14-0.01-0.15l0.01-0.07l0.02-0.11l0.05-0.22l0.1-0.42l0.22-0.84
					l0.45-1.67l0.93-3.33l1.89-6.66l3.85-13.3v0l0.76-2.3l0.62,2.31l6.97,26.22l-0.41,0.12l-7.94-25.94l1.38,0.02l0,0l-4.33,13.14
					l-2.13,6.58l-1.05,3.29l-0.51,1.65l-0.25,0.83l-0.12,0.41l-0.05,0.2l-0.02,0.1l-0.01,0.04c0,0.03,0-0.02-0.01-0.04L93.22,87.47z
					"/>
			</g>
			<path class="st5" d="M112.22,60.34H37.98c-0.64,0-1.16-0.52-1.16-1.16l0,0c0-0.64,0.52-1.16,1.16-1.16h74.24
				c0.64,0,1.16,0.52,1.16,1.16l0,0C113.38,59.82,112.86,60.34,112.22,60.34z"/>
		</g>
		<g>
			<g>
				<path class="st236" d="M109.2,32.02c0,0,9.19,0.43,9.3,0.46c0.11,0.04,2.39,0.9,2.39,0.9s0.37,0.93-0.67,1.57
					c-1.05,0.64-8.67,1.16-8.67,1.16l-2.35-3.92"/>
				<g>
					<path class="st236" d="M118.07,33.36c0.25-0.36,0.51-0.71,0.77-1.07l-7.95-2.86l-0.41,1.39l6.73,3.64
						C117.48,34.09,117.77,33.72,118.07,33.36z"/>
					<path class="st236" d="M112.97,29.68c-0.33,0.47-1.1,1.29-1.47,1.71l6.25,3.37c1.59-0.06,3.57-0.94,3.03-1.52
						C120.23,32.66,112.97,29.68,112.97,29.68z"/>
					<g>
						<g>
							<path class="st236" d="M110.17,30.66l-2.03-0.16c-0.25-0.02-0.42-0.25-0.38-0.49l0.2-1.18c0.04-0.22,0.24-0.37,0.46-0.35
								l2.27,0.25c0.25,0.03,0.41,0.26,0.37,0.5l-0.22,1.09c-0.04,0.2-0.22,0.34-0.42,0.34l-0.23-0.01
								C110.18,30.66,110.17,30.66,110.17,30.66z"/>
							<polygon class="st236" points="110.63,30.3 108,30.22 108.21,28.67 110.88,28.97 							"/>
						</g>
						<path class="st236" d="M108.79,28.44c0,0.06,0.02,1.27,0.32,1.26c0.29-0.01,0.1-1.18,0.06-1.35
							C109.12,28.17,108.78,28.11,108.79,28.44z"/>
						<path class="st236" d="M109.26,28.42c-0.01,0.05,0.01,0.98,0.2,1.02c0.18,0.05,0.21-0.72,0.17-1.04
							C109.59,28.08,109.28,28.23,109.26,28.42z"/>
						<path class="st236" d="M109.69,28.55c0,0-0.11,0.74,0.04,0.77c0.15,0.03,0.32-0.68,0.23-0.89
							C109.87,28.22,109.69,28.34,109.69,28.55z"/>
						<path class="st236" d="M110.05,28.61c0,0-0.09,0.62,0.03,0.65c0.12,0.02,0.28-0.58,0.2-0.75
							C110.2,28.33,110.05,28.43,110.05,28.61z"/>
					</g>
					<path class="st236" d="M110.77,30.9c0,0-0.44,0.48-0.78,0.45c-0.34-0.03-0.58-0.53-0.92-0.72c-0.34-0.19-0.57-0.18-0.57-0.18
						s0.31-0.36,0.61-0.2s0.62,0.39,0.62,0.39s0.34-0.55,0.92-0.38C111.23,30.42,110.77,30.9,110.77,30.9z"/>
				</g>
				<g>
					<path class="st3" d="M104.21,35.02l0-1.2c0,0-0.01,0.01-0.01,0.01c-0.16,0.36-0.31,0.76-0.43,1.19
						C103.92,35.02,104.06,35.02,104.21,35.02L104.21,35.02z"/>
					<path class="st3" d="M112.8,35.21L112.8,35.21c-0.11-0.43-0.22-0.83-0.35-1.2c-0.64-1.01-1.45-1.81-2.95-1.97
						c-0.84-0.09-1.68,0-2.48,0.22l0.23,2.82C109.1,35.12,110.95,35.16,112.8,35.21z"/>
					<path class="st3" d="M104.19,39.98L104.19,39.98l-1.14,0c0,0,0,0,0,0c-0.01,0.07-0.01,0.13-0.01,0.2
						c-0.01,0.17-0.02,0.34-0.03,0.5c-0.02,0.35-0.03,0.69-0.04,1.05c0.4,0,0.81,0,1.21-0.01L104.19,39.98z"/>
					<path class="st3" d="M104.2,37.49L104.2,37.49c-0.3-0.02-0.61-0.04-0.91-0.06c0,0,0,0,0,0c-0.02,0.15-0.04,0.31-0.06,0.47
						c-0.06,0.52-0.11,1.06-0.15,1.61h1.11L104.2,37.49z"/>
					<path class="st3" d="M104.21,35.49c-0.19,0-0.37-0.01-0.56-0.01c0,0,0,0,0,0c-0.02,0.1-0.05,0.2-0.07,0.3
						c-0.09,0.38-0.16,0.77-0.22,1.19c0.28,0.02,0.56,0.04,0.84,0.06L104.21,35.49z"/>
					<path class="st3" d="M107.43,37.22c1.94,0.1,3.88,0.19,5.82,0.25c0,0,0,0,0,0c-0.08-0.51-0.16-1-0.26-1.47
						c-0.02-0.11-0.04-0.22-0.07-0.32c-1.87-0.05-3.75-0.09-5.62-0.12L107.43,37.22z"/>
					<path class="st3" d="M107.82,42.17l0.18,2.22c1.96-0.01,3.91-0.02,5.87-0.03v0c-0.02-0.45-0.05-0.9-0.08-1.35
						c-0.01-0.17-0.02-0.34-0.03-0.5c-0.01-0.13-0.02-0.26-0.03-0.38l0,0C111.76,42.14,109.79,42.16,107.82,42.17L107.82,42.17z"/>
					<path class="st3" d="M108.04,44.86l0.11,1.3l0,0c1.94-0.02,3.88-0.04,5.82-0.05c0,0,0,0,0,0c0-0.05-0.01-0.11-0.01-0.16
						c-0.01-0.17-0.02-0.34-0.03-0.5c-0.01-0.21-0.02-0.42-0.03-0.62C111.95,44.83,109.99,44.84,108.04,44.86L108.04,44.86z"/>
					<path class="st3" d="M107.65,39.98L107.65,39.98l0.14,1.73l0,0c1.97-0.01,3.94-0.03,5.91-0.05c-0.03-0.34-0.05-0.68-0.08-1.01
						c-0.02-0.17-0.03-0.34-0.04-0.5c-0.01-0.06-0.01-0.13-0.02-0.19c-1.48-0.01-2.97,0.03-4.44,0.03H107.65z"/>
					<path class="st3" d="M107.46,37.69l0.15,1.83h1.49c1.46,0,2.93-0.04,4.4-0.03c0,0,0,0,0,0c-0.04-0.35-0.08-0.69-0.12-1.03
						c-0.02-0.17-0.04-0.34-0.07-0.51c0-0.01,0-0.01,0-0.02C111.36,37.87,109.41,37.79,107.46,37.69L107.46,37.69z"/>
					<path class="st3" d="M104.16,46.22l0-1.34v0c-0.42,0-0.85,0.01-1.27,0.01c0,0,0,0,0,0c0,0.21,0,0.42-0.01,0.63
						c0,0.17,0,0.34-0.01,0.5c0,0.08,0,0.15,0,0.23C103.3,46.23,103.73,46.23,104.16,46.22L104.16,46.22z"/>
					<path class="st3" d="M114.06,47.85c-0.01-0.17-0.02-0.34-0.03-0.5c-0.01-0.26-0.03-0.52-0.04-0.78
						c-1.94,0.01-3.87,0.02-5.81,0.05l0,0.05l2.54,1.65l-0.28,0.98h3.68C114.11,48.82,114.08,48.34,114.06,47.85z"/>
					<path class="st3" d="M104.16,46.69c-0.43,0.01-0.86,0.01-1.3,0.02c0,0,0,0,0,0c0,0.26-0.01,0.52-0.02,0.78
						c0,0.17-0.01,0.34-0.01,0.51c-0.01,0.44-0.02,0.87-0.04,1.29h1.39l-0.04-0.01L104.16,46.69z"/>
					<path class="st3" d="M104.18,42.19L104.18,42.19c-0.41,0-0.82,0-1.22,0c0,0,0,0,0,0c0,0.13-0.01,0.26-0.01,0.39
						c-0.01,0.17-0.01,0.34-0.01,0.51c-0.01,0.44-0.02,0.89-0.03,1.34c0.42,0,0.84,0,1.27-0.01L104.18,42.19z"/>
					<path class="st445" d="M102.87,46.24c-0.01,0-0.01,0-0.02,0c0,0.16-0.01,0.31-0.01,0.47c0.01,0,0.02,0,0.03,0
						C102.87,46.55,102.87,46.4,102.87,46.24L102.87,46.24z"/>
					<path class="st445" d="M113.99,46.57c0.02,0,0.05,0,0.07,0c-0.01-0.16-0.02-0.31-0.03-0.46c-0.02,0-0.04,0-0.06,0
						C113.97,46.27,113.98,46.42,113.99,46.57C113.99,46.57,113.99,46.57,113.99,46.57z"/>
					<path class="st445" d="M108.18,46.62L108.18,46.62c1.94-0.02,3.87-0.04,5.81-0.05c0,0,0,0,0,0c-0.01-0.15-0.02-0.31-0.02-0.46
						c-1.94,0.01-3.88,0.02-5.82,0.05L108.18,46.62z"/>
					<path class="st445" d="M104.16,46.68l0-0.46c-0.43,0.01-0.86,0.01-1.29,0.02v0c0,0.16,0,0.31-0.01,0.47
						C103.3,46.7,103.73,46.7,104.16,46.68L104.16,46.68z"/>
					<path class="st445" d="M102.9,44.42c-0.01,0-0.01,0-0.02,0c0,0.15,0,0.31-0.01,0.46c0.01,0,0.01,0,0.02,0
						C102.9,44.73,102.9,44.58,102.9,44.42L102.9,44.42z"/>
					<path class="st445" d="M113.9,44.82c0.02,0,0.04,0,0.06,0c-0.01-0.16-0.02-0.31-0.03-0.46c-0.02,0-0.04,0-0.06,0
						C113.88,44.51,113.89,44.67,113.9,44.82L113.9,44.82z"/>
					<path class="st445" d="M108,44.39l0.04,0.46c1.95-0.01,3.91-0.02,5.86-0.03v0c-0.01-0.15-0.02-0.31-0.03-0.46
						C111.92,44.37,109.96,44.38,108,44.39L108,44.39z"/>
					<path class="st445" d="M104.17,44.41L104.17,44.41c-0.42,0-0.84,0-1.27,0.01v0c0,0.15,0,0.31-0.01,0.46
						c0.42,0,0.85-0.01,1.27-0.01L104.17,44.41z"/>
					<path class="st445" d="M113.73,42.12c0.02,0,0.04,0,0.06,0c-0.01-0.16-0.02-0.31-0.03-0.46c-0.02,0-0.04,0-0.06,0l0,0
						C113.71,41.81,113.72,41.97,113.73,42.12z"/>
					<path class="st445" d="M102.97,41.72c-0.01,0-0.02,0-0.03,0c-0.01,0.15-0.01,0.31-0.01,0.46c0.01,0,0.02,0,0.03,0
						C102.96,42.03,102.96,41.88,102.97,41.72C102.97,41.73,102.97,41.72,102.97,41.72z"/>
					<path class="st445" d="M107.82,42.17c1.97-0.01,3.94-0.03,5.91-0.05c-0.01-0.16-0.02-0.31-0.03-0.46l0,0
						c-1.97,0.02-3.94,0.03-5.91,0.05L107.82,42.17z"/>
					<path class="st445" d="M104.18,41.72L104.18,41.72c-0.4,0-0.81,0-1.21,0c0,0,0,0,0,0c0,0.15-0.01,0.31-0.01,0.46
						c0.41,0,0.82,0,1.22-0.01L104.18,41.72z"/>
					<path class="st445" d="M113.55,39.95c0.02,0,0.04,0,0.06,0c-0.01-0.16-0.03-0.31-0.04-0.46c-0.02,0-0.04,0-0.07,0
						C113.52,39.64,113.53,39.79,113.55,39.95C113.55,39.95,113.55,39.95,113.55,39.95z"/>
					<path class="st445" d="M103.08,39.51h-0.04c-0.01,0.15-0.02,0.31-0.03,0.46h0.04C103.06,39.82,103.07,39.67,103.08,39.51
						C103.08,39.51,103.08,39.51,103.08,39.51z"/>
					<path class="st445" d="M107.61,39.51L107.61,39.51l0.04,0.46h1.46c1.48,0,2.96-0.04,4.44-0.03c0,0,0,0,0,0
						c-0.01-0.16-0.03-0.31-0.05-0.46c-1.47-0.01-2.94,0.03-4.4,0.03H107.61z"/>
					<path class="st445" d="M104.19,39.51L104.19,39.51l-1.11,0c0,0,0,0,0,0c-0.01,0.15-0.02,0.31-0.03,0.46h1.14V39.51z"/>
					<path class="st445" d="M103.36,36.97C103.36,36.97,103.36,36.97,103.36,36.97c-0.02,0-0.04,0-0.06,0
						c-0.02,0.15-0.04,0.3-0.07,0.46c0.02,0,0.04,0,0.06,0c0-0.01,0-0.02,0-0.03C103.31,37.25,103.33,37.11,103.36,36.97z"/>
					<path class="st445" d="M113.31,37.93c0.02,0,0.05,0,0.07,0c-0.02-0.16-0.04-0.31-0.07-0.46c-0.02,0-0.05,0-0.07,0
						C113.27,37.62,113.29,37.78,113.31,37.93C113.31,37.93,113.31,37.93,113.31,37.93z"/>
					<path class="st445" d="M104.2,37.03L104.2,37.03c-0.28-0.02-0.56-0.04-0.84-0.06c0,0,0,0,0,0c-0.02,0.14-0.04,0.28-0.06,0.43
						c0,0.01,0,0.02,0,0.03c0.3,0.02,0.61,0.04,0.91,0.06L104.2,37.03z"/>
					<path class="st445" d="M107.43,37.22l0.04,0.46c1.95,0.1,3.9,0.19,5.85,0.25c0,0,0,0,0,0c-0.02-0.16-0.04-0.31-0.07-0.46
						C111.3,37.41,109.36,37.32,107.43,37.22L107.43,37.22z"/>
					<path class="st445" d="M112.92,35.67L112.92,35.67c0.02,0,0.05,0,0.07,0c-0.03-0.16-0.07-0.31-0.11-0.47c-0.02,0-0.05,0-0.07,0
						c0.02,0.09,0.05,0.19,0.07,0.28C112.89,35.55,112.9,35.61,112.92,35.67z"/>
					<path class="st445" d="M103.77,35.02C103.77,35.02,103.77,35.02,103.77,35.02c-0.02,0-0.05,0-0.07,0
						c-0.04,0.15-0.08,0.3-0.12,0.46c0.02,0,0.05,0,0.07,0c0.02-0.07,0.03-0.13,0.05-0.2C103.72,35.19,103.75,35.1,103.77,35.02z"/>
					<path class="st445" d="M104.21,35.49l0-0.46c-0.14,0-0.29-0.01-0.43-0.01c0,0,0,0,0,0c-0.03,0.09-0.05,0.17-0.07,0.26
						c-0.02,0.06-0.04,0.13-0.05,0.2C103.83,35.48,104.02,35.49,104.21,35.49L104.21,35.49z"/>
					<path class="st445" d="M107.25,35.09l0.04,0.46v0c1.88,0.04,3.75,0.08,5.62,0.12l0,0c-0.01-0.06-0.03-0.12-0.04-0.18
						c-0.02-0.1-0.05-0.19-0.07-0.28C110.95,35.16,109.1,35.12,107.25,35.09L107.25,35.09z"/>
					<polygon class="st430" points="110.05,50.71 110.45,49.29 104.19,49.29 					"/>
					<path class="st430" d="M107.46,37.69L107.46,37.69c-1.09-0.06-2.18-0.13-3.27-0.2v0l-0.01,2.02h3.42L107.46,37.69z"/>
					<path class="st430" d="M107.79,41.7l-0.14-1.72l0,0h-3.46v0l-0.01,1.74C105.38,41.72,106.58,41.71,107.79,41.7L107.79,41.7z"/>
					<path class="st430" d="M107.29,35.55c-1.03-0.02-2.06-0.04-3.08-0.06l-0.01,1.53c1.07,0.07,2.15,0.14,3.22,0.19L107.29,35.55z"
						/>
					<path class="st430" d="M107.82,42.17L107.82,42.17c-1.22,0.01-2.43,0.01-3.65,0.01v0l-0.01,2.23c1.28-0.01,2.56-0.01,3.83-0.02
						L107.82,42.17z"/>
					<path class="st430" d="M108.19,46.67l0-0.05c-1.34,0.02-2.68,0.04-4.02,0.07l-0.01,2.6l0.04,0.01h6.26l0.28-0.98L108.19,46.67z
						"/>
					<path class="st430" d="M104.21,35.02c1.01,0.02,2.03,0.04,3.04,0.06l-0.23-2.82c-1.03,0.29-1.99,0.83-2.81,1.55L104.21,35.02
						L104.21,35.02z"/>
					<path class="st430" d="M108.15,46.16l-0.11-1.3l0,0c-1.29,0.01-2.58,0.02-3.87,0.02v0l0,1.34v0
						C105.49,46.2,106.82,46.17,108.15,46.16L108.15,46.16z"/>
					<path class="st459" d="M108.15,46.16c-1.33,0.02-2.66,0.04-3.98,0.06l0,0.46v0c1.34-0.02,2.68-0.05,4.02-0.07l0,0L108.15,46.16
						z"/>
					<path class="st459" d="M108,44.39L108,44.39c-1.28,0.01-2.55,0.01-3.83,0.02v0l0,0.46c1.29-0.01,2.58-0.01,3.87-0.02L108,44.39
						z"/>
					<path class="st459" d="M107.79,41.7c-1.2,0.01-2.4,0.01-3.61,0.02v0l0,0.46c1.22,0,2.43-0.01,3.65-0.02L107.79,41.7z"/>
					<polygon class="st459" points="107.61,39.51 107.61,39.51 104.19,39.51 104.19,39.51 104.19,39.98 107.65,39.98 					"/>
					<path class="st459" d="M107.43,37.22L107.43,37.22c-1.08-0.06-2.15-0.13-3.23-0.2v0l0,0.46c1.09,0.07,2.18,0.14,3.27,0.2
						L107.43,37.22z"/>
					<path class="st459" d="M107.29,35.55l-0.04-0.46l0,0c-1.01-0.02-2.03-0.04-3.04-0.06l0,0.46v0
						C105.23,35.51,106.26,35.53,107.29,35.55L107.29,35.55z"/>
				</g>
				<g>
					<polygon class="st455" points="122.66,59.22 122.59,65.09 124.54,65.73 125.32,59.7 					"/>
					<path class="st435" d="M122.23,63.9l-0.32,3.42c0,0,6.71,0.07,6.58-0.4c-0.12-0.45-3.31-1.44-3.63-1.54l0.14-0.95L122.23,63.9z
						"/>
				</g>
				<path class="st455" d="M108.8,33.99c-1.33,0-1.65-1.11-1.73-1.76c0.68-0.17,1.39-0.25,2.1-0.22c0.11,0,0.22,0.01,0.33,0.02
					c0.16,0.02,0.32,0.04,0.46,0.07c0.06,0.01,0.12,0.02,0.18,0.04C110.24,32.92,110.13,33.99,108.8,33.99z"/>
				<polygon class="st455" points="109.28,32.61 107.45,32.61 107.56,29.33 108.94,30.01 109.09,31.15 109.17,31.76 				"/>
				<path class="st5" d="M113.87,36.13c-0.45-1.51-1.64-3.48-3.73-3.98c2.41,3.26,2.62,10.13,2.09,18.21
					c0.03,0.3,0.04,0.46,0.05,0.46c0.1,0,4.12-0.64,4.12-0.64S114.32,37.64,113.87,36.13z"/>
				<g>
					<path class="st455" d="M109.78,30.57c0,0,0,0.01,0,0.01c-0.13,0.37-0.59,0.58-1.64,0.88c-1.06,0.31-2.18-0.3-2.49-1.37
						c-0.31-1.07,0.3-2.18,1.37-2.49c1.07-0.31,2.18,0.3,2.49,1.36c0.13,0.44,0.23,0.78,0.28,1.05c0.01,0.04,0.01,0.09,0.02,0.13
						C109.83,30.32,109.82,30.45,109.78,30.57z"/>
					<polygon class="st455" points="110.32,29.62 109.66,30.14 109.15,29.39 109.4,29.06 					"/>
					<path class="st437" d="M108.05,29.23c-0.01,0-0.02,0-0.03-0.01c-0.06-0.02-0.09-0.08-0.07-0.14c0.2-0.62,1.02-0.65,1.05-0.66
						c0.07-0.01,0.11,0.05,0.12,0.11c0,0.06-0.05,0.11-0.11,0.12c-0.01,0-0.7,0.03-0.85,0.5C108.15,29.2,108.1,29.23,108.05,29.23z"
						/>
					<path class="st437" d="M108.82,29.2c0,0-0.01,0-0.01,0.01c-0.19,0.1-0.02,0.39,0.17,0.29c0,0,0.01,0,0.01-0.01
						C109.18,29.4,109.01,29.11,108.82,29.2L108.82,29.2z"/>
					<path class="st3" d="M109.78,30.57c-0.72,0.1-0.97-0.34-0.97-0.34l0.98-0.21c0.01,0.04,0.01,0.09,0.02,0.13
						C109.83,30.32,109.82,30.45,109.78,30.57z"/>
				</g>
				<g>
					<g>
						<path class="st455" d="M112.11,47.46c0.63-0.26,1.27-0.51,1.92-0.73c0.38,0.7,0.75,1.4,1.13,2.1c-0.5-0.03-1-0.04-1.5-0.02
							c-0.01-0.16-0.15-0.27-0.29-0.29c-0.14-0.03-0.28,0.01-0.42,0.03c-0.38,0.05-0.76-0.03-1.1-0.22"/>
					</g>
					<path class="st455" d="M113.64,47.35c0.08-0.03,1.18-0.53,1.18-0.53l1.4,1.68c0,0-0.39,0.14-0.62-0.14
						c-0.22-0.28-0.84-0.95-0.84-0.95l-0.71,0.45L113.64,47.35z"/>
				</g>
				<g>
					<path class="st445" d="M114.14,48.35l3.29-6.94c0,0,0-0.2,0.59-0.27c0.58-0.07,8.27-0.99,8.27-0.99l0.38,0.19L117.12,48
						L114.14,48.35z"/>
					<path class="st443" d="M114.5,48.2c0.15-0.19,3.03-6.76,3.25-6.79c0.22-0.03,8.91-1.07,8.91-1.07l-3.05,6.61
						C123.62,46.95,114.34,48.4,114.5,48.2z"/>
					<polygon class="st460" points="110,48.74 110.03,49.16 114.53,48.65 114.5,48.2 					"/>
					<polygon class="st460" points="123.62,46.95 123.61,47.3 114.53,48.65 114.5,48.2 					"/>
					<path class="st460" d="M121.9,44.17c0.16,0.37-0.05,0.81-0.46,0.99c-0.41,0.18-0.88,0.02-1.04-0.35
						c-0.16-0.37,0.05-0.81,0.46-0.99C121.28,43.64,121.74,43.8,121.9,44.17z"/>
				</g>
				<g>
					<path class="st432" d="M110.9,49.09c-0.02,0-0.04,0-0.06,0c0,0,0.01,0,0.01,0.01C110.87,49.09,110.88,49.09,110.9,49.09z"/>
					<path class="st432" d="M114.73,53.05c-1.23,0.4-2.46,0.77-3.71,1.09c-1.44,0.37-3.09,0.94-4.59,0.78
						c-1.8-0.2-2.56-1.52-2.83-3.03l-2.31-0.31c-0.03,2.52,0.52,5.82,3.48,6.66c4.75,1.35,14.87-3.1,15.61-3.43l0,0l-1.02,0.4
						L114.73,53.05z"/>
					<path class="st432" d="M106.6,54.04c1.59,0.14,3.45-0.56,4.97-0.98c0.65-0.18,1.29-0.37,1.93-0.58l-6-2.81
						c-0.28,0.08-0.45,0.13-0.45,0.13l0.07,2.54L104.5,52C104.73,53.05,105.31,53.92,106.6,54.04z"/>
					<path class="st432" d="M108.45,49.44c0.54-0.08,1.26-0.18,2.09-0.3C109.85,49.16,109.08,49.3,108.45,49.44z"/>
					<path class="st432" d="M124.01,50.19c-0.15-0.02-0.33,0.01-0.51,0.05c-0.75,0.87-1.46,1.78-2.12,2.72
						c-0.4,0.57-0.71,1.21-1.01,1.85l2.06-0.8l0.06,7.66l0.93,0.13c0.47-3.34,0.95-6.68,1.4-10.03
						C124.92,51,125.3,50.35,124.01,50.19z"/>
					<path class="st432" d="M128.14,50.84c0.06-2.78-1.68-3.97-3.03-3.8c-0.95,0.12-9.3,1.34-14.21,2.05
						c2.35-0.01,4.8-0.14,6.9-0.54c3.03-0.57,5.06-0.13,6.36,0.71c0.37-0.06,0.77-0.09,1.1,0.1c0.91,0.51,0.53,1.85,0.42,2.65
						c-0.46,3.3-0.93,6.6-1.39,9.91l0.71,0.1C125,62.01,128.09,53.62,128.14,50.84z"/>
					<path class="st432" d="M123.5,50.25c-0.25,0.06-0.5,0.15-0.69,0.19c-0.8,0.18-1.59,0.41-2.37,0.65
						c-1.57,0.49-3.11,1.07-4.66,1.61c-0.35,0.12-0.7,0.24-1.05,0.35l4.61,2.16l1.02-0.4c0.3-0.64,0.62-1.27,1.01-1.85
						C122.03,52.02,122.74,51.11,123.5,50.25z"/>
					<path class="st432" d="M110.73,49.14c-0.06,0-0.13,0-0.19,0c-0.83,0.12-1.55,0.22-2.09,0.3c-0.37,0.08-0.69,0.17-0.93,0.23
						l6,2.81c2.57-0.82,5.07-1.81,7.67-2.55c0.85-0.24,1.72-0.45,2.59-0.6c0.13-0.02,0.26-0.05,0.39-0.07
						c-1.3-0.83-3.33-1.28-6.36-0.71c-2.1,0.39-4.54,0.53-6.9,0.54c-0.02,0-0.03,0-0.05,0.01
						C110.89,49.12,110.86,49.14,110.73,49.14z"/>
					<path class="st458" d="M103.49,49.38c0.04-0.57,0.93-0.58,0.9,0c-0.05,0.79-0.08,1.77,0.11,2.63l2.64,0.35l-0.07-2.54
						c0,0,0.17-0.06,0.45-0.13l-0.18-0.08c0.03,0,0.43-0.06,1.11-0.15c0.64-0.14,1.4-0.28,2.09-0.3c0.1-0.01,0.21-0.03,0.31-0.05
						c0,0,0,0-0.01-0.01c0,0,0,0,0,0c-4.85,0.01-9.26-0.54-9.26-0.54s-0.29,1.34-0.31,3.03l2.31,0.31
						C103.44,51.05,103.43,50.17,103.49,49.38z"/>
					<path class="st458" d="M107.34,49.59l0.18,0.08c0.24-0.07,0.56-0.15,0.93-0.23C107.77,49.54,107.37,49.59,107.34,49.59z"/>
					<path class="st458" d="M110.85,49.1c-0.11,0.02-0.21,0.03-0.31,0.05c0.06,0,0.13,0,0.19,0
						C110.86,49.14,110.89,49.12,110.85,49.1z"/>
					<path class="st443" d="M111.58,53.06c-1.52,0.42-3.38,1.12-4.97,0.98c-1.29-0.12-1.87-0.98-2.11-2.03l-0.91-0.12
						c0.27,1.51,1.03,2.83,2.83,3.03c1.51,0.17,3.15-0.4,4.59-0.78c1.25-0.32,2.49-0.69,3.71-1.09l-1.22-0.57
						C112.87,52.69,112.23,52.88,111.58,53.06z"/>
					<path class="st443" d="M125.26,49.36c-0.34-0.19-0.73-0.16-1.1-0.1c0.05,0.03,0.1,0.06,0.14,0.09
						c-0.27,0.29-0.54,0.59-0.8,0.89c0.18-0.04,0.36-0.07,0.51-0.05c1.29,0.16,0.91,0.81,0.81,1.58c-0.45,3.34-0.93,6.68-1.4,10.03
						l0.88,0.12c0.46-3.3,0.93-6.61,1.39-9.91C125.79,51.21,126.16,49.87,125.26,49.36z"/>
					<path class="st443" d="M121.18,49.93c-2.59,0.74-5.1,1.73-7.67,2.55l1.22,0.57c0.35-0.11,0.7-0.23,1.05-0.35
						c1.55-0.54,3.09-1.12,4.66-1.61c0.78-0.24,1.57-0.47,2.37-0.65c0.19-0.04,0.45-0.13,0.69-0.19c0.26-0.3,0.53-0.6,0.8-0.89
						c-0.05-0.03-0.09-0.06-0.14-0.09c-0.13,0.02-0.26,0.05-0.39,0.07C122.89,49.48,122.03,49.69,121.18,49.93z"/>
					<path class="st460" d="M104.38,49.38c0.04-0.58-0.86-0.57-0.9,0c-0.05,0.79-0.05,1.68,0.1,2.51L104.5,52
						C104.3,51.15,104.33,50.17,104.38,49.38z"/>
				</g>
				<path class="st236" d="M106.88,46.74c-0.06,0.81-0.12,1.62-0.2,2.44c-0.05,0.64-0.11,1.28-0.18,1.93l-5.5-0.53
					c0,0,0.08-1.4,0.24-3.41c0.04-0.53,0.09-1.11,0.15-1.72c0.36-3.82,0.97-8.73,1.92-10.9c0.99-1.12,2.3-1.92,3.73-2.3
					C107.32,36.83,107.25,41.68,106.88,46.74z"/>
				<path class="st455" d="M112.61,48.58c0,0-8.74-0.54-10.33-1.61c-1.58-1.07,0-3.4,2.38-2.56c2.38,0.84,7.55,2.98,7.55,2.98
					L112.61,48.58z"/>
				<path class="st461" d="M106.88,46.74c-0.06,0.81-0.12,1.62-0.2,2.44c-0.88-0.12-1.85-0.31-2.88-0.62
					c-1.4-0.43-2.17-0.92-2.56-1.4c0.04-0.53,0.09-1.11,0.15-1.72L106.88,46.74z"/>
				<path class="st5" d="M105.55,44.73l0.56-9.36c-0.84-1.37-1.77-1.61-2.79-0.83c-0.84,1.99-2.43,8.79-2.43,9.4
					c0,0.61-0.51,2.52,1.4,3.03c1.19,0.8,8.93,2.07,8.93,2.07s0.03-1.53,0.12-2.01C109.99,46.48,107.38,45.42,105.55,44.73z"/>
			</g>
			<path class="st454" d="M109.17,31.76c-0.79-0.06-1.33-0.67-1.01-0.54c0.31,0.13,0.82-0.03,0.93-0.07L109.17,31.76z"/>
			<g>
				<path class="st437" d="M107.41,30.4c-0.08,0.12-0.26,0.15-0.4,0.09c-0.14-0.06-0.23-0.18-0.31-0.31
					c-0.06-0.11-0.1-0.23-0.1-0.35c0.01-0.12,0.07-0.25,0.18-0.3c0.2-0.09,0.41,0.08,0.52,0.26c0.06,0.1,0.11,0.21,0.21,0.27
					c0.1,0.06,0.26,0.04,0.29-0.07c-0.11-0.38-0.32-0.73-0.6-1.02c0.16-0.11,0.33-0.23,0.41-0.41c0.13-0.28,0-0.61-0.13-0.89
					c-0.02-0.04-0.04-0.08-0.07-0.1c-0.04-0.03-0.1-0.04-0.15-0.03c-0.33,0.02-0.61,0.22-0.87,0.42c-0.38,0.29-0.75,0.64-0.89,1.09
					c-0.07,0.21-0.08,0.43-0.09,0.65c-0.01,0.17-0.01,0.35,0.04,0.51c0.06,0.21,0.21,0.39,0.36,0.55c0.22,0.24,0.45,0.48,0.75,0.62
					c0.29,0.13,0.62,0.14,0.94,0.15c-0.03-0.37-0.06-0.74-0.09-1.11"/>
			</g>
			<g>
				<path class="st437" d="M106.31,31.14c-0.69-0.38-1.21-1.04-1.41-1.8c-0.07-0.25-0.1-0.51-0.06-0.76
					c0.04-0.25,0.16-0.5,0.36-0.66c0.26-0.21,0.62-0.27,0.85-0.52c0.17-0.19,0.22-0.46,0.25-0.72c0.03-0.26,0.07-0.53,0.22-0.73
					c0.15-0.21,0.47-0.32,0.67-0.17c0.16,0.12,0.2,0.33,0.22,0.53c0-0.19,0.06-0.37,0.16-0.52c0.08-0.11,0.19-0.21,0.32-0.26
					c0.13-0.04,0.29-0.02,0.39,0.08c0.13,0.13,0.12,0.34,0.11,0.52c0.09-0.13,0.21-0.25,0.34-0.35c0.11-0.08,0.25-0.14,0.38-0.12
					c0.17,0.03,0.29,0.17,0.35,0.33c0.17,0.4,0.03,0.87-0.24,1.21c-0.27,0.33-0.66,0.55-1.04,0.74c-0.42,0.21-0.86,0.39-1.31,0.54"
					/>
			</g>
		</g>
		<g>
			<g>
				<path class="st431" d="M127.34,87.13l-4.51-17.94l-0.37-1.47l-0.09,0.04c-0.04,0.01-0.09,0.02-0.13,0.03c0,0,0,0,0,0
					c-0.13,0.04-0.25,0.07-0.41,0.08l-0.44,1.3l0,0l-2.5,9.1l-1.23,4.55l-0.6,2.28l-0.29,1.14l-0.14,0.58l-0.07,0.29
					c-0.01,0.05-0.02,0.1-0.03,0.15l-0.02,0.08c-0.01,0.06-0.01,0.12,0,0.18l0.43-0.14c0.01,0.01,0.02,0.02,0.02,0.03l0.02-0.06
					c0.01-0.04,0.02-0.09,0.04-0.13l0.08-0.28l0.17-0.56l0.35-1.12l0.73-2.24l1.48-4.48l2.26-6.73l4.83,15.42L127.34,87.13z"/>
				<path class="st431" d="M116.72,79.19c0.86-0.17,1.72-0.26,2.58-0.32c0.86-0.06,1.72-0.08,2.58-0.08
					c0.86,0.01,1.72,0.03,2.58,0.09c0.86,0.06,1.72,0.14,2.58,0.3c0,0,0,0,0,0c0,0,0,0,0,0c-0.86,0.16-1.72,0.24-2.58,0.3
					c-0.86,0.06-1.72,0.09-2.58,0.09c-0.86,0-1.72-0.01-2.58-0.08C118.44,79.45,117.58,79.36,116.72,79.19z"/>
			</g>
			<path class="st440" d="M127.41,69.64h-10.49c-0.65,0-1.18-0.53-1.18-1.18l0,0c0-0.65,0.53-1.18,1.18-1.18h10.49
				c0.65,0,1.18,0.53,1.18,1.18l0,0C128.59,69.11,128.06,69.64,127.41,69.64z"/>
		</g>
	</g>
	<g>
		<path class="st5" d="M93.69,25.98c0-5.52-4.47-9.99-9.99-9.99c-5.52,0-9.99,4.47-9.99,9.99c0,4.92,3.56,9.01,8.25,9.83l0,0
			l1.74,3.04l1.73-3.04l0,0C90.12,35,93.69,30.91,93.69,25.98z"/>
		<path class="st3" d="M86.59,29.12c-0.4,0-0.77,0.14-1.07,0.36l-3.94-2.88c0.09-0.21,0.14-0.44,0.14-0.69
			c0-0.2-0.03-0.39-0.09-0.57l3.9-2.85c0.3,0.23,0.67,0.36,1.07,0.36c0.98,0,1.78-0.8,1.78-1.78c0-0.98-0.8-1.78-1.78-1.78
			c-0.98,0-1.78,0.8-1.78,1.78c0,0.28,0.07,0.55,0.18,0.78l-3.81,2.78c-0.32-0.32-0.76-0.51-1.25-0.51c-0.98,0-1.78,0.8-1.78,1.78
			c0,0.98,0.8,1.78,1.78,1.78c0.44,0,0.84-0.16,1.16-0.43l3.9,2.85c-0.12,0.24-0.18,0.5-0.18,0.78c0,0.98,0.8,1.78,1.78,1.78
			c0.98,0,1.78-0.8,1.78-1.78S87.58,29.12,86.59,29.12z"/>
	</g>
	<g>
		<polygon class="st434" points="17.93,16.35 16.8,14.62 14.92,13.77 16.65,12.64 17.5,10.76 18.63,12.49 20.51,13.34 18.78,14.47 
					"/>
		<polygon class="st434" points="24.26,1.62 24.87,2.73 25.98,3.34 24.87,3.95 24.26,5.06 23.65,3.95 22.54,3.34 23.65,2.73 		"/>
		<polygon class="st434" points="11.31,0 12.55,2.26 14.81,3.5 12.55,4.74 11.31,7 10.07,4.74 7.81,3.5 10.07,2.26 		"/>
	</g>
</g>
</svg>
