<?xml version="1.0" encoding="utf-8"?>
<!-- Generator: Adobe Illustrator 25.3.1, SVG Export Plug-In . SVG Version: 6.00 Build 0)  -->
<svg version="1.1" id="Layer_1" xmlns="http://www.w3.org/2000/svg" xmlns:xlink="http://www.w3.org/1999/xlink" x="0px" y="0px"
	 viewBox="0 0 122.52 94.18" style="enable-background:new 0 0 122.52 94.18;" xml:space="preserve">
<style type="text/css">
	.st0{fill:#24487F;}
	.st1{fill:#8E8E8E;}
	.st2{fill:#FFFFFF;stroke:#8E8E8E;stroke-linecap:round;stroke-miterlimit:10;}
	.st3{fill:#FFFFFF;}
	.st4{fill:#4DB5D1;}
	.st5{fill:#60934D;}
	.st6{fill:#FFFFFF;stroke:#5F934D;stroke-linecap:round;stroke-miterlimit:10;}
	.st7{fill:#23497F;}
	.st8{fill:#FFFFFF;stroke:#23497F;stroke-linecap:round;stroke-miterlimit:10;}
	.st9{fill:url(#SVGID_1_);}
	.st10{fill:url(#SVGID_2_);}
	.st11{fill:url(#SVGID_3_);}
	.st12{fill:url(#SVGID_4_);}
	.st13{fill:#397BBF;}
	.st14{fill:#1466B1;}
	.st15{fill:#054F8C;}
	.st16{fill:url(#SVGID_5_);}
	.st17{fill:#EFA986;}
	.st18{fill:#152B3D;}
	.st19{fill:#62A9DC;}
	.st20{fill:#977332;}
	.st21{fill:#264480;}
	.st22{fill:#363B3D;}
	.st23{fill:#E45354;}
	.st24{fill:#F5F6F6;}
	.st25{fill:#1A5A8D;}
	.st26{fill:#2274B5;}
	.st27{fill:#3A88C8;}
	.st28{fill:#E3F3FC;}
	.st29{fill:#C5CCD1;}
	.st30{fill:#2A2C47;}
	.st31{fill:#E2D2CA;}
	.st32{fill:#434873;}
	.st33{fill:#3B4048;}
	.st34{fill:#323757;}
	.st35{fill:#81A358;}
	.st36{fill:#71A341;}
	.st37{fill:#618A3C;}
	.st38{fill:#87BD43;}
	.st39{fill:#7BA840;}
	.st40{fill:#70A341;}
	.st41{fill:#6A943E;}
	.st42{fill:#B2CF43;}
	.st43{fill:#9FB34D;}
	.st44{fill:url(#SVGID_6_);}
	.st45{filter:url(#Adobe_OpacityMaskFilter);}
	.st46{filter:url(#Adobe_OpacityMaskFilter_1_);}
	.st47{mask:url(#SVGID_7_);fill:url(#SVGID_8_);}
	.st48{fill:url(#SVGID_9_);}
	.st49{fill:#464443;}
	.st50{fill:#928783;}
	.st51{fill:#1D3C55;}
	.st52{fill:#152C3D;}
	.st53{fill:#A77961;}
	.st54{fill:#D8E9F7;}
	.st55{fill:#BFB2AC;}
	.st56{fill:#FED1A2;}
	.st57{fill:#B37953;}
	.st58{fill:#D6995E;}
	.st59{fill:#807167;}
	.st60{fill:#6E6760;}
	.st61{fill:#928880;}
	.st62{fill:#BC8552;}
	.st63{filter:url(#Adobe_OpacityMaskFilter_2_);}
	.st64{filter:url(#Adobe_OpacityMaskFilter_3_);}
	.st65{mask:url(#SVGID_10_);fill:url(#SVGID_11_);}
	.st66{fill:url(#SVGID_12_);}
	.st67{filter:url(#Adobe_OpacityMaskFilter_4_);}
	.st68{filter:url(#Adobe_OpacityMaskFilter_5_);}
	.st69{mask:url(#SVGID_13_);fill:url(#SVGID_14_);}
	.st70{fill:url(#SVGID_15_);}
	.st71{fill:#C3C8E5;}
	.st72{opacity:0.3;}
	.st73{fill:#F4F6FB;}
	.st74{fill:#E8E8F2;}
	.st75{fill:#D7D6E6;}
	.st76{fill:#F3F4F7;}
	.st77{fill:#FCFDFD;}
	.st78{filter:url(#Adobe_OpacityMaskFilter_6_);}
	.st79{mask:url(#SVGID_16_);}
	.st80{fill:#3F54A5;}
	.st81{fill:#A5A7D4;}
	.st82{fill:#B4BBDF;}
	.st83{fill:url(#SVGID_17_);}
	.st84{fill:#CED0E4;}
	.st85{fill:#EDF0F9;}
	.st86{opacity:0.5;fill:#CFD2D3;}
	.st87{opacity:0.5;fill:#A5A7AA;}
	.st88{fill:#332566;}
	.st89{fill:#FAAE42;}
	.st90{fill:#DFDFDE;}
	.st91{fill:#F6C6B1;}
	.st92{fill:#E8B8A9;}
	.st93{fill:#3D4592;}
	.st94{fill:url(#SVGID_18_);}
	.st95{fill:url(#SVGID_19_);}
	.st96{fill:url(#SVGID_20_);}
	.st97{fill:#112F41;}
	.st98{opacity:0.5;fill:#BDBCD8;}
	.st99{opacity:0.2;fill:#ED5B2A;}
	.st100{fill-rule:evenodd;clip-rule:evenodd;fill:#3E55A5;}
	.st101{fill:#2C1C28;}
	.st102{fill:#EE7762;}
	.st103{opacity:0.25;fill:#ED5B2A;}
	.st104{fill:#CD3046;}
	.st105{fill:#282B70;}
	.st106{fill:url(#SVGID_21_);}
	.st107{fill:url(#SVGID_22_);}
	.st108{fill:#212B46;}
	.st109{fill:#D2D2E9;}
	.st110{fill:#8F95CA;}
	.st111{fill:#BDBCD8;}
	.st112{fill:#F2F7F6;}
	.st113{fill:#C9C8DF;}
	.st114{fill:#E3E3EE;}
	.st115{fill:#FAF0F7;}
	.st116{fill:#FFFCFD;}
	.st117{fill:#E4A28B;}
	.st118{opacity:0.05;fill:#010101;}
	.st119{fill:#D9DDEC;}
	.st120{fill:#C6CBE7;}
	.st121{fill:#8A97CC;}
	.st122{fill:#DFE4F3;}
	.st123{fill:#D5A393;}
	.st124{fill:#182540;}
	.st125{fill:url(#SVGID_23_);}
	.st126{fill:#F1A993;}
	.st127{fill:#687094;}
	.st128{fill:#D7DBEF;}
	.st129{fill:#F4F4F8;}
	.st130{fill:#B2B9DE;}
	.st131{fill:#4D60AC;}
	.st132{fill:#8E97CB;}
	.st133{fill:#BCC6E5;}
	.st134{fill:#AAB9DF;}
	.st135{fill:#FFFBFD;}
	.st136{fill:#34479E;}
	.st137{opacity:0.2;}
	.st138{fill:#60848C;}
	.st139{fill:url(#SVGID_24_);}
	.st140{fill:#F36E5C;}
	.st141{fill:#85BEE7;}
	.st142{fill:#908F8F;}
	.st143{fill:#F1F0F0;}
	.st144{fill:url(#SVGID_25_);}
	.st145{fill:#CCCCCC;}
	.st146{fill:#F6F7FB;}
	.st147{fill:#E6E6E5;}
	.st148{fill:#F3F3F3;}
	.st149{fill:#EFF0F7;}
	.st150{fill:url(#SVGID_26_);}
	.st151{fill:url(#SVGID_27_);}
	.st152{fill:url(#SVGID_28_);}
	.st153{fill:url(#SVGID_29_);}
	.st154{fill:url(#SVGID_30_);}
	.st155{fill:url(#SVGID_31_);}
	.st156{fill:#3D426A;}
	.st157{fill:#252840;}
	.st158{fill:#C4B4AF;}
	.st159{fill:#EA4747;}
	.st160{fill:#6B7BBC;}
	.st161{fill:#5266AF;}
	.st162{fill:#5062AD;}
	.st163{fill:#EDDAD3;}
	.st164{fill:#DECDC7;}
	.st165{fill:#E3D1CA;}
	.st166{fill:#B39595;}
	.st167{fill:#DBB8B8;}
	.st168{fill:#F1CCCB;}
	.st169{fill:#323538;}
	.st170{fill:#EFAA88;}
	.st171{fill:#1D2133;}
	.st172{fill:#EFAA87;}
	.st173{fill:#D88A51;}
	.st174{fill:#C68D71;}
	.st175{fill:#A19FA7;}
	.st176{fill:#EAE6F1;}
	.st177{fill:#3B4167;}
	.st178{fill:#DE9674;}
	.st179{fill:#764937;}
	.st180{fill:#5D554E;}
	.st181{fill:#3D4246;}
	.st182{fill:#FFD356;}
	.st183{fill:url(#SVGID_32_);}
	.st184{fill:url(#SVGID_33_);}
	.st185{fill:url(#SVGID_34_);}
	.st186{fill:url(#SVGID_35_);}
	.st187{fill:url(#SVGID_36_);}
	.st188{fill:url(#SVGID_37_);}
	.st189{opacity:0.5;}
	.st190{fill:#FCEACF;}
	.st191{opacity:0.8;}
	.st192{fill:#D4EEF6;}
	.st193{fill:#3AA1C9;}
	.st194{fill:#3F9896;}
	.st195{fill:#7FC6A6;}
	.st196{fill:#DEF2FD;}
	.st197{fill:#223849;}
	.st198{fill:#B4E3F7;}
	.st199{fill:#F89F74;}
	.st200{fill:#E33F3E;}
	.st201{fill:#482B32;}
	.st202{fill:#D8E4F4;}
	.st203{fill:#683E47;}
	.st204{fill:#3788BA;}
	.st205{fill:#22131E;}
	.st206{fill:#FAB59D;}
	.st207{fill:#CC2327;}
	.st208{fill:#E2F3F1;}
	.st209{fill:#F07163;}
	.st210{fill:#49273F;}
	.st211{fill:#4C232E;}
	.st212{fill:#010101;}
	.st213{fill:#F7956E;}
	.st214{fill:#F68D64;}
	.st215{fill:#F27584;}
	.st216{fill:#4EB8D9;}
	.st217{fill:#EF4751;}
	.st218{fill:#ACC7E8;}
	.st219{fill:#268E8D;}
	.st220{fill:#3A1F33;}
	.st221{fill:#FECC87;}
	.st222{fill:#FBB359;}
	.st223{fill:#331A2C;}
	.st224{fill:#FDC886;}
	.st225{fill:#F7934B;}
	.st226{fill:#F04D65;}
	.st227{fill:#F6D6B2;}
	.st228{fill:#61A3C5;}
	.st229{fill:#B1D89B;}
	.st230{fill:#A8C8E5;}
	.st231{fill:#C1D1EC;}
	.st232{fill:#F2AC40;}
	.st233{fill:#3B57A6;}
	.st234{fill:#C2D5EE;}
	.st235{fill:#A9C4E6;}
	.st236{fill:#2D572A;}
	.st237{fill:#274392;}
	.st238{fill:#95B0DB;}
	.st239{fill:#BFBFBF;}
	.st240{fill:#E9F3FB;}
	.st241{fill:#6B81C0;}
	.st242{fill:#8FB1DD;}
	.st243{fill:#F58765;}
	.st244{fill:#2C1913;}
	.st245{fill:#6A3F31;}
	.st246{fill:#F37559;}
	.st247{fill:#F47A55;}
	.st248{fill:#E0B3A8;}
	.st249{fill:#D9D9D9;}
	.st250{fill:#C6DD74;}
	.st251{fill:#9FCB5F;}
	.st252{fill:#7C9D48;}
	.st253{fill:#E7E7E7;}
	.st254{fill:#F2C791;}
	.st255{fill:#B7B7B7;}
	.st256{fill:#7595CD;}
	.st257{fill:#FAB18D;}
	.st258{fill:#F6977C;}
	.st259{fill:#D1E28C;}
	.st260{fill:none;}
	.st261{fill:#1B1B1C;}
	.st262{fill:#F47E46;}
	.st263{fill:#EB6828;}
	.st264{fill:#F79668;}
	.st265{fill:#E6B54E;}
	.st266{fill:#676767;}
	.st267{fill:#4D4C4C;}
	.st268{fill:#F27070;}
	.st269{fill:#C24D4D;}
	.st270{enable-background:new    ;}
	.st271{fill:#C39B6A;}
	.st272{fill:#C9A475;}
	.st273{fill:#E6B880;}
	.st274{fill:#9F3D3E;}
	.st275{fill:#FFD679;}
	.st276{fill:#F4805D;}
	.st277{fill:#DA5958;}
	.st278{fill:#7D3D20;}
	.st279{fill:#562915;}
	.st280{fill:#B15931;}
	.st281{fill:#5076BA;}
	.st282{fill:#59ADC0;}
	.st283{fill:#099895;}
	.st284{fill:#F5AE87;}
	.st285{fill:#D9504F;}
	.st286{fill:#FCC79A;}
	.st287{fill:#FFDC7B;}
	.st288{fill:#F15958;}
	.st289{fill:#674E46;}
	.st290{fill:#785D51;}
	.st291{clip-path:url(#SVGID_39_);fill:#60934D;}
	.st292{clip-path:url(#SVGID_39_);}
	.st293{fill:#BD725F;}
	.st294{fill:#E6F1D1;}
	.st295{fill:#A86046;}
	.st296{fill:#3C251D;}
	.st297{fill:#4A413F;}
	.st298{fill:#716765;}
	.st299{fill:#EEBD7F;}
	.st300{fill:#7DA594;}
	.st301{fill:#252433;}
	.st302{fill:#F7E6C7;}
	.st303{fill:#E79F90;}
	.st304{fill:#CC4A38;}
	.st305{fill:#333333;}
	.st306{fill:#E1755E;}
	.st307{fill:#E8A180;}
	.st308{fill:#694136;}
	.st309{fill:#C06360;}
	.st310{fill:#CD5A5A;}
	.st311{fill:#E17660;}
	.st312{opacity:0.42;}
	.st313{fill-rule:evenodd;clip-rule:evenodd;fill:#B1D89B;}
	.st314{clip-path:url(#SVGID_41_);fill:#92B779;}
	.st315{clip-path:url(#SVGID_43_);fill:url(#SVGID_44_);}
	.st316{fill-rule:evenodd;clip-rule:evenodd;fill:#60934D;}
	.st317{clip-path:url(#SVGID_46_);fill:url(#SVGID_47_);}
	.st318{fill-rule:evenodd;clip-rule:evenodd;fill:#274CA1;}
	.st319{clip-path:url(#SVGID_49_);fill:url(#SVGID_50_);}
	.st320{clip-path:url(#SVGID_52_);fill:url(#SVGID_53_);}
	.st321{fill-rule:evenodd;clip-rule:evenodd;fill:#F3AF8F;}
	.st322{fill-rule:evenodd;clip-rule:evenodd;fill:#6E2D5F;}
	.st323{fill-rule:evenodd;clip-rule:evenodd;fill:#4D1942;}
	.st324{fill-rule:evenodd;clip-rule:evenodd;fill:#101841;}
	.st325{fill-rule:evenodd;clip-rule:evenodd;fill:#144984;}
	.st326{fill-rule:evenodd;clip-rule:evenodd;fill:#35AD82;}
	.st327{fill-rule:evenodd;clip-rule:evenodd;fill:#198C67;}
	.st328{fill-rule:evenodd;clip-rule:evenodd;fill:#F6C1C5;}
	.st329{fill-rule:evenodd;clip-rule:evenodd;fill:#53B9E9;}
	.st330{fill-rule:evenodd;clip-rule:evenodd;fill:#7DD3F7;}
	.st331{clip-path:url(#SVGID_55_);fill:url(#SVGID_56_);}
	.st332{clip-path:url(#SVGID_58_);fill:url(#SVGID_59_);}
	.st333{fill-rule:evenodd;clip-rule:evenodd;fill:#3DB4E8;}
	.st334{clip-path:url(#SVGID_61_);fill:url(#SVGID_62_);}
	.st335{fill-rule:evenodd;clip-rule:evenodd;fill:#F4FBFE;}
	.st336{fill-rule:evenodd;clip-rule:evenodd;fill:#F4B1B1;}
	.st337{fill-rule:evenodd;clip-rule:evenodd;fill:#D4EAD8;}
	.st338{fill-rule:evenodd;clip-rule:evenodd;fill:#E16C6C;}
	.st339{clip-path:url(#SVGID_64_);fill:url(#SVGID_65_);}
	.st340{clip-path:url(#SVGID_67_);fill:url(#SVGID_68_);}
	.st341{clip-path:url(#SVGID_70_);fill:url(#SVGID_71_);}
	.st342{clip-path:url(#SVGID_73_);fill:url(#SVGID_74_);}
	.st343{clip-path:url(#SVGID_76_);fill:url(#SVGID_77_);}
	.st344{fill-rule:evenodd;clip-rule:evenodd;fill:#316CB5;}
	.st345{clip-path:url(#SVGID_79_);fill:url(#SVGID_80_);}
	.st346{fill-rule:evenodd;clip-rule:evenodd;fill:#DF5D7B;}
	.st347{clip-path:url(#SVGID_82_);fill:url(#SVGID_83_);}
	.st348{fill-rule:evenodd;clip-rule:evenodd;fill:#2D572A;}
	.st349{clip-path:url(#SVGID_85_);fill:#60934D;}
	.st350{clip-path:url(#SVGID_87_);fill:url(#SVGID_88_);}
	.st351{clip-path:url(#SVGID_90_);fill:url(#SVGID_91_);}
	.st352{clip-path:url(#SVGID_93_);fill:url(#SVGID_94_);}
	.st353{fill:url(#SVGID_95_);}
	.st354{filter:url(#Adobe_OpacityMaskFilter_7_);}
	.st355{filter:url(#Adobe_OpacityMaskFilter_8_);}
	.st356{mask:url(#SVGID_96_);fill:url(#SVGID_97_);}
	.st357{fill:url(#SVGID_98_);}
	.st358{fill:none;stroke:#FFFFFF;stroke-miterlimit:10;}
	.st359{fill:url(#SVGID_99_);}
	.st360{filter:url(#Adobe_OpacityMaskFilter_9_);}
	.st361{filter:url(#Adobe_OpacityMaskFilter_10_);}
	.st362{mask:url(#SVGID_100_);fill:url(#SVGID_101_);}
	.st363{fill:url(#SVGID_102_);}
	.st364{fill:url(#SVGID_103_);}
	.st365{filter:url(#Adobe_OpacityMaskFilter_11_);}
	.st366{filter:url(#Adobe_OpacityMaskFilter_12_);}
	.st367{mask:url(#SVGID_104_);fill:url(#SVGID_105_);}
	.st368{fill:url(#SVGID_106_);}
	.st369{fill:url(#SVGID_107_);}
	.st370{filter:url(#Adobe_OpacityMaskFilter_13_);}
	.st371{filter:url(#Adobe_OpacityMaskFilter_14_);}
	.st372{mask:url(#SVGID_108_);fill:url(#SVGID_109_);}
	.st373{fill:url(#SVGID_110_);}
	.st374{fill:url(#SVGID_111_);}
	.st375{fill:url(#SVGID_112_);}
	.st376{fill:url(#SVGID_113_);}
	.st377{fill:url(#SVGID_114_);}
	.st378{fill:url(#SVGID_115_);}
	.st379{fill:url(#SVGID_116_);}
	.st380{fill:#FBC5B4;}
	.st381{fill:url(#SVGID_117_);}
	.st382{fill:url(#SVGID_118_);}
	.st383{filter:url(#Adobe_OpacityMaskFilter_15_);}
	.st384{filter:url(#Adobe_OpacityMaskFilter_16_);}
	.st385{mask:url(#SVGID_119_);fill:url(#SVGID_120_);}
	.st386{fill:url(#SVGID_121_);}
	.st387{fill:url(#SVGID_122_);}
	.st388{filter:url(#Adobe_OpacityMaskFilter_17_);}
	.st389{filter:url(#Adobe_OpacityMaskFilter_18_);}
	.st390{mask:url(#SVGID_123_);fill:url(#SVGID_124_);}
	.st391{fill:url(#SVGID_125_);}
	.st392{fill:url(#SVGID_126_);}
	.st393{fill:#F69575;}
	.st394{fill:url(#SVGID_127_);}
	.st395{fill:url(#SVGID_128_);}
	.st396{fill:url(#SVGID_129_);}
	.st397{fill:url(#SVGID_130_);}
	.st398{fill:url(#SVGID_131_);}
	.st399{fill:#F05253;}
	.st400{fill:#ED1C24;}
	.st401{fill:url(#SVGID_132_);}
	.st402{fill:url(#SVGID_133_);}
	.st403{fill:url(#SVGID_134_);}
	.st404{fill:url(#SVGID_135_);}
	.st405{fill:url(#SVGID_136_);}
	.st406{fill:url(#SVGID_137_);}
	.st407{fill:#FDC78D;}
	.st408{fill:#FFD10A;}
	.st409{fill:url(#SVGID_138_);}
	.st410{fill:url(#SVGID_139_);}
	.st411{fill:url(#SVGID_140_);}
	.st412{fill:#6899D1;}
	.st413{fill:#F4F4F4;}
	.st414{fill:#DAEEF6;}
	.st415{fill:url(#SVGID_141_);}
	.st416{fill:#85CEC1;}
	.st417{fill:url(#SVGID_142_);}
	.st418{fill:#F37878;}
	.st419{fill:url(#SVGID_143_);}
	.st420{fill:url(#SVGID_144_);}
	.st421{fill:url(#SVGID_145_);}
	.st422{fill:url(#SVGID_146_);}
	.st423{fill:url(#SVGID_147_);}
	.st424{fill:url(#SVGID_148_);}
	.st425{fill:url(#SVGID_149_);}
	.st426{fill:url(#SVGID_150_);}
	.st427{fill:url(#SVGID_151_);}
	.st428{fill:url(#SVGID_152_);}
	.st429{fill:url(#SVGID_153_);}
	.st430{fill:#F0EFEF;}
	.st431{fill:#DBD7D7;}
	.st432{fill:#63C7D3;}
	.st433{opacity:0.5;fill:#63C7D3;}
	.st434{fill:#E6E7F4;}
	.st435{fill:#23214D;}
	.st436{fill:#283996;}
	.st437{fill:#1B193A;}
	.st438{fill:#F68D63;}
	.st439{fill:#F9A575;}
	.st440{fill:#FEDA04;}
	.st441{fill:#312126;}
	.st442{fill:#F15F4B;}
	.st443{fill:#F15834;}
	.st444{fill:#EC4524;}
	.st445{fill:#F26B76;}
	.st446{fill:#4D5BA9;}
	.st447{fill:#2D327E;}
	.st448{fill:#39469D;}
	.st449{fill:#9AC181;}
	.st450{fill:#7ED0DC;}
	.st451{display:none;}
	.st452{display:inline;fill:#F9A575;}
	.st453{display:inline;}
	.st454{fill:#673A3C;}
	.st455{fill:#794447;}
	.st456{fill:#47222C;}
	.st457{fill:#29275C;}
	.st458{fill:#57B0B9;}
	.st459{fill:#EF434E;}
	.st460{fill:#E24826;}
	.st461{fill:#4754A5;}
	.st462{fill:#B6C153;}
	.st463{fill:#DD4361;}
	.st464{fill:#FBB67B;}
	.st465{fill:#F6EEEA;}
	.st466{fill:#251D1C;}
	.st467{fill:#E0B895;}
	.st468{fill:#DFB793;}
	.st469{fill:#B8A79D;}
	.st470{fill:#9B93C7;}
	.st471{fill:#6A8037;}
	.st472{fill:#E9633E;}
	.st473{fill:#F6936F;}
	.st474{fill:#DBD8EC;}
	.st475{fill:#221A19;}
	.st476{fill:#382621;}
	.st477{fill:#F7EFEC;}
	.st478{fill:#FBB67C;}
	.st479{font-family:'SVN-GilroySemiBold';}
	.st480{font-size:5px;}
	.st481{fill:#70CACA;}
	.st482{fill:#004669;}
	.st483{fill:#33ADA9;}
	.st484{fill:#EE777A;}
	.st485{fill:#C3E8F0;}
	.st486{fill:#C39C44;}
	.st487{fill:#FFE6B0;}
	.st488{fill:#FFCB5D;}
	.st489{fill:#D2EDF5;}
	.st490{fill:none;stroke:#D2EDF5;stroke-width:2.2824;stroke-miterlimit:10;}
	.st491{fill:#0F4672;}
	.st492{fill:#92B779;}
	.st493{fill:#D47C60;}
	.st494{fill:#054A6E;}
	.st495{fill:#2B9996;}
	.st496{fill:#CAE9EB;}
	.st497{fill:#F7A581;}
	.st498{fill:#F18D24;}
	.st499{fill:#CF7929;}
	.st500{fill:#182F40;}
	.st501{fill:#0E1B2D;}
	.st502{fill:#406E34;}
	.st503{fill:#3B83B0;}
	.st504{fill:#3B3F4A;}
	.st505{fill:#242930;}
	.st506{fill:#FBD165;}
	.st507{fill:#FCB017;}
	.st508{fill:#155567;}
	.st509{fill:#236A7E;}
	.st510{fill:#3096B3;}
	.st511{fill:#84D2F6;}
	.st512{fill:#C4E4F8;}
	.st513{fill:#FCB774;}
	.st514{fill:#FAA31B;}
	.st515{fill:#E38D25;}
	.st516{fill:#AADFF3;}
	.st517{fill:#126E84;}
	.st518{fill:#064A56;}
	.st519{fill:#096D84;}
	.st520{fill:#D3CED9;}
	.st521{fill:#D89466;}
	.st522{fill:#FAA61A;}
	.st523{fill:#AA6549;}
	.st524{fill:#B35143;}
	.st525{fill:#3B3E54;}
	.st526{fill:#8A432D;}
	.st527{fill:#4C2F2C;}
	.st528{fill:#3C1C19;}
	.st529{fill:#9889C1;}
	.st530{fill:#CC8759;}
	.st531{fill:#665DA9;}
	.st532{fill:#5C2B20;}
	.st533{fill:#F4F5F0;}
	.st534{fill:#E04A95;}
	.st535{fill:#BC6944;}
	.st536{fill:#673021;}
	.st537{fill:#C4C2DF;}
	.st538{fill:#342B29;}
	.st539{fill:#E69F6F;}
	.st540{fill:#F173AC;}
	.st541{fill:#FAA43A;}
	.st542{fill:#F7F7FA;}
	.st543{fill:#3F4076;}
	.st544{fill:#5CA4DA;}
	.st545{fill:#BBD071;}
	.st546{fill:#97A33B;}
	.st547{fill:#49763A;}
	.st548{fill:#E5F2FC;}
	.st549{opacity:0.85;}
	.st550{fill:#4692CF;}
	.st551{fill:#0E2D3D;}
	.st552{fill:#5478B4;}
	.st553{fill:#5B83C3;}
	.st554{fill:#304664;}
	.st555{fill:#364D71;}
	.st556{fill:#2C3B57;}
	.st557{fill:#D5D8E8;}
	.st558{opacity:0.82;}
	.st559{fill:#418ECC;}
	.st560{fill:#173342;}
	.st561{fill:#295274;}
	.st562{fill:#F47D58;}
	.st563{fill:#183C59;}
	.st564{fill:#616262;}
	.st565{fill:#E0CFC8;}
	.st566{fill:#64A8DC;}
	.st567{opacity:0.66;}
	.st568{fill:#CBE1F5;}
	.st569{fill:#8CB6E1;}
	.st570{fill:#B5D3EF;}
	.st571{fill:#B8D8F2;}
	.st572{fill:#92B4DF;}
	.st573{fill:#BBDDDE;}
	.st574{fill:#D1ECED;}
	.st575{fill:#C8CBE2;}
	.st576{fill:#669AD2;}
	.st577{fill:#4D84C5;}
	.st578{fill:#181C4D;}
	.st579{fill:#EFBBBB;}
	.st580{fill:#F9CBCB;}
	.st581{fill:#2B3874;}
	.st582{fill:#EBAEAD;}
	.st583{fill:#21295D;}
	.st584{fill:#31344D;}
	.st585{fill:#FCD4D1;}
	.st586{fill:#B95050;}
	.st587{fill:#FEE9E2;}
	.st588{fill:#181A2E;}
	.st589{fill:#EB9B9C;}
	.st590{fill:#F9B7B3;}
	.st591{fill:#444C86;}
	.st592{fill:#2B3367;}
	.st593{fill:#93BAE3;}
	.st594{fill:#4B80C1;}
	.st595{fill:#396CAD;}
	.st596{fill:#C0D9F1;}
	.st597{fill:#F9B4AF;}
	.st598{fill:#4E88C7;}
	.st599{fill:#195595;}
	.st600{fill:#D9475A;}
	.st601{fill:#1172BA;}
	.st602{fill:#247BBC;}
	.st603{fill:#FAA71F;}
	.st604{fill:#D55127;}
	.st605{fill:none;stroke:#212F57;stroke-width:0.925;stroke-miterlimit:10;}
	.st606{fill:#212F57;}
	.st607{opacity:0.5;fill:#838DC5;}
	.st608{fill:#F2C7BD;}
	.st609{fill:none;stroke:#212F57;stroke-width:1.2665;stroke-linecap:round;stroke-linejoin:round;stroke-miterlimit:10;}
	.st610{fill:#272A41;}
	.st611{fill:none;stroke:#E8B1C3;stroke-width:2.5241;stroke-miterlimit:10;}
	.st612{fill:#5160A5;}
	.st613{opacity:0.5;fill:#D55127;}
	.st614{opacity:0.5;fill:#DA8727;}
	.st615{opacity:0.7;}
	.st616{fill:#DA8727;}
	.st617{fill:#A3BDE3;}
	.st618{fill:#1B7A84;}
	.st619{fill:#B1D2EF;}
	.st620{fill:#F8ACAD;}
	.st621{opacity:0.63;}
	.st622{clip-path:url(#SVGID_155_);}
	.st623{fill:#D7E7F6;}
	.st624{clip-path:url(#SVGID_157_);}
	.st625{clip-path:url(#SVGID_159_);}
	.st626{clip-path:url(#SVGID_161_);}
	.st627{clip-path:url(#SVGID_163_);}
	.st628{clip-path:url(#SVGID_165_);}
	.st629{clip-path:url(#SVGID_167_);}
	.st630{clip-path:url(#SVGID_169_);}
	.st631{clip-path:url(#SVGID_171_);}
	.st632{clip-path:url(#SVGID_173_);}
	.st633{clip-path:url(#SVGID_175_);}
	.st634{clip-path:url(#SVGID_177_);}
	.st635{clip-path:url(#SVGID_179_);}
	.st636{clip-path:url(#SVGID_181_);}
	.st637{clip-path:url(#SVGID_183_);}
	.st638{clip-path:url(#SVGID_185_);}
	.st639{clip-path:url(#SVGID_187_);}
	.st640{clip-path:url(#SVGID_189_);}
	.st641{clip-path:url(#SVGID_191_);}
	.st642{clip-path:url(#SVGID_193_);}
	.st643{clip-path:url(#SVGID_195_);}
	.st644{fill:#89B2DF;}
	.st645{fill:#4377BC;}
	.st646{fill:#DA6566;}
	.st647{fill:#F58E92;}
	.st648{fill-rule:evenodd;clip-rule:evenodd;fill:#4DB5D1;}
	.st649{fill:#F15C60;}
	.st650{fill:#FFD574;}
	.st651{fill:#F2B892;}
	.st652{fill:#EB836C;}
	.st653{fill:url(#SVGID_196_);}
	.st654{fill:#222C55;}
	.st655{fill:#4551A3;}
	.st656{fill:url(#SVGID_197_);}
	.st657{fill:#0B3C5F;}
	.st658{fill:#F8A187;}
	.st659{fill:#F4B68F;}
	.st660{fill:#232850;}
	.st661{fill:#306D9E;}
	.st662{fill:#255981;}
	.st663{fill:#F69E83;}
	.st664{fill:#0B3D60;}
	.st665{opacity:0.45;fill:#89B2DF;}
	.st666{filter:url(#Adobe_OpacityMaskFilter_19_);}
	.st667{filter:url(#Adobe_OpacityMaskFilter_20_);}
	.st668{mask:url(#SVGID_198_);fill:url(#SVGID_199_);}
	.st669{opacity:0.33;fill:#AADFF3;}
	.st670{filter:url(#Adobe_OpacityMaskFilter_21_);}
	.st671{filter:url(#Adobe_OpacityMaskFilter_22_);}
	.st672{mask:url(#SVGID_200_);fill:url(#SVGID_201_);}
	.st673{filter:url(#Adobe_OpacityMaskFilter_23_);}
	.st674{filter:url(#Adobe_OpacityMaskFilter_24_);}
	.st675{mask:url(#SVGID_202_);fill:url(#SVGID_203_);}
	.st676{fill:#CFD8EE;}
	.st677{fill:#E3E6F4;}
	.st678{fill:#ABBADF;}
	.st679{fill:#C3CCE8;}
	.st680{fill:url(#SVGID_204_);}
	.st681{fill:url(#SVGID_205_);}
	.st682{fill:#D3D0E9;}
	.st683{fill:#078BBF;}
	.st684{fill:#057B97;}
	.st685{fill:url(#SVGID_206_);}
	.st686{fill:#C74534;}
	.st687{fill:#F27B66;}
	.st688{fill:#58449B;}
	.st689{fill:#6B52A2;}
	.st690{fill:#A9A6D2;}
	.st691{fill:#C4C0E0;}
	.st692{opacity:0.33;}
	.st693{opacity:0.23;fill:url(#SVGID_207_);}
	.st694{opacity:0.36;fill:url(#SVGID_208_);}
	.st695{opacity:0.36;fill:url(#SVGID_209_);}
	.st696{opacity:0.23;fill:url(#SVGID_210_);}
	.st697{fill:#D8E0F2;}
	.st698{opacity:0.36;fill:url(#SVGID_211_);}
	.st699{opacity:0.42;fill:url(#SVGID_212_);}
	.st700{fill:#F6F9FD;}
	.st701{fill:#049AC9;}
	.st702{fill:#E0E0E0;}
	.st703{fill:#EBEBEB;}
	.st704{fill:none;stroke:#F2A59D;stroke-width:0.05;stroke-miterlimit:10;}
	.st705{fill:#FAFBFB;}
	.st706{fill:#E7515B;}
	.st707{fill:#CFCFCE;}
	.st708{fill:#FBBD9D;}
	.st709{fill:#EC996F;}
	.st710{opacity:0.6;fill:#FFFFFF;}
	.st711{opacity:0.6;}
	.st712{fill:#263238;}
	.st713{fill:#455B64;}
	.st714{fill:none;stroke:#43494E;stroke-miterlimit:10;}
	.st715{fill:#F5F5F5;}
	.st716{fill:#F3725F;}
	.st717{opacity:0;}
	.st718{clip-path:url(#SVGID_214_);}
	.st719{fill:#C9D8EF;}
	.st720{clip-path:url(#SVGID_216_);}
	.st721{clip-path:url(#SVGID_218_);}
	.st722{clip-path:url(#SVGID_220_);}
	.st723{clip-path:url(#SVGID_222_);}
	.st724{clip-path:url(#SVGID_224_);}
	.st725{clip-path:url(#SVGID_226_);}
	.st726{clip-path:url(#SVGID_228_);}
	.st727{clip-path:url(#SVGID_230_);}
	.st728{clip-path:url(#SVGID_232_);}
	.st729{clip-path:url(#SVGID_234_);}
	.st730{clip-path:url(#SVGID_236_);}
	.st731{clip-path:url(#SVGID_238_);}
	.st732{clip-path:url(#SVGID_240_);}
	.st733{clip-path:url(#SVGID_242_);}
	.st734{clip-path:url(#SVGID_244_);}
	.st735{clip-path:url(#SVGID_246_);}
	.st736{clip-path:url(#SVGID_248_);}
	.st737{clip-path:url(#SVGID_250_);}
	.st738{clip-path:url(#SVGID_252_);}
	.st739{clip-path:url(#SVGID_254_);}
	.st740{fill:#59595B;}
	.st741{fill:#EDF7F7;}
	.st742{fill:#FDD247;}
	.st743{fill:#1D2040;}
	.st744{fill:url(#SVGID_255_);}
	.st745{fill:#F89A45;}
	.st746{fill:#4F2E1F;}
	.st747{fill:#AEADAD;}
	.st748{fill:#3C2116;}
	.st749{fill:#76696D;}
	.st750{fill:#DFB0B4;}
	.st751{fill:#0E4363;}
	.st752{fill:#F8F6F1;}
	.st753{fill:#A4BAE1;}
	.st754{fill:#4D1F38;}
	.st755{fill:#3A1528;}
	.st756{fill:#746875;}
	.st757{fill:#DAADD1;}
	.st758{fill:url(#SVGID_256_);}
	.st759{fill:#CD3570;}
	.st760{fill:url(#SVGID_257_);}
	.st761{fill:url(#SVGID_258_);}
	.st762{fill:#A09F9F;}
	.st763{fill:none;stroke:#FFFFFF;stroke-linecap:round;stroke-miterlimit:10;}
	.st764{fill:none;stroke:#FFFFFF;stroke-linecap:round;stroke-linejoin:round;stroke-miterlimit:10;}
	.st765{fill:none;stroke:#A09F9F;stroke-miterlimit:10;}
	.st766{fill:#7B553A;}
	.st767{fill:#5F422D;}
	.st768{fill:#FDB839;}
	.st769{fill:#401B0F;}
	.st770{fill:#034B4E;}
	.st771{opacity:0.36;}
	.st772{opacity:0.1;fill:#CFCFCE;}
	.st773{opacity:0.15;}
	.st774{fill:#FBB781;}
	.st775{fill:#49A8D5;}
	.st776{fill:#077679;}
	.st777{opacity:0.1;}
	.st778{fill:#BEE0C0;}
	.st779{opacity:0.23;fill:#245C74;}
	.st780{fill:#245C74;}
	.st781{fill:#FCC69B;}
	.st782{fill:#DBA285;}
	.st783{fill:#757576;}
	.st784{fill:#ABABAA;}
	.st785{fill:#6F6F71;}
	.st786{fill:#FFCA70;}
	.st787{fill:#FAA325;}
	.st788{fill:none;stroke:#077679;stroke-width:0.25;stroke-linecap:round;stroke-linejoin:round;stroke-miterlimit:10;}
	.st789{fill:#963A20;}
	.st790{fill:#E2E2E2;}
	.st791{fill:#18184B;}
	.st792{fill:#F8B6C9;}
	.st793{fill:#F58531;}
	.st794{fill:#759CD2;}
	.st795{fill:#BACFEB;}
</style>
<g>
	<g>
		<g>
			<path class="st462" d="M13.81,84.31c2.64,0,4.77-2.14,4.77-4.77V24.98c0-2.64-2.14-4.77-4.77-4.77c-2.64,0-4.77,2.14-4.77,4.77
				v54.56C9.04,82.18,11.18,84.31,13.81,84.31z"/>
		</g>
		<g>
			<path class="st3" d="M10.35,77.29c0.08,0,0.14-0.06,0.14-0.14V24.82c0-1.9,1.54-3.44,3.44-3.44c0.08,0,0.14-0.06,0.14-0.14
				c0-0.08-0.06-0.14-0.14-0.14c-2.05,0-3.72,1.67-3.72,3.72v52.34C10.22,77.23,10.28,77.29,10.35,77.29z"/>
		</g>
		<g>
			<g>
				<path class="st3" d="M14.6,21.42c0.07,0,0.12-0.05,0.14-0.12c0.01-0.07-0.04-0.15-0.11-0.16c-0.18-0.03-0.38-0.04-0.57-0.04
					c-0.08,0-0.14,0.06-0.14,0.14c0,0.08,0.06,0.14,0.14,0.14c0.18,0,0.36,0.01,0.53,0.04C14.59,21.42,14.59,21.42,14.6,21.42z"/>
			</g>
			<g>
				<path class="st3" d="M17.5,75.49v-1.12c0-0.08,0.06-0.14,0.14-0.14c0.08,0,0.14,0.06,0.14,0.14v1.12c0,0.08-0.06,0.14-0.14,0.14
					C17.56,75.62,17.5,75.56,17.5,75.49z M17.5,73.26v-1.11c0-0.08,0.06-0.14,0.14-0.14c0.08,0,0.14,0.06,0.14,0.14v1.11
					c0,0.08-0.06,0.14-0.14,0.14C17.56,73.39,17.5,73.33,17.5,73.26z M17.5,71.03v-1.11c0-0.08,0.06-0.14,0.14-0.14
					c0.08,0,0.14,0.06,0.14,0.14v1.11c0,0.08-0.06,0.14-0.14,0.14C17.56,71.16,17.5,71.1,17.5,71.03z M17.5,68.8v-1.12
					c0-0.08,0.06-0.14,0.14-0.14c0.08,0,0.14,0.06,0.14,0.14v1.12c0,0.08-0.06,0.14-0.14,0.14C17.56,68.93,17.5,68.87,17.5,68.8z
					 M17.5,66.57v-1.12c0-0.08,0.06-0.14,0.14-0.14c0.08,0,0.14,0.06,0.14,0.14v1.12c0,0.08-0.06,0.14-0.14,0.14
					C17.56,66.7,17.5,66.64,17.5,66.57z M17.5,64.34v-1.11c0-0.08,0.06-0.14,0.14-0.14c0.08,0,0.14,0.06,0.14,0.14v1.11
					c0,0.08-0.06,0.14-0.14,0.14C17.56,64.47,17.5,64.41,17.5,64.34z M17.5,62.11v-1.11c0-0.08,0.06-0.14,0.14-0.14
					c0.08,0,0.14,0.06,0.14,0.14v1.11c0,0.08-0.06,0.14-0.14,0.14C17.56,62.24,17.5,62.18,17.5,62.11z M17.5,59.88v-1.12
					c0-0.08,0.06-0.14,0.14-0.14c0.08,0,0.14,0.06,0.14,0.14v1.12c0,0.08-0.06,0.14-0.14,0.14C17.56,60.02,17.5,59.96,17.5,59.88z
					 M17.5,57.65v-1.11c0-0.08,0.06-0.14,0.14-0.14c0.08,0,0.14,0.06,0.14,0.14v1.11c0,0.08-0.06,0.14-0.14,0.14
					C17.56,57.79,17.5,57.73,17.5,57.65z M17.5,55.42V54.3c0-0.08,0.06-0.14,0.14-0.14c0.08,0,0.14,0.06,0.14,0.14v1.11
					c0,0.08-0.06,0.14-0.14,0.14C17.56,55.56,17.5,55.5,17.5,55.42z M17.5,53.19v-1.11c0-0.08,0.06-0.14,0.14-0.14
					c0.08,0,0.14,0.06,0.14,0.14v1.11c0,0.08-0.06,0.14-0.14,0.14C17.56,53.33,17.5,53.27,17.5,53.19z M17.5,50.96v-1.12
					c0-0.08,0.06-0.14,0.14-0.14c0.08,0,0.14,0.06,0.14,0.14v1.12c0,0.08-0.06,0.14-0.14,0.14C17.56,51.1,17.5,51.04,17.5,50.96z
					 M17.5,48.73v-1.11c0-0.08,0.06-0.14,0.14-0.14c0.08,0,0.14,0.06,0.14,0.14v1.11c0,0.08-0.06,0.14-0.14,0.14
					C17.56,48.87,17.5,48.81,17.5,48.73z M17.5,46.5v-1.11c0-0.08,0.06-0.14,0.14-0.14c0.08,0,0.14,0.06,0.14,0.14v1.11
					c0,0.08-0.06,0.14-0.14,0.14C17.56,46.64,17.5,46.58,17.5,46.5z M17.5,44.27v-1.12c0-0.08,0.06-0.14,0.14-0.14
					c0.08,0,0.14,0.06,0.14,0.14v1.12c0,0.08-0.06,0.14-0.14,0.14C17.56,44.41,17.5,44.35,17.5,44.27z M17.5,42.04v-1.12
					c0-0.08,0.06-0.14,0.14-0.14c0.08,0,0.14,0.06,0.14,0.14v1.12c0,0.08-0.06,0.14-0.14,0.14C17.56,42.18,17.5,42.12,17.5,42.04z
					 M17.5,39.81V38.7c0-0.08,0.06-0.14,0.14-0.14c0.08,0,0.14,0.06,0.14,0.14v1.11c0,0.08-0.06,0.14-0.14,0.14
					C17.56,39.95,17.5,39.89,17.5,39.81z M17.5,37.58v-1.11c0-0.08,0.06-0.14,0.14-0.14c0.08,0,0.14,0.06,0.14,0.14v1.11
					c0,0.08-0.06,0.14-0.14,0.14C17.56,37.72,17.5,37.66,17.5,37.58z M17.5,35.35v-1.12c0-0.08,0.06-0.14,0.14-0.14
					c0.08,0,0.14,0.06,0.14,0.14v1.12c0,0.08-0.06,0.14-0.14,0.14C17.56,35.49,17.5,35.43,17.5,35.35z M17.5,33.12v-1.12
					c0-0.08,0.06-0.14,0.14-0.14c0.08,0,0.14,0.06,0.14,0.14v1.12c0,0.08-0.06,0.14-0.14,0.14C17.56,33.26,17.5,33.2,17.5,33.12z
					 M17.5,30.89v-1.11c0-0.08,0.06-0.14,0.14-0.14c0.08,0,0.14,0.06,0.14,0.14v1.11c0,0.08-0.06,0.14-0.14,0.14
					C17.56,31.03,17.5,30.97,17.5,30.89z M17.5,28.66v-1.11c0-0.08,0.06-0.14,0.14-0.14c0.08,0,0.14,0.06,0.14,0.14v1.11
					c0,0.08-0.06,0.14-0.14,0.14C17.56,28.8,17.5,28.74,17.5,28.66z M17.5,26.43v-1.12c0-0.08,0.06-0.14,0.14-0.14
					c0.08,0,0.14,0.06,0.14,0.14v1.12c0,0.08-0.06,0.14-0.14,0.14C17.56,26.57,17.5,26.51,17.5,26.43z M17.44,24.23
					c-0.06-0.35-0.18-0.69-0.34-1.01c-0.03-0.07-0.01-0.15,0.06-0.18c0.07-0.03,0.15-0.01,0.19,0.06c0.18,0.34,0.3,0.71,0.37,1.09
					c0.01,0.07-0.04,0.15-0.11,0.16c-0.01,0-0.02,0-0.02,0C17.51,24.34,17.46,24.3,17.44,24.23z M16.47,22.36
					c-0.26-0.25-0.55-0.46-0.87-0.62c-0.07-0.03-0.09-0.12-0.06-0.18c0.03-0.07,0.12-0.1,0.18-0.06c0.35,0.17,0.66,0.4,0.94,0.67
					c0.05,0.05,0.06,0.14,0,0.19c-0.03,0.03-0.06,0.04-0.1,0.04C16.53,22.4,16.49,22.39,16.47,22.36z"/>
			</g>
			<g>
				<path class="st3" d="M17.63,77.29c0.08,0,0.14-0.06,0.14-0.14v-0.55c0-0.08-0.06-0.14-0.14-0.14c-0.08,0-0.14,0.06-0.14,0.14
					v0.55C17.5,77.23,17.56,77.29,17.63,77.29z"/>
			</g>
		</g>
		<g>
			<path class="st3" d="M13.89,80.16c0.08,0,0.14-0.06,0.14-0.14V25.45c0-0.08-0.06-0.14-0.14-0.14c-0.08,0-0.14,0.06-0.14,0.14
				v54.57C13.76,80.1,13.82,80.16,13.89,80.16z"/>
		</g>
		<g>
			<path class="st462" d="M16.84,72.31h7.32c2.64,0,4.77-2.14,4.77-4.77V50.99c0-2.11-1.71-3.82-3.82-3.82l0,0
				c-2.11,0-3.82,1.71-3.82,3.82v14.58c0,1.37-1.11,2.49-2.49,2.49h-1.97V72.31z"/>
		</g>
		<g>
			<path class="st462" d="M9.88,66.7H5.13c-1.71,0-3.1-1.39-3.1-3.1V52.86c0-1.37,1.11-2.48,2.48-2.48l0,0
				c1.37,0,2.48,1.11,2.48,2.48v9.46c0,0.89,0.72,1.61,1.61,1.61h1.28V66.7z"/>
		</g>
		<g>
			<path class="st3" d="M17.44,70.38c0-0.08,0.06-0.14,0.14-0.14h1c0.08,0,0.14,0.06,0.14,0.14c0,0.08-0.06,0.14-0.14,0.14h-1
				C17.5,70.51,17.44,70.45,17.44,70.38z M19.54,70.38c0-0.08,0.06-0.14,0.14-0.14h0.82c0.09,0,0.18,0,0.27-0.01
				c0.08,0,0.14,0.05,0.15,0.13c0,0.08-0.05,0.14-0.13,0.15c-0.09,0.01-0.19,0.01-0.28,0.01h-0.82
				C19.6,70.51,19.54,70.45,19.54,70.38z M21.71,70.21c-0.02-0.07,0.02-0.15,0.09-0.17c0.34-0.11,0.66-0.26,0.96-0.44
				c0.07-0.04,0.15-0.02,0.19,0.04c0.04,0.06,0.02,0.15-0.04,0.19c-0.32,0.2-0.66,0.35-1.02,0.47c-0.01,0-0.03,0.01-0.04,0.01
				C21.79,70.31,21.73,70.27,21.71,70.21z M23.6,69.13c-0.05-0.05-0.06-0.14,0-0.19c0.25-0.25,0.47-0.54,0.64-0.84
				c0.04-0.07,0.12-0.09,0.19-0.05c0.07,0.04,0.09,0.12,0.05,0.19c-0.19,0.32-0.42,0.62-0.68,0.9c-0.03,0.03-0.06,0.04-0.1,0.04
				C23.66,69.17,23.62,69.16,23.6,69.13z M24.75,67.29c-0.07-0.02-0.11-0.1-0.09-0.17c0.1-0.34,0.16-0.69,0.17-1.05
				c0-0.08,0.07-0.14,0.14-0.13c0.08,0,0.13,0.07,0.13,0.14c-0.02,0.38-0.08,0.75-0.18,1.11c-0.02,0.06-0.07,0.1-0.13,0.1
				C24.78,67.3,24.76,67.29,24.75,67.29z M24.83,64.98v-1.1c0-0.08,0.06-0.14,0.14-0.14c0.08,0,0.14,0.06,0.14,0.14v1.1
				c0,0.08-0.06,0.14-0.14,0.14C24.89,65.12,24.83,65.06,24.83,64.98z M24.83,62.79v-1.1c0-0.08,0.06-0.14,0.14-0.14
				c0.08,0,0.14,0.06,0.14,0.14v1.1c0,0.08-0.06,0.14-0.14,0.14C24.89,62.93,24.83,62.87,24.83,62.79z M24.83,60.6v-1.1
				c0-0.08,0.06-0.14,0.14-0.14c0.08,0,0.14,0.06,0.14,0.14v1.1c0,0.08-0.06,0.14-0.14,0.14C24.89,60.74,24.83,60.68,24.83,60.6z
				 M24.83,58.41v-1.1c0-0.08,0.06-0.14,0.14-0.14c0.08,0,0.14,0.06,0.14,0.14v1.1c0,0.08-0.06,0.14-0.14,0.14
				C24.89,58.54,24.83,58.48,24.83,58.41z M24.83,56.21v-1.1c0-0.08,0.06-0.14,0.14-0.14c0.08,0,0.14,0.06,0.14,0.14v1.1
				c0,0.08-0.06,0.14-0.14,0.14C24.89,56.35,24.83,56.29,24.83,56.21z M24.83,54.02v-1.1c0-0.08,0.06-0.14,0.14-0.14
				c0.08,0,0.14,0.06,0.14,0.14v1.1c0,0.08-0.06,0.14-0.14,0.14C24.89,54.16,24.83,54.1,24.83,54.02z M24.83,51.83v-1.1
				c0-0.08,0.06-0.14,0.14-0.14c0.08,0,0.14,0.06,0.14,0.14v1.1c0,0.08-0.06,0.14-0.14,0.14C24.89,51.97,24.83,51.91,24.83,51.83z
				 M24.83,49.64v-1.1c0-0.08,0.06-0.14,0.14-0.14c0.08,0,0.14,0.06,0.14,0.14v1.1c0,0.08-0.06,0.14-0.14,0.14
				C24.89,49.77,24.83,49.71,24.83,49.64z"/>
		</g>
		<g>
			<path class="st3" d="M6.91,65.2C6.52,65.2,6.13,65.09,5.8,64.9c-0.07-0.04-0.09-0.12-0.05-0.19c0.04-0.07,0.12-0.09,0.19-0.05
				c0.3,0.17,0.64,0.26,0.98,0.27c0.08,0,0.14,0.06,0.13,0.14C7.04,65.14,6.98,65.2,6.91,65.2C6.91,65.2,6.91,65.2,6.91,65.2z
				 M7.87,65.07c0-0.08,0.06-0.14,0.14-0.14h1.1c0.08,0,0.14,0.06,0.14,0.14c0,0.08-0.06,0.14-0.14,0.14h-1.1
				C7.93,65.2,7.87,65.14,7.87,65.07z M4.96,64.1c-0.21-0.33-0.33-0.71-0.35-1.1c0-0.08,0.05-0.14,0.13-0.15
				c0.08,0,0.14,0.05,0.15,0.13c0.02,0.34,0.13,0.68,0.31,0.97c0.04,0.06,0.02,0.15-0.04,0.19c-0.02,0.01-0.05,0.02-0.07,0.02
				C5.04,64.16,4.99,64.14,4.96,64.1z M4.61,61.9v-1.1c0-0.08,0.06-0.14,0.14-0.14s0.14,0.06,0.14,0.14v1.1
				c0,0.08-0.06,0.14-0.14,0.14S4.61,61.97,4.61,61.9z M4.61,59.7v-1.1c0-0.08,0.06-0.14,0.14-0.14s0.14,0.06,0.14,0.14v1.1
				c0,0.08-0.06,0.14-0.14,0.14S4.61,59.78,4.61,59.7z M4.61,57.51v-1.1c0-0.08,0.06-0.14,0.14-0.14s0.14,0.06,0.14,0.14v1.1
				c0,0.08-0.06,0.14-0.14,0.14S4.61,57.59,4.61,57.51z M4.61,55.32v-1.1c0-0.08,0.06-0.14,0.14-0.14s0.14,0.06,0.14,0.14v1.1
				c0,0.08-0.06,0.14-0.14,0.14S4.61,55.4,4.61,55.32z M4.61,53.13v-1.1c0-0.08,0.06-0.14,0.14-0.14s0.14,0.06,0.14,0.14v1.1
				c0,0.08-0.06,0.14-0.14,0.14S4.61,53.2,4.61,53.13z"/>
		</g>
		<g>
			<path class="st463" d="M13.04,20.8c0,0-3.94-0.24-3.52-1.31c0.42-1.07,3.22,0.24,3.22,0.24s-1.79-3.22-0.95-3.58
				c0.84-0.36,2.33,3.34,2.33,3.34s0.06-5.13,1.31-5.13c1.25,0-0.3,5.43-0.3,5.43s1.91-1.13,2.39-0.78
				c0.48,0.36-1.79,2.03-1.79,2.03L13.04,20.8z"/>
		</g>
		<g>
			<path class="st463" d="M4.17,50.67c0,0-1.91-0.12-1.7-0.64c0.2-0.52,1.56,0.12,1.56,0.12s-0.87-1.56-0.46-1.73
				c0.4-0.17,1.13,1.62,1.13,1.62s0.03-2.48,0.64-2.48s-0.14,2.63-0.14,2.63s0.92-0.55,1.15-0.38c0.23,0.17-0.87,0.98-0.87,0.98
				L4.17,50.67z"/>
		</g>
		<g>
			<path class="st463" d="M24.93,47.41c0,0-1.91-0.12-1.7-0.64c0.2-0.52,1.56,0.12,1.56,0.12s-0.87-1.56-0.46-1.73
				c0.4-0.17,1.13,1.62,1.13,1.62s0.03-2.48,0.64-2.48c0.61,0-0.14,2.63-0.14,2.63s0.92-0.55,1.15-0.38
				c0.23,0.17-0.87,0.98-0.87,0.98L24.93,47.41z"/>
		</g>
		<g>
			<path class="st464" d="M3.16,76.52h21.79l0.54,8.63c0.31,4.89-3.58,9.03-8.48,9.03h-6.08c-4.96,0-8.87-4.24-8.47-9.18L3.16,76.52
				z"/>
		</g>
		<g>
			<g>
				<path class="st465" d="M2.6,83.35c0.33,0.1,0.66,0.19,0.98,0.33c0.72,0.32,1.37,0.73,2,1.13c0.33,0.21,0.65,0.41,0.99,0.6
					c2.95,1.7,6.54,2.19,9.84,1.34c0.57-0.15,1.12-0.33,1.68-0.51c0.49-0.16,0.99-0.32,1.49-0.46c1.91-0.53,3.92-0.7,5.91-0.58
					c0.04,0.65-0.01,1.28-0.11,1.9c-1.78-0.11-3.57,0.04-5.28,0.52c-0.47,0.13-0.94,0.29-1.41,0.44c-0.59,0.19-1.19,0.39-1.79,0.54
					c-1.22,0.31-2.47,0.46-3.71,0.46c-2.63,0-5.26-0.68-7.55-2c-0.36-0.21-0.71-0.43-1.06-0.65c-0.6-0.38-1.17-0.74-1.77-1
					c-0.11-0.05-0.22-0.08-0.32-0.12c0-0.1-0.02-0.2-0.01-0.3L2.6,83.35z"/>
			</g>
			<g>
				<path class="st465" d="M25.22,80.79c-0.96,0.15-1.92,0.35-2.85,0.67c-0.85,0.29-1.68,0.66-2.51,1.02
					c-0.86,0.38-1.72,0.75-2.6,1.06c-2.28,0.79-4.3,0.92-6.01,0.39c-1.21-0.37-2.22-1.06-3.2-1.72C7.73,82,7.41,81.78,7.08,81.58
					c-1.29-0.8-2.71-1.42-4.19-1.83l0.15-1.91c1.78,0.45,3.5,1.15,5.04,2.11c0.34,0.21,0.68,0.44,1.02,0.67
					c0.91,0.61,1.77,1.19,2.71,1.48c1.31,0.41,2.94,0.28,4.82-0.37c0.84-0.29,1.65-0.65,2.46-1c0.88-0.38,1.75-0.77,2.66-1.08
					c1.09-0.37,2.21-0.61,3.35-0.77L25.22,80.79z"/>
			</g>
		</g>
		<g>
			<path class="st466" d="M2.74,82.8C2.74,82.8,2.74,82.8,2.74,82.8c-0.06,0-0.11-0.05-0.1-0.11l0.39-6.13c0-0.05,0.05-0.1,0.1-0.1
				h16.64c0.06,0,0.1,0.05,0.1,0.1c0,0.06-0.05,0.1-0.1,0.1H3.23l-0.39,6.04C2.84,82.76,2.79,82.8,2.74,82.8z"/>
		</g>
	</g>
	<g>
		<g>
			<g>
				<path class="st467" d="M3.82,40.22H0.13C0.06,40.22,0,40.16,0,40.09V36.4c0-0.07,0.06-0.13,0.13-0.13h3.69
					c0.07,0,0.13,0.06,0.13,0.13v3.69C3.95,40.16,3.89,40.22,3.82,40.22z M0.26,39.96h3.43v-3.43H0.26V39.96z"/>
			</g>
		</g>
		<g>
			<g>
				<path class="st467" d="M1.71,39.4c-0.04,0-0.07-0.01-0.09-0.04L0.6,38.29c-0.05-0.05-0.05-0.13,0.01-0.18
					c0.05-0.05,0.13-0.05,0.18,0.01l0.91,0.96l1.64-2.18c0.04-0.06,0.12-0.07,0.18-0.03c0.06,0.04,0.07,0.12,0.03,0.18l-1.74,2.3
					C1.79,39.38,1.75,39.4,1.71,39.4L1.71,39.4z"/>
			</g>
		</g>
	</g>
	<g>
		<g>
			<g>
				<path class="st467" d="M111.28,33.53c-0.02,0-0.03,0-0.05-0.01l-1.07-0.57l-1.07,0.57c-0.04,0.02-0.08,0.02-0.11-0.01
					c-0.03-0.02-0.05-0.06-0.04-0.1l0.2-1.2l-0.87-0.85c-0.03-0.03-0.04-0.07-0.03-0.11c0.01-0.04,0.05-0.07,0.09-0.07l1.2-0.17
					l0.54-1.09c0.04-0.07,0.16-0.07,0.19,0l0.54,1.09l1.2,0.17c0.04,0.01,0.07,0.03,0.09,0.07c0.01,0.04,0,0.08-0.03,0.11
					l-0.87,0.85l0.2,1.2c0.01,0.04-0.01,0.08-0.04,0.1C111.32,33.52,111.3,33.53,111.28,33.53z M110.15,32.73
					c0.02,0,0.03,0,0.05,0.01l0.93,0.49l-0.18-1.04c-0.01-0.03,0.01-0.07,0.03-0.09l0.75-0.74l-1.04-0.15
					c-0.04,0-0.07-0.03-0.08-0.06l-0.47-0.94l-0.47,0.94c-0.02,0.03-0.05,0.05-0.08,0.06l-1.04,0.15l0.75,0.74
					c0.03,0.02,0.04,0.06,0.03,0.09l-0.18,1.04l0.93-0.49C110.12,32.73,110.14,32.73,110.15,32.73z"/>
			</g>
		</g>
	</g>
	<g>
		<g>
			<g>
				<path class="st467" d="M113.07,23.97c-0.04,0-0.08-0.02-0.1-0.05l-1.23-1.63h-4.86c-0.36,0-0.65-0.29-0.65-0.65v-4.08
					c0-0.36,0.29-0.65,0.65-0.65h6.55c0.36,0,0.65,0.29,0.65,0.65v4.08c0,0.36-0.29,0.65-0.65,0.65h-0.18l-0.05,1.56
					c0,0.05-0.04,0.1-0.09,0.12C113.1,23.96,113.08,23.97,113.07,23.97z M106.88,17.16c-0.21,0-0.39,0.17-0.39,0.39v4.08
					c0,0.21,0.17,0.39,0.39,0.39h4.93c0.04,0,0.08,0.02,0.1,0.05l1.04,1.39l0.04-1.32c0-0.07,0.06-0.13,0.13-0.13h0.3
					c0.21,0,0.39-0.17,0.39-0.39v-4.08c0-0.21-0.17-0.39-0.39-0.39H106.88z"/>
			</g>
		</g>
		<g>
			<path class="st467" d="M106.32,19.4h-1.48c-0.04,0-0.08,0.02-0.1,0.05l-1,1.34l-0.04-1.27c0-0.07-0.06-0.13-0.13-0.13h-0.28
				c-0.21,0-0.39-0.17-0.39-0.39v-3.93c0-0.21,0.17-0.39,0.39-0.39h6.32c0.21,0,0.39,0.17,0.39,0.39v1.94l0.26,0v-1.94
				c0-0.36-0.29-0.65-0.65-0.65h-6.32c-0.36,0-0.65,0.29-0.65,0.65v3.93c0,0.36,0.29,0.65,0.65,0.65h0.15l0.05,1.51
				c0,0.06,0.04,0.1,0.09,0.12c0.01,0,0.03,0.01,0.04,0.01c0.04,0,0.08-0.02,0.1-0.05l1.19-1.58h1.42L106.32,19.4z"/>
		</g>
	</g>
	<g>
		<g>
			<path class="st468" d="M12.89,11.44H4.12c-0.08,0-0.15-0.07-0.15-0.15V2.37c0-0.08,0.07-0.15,0.15-0.15h8.77
				c0.08,0,0.15,0.07,0.15,0.15v8.92C13.04,11.37,12.97,11.44,12.89,11.44z M4.27,11.13h8.47V2.52H4.27V11.13z"/>
		</g>
		<g>
			<g>
				<path class="st468" d="M12.26,9.18h-0.32c0-0.02,0-0.04,0-0.05L9.59,4.49c-0.03-0.06-0.1-0.1-0.16-0.1
					c-0.07,0-0.13,0.04-0.16,0.1l-1.4,2.78L6.99,6.61C6.95,6.57,6.9,6.56,6.85,6.57c-0.05,0.01-0.1,0.04-0.12,0.08L5.16,9.18H4.73
					c-0.1,0-0.18,0.08-0.18,0.18c0,0.1,0.08,0.18,0.18,0.18h7.53c0.1,0,0.18-0.08,0.18-0.18C12.44,9.26,12.36,9.18,12.26,9.18z
					 M6.93,7.02L7.81,7.7c0.04,0.03,0.1,0.05,0.15,0.03c0.05-0.01,0.1-0.05,0.12-0.1l1.34-2.65l2.11,4.2H5.59L6.93,7.02z"/>
			</g>
			<g>
				<path class="st468" d="M7.2,6.08c0.61,0,1.11-0.5,1.11-1.11S7.81,3.86,7.2,3.86c-0.61,0-1.11,0.5-1.11,1.11S6.59,6.08,7.2,6.08z
					 M7.2,4.23c0.41,0,0.74,0.33,0.74,0.74S7.61,5.71,7.2,5.71S6.46,5.38,6.46,4.97S6.79,4.23,7.2,4.23z"/>
			</g>
		</g>
	</g>
	<g>
		<g>
			<path class="st465" d="M76.2,0.23H28.47c-4,0-7.25,3.25-7.25,7.25v58.63c0,4,3.25,7.25,7.25,7.25H76.2c4,0,7.25-3.25,7.25-7.25
				V7.48C83.45,3.48,80.21,0.23,76.2,0.23z"/>
		</g>
		<g>
			<path class="st469" d="M74.08,25.43H29.47c-2.85,0-5.18-2.32-5.18-5.18s2.32-5.18,5.18-5.18h44.61c2.85,0,5.18,2.32,5.18,5.18
				S76.93,25.43,74.08,25.43z M29.47,15.45c-2.65,0-4.8,2.15-4.8,4.8s2.15,4.8,4.8,4.8h44.61c2.65,0,4.8-2.15,4.8-4.8
				s-2.15-4.8-4.8-4.8H29.47z"/>
		</g>
		<g>
			<path class="st469" d="M74.08,68.67H29.47c-2.85,0-5.18-2.32-5.18-5.18s2.32-5.18,5.18-5.18h44.61c2.85,0,5.18,2.32,5.18,5.18
				S76.93,68.67,74.08,68.67z M29.47,58.7c-2.65,0-4.8,2.15-4.8,4.8s2.15,4.8,4.8,4.8h44.61c2.65,0,4.8-2.15,4.8-4.8
				s-2.15-4.8-4.8-4.8H29.47z"/>
		</g>
		<g>
			<path class="st463" d="M74.08,29.55H29.47c-2.74,0-4.99,2.24-4.99,4.99l0,0c0,2.74,2.25,4.99,4.99,4.99h44.61
				c2.74,0,4.99-2.24,4.99-4.99l0,0C79.07,31.8,76.82,29.55,74.08,29.55z"/>
		</g>
		<g>
			<path class="st462" d="M74.36,43.84H29.19c-2.59,0-4.7,2.12-4.7,4.7v0.57c0,2.59,2.12,4.7,4.7,4.7h45.17c2.59,0,4.7-2.12,4.7-4.7
				v-0.57C79.07,45.96,76.95,43.84,74.36,43.84z"/>
		</g>
		<g>
			<path class="st229" d="M80.73,0.23H23.95c-1.51,0-2.73,1.22-2.73,2.73v9.06h62.23V2.96C83.45,1.45,82.23,0.23,80.73,0.23z"/>
		</g>
		<g>
			<path class="st470" d="M29.87,24.44c-2.33,0-4.22-1.89-4.22-4.22c0-2.33,1.89-4.22,4.22-4.22c2.33,0,4.22,1.89,4.22,4.22
				C34.09,22.55,32.2,24.44,29.87,24.44z M29.87,16.42c-2.1,0-3.8,1.71-3.8,3.8s1.71,3.8,3.8,3.8s3.8-1.71,3.8-3.8
				S31.97,16.42,29.87,16.42z"/>
		</g>
		<g>
			<path class="st470" d="M29.87,67.68c-2.33,0-4.22-1.89-4.22-4.22c0-2.33,1.89-4.22,4.22-4.22c2.33,0,4.22,1.89,4.22,4.22
				C34.09,65.79,32.2,67.68,29.87,67.68z M29.87,59.66c-2.1,0-3.8,1.71-3.8,3.8c0,2.1,1.71,3.8,3.8,3.8s3.8-1.71,3.8-3.8
				C33.67,61.37,31.97,59.66,29.87,59.66z"/>
		</g>
		<g>
			<circle class="st3" cx="29.87" cy="48.93" r="4.01"/>
		</g>
		<g>
			<circle class="st3" cx="29.87" cy="34.39" r="4.01"/>
		</g>
		<g>
			<path class="st463" d="M27.97,36.87c-0.09,0-0.18-0.03-0.26-0.09c-0.18-0.14-0.21-0.4-0.07-0.58l3.22-4.14
				c0.14-0.18,0.4-0.21,0.58-0.07c0.18,0.14,0.21,0.4,0.07,0.58l-3.22,4.14C28.22,36.82,28.09,36.87,27.97,36.87z"/>
		</g>
		<g>
			<path class="st463" d="M31.19,36.87c-0.12,0-0.25-0.06-0.33-0.16l-3.22-4.14c-0.14-0.18-0.11-0.44,0.07-0.58
				c0.18-0.14,0.44-0.11,0.58,0.07l3.22,4.14c0.14,0.18,0.11,0.44-0.07,0.58C31.37,36.84,31.28,36.87,31.19,36.87z"/>
		</g>
		<g>
			<path class="st471" d="M29.39,51.02c-0.12,0-0.23-0.05-0.31-0.14l-1.68-1.86c-0.15-0.17-0.14-0.43,0.03-0.59
				c0.17-0.15,0.43-0.14,0.59,0.03l1.32,1.47l2.02-2.95c0.13-0.19,0.39-0.24,0.58-0.11c0.19,0.13,0.24,0.39,0.11,0.58l-2.32,3.38
				c-0.07,0.11-0.19,0.17-0.32,0.18C29.4,51.02,29.4,51.02,29.39,51.02z"/>
		</g>
		<g>
			<path class="st470" d="M28.29,22.04H27.8l1.79-4.11H30l1.79,4.11H31.3l-0.45-1.08h-2.1L28.29,22.04z M28.9,20.57h1.78l-0.89-2.16
				L28.9,20.57z"/>
		</g>
		<g>
			<path class="st470" d="M28.3,61.26h1.37c0.26,0,0.51,0.04,0.77,0.13c0.26,0.09,0.49,0.21,0.7,0.39c0.21,0.17,0.37,0.39,0.5,0.64
				c0.13,0.26,0.19,0.56,0.19,0.9c0,0.34-0.06,0.64-0.19,0.9c-0.13,0.26-0.3,0.47-0.5,0.64c-0.21,0.17-0.44,0.3-0.7,0.39
				c-0.26,0.09-0.51,0.13-0.77,0.13H28.3V61.26z M28.72,64.99h0.81c0.31,0,0.59-0.05,0.82-0.14c0.23-0.09,0.42-0.22,0.57-0.38
				c0.15-0.16,0.27-0.33,0.34-0.53c0.07-0.2,0.11-0.41,0.11-0.62c0-0.21-0.04-0.42-0.11-0.62c-0.07-0.2-0.19-0.38-0.34-0.53
				c-0.15-0.16-0.34-0.28-0.57-0.38c-0.23-0.09-0.5-0.14-0.82-0.14h-0.81V64.99z"/>
		</g>
		<g>
			<path class="st469" d="M48.23,18.82H37.45c-0.23,0-0.42-0.19-0.42-0.42c0-0.23,0.19-0.42,0.42-0.42h10.78
				c0.23,0,0.42,0.19,0.42,0.42C48.65,18.64,48.46,18.82,48.23,18.82z"/>
		</g>
		<g>
			<path class="st469" d="M53,22.21H37.2c-0.23,0-0.42-0.19-0.42-0.42c0-0.23,0.19-0.42,0.42-0.42H53c0.23,0,0.42,0.19,0.42,0.42
				C53.41,22.02,53.23,22.21,53,22.21z"/>
		</g>
		<g>
			<path class="st469" d="M65.78,22.21H56c-0.23,0-0.42-0.19-0.42-0.42c0-0.23,0.19-0.42,0.42-0.42h9.78c0.23,0,0.42,0.19,0.42,0.42
				C66.2,22.02,66.01,22.21,65.78,22.21z"/>
		</g>
		<g>
			<path class="st469" d="M48.23,62.19H37.45c-0.23,0-0.42-0.19-0.42-0.42s0.19-0.42,0.42-0.42h10.78c0.23,0,0.42,0.19,0.42,0.42
				S48.46,62.19,48.23,62.19z"/>
		</g>
		<g>
			<path class="st469" d="M53,65.57H37.2c-0.23,0-0.42-0.19-0.42-0.42c0-0.23,0.19-0.42,0.42-0.42H53c0.23,0,0.42,0.19,0.42,0.42
				C53.41,65.39,53.23,65.57,53,65.57z"/>
		</g>
		<g>
			<path class="st469" d="M65.78,65.57H56c-0.23,0-0.42-0.19-0.42-0.42c0-0.23,0.19-0.42,0.42-0.42h9.78c0.23,0,0.42,0.19,0.42,0.42
				C66.2,65.39,66.01,65.57,65.78,65.57z"/>
		</g>
		<g>
			<path class="st3" d="M49.49,33.36H37.96c-0.23,0-0.42-0.19-0.42-0.42c0-0.23,0.19-0.42,0.42-0.42h11.53
				c0.23,0,0.42,0.19,0.42,0.42C49.9,33.18,49.72,33.36,49.49,33.36z"/>
		</g>
		<g>
			<path class="st3" d="M66.66,36.43h-28.7c-0.23,0-0.42-0.19-0.42-0.42c0-0.23,0.19-0.42,0.42-0.42h28.7
				c0.23,0,0.42,0.19,0.42,0.42C67.07,36.25,66.89,36.43,66.66,36.43z"/>
		</g>
		<g>
			<path class="st3" d="M63.9,33.36H52.37c-0.23,0-0.42-0.19-0.42-0.42c0-0.23,0.19-0.42,0.42-0.42H63.9c0.23,0,0.42,0.19,0.42,0.42
				C64.32,33.18,64.13,33.36,63.9,33.36z"/>
		</g>
		<g>
			<path class="st3" d="M48.42,47.65H36.89c-0.23,0-0.42-0.19-0.42-0.42s0.19-0.42,0.42-0.42h11.53c0.23,0,0.42,0.19,0.42,0.42
				S48.65,47.65,48.42,47.65z"/>
		</g>
		<g>
			<path class="st3" d="M65.59,50.72h-28.7c-0.23,0-0.42-0.19-0.42-0.42s0.19-0.42,0.42-0.42h28.7c0.23,0,0.42,0.19,0.42,0.42
				S65.82,50.72,65.59,50.72z"/>
		</g>
		<g>
			<path class="st3" d="M62.84,47.65H51.3c-0.23,0-0.42-0.19-0.42-0.42s0.19-0.42,0.42-0.42h11.53c0.23,0,0.42,0.19,0.42,0.42
				S63.07,47.65,62.84,47.65z"/>
		</g>
	</g>
	<g>
		<g>
			<path class="st466" d="M61.49,49.14c-1.09,1.4,6.68,1.57,8.4,3.53c1.73,1.96,0.12-5.41,0.12-5.41L61.49,49.14z"/>
		</g>
		<g>
			<path class="st229" d="M81.72,93.91c-3.82-0.09-7.64-0.15-11.46-0.19c2.42-13.84,4.71-26.96,5.71-32.76L89.84,79.6l-2.32,14.26
				C85.58,93.92,83.65,93.96,81.72,93.91z"/>
		</g>
		<g>
			<path class="st229" d="M84.28,93.93c-0.5-8.68-0.88-15.13-0.88-15.13c-2.93-1.03-7.59-18.46-7.59-18.46l5.86-3.79l20.81,9.88
				c0,0,0.23,7.2,0.23,12.03c0,1.46,0.16,7.61,0.38,15.45C96.85,93.26,90.56,93.88,84.28,93.93z"/>
		</g>
		<g>
			<path class="st466" d="M90.02,93.35c-0.01-1.02,0.04-2.1,0.08-3.15c0.09-1.95,0.18-3.96-0.12-5.76
				c-0.38-1.15-1.43-0.97-2.65-0.76c-0.19,0.03-0.38,0.06-0.57,0.09l-0.02-0.1c0.19-0.03,0.38-0.06,0.57-0.09
				c1.21-0.21,2.36-0.4,2.77,0.84c0.3,1.81,0.21,3.83,0.12,5.79c-0.05,1.04-0.1,2.12-0.08,3.14L90.02,93.35z"/>
		</g>
		<g>
			<polygon class="st466" points="100.88,79.2 100.85,79.19 95.88,76.76 96,67.76 96.1,67.76 95.99,76.69 100.87,79.08 
				102.92,77.72 102.98,77.8 			"/>
		</g>
		<g>
			<polygon class="st466" points="88.1,93.55 88,93.53 89.82,84.12 89.92,84.14 			"/>
		</g>
		<g>
			<path class="st466" d="M76.61,93.54l-0.1-0.02c0.61-3.33,1.29-6.66,1.95-9.88c0.95-4.67,1.94-9.49,2.73-14.39l0.1,0.02
				c-0.79,4.9-1.78,9.72-2.73,14.39C77.9,86.88,77.22,90.21,76.61,93.54z"/>
		</g>
		<g>
			<path class="st466" d="M89.82,83.93l-0.06-0.08c5.48-3.96,4.44-13.41,4.43-13.51l0.1-0.01C94.3,70.42,95.35,79.93,89.82,83.93z"
				/>
		</g>
		<g>
			<polygon class="st466" points="88.27,78.03 88.25,78.02 83.1,75.13 83.11,75.09 83.82,69.34 83.93,69.35 83.21,75.07 
				88.27,77.92 91.98,76.5 93.41,68.78 93.52,68.79 92.07,76.57 92.04,76.58 			"/>
		</g>
		<g>
			<path class="st466" d="M80.38,73.58c-0.05-0.01-5.37-1.34-4.73-5.7l0.1,0.02c-0.62,4.27,4.6,5.58,4.65,5.59L80.38,73.58z"/>
		</g>
		<g>
			<path class="st472" d="M114.64,56.94c1.17,3.69,2.25,7.65,3.06,11.68C113.4,66.81,109.09,60.22,114.64,56.94z"/>
		</g>
		<g>
			<path class="st473" d="M97.55,42.47l9.52-4.59c1.48,3.07,4.79,10.31,7.57,19.07c-5.55,3.28-1.24,9.86,3.06,11.68
				c0.82,4.07,1.37,8.22,1.46,12.24l-10.56,0.24C108.24,65.39,99.33,46.16,97.55,42.47z"/>
		</g>
		<g>
			<path class="st473" d="M88.43,13.14c-1.57,0.68-2.72,3.07-3.06,3.48c-0.34,0.4-1.23,0.28-1.64,0.66
				c-0.4,0.38,0.21,1.72,0.21,1.72s-1.65,3.11-0.64,4.06c1.01,0.95,2.66,0.51,3.18,1.17c0.52,0.66,0.14,2.42-0.02,2.95
				c0,0,0.92,2.94,6.58,1.1c0,0,0.03-1.79,0.13-2.12c0.1-0.33,1.54-5.37,1.54-5.37L88.43,13.14z"/>
		</g>
		<g>
			<path class="st466" d="M87.73,14.51c0.8,1.53,0.06,4.26,0.4,4.55c0.35,0.28,1.01,0.34,1.02,1.17c0,0.83,0.12,1.29,0.02,1.98
				c-0.1,0.69,0.1,3.16,0.9,3.47c0.81,0.31,1.27-0.41,1.58-0.1c0.3,0.31,1.21,1.26,1.71,1.02c0.51-0.24,2.75-6.19,2.75-6.19
				l-0.57-4.81l-5.41-2.95L87.73,14.51z"/>
		</g>
		<g>
			<path class="st466" d="M85.88,17.15c0.19-0.29,0.44-0.45,0.56-0.38c0.12,0.08,0.05,0.37-0.14,0.66
				c-0.19,0.29-0.44,0.45-0.56,0.38C85.62,17.73,85.69,17.44,85.88,17.15z"/>
		</g>
		<g>
			<path class="st466" d="M86.36,16.05c0.03,0.04,0.07,0.07,0.12,0.08c0.03,0.01,0.57,0.16,0.88,0.86c0.05,0.1,0.17,0.15,0.27,0.1
				c0.1-0.05,0.15-0.17,0.1-0.27c-0.4-0.9-1.13-1.09-1.16-1.1c-0.11-0.03-0.22,0.04-0.25,0.15C86.31,15.95,86.33,16.01,86.36,16.05z
				"/>
		</g>
		<g>
			<path class="st472" d="M85.47,18.35c-0.19,0.07-0.37,0.22-0.25,0.43c0.04,0.06,0.11,0.1,0.17,0.13c0.32,0.14,0.73,0.16,1.07,0.13
				c0.13-0.01,0.33-0.06,0.3-0.23c-0.02-0.08-0.08-0.15-0.15-0.2c-0.25-0.2-0.57-0.3-0.89-0.3C85.65,18.3,85.56,18.32,85.47,18.35z"
				/>
		</g>
		<g>
			<path class="st466" d="M86.49,24.22c-0.09-0.11-0.21-0.19-0.35-0.25c0.73-0.03,1.27-0.36,1.84-0.67l-1.24,1.73
				C86.71,24.71,86.64,24.41,86.49,24.22z"/>
		</g>
		<g>
			<path class="st474" d="M76.74,41.37c-0.55,7.52-0.45,14.67-0.93,16.13c-0.49,1.45-1.38,10.9-1.38,10.9s13.81,2.35,21.63,2.56
				c8.09,0.21,7.85-2.42,7.85-2.42l-8.46-22.82l-4.28-9.5L76.74,41.37z"/>
		</g>
		<g>
			<path class="st5" d="M100.88,31.7c5.98,3.26,7.16,7.28,9.69,12.13s5.58,8.9,5.58,8.9s-2.07,0.53-6.1,1.59
				c-4.03,1.06-7.37,0.33-7.37,0.33l-3.47-8.55L100.88,31.7z"/>
		</g>
		<g>
			<path class="st466" d="M95.24,22.47c1.28-1.83,3.07-1.5,3.19-3.45c0.12-1.95-0.71-1.17-1.54-2.95c-0.82-1.78,0.51-3.45-1.83-4.05
				c-2.34-0.6-3.29,1.26-5.02-0.35c-1.72-1.62-2.5-3.19-3.03-2.22c-0.54,0.97,0.38,2.05,0.38,2.05s-0.74-0.88-1.44-0.76
				c-0.7,0.11-1.34,1.46,0.24,2.67c1.58,1.21,2.71,3.27,2.71,3.27L95.24,22.47z"/>
		</g>
		<g>
			<g>
				<path class="st473" d="M88.34,19.22c0,0,1.48-1.14,2.37-0.6c0.89,0.54,0.45,2.9-0.71,3.19C88.84,22.11,87.8,21,87.8,21
					L88.34,19.22z"/>
			</g>
			<g>
				<path class="st466" d="M89.83,21.25c0,0,0.01,0,0.01,0c0.01,0,0.77-0.23,0.78-1.13c0-0.37-0.07-0.61-0.23-0.75
					c-0.2-0.18-0.53-0.21-1.13-0.1c-0.02,0-0.04,0.03-0.04,0.06c0,0.03,0.02,0.04,0.05,0.04c0.57-0.11,0.88-0.08,1.06,0.08
					c0.14,0.13,0.21,0.35,0.2,0.69c-0.01,0.82-0.68,1.02-0.71,1.03c-0.02,0.01-0.04,0.03-0.04,0.06
					C89.8,21.24,89.81,21.25,89.83,21.25z"/>
			</g>
		</g>
		<g>
			<g>
				<path class="st473" d="M53.62,50.78c0,0-0.38-3.7-3.46-5.31c-1.81-0.94-5.22-0.94-5.22-0.94s-5.25,6.6-4.11,8
					c1.14,1.4,7.04,4.74,7.04,4.74L53.62,50.78z"/>
			</g>
			<g>
				<path class="st473" d="M52.44,48.73c0.21-0.42,0.18-0.94-0.14-1.33c-1.9-2.35-4.07-5.34-4.29-6.07
					c-0.19-0.65-0.87-1.02-1.52-0.83c-0.65,0.19-1.02,0.87-0.83,1.52c0.45,1.53,3.74,5.68,4.73,6.92c0.42,0.53,1.19,0.61,1.72,0.19
					C52.26,49.01,52.37,48.88,52.44,48.73z"/>
			</g>
			<g>
				<g>
					<path class="st473" d="M40.83,45.82c-0.26,0.46-0.25,0.99-0.03,1.39c-0.42,0.03-0.84,0.29-1.08,0.73
						c-0.28,0.49-0.26,1.07,0.01,1.47c0.04,0.06,0.08,0.11,0.13,0.16c-0.4,0-0.81,0.24-1.04,0.65c-0.25,0.44-0.23,0.96,0.01,1.32
						c0.08,0.13,0.19,0.24,0.33,0.32l2.91,1.72c0.52,0.31,1.21,0.07,1.54-0.52c0.23-0.42,0.23-0.9,0.02-1.26
						c0.53,0.13,1.12-0.14,1.43-0.7c0.26-0.46,0.25-0.99,0.03-1.39c0.42-0.03,0.83-0.29,1.08-0.73c0.28-0.5,0.24-1.08-0.05-1.49
						c-1.25-1.03-2.45-1.4-4.29-2.45C41.55,45.15,41,45.51,40.83,45.82z"/>
				</g>
			</g>
			<g>
				<path class="st475" d="M42.51,48.26c0.02,0,0.03-0.01,0.04-0.03c0.02-0.03,0.01-0.06-0.02-0.08l-1.7-0.99
					c-0.03-0.02-0.06-0.01-0.08,0.02c-0.02,0.03-0.01,0.06,0.02,0.08l1.7,0.99C42.48,48.26,42.5,48.26,42.51,48.26z"/>
			</g>
			<g>
				<path class="st475" d="M41.56,50.65c0.02,0,0.03-0.01,0.04-0.03c0.02-0.03,0.01-0.06-0.02-0.08l-1.68-1.03
					c-0.03-0.02-0.06-0.01-0.08,0.02c-0.02,0.03-0.01,0.06,0.02,0.08l1.68,1.03C41.53,50.65,41.54,50.66,41.56,50.65z"/>
			</g>
			<g>
				<path class="st475" d="M47.91,42.34c0.24-0.05,0.42-0.13,0.43-0.13c0.03-0.01,0.04-0.05,0.03-0.08
					c-0.01-0.03-0.05-0.04-0.08-0.03c0,0-0.43,0.18-0.8,0.16l-0.59-1.21c0.12-0.14,0.3-0.33,0.37-0.34
					c0.03-0.01,0.05-0.04,0.05-0.07c-0.01-0.03-0.04-0.05-0.07-0.05c-0.14,0.03-0.41,0.35-0.46,0.41c-0.01,0.02-0.02,0.04-0.01,0.06
					l0.62,1.27c0.01,0.02,0.03,0.03,0.05,0.03C47.61,42.39,47.77,42.37,47.91,42.34z"/>
			</g>
			<g>
				<g>
					<path class="st475" d="M45.03,49.92c0.03-0.01,0.04-0.03,0.05-0.05c0-0.03-0.02-0.06-0.05-0.06l-1.19-0.11
						c-0.03,0-0.06,0.02-0.06,0.05c0,0.03,0.02,0.06,0.05,0.06l1.19,0.11C45.02,49.92,45.03,49.92,45.03,49.92z"/>
				</g>
				<g>
					<path class="st475" d="M44.57,50.45C44.57,50.45,44.57,50.45,44.57,50.45c0.04-0.01,0.05-0.04,0.04-0.08l-0.38-1.26
						c-0.01-0.03-0.05-0.05-0.07-0.04c-0.03,0.01-0.05,0.04-0.04,0.07l0.38,1.26C44.51,50.44,44.54,50.46,44.57,50.45z"/>
				</g>
			</g>
			<g>
				<g>
					<path class="st475" d="M43.81,52.08c0.03-0.01,0.04-0.03,0.05-0.05c0-0.03-0.02-0.06-0.05-0.06l-1.19-0.11
						c-0.03,0-0.06,0.02-0.06,0.05c0,0.03,0.02,0.06,0.05,0.06l1.19,0.11C43.8,52.08,43.8,52.08,43.81,52.08z"/>
				</g>
				<g>
					<path class="st475" d="M43.35,52.61C43.35,52.61,43.35,52.61,43.35,52.61c0.04-0.01,0.05-0.04,0.04-0.08l-0.38-1.26
						c-0.01-0.03-0.04-0.05-0.07-0.04c0,0,0,0,0,0c-0.03,0.01-0.05,0.04-0.04,0.07l0.38,1.26C43.28,52.6,43.32,52.62,43.35,52.61z"
						/>
				</g>
			</g>
			<g>
				<path class="st473" d="M47.86,47.23c0.08-0.08,0.15-0.18,0.21-0.29c0.34-0.62,0.12-1.37-0.48-1.68
					c-0.04-0.02-4.41-2.29-6.39-3.57l-2.05-1.32c-0.57-0.37-1.35-0.19-1.74,0.4c-0.39,0.58-0.25,1.36,0.32,1.72l2.05,1.32
					c2.07,1.34,6.4,3.59,6.58,3.68C46.87,47.75,47.48,47.62,47.86,47.23z"/>
			</g>
			<g>
				<path class="st475" d="M43.86,46.26c0.02,0,0.03-0.01,0.04-0.03c0.02-0.03,0.01-0.07-0.02-0.08l-2.01-1.17
					c-0.03-0.02-0.06-0.01-0.08,0.02c-0.02,0.03-0.01,0.07,0.02,0.08l2.01,1.17C43.83,46.26,43.84,46.26,43.86,46.26z"/>
			</g>
			<g>
				<path class="st475" d="M38.76,42.82C38.76,42.82,38.76,42.82,38.76,42.82c0.03-0.01,0.64-0.25,0.84-1.26
					c0-0.02,0-0.05-0.02-0.06c-0.04-0.03-0.94-0.68-1.59-0.57c-0.19,0.04-0.34,0.13-0.45,0.28c-0.02,0.03-0.01,0.06,0.01,0.08
					c0.03,0.02,0.06,0.01,0.08-0.01c0.09-0.13,0.22-0.2,0.37-0.23c0.54-0.09,1.3,0.42,1.47,0.53c-0.2,0.91-0.75,1.13-0.75,1.13
					c-0.03,0.01-0.05,0.05-0.03,0.08C38.7,42.81,38.73,42.83,38.76,42.82z"/>
			</g>
			<g>
				<g>
					<path class="st475" d="M46.62,47.38c0.03-0.01,0.05-0.03,0.05-0.05c0-0.03-0.02-0.06-0.05-0.06l-1.19-0.11
						c-0.03,0-0.06,0.02-0.06,0.05c0,0.03,0.02,0.06,0.05,0.06l1.19,0.11C46.61,47.38,46.61,47.38,46.62,47.38z"/>
				</g>
				<g>
					<path class="st475" d="M46.16,47.91C46.16,47.91,46.16,47.91,46.16,47.91c0.04-0.01,0.05-0.04,0.04-0.08l-0.38-1.26
						c-0.01-0.03-0.04-0.05-0.07-0.04c0,0,0,0,0,0c-0.03,0.01-0.05,0.04-0.04,0.07l0.38,1.26C46.1,47.9,46.13,47.92,46.16,47.91z"/>
				</g>
			</g>
		</g>
		<g>
			<path class="st3" d="M83.64,20.48c0.01-0.66,0.93-0.23,1.79-0.55c0.87-0.31,0.58,1.3-0.61,1.21
				C83.63,21.06,83.63,20.9,83.64,20.48z"/>
		</g>
		<g>
			<g>
				<path class="st473" d="M108.87,76.98c0,0-1.64,3.18,0,6.1c0.96,1.71,3.72,3.5,3.72,3.5s6.78-3.43,6.6-5.16
					c-0.19-1.73-4.01-7.72-4.01-7.72L108.87,76.98z"/>
			</g>
			<g>
				<path class="st473" d="M109.35,79.2c-0.42,0.17-0.71,0.58-0.72,1.06c-0.07,2.9-0.33,6.45-0.62,7.12
					c-0.26,0.59,0.01,1.29,0.6,1.55c0.59,0.26,1.29-0.01,1.55-0.6c0.62-1.4,0.79-6.49,0.82-8.02c0.02-0.65-0.5-1.19-1.15-1.2
					C109.66,79.11,109.5,79.14,109.35,79.2z"/>
			</g>
			<g>
				<path class="st473" d="M112.13,80.61c-0.11,0-0.22,0.02-0.32,0.06c-0.62,0.21-0.95,0.87-0.74,1.49
					c0.02,0.04,1.51,4.52,2.03,6.72l0.54,2.28c0.15,0.63,0.78,1.03,1.41,0.87c0.63-0.15,1.02-0.78,0.87-1.41l-0.54-2.28
					c-0.54-2.31-2.02-6.74-2.08-6.93C113.12,80.91,112.64,80.59,112.13,80.61z"/>
			</g>
			<g>
				<path class="st473" d="M114.35,80.91c-0.13,0.01-0.26,0.03-0.39,0.09c-0.6,0.24-0.89,0.93-0.65,1.53
					c1.08,2.67,2.85,7.34,2.99,8.55c0.08,0.64,0.67,1.1,1.31,1.02c0.64-0.08,1.1-0.67,1.02-1.31c-0.24-1.9-2.85-8.4-3.15-9.14
					C115.3,81.17,114.83,80.89,114.35,80.91z"/>
			</g>
			<g>
				<path class="st473" d="M116.41,80.97c-0.17,0.01-0.34,0.05-0.49,0.13c-0.58,0.3-0.8,1.01-0.5,1.59c0.03,0.05,2.52,4.82,3.1,6.73
					c0.19,0.62,0.85,0.97,1.47,0.78c0.62-0.19,0.97-0.85,0.78-1.47c-0.65-2.11-3.16-6.92-3.27-7.12
					C117.28,81.18,116.85,80.95,116.41,80.97z"/>
			</g>
			<g>
				<path class="st473" d="M117.64,79.94c-0.22,0.01-0.45,0.08-0.64,0.23c-0.52,0.38-0.64,1.12-0.25,1.64
					c0.03,0.04,2.73,3.73,3.59,5.19c0.33,0.56,1.05,0.75,1.61,0.42c0.56-0.33,0.75-1.05,0.42-1.61c-0.92-1.56-3.61-5.23-3.72-5.39
					C118.4,80.09,118.02,79.92,117.64,79.94z"/>
			</g>
			<g>
				<path class="st476" d="M112.64,77.13c0,0-0.01,0-0.01,0.01c-0.05,0.03-0.06,0.09-0.03,0.13c2,3.32-0.79,5.43-0.91,5.51
					c-0.04,0.03-0.05,0.09-0.02,0.14c0.03,0.04,0.1,0.05,0.14,0.02c0.03-0.02,3.06-2.3,0.97-5.77
					C112.74,77.13,112.68,77.12,112.64,77.13z"/>
			</g>
			<g>
				<path class="st476" d="M118.56,82.05c-0.01,0-0.02,0.01-0.03,0.01c-0.04,0.02-4.03,2.37-5.55,3.08
					c-0.05,0.02-0.07,0.08-0.05,0.13c0.02,0.05,0.08,0.07,0.13,0.05c1.53-0.71,5.53-3.06,5.57-3.09c0.05-0.03,0.06-0.09,0.03-0.13
					C118.65,82.06,118.6,82.04,118.56,82.05z"/>
			</g>
			<g>
				<path class="st476" d="M117.48,82.69c-0.01,0-0.03,0-0.04,0.01c-0.04,0.03-0.04,0.07-0.02,0.11l2.04,2.92
					c0.02,0.04,0.07,0.04,0.11,0.02c0.04-0.03,0.04-0.07,0.02-0.11l-2.04-2.92C117.54,82.7,117.51,82.69,117.48,82.69z"/>
			</g>
			<g>
				<path class="st476" d="M115.73,83.84c-0.01,0-0.02,0-0.04,0.01c-0.04,0.02-0.05,0.07-0.03,0.11l1.68,2.96
					c0.02,0.04,0.07,0.05,0.11,0.03c0.04-0.02,0.05-0.07,0.03-0.11l-1.68-2.96C115.79,83.85,115.76,83.83,115.73,83.84z"/>
			</g>
			<g>
				<path class="st476" d="M113.96,84.76c-0.01,0-0.02,0-0.03,0.01c-0.04,0.02-0.05,0.07-0.03,0.1l1.03,2.03
					c0.02,0.04,0.07,0.05,0.1,0.03c0.04-0.02,0.05-0.07,0.03-0.1l-1.03-2.03C114.02,84.77,113.99,84.75,113.96,84.76z"/>
			</g>
		</g>
		<g>
			<path class="st466" d="M74.51,67.33l-0.1-0.01c0.01-0.09,1.15-8.96,1.5-10.2c0.2-0.69,0.25-2.86,0.31-5.36
				c0.05-1.99,0.11-4.24,0.25-6.05l0.1,0.01c-0.14,1.81-0.2,4.06-0.25,6.05c-0.06,2.52-0.12,4.69-0.32,5.39
				C75.66,58.38,74.52,67.24,74.51,67.33z"/>
		</g>
		<g>
			<path class="st466" d="M73.19,54.35c1.84,1.07,2.99,3.34,3.72,2.69c0.73-0.65-0.38-3.03-0.38-3.03L73.19,54.35z"/>
		</g>
		<g>
			<path class="st472" d="M60.11,60.03c3.44-1.29,9.7-2.18,11.26,1.47c-1.81,2.33-3.67,3.53-5.8,3.89
				c-1.11,0.18-2.33,0.15-3.67-0.11c-1.39-0.27-2.7-0.8-4.2-1.61C58.2,62.07,58.76,60.57,60.11,60.03z"/>
		</g>
		<g>
			<path class="st473" d="M44.68,55.31l7.68-7.85c3.66,2.66,8.08,5.23,10.5,6.17c1.77-2.84,4.58-9.72,6.6-16.34c0,0,0,0,0,0
				l11.01,3.36c-0.07,0.21-1.62,5.31-3.75,10.58c-1.89,4.67-3.6,8.01-5.36,10.27c-1.55-3.65-7.81-2.76-11.26-1.47
				c-1.35,0.54-1.91,2.03-2.42,3.64c-1.3-0.71-2.73-1.62-4.49-2.78C49,58.13,44.81,55.41,44.68,55.31z"/>
		</g>
		<g>
			<path class="st5" d="M86.36,27.17c-2.33-0.45-10.12,1.99-12.67,3.32c-4.99,2.61-12.2,18.65-12.2,18.65s15.3,2.62,15.42,7.9
				c0,0,1.81-5.35,1.88-5.35c0.19,0,2.87,8.52,3.53,11.02c0.66,2.5,0.68,5.26,0.68,5.26s8.74-1.6,11.37-1.94
				c2.63-0.34,9.56,4.42,14.03,3.23c4.46-1.19,4.75-2.09,4.75-2.09s-3.33-5.47-5.1-8.15c-1.77-2.68-4.43-12.8-4.62-14.67
				c-0.19-1.86-2.55-12.67-2.55-12.67s-6.33-3.58-8.44-3.98C90.33,27.32,86.36,27.17,86.36,27.17z"/>
		</g>
		<g>
			<path class="st477" d="M82.59,43.63c0.97,0.64,2.06,1.07,3.2,1.27c0.74,0.13,1.51,0.16,2.21,0.42c1.56,0.59,2.54,2.2,4.05,2.9
				c1.19,0.55,2.55,0.47,3.85,0.38c0.44-0.03,0.93-0.08,1.24-0.39c0.47-0.47,0.3-1.32-0.18-1.79c-0.48-0.47-1.16-0.65-1.8-0.82
				c-1.29-0.35-2.65-0.78-3.51-1.81c-0.63-0.75-0.94-1.76-1.68-2.41c-0.92-0.8-2.26-0.86-3.47-0.73s-2.45,0.41-3.63,0.12
				c-0.21-0.05-0.42-0.12-0.64-0.11c-0.67,0.03-1.08,0.84-0.92,1.49C81.49,42.79,82.04,43.27,82.59,43.63z"/>
		</g>
		<g>
			<path class="st477" d="M91.55,57.56c-0.4-0.13-0.74-0.4-1.13-0.57c-1.06-0.46-2.26-0.1-3.41-0.08c-0.9,0.02-1.85-0.2-2.54-0.78
				c-0.69-0.58-1.07-1.58-0.76-2.43c0.05-0.15,0.13-0.3,0.25-0.4c0.19-0.18,0.46-0.23,0.72-0.23c1.55-0.02,2.68,1.43,4.11,2.02
				c1.02,0.42,2.16,0.38,3.25,0.53c1.09,0.15,2.26,0.59,2.76,1.57c-0.06,0.28-0.42,0.35-0.71,0.37c-0.42,0.03-0.84,0.05-1.26,0.08
				C92.41,57.67,91.96,57.69,91.55,57.56z"/>
		</g>
		<g>
			<path class="st477" d="M101.54,56.51c1.17,0.14,2.16,0.86,3.23,1.35c1.03,0.48,2.13,0.74,3.25,0.92c0.05,0.08,0.1,0.17,0.15,0.24
				c1.11,1.68,2.84,4.46,3.97,6.3c-0.15-0.09-0.3-0.18-0.45-0.27c-3.2-1.92-6.61-3.48-10.16-4.66c-1.08-0.36-2.36-0.92-2.45-2.05
				C98.97,57.18,100.37,56.37,101.54,56.51z"/>
		</g>
		<g>
			<path class="st477" d="M99.63,38.32c0.51,0.07,0.94,0.4,1.4,0.63c1.72,0.84,3.77,0.11,5.68,0.22c0.68,0.04,1.38,0.22,1.87,0.68
				c0.65,1.26,1.27,2.58,1.99,3.98c0.74,1.42,1.52,2.76,2.26,3.96c-0.15-0.01-0.3-0.01-0.45-0.02c-1.88-0.12-3.75-0.47-5.52-1.08
				c-2.14-0.74-4.13-1.87-6.1-3c-0.75-0.43-1.52-0.87-2.11-1.5c-0.59-0.64-0.98-1.51-0.84-2.37C97.96,38.96,98.77,38.2,99.63,38.32z
				"/>
		</g>
		<g>
			<path class="st466" d="M106.22,54.89c-1.92-4.24-3.66-9.61-3.65-11.26l0.1,0c-0.01,1.48,1.54,6.59,3.64,11.22L106.22,54.89z"/>
		</g>
		<g>
			
				<rect x="102.16" y="45.07" transform="matrix(0.1911 -0.9816 0.9816 0.1911 39.3443 137.9877)" class="st466" width="2.46" height="0.1"/>
		</g>
		<g>
			<path class="st466" d="M100.18,58.23c-0.05-0.05-5.33-5.3-9.63-11.89l0.09-0.06c4.29,6.58,9.56,11.82,9.61,11.87L100.18,58.23z"
				/>
		</g>
		<g>
			<path class="st466" d="M102.11,54.69c-3.56-0.83-9.11-6.74-9.17-6.8l0.08-0.07c0.06,0.06,5.58,5.95,9.12,6.77L102.11,54.69z"/>
		</g>
		<g>
			<g>
				<path class="st477" d="M66.63,39.14c1.46,0.34,3.11,0.75,4.2,1.09c2.36,0.75,3.22,4.55,5.01,5.58c1.78,1.04,5.06,0.29,5.41,1.55
					c0.35,1.27-3.4,0.29-4.55,0.98c-1.15,0.69-1.9-0.06-5.7-2.13c-3.8-2.07-1.61-0.63-4.37-1.27c-1.9-0.43-2.49,0.16-3.42,0.52
					C64.11,43.66,65.31,41.38,66.63,39.14z"/>
			</g>
			<g>
				<path class="st477" d="M80.79,31.08c-1.29-1.14-2.56-1.47-4.91-1.55c1.72-0.65,3.91-1.34,5.89-1.82
					c1.2,0.75,2.48,1.42,3.85,1.76c3.8,0.92,2.24,0.69,5.06,3.4c2.82,2.7,5.41-0.06,6.27,1.09c0.86,1.15-0.58,3.05-3.51,1.84
					c-2.94-1.21-4.14-0.12-6.79-0.23S82.69,32.75,80.79,31.08z"/>
			</g>
		</g>
		<g>
			<path class="st466" d="M76.18,42.2c-0.03,0-0.06-0.01-0.08-0.04c-0.02-0.02-2.02-2.41-4.06-7.2c-0.02-0.05,0-0.11,0.05-0.14
				c0.05-0.02,0.11,0,0.14,0.05c2.03,4.76,4.01,7.12,4.03,7.15c0.04,0.04,0.03,0.11-0.01,0.15C76.23,42.19,76.21,42.2,76.18,42.2z"
				/>
		</g>
		<g>
			<path class="st466" d="M76.92,38.81c-0.02,0-0.05-0.01-0.06-0.02c-0.02-0.02-2.52-1.98-3.63-3.35c-0.04-0.04-0.03-0.11,0.02-0.15
				c0.04-0.04,0.11-0.03,0.15,0.02c1.09,1.35,3.57,3.3,3.6,3.32c0.05,0.04,0.05,0.1,0.02,0.15C76.98,38.8,76.95,38.81,76.92,38.81z"
				/>
		</g>
		<g>
			<path class="st466" d="M78.8,51.79c-0.01,0-0.02,0-0.04-0.01c-0.05-0.02-0.08-0.08-0.06-0.13c1.32-3.7,2.59-6.82,2.61-6.85
				c0.02-0.05,0.08-0.08,0.14-0.06c0.05,0.02,0.08,0.08,0.06,0.14c-0.01,0.03-1.28,3.15-2.6,6.84
				C78.88,51.77,78.84,51.79,78.8,51.79z"/>
		</g>
		<g>
			<path class="st466" d="M63.75,63.79c-0.48-0.41-0.6-0.88-0.31-1.28c0.46-0.65,1.81-0.92,2.86-0.3c0.53,0.31,0.61,0.61,0.58,0.81
				c-0.05,0.36-0.48,0.62-0.87,0.72c-0.32,0.08-0.74,0.08-0.92-0.16l0.08-0.06c0.12,0.17,0.44,0.21,0.81,0.12
				c0.35-0.09,0.75-0.33,0.8-0.63c0.03-0.23-0.15-0.48-0.53-0.7c-0.99-0.58-2.3-0.33-2.73,0.27c-0.25,0.35-0.15,0.76,0.3,1.14
				L63.75,63.79z"/>
		</g>
	</g>
	<g>
		<path class="st466" d="M59.84,73.4H24.08c-1.62,0-2.93-1.32-2.93-2.93V2.93c0-1.62,1.32-2.93,2.93-2.93h34.1
			c0.06,0,0.1,0.05,0.1,0.1c0,0.06-0.05,0.1-0.1,0.1h-34.1c-1.5,0-2.73,1.22-2.73,2.73v67.53c0,1.5,1.22,2.73,2.73,2.73h35.76
			c0.06,0,0.1,0.05,0.1,0.1C59.94,73.35,59.9,73.4,59.84,73.4z"/>
	</g>
	<g>
		<path class="st466" d="M83.45,8.68c-0.06,0-0.1-0.05-0.1-0.1V2.81c0-1.36-1.11-2.47-2.47-2.47h-8.12c-0.06,0-0.1-0.05-0.1-0.1
			s0.05-0.1,0.1-0.1h8.12c1.47,0,2.67,1.2,2.67,2.67v5.76C83.55,8.63,83.51,8.68,83.45,8.68z"/>
	</g>
	<g>
		<g>
			<path class="st478" d="M82.61,5.97c-0.03-1.85-1.56-3.32-3.41-3.29c-1.85,0.03-3.32,1.56-3.29,3.41
				c0.03,1.85,1.56,3.32,3.41,3.29C81.17,9.34,82.64,7.82,82.61,5.97z"/>
		</g>
		<g>
			<path class="st475" d="M80.45,5.53c-0.01-0.44-0.15-0.79-0.32-0.79s-0.3,0.36-0.29,0.8c0.01,0.44,0.15,0.79,0.32,0.79
				S80.46,5.97,80.45,5.53z"/>
		</g>
		<g>
			<path class="st475" d="M78.52,5.57c-0.01-0.44-0.15-0.79-0.32-0.79c-0.17,0-0.3,0.36-0.29,0.8c0.01,0.44,0.15,0.79,0.32,0.79
				C78.39,6.36,78.52,6.01,78.52,5.57z"/>
		</g>
		<g>
			<path class="st475" d="M79.24,8.15c-0.01,0-0.02,0-0.02,0c-1.6-0.02-2.08-1.96-2.09-1.98c-0.01-0.04,0.02-0.09,0.06-0.1
				c0.04-0.01,0.09,0.02,0.1,0.06c0,0.02,0.46,1.84,1.94,1.86c0.01,0,0.02,0,0.02,0c1.45,0,1.7-1.76,1.71-1.84
				c0.01-0.04,0.04-0.07,0.09-0.07c0.04,0.01,0.07,0.05,0.07,0.09C81.1,6.19,80.83,8.15,79.24,8.15z"/>
		</g>
	</g>
	<text transform="matrix(1 0 0 1 24.2944 7.7092)" class="st3 st479 st480">AUTOMATIC SCORING</text>
</g>
</svg>
