<?xml version="1.0" encoding="utf-8"?>
<!-- Generator: Adobe Illustrator 25.3.1, SVG Export Plug-In . SVG Version: 6.00 Build 0)  -->
<svg version="1.1" id="Layer_1" xmlns="http://www.w3.org/2000/svg" xmlns:xlink="http://www.w3.org/1999/xlink" x="0px" y="0px"
	 viewBox="0 0 130.71 131.26" style="enable-background:new 0 0 130.71 131.26;" xml:space="preserve">
<style type="text/css">
	.st0{fill:#24487F;}
	.st1{fill:#8E8E8E;}
	.st2{fill:#FFFFFF;stroke:#8E8E8E;stroke-linecap:round;stroke-miterlimit:10;}
	.st3{fill:#FFFFFF;}
	.st4{fill:#4DB5D1;}
	.st5{fill:#60934D;}
	.st6{fill:#FFFFFF;stroke:#5F934D;stroke-linecap:round;stroke-miterlimit:10;}
	.st7{fill:#23497F;}
	.st8{fill:#FFFFFF;stroke:#23497F;stroke-linecap:round;stroke-miterlimit:10;}
	.st9{fill:url(#SVGID_1_);}
	.st10{fill:url(#SVGID_2_);}
	.st11{fill:url(#SVGID_3_);}
	.st12{fill:url(#SVGID_4_);}
	.st13{fill:#397BBF;}
	.st14{fill:#1466B1;}
	.st15{fill:#054F8C;}
	.st16{fill:url(#SVGID_5_);}
	.st17{fill:#EFA986;}
	.st18{fill:#152B3D;}
	.st19{fill:#62A9DC;}
	.st20{fill:#977332;}
	.st21{fill:#264480;}
	.st22{fill:#363B3D;}
	.st23{fill:#E45354;}
	.st24{fill:#F5F6F6;}
	.st25{fill:#1A5A8D;}
	.st26{fill:#2274B5;}
	.st27{fill:#3A88C8;}
	.st28{fill:#E3F3FC;}
	.st29{fill:#C5CCD1;}
	.st30{fill:#2A2C47;}
	.st31{fill:#E2D2CA;}
	.st32{fill:#434873;}
	.st33{fill:#3B4048;}
	.st34{fill:#323757;}
	.st35{fill:#81A358;}
	.st36{fill:#71A341;}
	.st37{fill:#618A3C;}
	.st38{fill:#87BD43;}
	.st39{fill:#7BA840;}
	.st40{fill:#70A341;}
	.st41{fill:#6A943E;}
	.st42{fill:#B2CF43;}
	.st43{fill:#9FB34D;}
	.st44{fill:url(#SVGID_6_);}
	.st45{filter:url(#Adobe_OpacityMaskFilter);}
	.st46{filter:url(#Adobe_OpacityMaskFilter_1_);}
	.st47{mask:url(#SVGID_7_);fill:url(#SVGID_8_);}
	.st48{fill:url(#SVGID_9_);}
	.st49{fill:#464443;}
	.st50{fill:#928783;}
	.st51{fill:#1D3C55;}
	.st52{fill:#152C3D;}
	.st53{fill:#A77961;}
	.st54{fill:#D8E9F7;}
	.st55{fill:#BFB2AC;}
	.st56{fill:#FED1A2;}
	.st57{fill:#B37953;}
	.st58{fill:#D6995E;}
	.st59{fill:#807167;}
	.st60{fill:#6E6760;}
	.st61{fill:#928880;}
	.st62{fill:#BC8552;}
	.st63{filter:url(#Adobe_OpacityMaskFilter_2_);}
	.st64{filter:url(#Adobe_OpacityMaskFilter_3_);}
	.st65{mask:url(#SVGID_10_);fill:url(#SVGID_11_);}
	.st66{fill:url(#SVGID_12_);}
	.st67{filter:url(#Adobe_OpacityMaskFilter_4_);}
	.st68{filter:url(#Adobe_OpacityMaskFilter_5_);}
	.st69{mask:url(#SVGID_13_);fill:url(#SVGID_14_);}
	.st70{fill:url(#SVGID_15_);}
	.st71{fill:#C3C8E5;}
	.st72{opacity:0.3;}
	.st73{fill:#F4F6FB;}
	.st74{fill:#E8E8F2;}
	.st75{fill:#D7D6E6;}
	.st76{fill:#F3F4F7;}
	.st77{fill:#FCFDFD;}
	.st78{filter:url(#Adobe_OpacityMaskFilter_6_);}
	.st79{mask:url(#SVGID_16_);}
	.st80{fill:#3F54A5;}
	.st81{fill:#A5A7D4;}
	.st82{fill:#B4BBDF;}
	.st83{fill:url(#SVGID_17_);}
	.st84{fill:#CED0E4;}
	.st85{fill:#EDF0F9;}
	.st86{opacity:0.5;fill:#CFD2D3;}
	.st87{opacity:0.5;fill:#A5A7AA;}
	.st88{fill:#332566;}
	.st89{fill:#FAAE42;}
	.st90{fill:#DFDFDE;}
	.st91{fill:#F6C6B1;}
	.st92{fill:#E8B8A9;}
	.st93{fill:#3D4592;}
	.st94{fill:url(#SVGID_18_);}
	.st95{fill:url(#SVGID_19_);}
	.st96{fill:url(#SVGID_20_);}
	.st97{fill:#112F41;}
	.st98{opacity:0.5;fill:#BDBCD8;}
	.st99{opacity:0.2;fill:#ED5B2A;}
	.st100{fill-rule:evenodd;clip-rule:evenodd;fill:#3E55A5;}
	.st101{fill:#2C1C28;}
	.st102{fill:#EE7762;}
	.st103{opacity:0.25;fill:#ED5B2A;}
	.st104{fill:#CD3046;}
	.st105{fill:#282B70;}
	.st106{fill:url(#SVGID_21_);}
	.st107{fill:url(#SVGID_22_);}
	.st108{fill:#212B46;}
	.st109{fill:#D2D2E9;}
	.st110{fill:#8F95CA;}
	.st111{fill:#BDBCD8;}
	.st112{fill:#F2F7F6;}
	.st113{fill:#C9C8DF;}
	.st114{fill:#E3E3EE;}
	.st115{fill:#FAF0F7;}
	.st116{fill:#FFFCFD;}
	.st117{fill:#E4A28B;}
	.st118{opacity:0.05;fill:#010101;}
	.st119{fill:#D9DDEC;}
	.st120{fill:#C6CBE7;}
	.st121{fill:#8A97CC;}
	.st122{fill:#DFE4F3;}
	.st123{fill:#D5A393;}
	.st124{fill:#182540;}
	.st125{fill:url(#SVGID_23_);}
	.st126{fill:#F1A993;}
	.st127{fill:#687094;}
	.st128{fill:#D7DBEF;}
	.st129{fill:#F4F4F8;}
	.st130{fill:#B2B9DE;}
	.st131{fill:#4D60AC;}
	.st132{fill:#8E97CB;}
	.st133{fill:#BCC6E5;}
	.st134{fill:#AAB9DF;}
	.st135{fill:#FFFBFD;}
	.st136{fill:#34479E;}
	.st137{opacity:0.2;}
	.st138{fill:#60848C;}
	.st139{fill:url(#SVGID_24_);}
	.st140{fill:#F36E5C;}
	.st141{fill:#85BEE7;}
	.st142{fill:#908F8F;}
	.st143{fill:#F1F0F0;}
	.st144{fill:url(#SVGID_25_);}
	.st145{fill:#CCCCCC;}
	.st146{fill:#F6F7FB;}
	.st147{fill:#E6E6E5;}
	.st148{fill:#F3F3F3;}
	.st149{fill:#EFF0F7;}
	.st150{fill:url(#SVGID_26_);}
	.st151{fill:url(#SVGID_27_);}
	.st152{fill:url(#SVGID_28_);}
	.st153{fill:url(#SVGID_29_);}
	.st154{fill:url(#SVGID_30_);}
	.st155{fill:url(#SVGID_31_);}
	.st156{fill:#3D426A;}
	.st157{fill:#252840;}
	.st158{fill:#C4B4AF;}
	.st159{fill:#EA4747;}
	.st160{fill:#6B7BBC;}
	.st161{fill:#5266AF;}
	.st162{fill:#5062AD;}
	.st163{fill:#EDDAD3;}
	.st164{fill:#DECDC7;}
	.st165{fill:#E3D1CA;}
	.st166{fill:#B39595;}
	.st167{fill:#DBB8B8;}
	.st168{fill:#F1CCCB;}
	.st169{fill:#323538;}
	.st170{fill:#EFAA88;}
	.st171{fill:#1D2133;}
	.st172{fill:#EFAA87;}
	.st173{fill:#D88A51;}
	.st174{fill:#C68D71;}
	.st175{fill:#A19FA7;}
	.st176{fill:#EAE6F1;}
	.st177{fill:#3B4167;}
	.st178{fill:#DE9674;}
	.st179{fill:#764937;}
	.st180{fill:#5D554E;}
	.st181{fill:#3D4246;}
	.st182{fill:#FFD356;}
	.st183{fill:url(#SVGID_32_);}
	.st184{fill:url(#SVGID_33_);}
	.st185{fill:url(#SVGID_34_);}
	.st186{fill:url(#SVGID_35_);}
	.st187{fill:url(#SVGID_36_);}
	.st188{fill:url(#SVGID_37_);}
	.st189{opacity:0.5;}
	.st190{fill:#FCEACF;}
	.st191{opacity:0.8;}
	.st192{fill:#D4EEF6;}
	.st193{fill:#3AA1C9;}
	.st194{fill:#3F9896;}
	.st195{fill:#7FC6A6;}
	.st196{fill:#DEF2FD;}
	.st197{fill:#223849;}
	.st198{fill:#B4E3F7;}
	.st199{fill:#F89F74;}
	.st200{fill:#E33F3E;}
	.st201{fill:#482B32;}
	.st202{fill:#D8E4F4;}
	.st203{fill:#683E47;}
	.st204{fill:#3788BA;}
	.st205{fill:#22131E;}
	.st206{fill:#FAB59D;}
	.st207{fill:#CC2327;}
	.st208{fill:#E2F3F1;}
	.st209{fill:#F07163;}
	.st210{fill:#49273F;}
	.st211{fill:#4C232E;}
	.st212{fill:#010101;}
	.st213{fill:#F7956E;}
	.st214{fill:#F68D64;}
	.st215{fill:#F27584;}
	.st216{fill:#4EB8D9;}
	.st217{fill:#EF4751;}
	.st218{fill:#ACC7E8;}
	.st219{fill:#268E8D;}
	.st220{fill:#3A1F33;}
	.st221{fill:#FECC87;}
	.st222{fill:#FBB359;}
	.st223{fill:#331A2C;}
	.st224{fill:#FDC886;}
	.st225{fill:#F7934B;}
	.st226{fill:#F04D65;}
	.st227{fill:#F6D6B2;}
	.st228{fill:#61A3C5;}
	.st229{fill:#B1D89B;}
	.st230{fill:#A8C8E5;}
	.st231{fill:#C1D1EC;}
	.st232{fill:#F2AC40;}
	.st233{fill:#3B57A6;}
	.st234{fill:#C2D5EE;}
	.st235{fill:#A9C4E6;}
	.st236{fill:#2D572A;}
	.st237{fill:#274392;}
	.st238{fill:#95B0DB;}
	.st239{fill:#BFBFBF;}
	.st240{fill:#E9F3FB;}
	.st241{fill:#6B81C0;}
	.st242{fill:#8FB1DD;}
	.st243{fill:#F58765;}
	.st244{fill:#2C1913;}
	.st245{fill:#6A3F31;}
	.st246{fill:#F37559;}
	.st247{fill:#F47A55;}
	.st248{fill:#E0B3A8;}
	.st249{fill:#D9D9D9;}
	.st250{fill:#C6DD74;}
	.st251{fill:#9FCB5F;}
	.st252{fill:#7C9D48;}
	.st253{fill:#E7E7E7;}
	.st254{fill:#F2C791;}
	.st255{fill:#B7B7B7;}
	.st256{fill:#7595CD;}
	.st257{fill:#FAB18D;}
	.st258{fill:#F6977C;}
	.st259{fill:#D1E28C;}
	.st260{fill:none;}
	.st261{fill:#1B1B1C;}
	.st262{fill:#F47E46;}
	.st263{fill:#EB6828;}
	.st264{fill:#F79668;}
	.st265{fill:#E6B54E;}
	.st266{fill:#676767;}
	.st267{fill:#4D4C4C;}
	.st268{fill:#F27070;}
	.st269{fill:#C24D4D;}
	.st270{enable-background:new    ;}
	.st271{fill:#C39B6A;}
	.st272{fill:#C9A475;}
	.st273{fill:#E6B880;}
	.st274{fill:#9F3D3E;}
	.st275{fill:#FFD679;}
	.st276{fill:#F4805D;}
	.st277{fill:#DA5958;}
	.st278{fill:#7D3D20;}
	.st279{fill:#562915;}
	.st280{fill:#B15931;}
	.st281{fill:#5076BA;}
	.st282{fill:#59ADC0;}
	.st283{fill:#099895;}
	.st284{fill:#F5AE87;}
	.st285{fill:#D9504F;}
	.st286{fill:#FCC79A;}
	.st287{fill:#FFDC7B;}
	.st288{fill:#F15958;}
	.st289{fill:#674E46;}
	.st290{fill:#785D51;}
	.st291{clip-path:url(#SVGID_39_);fill:#60934D;}
	.st292{clip-path:url(#SVGID_39_);}
	.st293{fill:#BD725F;}
	.st294{fill:#E6F1D1;}
	.st295{fill:#A86046;}
	.st296{fill:#3C251D;}
	.st297{fill:#4A413F;}
	.st298{fill:#716765;}
	.st299{fill:#EEBD7F;}
	.st300{fill:#7DA594;}
	.st301{fill:#252433;}
	.st302{fill:#F7E6C7;}
	.st303{fill:#E79F90;}
	.st304{fill:#CC4A38;}
	.st305{fill:#333333;}
	.st306{fill:#E1755E;}
	.st307{fill:#E8A180;}
	.st308{fill:#694136;}
	.st309{fill:#C06360;}
	.st310{fill:#CD5A5A;}
	.st311{fill:#E17660;}
	.st312{opacity:0.42;}
	.st313{fill-rule:evenodd;clip-rule:evenodd;fill:#B1D89B;}
	.st314{clip-path:url(#SVGID_41_);fill:#92B779;}
	.st315{clip-path:url(#SVGID_43_);fill:url(#SVGID_44_);}
	.st316{fill-rule:evenodd;clip-rule:evenodd;fill:#60934D;}
	.st317{clip-path:url(#SVGID_46_);fill:url(#SVGID_47_);}
	.st318{fill-rule:evenodd;clip-rule:evenodd;fill:#274CA1;}
	.st319{clip-path:url(#SVGID_49_);fill:url(#SVGID_50_);}
	.st320{clip-path:url(#SVGID_52_);fill:url(#SVGID_53_);}
	.st321{fill-rule:evenodd;clip-rule:evenodd;fill:#F3AF8F;}
	.st322{fill-rule:evenodd;clip-rule:evenodd;fill:#6E2D5F;}
	.st323{fill-rule:evenodd;clip-rule:evenodd;fill:#4D1942;}
	.st324{fill-rule:evenodd;clip-rule:evenodd;fill:#101841;}
	.st325{fill-rule:evenodd;clip-rule:evenodd;fill:#144984;}
	.st326{fill-rule:evenodd;clip-rule:evenodd;fill:#35AD82;}
	.st327{fill-rule:evenodd;clip-rule:evenodd;fill:#198C67;}
	.st328{fill-rule:evenodd;clip-rule:evenodd;fill:#F6C1C5;}
	.st329{fill-rule:evenodd;clip-rule:evenodd;fill:#53B9E9;}
	.st330{fill-rule:evenodd;clip-rule:evenodd;fill:#7DD3F7;}
	.st331{clip-path:url(#SVGID_55_);fill:url(#SVGID_56_);}
	.st332{clip-path:url(#SVGID_58_);fill:url(#SVGID_59_);}
	.st333{fill-rule:evenodd;clip-rule:evenodd;fill:#3DB4E8;}
	.st334{clip-path:url(#SVGID_61_);fill:url(#SVGID_62_);}
	.st335{fill-rule:evenodd;clip-rule:evenodd;fill:#F4FBFE;}
	.st336{fill-rule:evenodd;clip-rule:evenodd;fill:#F4B1B1;}
	.st337{fill-rule:evenodd;clip-rule:evenodd;fill:#D4EAD8;}
	.st338{fill-rule:evenodd;clip-rule:evenodd;fill:#E16C6C;}
	.st339{clip-path:url(#SVGID_64_);fill:url(#SVGID_65_);}
	.st340{clip-path:url(#SVGID_67_);fill:url(#SVGID_68_);}
	.st341{clip-path:url(#SVGID_70_);fill:url(#SVGID_71_);}
	.st342{clip-path:url(#SVGID_73_);fill:url(#SVGID_74_);}
	.st343{clip-path:url(#SVGID_76_);fill:url(#SVGID_77_);}
	.st344{fill-rule:evenodd;clip-rule:evenodd;fill:#316CB5;}
	.st345{clip-path:url(#SVGID_79_);fill:url(#SVGID_80_);}
	.st346{fill-rule:evenodd;clip-rule:evenodd;fill:#DF5D7B;}
	.st347{clip-path:url(#SVGID_82_);fill:url(#SVGID_83_);}
	.st348{fill-rule:evenodd;clip-rule:evenodd;fill:#2D572A;}
	.st349{clip-path:url(#SVGID_85_);fill:#60934D;}
	.st350{clip-path:url(#SVGID_87_);fill:url(#SVGID_88_);}
	.st351{clip-path:url(#SVGID_90_);fill:url(#SVGID_91_);}
	.st352{clip-path:url(#SVGID_93_);fill:url(#SVGID_94_);}
	.st353{fill:url(#SVGID_95_);}
	.st354{filter:url(#Adobe_OpacityMaskFilter_7_);}
	.st355{filter:url(#Adobe_OpacityMaskFilter_8_);}
	.st356{mask:url(#SVGID_96_);fill:url(#SVGID_97_);}
	.st357{fill:url(#SVGID_98_);}
	.st358{fill:none;stroke:#FFFFFF;stroke-miterlimit:10;}
	.st359{fill:url(#SVGID_99_);}
	.st360{filter:url(#Adobe_OpacityMaskFilter_9_);}
	.st361{filter:url(#Adobe_OpacityMaskFilter_10_);}
	.st362{mask:url(#SVGID_100_);fill:url(#SVGID_101_);}
	.st363{fill:url(#SVGID_102_);}
	.st364{fill:url(#SVGID_103_);}
	.st365{filter:url(#Adobe_OpacityMaskFilter_11_);}
	.st366{filter:url(#Adobe_OpacityMaskFilter_12_);}
	.st367{mask:url(#SVGID_104_);fill:url(#SVGID_105_);}
	.st368{fill:url(#SVGID_106_);}
	.st369{fill:url(#SVGID_107_);}
	.st370{filter:url(#Adobe_OpacityMaskFilter_13_);}
	.st371{filter:url(#Adobe_OpacityMaskFilter_14_);}
	.st372{mask:url(#SVGID_108_);fill:url(#SVGID_109_);}
	.st373{fill:url(#SVGID_110_);}
	.st374{fill:url(#SVGID_111_);}
	.st375{fill:url(#SVGID_112_);}
	.st376{fill:url(#SVGID_113_);}
	.st377{fill:url(#SVGID_114_);}
	.st378{fill:url(#SVGID_115_);}
	.st379{fill:url(#SVGID_116_);}
	.st380{fill:#FBC5B4;}
	.st381{fill:url(#SVGID_117_);}
	.st382{fill:url(#SVGID_118_);}
	.st383{filter:url(#Adobe_OpacityMaskFilter_15_);}
	.st384{filter:url(#Adobe_OpacityMaskFilter_16_);}
	.st385{mask:url(#SVGID_119_);fill:url(#SVGID_120_);}
	.st386{fill:url(#SVGID_121_);}
	.st387{fill:url(#SVGID_122_);}
	.st388{filter:url(#Adobe_OpacityMaskFilter_17_);}
	.st389{filter:url(#Adobe_OpacityMaskFilter_18_);}
	.st390{mask:url(#SVGID_123_);fill:url(#SVGID_124_);}
	.st391{fill:url(#SVGID_125_);}
	.st392{fill:url(#SVGID_126_);}
	.st393{fill:#F69575;}
	.st394{fill:url(#SVGID_127_);}
	.st395{fill:url(#SVGID_128_);}
	.st396{fill:url(#SVGID_129_);}
	.st397{fill:url(#SVGID_130_);}
	.st398{fill:url(#SVGID_131_);}
	.st399{fill:#F05253;}
	.st400{fill:#ED1C24;}
	.st401{fill:url(#SVGID_132_);}
	.st402{fill:url(#SVGID_133_);}
	.st403{fill:url(#SVGID_134_);}
	.st404{fill:url(#SVGID_135_);}
	.st405{fill:url(#SVGID_136_);}
	.st406{fill:url(#SVGID_137_);}
	.st407{fill:#FDC78D;}
	.st408{fill:#FFD10A;}
	.st409{fill:url(#SVGID_138_);}
	.st410{fill:url(#SVGID_139_);}
	.st411{fill:url(#SVGID_140_);}
	.st412{fill:#6899D1;}
	.st413{fill:#F4F4F4;}
	.st414{fill:#DAEEF6;}
	.st415{fill:url(#SVGID_141_);}
	.st416{fill:#85CEC1;}
	.st417{fill:url(#SVGID_142_);}
	.st418{fill:#F37878;}
	.st419{fill:url(#SVGID_143_);}
	.st420{fill:url(#SVGID_144_);}
	.st421{fill:url(#SVGID_145_);}
	.st422{fill:url(#SVGID_146_);}
	.st423{fill:url(#SVGID_147_);}
	.st424{fill:url(#SVGID_148_);}
	.st425{fill:url(#SVGID_149_);}
	.st426{fill:url(#SVGID_150_);}
	.st427{fill:url(#SVGID_151_);}
	.st428{fill:url(#SVGID_152_);}
	.st429{fill:url(#SVGID_153_);}
	.st430{fill:#F0EFEF;}
	.st431{fill:#DBD7D7;}
	.st432{fill:#63C7D3;}
	.st433{opacity:0.5;fill:#63C7D3;}
	.st434{fill:#E6E7F4;}
	.st435{fill:#23214D;}
	.st436{fill:#283996;}
	.st437{fill:#1B193A;}
	.st438{fill:#F68D63;}
	.st439{fill:#F9A575;}
	.st440{fill:#FEDA04;}
	.st441{fill:#312126;}
	.st442{fill:#F15F4B;}
	.st443{fill:#F15834;}
	.st444{fill:#EC4524;}
	.st445{fill:#F26B76;}
	.st446{fill:#4D5BA9;}
	.st447{fill:#2D327E;}
	.st448{fill:#39469D;}
	.st449{fill:#9AC181;}
	.st450{fill:#7ED0DC;}
	.st451{display:none;}
	.st452{display:inline;fill:#F9A575;}
	.st453{display:inline;}
	.st454{fill:#673A3C;}
	.st455{fill:#794447;}
	.st456{fill:#47222C;}
	.st457{fill:#29275C;}
	.st458{fill:#57B0B9;}
	.st459{fill:#EF434E;}
	.st460{fill:#E24826;}
	.st461{fill:#4754A5;}
	.st462{fill:#B6C153;}
	.st463{fill:#DD4361;}
	.st464{fill:#FBB67B;}
	.st465{fill:#F6EEEA;}
	.st466{fill:#251D1C;}
	.st467{fill:#E0B895;}
	.st468{fill:#DFB793;}
	.st469{fill:#B8A79D;}
	.st470{fill:#9B93C7;}
	.st471{fill:#6A8037;}
	.st472{fill:#E9633E;}
	.st473{fill:#F6936F;}
	.st474{fill:#DBD8EC;}
	.st475{fill:#221A19;}
	.st476{fill:#382621;}
	.st477{fill:#F7EFEC;}
	.st478{fill:#FBB67C;}
	.st479{fill:#70CACA;}
	.st480{fill:#004669;}
	.st481{fill:#33ADA9;}
	.st482{fill:#EE777A;}
	.st483{fill:#C3E8F0;}
	.st484{fill:#C39C44;}
	.st485{fill:#FFE6B0;}
	.st486{fill:#FFCB5D;}
	.st487{fill:#D2EDF5;}
	.st488{fill:none;stroke:#D2EDF5;stroke-width:2.2824;stroke-miterlimit:10;}
	.st489{fill:#0F4672;}
	.st490{fill:#92B779;}
	.st491{fill:#D47C60;}
	.st492{fill:#054A6E;}
	.st493{fill:#2B9996;}
	.st494{fill:#CAE9EB;}
	.st495{fill:#F7A581;}
	.st496{fill:#F18D24;}
	.st497{fill:#CF7929;}
	.st498{fill:#182F40;}
	.st499{fill:#0E1B2D;}
	.st500{fill:#406E34;}
	.st501{fill:#3B83B0;}
	.st502{fill:#3B3F4A;}
	.st503{fill:#242930;}
	.st504{fill:#FBD165;}
	.st505{fill:#FCB017;}
	.st506{fill:#155567;}
	.st507{fill:#236A7E;}
	.st508{fill:#3096B3;}
	.st509{fill:#84D2F6;}
	.st510{fill:#C4E4F8;}
	.st511{fill:#FCB774;}
	.st512{fill:#FAA31B;}
	.st513{fill:#E38D25;}
	.st514{fill:#AADFF3;}
	.st515{fill:#126E84;}
	.st516{fill:#064A56;}
	.st517{fill:#096D84;}
	.st518{fill:#D3CED9;}
	.st519{fill:#D89466;}
	.st520{fill:#FAA61A;}
	.st521{fill:#AA6549;}
	.st522{fill:#B35143;}
	.st523{fill:#3B3E54;}
	.st524{fill:#8A432D;}
	.st525{fill:#4C2F2C;}
	.st526{fill:#3C1C19;}
	.st527{fill:#9889C1;}
	.st528{fill:#CC8759;}
	.st529{fill:#665DA9;}
	.st530{fill:#5C2B20;}
	.st531{fill:#F4F5F0;}
	.st532{fill:#E04A95;}
	.st533{fill:#BC6944;}
	.st534{fill:#673021;}
	.st535{fill:#C4C2DF;}
	.st536{fill:#342B29;}
	.st537{fill:#E69F6F;}
	.st538{fill:#F173AC;}
	.st539{fill:#FAA43A;}
	.st540{fill:#F7F7FA;}
	.st541{fill:#3F4076;}
	.st542{fill:#5CA4DA;}
	.st543{fill:#BBD071;}
	.st544{fill:#97A33B;}
	.st545{fill:#49763A;}
	.st546{fill:#E5F2FC;}
	.st547{opacity:0.85;}
	.st548{fill:#4692CF;}
	.st549{fill:#0E2D3D;}
	.st550{fill:#5478B4;}
	.st551{fill:#5B83C3;}
	.st552{fill:#304664;}
	.st553{fill:#364D71;}
	.st554{fill:#2C3B57;}
	.st555{fill:#D5D8E8;}
	.st556{opacity:0.82;}
	.st557{fill:#418ECC;}
	.st558{fill:#173342;}
	.st559{fill:#295274;}
	.st560{fill:#F47D58;}
	.st561{fill:#183C59;}
	.st562{fill:#616262;}
	.st563{fill:#E0CFC8;}
	.st564{fill:#64A8DC;}
	.st565{opacity:0.66;}
	.st566{fill:#CBE1F5;}
	.st567{fill:#8CB6E1;}
	.st568{fill:#B5D3EF;}
	.st569{fill:#B8D8F2;}
	.st570{fill:#92B4DF;}
	.st571{fill:#BBDDDE;}
	.st572{fill:#D1ECED;}
	.st573{fill:#C8CBE2;}
	.st574{fill:#669AD2;}
	.st575{fill:#4D84C5;}
	.st576{fill:#181C4D;}
	.st577{fill:#EFBBBB;}
	.st578{fill:#F9CBCB;}
	.st579{fill:#2B3874;}
	.st580{fill:#EBAEAD;}
	.st581{fill:#21295D;}
	.st582{fill:#31344D;}
	.st583{fill:#FCD4D1;}
	.st584{fill:#B95050;}
	.st585{fill:#FEE9E2;}
	.st586{fill:#181A2E;}
	.st587{fill:#EB9B9C;}
	.st588{fill:#F9B7B3;}
	.st589{fill:#444C86;}
	.st590{fill:#2B3367;}
	.st591{fill:#93BAE3;}
	.st592{fill:#4B80C1;}
	.st593{fill:#396CAD;}
	.st594{fill:#C0D9F1;}
	.st595{fill:#F9B4AF;}
	.st596{fill:#4E88C7;}
	.st597{fill:#195595;}
	.st598{fill:#D9475A;}
	.st599{fill:#1172BA;}
	.st600{fill:#247BBC;}
	.st601{fill:#FAA71F;}
	.st602{fill:#D55127;}
	.st603{fill:none;stroke:#212F57;stroke-width:0.925;stroke-miterlimit:10;}
	.st604{fill:#212F57;}
	.st605{opacity:0.5;fill:#838DC5;}
	.st606{fill:#F2C7BD;}
	.st607{fill:none;stroke:#212F57;stroke-width:1.2665;stroke-linecap:round;stroke-linejoin:round;stroke-miterlimit:10;}
	.st608{fill:#272A41;}
	.st609{fill:none;stroke:#E8B1C3;stroke-width:2.5241;stroke-miterlimit:10;}
	.st610{fill:#5160A5;}
	.st611{opacity:0.5;fill:#D55127;}
	.st612{opacity:0.5;fill:#DA8727;}
	.st613{opacity:0.7;}
	.st614{fill:#DA8727;}
	.st615{fill:#A3BDE3;}
	.st616{fill:#1B7A84;}
	.st617{fill:#B1D2EF;}
	.st618{fill:#F8ACAD;}
	.st619{opacity:0.63;}
	.st620{clip-path:url(#SVGID_155_);}
	.st621{fill:#D7E7F6;}
	.st622{clip-path:url(#SVGID_157_);}
	.st623{clip-path:url(#SVGID_159_);}
	.st624{clip-path:url(#SVGID_161_);}
	.st625{clip-path:url(#SVGID_163_);}
	.st626{clip-path:url(#SVGID_165_);}
	.st627{clip-path:url(#SVGID_167_);}
	.st628{clip-path:url(#SVGID_169_);}
	.st629{clip-path:url(#SVGID_171_);}
	.st630{clip-path:url(#SVGID_173_);}
	.st631{clip-path:url(#SVGID_175_);}
	.st632{clip-path:url(#SVGID_177_);}
	.st633{clip-path:url(#SVGID_179_);}
	.st634{clip-path:url(#SVGID_181_);}
	.st635{clip-path:url(#SVGID_183_);}
	.st636{clip-path:url(#SVGID_185_);}
	.st637{clip-path:url(#SVGID_187_);}
	.st638{clip-path:url(#SVGID_189_);}
	.st639{clip-path:url(#SVGID_191_);}
	.st640{clip-path:url(#SVGID_193_);}
	.st641{clip-path:url(#SVGID_195_);}
	.st642{fill:#89B2DF;}
	.st643{fill:#4377BC;}
	.st644{fill:#DA6566;}
	.st645{fill:#F58E92;}
	.st646{fill-rule:evenodd;clip-rule:evenodd;fill:#4DB5D1;}
	.st647{fill:#F15C60;}
	.st648{fill:#FFD574;}
	.st649{fill:#F2B892;}
	.st650{fill:#EB836C;}
	.st651{fill:url(#SVGID_196_);}
	.st652{fill:#222C55;}
	.st653{fill:#4551A3;}
	.st654{fill:url(#SVGID_197_);}
	.st655{fill:#0B3C5F;}
	.st656{fill:#F8A187;}
	.st657{fill:#F4B68F;}
	.st658{fill:#232850;}
	.st659{fill:#306D9E;}
	.st660{fill:#255981;}
	.st661{fill:#F69E83;}
	.st662{fill:#0B3D60;}
	.st663{opacity:0.45;fill:#89B2DF;}
	.st664{filter:url(#Adobe_OpacityMaskFilter_19_);}
	.st665{filter:url(#Adobe_OpacityMaskFilter_20_);}
	.st666{mask:url(#SVGID_198_);fill:url(#SVGID_199_);}
	.st667{opacity:0.33;fill:#AADFF3;}
	.st668{filter:url(#Adobe_OpacityMaskFilter_21_);}
	.st669{filter:url(#Adobe_OpacityMaskFilter_22_);}
	.st670{mask:url(#SVGID_200_);fill:url(#SVGID_201_);}
	.st671{filter:url(#Adobe_OpacityMaskFilter_23_);}
	.st672{filter:url(#Adobe_OpacityMaskFilter_24_);}
	.st673{mask:url(#SVGID_202_);fill:url(#SVGID_203_);}
	.st674{fill:#CFD8EE;}
	.st675{fill:#E3E6F4;}
	.st676{fill:#ABBADF;}
	.st677{fill:#C3CCE8;}
	.st678{fill:url(#SVGID_204_);}
	.st679{fill:url(#SVGID_205_);}
	.st680{fill:#D3D0E9;}
	.st681{fill:#078BBF;}
	.st682{fill:#057B97;}
	.st683{fill:url(#SVGID_206_);}
	.st684{fill:#C74534;}
	.st685{fill:#F27B66;}
	.st686{fill:#58449B;}
	.st687{fill:#6B52A2;}
	.st688{fill:#A9A6D2;}
	.st689{fill:#C4C0E0;}
	.st690{opacity:0.33;}
	.st691{opacity:0.23;fill:url(#SVGID_207_);}
	.st692{opacity:0.36;fill:url(#SVGID_208_);}
	.st693{opacity:0.36;fill:url(#SVGID_209_);}
	.st694{opacity:0.23;fill:url(#SVGID_210_);}
	.st695{fill:#D8E0F2;}
	.st696{opacity:0.36;fill:url(#SVGID_211_);}
	.st697{opacity:0.42;fill:url(#SVGID_212_);}
	.st698{fill:#F6F9FD;}
	.st699{fill:#049AC9;}
	.st700{fill:#E0E0E0;}
	.st701{fill:#EBEBEB;}
	.st702{fill:none;stroke:#F2A59D;stroke-width:0.05;stroke-miterlimit:10;}
	.st703{fill:#FAFBFB;}
	.st704{fill:#E7515B;}
	.st705{fill:#CFCFCE;}
	.st706{fill:#FBBD9D;}
	.st707{fill:#EC996F;}
	.st708{opacity:0.6;fill:#FFFFFF;}
	.st709{opacity:0.6;}
	.st710{fill:#263238;}
	.st711{fill:#455B64;}
	.st712{fill:none;stroke:#43494E;stroke-miterlimit:10;}
	.st713{fill:#F5F5F5;}
	.st714{fill:#F3725F;}
	.st715{opacity:0;}
	.st716{clip-path:url(#SVGID_214_);}
	.st717{fill:#C9D8EF;}
	.st718{clip-path:url(#SVGID_216_);}
	.st719{clip-path:url(#SVGID_218_);}
	.st720{clip-path:url(#SVGID_220_);}
	.st721{clip-path:url(#SVGID_222_);}
	.st722{clip-path:url(#SVGID_224_);}
	.st723{clip-path:url(#SVGID_226_);}
	.st724{clip-path:url(#SVGID_228_);}
	.st725{clip-path:url(#SVGID_230_);}
	.st726{clip-path:url(#SVGID_232_);}
	.st727{clip-path:url(#SVGID_234_);}
	.st728{clip-path:url(#SVGID_236_);}
	.st729{clip-path:url(#SVGID_238_);}
	.st730{clip-path:url(#SVGID_240_);}
	.st731{clip-path:url(#SVGID_242_);}
	.st732{clip-path:url(#SVGID_244_);}
	.st733{clip-path:url(#SVGID_246_);}
	.st734{clip-path:url(#SVGID_248_);}
	.st735{clip-path:url(#SVGID_250_);}
	.st736{clip-path:url(#SVGID_252_);}
	.st737{clip-path:url(#SVGID_254_);}
	.st738{fill:#59595B;}
	.st739{fill:#EDF7F7;}
	.st740{fill:#FDD247;}
	.st741{fill:#1D2040;}
	.st742{fill:url(#SVGID_255_);}
	.st743{fill:#F89A45;}
	.st744{fill:#4F2E1F;}
	.st745{fill:#AEADAD;}
	.st746{fill:#3C2116;}
	.st747{fill:#76696D;}
	.st748{fill:#DFB0B4;}
	.st749{fill:#0E4363;}
	.st750{fill:#F8F6F1;}
	.st751{fill:#A4BAE1;}
	.st752{fill:#4D1F38;}
	.st753{fill:#3A1528;}
	.st754{fill:#746875;}
	.st755{fill:#DAADD1;}
	.st756{fill:url(#SVGID_256_);}
	.st757{fill:#CD3570;}
	.st758{fill:url(#SVGID_257_);}
	.st759{fill:url(#SVGID_258_);}
	.st760{fill:#A09F9F;}
	.st761{fill:none;stroke:#FFFFFF;stroke-linecap:round;stroke-miterlimit:10;}
	.st762{fill:none;stroke:#FFFFFF;stroke-linecap:round;stroke-linejoin:round;stroke-miterlimit:10;}
	.st763{fill:none;stroke:#A09F9F;stroke-miterlimit:10;}
	.st764{fill:#7B553A;}
	.st765{fill:#5F422D;}
	.st766{fill:#FDB839;}
	.st767{fill:#401B0F;}
	.st768{fill:#034B4E;}
	.st769{opacity:0.36;}
	.st770{opacity:0.1;fill:#CFCFCE;}
	.st771{opacity:0.15;}
	.st772{fill:#FBB781;}
	.st773{fill:#49A8D5;}
	.st774{fill:#077679;}
	.st775{opacity:0.1;}
	.st776{fill:#BEE0C0;}
	.st777{opacity:0.23;fill:#245C74;}
	.st778{fill:#245C74;}
	.st779{fill:#FCC69B;}
	.st780{fill:#DBA285;}
	.st781{fill:#757576;}
	.st782{fill:#ABABAA;}
	.st783{fill:#6F6F71;}
	.st784{fill:#FFCA70;}
	.st785{fill:#FAA325;}
	.st786{fill:none;stroke:#077679;stroke-width:0.25;stroke-linecap:round;stroke-linejoin:round;stroke-miterlimit:10;}
	.st787{fill:#963A20;}
	.st788{fill:#E2E2E2;}
	.st789{fill:#18184B;}
	.st790{fill:#F8B6C9;}
	.st791{fill:#F58531;}
	.st792{fill:#759CD2;}
	.st793{fill:#BACFEB;}
</style>
<g>
	<g>
		<path class="st250" d="M97.11,103.58c0,0-7.1-14.66,4.12-20.48c5.59-2.9,4.68-10.79,8.51-13.22c3.83-2.43,9.2-4.51,10.9-10.02
			c1.7-5.51,13.93-5.36,8.83,4.27c-5.21,9.82-3.48,9.27-4.23,15.09c-0.75,5.82-6.27,7.87-8.24,10.6c-1.97,2.74,1.07,8.98-3.32,11.79
			C109.3,104.43,97.11,103.58,97.11,103.58z"/>
		<path class="st251" d="M98.6,101.64c-0.01,0-0.03,0-0.04-0.01c-0.08-0.02-0.13-0.11-0.11-0.2c0.1-0.35,2.6-8.58,6.37-11.91
			c1.85-1.63,2.91-4.29,3.94-6.86c1.06-2.63,2.15-5.36,4.09-7.01c0.71-0.6,1.37-1.14,1.95-1.61c2.59-2.1,4.15-3.37,5.8-6.68
			c0.66-1.32,1.07-2.46,1.44-3.47c0.78-2.14,1.34-3.69,3.56-5.13c0.07-0.05,0.17-0.03,0.22,0.05c0.05,0.07,0.03,0.17-0.05,0.22
			c-2.14,1.38-2.68,2.89-3.44,4.97c-0.37,1.01-0.78,2.16-1.45,3.5c-1.69,3.37-3.27,4.66-5.89,6.79c-0.58,0.47-1.24,1.01-1.95,1.61
			c-1.89,1.6-2.97,4.29-4.01,6.89c-1.04,2.6-2.12,5.29-4.03,6.98c-3.71,3.27-6.25,11.69-6.28,11.77
			C98.73,101.6,98.67,101.64,98.6,101.64z"/>
		<path class="st251" d="M109.55,81.33c-0.06,0-0.12-0.04-0.14-0.1c-0.03-0.08,0-0.17,0.08-0.21c0.5-0.21,12.33-5.13,15.58-0.43
			c0.05,0.07,0.03,0.17-0.04,0.22c-0.07,0.05-0.17,0.03-0.22-0.04c-3.11-4.49-15.08,0.49-15.2,0.54
			C109.59,81.32,109.57,81.33,109.55,81.33z"/>
		<path class="st251" d="M116.19,97.09c-0.05,0-0.1-0.03-0.13-0.08c-3.27-5.42-15.34-0.53-15.46-0.48l-0.25,0.1l0.03-0.26
			c0.8-7.1-3.79-8.91-3.84-8.93c-0.08-0.03-0.12-0.12-0.09-0.2c0.03-0.08,0.12-0.12,0.2-0.09c0.05,0.02,4.75,1.87,4.07,8.99
			c1.8-0.7,12.42-4.57,15.6,0.7c0.04,0.07,0.02,0.17-0.05,0.22C116.24,97.08,116.22,97.09,116.19,97.09z"/>
		<path class="st251" d="M109.94,80.42c-0.01,0-0.03,0-0.04-0.01c-0.08-0.02-0.13-0.11-0.11-0.19c1.48-5.35-1.73-8.51-1.76-8.54
			c-0.06-0.06-0.06-0.16,0-0.22c0.06-0.06,0.16-0.06,0.22,0c0.03,0.03,3.38,3.32,1.85,8.85C110.07,80.37,110.01,80.42,109.94,80.42z
			"/>
		<path class="st251" d="M121.39,65.85l0.08-0.37c0.81-3.83-0.91-5.48-0.93-5.5c-0.06-0.06-0.07-0.16-0.01-0.22
			c0.06-0.06,0.16-0.07,0.22-0.01c0.07,0.07,1.77,1.68,1.09,5.45c1-0.56,4.29-2.18,7.68-1.21c0.08,0.02,0.13,0.11,0.11,0.19
			c-0.02,0.08-0.11,0.13-0.19,0.11c-3.91-1.11-7.69,1.33-7.72,1.36L121.39,65.85z"/>
	</g>
	<g>
		<path class="st251" d="M96.92,114.3c0,0,11.43-17.93,28.77-18.69C125.69,95.61,119.88,110.61,96.92,114.3z"/>
		<path class="st252" d="M98.3,113.45c-0.05,0-0.09-0.02-0.12-0.06c-0.05-0.07-0.04-0.17,0.02-0.22
			c0.17-0.14,17.11-13.85,27.43-17.71c0.08-0.03,0.17,0.01,0.2,0.09c0.03,0.08-0.01,0.17-0.09,0.2
			c-10.27,3.85-27.17,17.52-27.34,17.66C98.37,113.44,98.34,113.45,98.3,113.45z"/>
		<path class="st252" d="M108.03,111.39c-0.01,0-0.01,0-0.02,0l-6.2-0.87l1.09-3.65c0.03-0.08,0.11-0.13,0.2-0.11
			c0.08,0.02,0.13,0.11,0.11,0.2l-0.99,3.31l5.83,0.82c0.09,0.01,0.15,0.09,0.13,0.18C108.17,111.34,108.11,111.39,108.03,111.39z"
			/>
		<path class="st252" d="M113.54,108.62c-0.01,0-0.02,0-0.04,0l-6.88-1.66l0.55-3.92c0.01-0.09,0.09-0.14,0.18-0.13
			c0.09,0.01,0.15,0.09,0.13,0.18l-0.51,3.63l6.61,1.59c0.08,0.02,0.14,0.11,0.12,0.19C113.68,108.57,113.62,108.62,113.54,108.62z"
			/>
		<path class="st252" d="M118.06,105.4c-0.01,0-0.03,0-0.04-0.01l-6.46-1.92l1.83-4.5c0.03-0.08,0.12-0.12,0.2-0.09
			c0.08,0.03,0.12,0.12,0.09,0.2l-1.7,4.18l6.12,1.83c0.08,0.02,0.13,0.11,0.11,0.2C118.19,105.36,118.13,105.4,118.06,105.4z"/>
		<path class="st252" d="M122.06,101.42c-0.01,0-0.02,0-0.03,0l-5.59-1.05l0.97-3.16c0.03-0.08,0.11-0.13,0.2-0.1
			c0.08,0.03,0.13,0.11,0.1,0.2l-0.87,2.83l5.24,0.99c0.09,0.02,0.14,0.1,0.12,0.18C122.2,101.37,122.13,101.42,122.06,101.42z"/>
		<path class="st252" d="M124.37,98.25c-0.01,0-0.02,0-0.03,0l-3.13-0.57l0.49-1.65c0.02-0.08,0.11-0.13,0.2-0.11
			c0.08,0.02,0.13,0.11,0.11,0.2l-0.39,1.32l2.79,0.51c0.09,0.02,0.14,0.1,0.13,0.18C124.51,98.19,124.45,98.25,124.37,98.25z"/>
	</g>
	<g>
		<path class="st251" d="M97.1,88.33c0,0,3.91-19.97,19.1-26.71C116.2,61.62,116.28,77.01,97.1,88.33z"/>
		<path class="st252" d="M97.99,87.11c-0.03,0-0.05-0.01-0.08-0.02c-0.08-0.04-0.1-0.14-0.06-0.21c0.1-0.18,10.4-18.32,18.25-25.37
			c0.06-0.06,0.16-0.05,0.22,0.01c0.06,0.06,0.05,0.16-0.01,0.22c-7.81,7.02-18.08,25.11-18.18,25.29
			C98.09,87.08,98.04,87.11,97.99,87.11z"/>
		<path class="st252" d="M100.14,83.26l-0.31-3.65c-0.01-0.09,0.06-0.16,0.14-0.17c0.08-0.01,0.16,0.06,0.17,0.14l0.28,3.28
			l5.48-1.31c0.09-0.02,0.17,0.03,0.19,0.12c0.02,0.08-0.03,0.17-0.12,0.19L100.14,83.26z"/>
		<path class="st252" d="M103.18,78.4l-0.88-3.69c-0.02-0.08,0.03-0.17,0.12-0.19c0.08-0.02,0.17,0.03,0.19,0.12l0.81,3.41
			l6.44-0.89c0.08-0.01,0.17,0.05,0.18,0.13c0.01,0.09-0.05,0.16-0.13,0.18L103.18,78.4z"/>
		<path class="st252" d="M106.36,73.56l0.06-4.66c0-0.09,0.07-0.15,0.16-0.15c0,0,0,0,0,0c0.09,0,0.16,0.07,0.15,0.16l-0.06,4.31
			l6.09-0.51c0.08-0.01,0.16,0.06,0.17,0.14c0.01,0.09-0.06,0.16-0.14,0.17L106.36,73.56z"/>
		<path class="st252" d="M109.62,69.1l-0.24-3.17c-0.01-0.09,0.06-0.16,0.14-0.17c0.09-0.01,0.16,0.06,0.17,0.14l0.21,2.82
			l5.01-0.95c0.08-0.02,0.17,0.04,0.18,0.12c0.02,0.09-0.04,0.17-0.12,0.18L109.62,69.1z"/>
		<path class="st252" d="M112.93,65.03l-0.14-1.65c-0.01-0.09,0.06-0.16,0.14-0.17c0.08-0.01,0.16,0.06,0.17,0.14l0.11,1.3
			l2.66-0.52c0.08-0.02,0.17,0.04,0.18,0.12c0.02,0.08-0.04,0.17-0.12,0.18L112.93,65.03z"/>
	</g>
	<g>
		<path class="st251" d="M96.48,113.4c0,0,2.22-21.15,17.4-29.57C113.88,83.83,115.38,99.84,96.48,113.4z"/>
		<path class="st252" d="M97.27,112.04c-0.02,0-0.04,0-0.06-0.01c-0.08-0.04-0.11-0.13-0.08-0.21c0.09-0.2,9.12-20.03,16.63-28.09
			c0.06-0.06,0.16-0.07,0.22-0.01c0.06,0.06,0.07,0.16,0.01,0.22c-7.47,8.03-16.49,27.81-16.58,28.01
			C97.39,112,97.33,112.04,97.27,112.04z"/>
		<path class="st252" d="M99.17,107.83l-0.66-3.76c-0.01-0.09,0.04-0.17,0.13-0.18c0.08-0.02,0.17,0.04,0.18,0.13l0.59,3.4
			l5.59-1.87c0.08-0.03,0.17,0.02,0.2,0.1c0.03,0.08-0.02,0.17-0.1,0.2L99.17,107.83z"/>
		<path class="st252" d="M101.89,102.49l-1.26-3.75c-0.03-0.08,0.02-0.17,0.1-0.2c0.08-0.03,0.17,0.02,0.2,0.1l1.17,3.48l6.62-1.52
			c0.09-0.02,0.17,0.03,0.19,0.12c0.02,0.08-0.03,0.17-0.12,0.19L101.89,102.49z"/>
		<path class="st252" d="M104.75,97.17l-0.37-4.85c-0.01-0.09,0.06-0.16,0.14-0.17c0.08-0.01,0.16,0.06,0.17,0.14l0.34,4.5l6.3-1.1
			c0.08-0.02,0.17,0.04,0.18,0.13c0.01,0.09-0.04,0.17-0.13,0.18L104.75,97.17z"/>
		<path class="st252" d="M107.73,92.21l-0.54-3.26c-0.01-0.09,0.04-0.17,0.13-0.18c0.09-0.01,0.17,0.04,0.18,0.13l0.48,2.92
			l5.13-1.46c0.08-0.02,0.17,0.02,0.19,0.11s-0.02,0.17-0.11,0.19L107.73,92.21z"/>
		<path class="st252" d="M110.79,87.67l-0.3-1.7c-0.01-0.09,0.04-0.17,0.13-0.18c0.08-0.02,0.17,0.04,0.18,0.13l0.24,1.35l2.72-0.79
			c0.08-0.02,0.17,0.02,0.19,0.11c0.02,0.08-0.02,0.17-0.11,0.19L110.79,87.67z"/>
	</g>
	<g>
		<ellipse class="st253" cx="68.71" cy="115.42" rx="43.25" ry="2.51"/>
		<g>
			<g>
				<rect x="29.5" y="29.9" class="st3" width="73.12" height="87.18"/>
				<path class="st254" d="M97.6,34.91v77.15H34.52V34.91H97.6 M102.62,29.9H29.5v87.18h73.12V29.9L102.62,29.9z"/>
			</g>
		</g>
		<g>
			<g>
				<path class="st254" d="M43.73,83.58L43.7,67.33l16.25-0.03l0.03,16.25L43.73,83.58z M44.02,67.64l0.03,15.62l15.62-0.03
					l-0.03-15.62L44.02,67.64z"/>
			</g>
			<g>
				<path class="st254" d="M43.73,104.91L43.7,88.67l16.25-0.03l0.03,16.25L43.73,104.91z M44.02,88.98l0.03,15.62l15.62-0.03
					l-0.03-15.62L44.02,88.98z"/>
			</g>
			<path class="st254" d="M81.76,48.85H66.05c-0.17,0-0.31-0.14-0.31-0.31c0-0.17,0.14-0.31,0.31-0.31h15.72
				c0.17,0,0.31,0.14,0.31,0.31C82.08,48.71,81.94,48.85,81.76,48.85z"/>
			<path class="st254" d="M80.43,53.03H66.05c-0.17,0-0.31-0.14-0.31-0.31c0-0.17,0.14-0.31,0.31-0.31h14.39
				c0.17,0,0.31,0.14,0.31,0.31C80.74,52.89,80.6,53.03,80.43,53.03z"/>
			<path class="st254" d="M76.22,57.21H66.05c-0.17,0-0.31-0.14-0.31-0.31s0.14-0.31,0.31-0.31h10.17c0.17,0,0.31,0.14,0.31,0.31
				S76.39,57.21,76.22,57.21z"/>
			<path class="st254" d="M77.78,61.4H66.05c-0.17,0-0.31-0.14-0.31-0.31c0-0.17,0.14-0.31,0.31-0.31h11.74
				c0.17,0,0.31,0.14,0.31,0.31C78.1,61.26,77.96,61.4,77.78,61.4z"/>
			<path class="st254" d="M81.76,69.22H66.05c-0.17,0-0.31-0.14-0.31-0.31c0-0.17,0.14-0.31,0.31-0.31h15.72
				c0.17,0,0.31,0.14,0.31,0.31C82.08,69.07,81.94,69.22,81.76,69.22z"/>
			<path class="st254" d="M77.12,73.4H66.05c-0.17,0-0.31-0.14-0.31-0.31c0-0.17,0.14-0.31,0.31-0.31h11.07
				c0.17,0,0.31,0.14,0.31,0.31C77.43,73.26,77.29,73.4,77.12,73.4z"/>
			<path class="st254" d="M79.15,77.58H66.05c-0.17,0-0.31-0.14-0.31-0.31c0-0.17,0.14-0.31,0.31-0.31h13.11
				c0.17,0,0.31,0.14,0.31,0.31C79.46,77.44,79.32,77.58,79.15,77.58z"/>
			<path class="st254" d="M77.78,81.77H66.05c-0.17,0-0.31-0.14-0.31-0.31c0-0.17,0.14-0.31,0.31-0.31h11.74
				c0.17,0,0.31,0.14,0.31,0.31C78.1,81.63,77.96,81.77,77.78,81.77z"/>
			<path class="st254" d="M81.76,89.88H66.05c-0.17,0-0.31-0.14-0.31-0.31s0.14-0.31,0.31-0.31h15.72c0.17,0,0.31,0.14,0.31,0.31
				S81.94,89.88,81.76,89.88z"/>
			<path class="st254" d="M84.29,94.06H66.05c-0.17,0-0.31-0.14-0.31-0.31s0.14-0.31,0.31-0.31h18.25c0.17,0,0.31,0.14,0.31,0.31
				S84.46,94.06,84.29,94.06z"/>
			<path class="st254" d="M81.76,98.24H66.05c-0.17,0-0.31-0.14-0.31-0.31s0.14-0.31,0.31-0.31h15.72c0.17,0,0.31,0.14,0.31,0.31
				S81.94,98.24,81.76,98.24z"/>
			<path class="st254" d="M77.78,102.43H66.05c-0.17,0-0.31-0.14-0.31-0.31c0-0.17,0.14-0.31,0.31-0.31h11.74
				c0.17,0,0.31,0.14,0.31,0.31C78.1,102.29,77.96,102.43,77.78,102.43z"/>
		</g>
		<g>
			<path class="st255" d="M73.06,26.85c0-0.04,0.01-0.09,0.01-0.13c0-3-2.43-5.43-5.43-5.43c-3,0-5.43,2.43-5.43,5.43
				c0,0.04,0.01,0.09,0.01,0.13h-8.97v9.03h28.78v-9.03H73.06z M67.64,29.06c-1.22,0-2.21-0.99-2.21-2.21
				c0-1.22,0.99-2.21,2.21-2.21c1.22,0,2.21,0.99,2.21,2.21C69.85,28.07,68.86,29.06,67.64,29.06z"/>
		</g>
	</g>
	<g>
		<path class="st253" d="M102.61,44.31c-1.53-2.12-3.35-4.2-3.35-4.2l3.35-6.29v-2.23H89.14c-1.98,3.04-4.01,6.31-4.16,7.13
			c-0.29,1.62,1.12,15.3,1.12,15.3l0.09,0l0,1.19c0,0.06-0.04,0.11-0.1,0.13c-0.47,0.1-0.93,0.21-2.17,0.52
			c-0.04,0.01-0.09,0.03-0.13,0.04c-2.19,0.6-3.87,1.34-3.59,1.71c0.63,0.85,4.16,0.12,6.77-0.52c2.51-0.62,0.74-1.91,0.67-1.96
			l0-1.15l0.12,0c0,0,0.24-4.48,0.47-7.03c0.19-2.08-0.36-5.53-0.09-6.82c0.14-0.68,4.51-0.82,7.26-3.89
			c-0.27,1.9-0.4,3.38,0.28,4.59c0.91,1.61,4.35,6.24,6.92,9.65V44.31z"/>
		<path class="st256" d="M87.64,53.95c0,0,1.89,1.33-0.67,1.96c-2.6,0.64-6.14,1.37-6.77,0.52C79.77,55.85,84.07,54.38,87.64,53.95z
			"/>
		<path class="st257" d="M83.92,54.68c1.24-0.31,1.7-0.42,2.17-0.52c0.06-0.01,0.1-0.07,0.1-0.13l0-1.97c0-0.07,0.06-0.13,0.13-0.13
			l1.18,0c0.07,0,0.13,0.06,0.13,0.13l0,2.01c0,0.05-0.02,0.09-0.07,0.11c-0.24,0.13-1.2,0.47-3.65,1.02
			C82.94,55.41,83.4,54.81,83.92,54.68z"/>
		<path class="st256" d="M107.8,53.74c0,0,2.31,0.14,0.46,2.02c-1.88,1.91-4.51,4.39-5.49,4C102.1,59.48,104.99,55.97,107.8,53.74z"
			/>
		<path class="st257" d="M105.02,56.3c0.89-0.92,1.22-1.25,1.57-1.58c0.04-0.04,0.05-0.11,0.02-0.16l-1.04-1.68
			c-0.04-0.06-0.02-0.14,0.04-0.18l1.01-0.62c0.06-0.04,0.14-0.02,0.18,0.04l1.05,1.71c0.02,0.04,0.03,0.09,0,0.13
			c-0.13,0.24-0.77,1.03-2.57,2.78C104.57,57.44,104.65,56.69,105.02,56.3z"/>
		<g>
			<path class="st257" d="M94.45,11.51c0,0-3.46,6.15-3.83,7.95l-9.07,4.14c0,0,10.51-1.29,11.2-2.28s3.05-5.69,4.41-8.57
				C97.88,11.25,95.18,10.18,94.45,11.51z"/>
			<g>
				<path class="st258" d="M92.76,21.33c-0.16,0.22-0.81,0.46-1.73,0.7c0.24-0.14,0.52-0.32,0.83-0.59
					c0.19-0.16,0.42-0.38,0.81-0.83c0.78-0.9,1.4-1.82,1.86-2.53C93.75,19.6,93.08,20.87,92.76,21.33z"/>
			</g>
			<path class="st257" d="M87.75,22.69c0,0-6.04,1.53-6.69,1.63c-0.65,0.1-0.99-1.22-1.54-1.1c-0.55,0.12-2.33,0.02-1.67-0.42
				c0.66-0.45,1.59-1.22,4.11,0.53L87.75,22.69z"/>
		</g>
		<path class="st259" d="M91.4,15.87c0.26-0.73,1-2.98,2.16-4.25c0.5-0.54,0.28,1.92,1.18,2.53c1.81,1.21,0.36,4.29,0.36,4.29
			l-4.09-1.38L91.4,15.87z"/>
		<path class="st259" d="M102.42,11.89c0,0,3.33,1.69-1.95,10.83c0,0,1.47,0.86,1.87,4.88l-9.04,0.9c0,0-0.16-4.76-0.93-7.06
			c-0.76-2.25-0.55-3.79,0.93-9.22C93.98,9.74,98.72,9.68,102.42,11.89z"/>
		<path class="st260" d="M96.43,9.52c-0.05,0.05-0.09,0.1-0.14,0.15C96.37,9.57,96.43,9.52,96.43,9.52z"/>
		<path class="st257" d="M96.88,12.9c-1.01-0.06-1.2-0.81-1.23-1.18c0-0.07,0-0.14,0-0.2v0l0,0c-0.05-1.46-0.55-2.88-0.55-2.88
			l2.31-0.49c0.01,0.06,0.48,1.67,1.31,2.3C98.72,10.45,98.22,12.99,96.88,12.9z"/>
		<path class="st258" d="M98.06,9.68c-0.67,0.38-1.51,0.62-2.55,0.58c-0.16-0.92-0.41-1.62-0.41-1.62l2.31-0.49
			C97.41,8.19,97.64,8.99,98.06,9.68z"/>
		<g>
			<path class="st257" d="M99.84,4.97c-0.08,1.66-0.59,4.65-4.8,5.18c-0.47,0.06-0.92-0.2-1.11-0.64c-0.68-1.57-1.99-5.33,0.14-7.04
				c1.94-1.55,4.17-1.24,5.21,0.33C99.7,3.44,99.88,4.2,99.84,4.97z"/>
			<path class="st261" d="M93.67,6.67c0.03,0.18,0.14,0.31,0.26,0.3c0.11-0.02,0.18-0.18,0.15-0.36c-0.03-0.18-0.14-0.31-0.26-0.3
				C93.71,6.33,93.65,6.49,93.67,6.67z"/>
			<path class="st261" d="M95.75,6.34c0.03,0.18,0.14,0.31,0.26,0.3c0.11-0.02,0.18-0.18,0.15-0.36c-0.03-0.18-0.14-0.31-0.26-0.3
				C95.79,6,95.72,6.16,95.75,6.34z"/>
			<path class="st262" d="M95.31,7.64L94.2,7.81C94.2,7.81,94.66,8.35,95.31,7.64z"/>
			<path class="st261" d="M96.45,8.13c-0.15,0.23-0.38,0.41-0.63,0.51c-0.26,0.1-0.56,0.12-0.82,0.01c0.14-0.01,0.27-0.01,0.39-0.05
				c0.12-0.03,0.25-0.06,0.37-0.11C96,8.4,96.22,8.27,96.45,8.13z"/>
			<path class="st262" d="M97.76,4.29c-0.24-0.23-0.61-0.27-0.9-0.09c-0.81,0.49-2.61,1.39-4.24,0.8c-0.49-0.18-1.29-0.77-0.93-1.65
				c0.54-1.33,2.01-3.79,5.12-2.71c0,0,1.11-1.26,3.14-0.21c2.03,1.06,3.69,6.27-1.49,8.19C98.46,8.61,99.74,6.15,97.76,4.29z"/>
			<path class="st263" d="M98.84,6.4l0.34-0.23c0,0-0.41,1.09,0.21,2.02c-0.28,0.15-0.82,0.54-1.16,0.67
				C98.24,8.86,98.93,8.34,98.84,6.4z"/>
			<path class="st264" d="M96.37,3.49c0.02,0.41-1.4,1.25-2.89,1.05c-0.07-0.01-1.23-0.18-1.29-0.65c-0.03-0.23,0.21-0.52,0.49-0.6
				c0.48-0.16,1.45,0.57,2.21,0.38c0.7-0.17,0.93-0.69,1.29-0.48C96.26,3.22,96.36,3.29,96.37,3.49z"/>
			<path class="st257" d="M98.34,6.31c0,0,0.7-0.87,1.04-0.51c0.34,0.36,0.03,1.24-0.82,1.46C97.72,7.49,98.34,6.31,98.34,6.31z"/>
			<path class="st262" d="M93.19,6.02c0.02-0.1,0.07-0.17,0.12-0.23c0.06-0.06,0.13-0.1,0.2-0.13c0.15-0.05,0.31-0.07,0.48,0.02
				c-0.06,0.08-0.12,0.13-0.18,0.17c-0.06,0.04-0.12,0.07-0.18,0.1C93.5,6,93.38,6.03,93.19,6.02z"/>
			<path class="st262" d="M95.63,5.34c0.05-0.09,0.12-0.13,0.2-0.17c0.07-0.04,0.15-0.05,0.23-0.05c0.16,0,0.32,0.04,0.44,0.19
				c-0.08,0.05-0.16,0.08-0.23,0.09c-0.07,0.02-0.14,0.02-0.21,0.03C95.93,5.43,95.8,5.41,95.63,5.34z"/>
		</g>
		<path class="st265" d="M100.08,28.18c-0.98-1.84-1.11-4.2-0.65-5.81c0.68-2.44,0.66-2.7,1.44-5.26c0.57-1.86,0.53-3.54,0.42-4.71
			c0.67,1.5,2.08,4.47-0.32,10.32c0,0,0.71,1.4,1.11,5.42L100.08,28.18z"/>
		<path class="st5" d="M93,24.63c0,0-7.72,11.29-8.02,12.91c-0.29,1.62,1.12,15.3,1.12,15.3l1.65-0.03c0,0,0.24-4.48,0.47-7.03
			c0.19-2.08-0.36-5.53-0.09-6.82c0.17-0.8,6.22-0.85,8.56-5.85C99.04,28.11,93,24.63,93,24.63z"/>
		<path class="st5" d="M101.07,23c0,0-4.42,3.51-8.07,1.63l-0.9,2.52l7.87,1.71L101.07,23z"/>
		<path class="st236" d="M95.71,34.96l0.97-3.54l-7.4,6.93C89.28,38.35,94.17,37.55,95.71,34.96z"/>
		<path class="st5" d="M101.8,22.69c0,0,1.37,1.59,2.19,3.95c0.46,1.33,0.33,2.78-0.33,4.02l-4.4,8.27c0,0,4.21,4.83,5.22,7.25
			c1.43,3.41,2.66,6.47,2.66,6.47l-1.54,0.58c0,0-8.41-10.93-9.91-13.59c-1.5-2.66,0.92-6.62,0.19-13.63L101.8,22.69z"/>
		<polygon class="st266" points="95.61,31.38 81.37,32.87 88.13,31.05 102.38,29.57 		"/>
		<polygon class="st267" points="102.48,30.24 95.68,32.06 95.61,31.38 102.41,29.56 		"/>
		<g>
			<g>
				<path class="st257" d="M99.76,15c0,0-0.87,7-0.53,8.81l-6.83,7.26c0,0,9.24-5.17,9.51-6.35c0.26-1.18,0.63-6.43,0.84-9.6
					C102.96,11.95,100.19,11.61,99.76,15z"/>
				<g>
					<path class="st258" d="M101.91,24.72c-0.06,0.27-0.58,0.73-1.34,1.3c0.17-0.22,0.36-0.5,0.54-0.86
						c0.11-0.22,0.25-0.51,0.44-1.07c0.38-1.13,0.6-2.21,0.77-3.05C102.17,22.74,102.03,24.17,101.91,24.72z"/>
				</g>
				<path class="st257" d="M97.78,27.88c0,0-5.01,3.71-5.57,4.04c-0.56,0.34-1.38-0.75-1.84-0.44c-0.46,0.32-2.15,0.91-1.71,0.24
					c0.44-0.67,1.01-1.74,4-1.06L97.78,27.88z"/>
			</g>
			<path class="st259" d="M99.12,14.83c0.07-0.83,0.42-1.62,1.02-2.2c0.61-0.59,0.9-1.43,2.05-0.88c2.29,1.08,1.37,5.19,1.37,5.19
				l-4.55-0.81L99.12,14.83z"/>
		</g>
		<path class="st267" d="M95.61,31.38l-14.24,1.49l-4.95-9.49c-0.16-0.31,0.04-0.68,0.39-0.72L90,21.28c0.2-0.02,0.4,0.08,0.49,0.26
			L95.61,31.38z"/>
		
			<rect x="81.37" y="32.12" transform="matrix(0.9946 -0.1037 0.1037 0.9946 -2.8892 9.355)" class="st266" width="14.32" height="0.68"/>
		<path class="st266" d="M86.34,27.51c0.3,0.86-0.02,1.61-0.7,1.68c-0.68,0.07-1.48-0.57-1.77-1.42c-0.3-0.86,0.02-1.61,0.7-1.68
			C85.25,26.02,86.05,26.66,86.34,27.51z"/>
		<path class="st262" d="M100.53,7.39c0,0,1.2,2.18,0.31,4.22c-0.89,2.04-2.29,3.85-1.88,6.64C98.95,18.26,93.77,10.2,100.53,7.39z"
			/>
	</g>
	<g>
		<path class="st253" d="M111.96,129.18l-10.9-53.16c-0.07-0.34-0.4-0.56-0.74-0.49c-0.34,0.07-0.56,0.4-0.49,0.74l0.79,3.86H85.23
			c-0.05,0-0.1,0.01-0.15,0.02l-0.85-4.14c-0.07-0.34-0.4-0.56-0.74-0.49c-0.34,0.07-0.56,0.4-0.49,0.74l10.9,53.16
			c0.06,0.3,0.32,0.5,0.61,0.5c0.04,0,0.08,0,0.13-0.01c0.34-0.07,0.56-0.4,0.49-0.74l-1.39-6.76h15.52c0.01,0,0.02,0,0.02,0
			l1.44,7.02c0.06,0.3,0.32,0.5,0.61,0.5c0.04,0,0.08,0,0.13-0.01C111.81,129.85,112.03,129.52,111.96,129.18z M92.09,114.33
			l-1.15-5.59h15.55l1.14,5.58H92.19C92.15,114.32,92.12,114.33,92.09,114.33z M89.54,101.9h15.55l1.14,5.58H90.85
			c-0.06,0-0.11,0.01-0.17,0.02L89.54,101.9z M88.14,95.06h15.55l1.14,5.58H89.51c-0.08,0-0.15,0.02-0.22,0.04L88.14,95.06z
			 M86.73,88.22c0.01,0,0.02,0,0.03,0h15.52l1.14,5.58H88.09c-0.07,0-0.14,0.01-0.2,0.04L86.73,88.22z M100.88,81.39l1.14,5.58
			H86.77c-0.1,0-0.19,0.03-0.28,0.07l-1.16-5.65H100.88z M93.54,121.16c-0.02,0-0.04,0-0.06,0.01l-1.15-5.59h15.55l1.14,5.58H93.54z
			"/>
		<ellipse class="st253" cx="104.31" cy="129.64" rx="12.31" ry="1.62"/>
		<g>
			<path class="st268" d="M112.91,129.93c-0.29,0-0.55-0.2-0.61-0.5l-10.9-53.16c-0.07-0.34,0.15-0.67,0.49-0.74
				c0.34-0.07,0.67,0.15,0.74,0.49l10.9,53.16c0.07,0.34-0.15,0.67-0.49,0.74C113,129.93,112.95,129.93,112.91,129.93z"/>
			<path class="st269" d="M102.52,81.39H86.8c-0.35,0-0.63-0.28-0.63-0.63c0-0.35,0.28-0.63,0.63-0.63h15.72
				c0.35,0,0.63,0.28,0.63,0.63C103.15,81.11,102.87,81.39,102.52,81.39z"/>
			<path class="st269" d="M104.06,88.23H88.34c-0.35,0-0.63-0.28-0.63-0.63s0.28-0.63,0.63-0.63h15.72c0.35,0,0.63,0.28,0.63,0.63
				S104.4,88.23,104.06,88.23z"/>
			<path class="st269" d="M105.38,95.06H89.65c-0.35,0-0.63-0.28-0.63-0.63c0-0.35,0.28-0.63,0.63-0.63h15.72
				c0.35,0,0.63,0.28,0.63,0.63C106,94.78,105.72,95.06,105.38,95.06z"/>
			<path class="st269" d="M106.8,101.9H91.08c-0.35,0-0.63-0.28-0.63-0.63s0.28-0.63,0.63-0.63h15.72c0.35,0,0.63,0.28,0.63,0.63
				S107.15,101.9,106.8,101.9z"/>
			<path class="st269" d="M108.14,108.74H92.42c-0.35,0-0.63-0.28-0.63-0.63c0-0.35,0.28-0.63,0.63-0.63h15.72
				c0.35,0,0.63,0.28,0.63,0.63C108.77,108.46,108.49,108.74,108.14,108.74z"/>
			<path class="st269" d="M109.48,115.58H93.75c-0.35,0-0.63-0.28-0.63-0.63c0-0.35,0.28-0.63,0.63-0.63h15.72
				c0.35,0,0.63,0.28,0.63,0.63C110.1,115.29,109.82,115.58,109.48,115.58z"/>
			<path class="st269" d="M110.84,122.41H95.11c-0.35,0-0.63-0.28-0.63-0.63c0-0.35,0.28-0.63,0.63-0.63h15.72
				c0.35,0,0.63,0.28,0.63,0.63C111.46,122.13,111.18,122.41,110.84,122.41z"/>
			<path class="st268" d="M96.08,129.93c-0.29,0-0.55-0.2-0.61-0.5l-10.9-53.16c-0.07-0.34,0.15-0.67,0.49-0.74
				c0.34-0.07,0.67,0.15,0.74,0.49l10.9,53.16c0.07,0.34-0.15,0.67-0.49,0.74C96.17,129.93,96.12,129.93,96.08,129.93z"/>
		</g>
	</g>
	<g>
		<path class="st253" d="M54.06,127.67c0,1.11-4.53,2-10.12,2s-10.12-0.9-10.12-2c0-1.11,4.53-2,10.12-2S54.06,126.56,54.06,127.67z
			"/>
		<g>
			<g>
				<g class="st270">
					<g>
						<polygon class="st271" points="42.82,130.67 36.09,127.01 36.11,116.21 42.84,119.87 						"/>
					</g>
					<g>
						<polygon class="st272" points="42.84,119.87 36.11,116.21 46.12,114.81 52.84,118.46 						"/>
						<path class="st3" d="M50.76,117.86c-0.2,0-0.39,0.05-0.55,0.14c-0.07-0.08-0.14-0.16-0.24-0.24c-0.46-0.4-0.85-0.48-1.16-0.41
							c-0.11-0.24-0.34-0.4-0.62-0.4c-0.13,0-0.25,0.04-0.35,0.1c-0.18-0.45-0.59-0.93-1.49-1.22c-0.97-0.31-1.6-0.03-2,0.34
							c-0.12-0.12-0.29-0.2-0.48-0.2c-0.21,0-0.39,0.09-0.52,0.24c-0.22-0.24-0.57-0.42-1.11-0.37c-0.66,0.06-1.07,0.41-1.33,0.77
							c-0.12-0.11-0.28-0.18-0.45-0.18c-0.35,0-0.64,0.27-0.68,0.61c-0.02,0-0.05,0-0.07,0c0.01-0.03,0.01-0.06,0.01-0.09
							c0-0.27-0.22-0.48-0.48-0.48c-0.15,0-0.29,0.07-0.38,0.18c-0.12-0.14-0.3-0.22-0.5-0.22c-0.38,0-0.68,0.31-0.68,0.68
							c0,0.38,0.31,0.68,0.68,0.68c0.12,0,0.22-0.03,0.32-0.08c-0.07,0.37,0.03,0.74,0.03,0.74l-1.88-0.32l6.02,1.73l6.79,0.16
							c0,0,0.13-0.09,0.3-0.24c0.21,0.22,0.5,0.36,0.83,0.36c0.63,0,1.14-0.51,1.14-1.14C51.9,118.38,51.39,117.86,50.76,117.86z"/>
					</g>
					<g>
						<polygon class="st273" points="52.84,118.46 52.82,129.26 42.82,130.67 42.84,119.87 						"/>
					</g>
					<g>
						<line class="st271" x1="42.82" y1="130.67" x2="36.09" y2="127.01"/>
					</g>
				</g>
			</g>
			<g>
				<polygon class="st254" points="39.45,124.41 42.82,119.88 36.11,116.21 32.74,120.74 				"/>
			</g>
			<g>
				<polygon class="st254" points="46.82,124.67 42.82,119.88 52.82,118.47 56.83,123.26 				"/>
			</g>
		</g>
	</g>
	<g>
		<ellipse class="st253" cx="14.97" cy="124.35" rx="14.97" ry="1.62"/>
		<g>
			<path class="st269" d="M3.07,65.46c0,0-1.36,2.79,0.86,7.72c2.22,4.93,0.73,9.86-1.98,12.92c-2.78,3.14,0.36,11.86,9.44,6.92
				C20.48,88.07,10,62.8,10,62.8L3.07,65.46z"/>
			<path class="st274" d="M8.19,69.27c0,0,1.27,0.58,1.45,1.89c0.18,1.31-1.86,5.88-0.2,9.58c1.66,3.7,2.48,3.75,2.48,3.75
				l1.24-12.84l-2.48-2.88L8.19,69.27z"/>
			<g>
				
					<rect x="24.31" y="42.97" transform="matrix(0.8209 -0.5711 0.5711 0.8209 -23.5672 28.047)" class="st5" width="17.24" height="17.24"/>
				<path class="st3" d="M34.1,55.48l-0.73-0.14c-2.22-0.42-4.78-0.38-4.81-0.38l-0.02-1.25c0.1,0,2.22-0.04,4.35,0.28
					c0.08-1.77,0.41-6.31,1.61-8.66l1.12,0.57c-1.35,2.65-1.5,8.78-1.5,8.85L34.1,55.48z"/>
			</g>
			<path class="st256" d="M25.58,122.34c0,0-1.9,1.39,0.72,1.98c2.66,0.6,6.27,1.28,6.9,0.41
				C33.63,124.13,29.22,122.71,25.58,122.34z"/>
			<path class="st257" d="M29.38,123.01c-1.27-0.3-1.74-0.4-2.22-0.49c-0.06-0.01-0.11-0.06-0.11-0.13l-0.03-2.01
				c0-0.07-0.06-0.13-0.13-0.13l-1.2,0.02c-0.07,0-0.13,0.06-0.13,0.13l0.04,2.04c0,0.05,0.03,0.09,0.07,0.11
				c0.25,0.13,1.23,0.46,3.73,0.97C30.39,123.74,29.91,123.14,29.38,123.01z"/>
			<path class="st256" d="M6.08,121.63c0,0-2.31,0.46-0.19,2.1c2.16,1.67,5.15,3.8,6.08,3.28C12.62,126.64,9.23,123.49,6.08,121.63z
				"/>
			<path class="st257" d="M9.24,123.83c-1.02-0.8-1.41-1.1-1.8-1.38c-0.05-0.04-0.07-0.1-0.04-0.16l0.81-1.84
				c0.03-0.07,0-0.15-0.07-0.17l-1.1-0.49c-0.07-0.03-0.15,0-0.17,0.07l-0.83,1.87c-0.02,0.04-0.01,0.09,0.01,0.13
				c0.17,0.22,0.92,0.94,2.98,2.45C9.85,124.92,9.67,124.17,9.24,123.83z"/>
			<g>
				<path class="st257" d="M13.06,73.12c0,0,6.52-4.43,8.49-5.01l3.76-10.48c0,0-0.44,11.82-1.48,12.68
					c-1.04,0.86-6.07,3.89-9.12,5.72C11.66,77.85,9.92,75.27,13.06,73.12z"/>
				<g>
					<path class="st258" d="M23.83,70.31c0.23-0.19,0.44-0.95,0.61-1.99c-0.13,0.28-0.31,0.61-0.58,0.98
						c-0.16,0.23-0.38,0.51-0.84,0.98c-0.93,0.95-1.9,1.72-2.64,2.31C21.99,71.58,23.35,70.71,23.83,70.31z"/>
				</g>
				<path class="st257" d="M24.87,64.61c0,0,1.14-6.87,1.19-7.6c0.05-0.73-1.45-0.99-1.37-1.61c0.08-0.62-0.19-2.6-0.63-1.82
					c-0.44,0.78-1.21,1.89,0.98,4.52L24.87,64.61z"/>
			</g>
			<path class="st275" d="M17.63,69.31c-0.79,0.36-1.68,0.8-2.42,1.41c-0.63,0.52,0.06,1.52,0.82,2.47c1.52,1.9,4.81,0,4.81,0
				l-1.92-4.42L17.63,69.31z"/>
			<path class="st275" d="M11.93,72.29c0,0-5.59,0.37-0.04,13.23c0,0-0.53,1.84-0.9,6.34h8.08c0,0,0.08-5.32,0.9-7.9
				c0.81-2.53,0.78-4.74-0.99-10.78C18.19,70.41,13.97,69.8,11.93,72.29z"/>
			<path class="st260" d="M15.21,70.72c0.05,0.06,0.1,0.11,0.16,0.16C15.28,70.78,15.21,70.72,15.21,70.72z"/>
			<path class="st257" d="M15.33,72.78c0.75-0.84,0.31-1.58,0.04-1.9c-0.05-0.05-0.11-0.11-0.16-0.16l0,0v0
				C14.1,69.53,13.38,68,13.38,68l-2.22,1.43c0.04,0.05,0.94,1.7,0.77,2.85C11.93,72.29,14.33,73.91,15.33,72.78z"/>
			<path class="st258" d="M11.85,71.16c0.83-0.23,1.68-0.7,2.48-1.55C13.73,68.75,13.38,68,13.38,68l-2.22,1.43
				C11.19,69.47,11.64,70.28,11.85,71.16z"/>
			<g>
				<path class="st257" d="M6.73,68.83c1.37,1.25,4.13,3.22,7.88,0.32c0.42-0.32,0.57-0.89,0.38-1.38c-0.7-1.77-2.63-5.79-5.66-5.46
					c-2.76,0.3-4.28,2.31-3.86,4.36C5.63,67.51,6.1,68.26,6.73,68.83z"/>
				<path class="st261" d="M12.95,65.32c0.12,0.17,0.13,0.36,0.03,0.44c-0.1,0.07-0.28,0-0.4-0.17c-0.12-0.17-0.13-0.36-0.03-0.43
					C12.65,65.08,12.83,65.16,12.95,65.32z"/>
				<path class="st261" d="M11.05,66.7c0.12,0.17,0.13,0.36,0.03,0.43c-0.1,0.07-0.28,0-0.4-0.17c-0.12-0.17-0.13-0.36-0.03-0.43
					C10.75,66.46,10.93,66.54,11.05,66.7z"/>
				<path class="st276" d="M12.42,67.38l1.01-0.74C13.43,66.64,13.49,67.43,12.42,67.38z"/>
				<path class="st261" d="M11.9,68.67c0.3-0.06,0.58-0.13,0.84-0.25c0.13-0.05,0.26-0.13,0.38-0.2c0.12-0.08,0.23-0.18,0.34-0.28
					c-0.12,0.28-0.37,0.51-0.66,0.63C12.51,68.68,12.2,68.73,11.9,68.67z"/>
				<path class="st269" d="M7.84,66.66c0.01-0.37,0.27-0.69,0.64-0.78c1.03-0.25,3.16-0.96,3.99-2.71c0.25-0.52,0.41-1.62-0.56-2.04
					c-1.47-0.63-4.58-1.42-6.19,1.89c0,0-1.87-0.13-2.65,2.31c-0.78,2.44,2.02,7.86,7.63,5.31C10.69,70.63,7.73,69.69,7.84,66.66z"
					/>
				<path class="st274" d="M8.64,69.18l-0.45,0.09c0,0,1.19,0.54,1.43,1.76c0.35-0.1,1.07-0.22,1.44-0.38
					C11.06,70.65,10.1,70.79,8.64,69.18z"/>
				<path class="st277" d="M8.31,64.93c0.31,0.34,2.09-0.11,3.11-1.44c0.05-0.06,0.84-1.11,0.51-1.53c-0.16-0.21-0.58-0.24-0.86-0.1
					c-0.5,0.26-0.7,1.59-1.45,2.05c-0.69,0.42-1.28,0.19-1.4,0.63C8.19,64.63,8.16,64.76,8.31,64.93z"/>
				<path class="st257" d="M8.98,68.72c0,0-1.24-0.14-1.22,0.41c0.01,0.55,0.95,1,1.8,0.51C10.39,69.15,8.98,68.72,8.98,68.72z"/>
				<path class="st269" d="M12.82,64.43c-0.14,0.14-0.27,0.21-0.41,0.27c-0.07,0.03-0.14,0.05-0.22,0.07
					c-0.08,0.02-0.16,0.03-0.27,0.02c0.07-0.19,0.21-0.31,0.37-0.38c0.08-0.03,0.17-0.05,0.26-0.05
					C12.64,64.36,12.73,64.37,12.82,64.43z"/>
				<path class="st269" d="M10.35,65.81c-0.08,0.18-0.17,0.29-0.28,0.4c-0.06,0.05-0.11,0.1-0.18,0.15
					c-0.07,0.04-0.14,0.09-0.24,0.11c-0.01-0.21,0.09-0.36,0.21-0.49c0.07-0.06,0.14-0.11,0.22-0.14
					C10.16,65.81,10.25,65.79,10.35,65.81z"/>
			</g>
			<path class="st265" d="M13.16,80.21c0,0,1.81,3.05,5.15-0.16l-1.53-1.28L13.16,80.21z"/>
			<path class="st265" d="M13.22,91.86c1.06-2.07,0.64-5.18,0.1-6.97c-0.81-2.71-1.99-2.76-2.91-5.6c-0.67-2.07-0.66-3.94-0.56-5.25
				c-0.72,1.69-0.75,5,2.04,11.48c0,0-0.53,1.84-0.9,6.34H13.22z"/>
			<path class="st229" d="M19.33,87.93c0,0,6.97,16.08,7.3,17.73s0.68,14.93,0.68,14.93h-1.93c0,0-0.89-4.34-0.95-6.42
				c-0.05-2.09-0.16-6.15-0.49-6.92c-0.33-0.77-5.54-5.54-8.01-10.59S19.33,87.93,19.33,87.93z"/>
			<path class="st229" d="M11.42,87.93c0,0,4.04,2.08,7.91,0l1.16,2.7l-8.37,1.97L11.42,87.93z"/>
			<path class="st236" d="M16.97,98.52l-0.52-5.51l5.97,12.43C22.41,105.44,18.58,101.13,16.97,98.52z"/>
			<path class="st229" d="M11.42,87.93c0,0-2.76,4.35-1.98,7.55l1.3,11.33c0,0-1.89,4.36-2.58,6.94c-0.97,3.63-1.79,6.89-1.79,6.89
				L8,121.03c0,0,5.29-11.09,6.44-13.98c1.15-2.89,3.34-8.9,3.11-16.06L11.42,87.93z"/>
			<g>
				<path class="st257" d="M15.04,76.01c0,0,7.38-2.75,9.44-2.85l6.13-9.29c0,0-3.23,11.38-4.44,11.97
					c-1.21,0.59-6.82,2.34-10.21,3.39C12.56,80.27,11.47,77.35,15.04,76.01z"/>
				<g>
					<path class="st258" d="M26.16,75.83c0.27-0.13,0.65-0.82,1.07-1.79c-0.19,0.24-0.45,0.51-0.79,0.81
						c-0.21,0.18-0.49,0.4-1.05,0.75c-1.13,0.71-2.25,1.23-3.11,1.62C24.08,76.63,25.6,76.1,26.16,75.83z"/>
				</g>
				<path class="st257" d="M28.53,70.53c0,0,2.73-6.4,2.96-7.1c0.22-0.7-1.17-1.3-0.95-1.89c0.23-0.59,0.43-2.57-0.18-1.92
					c-0.61,0.65-1.63,1.55-0.12,4.62L28.53,70.53z"/>
			</g>
			<path class="st275" d="M14.7,75.36c-0.88,0.29-1.65,0.87-2.13,1.67c-0.49,0.82-0.75,1.91,0.14,3.02c1.77,2.21,5.6,0,5.6,0
				l-2.23-5.15L14.7,75.36z"/>
		</g>
	</g>
	<g>
		<path class="st253" d="M89.45,127.2c0,1.32-7.33,2.4-16.37,2.4s-16.37-1.07-16.37-2.4c0-1.32,7.33-2.4,16.37-2.4
			S89.45,125.88,89.45,127.2z"/>
		<g>
			<path class="st256" d="M61.53,127.2c0,0,1.87,1.44-0.77,1.96c-2.68,0.54-6.3,1.12-6.91,0.23
				C53.45,128.78,57.89,127.48,61.53,127.2z"/>
			<path class="st257" d="M57.72,127.77c1.27-0.26,1.75-0.36,2.23-0.43c0.06-0.01,0.11-0.06,0.11-0.12l0.09-2.01
				c0-0.07,0.07-0.13,0.14-0.13l1.08-0.09c0.07,0,0.13,0.06,0.13,0.14l0.04,2.18c0,0.05-0.03,0.09-0.07,0.11
				c-0.25,0.12-1.24,0.43-3.76,0.87C56.69,128.48,57.19,127.88,57.72,127.77z"/>
			<path class="st5" d="M76.08,110.53c0,0-1.28,4.49-4.55,4.09l-10.19-0.05l0.32,5.08c0.06,0.62,0.09,1.25,0.08,1.88l-0.11,5.34
				c-0.81,0.05-1.55-0.1-1.55-0.1l-0.34-2.07c0,0-3-12.2-0.27-13.68c2.73-1.48,7.05-5.36,16.11-5.67L76.08,110.53z"/>
		</g>
		<g>
			<path class="st257" d="M66.26,90.85c0,0-3.19,6.92-3.44,8.9l-9.41,5.24c0,0,11.21-2.29,11.87-3.42s2.8-6.4,4.01-9.61
				C69.93,90.26,66.93,89.35,66.26,90.85z"/>
			<g>
				<path class="st258" d="M65.28,101.57c-0.15,0.25-0.83,0.57-1.81,0.9c0.24-0.17,0.53-0.39,0.84-0.7c0.19-0.19,0.42-0.44,0.8-0.96
					c0.76-1.04,1.35-2.08,1.79-2.89C66.21,99.62,65.59,101.04,65.28,101.57z"/>
			</g>
			<path class="st257" d="M60,103.47c0,0-6.38,2.17-7.06,2.34c-0.69,0.16-1.17-1.23-1.75-1.05c-0.58,0.18-2.51,0.23-1.84-0.31
				c0.68-0.54,1.61-1.46,4.47,0.22L60,103.47z"/>
		</g>
		<path class="st229" d="M63.35,95.81c0.22-0.81,0.82-3.3,1.96-4.76c0.49-0.62,0.47,2.05,1.49,2.62c2.05,1.15,0.76,4.59,0.76,4.59
			l-4.53-1.13L63.35,95.81z"/>
		<path class="st229" d="M74.88,90.57c0,0,3.33,4.86-0.42,11.37c0,0,0.35-0.71,1.13,3.59l-3.69,3.11l-5.31-1.52
			c0,0-0.37-2.96-1.4-5.37c-1.02-2.36-1.23-4.06-0.1-10.04C65.6,88.97,70.7,88.51,74.88,90.57z"/>
		<path class="st260" d="M67.87,88.96c-0.05,0.06-0.09,0.12-0.14,0.18C67.81,89.02,67.87,88.96,67.87,88.96z"/>
		<path class="st257" d="M69,92.14c-1.09,0.02-1.36-0.77-1.42-1.16c-0.01-0.07-0.01-0.15-0.02-0.22v0h0
			c-0.17-1.56-0.84-3.06-0.84-3.06l2.44-0.73c0.01,0.06,0.66,1.76,1.61,2.37C70.77,89.33,70.45,92.11,69,92.14z"/>
		<path class="st258" d="M69.99,88.56c-0.69,0.47-1.58,0.8-2.7,0.85c-0.26-0.98-0.58-1.71-0.58-1.71l2.44-0.73
			C69.16,87.01,69.48,87.85,69.99,88.56z"/>
		<g>
			<path class="st257" d="M71.5,83.33c0.06,1.79-0.23,5.06-4.72,5.99c-0.5,0.1-1.01-0.14-1.25-0.59c-0.86-1.63-2.6-5.57-0.45-7.6
				c1.95-1.84,4.39-1.69,5.64-0.09C71.22,81.69,71.48,82.5,71.5,83.33z"/>
			<path class="st261" d="M65.01,85.7c0.05,0.19,0.18,0.33,0.3,0.3s0.18-0.21,0.13-0.4c-0.05-0.19-0.18-0.33-0.3-0.3
				C65.02,85.33,64.96,85.5,65.01,85.7z"/>
			<path class="st261" d="M67.22,85.17c0.05,0.19,0.18,0.33,0.3,0.3c0.12-0.03,0.18-0.21,0.13-0.4c-0.05-0.19-0.18-0.33-0.3-0.3
				C67.23,84.79,67.17,84.97,67.22,85.17z"/>
			<path class="st276" d="M66.85,86.6l-1.18,0.27C65.67,86.88,66.21,87.42,66.85,86.6z"/>
			<path class="st261" d="M68.13,87.03c-0.07,0.13-0.17,0.24-0.28,0.34c-0.11,0.1-0.23,0.18-0.37,0.25
				c-0.27,0.13-0.59,0.18-0.87,0.09c0.15-0.02,0.29-0.03,0.42-0.07c0.13-0.04,0.26-0.08,0.39-0.15
				C67.67,87.37,67.9,87.21,68.13,87.03z"/>
			<path class="st278" d="M69.2,82.77c-0.28-0.22-0.68-0.23-0.97-0.02c-0.83,0.6-2.69,1.72-4.5,1.22c-0.54-0.15-1.48-0.8-1.47-1.83
				c0.03-1.58,1.65-3.67,5.1-2.77c0,0,2.73-1.9,3.8,0.33c1.46,3.04,3.57,5.35-0.32,6.96C70.84,86.67,71.5,84.61,69.2,82.77z"/>
			<path class="st279" d="M70.55,84.96l0.35-0.27c0,0,0.14,0.56,0.88,1.51c-0.29,0.19-0.59,0.31-0.95,0.48
				C70.84,86.67,70.82,85.95,70.55,84.96z"/>
			<path class="st280" d="M67.64,82.03c0.06,0.44-1.4,1.47-3.02,1.38c-0.07,0-1.34-0.08-1.44-0.59c-0.05-0.25,0.19-0.58,0.47-0.69
				c0.5-0.21,1.61,0.49,2.42,0.22c0.74-0.24,0.95-0.82,1.35-0.63C67.49,81.76,67.61,81.82,67.64,82.03z"/>
			<path class="st257" d="M70,84.91c0,0,0.68-1,1.07-0.64c0.39,0.35,0.14,1.33-0.75,1.64C69.43,86.23,70,84.91,70,84.91z"/>
			<path class="st278" d="M64.43,85.04c0.02-0.1,0.07-0.18,0.12-0.24c0.06-0.07,0.13-0.11,0.2-0.15c0.15-0.07,0.32-0.11,0.51-0.04
				c-0.06,0.08-0.12,0.13-0.18,0.18c-0.06,0.05-0.13,0.08-0.19,0.12C64.75,84.97,64.62,85.02,64.43,85.04z"/>
			<path class="st278" d="M67,84.09c0.05-0.09,0.13-0.14,0.2-0.18c0.08-0.04,0.16-0.06,0.24-0.07c0.17-0.01,0.34,0.02,0.49,0.15
				c-0.08,0.05-0.16,0.08-0.24,0.1c-0.08,0.02-0.15,0.03-0.22,0.04C67.32,84.14,67.18,84.14,67,84.09z"/>
		</g>
		<path class="st5" d="M73.12,106.51c-0.46-1.59-0.72-2.61-0.64-4.66c0.11-2.74,0.48-2.97,1.1-5.79c0.45-2.06,2.51-0.84,2.29-2.09
			c0.85,1.56,0.31,4.88-1.15,7.95c0,0,0.09-0.7,0.86,3.6L73.12,106.51z"/>
		<path class="st5" d="M66.14,108.39c1.67,1,5.2-0.31,9.39-1.93c0,0,1.12,1.8,1.68,4.33l-8.37,3.35l-2.63-1.71L66.14,108.39z"/>
		<polygon class="st236" points="71.06,110.86 65.31,114.59 70.47,114.63 		"/>
		<g>
			<g>
				<path class="st256" d="M85.6,126.38c0,0-0.35-2.55,2.1-0.94c2.49,1.63,5.76,3.96,5.54,5.11
					C93.1,131.34,88.65,128.96,85.6,126.38z"/>
				<path class="st257" d="M89,128.85c-1.19-0.77-1.33-0.91-1.79-1.18c-0.18-0.11-3.04-0.1-3.04-0.1c-0.06,0.05-0.15,0.05-0.2-0.01
					l-0.85-1.18c-0.05-0.06-0.05-0.15,0.01-0.2l2.56,0.11c0.04-0.04,0.09-0.05,0.14-0.03c0.29,0.09,1.29,0.62,3.59,2.2
					C90.34,129.1,89.5,129.18,89,128.85z"/>
			</g>
			<path class="st281" d="M86.19,124.93c0,0,7.02,4.95,7.08,5.47c0,0-0.1-1.69-3.7-4C86.6,124.49,86.19,124.93,86.19,124.93z"/>
		</g>
		<path class="st5" d="M75.58,105.49c0,0,2.98,6.43,1.36,10.38l-3.37,9.8l11.36,0.38c0.08,0.87,0.27,1.96,0.27,1.96l-2.1,0.07
			c0,0-11.93,1.47-12.74-1.07c-0.94-2.96-2.86-11.86-1.42-18.88L75.58,105.49z"/>
		<g>
			<g>
				<path class="st257" d="M72.32,94.15c0,0-1.01,7.56-0.67,9.52l-7.45,7.78c0,0,10.04-5.49,10.34-6.76
					c0.3-1.27,0.74-6.94,1.01-10.37C75.82,90.89,72.83,90.49,72.32,94.15z"/>
				<g>
					<path class="st258" d="M74.54,104.69c-0.07,0.29-0.63,0.79-1.46,1.39c0.18-0.23,0.39-0.53,0.6-0.92
						c0.13-0.24,0.27-0.55,0.49-1.15c0.42-1.21,0.67-2.39,0.86-3.28C74.85,102.55,74.68,104.09,74.54,104.69z"/>
				</g>
				<path class="st257" d="M70.05,108.05c0,0-5.45,3.95-6.06,4.31c-0.61,0.36-1.48-0.83-1.99-0.49c-0.5,0.34-2.33,0.96-1.85,0.24
					c0.49-0.71,1.11-1.87,4.34-1.11L70.05,108.05z"/>
			</g>
			<path class="st229" d="M71.64,93.97c0.09-0.9,0.47-1.75,1.12-2.37c0.67-0.63,0.99-1.53,2.22-0.93c2.46,1.2,1.43,5.62,1.43,5.62
				l-4.91-0.92L71.64,93.97z"/>
		</g>
	</g>
</g>
</svg>
