<svg width="574" height="512" viewBox="0 0 574 512" fill="none" xmlns="http://www.w3.org/2000/svg">
<path d="M556.492 98.4142H17.508C8.31778 98.4142 0.867599 105.856 0.867599 115.036V435.134C0.867599 444.314 8.31778 451.756 17.508 451.756H556.492C565.682 451.756 573.132 444.314 573.132 435.134V115.036C573.132 105.856 565.682 98.4142 556.492 98.4142Z" fill="#263238" stroke="#263238" stroke-linecap="round" stroke-linejoin="round"/>
<path d="M536.485 117.844H37.4974C28.3071 117.844 20.857 125.286 20.857 134.466V415.704C20.857 424.884 28.3071 432.326 37.4974 432.326H536.485C545.676 432.326 553.126 424.884 553.126 415.704V134.466C553.126 125.286 545.676 117.844 536.485 117.844Z" fill="white" stroke="#263238" stroke-linecap="round" stroke-linejoin="round"/>
<path d="M513.806 130.583H371.712V221.423H513.806V130.583Z" fill="white" stroke="#263238" stroke-linecap="round" stroke-linejoin="round"/>
<path d="M513.806 211.301H371.712V221.423H513.806V211.301Z" fill="#263238" stroke="#263238" stroke-linecap="round" stroke-linejoin="round"/>
<path d="M513.806 214.889H371.712V217.836H513.806V214.889Z" fill="white" stroke="#263238" stroke-linecap="round" stroke-linejoin="round"/>
<path d="M442.051 196.375C453.568 195.405 462.116 185.293 461.145 173.79C460.174 162.286 450.051 153.747 438.534 154.717C427.018 155.687 418.469 165.799 419.44 177.303C420.411 188.806 430.535 197.345 442.051 196.375Z" fill="#1467AA"/>
<path d="M452.415 176.012L434.213 165.509V186.516L452.415 176.012Z" fill="white"/>
<path d="M513.806 231.234H371.712V322.074H513.806V231.234Z" fill="white" stroke="#263238" stroke-linecap="round" stroke-linejoin="round"/>
<path d="M513.806 311.951H371.712V322.074H513.806V311.951Z" fill="#263238" stroke="#263238" stroke-linecap="round" stroke-linejoin="round"/>
<path d="M513.806 315.522H371.712V318.468H513.806V315.522Z" fill="white" stroke="#263238" stroke-linecap="round" stroke-linejoin="round"/>
<path d="M442.049 297.016C453.565 296.046 462.114 285.934 461.143 274.431C460.171 262.927 450.048 254.388 438.532 255.358C427.015 256.328 418.467 266.44 419.438 277.943C420.409 289.447 430.532 297.986 442.049 297.016Z" fill="#1467AA"/>
<path d="M452.415 276.645L434.213 266.159V287.148L452.415 276.645Z" fill="white"/>
<path d="M513.806 331.866H371.712V422.706H513.806V331.866Z" fill="white" stroke="#263238" stroke-linecap="round" stroke-linejoin="round"/>
<path d="M513.806 412.584H371.712V422.706H513.806V412.584Z" fill="#263238" stroke="#263238" stroke-linecap="round" stroke-linejoin="round"/>
<path d="M513.806 416.172H371.712V419.119H513.806V416.172Z" fill="white" stroke="#263238" stroke-linecap="round" stroke-linejoin="round"/>
<path d="M461.059 379.475C462.51 368.022 454.391 357.562 442.925 356.114C431.459 354.665 420.988 362.775 419.537 374.228C418.087 385.681 426.206 396.14 437.672 397.589C449.138 399.038 459.609 390.928 461.059 379.475Z" fill="#1467AA"/>
<path d="M452.415 377.295L434.213 366.792V387.799L452.415 377.295Z" fill="white"/>
<path d="M81.2935 160.846H323.3C328.853 160.846 333.364 165.353 333.364 170.899V416.917C333.364 422.464 328.853 426.97 323.3 426.97H81.2935C75.7409 426.97 71.2295 422.464 71.2295 416.917V170.899C71.2295 165.353 75.7409 160.846 81.2935 160.846Z" fill="#F0AE00"/>
<path d="M267.878 431.927L271.036 382.495C271.036 382.495 273.171 390.988 274.75 394.177C276.329 397.366 308.777 382.495 308.777 382.495C308.777 382.495 300.274 325.124 294.947 304.412C289.638 283.699 288.041 256.609 283.252 255.014C278.463 253.419 218.373 225.271 216.794 225.271C215.215 225.271 182.767 228.46 182.767 228.46L130.122 260.335L137.999 431.927H267.861H267.878Z" fill="white" stroke="#263238" stroke-linecap="round" stroke-linejoin="round"/>
<path d="M226.164 299.143C226.095 300.893 226.008 302.592 225.869 304.238" stroke="#263238" stroke-linecap="round" stroke-linejoin="round"/>
<path d="M222.972 253.402C222.972 253.402 226.008 273.074 226.234 291.603" stroke="#263238" stroke-linecap="round" stroke-linejoin="round"/>
<path d="M265.05 294.74L265.206 286.334" stroke="#263238" stroke-linecap="round" stroke-linejoin="round"/>
<path d="M263.471 379.358L264.928 300.997" stroke="#263238" stroke-linecap="round" stroke-linejoin="round"/>
<path d="M315.318 431.927L311.466 399.585L275.027 406.518L287.486 431.927H315.318Z" fill="white" stroke="#263238" stroke-linecap="round" stroke-linejoin="round"/>
<path d="M269.249 391.49C269.249 391.49 277.352 388.024 287.763 381.663C298.175 375.302 308.013 373.569 310.894 378.768C313.791 383.968 320.142 398.406 317.834 400.729C315.526 403.034 281.395 414.023 277.925 414.023C274.455 414.023 268.104 402.375 268.104 402.375C268.104 402.375 266.924 397.262 269.249 391.49Z" fill="white" stroke="#263238" stroke-linecap="round" stroke-linejoin="round"/>
<path d="M189.153 213.052C189.153 213.052 183.149 217.87 181.171 221.025C178.516 225.271 176.92 232.707 176.92 232.707L199.79 264.581L214.14 242.274L219.449 239.085L242.319 254.494C242.319 254.494 234.337 226.883 225.835 218.373C217.332 209.88 193.925 210.937 189.153 213.069V213.052Z" fill="white" stroke="#263238" stroke-linecap="round" stroke-linejoin="round"/>
<path d="M217.315 102.505C217.315 102.505 229.357 112.124 230.572 117.549C231.769 122.957 228.455 134.813 228.455 134.813L212.491 103.701L217.315 102.505Z" fill="#263238" stroke="#263238" stroke-linecap="round" stroke-linejoin="round"/>
<path d="M213.619 97.8076C213.619 97.8076 235.413 145.073 238.606 161.019C241.798 176.948 240.202 191.819 234.354 202.982C228.507 214.144 222.121 212.549 222.121 212.549V248.67C222.121 248.67 193.942 226.363 192.346 223.711C190.749 221.059 188.094 216.276 188.094 216.276C188.094 216.276 184.902 192.911 174.803 185.996C174.803 185.996 161.511 188.128 158.319 175.908C155.126 163.689 157.781 159.442 166.3 158.385C166.3 158.385 159.394 140.862 157.798 129.18C156.202 117.497 175.879 113.771 187.574 106.335C199.269 98.8995 213.636 97.8423 213.636 97.8423L213.619 97.8076Z" fill="white" stroke="#263238" stroke-linecap="round" stroke-linejoin="round"/>
<path d="M222.121 212.532L211.849 208.545L221.514 226.398L222.121 212.532Z" fill="#263238" stroke="#263238" stroke-linecap="round" stroke-linejoin="round"/>
<path d="M165.225 162.077C165.225 162.077 158.319 159.425 150.875 149.857C143.431 140.29 141.296 132.854 151.412 116.925C161.529 100.997 197.673 86.1255 207.771 87.72C217.87 89.3146 224.256 102.054 212.023 110.027C199.79 118 184.902 121.189 184.902 121.189C184.902 121.189 190.749 116.405 184.364 115.348C177.978 114.291 165.225 120.652 166.283 125.973C167.341 131.277 175.323 129.682 174.785 138.192C174.248 146.685 166.804 155.716 169.476 158.905C172.131 162.094 178.516 164.746 173.189 166.341C167.879 167.935 165.207 162.094 165.207 162.094L165.225 162.077Z" fill="#263238" stroke="#263238" stroke-linecap="round" stroke-linejoin="round"/>
<path d="M202.444 170.57L194.48 176.948" stroke="#263238" stroke-linecap="round" stroke-linejoin="round"/>
<path d="M198.731 174.816C198.731 174.816 208.83 184.384 226.373 176.411" stroke="#263238" stroke-linecap="round" stroke-linejoin="round"/>
<path d="M202.444 178.005C202.444 178.005 205.637 184.904 214.14 187.036C222.642 189.167 218.391 179.6 218.391 179.6C218.391 179.6 206.696 179.6 202.444 178.005Z" fill="#263238" stroke="#263238" stroke-linecap="round" stroke-linejoin="round"/>
<path d="M193.3 145.992C194.133 148.505 193.89 150.828 192.779 151.192C191.669 151.556 190.09 149.823 189.257 147.309C188.424 144.796 188.667 142.474 189.777 142.11C190.888 141.746 192.467 143.479 193.3 145.992Z" fill="#263238"/>
<path d="M220.959 138.036C221.792 140.55 221.549 142.872 220.438 143.236C219.328 143.6 217.749 141.867 216.916 139.354C216.083 136.841 216.326 134.518 217.436 134.154C218.547 133.79 220.126 135.523 220.959 138.036Z" fill="#263238"/>
<path d="M201.542 133.729L179.829 140.902C177.972 141.516 176.965 143.516 177.579 145.37L180.728 154.881C181.342 156.735 183.345 157.741 185.201 157.128L206.914 149.955C208.77 149.342 209.777 147.342 209.163 145.488L206.014 135.976C205.4 134.122 203.398 133.116 201.542 133.729Z" stroke="#263238" stroke-linecap="round" stroke-linejoin="round"/>
<path d="M205.516 134.241L213.255 131.658" stroke="#263238" stroke-linecap="round" stroke-linejoin="round"/>
<path d="M177.579 145.385L163.698 159.061" stroke="#263238" stroke-linecap="round" stroke-linejoin="round"/>
<path d="M239.664 123.616L229.357 132.299" stroke="#263238" stroke-linecap="round" stroke-linejoin="round"/>
<path d="M236.632 123.107L214.919 130.279C213.062 130.893 212.055 132.893 212.669 134.747L215.818 144.258C216.432 146.112 218.435 147.118 220.291 146.505L242.004 139.332C243.86 138.719 244.867 136.719 244.253 134.865L241.104 125.353C240.49 123.499 238.488 122.493 236.632 123.107Z" stroke="#263238" stroke-linecap="round" stroke-linejoin="round"/>
<path d="M181.709 137.101C181.709 137.101 188.094 129.128 197.655 130.202" stroke="#263238" stroke-width="2" stroke-linecap="round" stroke-linejoin="round"/>
<path d="M210.964 125.956C210.964 125.956 215.215 121.709 223.197 123.824" stroke="#263238" stroke-width="2" stroke-linecap="round" stroke-linejoin="round"/>
<path d="M212.543 136.043C212.543 136.043 228.489 166.843 226.893 168.975C225.297 171.107 214.66 168.975 214.66 168.975" fill="white"/>
<path d="M212.543 136.043C212.543 136.043 228.489 166.843 226.893 168.975C225.297 171.107 214.66 168.975 214.66 168.975" stroke="#263238" stroke-linecap="round" stroke-linejoin="round"/>
<path d="M136.507 257.146C136.507 257.146 127.467 257.146 124.812 265.119C122.157 273.092 97.1705 363.914 99.8253 366.566C102.48 369.218 135.987 371.35 139.7 370.293C143.431 369.235 159.377 308.155 159.377 308.155" fill="white"/>
<path d="M136.507 257.146C136.507 257.146 127.467 257.146 124.812 265.119C122.157 273.092 97.1705 363.914 99.8253 366.566C102.48 369.218 135.987 371.35 139.7 370.293C143.431 369.235 159.377 308.155 159.377 308.155" stroke="#263238" stroke-linecap="round" stroke-linejoin="round"/>
<path d="M149.816 368.143C149.816 368.143 151.95 357.519 142.91 353.272C133.87 349.026 118.982 349.546 109.942 356.461C100.901 363.36 99.3048 361.765 97.1879 375.059C95.0536 388.336 104.094 396.829 111.538 398.423C118.982 400.018 125.367 401.613 134.408 392.582C143.448 383.552 149.833 368.143 149.833 368.143H149.816Z" fill="white" stroke="#263238" stroke-linecap="round" stroke-linejoin="round"/>
<path d="M205.828 312.229C205.828 312.229 202.097 393.484 188.285 423.764C188.285 423.764 201.577 428.01 223.371 425.895C245.165 423.764 265.38 412.081 265.38 412.081C265.38 412.081 272.824 367.467 276.554 345.698C280.268 323.928 282.402 311.709 282.402 311.709C282.402 311.709 277.613 315.435 250.492 317.012C223.371 318.607 205.828 312.229 205.828 312.229Z" fill="white" stroke="#263238" stroke-linecap="round" stroke-linejoin="round"/>
<path d="M171.072 378.768C171.072 378.768 140.238 359.651 135.987 359.651C131.735 359.651 118.964 363.897 113.655 376.116C108.345 388.336 108.866 394.714 115.789 396.829C122.695 398.961 167.359 403.207 172.686 403.207C178.013 403.207 190.767 405.859 198.211 405.859C205.654 405.859 225.331 403.727 227.986 399.481C230.641 395.234 208.847 396.829 207.251 396.292C205.654 395.754 227.171 391.612 230.121 390.988C233.122 390.329 237.027 386.204 231.179 384.609C231.179 384.609 241.278 379.826 234.91 375.579L205.221 370.362L214.4 368.438C214.4 368.438 235.187 373.985 234.91 367.623C234.788 364.972 217.888 359.651 212.578 359.651C207.268 359.651 179.071 378.768 179.071 378.768H171.09H171.072Z" fill="white" stroke="#263238" stroke-linecap="round" stroke-linejoin="round"/>
<path d="M231.162 384.609L204.041 382.495" stroke="#263238" stroke-linecap="round" stroke-linejoin="round"/>
<path d="M264.443 98.4142C270.689 106.301 279.73 112.471 290.384 115.851L269.457 152.665L308.273 118.745C308.655 118.745 309.037 118.763 309.419 118.763C328.176 118.763 344.712 110.686 354.447 98.3969H264.443V98.4142Z" fill="#263238" stroke="#263238" stroke-linecap="round" stroke-linejoin="round"/>
<path d="M308.707 23.9882C278.775 23.9882 254.517 44.5447 254.517 69.9195C254.517 89.6093 269.128 106.387 289.672 112.922L268.746 149.736L307.562 115.816C307.944 115.816 308.325 115.833 308.707 115.833C338.639 115.833 362.897 95.277 362.897 69.9022C362.897 44.5273 338.639 23.9709 308.707 23.9709V23.9882Z" fill="#F0AE00"/>
<path d="M289.551 70.9248C289.551 67.5969 286.861 64.9104 283.53 64.9104C280.198 64.9104 277.509 67.5969 277.509 70.9248C277.509 74.2526 280.198 76.9392 283.53 76.9392C286.861 76.9392 289.551 74.2526 289.551 70.9248Z" fill="#263238"/>
<path d="M316.359 70.9248C316.359 67.5969 313.67 64.9104 310.338 64.9104C307.007 64.9104 304.317 67.5969 304.317 70.9248C304.317 74.2526 307.007 76.9392 310.338 76.9392C313.67 76.9392 316.359 74.2526 316.359 70.9248Z" fill="#263238"/>
<path d="M337.164 76.9392C340.49 76.9392 343.185 74.2465 343.185 70.9248C343.185 67.6031 340.49 64.9104 337.164 64.9104C333.839 64.9104 331.143 67.6031 331.143 70.9248C331.143 74.2465 333.839 76.9392 337.164 76.9392Z" fill="#263238"/>
<path fill-rule="evenodd" clip-rule="evenodd" d="M494.112 23.607V66.713C494.112 71.2541 490.433 74.9286 485.887 74.9286H433.432C428.886 74.9286 425.208 71.2541 425.208 66.713V14.3167C425.208 9.77558 428.886 6.10107 433.432 6.10107H480.335" fill="#5A768D"/>
<path fill-rule="evenodd" clip-rule="evenodd" d="M483.406 25.2709H436.573C435.515 25.2709 434.647 26.1375 434.647 27.1948V54.1122C434.647 55.1695 435.515 56.0362 436.573 56.0362H483.406C484.464 56.0362 485.332 55.1695 485.332 54.1122V27.1948C485.332 26.1375 484.464 25.2709 483.406 25.2709ZM484.031 31.0946L469.091 40.3155L482.399 50.1431C483.163 50.7151 483.336 51.7897 482.764 52.5696C482.417 53.0203 481.896 53.2803 481.376 53.2803C481.011 53.2803 480.664 53.1763 480.352 52.9336L465.915 42.2741L460.571 45.5673L454.289 42.0835L439.61 52.9163C439.297 53.1416 438.933 53.2629 438.586 53.2629C438.048 53.2629 437.527 53.0203 437.18 52.5523C436.608 51.7897 436.781 50.6977 437.545 50.1258L450.958 40.2289L435.74 31.7879C434.907 31.3199 434.595 30.2626 435.064 29.4307C435.532 28.5987 436.59 28.2867 437.423 28.7547L460.484 41.5461L482.226 28.1307C483.041 27.6281 484.117 27.8708 484.62 28.7027C485.124 29.5173 484.863 30.592 484.048 31.0946H484.031Z" fill="white"/>
<path fill-rule="evenodd" clip-rule="evenodd" d="M502.493 12.1501C502.493 5.44242 497.044 0 490.329 0C483.614 0 478.166 5.44242 478.166 12.1501C478.166 18.8578 483.614 24.3002 490.329 24.3002C497.044 24.3002 502.493 18.8578 502.493 12.1501Z" fill="#F0AE00"/>
<g clip-path="url(#clip0_0_1)">
<path d="M116.48 93.76C119.805 93.76 122.5 91.0648 122.5 87.74C122.5 84.4152 119.805 81.72 116.48 81.72C113.155 81.72 110.46 84.4152 110.46 87.74C110.46 91.0648 113.155 93.76 116.48 93.76Z" fill="#1467AA"/>
<path d="M116.48 72.53C110.27 72.53 104.93 76.27 102.57 81.61L106.6 85.21C107.73 80.8 111.73 77.53 116.48 77.53C121.58 77.53 125.81 81.29 126.56 86.19L130.65 82.25C128.44 76.57 122.93 72.53 116.48 72.53Z" fill="#1467AA"/>
<path d="M99.83 79.17C102.95 73.14 109.23 69 116.48 69C123.73 69 130.33 73.36 133.36 79.65L137.12 76.03C133.03 68.85 125.31 64 116.48 64C107.65 64 100.13 68.73 96 75.75L99.83 79.17Z" fill="#1467AA"/>
</g>
<defs>
<clipPath id="clip0_0_1">
<rect width="41.12" height="29.77" fill="white" transform="translate(96 64)"/>
</clipPath>
</defs>
</svg>
