<svg width="167" height="119" viewBox="0 0 167 119" fill="none" xmlns="http://www.w3.org/2000/svg">
<g clip-path="url(#clip0_24_1995)">
<path d="M166.883 9.42883H87.5856V119H166.883V9.42883Z" fill="#6699D8"/>
<path d="M87.5856 119V9.42883H166.883L87.5856 119Z" fill="#7BA9E3"/>
<path d="M162.396 93.328L162.596 110.673H92.1044V14.692H162.396V93.328Z" fill="white"/>
<path fill-rule="evenodd" clip-rule="evenodd" d="M127.234 1.90144C125.99 1.90144 124.981 2.91041 124.981 4.15459C124.981 5.39877 125.99 6.40774 127.234 6.40774C128.478 6.40774 129.487 5.39877 129.487 4.15459C129.487 2.91041 128.478 1.90144 127.234 1.90144ZM120.837 4.15459C121.6 1.89631 123.701 -0.000732422 127.234 -0.000732422C130.766 -0.000732422 132.868 1.89558 133.63 4.15459C137.923 4.15459 144.862 7.18956 145.662 12.0923V14.692H108.805V12.0923C109.605 7.18956 116.545 4.15459 120.837 4.15459Z" fill="#3D7DDA"/>
<path d="M145.662 12.0923H108.805V14.692H145.662V12.0923Z" fill="#0E57BF"/>
<path d="M145.662 12.0923H108.805V14.692H145.662V12.0923Z" stroke="#71BDF8" stroke-width="0.22" stroke-miterlimit="2.61"/>
<path fill-rule="evenodd" clip-rule="evenodd" d="M95.7541 20.1626H158.946C159.301 20.1626 159.591 20.4528 159.591 20.8074V34.0779C159.591 34.4325 159.301 34.7227 158.946 34.7227H95.7541C95.3994 34.7227 95.1093 34.4325 95.1093 34.0779V20.8074C95.1093 20.4528 95.3994 20.1626 95.7541 20.1626Z" fill="#3D7DDA"/>
<path d="M104.855 40.6H97.1419V102.718H104.855V40.6Z" fill="#C3DCFA"/>
<path d="M112.569 40.6H104.855V102.718H112.569V40.6Z" fill="#DDEAF8"/>
<path d="M157.757 50.0074H97.1419V50.4713H157.757V50.0074Z" fill="#8BA7D7"/>
<path d="M157.757 60.4569H97.1419V60.9207H157.757V60.4569Z" fill="#8BA7D7"/>
<path d="M157.757 70.9065H97.1419V71.3703H157.757V70.9065Z" fill="#8BA7D7"/>
<path d="M157.757 81.3552H97.1419V81.819H157.757V81.3552Z" fill="#8BA7D7"/>
<path d="M157.757 91.8047H97.1419V92.2685H157.757V91.8047Z" fill="#8BA7D7"/>
<path fill-rule="evenodd" clip-rule="evenodd" d="M107.688 46.2178L111.767 42.4142C112.086 42.1189 112.585 42.1365 112.882 42.4545C113.178 42.7725 113.16 43.273 112.841 43.569L108.161 47.9302L108.15 47.9397C107.824 48.2248 107.324 48.1911 107.038 47.8657L104.784 45.285C104.498 44.959 104.532 44.4585 104.858 44.1728C105.184 43.8877 105.683 43.9214 105.969 44.2468L107.688 46.2171V46.2178Z" fill="#3D7DDA"/>
<path fill-rule="evenodd" clip-rule="evenodd" d="M100.197 56.8944L104.277 53.0908C104.595 52.7956 105.095 52.8131 105.391 53.1311C105.687 53.4491 105.669 53.9496 105.351 54.2456L100.671 58.6068L100.659 58.6164C100.333 58.9014 99.8332 58.8677 99.5475 58.5424L97.2928 55.9617C97.0071 55.6356 97.0408 55.1352 97.3668 54.8494C97.6929 54.5644 98.1926 54.5981 98.4784 54.9234L100.197 56.8937V56.8944Z" fill="#3D7DDA"/>
<path fill-rule="evenodd" clip-rule="evenodd" d="M107.166 66.5811L111.245 62.7775C111.564 62.4822 112.062 62.4998 112.359 62.8178C112.655 63.1358 112.637 63.6362 112.318 63.9323L107.638 68.2935L107.627 68.303C107.3 68.588 106.801 68.5543 106.515 68.229L104.26 65.6483C103.975 65.3223 104.008 64.8218 104.334 64.536C104.66 64.251 105.16 64.2847 105.446 64.61L107.165 66.5804L107.166 66.5811Z" fill="#3D7DDA"/>
<path fill-rule="evenodd" clip-rule="evenodd" d="M117.559 42.2039H141.431C141.877 42.2039 142.241 42.568 142.241 43.0135C142.241 43.459 141.877 43.8232 141.431 43.8232H117.559C117.114 43.8232 116.75 43.459 116.75 43.0135C116.75 42.568 117.114 42.2039 117.559 42.2039Z" fill="#3D7DDA"/>
<path fill-rule="evenodd" clip-rule="evenodd" d="M117.559 45.6338H154.843C155.289 45.6338 155.653 45.998 155.653 46.4435C155.653 46.889 155.289 47.2531 154.843 47.2531H117.559C117.114 47.2531 116.75 46.889 116.75 46.4435C116.75 45.998 117.114 45.6338 117.559 45.6338Z" fill="#7BA9E3"/>
<path fill-rule="evenodd" clip-rule="evenodd" d="M117.559 52.8849H141.431C141.877 52.8849 142.241 53.2491 142.241 53.6946C142.241 54.1401 141.877 54.5042 141.431 54.5042H117.559C117.114 54.5042 116.75 54.1401 116.75 53.6946C116.75 53.2491 117.114 52.8849 117.559 52.8849Z" fill="#3D7DDA"/>
<path fill-rule="evenodd" clip-rule="evenodd" d="M117.559 63.5659H141.431C141.877 63.5659 142.241 63.9301 142.241 64.3756C142.241 64.8211 141.877 65.1853 141.431 65.1853H117.559C117.114 65.1853 116.75 64.8211 116.75 64.3756C116.75 63.9301 117.114 63.5659 117.559 63.5659Z" fill="#3D7DDA"/>
<path fill-rule="evenodd" clip-rule="evenodd" d="M117.559 74.2477H141.431C141.877 74.2477 142.241 74.6118 142.241 75.0573C142.241 75.5028 141.877 75.867 141.431 75.867H117.559C117.114 75.867 116.75 75.5028 116.75 75.0573C116.75 74.6118 117.114 74.2477 117.559 74.2477Z" fill="#3D7DDA"/>
<path fill-rule="evenodd" clip-rule="evenodd" d="M117.559 84.9287H141.431C141.877 84.9287 142.241 85.2929 142.241 85.7384C142.241 86.1839 141.877 86.5481 141.431 86.5481H117.559C117.114 86.5481 116.75 86.1839 116.75 85.7384C116.75 85.2929 117.114 84.9287 117.559 84.9287Z" fill="#3D7DDA"/>
<path fill-rule="evenodd" clip-rule="evenodd" d="M117.559 95.6097H141.431C141.877 95.6097 142.241 95.9739 142.241 96.4194C142.241 96.8649 141.877 97.2291 141.431 97.2291H117.559C117.114 97.2291 116.75 96.8649 116.75 96.4194C116.75 95.9739 117.114 95.6097 117.559 95.6097Z" fill="#3D7DDA"/>
<path fill-rule="evenodd" clip-rule="evenodd" d="M117.559 56.3148H154.843C155.289 56.3148 155.653 56.679 155.653 57.1245C155.653 57.57 155.289 57.9342 154.843 57.9342H117.559C117.114 57.9342 116.75 57.57 116.75 57.1245C116.75 56.679 117.114 56.3148 117.559 56.3148Z" fill="#7BA9E3"/>
<path fill-rule="evenodd" clip-rule="evenodd" d="M117.559 66.9958H154.843C155.289 66.9958 155.653 67.36 155.653 67.8055C155.653 68.251 155.289 68.6152 154.843 68.6152H117.559C117.114 68.6152 116.75 68.251 116.75 67.8055C116.75 67.36 117.114 66.9958 117.559 66.9958Z" fill="#7BA9E3"/>
<path fill-rule="evenodd" clip-rule="evenodd" d="M117.559 77.6776H154.843C155.289 77.6776 155.653 78.0418 155.653 78.4873C155.653 78.9328 155.289 79.2969 154.843 79.2969H117.559C117.114 79.2969 116.75 78.9328 116.75 78.4873C116.75 78.0418 117.114 77.6776 117.559 77.6776Z" fill="#7BA9E3"/>
<path fill-rule="evenodd" clip-rule="evenodd" d="M117.559 88.3586H154.843C155.289 88.3586 155.653 88.7228 155.653 89.1683C155.653 89.6138 155.289 89.978 154.843 89.978H117.559C117.114 89.978 116.75 89.6138 116.75 89.1683C116.75 88.7228 117.114 88.3586 117.559 88.3586Z" fill="#7BA9E3"/>
<path fill-rule="evenodd" clip-rule="evenodd" d="M117.559 99.0397H154.843C155.289 99.0397 155.653 99.4038 155.653 99.8493C155.653 100.295 155.289 100.659 154.843 100.659H117.559C117.114 100.659 116.75 100.295 116.75 99.8493C116.75 99.4038 117.114 99.0397 117.559 99.0397Z" fill="#7BA9E3"/>
<path d="M118.406 29.3576V30.8443H112.946V24.0431H118.28V25.5298H114.851V26.6765H117.872V28.1141H114.851V29.3576H118.406Z" fill="white"/>
<path d="M123.711 30.8436L122.302 28.7355L120.913 30.8436H118.717L121.195 27.4041L118.824 24.0424H120.991L122.351 26.0053L123.692 24.0424H125.771L123.401 27.3265L125.927 30.8436H123.712H123.711Z" fill="white"/>
<path d="M130.765 29.5225H127.889L127.355 30.8436H125.392L128.394 24.0424H130.289L133.301 30.8436H131.3L130.765 29.5225ZM130.202 28.1039L129.328 25.9277L128.454 28.1039H130.203H130.202Z" fill="white"/>
<path d="M139.986 30.8436L139.966 27.2385L138.217 30.1731H137.362L135.623 27.336V30.8436H133.844V24.0424H135.428L137.818 27.9676L140.15 24.0424H141.733L141.752 30.8436H139.984H139.986Z" fill="white"/>
<path fill-rule="evenodd" clip-rule="evenodd" d="M103.617 77.704H50.0478C46.3306 77.704 43.2905 82.3502 43.2905 88.0274C43.2905 93.7061 46.3314 98.3524 50.0478 98.3524H103.617C107.333 98.3524 110.375 93.7061 110.375 88.0282C110.375 82.3495 107.334 77.704 103.617 77.704Z" fill="#F69B25"/>
<path fill-rule="evenodd" clip-rule="evenodd" d="M97.5808 77.704H78.3723C82.0894 77.704 85.1302 82.3502 85.1302 88.0282C85.1302 93.7068 82.0887 98.3524 78.3723 98.3524H97.5808C101.297 98.3516 104.339 93.7061 104.339 88.0282C104.339 82.3495 101.298 77.704 97.5808 77.704Z" fill="#F48120"/>
<path fill-rule="evenodd" clip-rule="evenodd" d="M62.0719 95.206H11.3969C13.4984 91.5094 14.3183 86.2579 11.3969 80.8503H62.0726C63.7689 80.8503 65.1604 84.0846 65.1604 88.0282C65.1604 91.9717 63.7689 95.206 62.0719 95.206Z" fill="white"/>
<path fill-rule="evenodd" clip-rule="evenodd" d="M13.2903 88.3059C13.3284 85.956 12.7854 83.4208 11.3969 80.8503H62.0726C63.7689 80.8503 65.1604 84.0846 65.1604 88.0274C65.1604 88.1205 65.1589 88.2128 65.1574 88.3052H13.2903V88.3059Z" fill="#D7D7D8"/>
<path fill-rule="evenodd" clip-rule="evenodd" d="M9.81348 98.3516H62.2419C64.6848 98.3524 67.2677 93.6446 67.2677 87.9659C67.2677 82.2872 64.6848 77.704 62.2419 77.704H9.81348L9.83619 80.7968L62.0719 80.8503C63.7682 80.8525 65.1596 84.0846 65.1596 88.0282C65.1596 91.9717 63.7689 95.206 62.0719 95.206L9.83619 95.1525L9.81348 98.3516Z" fill="#F48120"/>
<path fill-rule="evenodd" clip-rule="evenodd" d="M58.4507 84.0011H52.6504C50.4251 85.2797 51.0677 90.348 49.7466 93.668L53.1728 90.9276L55.6583 93.4929C57.5846 90.4836 56.4826 85.3471 58.4507 84.0004" fill="#F48120"/>
<path fill-rule="evenodd" clip-rule="evenodd" d="M47.8591 87.9857H42.0588C39.8335 88.5089 40.4761 90.5818 39.155 91.9403L42.5812 90.8192L45.0666 91.8685C46.9937 90.6375 45.891 88.5367 47.8591 87.9857Z" fill="#F48120"/>
<path fill-rule="evenodd" clip-rule="evenodd" d="M58.4317 50.653H59.5037L56.1939 77.2797C56.158 77.5699 55.8906 77.7772 55.6004 77.7398L55.5403 77.7318C55.2831 77.6988 55.0992 77.4607 55.1307 77.2035L58.4309 50.653H58.4317Z" fill="#7BABEA"/>
<path fill-rule="evenodd" clip-rule="evenodd" d="M64.169 50.653H63.097L66.4067 77.2797C66.4426 77.5699 66.7101 77.7772 67.0002 77.7398L67.0603 77.7318C67.3175 77.6988 67.5014 77.4607 67.4699 77.2035L64.1697 50.653H64.169Z" fill="#7BABEA"/>
<path d="M85.4585 61.8938H83.6904V73.7794H85.4585V61.8938Z" fill="#B2D2FF"/>
<path fill-rule="evenodd" clip-rule="evenodd" d="M85.7472 75.2384L90.655 77.1948V77.7172H84.5389H78.4221V77.1948L83.3299 75.2384H83.4017V69.8579H85.7472V75.2384Z" fill="#9CC1F4"/>
<path fill-rule="evenodd" clip-rule="evenodd" d="M77.3347 29.4727C78.1619 29.4727 78.8324 30.1431 78.8324 30.9704C78.8324 31.7976 78.1619 32.4681 77.3347 32.4681C76.5074 32.4681 75.837 31.7976 75.837 30.9704C75.837 30.1431 76.5074 29.4727 77.3347 29.4727Z" fill="#1F3E7A"/>
<path fill-rule="evenodd" clip-rule="evenodd" d="M76.0304 44.6636C75.4574 45.9744 74.8082 47.1395 73.4886 47.903C71.0911 48.5185 65.6059 48.3522 65.7495 47.7616C65.8821 47.2172 66.7137 46.7848 67.1688 47.0669C67.6634 47.374 72.5162 45.2014 72.5749 45.1875C72.6159 45.178 72.9134 44.1763 72.9727 44.0474L76.0304 44.6636Z" fill="#F5A7B9"/>
<path fill-rule="evenodd" clip-rule="evenodd" d="M77.7501 41.0894C77.3823 42.2588 76.9404 43.4136 76.3286 44.4746L76.3565 44.364L72.8496 43.5961C73.4761 41.74 74.6954 37.4697 76.5799 36.6732C76.8525 36.449 78.4308 39.758 77.7494 41.0894" fill="#FBB44A"/>
<path fill-rule="evenodd" clip-rule="evenodd" d="M76.4547 44.3515C76.4217 44.4094 76.3675 44.5054 76.2905 44.6292L76.3565 44.3632L75.5783 44.169C76.0487 42.4662 76.5125 40.4739 76.5125 40.4739L76.4539 44.3515H76.4547Z" fill="#F48120"/>
<path fill-rule="evenodd" clip-rule="evenodd" d="M76.358 44.3281L72.7632 43.5016L72.6035 44.2021L76.1982 45.0286L76.358 44.3281Z" fill="white"/>
<path fill-rule="evenodd" clip-rule="evenodd" d="M80.1059 59.5103H69.1647C68.509 59.5103 67.9733 60.0466 67.9733 60.7017C67.9733 61.3575 68.5097 61.8931 69.1647 61.8931H80.1059C80.761 61.8931 81.2973 61.3567 81.2973 60.7017C81.2973 60.0459 80.761 59.5103 80.1059 59.5103Z" fill="#B2D2FF"/>
<path fill-rule="evenodd" clip-rule="evenodd" d="M83.7886 40.9875H94.9327L92.13 59.5542L80.9859 59.5645C80.9426 59.5645 80.8994 59.5616 80.8554 59.5542C80.3967 59.5542 80.0897 59.053 80.1615 58.6002L82.8345 41.6814C82.9063 41.2279 83.3299 40.9875 83.7886 40.9875Z" fill="#B2D2FF"/>
<path fill-rule="evenodd" clip-rule="evenodd" d="M94.1091 41.6814L91.2778 59.5103H78.913C78.2579 59.5103 77.7216 60.0466 77.7216 60.7017C77.7216 61.3568 78.2579 61.8931 78.913 61.8931H91.3709C92.5601 61.8931 92.766 60.7794 92.873 60.1045L95.7577 41.9408C95.8296 41.4873 95.5225 40.9868 95.0639 40.9868C94.6052 40.9868 94.1816 41.2279 94.1098 41.6807" fill="#9CC1F4"/>
<path fill-rule="evenodd" clip-rule="evenodd" d="M60.6804 75.6494L63.1629 70.1122L65.4227 70.6427L63.0105 75.8693L60.6804 75.6494Z" fill="#F5A7B9"/>
<path fill-rule="evenodd" clip-rule="evenodd" d="M60.986 74.8595C60.986 74.8595 58.3167 75.9557 57.4271 76.3916C56.7362 76.7302 56.3449 77.4424 56.912 77.8058H63.8253C63.8312 77.789 63.8371 77.7714 63.8429 77.7516C63.9455 77.4101 64.2144 74.9694 63.4949 75.0236C63.0486 75.0573 61.984 75.3739 60.9853 74.8595" fill="#031542"/>
<path fill-rule="evenodd" clip-rule="evenodd" d="M59.0948 75.6508C59.0193 75.6831 58.9431 75.7153 58.8677 75.7483L59.2165 76.3037C59.2524 76.3609 59.3278 76.3777 59.385 76.3425C59.4421 76.3066 59.459 76.2312 59.4238 76.174L59.0956 75.6516L59.0948 75.6508ZM59.7066 75.3922C59.6319 75.4237 59.5557 75.4559 59.4788 75.4882L59.8393 76.0626C59.8752 76.1198 59.9507 76.1366 60.0078 76.1007C60.065 76.0648 60.0818 75.9894 60.0466 75.9322L59.7074 75.3915L59.7066 75.3922ZM60.3199 75.1357C60.2474 75.1658 60.1712 75.1973 60.0913 75.231L60.4621 75.8216C60.498 75.8787 60.5735 75.8956 60.6306 75.8604C60.6878 75.8245 60.7046 75.749 60.6695 75.6919L60.3199 75.1357Z" fill="#577BC1"/>
<path fill-rule="evenodd" clip-rule="evenodd" d="M56.6365 77.1273V77.1288L56.6423 77.4043C56.6526 77.6212 56.7295 77.6886 56.9134 77.8058H63.859C63.8649 77.789 63.8715 77.7714 63.8766 77.7516C63.8964 77.6849 63.9455 77.3376 63.9697 77.1456L56.6357 77.1273H56.6365Z" fill="#577BC1"/>
<path fill-rule="evenodd" clip-rule="evenodd" d="M82.7672 53.1494L78.3107 52.3046C78.3107 52.3046 69.5509 54.0661 66.9959 57.9371C64.4416 61.8081 61.356 73.4607 61.356 73.4607C62.2404 74.2294 63.0362 74.3136 63.8129 74.4316C64.6665 73.4893 70.7592 62.6353 70.7694 62.6331L82.2205 55.552L82.7672 53.1494Z" fill="#1F3E7A"/>
<path fill-rule="evenodd" clip-rule="evenodd" d="M82.7671 53.1494L82.5913 53.4242C81.3039 53.4484 75.8296 55.0032 74.9167 55.2868C71.2852 56.4145 69.9934 57.8902 71.2068 62.3621L72.6108 61.4938L82.2198 55.5513L82.7664 53.1487L82.7671 53.1494Z" fill="#000446"/>
<path fill-rule="evenodd" clip-rule="evenodd" d="M75.5315 75.2633L75.3409 73.2454L77.3655 73.2945L77.3457 75.6048L75.5315 75.2633Z" fill="#F5A7B9"/>
<path fill-rule="evenodd" clip-rule="evenodd" d="M75.4603 74.9218C74.9034 75.9498 73.9963 76.9331 74.7049 77.8058H78.3107C78.3165 77.7889 78.3224 77.7706 78.3282 77.7516C78.3634 77.6321 78.5312 77.5823 78.4191 77.1441C78.2103 76.3315 77.5962 75.0815 77.3852 75.0177C76.9668 74.8902 76.3726 75.2493 75.4611 74.9218" fill="#031542"/>
<path fill-rule="evenodd" clip-rule="evenodd" d="M74.436 77.1259V77.1273C74.4279 77.4006 74.455 77.6417 74.7049 77.8058H78.3107C78.4968 77.6952 78.5459 77.6183 78.4191 77.1442L74.4367 77.1259H74.436Z" fill="#577BC1"/>
<path fill-rule="evenodd" clip-rule="evenodd" d="M87.867 52.6606C89.7955 60.4445 83.7768 60.2759 77.4343 61.5304C78.2806 66.1187 77.416 69.334 77.4717 74.0667C76.9756 74.2938 76.2055 74.7012 75.2369 74.1795C75.2369 74.1795 72.8621 66.1063 72.1367 61.0966C71.7703 58.5687 71.9366 57.2732 74.8954 55.8693C75.7227 55.4765 82.7671 53.1501 82.7671 53.1501L87.867 52.6614V52.6606Z" fill="#1F3E7A"/>
<path fill-rule="evenodd" clip-rule="evenodd" d="M86.932 36.3757C86.8851 41.3708 87.4347 44.63 88.0868 52.9325C85.0694 53.8946 77.1801 54.0463 76.7961 52.668C76.61 47.4077 75.8839 42.2435 76.0971 36.9861C79.0522 34.9381 83.7747 34.3168 86.932 36.3757Z" fill="#FBB44A"/>
<path fill-rule="evenodd" clip-rule="evenodd" d="M78.6954 35.7024C79.9088 35.2686 81.0225 35.103 82.3283 35.1074C82.4953 35.8174 82.6646 37.8947 79.9945 38.0222C78.6617 38.1013 78.0799 36.7912 78.6954 35.7031" fill="white"/>
<path fill-rule="evenodd" clip-rule="evenodd" d="M79.9432 47.4327L85.3398 44.5626L85.5003 42.1409L86.222 41.173C86.222 41.173 87.6941 43.4247 87.6999 43.5771C87.7058 43.7295 87.05 46.0178 87.1086 46.0207C87.168 46.0237 83.2244 47.3345 82.9005 47.4107C82.5759 47.4869 79.944 47.4327 79.944 47.4327" fill="#F48120"/>
<path fill-rule="evenodd" clip-rule="evenodd" d="M67.267 47.9031H77.7443V48.15C77.7443 48.2856 77.6337 48.3969 77.4974 48.3969H67.5132C67.3776 48.3969 67.2662 48.2863 67.2662 48.15V47.9031H67.267Z" fill="#2A4589"/>
<path fill-rule="evenodd" clip-rule="evenodd" d="M63.0201 41.3788H71.2706C71.5959 41.3788 71.8018 41.6543 71.8619 41.9774L72.9955 48.0313H63.6436L62.5101 41.8939C62.4588 41.6155 62.7394 41.3781 63.0193 41.3781" fill="#2A4589"/>
<path fill-rule="evenodd" clip-rule="evenodd" d="M62.7372 41.3788H70.9877C71.3131 41.3788 71.5182 41.6543 71.5791 41.9774L72.6335 47.5748H72.6474L72.7148 47.9858C72.7514 48.2086 72.5294 48.3969 72.3037 48.3969H63.7564C63.5307 48.3969 63.3791 48.2093 63.3454 47.9858L63.2948 47.6488L62.2265 41.8946C62.1744 41.6162 62.4558 41.3788 62.7357 41.3788" fill="#7BA9E3"/>
<path fill-rule="evenodd" clip-rule="evenodd" d="M67.0845 44.5289C67.2809 44.482 67.4853 44.6315 67.541 44.863C67.5967 45.0945 67.4817 45.3202 67.2853 45.3671C67.0889 45.414 66.8845 45.2645 66.8288 45.033C66.7731 44.8014 66.8881 44.5758 67.0845 44.5289Z" fill="#EDF8FD"/>
<path fill-rule="evenodd" clip-rule="evenodd" d="M89.4306 44.523C89.4782 45.5033 89.317 46.0793 89.1785 46.5577C89.0781 48.0042 83.4427 48.2342 79.2332 48.7882C78.9862 48.6065 78.8661 48.5156 78.8507 48.4094L76.8914 48.4313C77.0057 48.0166 77.2204 47.4194 77.7714 47.2363C78.1341 47.1161 78.8192 47.2443 80.1549 47.3374C82.7136 46.4002 86.0776 45.1751 86.0703 45.0513L86.0688 44.8182L89.4299 44.5222L89.4306 44.523Z" fill="#F5A7B9"/>
<path fill-rule="evenodd" clip-rule="evenodd" d="M86.3554 36.0379C88.1864 36.6695 89.2636 40.8344 89.5376 43.947L85.7457 44.2591C85.3962 41.6133 84.9683 38.3629 85.1471 36.7069C85.1705 36.49 86.1223 35.9573 86.3554 36.0379Z" fill="#FBB44A"/>
<path fill-rule="evenodd" clip-rule="evenodd" d="M53.8067 48.3962H81.8806V50.6531H53.8067C53.1861 50.6531 52.6783 50.1453 52.6783 49.5246C52.6783 48.904 53.1861 48.3962 53.8067 48.3962Z" fill="#9CC1F4"/>
<path fill-rule="evenodd" clip-rule="evenodd" d="M80.6334 48.3962H96.6612C97.2818 48.3962 97.7896 48.904 97.7896 49.5246C97.7896 50.1453 97.2818 50.6531 96.6612 50.6531H80.6334C80.0128 50.6531 79.505 50.1453 79.505 49.5246C79.505 48.904 80.0128 48.3962 80.6334 48.3962Z" fill="#7BABEA"/>
<path fill-rule="evenodd" clip-rule="evenodd" d="M78.6807 34.925L78.946 36.0307C78.7584 36.8132 79.0632 37.4412 80.0663 37.3818C82.7423 36.888 81.8549 35.1484 81.8117 35.0678L81.3677 33.4639C81.5325 33.417 82.1619 32.5157 82.2228 32.1516C82.946 27.8285 76.8474 26.8744 76.4019 30.8627C76.2224 32.4732 76.9024 34.5359 78.6815 34.9242" fill="#F5A7B9"/>
<path fill-rule="evenodd" clip-rule="evenodd" d="M80.5741 33.9658C80.4686 34.7667 79.7036 35.4914 78.7943 35.3968L78.6807 34.925C79.1687 34.8898 79.8377 34.7623 80.5741 33.9658Z" fill="#E16E73"/>
<path fill-rule="evenodd" clip-rule="evenodd" d="M80.6071 32.4321C80.5983 32.7245 80.7448 32.9311 81.0907 32.5699C81.3464 32.3032 81.7955 32.3677 81.7215 32.8066C81.6607 33.1693 81.2335 33.5217 81.4285 33.4308C82.485 32.9377 83.3914 29.7137 81.8879 28.9509C81.0745 27.0634 78.9701 27.1059 77.4519 28.0284C77.3391 28.0042 77.2218 27.9918 77.1017 27.9918C76.1696 27.9918 75.4142 28.7472 75.4142 29.6793C75.4142 30.3043 75.7542 30.8502 76.2598 31.1418C76.4048 31.251 76.591 31.3308 76.8218 31.3675C77.4856 31.4737 78.1663 31.2209 78.6184 31.0736C79.8018 30.6875 80.6488 31.0568 80.6071 32.4336" fill="#1F3E7A"/>
<path fill-rule="evenodd" clip-rule="evenodd" d="M75.8157 75.4515H76.9962C77.0555 75.4515 77.1046 75.5006 77.1046 75.56C77.1046 75.6193 77.0555 75.6684 76.9962 75.6684H75.8157C75.7564 75.6684 75.7073 75.6193 75.7073 75.56C75.7073 75.5006 75.7564 75.4515 75.8157 75.4515Z" fill="#577BC1"/>
<path fill-rule="evenodd" clip-rule="evenodd" d="M75.8113 75.8854H76.9918C77.0511 75.8854 77.1002 75.9345 77.1002 75.9938C77.1002 76.0532 77.0511 76.1023 76.9918 76.1023H75.8113C75.752 76.1023 75.7029 76.0532 75.7029 75.9938C75.7029 75.9345 75.752 75.8854 75.8113 75.8854Z" fill="#577BC1"/>
<path fill-rule="evenodd" clip-rule="evenodd" d="M75.8113 76.2693H76.9918C77.0511 76.2693 77.1002 76.3184 77.1002 76.3777C77.1002 76.4371 77.0511 76.4862 76.9918 76.4862H75.8113C75.752 76.4862 75.7029 76.4371 75.7029 76.3777C75.7029 76.3184 75.752 76.2693 75.8113 76.2693Z" fill="#577BC1"/>
<path fill-rule="evenodd" clip-rule="evenodd" d="M89.5779 43.9434L85.7245 44.2614L85.7875 45.0117L89.6409 44.6944L89.5779 43.9434Z" fill="white"/>
<path fill-rule="evenodd" clip-rule="evenodd" d="M85.6248 50.653H86.6968L83.387 77.2797C83.3511 77.5699 83.0837 77.7772 82.7935 77.7398L82.7334 77.7318C82.4762 77.6988 82.2923 77.4607 82.3238 77.2035L85.6241 50.653H85.6248Z" fill="#7BABEA"/>
<path fill-rule="evenodd" clip-rule="evenodd" d="M86.2323 50.653H85.1603L88.47 77.2797C88.5059 77.5699 88.7734 77.7772 89.0635 77.7398L89.1236 77.7318C89.3808 77.6988 89.5647 77.4607 89.5332 77.2035L86.233 50.653H86.2323Z" fill="#7BABEA"/>
<path fill-rule="evenodd" clip-rule="evenodd" d="M108.477 98.3516H47.3007C43.056 98.3516 39.5836 102.998 39.5836 108.675C39.5836 114.354 43.0568 119 47.3007 119H108.477C112.721 119 116.194 114.354 116.194 108.676C116.194 102.997 112.722 98.3516 108.477 98.3516Z" fill="#3D7DDA"/>
<path fill-rule="evenodd" clip-rule="evenodd" d="M80.4268 98.3516H67.2677C71.5124 98.3516 74.9856 102.998 74.9856 108.676C74.9856 114.354 71.5124 119 67.2677 119H80.4268C84.6715 118.999 88.1447 114.354 88.1447 108.676C88.1447 102.997 84.6715 98.3516 80.4268 98.3516Z" fill="#105DC4"/>
<path fill-rule="evenodd" clip-rule="evenodd" d="M59.6795 115.854H1.80768C4.20737 112.157 5.1438 106.905 1.80768 101.498H59.6795C61.6169 101.498 63.2062 104.732 63.2062 108.676C63.2062 112.619 61.6176 115.854 59.6795 115.854Z" fill="white"/>
<path fill-rule="evenodd" clip-rule="evenodd" d="M3.96997 108.953C4.0132 106.604 3.39331 104.068 1.80768 101.498H59.6803C61.6176 101.498 63.2069 104.732 63.2069 108.675C63.2069 108.768 63.2055 108.86 63.204 108.953H3.96997V108.953Z" fill="#D7D7D8"/>
<path fill-rule="evenodd" clip-rule="evenodd" d="M0 118.999H59.8737C62.6632 119 65.6132 114.292 65.6132 108.613C65.6132 102.935 62.6632 98.3516 59.8737 98.3516H0L0.0263783 101.444L59.6803 101.498C61.6176 101.5 63.2062 104.732 63.2062 108.676C63.2062 112.619 61.6176 115.854 59.6803 115.854L0.0263783 115.8L0 118.999Z" fill="#105DC4"/>
<path fill-rule="evenodd" clip-rule="evenodd" d="M55.544 104.649H48.9201C46.3783 105.927 47.1132 110.996 45.6038 114.316L49.5165 111.575L52.3551 114.14C54.5555 111.131 53.2967 105.995 55.544 104.648" fill="#105DC4"/>
<path fill-rule="evenodd" clip-rule="evenodd" d="M33.7745 51.2164C34.1306 52.879 34.6721 57.4139 33.9159 58.8845C33.3004 60.081 33.8082 61.8601 34.0537 62.0044C34.2991 62.1488 37.1399 63.1189 37.8529 63.2039C38.5658 63.2889 42.5768 60.0671 42.5768 60.0671L42.8977 56.5815L33.7745 51.2164Z" fill="#1F3E7A"/>
<path fill-rule="evenodd" clip-rule="evenodd" d="M26.3512 66.9416C26.6355 66.8735 26.9301 67.0896 27.0107 67.4238C27.0906 67.7579 26.925 68.084 26.6414 68.1521C26.3571 68.2202 26.0625 68.0041 25.9827 67.67C25.9028 67.3358 26.0684 67.0098 26.352 66.9416" fill="white"/>
<path d="M34.5278 61.1721C34.2625 61.7539 33.6317 65.77 32.2468 68.3125C31.3558 69.9487 29.8185 70.732 28.9752 70.403C27.5199 69.8352 30.7469 67.1937 30.7725 67.2164C31.6899 65.1977 31.6276 60.0979 34.3585 58.7401C34.6333 58.5635 35.3301 59.9638 34.5278 61.1713" fill="#F7AAAC"/>
<path d="M31.7295 72.2261C29.5569 72.7977 28.3611 70.0821 25.3906 72.1008L20.0776 83.9469C19.1126 84.4547 18.659 84.4767 17.4075 84.2055C17.003 84.1183 16.7041 84.026 16.2241 84.3902C16.2088 84.4012 16.1956 84.4136 16.1838 84.4268C16.0483 84.5741 16.0922 84.8225 16.2842 84.9104L20.6301 86.8566C20.8433 86.954 20.9275 86.8155 21.0477 86.625C21.0646 86.5979 21.0792 86.5693 21.0902 86.5386C22.9616 81.8916 26.6832 79.146 27.7361 75.678C27.7361 75.678 30.9572 77.6476 32.9854 77.6732C35.9207 77.7114 38.0119 75.7982 38.0581 75.6787C38.1357 75.4772 31.7302 72.2261 31.7302 72.2261" fill="#F7AAAC"/>
<path d="M26.5681 72.0099C28.1948 72.6415 30.9828 75.5431 30.2867 75.3592C29.1642 75.2786 28.2102 74.4316 27.2979 75.1211C26.4414 75.7688 26.1116 78.3583 24.3963 81.0892C24.4359 81.0415 26.0596 79.0646 26.4333 78.6111C30.2083 74.0242 30.7271 79.0961 36.2314 77.9245C38.7849 77.3815 36.0482 74.6309 36.0782 74.5019C36.1281 74.2916 26.5674 72.0092 26.5674 72.0092" fill="#F49295"/>
<path d="M31.7346 73.3685C30.7197 74.3921 32.3706 74.3005 31.3836 74.4119C30.7549 74.4829 35.8899 77.8447 34.9183 78.3408C34.6809 78.4617 30.4032 76.2833 28.723 75.5938C27.0187 74.894 26.4245 77.3948 26.4399 78.6221C26.4772 81.586 27.6181 87.1775 28.0621 90.3927C27.4415 91.3915 27.2517 91.5409 25.9182 91.9813C25.5254 92.111 25.2213 92.1835 24.992 92.7411C24.9847 92.7587 24.9795 92.7756 24.9759 92.7932C24.9334 92.9888 25.0975 93.1808 25.3078 93.1588L29.7122 92.6664C29.946 92.6422 30.1174 92.448 30.124 92.2231C30.124 92.1909 30.1226 92.1586 30.1167 92.1271C30.2398 91.5094 30.2405 90.9987 29.9592 90.0366C29.4316 86.3554 30.5571 82.9006 30.0493 78.8295C30.0075 78.4939 32.4424 78.872 34.8729 78.6961C36.4248 78.584 37.7855 78.3364 39.1124 77.2373C39.1124 77.2373 35.3162 71.6627 35.2803 71.4487C35.2451 71.2355 31.7346 73.3692 31.7346 73.3692" fill="#F7AAAC"/>
<path fill-rule="evenodd" clip-rule="evenodd" d="M26.2281 91.7915C26.2281 91.7915 24.3604 92.6224 24.4703 93.1053C24.6931 94.0813 30.3915 93.4262 30.5249 92.7477C30.5842 92.4451 30.5373 91.3167 30.2501 91.0053C30.0369 90.7737 28.0123 92.2678 26.2274 91.7908" fill="#1F3E7A"/>
<path fill-rule="evenodd" clip-rule="evenodd" d="M33.4727 69.4446C33.3012 71.6728 27.3624 69.0335 25.3906 72.1015C28.079 71.2046 31.1829 75.4215 33.6097 77.7303C35.558 79.5841 39.1894 79.9117 41.1751 77.7926C42.3197 76.5712 42.6853 74.2887 41.381 70.0564C40.4893 67.9725 33.8017 68.111 33.4727 69.4453" fill="#1F3E7A"/>
<path fill-rule="evenodd" clip-rule="evenodd" d="M17.6061 84.1316C17.6061 84.1316 15.6116 83.6509 15.4555 84.1425C15.1397 85.1361 20.0219 87.8956 20.7261 87.4164C20.992 87.2354 21.7226 85.9832 21.6303 85.5523C21.5614 85.2321 18.9558 85.5018 17.6061 84.1308" fill="#1F3E7A"/>
<path fill-rule="evenodd" clip-rule="evenodd" d="M43.0158 58.9643C43.9302 62.6954 40.7677 63.2471 41.5972 70.7796C38.8538 71.1606 33.8368 70.8668 32.7956 70.2682C33.4932 66.6067 32.8806 64.7866 32.7619 64.1506C31.9903 60.0063 34.3116 57.2952 38.3439 57.3164C40.2482 57.3267 42.2251 57.792 43.0158 58.9651" fill="#E16E73"/>
<path d="M36.4776 57.0351L36.7472 57.9158L36.6549 58.066C36.331 58.7636 37.2293 59.6839 37.7862 59.4648C39.2458 59.0662 39.9632 57.5282 39.3228 57.03L39.067 56.8819L38.6208 55.6568C38.6933 55.6282 39.133 55.1454 39.2773 55.0435C39.4217 54.9417 39.5565 54.5555 39.4656 54.2236C39.3748 53.8917 38.9044 54.1628 38.9044 54.1628C39.2422 53.1267 39.7111 52.2166 38.5673 51.7572C37.4235 51.2971 35.218 51.5315 35.218 51.5315L33.8361 51.5066C34.0009 51.7147 34.187 52.1185 34.316 52.6057C34.6941 54.0338 34.1966 56.4152 36.4768 57.0358" fill="#F7AAAC"/>
<path fill-rule="evenodd" clip-rule="evenodd" d="M38.1416 56.1111C37.9628 56.9427 37.6749 57.7297 36.748 57.9151L36.4783 57.0343C36.6857 57.0497 37.2748 57.0688 38.1424 56.1111" fill="#E16180"/>
<path fill-rule="evenodd" clip-rule="evenodd" d="M26.7359 70.2206H34.8399V70.6185C34.8399 70.8375 34.6611 71.0163 34.442 71.0163H27.1338C26.9147 71.0163 26.7359 70.8375 26.7359 70.6185V70.2206Z" fill="#1F3E7A"/>
<path fill-rule="evenodd" clip-rule="evenodd" d="M22.6238 64.2209H30.6135C30.9286 64.2209 31.1272 64.4877 31.1865 64.8005L31.6767 67.4032L32.2211 70.2924H23.1653L22.1307 64.7199C22.0809 64.4503 22.3527 64.2209 22.6238 64.2209Z" fill="#1F3E7A"/>
<path fill-rule="evenodd" clip-rule="evenodd" d="M22.3505 64.2209H30.3402C30.6553 64.2209 30.8539 64.4877 30.9132 64.8005L31.9339 70.2206H31.9471L32.013 70.6184C32.049 70.8338 31.8335 71.0163 31.6152 71.0163H23.3382C23.1199 71.0163 22.9726 70.8346 22.9404 70.6184L22.8913 70.2916L21.8567 64.7199C21.8068 64.4503 22.0787 64.2209 22.3498 64.2209" fill="#7BA9E3"/>
<path fill-rule="evenodd" clip-rule="evenodd" d="M26.6509 67.2662C26.8634 67.2157 27.0847 67.3769 27.1448 67.6275C27.2048 67.8781 27.081 68.1221 26.8678 68.1726C26.6553 68.2232 26.434 68.062 26.3739 67.8114C26.3138 67.5608 26.4377 67.3168 26.6509 67.2662Z" fill="#E5E6E7"/>
<path d="M42.8772 59.0523C45.5561 59.8144 43.7199 66.0777 43.248 68.1016C42.9557 69.2974 39.6774 70.2331 36.6314 71.0164C35.7045 71.2545 33.8148 71.042 33.2206 71.0164C33.3378 70.6668 34.0903 69.863 34.8641 69.6608C35.388 69.5245 35.5602 69.8147 36.2204 69.6007C38.6574 68.8108 41 67.1402 41.0139 67.02C41.1136 64.591 40.8395 61.0043 42.1694 59.3967C42.2911 59.2494 42.6706 58.9922 42.878 59.0516" fill="#F7AAAC"/>
<path fill-rule="evenodd" clip-rule="evenodd" d="M34.0456 52.8497C32.5596 51.7374 33.6192 48.1162 38.0507 49.09C40.8366 49.7531 39.6063 53.1039 44.1566 54.354C46.5695 55.0164 47.8913 57.4117 46.3826 60.6203C46.3746 60.6269 45.9892 59.4223 45.0593 59.3717C46.1892 61.3699 44.4907 63.2156 44.1998 63.5168C44.7801 60.0627 43.3052 58.5547 39.5389 57.3743C38.6816 56.9039 38.5688 56.0935 38.5314 55.3028C38.3387 51.2582 35.961 54.2807 34.0464 52.8497" fill="#1F3E7A"/>
<path fill-rule="evenodd" clip-rule="evenodd" d="M61.9935 24.1853L61.0959 23.9633C60.7207 23.8702 60.4496 23.539 60.4401 23.1536C60.4203 22.407 60.3075 21.6757 60.1089 20.9723C60.0048 20.5993 60.1653 20.2029 60.4965 20.0043L61.2871 19.5251C61.6982 19.2782 61.8308 18.744 61.5839 18.3337L60.6687 16.8177C60.421 16.4074 59.8861 16.2755 59.4758 16.5231L58.6837 17.0009C58.3518 17.2009 57.9268 17.1584 57.6462 16.8917C57.1164 16.3883 56.5214 15.9479 55.87 15.5823C55.533 15.3933 55.3674 14.9998 55.4612 14.6239L55.6825 13.7263C55.7982 13.261 55.5132 12.7906 55.0479 12.6748L53.3289 12.2498C52.8636 12.1341 52.3932 12.4184 52.2775 12.8836L52.0554 13.7812C51.9624 14.1564 51.6319 14.4282 51.2458 14.4385C50.4991 14.4576 49.7679 14.5711 49.0652 14.7682C48.6915 14.8737 48.2958 14.7125 48.0958 14.3806L47.618 13.5893C47.3704 13.1789 46.8369 13.0463 46.4266 13.2954L44.9098 14.2099C44.4988 14.4576 44.3676 14.9917 44.6153 15.402L45.093 16.1941C45.2931 16.5253 45.2506 16.9518 44.9831 17.2309C44.4805 17.7614 44.0401 18.3564 43.6737 19.0071C43.4861 19.3449 43.0919 19.5097 42.716 19.4174L41.8192 19.1954C41.3539 19.0796 40.8835 19.3639 40.7677 19.8299L40.3427 21.5489C40.2277 22.0149 40.5113 22.4846 40.9773 22.6004L41.8741 22.8224C42.2493 22.9155 42.5204 23.2452 42.5314 23.6328C42.5497 24.378 42.664 25.1093 42.8611 25.8127C42.9674 26.1864 42.8054 26.5821 42.475 26.7828L41.6822 27.2598C41.2711 27.5075 41.1399 28.0417 41.3876 28.452L42.3013 29.968C42.5497 30.3791 43.0839 30.5102 43.4949 30.2626L44.2856 29.7841C44.6182 29.5841 45.0432 29.6266 45.3238 29.894C45.8536 30.3967 46.4486 30.8385 47.0992 31.2019C47.437 31.3902 47.6034 31.7859 47.5103 32.1611L47.2883 33.0579C47.1725 33.5232 47.4568 33.9944 47.9221 34.1094L49.6411 34.5351C50.1056 34.6494 50.5768 34.3651 50.6926 33.8998L50.9138 33.0023C51.0069 32.6271 51.3374 32.3567 51.725 32.3457C52.4702 32.3267 53.2014 32.2131 53.9041 32.016C54.2763 31.9112 54.6728 32.071 54.8735 32.4029L55.3505 33.1942C55.5989 33.6053 56.1331 33.7372 56.5434 33.4895L58.0594 32.5736C58.4705 32.3259 58.6024 31.7925 58.354 31.3815L57.8763 30.5894C57.6762 30.2582 57.7187 29.8332 57.9854 29.5518C58.4896 29.0228 58.9307 28.4278 59.2948 27.7764C59.4846 27.4394 59.8766 27.273 60.2525 27.3668L61.1508 27.5881C61.6161 27.7039 62.0873 27.4196 62.2023 26.9536L62.6273 25.2346C62.7431 24.7693 62.4588 24.2989 61.9927 24.1838M55.8898 25.3188C55.0941 27.1741 53.1494 28.3479 51.1366 28.1867C47.8151 27.9208 45.7671 24.5267 47.0802 21.4632C47.8759 19.6087 49.8206 18.4348 51.8327 18.596C55.1549 18.862 57.2036 22.2553 55.8906 25.3188H55.8898Z" fill="#C3DCFA"/>
<path fill-rule="evenodd" clip-rule="evenodd" d="M45.1348 36.8989L44.5545 36.7553C44.312 36.6952 44.1361 36.4813 44.1302 36.2314C44.1171 35.7486 44.0445 35.2759 43.9163 34.8209C43.8489 34.5798 43.9529 34.3234 44.1669 34.1944L44.6783 33.8845C44.9443 33.7247 45.03 33.3796 44.8703 33.1137L44.2783 32.1333C44.1178 31.868 43.7727 31.783 43.5067 31.9427L42.9945 32.2512C42.7798 32.3809 42.505 32.3531 42.3233 32.1809C41.9804 31.8556 41.5965 31.5705 41.1751 31.3338C40.9568 31.2115 40.8498 30.9572 40.9106 30.714L41.0535 30.1336C41.1282 29.8325 40.9443 29.5284 40.6432 29.4537L39.5316 29.1789C39.2305 29.1041 38.9264 29.2881 38.8516 29.5892L38.708 30.1695C38.6479 30.4121 38.4347 30.5879 38.1849 30.5945C37.702 30.607 37.2294 30.6802 36.7744 30.8077C36.5325 30.8759 36.2768 30.7718 36.1471 30.5572L35.8379 30.045C35.6775 29.7797 35.3323 29.694 35.0671 29.8545L34.086 30.4458C33.82 30.6062 33.7357 30.9514 33.8954 31.2166L34.2047 31.7288C34.3344 31.9435 34.3065 32.2183 34.1336 32.3992C33.809 32.7422 33.524 33.1268 33.2865 33.5474C33.1649 33.7658 32.9099 33.8728 32.6674 33.8127L32.0871 33.6691C31.7859 33.5943 31.4818 33.7782 31.4071 34.0794L31.1323 35.1909C31.0583 35.4921 31.2415 35.7962 31.5426 35.8709L32.123 36.0145C32.3655 36.0746 32.5406 36.2878 32.548 36.5384C32.5597 37.0206 32.6337 37.4932 32.7612 37.9482C32.8293 38.19 32.7253 38.4457 32.5113 38.5754L31.9991 38.8839C31.7332 39.0436 31.6482 39.3895 31.8086 39.6547L32.3992 40.6351C32.5597 40.9011 32.9055 40.9854 33.1708 40.8256L33.6822 40.5164C33.8976 40.3875 34.1717 40.4146 34.3534 40.5875C34.6963 40.9121 35.0803 41.1979 35.5016 41.4338C35.72 41.5554 35.8277 41.8112 35.7676 42.0537L35.624 42.634C35.5492 42.9352 35.7331 43.24 36.0343 43.314L37.1458 43.5895C37.4463 43.6635 37.7511 43.4796 37.8258 43.1785L37.9687 42.5981C38.0288 42.3556 38.2427 42.1805 38.4933 42.1731C38.9755 42.1607 39.4481 42.0874 39.9024 41.9599C40.1434 41.8918 40.3992 41.9958 40.5289 42.2098L40.8373 42.722C40.9978 42.9879 41.3429 43.0729 41.6089 42.9132L42.5893 42.3212C42.8546 42.1614 42.9403 41.8163 42.7798 41.5503L42.4706 41.0381C42.3416 40.8235 42.3688 40.5494 42.5409 40.367C42.867 40.0248 43.152 39.6401 43.388 39.2188C43.5104 39.0004 43.7646 38.8934 44.0071 38.9535L44.5882 39.0964C44.8894 39.1711 45.1942 38.9872 45.2682 38.6861L45.5429 37.5745C45.6177 37.2734 45.4338 36.9693 45.1326 36.8953M41.1861 37.6295C40.6718 38.8297 39.4137 39.5888 38.1123 39.484C35.964 39.3118 34.6399 37.1173 35.4891 35.136C36.0042 33.9365 37.2609 33.1774 38.5622 33.2822C40.7106 33.4544 42.0354 35.6489 41.1861 37.6295Z" fill="#C3DCFA"/>
</g>
<defs>
<clipPath id="clip0_24_1995">
<rect width="166.883" height="119" fill="white"/>
</clipPath>
</defs>
</svg>
