<svg width="146" height="119" viewBox="0 0 146 119" fill="none" xmlns="http://www.w3.org/2000/svg">
<g clip-path="url(#clip0_24_1042)">
<path d="M132.319 9.71044C132.066 8.73682 131.678 7.81783 131.173 6.97274L132.338 5.23437L130.723 3.63095L129.109 2.02753L127.358 3.1843C126.507 2.68625 125.582 2.30066 124.601 2.05002L124.187 0.00317383H119.618L119.204 2.05002C118.223 2.30066 117.298 2.68625 116.447 3.1843L114.696 2.02753L113.081 3.63095L111.467 5.23437L112.632 6.97274C112.13 7.81783 111.742 8.73682 111.489 9.71044L109.428 10.1217V14.6589L111.489 15.0702C111.742 16.0438 112.13 16.9628 112.632 17.8079L111.467 19.5462L113.081 21.1497L114.696 22.7531L116.447 21.5963C117.298 22.0944 118.223 22.48 119.204 22.7306L119.618 24.7774H124.187L124.601 22.7306C125.582 22.48 126.507 22.0944 127.358 21.5963L129.109 22.7531L130.723 21.1497L132.338 19.5462L131.173 17.8079C131.675 16.9628 132.063 16.0438 132.319 15.0702L134.38 14.6589V10.1217L132.319 9.71044ZM121.902 20.3399C117.482 20.3399 113.897 16.7796 113.897 12.3903C113.897 8.00099 117.482 4.44069 121.902 4.44069C126.323 4.44069 129.908 8.00099 129.908 12.3903C129.908 16.7796 126.323 20.3399 121.902 20.3399Z" fill="url(#paint0_linear_24_1042)"/>
<path d="M135.438 29.0029C135.322 28.5563 135.144 28.1353 134.914 27.7465L135.448 26.9496L134.707 26.2138L133.966 25.4779L133.163 26.0081C132.772 25.78 132.348 25.6033 131.898 25.4876L131.707 24.5493H129.613L129.423 25.4876C128.973 25.6033 128.549 25.78 128.157 26.0081L127.355 25.4779L126.614 26.2138L125.873 26.9496L126.407 27.7465C126.177 28.1353 125.999 28.5563 125.882 29.0029L124.938 29.1925V31.2715L125.882 31.461C125.999 31.9077 126.177 32.3286 126.407 32.7174L125.873 33.5143L126.614 34.2502L127.355 34.986L128.157 34.4558C128.549 34.6839 128.973 34.8607 129.423 34.9764L129.613 35.9146H131.707L131.898 34.9764C132.348 34.8607 132.772 34.6839 133.163 34.4558L133.966 34.986L134.707 34.2502L135.448 33.5143L134.914 32.7174C135.144 32.3286 135.322 31.9077 135.438 31.461L136.383 31.2715V29.1925L135.438 29.0029ZM130.662 33.8742C128.636 33.8742 126.992 32.2419 126.992 30.2304C126.992 28.2189 128.636 26.5865 130.662 26.5865C132.688 26.5865 134.331 28.2189 134.331 30.2304C134.331 32.2419 132.688 33.8742 130.662 33.8742Z" fill="#60B4F8"/>
<path d="M69.0571 101.272H80.2953V67.3757H69.0571V101.272Z" fill="#AEBECC"/>
<path d="M31.0904 83.7056L118.262 83.7056C120.987 83.7056 123.197 81.5117 123.197 78.8053L123.197 20.626C123.197 17.9197 120.987 15.7258 118.262 15.7258L31.0904 15.7258C28.365 15.7258 26.1557 17.9197 26.1557 20.626L26.1557 78.8053C26.1557 81.5117 28.365 83.7056 31.0904 83.7056Z" fill="#F0F0F0"/>
<path d="M29.9579 73.0503L119.398 73.0503L119.398 8.4894L29.9579 8.4894L29.9579 73.0503Z" fill="white"/>
<path d="M29.9578 16.2881L119.398 16.2881V8.48949L29.9578 8.48949V16.2881Z" fill="#1467AA"/>
<path d="M71.5455 77.928C71.5455 79.6439 72.9466 81.0353 74.6746 81.0353C76.4025 81.0353 77.8037 79.6439 77.8037 77.928C77.8037 76.2121 76.4025 74.8208 74.6746 74.8208C72.9466 74.8208 71.5455 76.2121 71.5455 77.928Z" fill="#757575"/>
<path d="M57.6441 24.1477L86.8124 24.1477C87.4379 24.1477 87.9449 23.6442 87.9449 23.0231V22.962C87.9449 22.3409 87.4379 21.8374 86.8124 21.8374L57.6441 21.8374C57.0186 21.8374 56.5115 22.3409 56.5115 22.962V23.0231C56.5115 23.6442 57.0186 24.1477 57.6441 24.1477Z" fill="#DFE1E8"/>
<path d="M57.6441 28.3153L86.8124 28.3153C87.4379 28.3153 87.9449 27.8118 87.9449 27.1907V27.1296C87.9449 26.5085 87.4379 26.005 86.8124 26.005L57.6441 26.005C57.0186 26.005 56.5115 26.5085 56.5115 27.1296V27.1907C56.5115 27.8118 57.0186 28.3153 57.6441 28.3153Z" fill="#DFE1E8"/>
<path d="M86.8092 32.4829L57.6409 32.4829C57.0163 32.4829 56.5083 31.9784 56.5083 31.3583V31.2972C56.5083 30.6771 57.0163 30.1726 57.6409 30.1726L86.8092 30.1726C87.4337 30.1726 87.9417 30.6771 87.9417 31.2972V31.3583C87.9417 31.9784 87.4337 32.4829 86.8092 32.4829Z" fill="#DFE1E8"/>
<path d="M72.6942 68.5101H39.1672C36.3714 68.5101 34.0966 66.2511 34.0966 63.4749V43.2249C34.0966 40.4486 36.3714 38.1897 39.1672 38.1897H72.6942C75.49 38.1897 77.7649 40.4486 77.7649 43.2249V63.4749C77.7649 66.2511 75.49 68.5101 72.6942 68.5101ZM39.1672 38.8195C36.7209 38.8195 34.734 40.7957 34.734 43.2217V63.4717C34.734 65.9009 36.7241 67.877 39.1672 67.877H72.6942C75.1405 67.877 77.1274 65.9009 77.1274 63.4717V43.2217C77.1274 40.7924 75.1373 38.8195 72.6942 38.8195H39.1672Z" fill="#DFE1E8"/>
<path d="M70.0408 45.8212L41.8174 45.8212C40.5813 45.8212 39.5781 44.8251 39.5781 43.5976V43.1734C39.5781 41.946 40.5813 40.9499 41.8174 40.9499H70.0408C71.2769 40.9499 72.28 41.946 72.28 43.1734V43.5976C72.28 44.8251 71.2769 45.8212 70.0408 45.8212Z" fill="#DFE1E8"/>
<path d="M99.9533 99.9935H49.3958V102.551H99.9533V99.9935Z" fill="#F0F0F0"/>
<path d="M109.337 44.8443C109.337 47.5049 107.891 49.8281 105.733 51.0845C105.299 51.3351 104.836 51.544 104.354 51.7046C104.312 51.7207 104.267 51.7335 104.221 51.7464C103.539 51.9585 102.814 52.0709 102.06 52.0709C100.898 52.0709 99.798 51.801 98.824 51.319C96.4294 50.1366 94.7824 47.6816 94.7824 44.8443C94.7824 40.8534 98.0409 37.6177 102.06 37.6177C106.079 37.6177 109.337 40.8534 109.337 44.8443Z" fill="#EEF0F7"/>
<path d="M100.322 44.0796C100.322 44.0796 99.8239 40.8856 102.487 40.9467C105.15 41.0045 105.115 42.5854 105.066 44.1503C105.017 45.7184 103.998 45.5995 105.15 47.7781C106.302 49.9567 104.154 49.9567 104.154 49.9567L102.487 47.6817L100.322 44.0764V44.0796Z" fill="#3C4145"/>
<path d="M102.196 41.2519C102.196 41.2519 100.393 41.5347 100.322 44.0796C100.251 46.6245 100.808 47.1675 102.387 46.6373C103.966 46.1072 104.464 43.4434 104.5 43.0321C104.535 42.6208 104.629 40.9467 102.199 41.2519H102.196Z" fill="#EEA886"/>
<path d="M105.364 50.1044C105.37 50.8659 104.959 51.3768 104.354 51.7014C104.312 51.7174 104.267 51.7303 104.221 51.7431C103.539 51.9552 102.814 52.0677 102.06 52.0677C100.898 52.0677 99.798 51.7978 98.824 51.3158C98.604 50.882 98.9211 50.265 99.5683 49.3171C100.012 48.6648 100.445 48.0029 101.189 47.6784C102.286 47.5049 103.448 47.4952 104.267 47.9547C104.917 48.321 105.354 48.9862 105.364 50.1044Z" fill="#E55353"/>
<path d="M99.921 49.2818L99.0926 50.5799C99.0926 50.5799 99.1508 50.3775 99.2447 49.8087C99.2641 49.6995 99.2803 49.5806 99.3029 49.4424C99.3094 49.4039 99.3191 49.3621 99.3288 49.3235C99.6848 48.5106 100.791 47.9065 100.83 47.8872L99.9242 49.285L99.921 49.2818Z" fill="#E55353"/>
<path d="M105.733 51.0845C105.299 51.3351 104.836 51.544 104.354 51.7047C104.312 51.7207 104.267 51.7336 104.221 51.7464C104.037 51.2741 103.878 50.866 103.843 50.76C103.833 50.7278 103.811 50.6732 103.778 50.5961C103.629 50.2362 103.293 49.4329 103.29 48.8063C103.29 48.4014 103.422 48.0705 103.833 47.9741C103.995 47.9355 104.141 47.9355 104.267 47.958C104.726 48.0416 104.992 48.4496 105.14 48.8127C105.14 48.8192 105.144 48.8256 105.147 48.832C105.27 49.1405 105.309 49.4104 105.309 49.4104C105.309 49.4104 105.315 49.4393 105.328 49.4907C105.354 49.5904 105.403 49.7831 105.467 50.0338C105.542 50.323 105.632 50.6893 105.729 51.0877L105.733 51.0845Z" fill="#EEA886"/>
<path d="M103.4 45.4902C103.244 45.7826 103.079 47.6045 103.079 47.6045C103.079 47.6045 100.872 48.4335 101.099 47.9644C101.202 47.7523 101.232 47.476 101.235 47.2382C101.235 47.0518 101.222 46.8879 101.209 46.7948C101.202 46.7466 101.199 46.7209 101.199 46.7209C101.199 46.7209 103.558 45.1978 103.4 45.4934V45.4902Z" fill="#EEA886"/>
<path d="M101.461 43.0802C101.461 43.0802 102.387 44.5776 103.228 45.1656C104.069 45.7537 103.642 46.226 103.642 46.226C103.642 46.226 105.839 41.631 103.749 41.3129C101.659 40.9948 100.377 40.9723 100.319 44.0828C100.319 44.0828 101.267 43.0577 101.458 43.0802H101.461Z" fill="#3C4145"/>
<path d="M102.468 46.6084C102.128 47.1032 101.235 47.2382 101.235 47.2382C101.235 47.0518 101.222 46.888 101.209 46.7948C101.785 46.904 102.468 46.6084 102.468 46.6084Z" fill="#A77860"/>
<path d="M99.332 49.3108C99.332 49.3108 99.2835 49.4104 99.2447 49.8056L99.5683 49.3172C99.5683 49.3172 100.147 48.4914 100.348 48.2761C100.545 48.0608 100.833 47.8712 100.833 47.8712C100.833 47.8712 99.6783 48.4175 99.3288 49.3075L99.332 49.3108Z" fill="#BD4444"/>
<path d="M103.72 50.5447C103.72 50.5447 105.134 49.992 105.555 49.9599C105.555 49.9599 105.27 47.701 103.878 47.9419C102.487 48.1797 103.72 50.5447 103.72 50.5447Z" fill="#E55353"/>
<path d="M101.189 47.6816C101.189 47.6816 100.151 49.269 100.503 49.4072C100.856 49.5453 102.759 49.2208 103.571 47.7138C103.571 47.7138 102.361 47.0968 101.193 47.6816H101.189Z" fill="#EEA886"/>
<path d="M112.026 23.7588C112.026 28.929 107.807 33.1608 102.558 33.1608C97.3096 33.1608 93.09 28.9482 93.09 23.7588C93.09 18.5694 97.329 14.3568 102.558 14.3568C107.787 14.3568 112.026 18.5662 112.026 23.7588Z" fill="#EEF0F7"/>
<path d="M108.726 28.9482L108.027 31.4353C106.781 32.3125 105.312 32.8973 103.72 33.0901C103.438 33.1255 103.157 33.1448 102.869 33.1544C102.765 33.1576 102.662 33.1608 102.558 33.1608C102.251 33.1608 101.95 33.1448 101.649 33.1191C101.316 33.0869 100.986 33.0387 100.665 32.9745C99.2317 32.6853 97.9147 32.0747 96.7951 31.22C96.6624 30.3974 96.5168 29.4881 96.3906 28.6366C97.0863 28.3795 99.3029 27.6308 100.701 27.1617C100.72 27.1552 100.74 27.1488 100.759 27.1424C100.788 27.1327 100.821 27.1231 100.85 27.1103C100.931 27.0813 101.011 27.0556 101.086 27.0299C101.164 27.0042 101.235 26.9785 101.303 26.956C101.591 26.8596 101.791 26.7921 101.862 26.7696C101.882 26.7632 101.892 26.76 101.892 26.76H101.908L103.788 26.9014L104.102 26.9239L104.199 26.9303C104.199 26.9303 104.212 26.9335 104.241 26.94C104.354 26.9689 104.684 27.0556 105.121 27.1874C106.234 27.5248 108.04 28.1674 108.723 28.945L108.726 28.9482Z" fill="#D9C7C1"/>
<path d="M103.05 19.09C103.05 19.09 105.305 19.4691 104.924 22.9716C104.542 26.4773 102.552 26.1688 102.419 26.1624C102.286 26.1559 100.416 26.2041 100.319 21.9209C100.319 21.9209 100.29 18.7526 103.053 19.09H103.05Z" fill="#EEA987"/>
<path d="M104.037 25.1469C104.037 25.1469 103.959 26.5897 104.095 26.9046C104.231 27.2195 102.286 28.2123 101.076 27.0813C101.076 27.0813 101.322 25.5036 101.244 24.9477C101.17 24.3918 104.037 25.1501 104.037 25.1501V25.1469Z" fill="#EEA987"/>
<path d="M104.966 21.9818C104.966 21.9818 105.215 21.7216 105.305 21.9883C105.393 22.255 104.904 23.4374 104.937 23.4889C104.937 23.4889 104.891 23.5917 104.83 23.5338C104.772 23.476 104.966 21.9818 104.966 21.9818Z" fill="#EEA987"/>
<path d="M100.342 21.8887C100.342 21.8887 100.102 21.6188 100.005 21.8823C99.9048 22.1458 100.267 23.3251 100.312 23.399C100.312 23.399 100.39 23.5211 100.452 23.4664C100.513 23.4118 100.345 21.8919 100.345 21.8919L100.342 21.8887Z" fill="#EEA987"/>
<path d="M105.111 21.683C105.034 22.1618 104.959 22.5185 104.959 22.5185L104.632 22.9426C104.632 22.9426 104.652 22.0011 104.603 21.8533C104.584 21.7987 104.561 21.6991 104.539 21.5898C104.5 21.4131 104.461 21.2139 104.435 21.1464C104.393 21.0404 102.503 20.4909 100.821 21.2621C100.821 21.2621 100.833 21.4067 100.833 21.5674C100.833 21.7537 100.811 21.9658 100.727 21.9979C100.565 22.0558 100.633 23.1001 100.633 23.1001L100.371 22.798C100.371 22.798 100.296 22.255 100.222 21.6284C100.222 21.6284 100.222 21.6284 100.222 21.6252C100.206 21.4806 100.186 21.3296 100.17 21.1818C100.131 20.552 100.196 19.408 101.021 18.7365C101.578 18.4987 102.468 18.2995 103.95 18.7493C103.95 18.7493 104.289 18.7718 104.386 18.8618C105.309 19.8707 105.118 21.683 105.118 21.683H105.111Z" fill="#E8734D"/>
<path d="M101.4 25.6964C101.4 25.6964 101.759 26.1913 102.597 26.1752C103.432 26.1559 103.798 25.7221 103.798 25.7221C103.798 25.7221 103.403 26.5447 102.594 26.5351C101.788 26.5254 101.403 25.6964 101.403 25.6964H101.4Z" fill="#C78D71"/>
<path d="M100.846 27.1103C100.846 27.1103 101.452 28.1546 102.597 28.2542C103.325 28.3152 103.953 27.4027 104.247 26.9528C104.247 26.9528 102.62 26.262 100.846 27.1135V27.1103Z" fill="#EEA987"/>
<path d="M104.04 26.6218C104.04 26.6218 103.581 27.2227 102.597 27.8621L103.209 28.7972L104.251 26.9528L104.04 26.6218Z" fill="#EDDAD3"/>
<path d="M101.121 26.76C101.121 26.76 101.707 27.4894 102.597 27.8622L101.927 28.8261L100.756 27.1424L101.121 26.7632V26.76Z" fill="#EDDAD3"/>
<path d="M102.597 27.8622L103.121 28.6526C103.121 28.6526 102.571 28.9611 102.06 28.6334L102.597 27.8622Z" fill="#5073AB"/>
<path d="M109.328 28.8004C109.237 29.1217 109.101 29.5909 108.748 30.873C108.642 30.9662 108.528 31.0561 108.415 31.1461C108.289 31.2457 108.156 31.3421 108.027 31.4353C106.781 32.3125 105.312 32.8973 103.72 33.0901C103.859 29.8351 104.251 26.9496 104.251 26.9496C104.558 27.0299 104.849 27.1102 105.124 27.1874C107.529 27.8718 108.745 28.4727 109.163 28.7008C109.163 28.7008 109.169 28.704 109.172 28.7072C109.279 28.7683 109.331 28.8004 109.331 28.8004H109.328Z" fill="#323657"/>
<path d="M100.662 32.9745C99.2285 32.6853 97.9115 32.0747 96.7919 31.22C96.4553 30.963 96.135 30.6834 95.8373 30.3846C95.779 30.3267 95.7208 30.2657 95.6658 30.2078C95.5007 29.5073 95.3907 29.0511 95.381 29.0221C95.381 29.0221 96.5524 28.2574 100.698 27.1584C100.698 27.2548 100.698 29.8961 100.662 32.9745Z" fill="#323657"/>
<path d="M102.898 28.7393C102.859 29.5973 102.856 31.2585 102.869 33.1575C102.765 33.1608 102.662 33.164 102.558 33.164C102.251 33.164 101.95 33.1479 101.649 33.1222C101.83 30.7829 102.138 29.3177 102.277 28.7393C102.322 28.5497 102.351 28.4565 102.351 28.4565L102.908 28.5465C102.904 28.6076 102.901 28.6718 102.898 28.7425V28.7393Z" fill="#5073AB"/>
<path d="M109.807 29.8093C109.483 30.1917 109.13 30.5484 108.748 30.8761C108.642 30.9693 108.528 31.0593 108.415 31.1493L109.328 28.8036C109.551 28.99 109.729 29.6294 109.807 29.8126V29.8093Z" fill="#323657"/>
<path d="M95.8373 30.3845C95.779 30.3267 95.7208 30.2656 95.6658 30.2078C95.4522 29.9861 95.2516 29.7515 95.0639 29.5105C95.1707 29.2567 95.2775 29.0864 95.381 29.0221L95.8373 30.3845Z" fill="#323657"/>
<path d="M45.3801 10.9154H34.7599C34.1701 10.9154 33.692 11.3902 33.692 11.9758V12.8016C33.692 13.3872 34.1701 13.862 34.7599 13.862H45.3801C45.9698 13.862 46.4479 13.3872 46.4479 12.8016V11.9758C46.4479 11.3902 45.9698 10.9154 45.3801 10.9154Z" fill="#F5F7FF"/>
<path d="M102.152 69.2982C106.171 69.246 109.387 65.9684 109.334 61.9776C109.281 57.9868 105.981 54.794 101.962 54.8462C97.9429 54.8984 94.7276 58.176 94.7802 62.1668C94.8328 66.1576 98.1334 69.3505 102.152 69.2982Z" fill="#EEF0F7"/>
<path d="M102.06 64.9464C101.859 64.9464 101.694 64.7826 101.694 64.5833V59.5482C101.694 59.3457 101.859 59.1851 102.06 59.1851C102.261 59.1851 102.426 59.3489 102.426 59.5482V64.5833C102.426 64.7826 102.261 64.9464 102.06 64.9464Z" fill="#949494"/>
<path d="M104.594 62.4272H99.523C99.3191 62.4272 99.1573 62.2634 99.1573 62.0641C99.1573 61.8649 99.3223 61.701 99.523 61.701H104.594C104.797 61.701 104.959 61.8649 104.959 62.0641C104.959 62.2634 104.794 62.4272 104.594 62.4272Z" fill="#949494"/>
<path d="M82.5475 38.5045H86.5179C87.3075 38.5045 87.9449 39.1407 87.9449 39.9216V43.8642C87.9449 44.6483 87.3042 45.2813 86.5179 45.2813H82.5475C81.7579 45.2813 81.1205 44.6451 81.1205 43.8642V39.9216C81.1205 39.1375 81.7612 38.5045 82.5475 38.5045Z" fill="#1467AA"/>
<path d="M84.3143 43.3855L82.5895 41.8913C82.4472 41.7692 82.4342 41.5571 82.5572 41.4158C82.6801 41.2744 82.8937 41.2615 83.0361 41.3836L84.256 42.4408L85.9969 40.5128C86.1231 40.3747 86.3367 40.3618 86.4758 40.4871C86.615 40.6124 86.6279 40.8245 86.5017 40.9627L84.3143 43.3855Z" fill="#F3F3F3"/>
<path d="M82.5475 47.1899H86.5179C87.3075 47.1899 87.9449 47.8262 87.9449 48.607V52.5497C87.9449 53.3337 87.3042 53.9667 86.5179 53.9667H82.5507C81.7612 53.9667 81.1237 53.3305 81.1237 52.5497V48.607C81.1237 47.823 81.7644 47.1899 82.5507 47.1899H82.5475Z" fill="#1467AA"/>
<path d="M84.3143 52.0709L82.5895 50.5767C82.4472 50.4546 82.4342 50.2426 82.5572 50.1012C82.6801 49.9598 82.8937 49.9469 83.0361 50.069L84.256 51.1262L85.9969 49.1982C86.1231 49.0601 86.3367 49.0472 86.4758 49.1725C86.615 49.2979 86.6279 49.5099 86.5017 49.6481L84.3143 52.0709Z" fill="#F3F3F3"/>
<path d="M82.5475 55.8755H86.5179C87.3075 55.8755 87.9449 56.5117 87.9449 57.2925V61.2352C87.9449 62.0192 87.3042 62.6523 86.5179 62.6523H82.5475C81.7579 62.6523 81.1205 62.016 81.1205 61.2352V57.2958C81.1205 56.5117 81.7612 55.8787 82.5475 55.8787V55.8755Z" fill="#1467AA"/>
<path d="M53.6543 104.643C53.6543 104.643 53.308 105.417 53.0136 105.726C52.7191 106.034 51.5995 106.581 51.593 107.493C51.5865 108.483 53.4828 108.207 54.2238 108.171C54.9648 108.136 55.0198 107.606 55.3337 107.047C55.6443 106.487 55.9614 106.581 56.0197 106.131C56.0779 105.678 55.7802 104.669 55.7802 104.669L53.6543 104.643Z" fill="#131C24"/>
<path d="M53.6219 104.357L53.5669 104.826C53.5669 104.826 54.7318 105.215 55.8353 104.868L55.7738 104.225L53.6219 104.357Z" fill="#4F4946"/>
<path d="M67.3226 104.643C67.3226 104.643 67.6689 105.417 67.9633 105.726C68.2578 106.034 69.3774 106.581 69.3839 107.493C69.3904 108.483 67.4941 108.207 66.7531 108.171C66.0121 108.136 65.9571 107.606 65.6432 107.047C65.3326 106.487 65.0154 106.581 64.9572 106.131C64.899 105.678 65.1967 104.669 65.1967 104.669L67.3226 104.643Z" fill="#131C24"/>
<path d="M67.355 104.357L67.41 104.826C67.41 104.826 66.2451 105.215 65.1417 104.868L65.2031 104.225L67.355 104.357Z" fill="#4F4946"/>
<path d="M66.7434 91.8736C66.7434 93.0914 67.8889 104.225 67.8889 104.225C67.7562 104.63 64.9443 104.582 64.5042 104.38C64.0641 104.177 62.7892 93.1428 62.7083 91.9153C62.6274 90.6847 60.7959 79.9941 60.4108 80.0327C60.0257 80.0745 58.2007 91.533 57.8933 92.468C57.5859 93.4031 56.1912 104.486 56.1912 104.486C55.2269 105.013 52.9294 104.354 52.9294 104.354C52.9294 104.354 53.4116 92.9725 53.4666 92.6319C53.5475 92.1242 53.4633 90.7522 53.6866 87.7124C53.8872 84.9908 54.6088 79.0687 55.0651 75.8619C55.0813 75.7462 55.0975 75.637 55.1136 75.5341C55.2042 74.9108 55.2722 74.4513 55.3013 74.2328C55.3143 74.1364 55.324 74.0882 55.324 74.0882C55.4469 74.0368 55.5764 73.9886 55.7123 73.9436C58.9287 72.8736 65.0478 72.941 65.0478 72.941C65.0478 72.941 65.1319 74.0335 65.1384 74.085C65.1481 74.1492 65.1611 74.2488 65.1772 74.3806C65.2128 74.6633 65.2678 75.0843 65.3261 75.5727C65.3261 75.5759 65.3261 75.5791 65.3261 75.5823C65.3261 75.5984 65.3293 75.6113 65.3326 75.6273C65.5494 77.3689 65.8535 79.9138 65.8244 80.1805C65.7791 80.5886 66.7402 90.6622 66.7402 91.88L66.7434 91.8736Z" fill="#293E4F"/>
<path d="M67.1997 55.8112L65.6206 61.4376C65.5656 61.6207 65.5008 61.8457 65.4329 62.1059V62.1156C65.4329 62.1156 65.4296 62.1188 65.4296 62.122C65.1675 63.1246 64.8407 64.6541 64.7436 66.3539C64.6789 67.5107 64.8925 72.1667 64.8925 72.1667C64.8925 72.1667 62.5012 73.0535 58.9255 72.8286C58.9255 72.8286 55.078 72.7386 55.3919 70.3962C56.2203 64.1978 55.4113 61.64 55.3013 61.0199C55.3013 61.0199 54.8483 58.1633 54.4729 55.6409C55.557 55.2392 60.1131 53.5426 60.1131 53.5426L62.5076 53.7193C62.5076 53.7193 66.148 54.6094 67.1997 55.8112Z" fill="#D9C7C1"/>
<path d="M61.3136 45.5866C61.3136 45.5866 63.6531 45.9786 63.2551 49.6128C62.8571 53.247 60.7958 52.9257 60.6567 52.9225C60.5176 52.916 58.5825 52.9675 58.479 48.5203C58.479 48.5203 58.4498 45.2331 61.3136 45.5834V45.5866Z" fill="#EEA987"/>
<path d="M62.3394 51.8685C62.3394 51.8685 62.2585 53.3658 62.4009 53.6904C62.5432 54.0149 60.524 55.0464 59.2685 53.8735C59.2685 53.8735 59.5209 52.238 59.4433 51.6596C59.3656 51.0812 62.3394 51.8685 62.3394 51.8685Z" fill="#EEA987"/>
<path d="M63.3037 48.5845C63.3037 48.5845 63.5626 48.3146 63.6532 48.5909C63.7438 48.8673 63.239 50.0915 63.2713 50.1494C63.2713 50.1494 63.2228 50.2554 63.1613 50.1976C63.0998 50.1365 63.3037 48.5877 63.3037 48.5877V48.5845Z" fill="#EEA987"/>
<path d="M58.5049 48.4881C58.5049 48.4881 58.2557 48.2086 58.1554 48.4817C58.0518 48.7548 58.4272 49.9791 58.4725 50.053C58.4725 50.053 58.5534 50.1783 58.6149 50.1204C58.6796 50.0626 58.5049 48.4881 58.5049 48.4881Z" fill="#EEA987"/>
<path d="M63.4525 48.276C63.3716 48.7741 63.2972 49.1436 63.2972 49.1436L62.9574 49.5838C62.9574 49.5838 62.9769 48.607 62.9251 48.456C62.9057 48.3981 62.883 48.2953 62.8571 48.1829C62.8183 47.9997 62.7795 47.7908 62.7503 47.7234C62.705 47.6141 60.7473 47.0454 59 47.8423C59 47.8423 59.0161 47.9933 59.0129 48.1604C59.0129 48.3564 58.9902 48.5749 58.8996 48.607C58.7314 48.6681 58.8026 49.7477 58.8026 49.7477L58.5308 49.436C58.5308 49.436 58.4531 48.8705 58.3754 48.2214C58.3754 48.2214 58.3754 48.2214 58.3754 48.2182C58.3592 48.0672 58.3398 47.9097 58.3237 47.7555C58.2848 47.1032 58.3495 45.9175 59.2071 45.2202C59.7863 44.976 61.3654 44.7286 62.2456 45.2331C62.2456 45.2331 62.718 45.5255 62.8151 45.6187C63.7729 46.6662 63.4525 48.276 63.4525 48.276Z" fill="#E8734D"/>
<path d="M59.605 52.4372C59.605 52.4372 59.9772 52.9513 60.8444 52.932C61.7116 52.9127 62.087 52.4629 62.087 52.4629C62.087 52.4629 61.676 53.3144 60.8379 53.3048C59.9998 53.2951 59.6018 52.434 59.6018 52.434L59.605 52.4372Z" fill="#C78D71"/>
<path d="M59.0291 53.9025C59.0291 53.9025 59.6568 54.9853 60.8444 55.0882C61.5983 55.1524 62.2455 54.2013 62.5529 53.7354C62.5529 53.7354 60.8703 53.0188 59.0291 53.9025Z" fill="#EEA987"/>
<path d="M62.3426 53.3948C62.3426 53.3948 61.8637 54.0181 60.8476 54.6833L61.4819 55.6537L62.5626 53.7322L62.3458 53.398L62.3426 53.3948Z" fill="#EDDAD3"/>
<path d="M59.3171 53.5393C59.3171 53.5393 59.9254 54.2976 60.8476 54.6832L60.1519 55.6826L58.9449 53.9795L59.3171 53.5425V53.5393Z" fill="#EDDAD3"/>
<path d="M60.8444 54.6832L61.388 55.5026C61.388 55.5026 60.8185 55.8239 60.2878 55.4833L60.8444 54.6832Z" fill="#5073AB"/>
<path d="M55.2625 73.2496C55.2625 73.2496 58.1974 74.3228 64.831 73.3138L64.7436 72.1217C64.7436 72.1217 60.8962 73.2496 55.379 72.2824L55.2625 73.2496Z" fill="#1A2833"/>
<path d="M62.5594 53.7322C62.5594 53.7322 61.8734 58.8284 61.9673 63.2177C62.0611 67.6071 63.4978 75.8394 63.4978 75.8394C63.4978 75.8394 66.0574 75.592 66.6917 74.7951C66.6917 74.7951 65.2226 66.8744 65.2646 65.6984C65.3067 64.5255 67.1479 55.6955 67.1479 55.6955C67.1479 55.6955 66.4295 54.7444 62.5627 53.7322H62.5594Z" fill="#385369"/>
<path d="M58.8867 53.9989C58.8867 53.9989 58.8802 58.8284 58.7864 63.2178C58.6925 67.6071 58.1101 75.7784 58.1101 75.7784C58.1101 75.7784 55.1072 75.3542 54.4729 74.5606C54.4729 74.5606 55.5311 66.8744 55.489 65.6984C55.4469 64.5256 54.1332 55.7823 54.1332 55.7823C54.1332 55.7823 54.5894 55.1364 58.8867 53.9989Z" fill="#385369"/>
<path d="M61.0644 72.488H59.2621V73.8183H61.0644V72.488Z" fill="#3E5E78"/>
<path d="M60.592 55.297C60.592 55.297 59.7863 58.0251 59.7151 63.4458C59.6439 68.8666 59.8154 70.4186 59.8154 70.4186L60.4432 71.6525L61.2813 70.364C61.2813 70.364 61.0127 57.8933 61.168 55.3902L60.592 55.297Z" fill="#5073AB"/>
<path d="M63.9509 62.9221C63.9509 62.9221 65.1417 62.3276 65.3067 62.2216C65.4717 62.1155 67.4618 61.8231 67.7142 61.8328C67.9666 61.8424 67.9763 62.0384 67.9051 62.1091C67.8339 62.1798 65.8439 62.5043 65.8115 62.5525C65.7759 62.6007 65.9798 62.5814 65.9798 62.5814C65.9798 62.5814 68.1252 62.5493 68.274 62.6907C68.4229 62.8321 68.2514 62.967 68.164 63.0024C68.164 63.0024 68.3581 63.2241 68.1349 63.3173C67.9084 63.4105 67.6042 63.4683 67.6042 63.4683C67.6042 63.4683 67.8889 63.6129 67.7013 63.7414C67.5136 63.87 65.242 64.5705 65.242 64.5705C65.242 64.5705 64.3974 62.967 63.9509 62.9221Z" fill="#EEA886"/>
<path d="M68.0475 67.0029C66.4975 67.3692 62.9186 66.7747 61.5563 66.4759C61.2683 66.4116 60.9415 66.3474 60.605 66.2799C60.0484 66.1706 59.4659 66.0646 58.9935 65.9811C58.411 65.8782 57.9968 65.8075 57.9968 65.8075C57.9968 65.8075 65.5106 64.1302 65.7856 64.1302C66.0607 64.1302 65.0931 59.7698 65.0931 59.7698C65.0931 59.7698 64.1256 56.1163 64.6272 54.6832C64.6272 54.6832 66.5331 55.2584 67.1512 55.6954C67.4942 55.9396 67.7498 57.5238 67.9828 58.6002C68.2805 59.9658 68.9697 63.0731 69.0474 63.7318C69.1186 64.3294 69.6007 66.6366 68.0507 67.0029H68.0475Z" fill="#385369"/>
<path d="M56.5504 54.6994C56.5504 54.6994 54.2432 55.4834 54.1332 55.779C53.6672 57.0386 53.4504 58.4139 53.2983 58.9666C53.1139 59.6414 52.6964 61.6561 52.5896 62.3116C52.4537 63.1503 52.1884 66.1193 52.3049 66.5756C52.4505 67.154 53.8225 67.1122 54.5603 66.9965C55.3013 66.8809 65.5785 64.397 65.5785 64.397C65.5785 64.397 64.9928 62.498 64.9637 62.3309C64.9637 62.3309 57.039 63.2306 56.0294 63.4427C55.4534 63.5648 55.3272 63.613 55.3272 63.613C55.3272 63.613 57.0746 56.4924 56.5504 54.6962V54.6994Z" fill="#385369"/>
<path d="M57.9159 63.2017C57.9159 63.2017 56.8804 62.3662 56.7445 62.2281C56.6054 62.0899 54.7253 61.3798 54.4794 61.3316C54.2335 61.2866 54.1914 61.4826 54.2108 61.579C54.2432 61.7493 56.1621 62.3887 56.1847 62.4401C56.2074 62.4948 56.0132 62.4337 56.0132 62.4337C56.0132 62.4337 53.9261 61.9421 53.7481 62.0513C53.5701 62.1574 53.7093 62.3277 53.7869 62.3791C53.7869 62.3791 53.5475 62.5558 53.7481 62.694C53.9487 62.8322 54.2335 62.9543 54.2335 62.9543C54.2335 62.9543 53.9261 63.0346 54.0781 63.2017C54.2335 63.3688 55.3304 63.6162 55.3304 63.6162C55.3304 63.6162 57.4726 63.1503 57.9191 63.2017H57.9159Z" fill="#EEA886"/>
<path d="M64.0868 64.7601L60.6017 66.28C60.0451 66.1708 59.4627 66.0647 58.9902 65.9812L64.09 64.7601H64.0868Z" fill="#263947"/>
<path d="M62.4073 45.5608C62.4073 45.5608 62.9866 45.2716 63.3005 45.6508C63.6143 46.03 63.6467 48.0993 63.2649 48.893C62.883 49.6867 63.3263 46.075 62.4073 45.5608Z" fill="#E8734D"/>
<path d="M40.3256 66.0679H39.2869V112.901H40.3256V66.0679Z" fill="#706865"/>
<path d="M13.8723 46.5056H41.785C43.5033 46.5056 44.8979 47.8905 44.8979 49.5968V102.079C44.8979 103.785 43.5033 105.17 41.785 105.17H13.8723C12.154 105.17 10.7593 103.785 10.7593 102.079V49.5968C10.7593 47.8905 12.154 46.5056 13.8723 46.5056Z" fill="#BDAFAA"/>
<path d="M40.8822 47.4503H14.7718C13.0723 47.4503 11.6945 48.8184 11.6945 50.5061V99.8233C11.6945 101.511 13.0723 102.879 14.7718 102.879H40.8822C42.5818 102.879 43.9595 101.511 43.9595 99.8233V50.5061C43.9595 48.8184 42.5818 47.4503 40.8822 47.4503Z" fill="white"/>
<path d="M32.9155 46.059H22.7418V48.3404H32.9155V46.059Z" fill="#706865"/>
<path d="M37.7499 100.662H17.0952C15.4222 100.662 14.0599 99.3092 14.0599 97.6479V85.9741C14.0599 84.3129 15.4222 82.9601 17.0952 82.9601H37.7499C39.4228 82.9601 40.7851 84.3129 40.7851 85.9741V97.6479C40.7851 99.3092 39.4228 100.662 37.7499 100.662ZM17.0952 83.3489C15.639 83.3489 14.4515 84.5282 14.4515 85.9741V97.6479C14.4515 99.0939 15.6358 100.273 17.0952 100.273H37.7499C39.206 100.273 40.3936 99.0971 40.3936 97.6479V85.9741C40.3936 84.5282 39.2093 83.3489 37.7499 83.3489H17.0952Z" fill="#B5DEFF"/>
<path d="M19.2179 72.4237C19.2179 72.4237 19.2179 72.4237 19.2147 72.4237C19.234 72.4333 19.2372 72.4333 19.2179 72.4237Z" fill="#323657"/>
<path d="M37.1544 71.1609C35.297 71.1609 33.7891 69.6603 33.7891 67.8191C33.7891 65.9779 35.3003 64.4773 37.1544 64.4773C39.0086 64.4773 40.5198 65.9779 40.5198 67.8191C40.5198 69.6603 39.0086 71.1609 37.1544 71.1609ZM37.1544 64.8661C35.5139 64.8661 34.1807 66.19 34.1807 67.8191C34.1807 69.4482 35.5139 70.7721 37.1544 70.7721C38.795 70.7721 40.1282 69.4482 40.1282 67.8191C40.1282 66.19 38.795 64.8661 37.1544 64.8661Z" fill="#B5DEFF"/>
<path d="M37.1544 78.8631C35.297 78.8631 33.7891 77.3626 33.7891 75.5214C33.7891 73.6802 35.3003 72.1796 37.1544 72.1796C39.0086 72.1796 40.5198 73.6802 40.5198 75.5214C40.5198 77.3626 39.0086 78.8631 37.1544 78.8631ZM37.1544 72.5684C35.5139 72.5684 34.1807 73.8922 34.1807 75.5214C34.1807 77.1505 35.5139 78.4743 37.1544 78.4743C38.795 78.4743 40.1282 77.1505 40.1282 75.5214C40.1282 73.8922 38.795 72.5684 37.1544 72.5684Z" fill="#B5DEFF"/>
<path d="M21.9846 67.9702C21.7063 67.9702 21.4248 67.9573 21.1498 67.9316C20.8424 67.9027 20.5382 67.8577 20.2437 67.7967C18.9591 67.5364 17.7262 66.9805 16.681 66.1804C16.3704 65.9458 16.0759 65.6855 15.8009 65.4124C15.7458 65.3546 15.6908 65.2999 15.6423 65.2485C15.4481 65.0461 15.2637 64.8308 15.089 64.6059C13.8981 63.0796 13.2704 61.248 13.2704 59.3136C13.2704 54.5387 17.1826 50.6571 21.9879 50.6571V51.0459C17.3961 51.0459 13.6587 54.754 13.6587 59.3169C13.6587 61.1645 14.2606 62.9157 15.3964 64.3713C15.5614 64.5866 15.7394 64.7923 15.9238 64.9851C15.9691 65.0365 16.0209 65.0879 16.0759 65.1425C16.338 65.406 16.6195 65.6534 16.9172 65.8783C17.9139 66.6399 19.0917 67.1733 20.3214 67.4207C20.6029 67.4785 20.8941 67.5203 21.1886 67.5492C21.4539 67.5749 21.7225 67.5878 21.9879 67.5878C22.0849 67.5878 22.1755 67.5878 22.2597 67.5846C22.5121 67.5749 22.7645 67.5589 23.0104 67.5267C24.3695 67.3629 25.68 66.8584 26.7964 66.0711C26.9129 65.9876 27.0294 65.9008 27.1394 65.8173C27.2332 65.7434 27.3336 65.663 27.4306 65.5763C27.7639 65.2903 28.0778 64.9754 28.3626 64.6412C29.6213 63.1567 30.3138 61.2673 30.3138 59.3201C30.3138 58.9152 30.2847 58.5039 30.2232 58.1055L30.6115 58.0476C30.673 58.4653 30.7053 58.8927 30.7053 59.3169C30.7053 61.3541 29.9805 63.3302 28.6635 64.8854C28.3658 65.2357 28.039 65.5666 27.6895 65.8655C27.586 65.9555 27.4824 66.039 27.3821 66.1161C27.2688 66.2061 27.1459 66.2961 27.0229 66.3828C25.8515 67.2086 24.4795 67.7356 23.0557 67.9091C22.8001 67.9413 22.5347 67.9605 22.2726 67.9702C22.182 67.9702 22.0882 67.9734 21.9879 67.9734L21.9846 67.9702Z" fill="#B5DEFF"/>
<path d="M28.0681 63.8957C28.039 63.8571 28.0098 63.825 27.984 63.8025C27.9742 63.7897 27.9613 63.78 27.9386 63.7672C27.9386 63.7672 27.9322 63.7672 27.9322 63.7607C26.3078 62.8675 23.3728 62.1413 23.3728 62.1413C23.2887 61.9485 23.2951 61.2737 23.3081 60.872C23.6123 60.5218 23.8873 59.9723 24.0426 59.1176C24.0912 59.1529 24.13 59.0694 24.13 59.0694C24.1041 59.0212 24.541 57.9576 24.4633 57.7166C24.418 57.5816 24.3274 57.5977 24.2562 57.6363C24.2659 57.5752 24.2789 57.511 24.2886 57.4435C24.2886 57.4435 24.4633 55.8143 23.6317 54.905C23.5475 54.8214 23.2401 54.8022 23.2401 54.8022C21.907 54.3973 21.1045 54.5772 20.6029 54.7893C19.8586 55.3934 19.8036 56.4217 19.836 56.9904C19.8522 57.1254 19.8651 57.2603 19.8813 57.3921V57.3953C19.8878 57.4467 19.8942 57.4981 19.9007 57.5495C19.8328 57.5077 19.7389 57.4885 19.6904 57.6202C19.603 57.858 19.9266 58.9184 19.9654 58.9826C19.9654 58.9826 20.0366 59.0919 20.0916 59.0437C20.2437 59.9755 20.522 60.5507 20.8132 60.9042C20.7841 61.4279 20.6903 62.0834 20.6644 62.2569C19.9816 62.469 16.5645 63.3719 15.5323 64.0467C15.4384 64.1046 15.3413 64.2588 15.2475 64.4869C15.4158 64.7054 15.597 64.9143 15.7879 65.1167C15.8397 65.1714 15.8914 65.2228 15.9432 65.2774C16.2118 65.5473 16.4998 65.798 16.804 66.0293C17.8103 66.7973 18.9979 67.3467 20.289 67.607C20.5802 67.6649 20.8747 67.7098 21.1756 67.7388C21.4442 67.7645 21.716 67.7773 21.9943 67.7773C22.0882 67.7773 22.182 67.7773 22.2726 67.7741C22.5315 67.7645 22.7871 67.7452 23.0395 67.7163C24.473 67.5428 25.7933 67.0158 26.9161 66.2253C27.0358 66.1418 27.1523 66.055 27.2656 65.965C27.3659 65.8847 27.4662 65.8044 27.5633 65.7208C27.9063 65.4252 28.2234 65.1071 28.5146 64.7633C28.3528 64.3745 28.204 64.0724 28.0713 63.9021L28.0681 63.8957Z" fill="#B5DEFF"/>
<path d="M119.498 83.3713H129.597V82.7769H119.498V83.3713Z" fill="#E2D2CA"/>
<path d="M128.241 84.9202H127.358V111.992H128.241V84.9202Z" fill="#706865"/>
<path d="M114.062 83.4581H121.08V82.6066H114.062V83.4581Z" fill="#CCBDB7"/>
<path d="M116.243 83.3713H118.899V75.3542H116.243V83.3713Z" fill="#4667A8"/>
<path d="M94.3261 84.9202H133.221V83.381H94.3261V84.9202Z" fill="#B59074"/>
<path d="M140.687 74.0658C140.687 74.0658 141.111 79.9878 139.946 80.698C139.214 81.1414 136.305 82.6388 136.389 82.9216C136.477 83.2011 138.033 85.4215 138.033 85.4215C138.033 85.4215 143.625 81.7648 143.806 80.6112C143.981 79.4866 143.531 71.9386 142.761 71.5884C142.185 71.3281 141.881 71.5434 141.156 72.08C140.137 72.8287 140.683 74.0658 140.683 74.0658H140.687Z" fill="#323657"/>
<path d="M130.494 75.756L130.002 75.576C130.002 75.576 130.617 74.1429 130.885 74.1783C131.196 74.2168 131.581 74.3196 131.581 74.3196L130.497 75.756H130.494Z" fill="#EAD8CF"/>
<path d="M130.38 76.0033C130.442 75.9583 131.429 74.0818 131.429 74.0818L133.532 74.3646L132.396 76.5849L130.38 76.0001V76.0033Z" fill="#DA9B5B"/>
<path d="M133.804 108.297C133.804 108.297 133.979 109.495 134.001 109.675C134.024 109.855 135.936 109.569 135.936 109.569L136.092 108.142C136.092 108.142 134.047 108.126 133.807 108.297H133.804Z" fill="#424773"/>
<path d="M133.979 109.524C133.979 109.524 133.374 110.247 132.788 110.562C132.202 110.877 131.28 111.002 130.934 111.327C130.685 111.561 130.021 112.574 132.458 112.554C134.891 112.535 136.066 112.699 136.328 112.31C136.59 111.921 135.949 109.444 135.949 109.444C135.949 109.444 135.373 109.649 133.982 109.524H133.979Z" fill="#292C47"/>
<path d="M121.55 108.31C121.55 108.31 121.724 109.508 121.744 109.688C121.766 109.868 123.679 109.582 123.679 109.582L123.834 108.155C123.834 108.155 121.789 108.139 121.55 108.31Z" fill="#424773"/>
<path d="M121.724 109.537C121.724 109.537 121.119 110.26 120.534 110.575C119.948 110.89 117.79 111.15 117.443 111.475C117.194 111.709 116.777 112.657 120.204 112.567C122.637 112.503 123.812 112.712 124.074 112.323C124.336 111.934 123.695 109.457 123.695 109.457C123.695 109.457 123.151 109.678 121.728 109.537H121.724Z" fill="#292C47"/>
<path d="M139.975 87.5936C139.975 87.5936 133.021 88.7633 131.451 89.0075C129.882 89.2517 121.365 91.3564 120.301 91.999C119.453 92.5099 120.744 104.769 121.048 109.444H124.404L124.646 95.4147C128.672 95.5143 131.545 94.4797 134.474 94.9231C137.405 95.3665 139.849 95.9931 141.712 93.5125C141.712 93.5125 141.78 88.1367 139.978 87.5968L139.975 87.5936Z" fill="#292C47"/>
<path d="M133.121 109.453L136.389 109.254L136.707 95.4147C138.438 95.4565 139.033 95.3472 140.434 95.1801L143.075 89.0878C140.761 89.5473 133.351 91.4045 132.364 91.999C131.516 92.5099 132.817 104.778 133.121 109.457V109.453Z" fill="#292C47"/>
<path d="M136.771 61.7075C136.771 61.7075 134.221 61.0071 133.251 62.9736C132.277 64.9401 132.72 68.6643 134.005 69.0145C135.289 69.3648 137.137 68.9631 137.671 67.7388C138.205 66.5146 138.629 64.7794 138.502 63.6516C138.376 62.5269 137.451 61.9775 136.774 61.7075H136.771Z" fill="#EEA886"/>
<path d="M134.671 68.6225C134.671 68.6225 134.7 70.1167 134.532 70.4348C134.367 70.7529 138.082 70.6726 138.082 70.6726C138.082 70.6726 137.496 68.8796 137.829 67.3501C138.159 65.8366 134.671 68.6225 134.671 68.6225Z" fill="#EEA886"/>
<path d="M138.03 66.7845C138.03 66.7845 137.833 67.1862 136.868 67.1219C135.907 67.0576 134.639 65.9041 134.231 65.8013C133.823 65.6984 133.797 65.4671 133.797 65.4671L133.581 65.8495L133.163 65.9137C133.163 65.9137 133.448 64.7602 132.827 64.3521C132.209 63.944 133.105 60.6697 136.241 61.4601C136.241 61.4601 138.635 61.8939 138.667 63.2242C138.7 64.5513 138.493 66.084 138.027 66.7877L138.03 66.7845Z" fill="#3A3F47"/>
<path d="M134.338 70.3994C134.338 70.3994 134.348 69.7921 134.626 69.731C134.904 69.6732 137.548 69.3133 137.888 69.445L138.033 70.2484C138.033 70.2484 137.376 70.65 134.338 70.3994Z" fill="#E2D2CA"/>
<path d="M133.571 65.1972C133.642 64.6991 134.215 64.1239 134.542 64.9016C134.869 65.6792 134.322 66.8102 133.953 66.7492C133.587 66.6881 133.474 65.872 133.571 65.1972Z" fill="#EEA886"/>
<path d="M123.268 77.5907C123.268 77.5907 123.268 77.5907 123.271 77.5907C123.252 77.6003 123.248 77.6003 123.268 77.5907Z" fill="#323657"/>
<path d="M137.516 62.0642C137.516 62.0642 140.625 61.9196 138.059 66.7363L137.516 62.0642Z" fill="#3A3F47"/>
<path d="M144.44 111.095L144.211 111.741L134.441 108.737L134.911 107.429L144.44 111.095Z" fill="#918783"/>
<path d="M134.108 108.274H135.218V97.7282H134.108V108.274Z" fill="#918783"/>
<path d="M131.387 97.7893H137.936V97.1691H131.387V97.7893Z" fill="#5E5854"/>
<path d="M124.795 111.095L125.025 111.741L134.794 108.737L134.367 107.346L124.795 111.095Z" fill="#918783"/>
<path d="M131.678 111.674V112.423L134.794 108.737L134.367 107.346L131.678 111.674Z" fill="#918783"/>
<path d="M123.883 111.995C123.883 112.496 124.29 112.901 124.795 112.901C125.3 112.901 125.708 112.496 125.708 111.995C125.708 111.494 125.3 111.089 124.795 111.089C124.29 111.089 123.883 111.494 123.883 111.995Z" fill="#BFB2AC"/>
<path d="M131.6 111.995C131.6 112.496 132.008 112.901 132.513 112.901C133.018 112.901 133.425 112.496 133.425 111.995C133.425 111.494 133.018 111.089 132.513 111.089C132.008 111.089 131.6 111.494 131.6 111.995Z" fill="#BFB2AC"/>
<path d="M143.528 111.995C143.528 112.496 143.935 112.901 144.44 112.901C144.945 112.901 145.353 112.496 145.353 111.995C145.353 111.494 144.945 111.089 144.44 111.089C143.935 111.089 143.528 111.494 143.528 111.995Z" fill="#BFB2AC"/>
<path d="M141.204 97.1692H128.031C127.384 97.1692 126.86 96.6486 126.86 96.006V95.9771C126.86 95.3344 127.384 94.8139 128.031 94.8139H141.208C141.855 94.8139 142.379 95.3344 142.379 95.9771V96.006C142.379 96.6486 141.855 97.1692 141.208 97.1692H141.204Z" fill="#E2D2CA"/>
<path d="M99.2997 111.995H100.186V84.9234H99.2997V111.995Z" fill="#706865"/>
<path d="M127.879 79.2167H107.26C106.616 79.2167 106.092 78.6961 106.092 78.0567V64.2943C106.092 63.6548 106.616 63.1343 107.26 63.1343H127.879C128.523 63.1343 129.047 63.6548 129.047 64.2943V78.0567C129.047 78.6961 128.523 79.2167 127.879 79.2167Z" fill="#5F8BE3"/>
<path d="M106.991 76.6974H128.148V64.0082H106.991V76.6974Z" fill="#F5F7FF"/>
<path d="M106.991 65.0172H128.148V64.0082H106.991V65.0172Z" fill="#CECFD6"/>
<path d="M108.496 75.9166H109.603C110.001 75.9166 110.324 75.5958 110.324 75.2001V66.4921C110.324 66.0964 110.001 65.7756 109.603 65.7756H108.496C108.098 65.7756 107.774 66.0964 107.774 66.4921V75.2001C107.774 75.5958 108.098 75.9166 108.496 75.9166Z" fill="#CECFD6"/>
<path d="M127.157 66.7139H123.284C123.067 66.7139 122.893 66.5403 122.893 66.3251V66.1612C122.893 65.9459 123.067 65.7724 123.284 65.7724H127.157C127.374 65.7724 127.549 65.9459 127.549 66.1612V66.3251C127.549 66.5403 127.374 66.7139 127.157 66.7139Z" fill="#CECFD6"/>
<path d="M126.743 76.1737H123.701C123.258 76.1737 122.896 75.8138 122.896 75.3736V68.1438C122.896 67.7035 123.258 67.3437 123.701 67.3437H126.743C127.187 67.3437 127.549 67.7035 127.549 68.1438V75.3736C127.549 75.8138 127.187 76.1737 126.743 76.1737Z" fill="#CECFD6"/>
<path d="M116.828 77.9153C116.828 78.3201 117.159 78.6511 117.569 78.6511C117.98 78.6511 118.311 78.3234 118.311 77.9153C118.311 77.5072 117.98 77.1794 117.569 77.1794C117.159 77.1794 116.828 77.5072 116.828 77.9153Z" fill="#59524F"/>
<path d="M112.816 83.4035V83.1176C112.816 83.1176 113.22 81.3374 116.087 81.3374C118.954 81.3374 118.896 83.4035 118.896 83.4035H112.819H112.816Z" fill="#314875"/>
<path d="M118.932 81.6009C118.932 81.6009 118.31 81.5527 118.081 81.4145C117.854 81.2795 116.489 80.367 116.168 80.5116C115.848 80.6562 113.716 81.3053 113.79 81.6169C113.864 81.9254 114.062 81.8965 114.211 81.8419C114.359 81.7872 115.909 81.4627 116.045 81.5173C116.045 81.5173 114.525 82.07 114.518 82.4717C114.512 82.8733 114.835 82.9729 114.981 83.124C115.126 83.275 115.298 83.6541 115.689 83.6831C116.081 83.712 117.993 83.0501 118.388 83.0211C118.783 82.9922 119.511 83.0468 119.56 82.9826C119.608 82.9183 118.929 81.6009 118.929 81.6009H118.932Z" fill="#EEA886"/>
<path d="M130.264 71.2413C132.247 70.8943 134.338 70.3994 134.338 70.3994L138.033 70.2484C138.033 70.2484 141.424 70.9907 142.761 71.5883C142.887 71.6462 142.887 74.5927 143.237 75.3671L142.13 77.6871C142.13 77.6871 141.489 82.2853 141.357 84.3289C141.295 85.2672 141.528 93.4 141.528 93.4C141.528 93.4 141.195 93.5639 138.674 93.8402C136.15 94.1165 129.846 93.7406 129.808 93.445C129.769 93.1493 131.028 82.4267 131.086 81.8708C131.17 81.0193 130.837 77.0798 130.837 77.0798C130.361 77.7128 129.151 80.5758 127.886 81.9383C127.141 82.7384 123.462 83.23 122.77 83.2525C121.262 83.3039 118.508 83.5995 118.427 83.4549C118.362 83.3682 118.188 81.0289 118.359 80.9711C118.511 80.9197 123.624 80.6273 124.934 79.9396C125.413 79.6858 126.847 76.585 126.847 76.585C126.847 76.585 129.167 71.7297 130.264 71.2413Z" fill="#323657"/>
<path d="M143.754 93.1654H137.548C136.309 93.1654 135.302 92.166 135.302 90.9354V80.6818C135.302 79.4512 136.309 78.4518 137.548 78.4518H143.754C144.994 78.4518 146 79.4512 146 80.6818V90.9354C146 92.166 144.994 93.1686 143.751 93.1686L143.754 93.1654Z" fill="#E2D2CA"/>
<path d="M137.198 96.5811C138.774 96.5811 140.056 96.0541 141.001 95.0162C143.139 92.6705 142.754 88.5479 142.738 88.3744C142.706 88.0499 142.415 87.8121 142.088 87.8442C141.761 87.8764 141.522 88.1655 141.554 88.4901C141.557 88.5383 141.9 92.2721 140.117 94.2225C139.396 95.013 138.441 95.3954 137.198 95.3954C136.868 95.3954 136.603 95.6589 136.603 95.9866C136.603 96.3144 136.868 96.5779 137.198 96.5779V96.5811Z" fill="#E2D2CA"/>
<path d="M117.877 69.1945C117.877 70.8268 116.547 72.1603 114.89 72.1603C113.233 72.1603 111.9 70.8332 111.9 69.1945C111.9 67.5557 113.237 66.2286 114.89 66.2286C116.544 66.2286 117.877 67.5557 117.877 69.1945Z" fill="#EEF0F7"/>
<path d="M116.835 70.8301L116.615 71.6141C116.223 71.8905 115.757 72.0768 115.256 72.1379C115.168 72.1475 115.078 72.1572 114.987 72.1572C114.955 72.1572 114.923 72.1572 114.89 72.1572C114.793 72.1572 114.699 72.154 114.602 72.1443C114.495 72.1347 114.392 72.1186 114.292 72.0993C113.839 72.0094 113.424 71.8166 113.072 71.5467C113.03 71.2864 112.984 71.0004 112.945 70.7305C113.165 70.6502 113.864 70.4124 114.304 70.2646C114.311 70.2646 114.317 70.2613 114.324 70.2581C114.334 70.2549 114.343 70.2517 114.353 70.2485C114.379 70.2389 114.405 70.2324 114.427 70.2228C114.45 70.2131 114.476 70.2067 114.495 70.2003C114.586 70.1714 114.651 70.1489 114.673 70.1425H114.683H114.69L115.282 70.1874L115.382 70.1939H115.414C115.414 70.1939 115.418 70.1971 115.427 70.2003C115.463 70.2099 115.566 70.2356 115.706 70.2774C116.058 70.3835 116.628 70.5859 116.841 70.8333L116.835 70.8301Z" fill="#D9C7C1"/>
<path d="M115.042 67.7196C115.042 67.7196 115.754 67.8385 115.634 68.9438C115.515 70.0492 114.887 69.9528 114.845 69.9496C114.803 69.9496 114.214 69.9624 114.182 68.6097C114.182 68.6097 114.172 67.6103 115.045 67.7164L115.042 67.7196Z" fill="#EEA987"/>
<path d="M115.356 69.6315C115.356 69.6315 115.33 70.0878 115.376 70.1841C115.418 70.2838 114.806 70.5954 114.421 70.2388C114.421 70.2388 114.499 69.7407 114.473 69.5672C114.45 69.3905 115.353 69.6315 115.353 69.6315H115.356Z" fill="#EEA987"/>
<path d="M115.647 68.6323C115.647 68.6323 115.725 68.5519 115.754 68.6323C115.783 68.7158 115.628 69.0885 115.638 69.1046C115.638 69.1046 115.625 69.1367 115.605 69.1175C115.586 69.0982 115.647 68.6258 115.647 68.6258V68.6323Z" fill="#EEA987"/>
<path d="M114.188 68.6033C114.188 68.6033 114.114 68.5165 114.081 68.6033C114.049 68.6868 114.165 69.0595 114.178 69.082C114.178 69.082 114.204 69.1206 114.22 69.1045C114.24 69.0885 114.188 68.6065 114.188 68.6065V68.6033Z" fill="#EEA987"/>
<path d="M115.696 68.539C115.67 68.69 115.647 68.8025 115.647 68.8025L115.544 68.9375C115.544 68.9375 115.55 68.6418 115.534 68.5936C115.528 68.5744 115.521 68.5455 115.515 68.5101C115.502 68.4555 115.489 68.3912 115.482 68.3687C115.469 68.3366 114.874 68.1631 114.34 68.4041C114.34 68.4041 114.343 68.449 114.343 68.5005C114.343 68.5583 114.337 68.6258 114.308 68.6354C114.256 68.6547 114.279 68.9824 114.279 68.9824L114.194 68.8893C114.194 68.8893 114.172 68.719 114.146 68.5197C114.139 68.4715 114.136 68.4266 114.13 68.3784C114.117 68.1791 114.136 67.8192 114.398 67.6072C114.573 67.5333 114.855 67.469 115.324 67.6104C115.324 67.6104 115.431 67.6168 115.46 67.6457C115.751 67.9638 115.689 68.5358 115.689 68.5358L115.696 68.539Z" fill="#E8734D"/>
<path d="M114.521 69.8051C114.521 69.8051 114.635 69.9625 114.9 69.9561C115.162 69.9497 115.278 69.8147 115.278 69.8147C115.278 69.8147 115.152 70.075 114.9 70.0718C114.644 70.0718 114.525 69.8083 114.525 69.8083L114.521 69.8051Z" fill="#C78D71"/>
<path d="M114.35 70.2517C114.35 70.2517 114.541 70.5827 114.903 70.6116C115.133 70.6309 115.33 70.3417 115.424 70.2003C115.424 70.2003 114.91 69.9818 114.35 70.2517Z" fill="#EEA987"/>
<path d="M115.356 70.0942C115.356 70.0942 115.211 70.2838 114.9 70.4863L115.094 70.7819L115.424 70.2003L115.359 70.0974L115.356 70.0942Z" fill="#EDDAD3"/>
<path d="M114.434 70.1393C114.434 70.1393 114.618 70.3706 114.9 70.4863L114.69 70.7884L114.321 70.2582L114.437 70.1393H114.434Z" fill="#EDDAD3"/>
<path d="M114.9 70.4862L115.065 70.7368C115.065 70.7368 114.89 70.8332 114.732 70.7304L114.9 70.4862Z" fill="#5073AB"/>
<path d="M117.026 70.785C117.026 70.785 117.026 70.7915 117.023 70.8011C117.003 70.8654 116.935 71.1128 116.845 71.4406C116.809 71.4695 116.777 71.4984 116.741 71.5273C116.702 71.5594 116.66 71.5884 116.618 71.6205C116.227 71.8968 115.761 72.0832 115.259 72.1443C115.304 71.116 115.427 70.2067 115.427 70.2067C115.524 70.2324 115.615 70.2581 115.702 70.2806C116.46 70.4959 116.845 70.6854 116.977 70.7593C117.013 70.7786 117.029 70.7883 117.029 70.7883L117.026 70.785Z" fill="#323657"/>
<path d="M114.292 72.1026C113.839 72.0126 113.424 71.8198 113.072 71.5499C112.965 71.4695 112.865 71.3796 112.771 71.2864C112.751 71.2671 112.735 71.2478 112.716 71.2318C112.664 71.01 112.628 70.8687 112.625 70.859C112.625 70.859 112.994 70.618 114.301 70.271C114.301 70.2999 114.301 71.1354 114.292 72.1058V72.1026Z" fill="#323657"/>
<path d="M114.994 70.7658C114.981 71.0357 114.981 71.5626 114.984 72.1603C114.952 72.1603 114.919 72.1603 114.887 72.1603C114.79 72.1603 114.696 72.1571 114.599 72.1475C114.657 71.4084 114.754 70.9457 114.796 70.7658C114.809 70.7047 114.819 70.6758 114.819 70.6758L114.994 70.7047C114.994 70.724 114.994 70.7433 114.99 70.7658H114.994Z" fill="#5073AB"/>
<path d="M117.175 71.1032C117.071 71.2253 116.961 71.3378 116.841 71.4406C116.806 71.4695 116.773 71.4985 116.738 71.5274C116.738 71.5242 116.909 71.0293 117.026 70.7883C117.104 70.8397 117.139 71.0197 117.178 71.1064L117.175 71.1032Z" fill="#323657"/>
<path d="M112.767 71.2831C112.748 71.2638 112.732 71.2446 112.712 71.2285C112.644 71.1578 112.583 71.0839 112.521 71.0068C112.554 70.9264 112.589 70.8718 112.622 70.8525L112.764 71.2831H112.767Z" fill="#323657"/>
<path d="M92.6888 106.909C92.6888 106.909 92.3004 106.276 91.7665 106.031C91.2326 105.784 90.1389 106.645 90.0418 107.124L88.7733 108.962L89.0128 109.126L89.6891 108.146C89.2296 109.248 88.5695 110.565 89.0322 111.23C89.6535 112.12 91.0611 113.02 91.4332 112.866C91.8054 112.712 91.7309 110.122 91.7309 110.122C91.3297 107.837 92.6888 106.915 92.6888 106.915V106.909Z" fill="#1D3B54"/>
<path d="M92.6888 106.908C92.6888 106.908 92.226 107.792 91.9898 108.477C91.7536 109.161 91.7083 111.06 91.5594 111.192C91.4106 111.323 90.2295 110.732 90.0709 110.022C89.9124 109.312 90.3913 107.895 90.8475 107.149C91.3038 106.404 91.7665 106.031 91.7665 106.031C91.7665 106.031 92.5723 106.185 92.6888 106.908Z" fill="#DE9673"/>
<path d="M97.2449 90.2799C97.2449 90.2799 96.5233 94.0908 96.5233 95.0002C96.5233 95.9095 96.2741 97.4005 95.6884 98.5059C95.106 99.6112 92.5431 107.153 92.3199 108.033C92.0966 108.91 91.9057 109.743 91.9057 109.743C91.9057 109.743 90.6275 109.164 90.6275 108.335C90.6275 107.506 91.7406 100.662 91.9348 99.3092C92.1289 97.9564 93.7404 91.0286 93.7404 91.0286L97.2449 90.2831V90.2799Z" fill="#DE9673"/>
<path d="M93.158 90.0324C93.158 90.0324 93.4071 93.2071 93.3812 94.0361C93.3521 94.8652 92.9638 96.7417 92.9638 97.2398C92.9638 97.7378 92.9638 108.033 93.378 109.273C93.7922 110.517 92.2131 109.662 92.2131 109.662C92.2131 109.662 89.4626 102.889 89.4626 100.064C89.4626 97.2398 89.7959 95.8324 89.6017 94.0361C89.4076 92.2399 88.5436 89.8782 88.5436 89.8782L93.1612 90.0324H93.158Z" fill="#EEA886"/>
<path d="M88.9934 74.7501C88.9934 74.7501 87.5146 76.5496 87.123 78.9531C86.7347 81.3534 87.5825 85.8841 87.8867 87.1951C88.152 88.3454 88.6601 92.0246 88.686 92.4102C88.686 92.4102 93.6595 92.9693 97.4423 91.7836C97.4423 91.7836 97.7885 86.6424 98.0118 84.4638C98.2351 82.282 97.1478 74.9172 97.1478 74.9172L88.9934 74.7533V74.7501Z" fill="#EB4747"/>
<path d="M94.6821 112.403C92.8991 110.858 93.378 109.27 93.378 109.27C93.378 109.27 92.6661 109.02 92.0869 109.161C91.5076 109.306 91.197 110.674 91.43 111.111L91.6112 113.361L91.9057 113.338L91.8086 112.137C92.1516 113.297 92.4784 114.752 93.268 114.98C94.3293 115.289 96.0152 115.106 96.2094 114.749C96.4035 114.392 94.6853 112.4 94.6853 112.4L94.6821 112.403Z" fill="#1D3B54"/>
<path d="M95.7272 57.9288C95.7272 57.9288 95.2872 60.5347 95.6658 61.4087C96.0476 62.2827 93.6433 60.3869 93.6433 60.3869C93.6433 60.3869 94.64 57.5175 95.7272 57.9288Z" fill="#754836"/>
<path d="M94.8406 50.6893C94.8406 50.6893 90.9802 49.8121 90.5013 53.9058C90.0192 57.9995 91.7568 58.5136 90.5822 61.2899C89.4076 64.0661 93.4524 60.3869 93.4524 60.3869L94.8406 50.6893Z" fill="#754836"/>
<path d="M94.5073 50.6282C95.4975 50.6089 97.6785 51.1648 97.9438 53.7772C97.9438 53.7772 97.8435 54.4777 97.6591 55.0239C97.4714 55.5702 97.9244 57.2089 97.7918 57.286C97.6591 57.3632 97.1187 57.4499 97.1187 57.4499C97.1187 57.4499 96.4909 59.2108 95.8632 59.1787C95.2354 59.1465 92.8732 58.5906 91.8151 56.351C90.7569 54.1081 90.5078 50.7085 94.5073 50.6282Z" fill="#EEA886"/>
<path d="M83.7124 83.05C83.7124 83.05 83.8062 81.4756 84.2237 81.2313C84.6443 80.9871 84.4016 81.4755 84.4016 81.4755C84.4016 81.4755 84.1654 82.6195 84.1136 83.0822C84.1136 83.1047 83.7124 83.0533 83.7124 83.0533V83.05Z" fill="#1D3B54"/>
<path d="M85.6572 79.5026C85.6572 79.5026 85.7737 80.2095 85.9905 80.8907C86.2073 81.5719 86.4047 81.7872 86.3173 82.1792C86.2526 82.4748 85.916 82.6965 85.8319 82.6001C85.7478 82.507 85.7057 81.3598 85.2268 81.3662C84.7479 81.3727 85.3692 82.7833 85.0844 82.6805C84.7997 82.5776 83.7059 81.98 83.7739 81.4048C83.8418 80.8264 84.2819 80.4119 84.2528 79.5475C84.2269 78.7667 84.4728 78.439 84.4728 78.439L85.6539 79.5058L85.6572 79.5026Z" fill="#EEA886"/>
<path d="M85.2753 81.3148C85.2753 81.3148 85.9128 81.4755 85.874 83.6123L85.1524 83.4934C85.1524 83.4934 85.1653 82.3109 84.9518 81.6683C84.9518 81.6683 84.9873 81.2506 85.2753 81.3148Z" fill="#1D3B54"/>
<path d="M87.9191 84.0975L82.308 82.5166L82.3242 89.3801L87.9061 92.7027L87.9191 84.0975Z" fill="#EDDAD3"/>
<path d="M87.9061 92.7027L87.2039 92.8312L81.7741 89.4765L81.8388 82.5487L82.308 82.5166L87.9061 92.7027Z" fill="#EDDAD3"/>
<path d="M95.0412 60.2552C95.0412 60.2552 96.5362 60.8657 96.8048 61.052C97.0734 61.2384 97.6073 63.3849 97.74 63.5712C97.8726 63.7576 99.1638 65.3514 98.9858 66.6399C98.8467 67.6553 98.2674 68.1919 97.8953 68.5904C97.5199 68.9888 97.1737 71.1288 97.0572 71.447C96.9407 71.7651 97.3128 75.9423 97.3128 75.9423C97.3128 75.9423 92.925 77.6389 88.9966 74.747C88.9966 74.747 89.7797 71.9482 89.7797 71.447C89.7797 70.9457 89.2717 67.3886 87.9094 65.2935C86.5471 63.1985 88.1488 60.9685 89.1908 60.705C90.2327 60.4383 92.2357 59.696 92.2357 59.696L95.0412 60.2519V60.2552Z" fill="#EB4747"/>
<path d="M90.2521 60.3901C90.2521 60.3901 88.055 60.2552 86.9548 61.5276C85.8546 62.8001 85.9128 64.3135 85.6313 64.969C85.3498 65.6245 84.7091 68.449 84.5699 68.9085C84.4308 69.3648 84.2916 71.9386 84.0942 74.0079C83.8936 76.0773 83.9357 79.9396 83.9357 79.9396L86.039 79.5604C86.039 79.5604 86.1231 75.8781 86.1781 73.7412C86.2299 71.6044 87.9805 67.832 88.6407 66.1804C89.3008 64.5288 91.9348 61.4216 90.2554 60.3869L90.2521 60.3901Z" fill="#EB4747"/>
<path d="M96.5848 60.9299C96.5848 60.9299 97.5523 60.991 98.0118 61.9453C98.4713 62.8997 98.6493 63.6933 98.769 63.9343C98.8887 64.1721 100.555 67.3179 100.656 68.0152C100.756 68.7125 100.594 69.9849 99.7139 70.3223C98.8337 70.6597 95.669 70.7015 95.669 70.7015C95.669 70.7015 96.4715 69.0852 95.7305 68.2497C95.7305 68.2497 98.028 67.8384 98.5716 67.7838C99.1443 67.726 95.8599 61.6497 96.588 60.9331L96.5848 60.9299Z" fill="#EB4747"/>
<path d="M91.3232 63.6291L95.6043 73.5548L100.94 71.0613L96.9925 61.5276L91.3232 63.6291Z" fill="#1D3B54"/>
<path d="M93.7792 68.5068C93.7792 68.5068 93.2 68.6611 93.0156 68.6868C92.8311 68.7125 93.0576 69.0499 93.2842 69.0595C93.5107 69.0692 93.7792 68.5068 93.7792 68.5068Z" fill="#EEA886"/>
<path d="M94.1676 71.3312C94.1676 71.3312 94.4361 71.3184 94.5526 71.2541C94.5526 71.2541 94.7533 71.1224 94.8989 71.0388C94.9474 71.0131 94.9862 70.9906 95.0154 70.9778C95.1351 70.9296 95.4069 70.8589 95.6593 70.6661C95.9117 70.4733 96.7304 69.6989 96.7304 69.6989L96.19 68.8892L95.7726 68.2433C95.7726 68.2433 94.0122 68.2915 93.7598 68.4457C93.734 68.4618 93.7113 68.4779 93.6886 68.4939C93.4848 68.6449 93.3974 68.841 93.3003 68.9341C93.2647 68.9695 92.9315 69.3262 92.9541 69.4708C92.9832 69.67 93.0835 69.7985 93.2097 69.8596C93.2097 69.8596 93.2809 70.2484 93.4848 70.4219C93.4848 70.4219 93.5398 70.785 93.8569 70.9264C93.8569 70.9264 93.954 71.2862 94.174 71.328L94.1676 71.3312Z" fill="#EEA886"/>
<path d="M95.7272 68.2466C95.7272 68.2466 98.3321 67.7839 99.0537 67.7099C99.0537 67.7099 99.1023 66.8006 98.9728 66.0326C98.8402 65.2647 98.2059 64.23 98.2059 64.23L99.5391 65.4414C99.5391 65.4414 100.636 67.5268 100.659 68.012C100.685 68.5004 100.814 69.2523 100.164 70.0139C99.5165 70.7754 96.4553 70.4284 96.4553 70.4284C96.4553 70.4284 96.711 69.4933 95.7305 68.2466H95.7272Z" fill="#EB4747"/>
<path d="M94.928 58.7641C94.928 58.7641 94.8439 59.0116 94.7468 59.3779C94.695 59.5642 94.6432 59.7827 94.5947 60.0173C94.462 60.6632 94.3747 61.4183 94.53 61.926C94.53 61.926 93.1288 62.3662 92.0869 60.3868C92.0869 60.3868 92.6176 58.3014 92.0416 57.0097C91.4656 55.7212 94.9312 58.7641 94.9312 58.7641H94.928Z" fill="#EEA886"/>
<path d="M97.9406 53.7772C97.9406 53.7772 96.3032 54.8183 94.7047 54.995C93.1062 55.1685 92.2131 57.5721 92.2131 57.5721C92.2131 57.5721 89.6988 53.6808 91.7245 51.2901C93.7501 48.8995 98.3742 50.7503 97.9406 53.774V53.7772Z" fill="#754836"/>
<path d="M94.0446 54.905C94.0446 54.5998 93.7145 54.1306 93.1968 54.5323C92.679 54.9372 93.3165 56.412 93.7372 56.2803C94.1546 56.1485 94.0446 55.2199 94.0446 54.9018V54.905Z" fill="#EEA886"/>
<path d="M95.1286 60.2905C95.1286 60.2905 95.7887 62.2249 94.2452 62.212C92.7017 62.2024 92.0319 60.9974 91.5918 59.9306C91.5918 59.9306 92.3037 59.5868 92.6337 59.5386C92.9638 59.4904 95.1286 60.2905 95.1286 60.2905Z" fill="#EEA886"/>
<path d="M85.874 83.5224L85.1524 83.6156V83.2814L85.874 83.5224Z" fill="#1D3B54"/>
<path d="M84.1201 83.0275L83.7189 83.0757C83.7189 83.0757 83.7189 82.9568 83.7189 82.915C83.7221 82.8765 84.1039 83.0018 84.1169 83.0275H84.1201Z" fill="#1D3B54"/>
<path d="M93.378 109.27C93.378 109.27 93.5819 110.257 93.8343 110.948C94.0867 111.638 95.2678 113.158 95.2354 113.358C95.203 113.557 93.8925 113.836 93.3133 113.377C92.7341 112.917 92.2001 111.497 92.0804 110.623C91.9607 109.749 92.0254 109.184 92.0254 109.184C92.0254 109.184 92.8214 108.775 93.378 109.27Z" fill="#EEA886"/>
<path d="M94.8697 58.9635C94.818 59.1498 94.7468 59.378 94.6885 59.5997C93.4233 58.7514 92.815 57.7424 92.815 57.7424C93.5333 58.4236 94.8697 58.9635 94.8697 58.9635Z" fill="#A77860"/>
<path d="M51.1076 21.7666H36.1869C34.9699 21.7666 33.9833 22.7463 33.9833 23.9548V29.9411C33.9833 31.1497 34.9699 32.1294 36.1869 32.1294H51.1076C52.3246 32.1294 53.3112 31.1497 53.3112 29.9411V23.9548C53.3112 22.7463 52.3246 21.7666 51.1076 21.7666Z" fill="#DFE1E8"/>
<path d="M24.0394 73.8054C24.0394 73.8054 24.0394 73.8054 24.0362 73.8054C24.0555 73.815 24.0587 73.815 24.0394 73.8054Z" fill="#323657"/>
<path d="M14.8462 72.1506H29.1262C29.523 72.1506 29.8446 71.8313 29.8446 71.4373V71.0003C29.8446 70.6063 29.523 70.2869 29.1262 70.2869H14.8462C14.4495 70.2869 14.1279 70.6063 14.1279 71.0003V71.4373C14.1279 71.8313 14.4495 72.1506 14.8462 72.1506Z" fill="#B5DEFF"/>
<path d="M14.8462 75.5149H29.1262C29.523 75.5149 29.8446 75.1955 29.8446 74.8016V74.3645C29.8446 73.9706 29.523 73.6512 29.1262 73.6512H14.8462C14.4495 73.6512 14.1279 73.9706 14.1279 74.3645V74.8016C14.1279 75.1955 14.4495 75.5149 14.8462 75.5149Z" fill="#B5DEFF"/>
<path d="M29.123 78.8792H14.8463C14.4483 78.8792 14.1279 78.5578 14.1279 78.1658V77.7288C14.1279 77.3336 14.4515 77.0155 14.8463 77.0155H29.123C29.521 77.0155 29.8414 77.3368 29.8414 77.7288V78.1658C29.8414 78.561 29.5178 78.8792 29.123 78.8792Z" fill="#B5DEFF"/>
<path d="M35.4492 49.963H38.8598C39.6008 49.963 40.1994 50.5607 40.1994 51.2933V61.7621C40.1994 62.498 39.5976 63.0924 38.8598 63.0924H35.4492C34.7081 63.0924 34.1095 62.4947 34.1095 61.7621V51.2933C34.1095 50.5575 34.7114 49.963 35.4492 49.963Z" fill="#B5DEFF"/>
<path d="M2.19391 86.5975C2.19391 86.5975 2.42689 86.9766 2.45602 87.2883C2.47867 87.5357 2.689 87.9021 2.77637 88.1045C2.86698 88.3069 3.15821 89.2259 3.16791 89.4669C3.17115 89.5633 2.95111 90.1803 2.98347 90.3795C3.01583 90.5755 3.12908 90.9675 2.95111 90.9932C2.77313 91.0189 2.56927 90.6976 2.56927 90.6976C2.56927 90.6976 2.58545 90.8808 2.4366 90.9482C2.14214 91.0832 1.98681 90.9643 1.98681 90.9643C1.98681 90.9643 1.88003 91.1635 1.74412 91.1924C1.44318 91.2503 1.29757 91.1314 1.29757 91.1314C1.29757 91.1314 1.1649 91.2439 0.957802 91.2406C0.692459 91.2342 0.582439 91.0093 0.582439 91.0093C0.582439 91.0093 0.245907 91.0768 0.14883 90.9225C0.0517533 90.7683 0.0679327 90.6012 0.0291021 90.4598C-0.00972856 90.3184 0.0193944 89.0492 0.453003 88.1334C0.886612 87.2176 0.342983 86.3243 0.342983 86.3243L2.19067 86.5975H2.19391Z" fill="#EEA886"/>
<path d="M2.61782 90.5787C2.61782 90.5787 2.64695 89.438 2.34601 89.197C2.04507 88.9528 2.00948 89.3673 2.00948 89.3673C2.00948 89.3673 2.05154 88.9592 1.72148 88.9046C1.39142 88.85 1.37848 89.332 1.37848 89.332C1.37848 89.332 1.32347 89.0171 0.977227 89.0813C0.630987 89.1456 0.711885 89.5472 0.711885 89.5472C0.711885 89.5472 0.381824 89.1552 0.16502 89.5312C-0.1974 90.1674 0.152076 90.9193 0.152076 90.9193C0.152076 90.9193 0.255625 91.0928 0.585685 91.0061C0.585685 91.0061 0.805725 91.4495 1.30082 91.1314C1.30082 91.1314 1.80561 91.4077 1.99006 90.9643C1.99006 90.9643 2.54663 91.2278 2.62106 90.5787H2.61782Z" fill="#DB9C7C"/>
<path d="M6.08992 70.1713C6.08992 70.1713 4.1225 76.6781 3.45914 79.0784C3.25204 79.8303 2.74724 87.0184 2.65664 87.3076C2.56604 87.5968 0.0744019 87.992 0.0744019 87.992C0.0744019 87.992 0.375339 78.9981 0.404462 78.5097C0.433585 78.0181 3.15497 67.9766 3.94776 67.6199C4.53993 67.3532 4.85381 67.575 5.6013 68.1244C6.64972 68.8988 6.08668 70.1713 6.08668 70.1713H6.08992Z" fill="#323657"/>
<path d="M29.763 58.1292L25.2623 61.0526L25.4802 61.3834L29.9809 58.4599L29.763 58.1292Z" fill="#4DA8F2"/>
<path d="M30.4594 59.8117C30.4594 59.8117 30.4173 60.0655 30.3429 60.1652C30.3429 60.1652 30.1973 60.3387 30.1002 60.4704C30.0711 60.5122 30.0452 60.5475 30.029 60.5732C29.9708 60.6793 29.8705 60.9299 29.6569 61.1484C29.4433 61.3637 28.6085 62.0513 28.6085 62.0513L27.8933 61.4473L27.1523 61.1163C27.1523 61.1163 27.5697 59.3233 27.7445 59.0984C27.7607 59.0759 27.7801 59.0566 27.7995 59.0373C27.9678 58.8606 28.1651 58.8027 28.2655 58.7192C28.3011 58.6903 28.6829 58.4171 28.8188 58.4525C29.0065 58.5007 29.1197 58.6099 29.1618 58.7353C29.1618 58.7353 29.5275 58.8477 29.6698 59.0598C29.6698 59.0598 30.0096 59.153 30.1131 59.4679C30.1131 59.4679 30.4497 59.5996 30.4626 59.8117H30.4594Z" fill="#EFAA88"/>
<path d="M4.49464 114.595C4.49464 114.595 4.31667 115.829 4.29402 116.015C4.27137 116.201 2.30071 115.906 2.30071 115.906L2.14215 114.434C2.14215 114.434 4.25195 114.418 4.49788 114.595H4.49464Z" fill="#424773"/>
<path d="M4.31341 115.861C4.31341 115.861 4.93794 116.606 5.54305 116.931C6.14816 117.255 7.09628 117.384 7.45223 117.718C7.7111 117.959 8.39063 119.003 5.88282 118.984C3.37501 118.961 2.16479 119.132 1.89621 118.73C1.62763 118.328 2.28451 115.777 2.28451 115.777C2.28451 115.777 2.87992 115.989 4.31341 115.861Z" fill="#292C47"/>
<path d="M18.6193 114.595C18.6193 114.595 18.4413 115.829 18.4186 116.015C18.396 116.201 16.4253 115.906 16.4253 115.906L16.2668 114.434C16.2668 114.434 18.3766 114.418 18.6225 114.595H18.6193Z" fill="#424773"/>
<path d="M18.4381 115.861C18.4381 115.861 19.0626 116.606 19.6677 116.931C20.2728 117.255 22.4959 117.522 22.8518 117.856C23.1107 118.097 23.5378 119.074 20.0075 118.984C17.4997 118.92 16.2895 119.132 16.0209 118.73C15.7523 118.328 16.4092 115.777 16.4092 115.777C16.4092 115.777 16.969 116.005 18.4381 115.861Z" fill="#292C47"/>
<path d="M6.12876 82.8572C6.12876 82.8572 4.27783 85.778 4.41374 88.4193C4.55288 91.0606 3.74067 93.9462 3.46562 96.7031C3.15498 99.7782 1.88651 107.063 1.84121 108.708C1.7959 110.353 2.0386 115.607 2.0386 115.607L4.57877 115.665C4.57877 115.665 6.71445 102.934 7.26455 101.635C7.81789 100.337 10.5587 91.0767 10.6493 90.0356C10.7399 88.9977 6.12876 82.8572 6.12876 82.8572Z" fill="#292C47"/>
<path d="M15.8785 83.2525C15.8785 83.2525 17.2732 90.4919 17.4576 92.1082C17.6421 93.7245 17.765 99.9325 17.8556 100.941C17.9462 101.95 18.7164 114.132 18.9623 115.665H15.7135C15.7135 115.665 13.2186 106.786 13.2186 102.587C13.2186 98.3869 11.2933 93.4546 10.0474 90.6847C8.80485 87.9149 5.95727 87.8474 5.1936 82.7062C5.1936 82.7062 14.8398 81.6201 15.8753 83.2525H15.8785Z" fill="#292C47"/>
<path d="M9.21904 58.2886C9.21904 58.2886 11.7042 57.3664 12.8529 59.2461C13.9984 61.1259 13.8884 64.8886 12.6361 65.3513C11.3838 65.814 9.50056 65.573 8.85986 64.397C8.21915 63.2209 7.63993 61.5211 7.66581 60.3836C7.69494 59.2461 8.56863 58.6163 9.22228 58.2886H9.21904Z" fill="#EEA886"/>
<path d="M12.3643 65.4381C12.3643 65.4381 12.2608 66.1032 12.4323 66.4342C12.6038 66.7619 9.21255 66.7716 9.21255 66.7716C9.21255 66.7716 8.9375 64.985 8.41652 63.478C7.89555 61.9677 12.3675 65.4413 12.3675 65.4413L12.3643 65.4381Z" fill="#EEA886"/>
<path d="M8.4133 63.4748C8.4133 63.4748 8.64629 63.8572 9.60411 63.7094C10.5587 63.5616 11.7269 62.2988 12.1249 62.1606C12.5229 62.0224 12.5261 61.7878 12.5261 61.7878L12.7753 62.1509L13.1992 62.1766C13.1992 62.1766 12.8141 61.0488 13.3966 60.5861C13.979 60.1266 12.7915 56.9294 9.72707 57.993C9.72707 57.993 7.37458 58.6356 7.45872 59.9659C7.54285 61.2962 7.88585 62.8097 8.4133 63.4716V63.4748Z" fill="#D88A51"/>
<path d="M12.6329 66.3924C12.6329 66.3924 12.6232 65.7658 12.3352 65.7048C12.0504 65.6437 9.17373 65.3706 8.82425 65.5088V66.2382C8.82425 66.2382 9.50055 66.6527 12.6329 66.3924Z" fill="#E2D2CA"/>
<path d="M12.4614 61.3026C12.4064 61.0809 11.8369 60.4415 11.6168 61.1259C11.3968 61.8071 11.9469 62.7261 12.2543 62.6458C12.5617 62.5687 12.5973 61.8682 12.4614 61.3026Z" fill="#EEA886"/>
<path d="M17.3864 67.3435C15.4158 67.0865 12.6329 66.3924 12.6329 66.3924L8.82427 66.2382C8.82427 66.2382 5.32951 67.0029 3.95102 67.6199C3.82159 67.6777 3.81835 70.7174 3.4624 71.5143L4.60467 73.905C4.60467 73.905 5.26479 78.6414 5.4007 80.7493C5.46218 81.7164 4.04163 89.8171 4.04163 89.8171C4.04163 89.8171 5.56573 90.2637 8.16738 90.5465C10.7658 90.8325 17.2635 90.4437 17.3023 90.1384C17.3444 89.8331 16.0435 78.7859 15.9885 78.2108C15.9012 77.3336 16.2927 72.6647 16.2927 72.6647C16.8913 72.202 22.1626 69.7727 23.6026 68.5067C23.9876 68.1693 25.6121 66.598 26.0748 66.055C27.7089 64.1367 29.0486 62.4883 29.2136 62.1348C29.398 61.9324 27.4371 60.8752 27.2591 60.8142C27.1038 60.7628 24.8937 63.6065 24.0426 64.5223C23.664 64.9304 22.0882 66.0679 22.0882 66.0679C22.0882 66.0679 18.629 67.4078 17.3961 67.3371L17.3864 67.3435Z" fill="#323657"/>
<path d="M8.51037 58.5103C8.51037 58.5103 5.3392 58.7577 8.41329 63.4715L8.51037 58.5103Z" fill="#D88A51"/>
<path d="M29.9805 58.4621L30.2426 58.0701L29.7637 58.1311L29.9805 58.4621Z" fill="#DFE1E8"/>
</g>
<defs>
<linearGradient id="paint0_linear_24_1042" x1="109.425" y1="12.3903" x2="134.38" y2="12.3903" gradientUnits="userSpaceOnUse">
<stop stop-color="#1467AA"/>
<stop offset="1" stop-color="#67BBFF"/>
</linearGradient>
<clipPath id="clip0_24_1042">
<rect width="146" height="119" fill="white"/>
</clipPath>
</defs>
</svg>
