<svg width="178" height="119" viewBox="0 0 178 119" fill="none" xmlns="http://www.w3.org/2000/svg">
<g clip-path="url(#clip0_24_1765)">
<path d="M14.7858 86.4595H60.2294V78.6729H14.7858C15.7586 78.6729 15.7586 86.4595 14.7858 86.4595Z" fill="url(#paint0_linear_24_1765)"/>
<path d="M60.2294 84.511V80.9479C60.2294 79.6916 59.3312 78.6737 58.2234 78.6737H14.9775C14.1063 78.6737 13.3998 78.0689 13.3998 77.3237C13.3998 77.0969 13.614 76.9133 13.8795 76.9133H61.1438C62.2274 76.9133 63.949 78.3722 63.949 80.1722V85.1491C63.949 86.8455 62.2787 88.2216 61.2563 88.2216H14.1279C13.7256 88.2216 13.3998 87.9426 13.3998 87.5988C13.3998 86.9706 13.9947 86.4612 14.7282 86.4612H58.5105C59.459 86.4612 60.2285 85.5891 60.2285 84.5128L60.2294 84.511Z" fill="#5770CA"/>
<path d="M58.9686 80.4377H16.359C16.2663 80.4377 16.1916 80.363 16.1916 80.2703C16.1916 80.1776 16.2663 80.1029 16.359 80.1029H58.9686C59.0613 80.1029 59.136 80.1776 59.136 80.2703C59.136 80.363 59.0613 80.4377 58.9686 80.4377Z" fill="#94CFFF"/>
<path d="M58.9686 81.5942H16.359C16.2663 81.5942 16.1916 81.5195 16.1916 81.4268C16.1916 81.3341 16.2663 81.2594 16.359 81.2594H58.9686C59.0613 81.2594 59.136 81.3341 59.136 81.4268C59.136 81.5195 59.0613 81.5942 58.9686 81.5942Z" fill="#94CFFF"/>
<path d="M58.9686 82.7497H16.359C16.2663 82.7497 16.1916 82.675 16.1916 82.5823C16.1916 82.4896 16.2663 82.4149 16.359 82.4149H58.9686C59.0613 82.4149 59.136 82.4896 59.136 82.5823C59.136 82.675 59.0613 82.7497 58.9686 82.7497Z" fill="#94CFFF"/>
<path d="M58.9686 83.9052H16.359C16.2663 83.9052 16.1916 83.8305 16.1916 83.7378C16.1916 83.6451 16.2663 83.5704 16.359 83.5704H58.9686C59.0613 83.5704 59.136 83.6451 59.136 83.7378C59.136 83.8305 59.0613 83.9052 58.9686 83.9052Z" fill="#94CFFF"/>
<path d="M58.9686 85.0609H16.359C16.2663 85.0609 16.1916 84.9862 16.1916 84.8935C16.1916 84.8008 16.2663 84.7261 16.359 84.7261H58.9686C59.0613 84.7261 59.136 84.8008 59.136 84.8935C59.136 84.9862 59.0613 85.0609 58.9686 85.0609Z" fill="#94CFFF"/>
<path d="M70.338 103.297H1.80806C0.809497 103.297 0 104.107 0 105.105V116.715C0 117.714 0.809497 118.523 1.80806 118.523H70.338C71.3366 118.523 72.1461 117.714 72.1461 116.715V105.105C72.1461 104.107 71.3366 103.297 70.338 103.297Z" fill="#5770CA"/>
<path d="M15.9774 105.048H8.80543C8.44556 105.048 8.15384 105.339 8.15384 105.699V116.123C8.15384 116.483 8.44556 116.774 8.80543 116.774H15.9774C16.3372 116.774 16.629 116.483 16.629 116.123V105.699C16.629 105.339 16.3372 105.048 15.9774 105.048Z" fill="#94CFFF"/>
<path d="M66.3961 89.0657V91.6883C66.3961 92.1383 66.1612 92.5667 65.7535 92.861L65.3503 93.1517C65.0191 93.3911 65.0884 93.8338 65.4826 93.994C65.7427 94.0993 65.7913 94.3909 65.5753 94.552L65.0668 94.93C64.7338 95.1775 64.7329 95.6104 65.065 95.8588L65.4304 96.1315C65.7454 96.3673 65.7364 96.7804 65.4115 97.0063L65.0191 97.2781C64.7473 97.4671 64.7014 97.801 64.9156 98.0359L65.1316 98.2725C65.2864 98.4417 65.3701 98.6496 65.3701 98.862V103.003H12.1695V88.8156L66.3961 89.0648V89.0657Z" fill="#94CFFF"/>
<path d="M14.0127 92.1023H64.5314C64.6411 92.1023 64.7302 92.0276 64.7302 91.9358C64.7302 91.844 64.6411 91.7693 64.5314 91.7693H14.0127C13.9029 91.7693 13.8138 91.844 13.8138 91.9358C13.8138 92.0276 13.9029 92.1023 14.0127 92.1023Z" fill="url(#paint1_linear_24_1765)"/>
<path d="M14.0127 94.5727H63.3353C63.4451 94.5727 63.5342 94.498 63.5342 94.4062C63.5342 94.3144 63.4451 94.2397 63.3353 94.2397H14.0127C13.9029 94.2397 13.8138 94.3144 13.8138 94.4062C13.8138 94.498 13.9029 94.5727 14.0127 94.5727Z" fill="url(#paint2_linear_24_1765)"/>
<path d="M14.0127 96.3898H62.7224C62.8322 96.3898 62.9213 96.3151 62.9213 96.2233C62.9213 96.1315 62.8322 96.0568 62.7224 96.0568H14.0127C13.9029 96.0568 13.8138 96.1315 13.8138 96.2233C13.8138 96.3151 13.9029 96.3898 14.0127 96.3898Z" fill="url(#paint3_linear_24_1765)"/>
<path d="M11.2048 87.9128H67.5598C67.9891 87.9128 68.3724 88.1747 68.4129 88.5311C68.4597 88.9397 68.0755 89.2835 67.5949 89.2835H15.3402C14.4222 89.2835 13.6293 89.819 13.4385 90.5669C12.5835 93.9202 12.6483 97.4103 13.4538 101.012C13.6401 101.847 14.5167 102.453 15.5364 102.453H66.5275C66.9568 102.453 67.3402 102.715 67.3807 103.071C67.4275 103.48 67.0432 103.824 66.5626 103.824H11.5782C10.2634 103.824 9.1312 103.042 8.8972 101.963C7.94772 97.5939 7.86492 93.4 8.8972 89.432C9.1285 88.5428 10.0834 87.9128 11.1751 87.9128H11.2057H11.2048Z" fill="url(#paint4_linear_24_1765)"/>
<path d="M157.202 109.413C157.202 110.819 156.144 111.97 154.852 111.97H27.7761C26.4838 111.97 25.4263 110.82 25.4263 109.413L24.3688 29.8893C24.3688 28.4835 25.8898 25.7377 28.6779 25.9447L152.87 22.4455C154.492 22.3996 156.059 23.0791 157.208 24.3256C158.356 25.5721 158.984 27.2766 158.947 29.0406L157.202 109.413Z" fill="#1467AA"/>
<path d="M154.881 106.961C154.881 108.293 153.881 109.382 152.658 109.382H30.8406C29.6175 109.382 28.6176 108.292 28.6176 106.961L27.6195 34.7681C27.7374 30.4239 31.2348 28.8625 33.3551 28.9543C33.3551 28.9543 130.423 26.1184 152.382 25.4767C153.521 25.4434 154.623 25.9213 155.429 26.7979C156.237 27.6745 156.68 28.8742 156.652 30.1143L154.881 106.96V106.961Z" fill="url(#paint5_linear_24_1765)"/>
<path d="M29.9343 72.4772C29.8425 72.4772 29.7678 72.4034 29.7669 72.3116L29.6877 66.4572C29.6868 66.3645 29.7606 66.2889 29.8533 66.2871C29.9442 66.2835 30.0216 66.36 30.0234 66.4527L30.1026 72.3071C30.1035 72.3998 30.0297 72.4754 29.937 72.4772H29.9343Z" fill="url(#paint6_linear_24_1765)"/>
<path d="M29.7408 58.1297C29.649 58.1297 29.5743 58.0559 29.5734 57.9641L29.271 35.5402C29.2773 33.9778 29.7417 32.7467 30.6498 31.8791C32.1572 30.4391 34.3946 30.5156 34.4882 30.5192L72.4989 29.4086C72.5961 29.4041 72.669 29.4788 72.6708 29.5715C72.6735 29.6642 72.6006 29.7407 72.5079 29.7434L34.4873 30.854C34.3847 30.8504 32.2868 30.7793 30.8811 32.1221C30.0414 32.9249 29.6121 34.0741 29.6058 35.5393L29.9082 57.9596C29.9091 58.0523 29.8353 58.1279 29.7426 58.1297H29.7399H29.7408Z" fill="url(#paint7_linear_24_1765)"/>
<g opacity="0.58">
<path d="M33.9842 102.956C34.112 96.9892 34.0643 44.1513 33.7502 39.5884C33.4361 35.0255 39.9619 34.1687 49.9823 33.6557C60.0018 33.1418 144.544 31.1087 146.721 30.917C151.614 30.4851 152.627 38.449 152.137 55.7385C151.769 68.728 151.16 90.1259 150.879 99.9663C150.795 102.897 148.597 105.221 145.905 105.229C125.561 105.291 47.5865 105.534 42.3963 105.702C36.4231 105.895 33.9347 105.323 33.9851 102.957L33.9842 102.956Z" fill="#5770CA"/>
</g>
<path d="M166.835 111.585H18.3695C17.9962 111.585 17.6936 111.888 17.6936 112.261V117.897C17.6936 118.27 17.9962 118.573 18.3695 118.573H166.835C167.208 118.573 167.511 118.27 167.511 117.897V112.261C167.511 111.888 167.208 111.585 166.835 111.585Z" fill="#1467AA"/>
<path d="M141.894 95.749H44.2584C42.8517 95.749 41.7492 94.5853 41.7492 93.0994V42.9579C41.7492 41.5053 42.8436 40.347 44.2404 40.3209L141.862 38.5048C142.547 38.4949 143.2 38.7604 143.695 39.2617C144.184 39.7558 144.464 40.4406 144.464 41.1417V93.0985C144.464 94.5592 143.31 95.7481 141.893 95.7481L141.894 95.749ZM44.2467 40.6566C43.0335 40.6791 42.084 41.6898 42.084 42.9579V93.0994C42.084 94.3972 43.0389 95.4142 44.2575 95.4142H141.893C143.126 95.4142 144.129 94.3756 144.129 93.0994V41.1417C144.129 40.5288 143.884 39.9295 143.457 39.4975C143.027 39.0628 142.464 38.8315 141.868 38.8396L44.2458 40.6557L44.2467 40.6566Z" fill="url(#paint8_linear_24_1765)"/>
<path d="M105.015 47.3795H47.843C46.8062 47.3795 45.9656 48.22 45.9656 49.2569V83.2924C45.9656 84.3292 46.8062 85.1697 47.843 85.1697H105.015C106.052 85.1697 106.893 84.3292 106.893 83.2924V49.2569C106.893 48.22 106.052 47.3795 105.015 47.3795Z" fill="url(#paint9_linear_24_1765)"/>
<path d="M134.077 59.8866H113.372C112.023 59.8866 110.968 58.8255 110.968 57.4701V49.5908C110.968 48.257 112.023 47.2122 113.372 47.2122H134.077C135.503 47.2122 136.753 48.3236 136.753 49.5908V57.4701C136.753 58.7571 135.503 59.8866 134.077 59.8866ZM113.372 47.5469C112.192 47.5469 111.302 48.4253 111.302 49.5908V57.4701C111.302 58.4934 112.076 59.5518 113.372 59.5518H134.077C135.302 59.5518 136.418 58.56 136.418 57.4701V49.5908C136.418 48.5018 135.325 47.5469 134.077 47.5469H113.372Z" fill="url(#paint10_linear_24_1765)"/>
<path d="M134.077 75.6974H113.372C112.001 75.6974 110.968 74.6894 110.968 73.3521V65.4727C110.968 63.9392 112.19 63.0221 113.372 63.0221H134.077C135.478 63.0221 136.753 64.1903 136.753 65.4727V73.3521C136.753 74.6228 135.528 75.6974 134.077 75.6974ZM113.372 63.3578C112.076 63.3578 111.302 64.4333 111.302 65.4736V73.353C111.302 74.4987 112.192 75.3626 113.372 75.3626H134.077C135.324 75.3626 136.418 74.4231 136.418 73.353V65.4736C136.418 64.3667 135.302 63.3578 134.077 63.3578H113.372Z" fill="url(#paint11_linear_24_1765)"/>
<path d="M134.077 91.5074H113.372C111.978 91.5074 110.968 90.5517 110.968 89.2341V81.3548C110.968 80.1416 111.887 78.833 113.372 78.833H134.077C135.478 78.833 136.753 80.0345 136.753 81.3548V89.2341C136.753 90.4878 135.552 91.5074 134.077 91.5074ZM113.372 79.1678C112.094 79.1678 111.302 80.3027 111.302 81.3548V89.2341C111.302 90.3573 112.173 91.1726 113.372 91.1726H134.077C135.346 91.1726 136.418 90.2853 136.418 89.2341V81.3548C136.418 80.2307 135.281 79.1678 134.077 79.1678H113.372Z" fill="url(#paint12_linear_24_1765)"/>
<path d="M85.2291 87.6464C79.4017 87.632 52.9846 87.5708 47.1446 87.6257C46.5164 87.632 45.9648 88.1423 45.9648 88.7705V89.4095C45.9648 90.0314 46.4651 90.5399 47.087 90.5543L85.1139 91.4273C85.4217 91.4345 85.8042 91.3166 86.0247 91.1015C86.2452 90.8864 86.454 90.5912 86.454 90.2825V88.7912C86.454 88.1603 85.8591 87.6482 85.2282 87.6464H85.2291Z" fill="#C1E3FF"/>
<path d="M144.298 44.0766H41.9166C41.8239 44.0766 41.7492 44.0019 41.7492 43.9092C41.7492 43.8165 41.8239 43.7418 41.9166 43.7418H144.297C144.389 43.7418 144.464 43.8165 144.464 43.9092C144.464 44.0019 144.389 44.0766 144.297 44.0766H144.298Z" fill="url(#paint13_linear_24_1765)"/>
<path d="M131.944 42.534H131.778C131.147 42.534 130.633 42.0202 130.633 41.3893V41.2228C130.633 40.5919 131.147 40.078 131.778 40.078H131.944C132.575 40.078 133.089 40.5919 133.089 41.2228V41.3893C133.089 42.0202 132.575 42.534 131.944 42.534ZM131.778 40.4128C131.332 40.4128 130.968 40.7764 130.968 41.2228V41.3893C130.968 41.8357 131.332 42.1993 131.778 42.1993H131.944C132.391 42.1993 132.754 41.8357 132.754 41.3893V41.2228C132.754 40.7764 132.391 40.4128 131.944 40.4128H131.778Z" fill="white"/>
<path d="M136.379 42.534H136.212C135.581 42.534 135.067 42.0202 135.067 41.3893V41.2228C135.067 40.5919 135.581 40.078 136.212 40.078H136.379C137.01 40.078 137.523 40.5919 137.523 41.2228V41.3893C137.523 42.0202 137.01 42.534 136.379 42.534ZM136.212 40.4128C135.766 40.4128 135.402 40.7764 135.402 41.2228V41.3893C135.402 41.8357 135.766 42.1993 136.212 42.1993H136.379C136.825 42.1993 137.189 41.8357 137.189 41.3893V41.2228C137.189 40.7764 136.825 40.4128 136.379 40.4128H136.212Z" fill="white"/>
<path d="M141.006 42.534H140.84C140.209 42.534 139.695 42.0202 139.695 41.3893V41.2228C139.695 40.5919 140.209 40.078 140.84 40.078H141.006C141.637 40.078 142.151 40.5919 142.151 41.2228V41.3893C142.151 42.0202 141.637 42.534 141.006 42.534ZM140.84 40.4128C140.393 40.4128 140.03 40.7764 140.03 41.2228V41.3893C140.03 41.8357 140.393 42.1993 140.84 42.1993H141.006C141.453 42.1993 141.816 41.8357 141.816 41.3893V41.2228C141.816 40.7764 141.453 40.4128 141.006 40.4128H140.84Z" fill="white"/>
<path d="M99.2697 83.2509C96.1378 83.2509 93.5945 80.7076 93.5945 77.581C93.5945 74.4545 96.1378 71.9058 99.2643 71.9058C102.391 71.9058 104.94 74.4491 104.94 77.5756V77.5819C104.94 80.7085 102.396 83.2518 99.2697 83.2518V83.2509ZM99.2697 72.2406C96.3223 72.2406 93.9293 74.6336 93.9293 77.5756C93.9293 80.5177 96.3223 82.9161 99.2634 82.9161C102.205 82.9161 104.604 80.5231 104.604 77.5819V77.5756C104.604 74.6336 102.211 72.2406 99.2688 72.2406H99.2697Z" fill="url(#paint14_linear_24_1765)"/>
<path d="M97.7029 80.4276C97.5445 80.4276 97.414 80.3017 97.4095 80.1424L97.2754 75.134C97.2709 74.9684 97.351 74.8163 97.4887 74.7254C97.6264 74.6345 97.7983 74.6228 97.9486 74.6921L102.896 77.0059C103.059 77.0824 103.163 77.2417 103.168 77.4217C103.173 77.6017 103.078 77.7664 102.918 77.851L98.5516 80.1793C98.4085 80.2558 98.2303 80.2009 98.1547 80.0587C98.0782 79.9156 98.1322 79.7374 98.2753 79.6618L102.44 77.4415L97.8685 75.3032L97.9981 80.1262C98.0026 80.2882 97.8748 80.4231 97.7128 80.4276C97.7101 80.4276 97.7074 80.4276 97.7047 80.4276H97.7029Z" fill="url(#paint15_linear_24_1765)"/>
<path d="M73.0299 70.7115C74.9198 65.7571 80.1388 63.0104 84.978 64.5386C85.4973 64.7024 85.9914 64.9103 86.4594 65.1551C88.0839 67.0864 88.7174 69.781 87.9012 72.3657C86.6322 76.3814 82.3483 78.6089 78.3326 77.3399C75.2969 76.3805 73.2846 73.6986 73.0308 70.7106L73.0299 70.7115Z" fill="url(#paint16_linear_24_1765)"/>
<path d="M84.6791 69.0179C89.0383 64.6587 89.0383 57.591 84.6791 53.2318C80.3199 48.8726 73.2522 48.8726 68.893 53.2318C64.5338 57.591 64.5338 64.6587 68.893 69.0179C73.2522 73.3771 80.3199 73.3771 84.6791 69.0179Z" fill="url(#paint17_linear_24_1765)"/>
<path d="M74.3601 54.0412C78.7529 56.446 80.3377 62.0052 77.9006 66.4583C77.1905 67.756 76.2158 68.8162 75.0845 69.6082C79.004 70.5892 83.2645 68.8198 85.3209 65.0642C87.7581 60.6111 86.1732 55.0519 81.7804 52.6471C78.6683 50.9435 74.981 51.281 72.2298 53.206C72.9579 53.3878 73.6734 53.665 74.361 54.0412H74.3601Z" fill="url(#paint18_linear_24_1765)"/>
<path d="M69.1825 67.8316C73.2369 64.4143 74.1099 58.5816 71.0724 54.5172C70.7466 54.0808 70.3875 53.683 70.0024 53.3221C67.6435 52.4248 64.8905 52.7146 62.7197 54.3381C59.3466 56.8599 58.6554 61.6379 61.1771 65.011C63.0833 67.5616 66.2791 68.5767 69.1834 67.8316H69.1825Z" fill="url(#paint19_linear_24_1765)"/>
<path opacity="0.31" d="M69.8988 54.5073C70.3587 55.1157 70.9131 56.0445 71.1768 57.2315C71.373 58.1108 70.6413 58.9172 69.7449 58.8236C67.4707 58.586 63.4478 58.7066 62.663 62.338C62.5361 62.9239 61.7072 62.9509 61.5371 62.3749C60.7064 59.5643 60.8783 54.2373 68.1862 53.727C68.8504 53.6802 69.4956 53.9745 69.8979 54.5064L69.8988 54.5073Z" fill="white"/>
<path opacity="0.68" d="M81.1648 76.448C81.0901 76.448 81.0217 76.3976 81.0028 76.322C80.9794 76.2329 81.0343 76.1411 81.1234 76.1186C84.0465 75.3698 85.8762 73.7868 86.5602 71.4144C87.0714 69.6424 86.7195 68.0764 86.7159 68.0611C86.6952 67.9711 86.751 67.8811 86.841 67.8604C86.931 67.8397 87.021 67.8955 87.0417 67.9855C87.057 68.0512 88.4781 74.5805 81.2062 76.4435C81.1927 76.4471 81.1783 76.4489 81.1648 76.4489V76.448Z" fill="white"/>
<g opacity="0.78">
<path d="M81.6013 62.8879C81.6796 62.8879 81.7579 62.8591 81.8191 62.8015L86.1138 58.7327C86.4873 58.379 86.976 58.1837 87.4908 58.1837H102.11C102.285 58.1837 102.426 58.0424 102.426 57.8669C102.426 57.6914 102.285 57.551 102.11 57.551H87.4908C86.814 57.551 86.1705 57.8075 85.6782 58.2728L81.3835 62.3416C81.2566 62.4613 81.2512 62.662 81.3718 62.7889C81.4339 62.8546 81.5176 62.8879 81.6013 62.8879Z" fill="#C1E3FF"/>
<path d="M89.7362 56.2227H102.111C102.286 56.2227 102.427 56.0814 102.427 55.9059C102.427 55.7304 102.286 55.59 102.111 55.59H89.7362C89.5616 55.59 89.4203 55.7313 89.4203 55.9059C89.4203 56.0805 89.5616 56.2227 89.7362 56.2227Z" fill="#C1E3FF"/>
<path d="M91.7495 54.2607H102.11C102.285 54.2607 102.426 54.1194 102.426 53.9448C102.426 53.7703 102.285 53.6281 102.11 53.6281H91.7495C91.5749 53.6281 91.4336 53.7694 91.4336 53.9448C91.4336 54.1203 91.5749 54.2607 91.7495 54.2607Z" fill="#C1E3FF"/>
</g>
<g opacity="0.78">
<path d="M73.2747 69.106C73.1901 69.106 73.1046 69.1375 73.038 69.2005L68.3707 73.6212C67.9648 74.0055 67.4338 74.217 66.874 74.217H50.9884C50.7986 74.217 50.6447 74.3708 50.6447 74.5607C50.6447 74.7506 50.7986 74.9045 50.9884 74.9045H66.874C67.6093 74.9045 68.3095 74.6255 68.8432 74.1198L73.5105 69.699C73.6482 69.5685 73.6545 69.3508 73.524 69.2131C73.4565 69.142 73.3656 69.106 73.2747 69.106Z" fill="#C1E3FF"/>
<path d="M64.4351 76.349H50.9884C50.7986 76.349 50.6447 76.5029 50.6447 76.6928C50.6447 76.8827 50.7986 77.0366 50.9884 77.0366H64.4351C64.625 77.0366 64.7789 76.8827 64.7789 76.6928C64.7789 76.5029 64.625 76.349 64.4351 76.349Z" fill="#C1E3FF"/>
<path d="M62.2472 78.4811H50.9884C50.7986 78.4811 50.6447 78.635 50.6447 78.8249C50.6447 79.0148 50.7986 79.1687 50.9884 79.1687H62.2472C62.4371 79.1687 62.591 79.0148 62.591 78.8249C62.591 78.635 62.4371 78.4811 62.2472 78.4811Z" fill="#C1E3FF"/>
</g>
<path d="M118.472 13.6707L113.976 23.5146C113.976 23.5146 116.467 39.9618 133.795 46.3715C151.122 52.782 158.833 44.4527 158.833 44.4527L164.347 29.9432L118.473 13.6707H118.472Z" fill="url(#paint20_linear_24_1765)"/>
<path d="M146.8 0.0422837L110.553 6.95594C108.686 7.31233 107.961 9.63788 109.287 11.014C115.759 17.7296 130.438 33.338 135.744 42.1155C136.312 43.0542 137.437 43.4772 138.473 43.146L175.578 31.286C177.257 30.7496 177.803 28.6113 176.59 27.3198C170.195 20.5088 153.898 3.42981 148.386 0.300578C147.905 0.026984 147.343 -0.0621141 146.8 0.0413837L146.8 0.0422837Z" fill="url(#paint21_linear_24_1765)"/>
<path d="M144.397 18.5352C144.397 18.5352 162.183 32.2977 163.376 35.1866C164.57 38.0755 160.57 50.3657 160.57 50.3657C162.601 61.251 162.023 72.8238 156.478 78.41C156.478 78.41 151.53 63.8924 154.809 58.2522C158.09 52.612 159.367 50.2937 159.367 50.2937C159.367 50.2937 162.962 37.1315 162.367 35.1515C162.367 35.1515 142.73 19.1579 144.397 18.5352Z" fill="#186CAF"/>
<path d="M114.987 10.7449L131.455 30.4446L135.572 35.3693L136.602 36.6004L137.117 37.216C137.282 37.4113 137.459 37.5868 137.657 37.7443C138.448 38.368 139.526 38.6092 140.509 38.3725L152.979 35.3252C153.066 35.3036 153.154 35.3576 153.175 35.4449C153.197 35.5313 153.143 35.6195 153.057 35.6411L140.605 38.773C139.504 39.0466 138.287 38.7847 137.391 38.0863C137.168 37.9126 136.964 37.7101 136.782 37.4986L136.263 36.8866L135.226 35.6627L131.076 30.765L114.476 11.176C114.356 11.0347 114.374 10.8232 114.514 10.7035C114.656 10.5838 114.867 10.6018 114.987 10.7422L114.989 10.744L114.987 10.7449Z" fill="#C1E3FF"/>
<path d="M158.597 56.6592L158.556 56.697L158.509 56.7447L158.414 56.841L158.229 57.0525C158.108 57.1956 157.998 57.3531 157.881 57.5034L157.566 57.9858C157.468 58.1514 157.378 58.3233 157.283 58.4916C157.184 58.6581 157.108 58.8363 157.026 59.0127C156.947 59.19 156.86 59.3637 156.787 59.5437L156.583 60.0918C156.517 60.2754 156.442 60.4553 156.393 60.6452L156.231 61.2095C156.178 61.3976 156.117 61.5839 156.083 61.7774C156.005 62.1617 155.918 62.5451 155.845 62.9303L155.688 64.1003C155.676 64.1984 155.659 64.2947 155.651 64.3937L155.632 64.6889L155.594 65.2792C155.519 66.0658 155.558 66.8569 155.552 67.648C155.547 67.846 155.563 68.0431 155.576 68.2411L155.616 68.8333C155.645 69.2284 155.664 69.6244 155.699 70.0185C155.804 70.8042 155.892 71.5926 156.01 72.3774L156.446 74.7191V74.7254C156.458 74.7884 156.417 74.8496 156.354 74.8613C156.292 74.873 156.231 74.8325 156.219 74.7704L155.727 72.426C155.591 71.6394 155.483 70.8465 155.36 70.0563C155.316 69.6586 155.286 69.2599 155.249 68.8612L155.195 68.2627C155.176 68.0629 155.156 67.864 155.156 67.6633C155.143 66.8623 155.087 66.0595 155.144 65.2567L155.169 64.6547L155.182 64.3532C155.188 64.2533 155.203 64.1534 155.213 64.0526L155.347 62.852C155.412 62.4542 155.492 62.0582 155.564 61.6604C155.594 61.4606 155.653 61.2662 155.703 61.07L155.858 60.4823C155.903 60.2843 155.977 60.0945 156.041 59.9028L156.24 59.3268C156.312 59.1369 156.4 58.9515 156.479 58.7634C156.56 58.5762 156.636 58.3872 156.737 58.2081C156.833 58.0272 156.924 57.8436 157.025 57.6645L157.351 57.1389C157.474 56.9715 157.589 56.7996 157.721 56.6358L157.923 56.3928L158.035 56.274L158.092 56.2146L158.16 56.1507C158.295 56.0238 158.506 56.0301 158.633 56.1651C158.76 56.3001 158.754 56.5116 158.619 56.6385C158.618 56.6394 158.617 56.6403 158.615 56.6412L158.596 56.6592H158.597Z" fill="#C1E3FF"/>
<path d="M158.723 61.6747L158.655 62.4352L158.588 63.2785L158.463 64.9696L158.227 68.3544L157.774 75.1268C157.768 75.2267 157.681 75.3032 157.58 75.2969C157.481 75.2906 157.406 75.206 157.41 75.107L157.711 68.3247L157.871 64.9336L157.958 63.2371L158.006 62.3875L158.034 61.96L158.049 61.7458C158.058 61.6567 158.073 61.5532 158.09 61.4587C158.121 61.2814 158.29 61.1626 158.467 61.1941C158.635 61.2238 158.75 61.3768 158.735 61.5433L158.723 61.6747Z" fill="#C1E3FF"/>
<path d="M22.5517 103.672C22.2385 104.136 20.9921 114.64 20.7977 118.518C20.7842 118.78 20.9948 119 21.2567 119C21.4835 119 21.6761 118.835 21.7112 118.611L23.9899 104.006L22.5517 103.672Z" fill="url(#paint22_linear_24_1765)"/>
<path d="M32.5694 103.672C32.8826 104.136 34.1291 114.64 34.3235 118.518C34.337 118.78 34.1273 119 33.8645 119C33.6377 119 33.4451 118.835 33.41 118.611L31.1313 104.006L32.5694 103.672Z" fill="url(#paint23_linear_24_1765)"/>
<path d="M20.6672 102.853V102.968C20.6582 103.792 21.3683 104.468 22.2574 104.482L32.7917 104.661C33.6674 104.677 34.3982 104.043 34.4405 103.232L34.4459 103.128C34.49 102.282 33.7718 101.569 32.8583 101.553L22.3195 101.364C21.4178 101.348 20.6753 102.017 20.6672 102.853Z" fill="url(#paint24_linear_24_1765)"/>
<path d="M41.1597 118.138C39.2869 118.138 38.4589 117.978 38.0881 117.831C38.1601 118.139 38.4337 118.381 38.7802 118.381H45.405C45.6281 118.381 45.7685 118.167 45.7154 117.974C44.9604 118.034 43.3566 118.138 41.1597 118.138Z" fill="#5770CA"/>
<path d="M45.7154 117.974C45.7046 117.935 45.6893 117.897 45.6614 117.861C45.1565 117.217 44.1432 116.205 42.7644 116.224C40.7439 116.253 40.0402 116.472 38.4706 116.237L38.1007 117.465C38.0629 117.59 38.062 117.715 38.0899 117.831C38.4607 117.978 39.2887 118.138 41.1615 118.138C43.3584 118.138 44.9622 118.035 45.7172 117.974H45.7154Z" fill="url(#paint25_linear_24_1765)"/>
<path d="M38.9242 114.914L38.4697 116.46C38.4697 116.46 39.4768 116.918 40.3624 116.55L40.5361 115.211L38.9242 114.914Z" fill="url(#paint26_linear_24_1765)"/>
<path d="M52.6543 117.164C51.1945 118.337 50.4484 118.731 50.0686 118.85C50.3161 119.043 50.6815 119.06 50.9515 118.843L56.1156 114.694C56.2893 114.555 56.2659 114.301 56.1039 114.184C55.5531 114.704 54.3669 115.789 52.6543 117.165V117.164Z" fill="#5770CA"/>
<path d="M56.1039 114.183C56.0715 114.16 56.0346 114.14 55.9914 114.13C55.1967 113.947 53.7757 113.796 52.7128 114.675C51.1558 115.962 50.7436 116.574 49.373 117.374L49.849 118.558C49.8976 118.679 49.975 118.776 50.0686 118.849C50.4484 118.73 51.1945 118.336 52.6543 117.163C54.367 115.787 55.5531 114.703 56.1039 114.182V114.183Z" fill="url(#paint27_linear_24_1765)"/>
<path d="M29.1999 97.2996C29.1999 97.2996 40.411 98.2148 42.7113 99.2975C45.0108 100.38 40.8349 115.555 40.8349 115.555C40.8349 115.555 40.2085 115.856 38.8153 115.423C38.8153 115.423 40.2436 104.226 39.1807 101.798L27.0417 99.8123L29.1999 97.3005V97.2996Z" fill="#6A9DC7"/>
<path d="M48.2588 115.243C48.3632 115.337 49.373 117.374 49.373 117.374C49.373 117.374 50.497 117.131 50.7265 116.419L49.715 114.58L48.2588 115.242V115.243Z" fill="url(#paint28_linear_24_1765)"/>
<path d="M22.4473 97.2061C22.4473 97.2061 22.0819 98.0853 22.0972 99.2535C22.1179 100.869 23.4166 102.18 25.0303 102.26L38.2834 102.865C38.5633 102.878 38.8 103.071 38.8702 103.343C39.1816 104.548 40.7043 108.247 48.1454 115.629C48.3434 115.825 48.6521 115.858 48.8879 115.71L49.9471 115.041C50.0587 114.971 50.0938 114.825 50.0272 114.712L42.3108 101.534C41.9058 100.865 41.2542 100.382 40.4965 100.189L29.2008 97.3015L22.4482 97.2079L22.4473 97.2061Z" fill="url(#paint29_linear_24_1765)"/>
<path d="M35.5088 76.6217C35.5088 76.6217 34.0886 79.1318 32.6414 80.3485L35.6339 82.018C35.6339 82.018 36.3079 79.3603 37.8487 78.5819L35.5097 76.6217H35.5088Z" fill="url(#paint30_linear_24_1765)"/>
<path d="M22.207 97.2996C22.207 97.2996 25.7854 98.1717 29.1999 97.2996C29.1999 97.2996 33.9788 90.8755 35.8273 89.1269C35.8273 89.1269 38.7766 93.7807 45.3401 94.4395L45.7064 93.6214C45.7064 93.6214 40.4811 91.2121 38.872 87.5114C37.2628 83.8098 36.6175 82.2312 35.1533 81.2655C34.2416 80.6644 33.6962 80.2531 33.4136 80.029C33.2588 79.9066 33.0464 79.8922 32.8772 79.9948C31.3238 80.9416 24.016 85.9463 22.2052 97.2987L22.207 97.2996Z" fill="url(#paint31_linear_24_1765)"/>
<path d="M35.6338 88.9748C35.5834 88.9748 35.5339 88.9523 35.5006 88.9091C34.3667 87.4304 33.7349 85.8014 33.7088 85.7321C33.6755 85.6457 33.7187 85.5485 33.8051 85.5161C33.8915 85.4828 33.9887 85.526 34.0211 85.6124C34.0274 85.6286 34.6628 87.2666 35.7661 88.7057C35.8228 88.7795 35.8084 88.8839 35.7355 88.9406C35.7049 88.964 35.6689 88.9748 35.6338 88.9748Z" fill="url(#paint32_linear_24_1765)"/>
<path d="M44.946 93.1949L45.6848 92.9978L47.9285 92.4785C48.1985 92.4164 48.482 92.4641 48.7169 92.6117L50.6455 93.8248L45.3185 93.8158L44.946 93.1949Z" fill="url(#paint33_linear_24_1765)"/>
<path d="M37.7632 72.8571C37.7632 72.8571 39.1429 75.1511 39.3823 76.4183C39.6217 77.6864 40.006 78.4783 38.5633 78.9301C37.1206 79.3819 35.7796 78.8104 34.9382 77.627C34.9382 77.627 33.6242 75.8063 33.7547 74.972C33.8852 74.1377 37.7632 72.8571 37.7632 72.8571Z" fill="url(#paint34_linear_24_1765)"/>
<path d="M35.3225 76.6459L35.5087 76.6216C35.5087 76.6216 34.5314 75.1457 35.1713 74.7794C35.8102 74.4131 38.4157 73.5149 38.8684 72.4889C39.3049 71.4999 38.6524 70.3821 37.8658 70.149C37.8163 70.1346 37.7632 70.1634 37.7452 70.212L37.6993 70.3362C37.6678 70.4217 37.5481 70.4253 37.5121 70.3416C37.4779 70.2624 37.3645 70.2588 37.3285 70.338C37.189 70.6458 36.7714 71.1705 35.5187 71.5763C33.7412 72.1523 32.6333 73.0487 32.7701 74.3123C32.7791 74.3924 32.699 74.4473 32.6252 74.4149C32.4803 74.351 32.2598 74.3402 32.0042 74.6201C31.5596 75.107 31.9079 76.1708 33.1229 76.924C33.1805 76.96 33.1913 77.041 33.1391 77.0851C32.9573 77.2408 32.7017 77.5882 33.5234 77.8969C34.364 78.2137 34.823 78.1066 34.9931 78.0382C35.039 78.0202 35.0651 77.9725 35.0552 77.9248L34.8392 76.8178C34.8284 76.7602 34.8671 76.7053 34.9256 76.6981L35.3234 76.6459H35.3225Z" fill="url(#paint35_linear_24_1765)"/>
<path d="M35.399 76.8737C35.399 76.8737 34.7897 75.3725 34.1507 75.8999C33.5117 76.4273 34.742 77.5937 35.3099 77.5784L35.399 76.8737Z" fill="url(#paint36_linear_24_1765)"/>
<path d="M42.8877 94.8697C42.8967 94.8697 42.9048 94.8697 42.9138 94.8697L54.2932 94.858C54.5749 94.858 54.8025 94.6303 54.8016 94.3495C54.8016 94.0687 54.5721 93.8365 54.2914 93.8419L42.912 93.8536C42.6303 93.8536 42.4026 94.0813 42.4035 94.3621C42.4035 94.6339 42.6186 94.8562 42.8877 94.8697Z" fill="url(#paint37_linear_24_1765)"/>
<path d="M58.7003 83.7261C58.6958 83.7342 58.6922 83.7414 58.6886 83.7495L53.9007 94.0723C53.782 94.3279 53.8927 94.6303 54.1473 94.7482C54.402 94.8661 54.7089 94.7563 54.8232 94.4998L59.6111 84.177C59.7299 83.9214 59.6192 83.619 59.3645 83.5011C59.1179 83.3868 58.8263 83.4876 58.7003 83.7261Z" fill="url(#paint38_linear_24_1765)"/>
<path d="M47.9546 95.4412C47.9051 95.6473 43.1568 113.454 41.9526 117.969C41.814 118.49 42.201 119.001 42.7338 119.001C43.1055 119.001 43.4286 118.745 43.5186 118.381L48.7889 97.0107L47.9537 95.4421L47.9546 95.4412Z" fill="#94CFFF"/>
<path d="M50.5546 95.4412C50.6041 95.6473 55.3524 113.454 56.5566 117.969C56.6952 118.49 56.3082 119.001 55.7754 119.001C55.4037 119.001 55.0807 118.745 54.9907 118.381L49.7204 97.0107L50.5555 95.4421L50.5546 95.4412Z" fill="#94CFFF"/>
<path d="M50.7526 94.8589H47.7953V97.2339C47.7953 97.575 48.0689 97.8522 48.4055 97.8522H48.8114V103.186C48.8114 103.445 49.0184 103.654 49.274 103.654C49.5296 103.654 49.7365 103.445 49.7365 103.186V97.8522H49.9426C50.3899 97.8522 50.7526 97.485 50.7526 97.0323V94.8598V94.8589Z" fill="#94CFFF"/>
<path d="M40.5243 94.2883H57.0363C57.2667 94.2883 57.4683 94.4466 57.5259 94.6725L57.7563 95.5761C57.8391 95.901 57.5952 96.2178 57.2631 96.216L40.3201 96.117C39.9916 96.1152 39.7522 95.802 39.8323 95.4798L40.033 94.6743C40.0897 94.4466 40.2921 94.2874 40.5234 94.2874L40.5243 94.2883Z" fill="#C1E3FF"/>
<path d="M135.297 83.5345C135.273 83.5813 133.72 84.7233 133.72 84.7233C133.72 84.7233 134.063 87.1758 135.455 88.1451C136.986 89.2097 139.148 87.2676 139.148 87.2676C139.148 87.2676 140.869 87.6762 141.783 84.0952C141.993 83.2735 140.781 83.2042 139.319 83.3554C137.433 83.5507 135.297 83.5336 135.297 83.5336V83.5345Z" fill="url(#paint39_linear_24_1765)"/>
<path d="M132.395 91.9034C133.003 91.4858 133.674 91.1708 134.386 90.9773C134.653 90.9044 136.097 91.3238 136.99 91.304C138.215 91.2761 139.462 90.7181 140.472 90.9701C141.475 91.2203 142.296 91.547 142.77 91.8836C144.19 92.8925 145.022 94.7743 145.531 96.6391C144.569 97.6264 143.36 98.0646 143.36 98.0646L143.137 107.126L137.779 109.867L131.664 106.797L131.882 97.9422C131.882 97.9422 129.94 97.0378 129.798 96.7093C129.656 96.3799 130.683 93.0832 132.396 91.9052L132.395 91.9034Z" fill="#C1E3FF"/>
<path d="M129.887 96.668C129.887 96.668 127.285 103.882 133.219 106.848C134.451 106.684 133.977 104.637 133.977 104.637C133.977 104.637 131.399 104.067 132.173 98.0485C131.46 97.4617 129.887 96.668 129.887 96.668Z" fill="url(#paint40_linear_24_1765)"/>
<path d="M145.405 96.668C145.405 96.668 147.195 104.199 142.073 106.848C140.841 106.684 141.314 104.637 141.314 104.637C141.314 104.637 143.392 103.614 143.119 98.0485C143.831 97.4617 145.405 96.668 145.405 96.668Z" fill="url(#paint41_linear_24_1765)"/>
<path d="M142.591 99.42H132.341C131.927 99.42 131.592 99.7557 131.592 100.17V106.605C131.592 107.019 131.927 107.354 132.341 107.354H142.591C143.005 107.354 143.341 107.019 143.341 106.605V100.17C143.341 99.7557 143.005 99.42 142.591 99.42Z" fill="url(#paint42_linear_24_1765)"/>
<path d="M148.494 109.707C147.15 109.398 144.042 109.564 144.042 109.564L143.916 109.906L143.706 111.608C143.706 111.608 146.665 112.141 148.124 112.14C148.273 112.14 148.41 112.117 148.534 112.078C148.578 112.039 148.622 111.997 148.662 111.952C149.282 111.276 149.103 110.284 148.494 109.707Z" fill="#94CFFF"/>
<path d="M143.148 109.468L143.675 109.491C143.957 109.503 144.224 109.64 144.414 109.873C144.604 110.106 144.702 110.413 144.685 110.727C144.671 110.977 144.568 111.21 144.4 111.375C144.231 111.541 144.01 111.626 143.785 111.609L142.979 111.552L143.148 109.468Z" fill="url(#paint43_linear_24_1765)"/>
<path d="M125.454 109.543C126.806 109.276 129.908 109.537 129.908 109.537L130.026 109.883L130.192 111.591C130.192 111.591 127.22 112.033 125.762 111.987C125.614 111.982 125.478 111.955 125.355 111.913C125.312 111.871 125.269 111.829 125.229 111.782C124.627 111.087 124.83 110.1 125.454 109.542V109.543Z" fill="#94CFFF"/>
<path d="M130.803 109.468L130.277 109.475C129.994 109.478 129.724 109.608 129.528 109.834C129.332 110.061 129.226 110.365 129.235 110.678C129.243 110.928 129.339 111.165 129.504 111.336C129.668 111.507 129.888 111.598 130.113 111.589L130.919 111.556L130.802 109.468H130.803Z" fill="url(#paint44_linear_24_1765)"/>
<path d="M148.869 104.373C148.259 102.97 146.768 102.742 145.499 103.398C145.477 103.427 137.438 107.547 130.349 109.353C130.551 110.004 130.656 110.696 130.679 111.376C130.684 111.528 130.681 111.678 130.672 111.825C136.109 111.546 142.009 109.733 147.079 108.14C148.651 107.633 149.545 105.93 148.869 104.374V104.373Z" fill="url(#paint45_linear_24_1765)"/>
<path d="M143.187 111.483C143.165 110.698 143.318 109.968 143.644 109.292C143.653 109.261 143.665 109.232 143.675 109.201C143.27 109.076 142.747 108.906 142.06 108.673C137.026 106.95 133.186 105.211 129.52 103.208C128.096 102.431 126.477 102.952 126.021 104.636C125.614 106.14 126.508 107.425 127.864 107.876C131.921 109.226 129.809 108.851 131.134 109.278C134.692 110.378 139.121 111.38 143.195 111.654C143.192 111.598 143.189 111.54 143.187 111.483V111.483Z" fill="url(#paint46_linear_24_1765)"/>
<path d="M134.386 90.9764C134.386 90.9764 134.928 93.3227 137.556 93.2741C140.233 93.2255 140.472 90.9692 140.472 90.9692L138.723 90.5948L138.577 88.6464L135.947 88.8417L135.898 90.6929L134.386 90.9773V90.9764Z" fill="url(#paint47_linear_24_1765)"/>
<path d="M136.316 83.125C136.316 83.125 133.301 88.965 136.877 90.3815C139.4 91.3805 140.981 86.5035 140.51 85.1824C139.781 83.1394 139.3 83.3824 139.3 83.3824L136.316 83.125Z" fill="url(#paint48_linear_24_1765)"/>
<path d="M141.235 82.594C142.724 83.0035 141.452 86.2335 139.209 85.4695C136.966 84.7054 136.085 84.7171 135.736 85.3327C135.387 85.9482 135.311 88.1352 134.553 87.0543C133.722 85.869 133.258 83.4913 134.278 82.7245C135.189 82.0396 135.401 80.9767 136.494 81.0136C137.944 81.0622 139.065 80.4197 139.719 80.8831C140.471 81.4159 140.139 82.2925 141.235 82.594Z" fill="url(#paint49_linear_24_1765)"/>
<path d="M135.598 85.8349C135.598 85.8349 134.956 85.1428 134.852 85.9771C134.75 86.8104 135.08 87.885 135.467 87.2964C135.854 86.7078 135.598 85.8358 135.598 85.8358V85.8349Z" fill="url(#paint50_linear_24_1765)"/>
<path d="M138.159 101.568C138.221 101.989 137.996 102.371 137.575 102.434C137.153 102.496 136.762 102.205 136.7 101.784C136.638 101.363 136.83 100.945 137.252 100.882C137.673 100.82 138.098 101.147 138.16 101.568H138.159Z" fill="url(#paint51_linear_24_1765)"/>
</g>
<defs>
<linearGradient id="paint0_linear_24_1765" x1="14.7858" y1="82.5662" x2="60.2294" y2="82.5662" gradientUnits="userSpaceOnUse">
<stop stop-color="#DAE3FE"/>
<stop offset="1" stop-color="#E9EFFD"/>
</linearGradient>
<linearGradient id="paint1_linear_24_1765" x1="13.8138" y1="91.9367" x2="64.7302" y2="91.9367" gradientUnits="userSpaceOnUse">
<stop stop-color="#DAE3FE"/>
<stop offset="1" stop-color="#E9EFFD"/>
</linearGradient>
<linearGradient id="paint2_linear_24_1765" x1="13.8138" y1="94.4062" x2="63.5351" y2="94.4062" gradientUnits="userSpaceOnUse">
<stop stop-color="#DAE3FE"/>
<stop offset="1" stop-color="#E9EFFD"/>
</linearGradient>
<linearGradient id="paint3_linear_24_1765" x1="13.8138" y1="96.2242" x2="62.9213" y2="96.2242" gradientUnits="userSpaceOnUse">
<stop stop-color="#DAE3FE"/>
<stop offset="1" stop-color="#E9EFFD"/>
</linearGradient>
<linearGradient id="paint4_linear_24_1765" x1="68.4174" y1="95.8678" x2="8.15382" y2="95.8678" gradientUnits="userSpaceOnUse">
<stop stop-color="#4042E2"/>
<stop offset="1" stop-color="#4F52FF"/>
</linearGradient>
<linearGradient id="paint5_linear_24_1765" x1="148.666" y1="4.62686" x2="-22.8766" y2="200.558" gradientUnits="userSpaceOnUse">
<stop stop-color="#46A1EB"/>
<stop offset="1" stop-color="#55B3FF"/>
</linearGradient>
<linearGradient id="paint6_linear_24_1765" x1="29.6877" y1="69.3821" x2="30.1017" y2="69.3821" gradientUnits="userSpaceOnUse">
<stop stop-color="#DAE3FE"/>
<stop offset="1" stop-color="#E9EFFD"/>
</linearGradient>
<linearGradient id="paint7_linear_24_1765" x1="29.271" y1="43.7696" x2="72.6708" y2="43.7696" gradientUnits="userSpaceOnUse">
<stop stop-color="#DAE3FE"/>
<stop offset="1" stop-color="#E9EFFD"/>
</linearGradient>
<linearGradient id="paint8_linear_24_1765" x1="41.7492" y1="67.1269" x2="144.465" y2="67.1269" gradientUnits="userSpaceOnUse">
<stop stop-color="#DAE3FE"/>
<stop offset="1" stop-color="#E9EFFD"/>
</linearGradient>
<linearGradient id="paint9_linear_24_1765" x1="91.7927" y1="57.1623" x2="4.04722" y2="109.205" gradientUnits="userSpaceOnUse">
<stop stop-color="#449DE4"/>
<stop offset="1" stop-color="#64BAFF"/>
</linearGradient>
<linearGradient id="paint10_linear_24_1765" x1="110.967" y1="53.5498" x2="136.752" y2="53.5498" gradientUnits="userSpaceOnUse">
<stop stop-color="#DAE3FE"/>
<stop offset="1" stop-color="#E9EFFD"/>
</linearGradient>
<linearGradient id="paint11_linear_24_1765" x1="110.967" y1="69.3598" x2="136.752" y2="69.3598" gradientUnits="userSpaceOnUse">
<stop stop-color="#DAE3FE"/>
<stop offset="1" stop-color="#E9EFFD"/>
</linearGradient>
<linearGradient id="paint12_linear_24_1765" x1="110.967" y1="85.1698" x2="136.752" y2="85.1698" gradientUnits="userSpaceOnUse">
<stop stop-color="#DAE3FE"/>
<stop offset="1" stop-color="#E9EFFD"/>
</linearGradient>
<linearGradient id="paint13_linear_24_1765" x1="41.7492" y1="43.9092" x2="144.465" y2="43.9092" gradientUnits="userSpaceOnUse">
<stop stop-color="#DAE3FE"/>
<stop offset="1" stop-color="#E9EFFD"/>
</linearGradient>
<linearGradient id="paint14_linear_24_1765" x1="93.5936" y1="77.5783" x2="104.94" y2="77.5783" gradientUnits="userSpaceOnUse">
<stop stop-color="#DAE3FE"/>
<stop offset="1" stop-color="#E9EFFD"/>
</linearGradient>
<linearGradient id="paint15_linear_24_1765" x1="97.2754" y1="77.5378" x2="103.168" y2="77.5378" gradientUnits="userSpaceOnUse">
<stop stop-color="#DAE3FE"/>
<stop offset="1" stop-color="#E9EFFD"/>
</linearGradient>
<linearGradient id="paint16_linear_24_1765" x1="91.5677" y1="69.4028" x2="58.757" y2="74.2521" gradientUnits="userSpaceOnUse">
<stop stop-color="#FE7062"/>
<stop offset="1" stop-color="#FF928E"/>
</linearGradient>
<linearGradient id="paint17_linear_24_1765" x1="93.4434" y1="43.2597" x2="69.3221" y2="69.1315" gradientUnits="userSpaceOnUse">
<stop stop-color="#E1473D"/>
<stop offset="1" stop-color="#E9605A"/>
</linearGradient>
<linearGradient id="paint18_linear_24_1765" x1="72.228" y1="60.7101" x2="86.4639" y2="60.7101" gradientUnits="userSpaceOnUse">
<stop stop-color="#FE7062"/>
<stop offset="1" stop-color="#FF928E"/>
</linearGradient>
<linearGradient id="paint19_linear_24_1765" x1="64.3226" y1="49.8769" x2="70.5615" y2="82.4499" gradientUnits="userSpaceOnUse">
<stop stop-color="#FE7062"/>
<stop offset="1" stop-color="#FF928E"/>
</linearGradient>
<linearGradient id="paint20_linear_24_1765" x1="141.559" y1="14.9612" x2="132.648" y2="58.7048" gradientUnits="userSpaceOnUse">
<stop stop-color="#003057"/>
<stop offset="1" stop-color="#0E5996"/>
</linearGradient>
<linearGradient id="paint21_linear_24_1765" x1="157.418" y1="-9.82601" x2="140.677" y2="23.6569" gradientUnits="userSpaceOnUse">
<stop stop-color="#00345E"/>
<stop offset="1" stop-color="#115994"/>
</linearGradient>
<linearGradient id="paint22_linear_24_1765" x1="20.7968" y1="111.337" x2="23.9899" y2="111.337" gradientUnits="userSpaceOnUse">
<stop stop-color="#FE7062"/>
<stop offset="1" stop-color="#FF928E"/>
</linearGradient>
<linearGradient id="paint23_linear_24_1765" x1="31.1313" y1="111.337" x2="34.3244" y2="111.337" gradientUnits="userSpaceOnUse">
<stop stop-color="#FE7062"/>
<stop offset="1" stop-color="#FF928E"/>
</linearGradient>
<linearGradient id="paint24_linear_24_1765" x1="20.6654" y1="103.013" x2="34.4468" y2="103.013" gradientUnits="userSpaceOnUse">
<stop stop-color="#FE7062"/>
<stop offset="1" stop-color="#FF928E"/>
</linearGradient>
<linearGradient id="paint25_linear_24_1765" x1="43.9731" y1="103.418" x2="41.886" y2="117.837" gradientUnits="userSpaceOnUse">
<stop stop-color="#4042E2"/>
<stop offset="1" stop-color="#4F52FF"/>
</linearGradient>
<linearGradient id="paint26_linear_24_1765" x1="38.4697" y1="115.804" x2="40.5361" y2="115.804" gradientUnits="userSpaceOnUse">
<stop stop-color="#FF928E"/>
<stop offset="1" stop-color="#FEB3B1"/>
</linearGradient>
<linearGradient id="paint27_linear_24_1765" x1="54.3112" y1="104.914" x2="52.2241" y2="119.334" gradientUnits="userSpaceOnUse">
<stop stop-color="#4042E2"/>
<stop offset="1" stop-color="#4F52FF"/>
</linearGradient>
<linearGradient id="paint28_linear_24_1765" x1="48.2588" y1="115.978" x2="50.7265" y2="115.978" gradientUnits="userSpaceOnUse">
<stop stop-color="#FF928E"/>
<stop offset="1" stop-color="#FEB3B1"/>
</linearGradient>
<linearGradient id="paint29_linear_24_1765" x1="23.4049" y1="93.2758" x2="43.3845" y2="110.736" gradientUnits="userSpaceOnUse">
<stop stop-color="#1467AA"/>
<stop offset="1" stop-color="#1A0F91"/>
</linearGradient>
<linearGradient id="paint30_linear_24_1765" x1="37.0189" y1="75.7676" x2="31.619" y2="87.0174" gradientUnits="userSpaceOnUse">
<stop stop-color="#FF928E"/>
<stop offset="1" stop-color="#FEB3B1"/>
</linearGradient>
<linearGradient id="paint31_linear_24_1765" x1="35.2586" y1="91.4047" x2="26.6187" y2="109.224" gradientUnits="userSpaceOnUse">
<stop stop-color="#FE7062"/>
<stop offset="1" stop-color="#FF928E"/>
</linearGradient>
<linearGradient id="paint32_linear_24_1765" x1="39.2077" y1="78.3226" x2="37.2673" y2="82.2042" gradientUnits="userSpaceOnUse">
<stop stop-color="#E1473D"/>
<stop offset="1" stop-color="#E9605A"/>
</linearGradient>
<linearGradient id="paint33_linear_24_1765" x1="44.946" y1="93.1382" x2="50.6455" y2="93.1382" gradientUnits="userSpaceOnUse">
<stop stop-color="#FF928E"/>
<stop offset="1" stop-color="#FEB3B1"/>
</linearGradient>
<linearGradient id="paint34_linear_24_1765" x1="31.0471" y1="40.6569" x2="32.1535" y2="47.6825" gradientUnits="userSpaceOnUse">
<stop stop-color="#FF928E"/>
<stop offset="1" stop-color="#FEB3B1"/>
</linearGradient>
<linearGradient id="paint35_linear_24_1765" x1="33.5327" y1="71.8929" x2="39.9453" y2="78.2317" gradientUnits="userSpaceOnUse">
<stop stop-color="#09005D"/>
<stop offset="1" stop-color="#1A0F91"/>
</linearGradient>
<linearGradient id="paint36_linear_24_1765" x1="29.0711" y1="40.9688" x2="30.1776" y2="47.9943" gradientUnits="userSpaceOnUse">
<stop stop-color="#FF928E"/>
<stop offset="1" stop-color="#FEB3B1"/>
</linearGradient>
<linearGradient id="paint37_linear_24_1765" x1="-1176.44" y1="-1213.05" x2="-1156.29" y2="-1191.54" gradientUnits="userSpaceOnUse">
<stop stop-color="#09005D"/>
<stop offset="1" stop-color="#1A0F91"/>
</linearGradient>
<linearGradient id="paint38_linear_24_1765" x1="1758.25" y1="-470.242" x2="1730.25" y2="-461.039" gradientUnits="userSpaceOnUse">
<stop stop-color="#09005D"/>
<stop offset="1" stop-color="#1A0F91"/>
</linearGradient>
<linearGradient id="paint39_linear_24_1765" x1="137.28" y1="119.16" x2="137.217" y2="123.649" gradientUnits="userSpaceOnUse">
<stop stop-color="#09005D"/>
<stop offset="1" stop-color="#1A0F91"/>
</linearGradient>
<linearGradient id="paint40_linear_24_1765" x1="128.558" y1="94.7285" x2="138.738" y2="119.322" gradientUnits="userSpaceOnUse">
<stop stop-color="#FF928E"/>
<stop offset="1" stop-color="#FEB3B1"/>
</linearGradient>
<linearGradient id="paint41_linear_24_1765" x1="146.606" y1="94.6754" x2="136.425" y2="119.269" gradientUnits="userSpaceOnUse">
<stop stop-color="#FF928E"/>
<stop offset="1" stop-color="#FEB3B1"/>
</linearGradient>
<linearGradient id="paint42_linear_24_1765" x1="137.601" y1="97.9198" x2="137.073" y2="119.302" gradientUnits="userSpaceOnUse">
<stop stop-color="#09005D"/>
<stop offset="1" stop-color="#1A0F91"/>
</linearGradient>
<linearGradient id="paint43_linear_24_1765" x1="147.385" y1="100.772" x2="141.511" y2="116.68" gradientUnits="userSpaceOnUse">
<stop stop-color="#FF928E"/>
<stop offset="1" stop-color="#FEB3B1"/>
</linearGradient>
<linearGradient id="paint44_linear_24_1765" x1="135.618" y1="95.9785" x2="129.742" y2="111.895" gradientUnits="userSpaceOnUse">
<stop stop-color="#FF928E"/>
<stop offset="1" stop-color="#FEB3B1"/>
</linearGradient>
<linearGradient id="paint45_linear_24_1765" x1="143.059" y1="101.577" x2="131.449" y2="123.04" gradientUnits="userSpaceOnUse">
<stop stop-color="#E1473D"/>
<stop offset="1" stop-color="#E9605A"/>
</linearGradient>
<linearGradient id="paint46_linear_24_1765" x1="134.799" y1="97.99" x2="134.799" y2="106.764" gradientUnits="userSpaceOnUse">
<stop stop-color="#E1473D"/>
<stop offset="1" stop-color="#E9605A"/>
</linearGradient>
<linearGradient id="paint47_linear_24_1765" x1="137.842" y1="86.8446" x2="136.882" y2="96.4438" gradientUnits="userSpaceOnUse">
<stop stop-color="#FF928E"/>
<stop offset="1" stop-color="#FEB3B1"/>
</linearGradient>
<linearGradient id="paint48_linear_24_1765" x1="137.54" y1="83.6695" x2="138.199" y2="89.9091" gradientUnits="userSpaceOnUse">
<stop stop-color="#FF928E"/>
<stop offset="1" stop-color="#FEB3B1"/>
</linearGradient>
<linearGradient id="paint49_linear_24_1765" x1="137.297" y1="119.161" x2="137.235" y2="123.649" gradientUnits="userSpaceOnUse">
<stop stop-color="#09005D"/>
<stop offset="1" stop-color="#1A0F91"/>
</linearGradient>
<linearGradient id="paint50_linear_24_1765" x1="134.996" y1="83.9386" x2="135.657" y2="90.1782" gradientUnits="userSpaceOnUse">
<stop stop-color="#FF928E"/>
<stop offset="1" stop-color="#FEB3B1"/>
</linearGradient>
<linearGradient id="paint51_linear_24_1765" x1="137.541" y1="96.2664" x2="137.199" y2="112.64" gradientUnits="userSpaceOnUse">
<stop stop-color="#4042E2"/>
<stop offset="1" stop-color="#4F52FF"/>
</linearGradient>
<clipPath id="clip0_24_1765">
<rect width="177.245" height="119" fill="white"/>
</clipPath>
</defs>
</svg>
