<svg width="171" height="119" viewBox="0 0 171 119" fill="none" xmlns="http://www.w3.org/2000/svg">
<g clip-path="url(#clip0_24_1504)">
<path d="M140.153 26.6145H26.8498C25.8519 26.6145 25.0429 27.4235 25.0429 28.4214V93.2607C25.0429 94.2586 25.8519 95.0676 26.8498 95.0676H140.153C141.151 95.0676 141.96 94.2586 141.96 93.2607V28.4214C141.96 27.4235 141.151 26.6145 140.153 26.6145Z" fill="#1467AA"/>
<path d="M138.111 29.4379H28.892C28.3255 29.4379 27.8662 29.8971 27.8662 30.4637V88.0815C27.8662 88.648 28.3255 89.1073 28.892 89.1073H138.111C138.677 89.1073 139.137 88.648 139.137 88.0815V30.4637C139.137 29.8971 138.677 29.4379 138.111 29.4379Z" fill="white"/>
<path d="M83.5014 84.5899C96.5491 84.5899 107.126 74.0126 107.126 60.9649C107.126 47.9172 96.5491 37.34 83.5014 37.34C70.4537 37.34 59.8764 47.9172 59.8764 60.9649C59.8764 74.0126 70.4537 84.5899 83.5014 84.5899Z" fill="#D0DDF7"/>
<path d="M21.9059 98.3521H145.097V101.731C145.097 103.102 143.983 104.212 142.616 104.212H24.3873C23.0164 104.212 21.9059 103.098 21.9059 101.731V98.3521Z" fill="#1467AA"/>
<path d="M142.612 102.455H24.3873C23.0164 102.455 21.9059 101.345 21.9059 99.9739V101.731C21.9059 103.101 23.0164 104.212 24.3873 104.212H142.612C143.983 104.212 145.094 103.101 145.094 101.731V99.9739C145.094 101.345 143.983 102.455 142.612 102.455Z" fill="#1467AA"/>
<path d="M66.2791 98.3521H100.721C100.721 99.6476 99.6696 100.699 98.374 100.699H68.6287C67.3332 100.699 66.2822 99.6476 66.2822 98.3521H66.2791Z" fill="#B3C6F2"/>
<path d="M53.204 95.0676H36.1292V98.3521H53.204V95.0676Z" fill="#1467AA"/>
<path d="M130.871 95.0676H113.796V98.3521H130.871V95.0676Z" fill="#1467AA"/>
<path d="M87.0274 90.9518H79.9754C79.3621 90.9518 78.8649 91.4483 78.8649 92.0607C78.8649 92.6732 79.3621 93.1697 79.9754 93.1697H87.0274C87.6407 93.1697 88.1379 92.6732 88.1379 92.0607C88.1379 91.4483 87.6407 90.9518 87.0274 90.9518Z" fill="#D0DDF7"/>
<path d="M83.5014 28.8952C83.9778 28.8952 84.3641 28.5089 84.3641 28.0325C84.3641 27.556 83.9778 27.1698 83.5014 27.1698C83.025 27.1698 82.6387 27.556 82.6387 28.0325C82.6387 28.5089 83.025 28.8952 83.5014 28.8952Z" fill="#2A628F"/>
<mask id="mask0_24_1504" style="mask-type:luminance" maskUnits="userSpaceOnUse" x="59" y="31" width="63" height="54">
<path d="M121.011 53.9944C121.011 59.8513 104.996 72.1798 101.47 76.305C97.1381 81.3744 90.6946 84.5899 83.5045 84.5899C70.4576 84.5899 59.8796 74.0118 59.8796 60.9649C59.8796 47.918 70.4576 31.0847 83.5045 31.0847C96.5514 31.0847 121.014 40.9444 121.014 53.9944H121.011Z" fill="white"/>
</mask>
<g mask="url(#mask0_24_1504)">
<path d="M94.4434 51.0268C95.4347 45.5276 92.9282 47.2812 92.8152 42.3498C92.7023 37.4184 89.421 35.486 89.421 35.486C84.5649 32.0258 80.1071 33.632 77.5818 35.235C77.5818 35.235 74.3005 37.1643 74.1876 42.0988C74.0746 47.0334 71.0819 45.5276 72.0732 51.0268C72.6096 54.0133 68.0327 56.2562 68.268 59.2898C68.497 62.2072 74.5483 65.934 82.5854 66.301C82.714 66.3167 82.8426 66.3261 82.9775 66.3261C83.0716 66.3261 83.1626 66.323 83.2567 66.3198C83.3508 66.3198 83.4418 66.3261 83.5359 66.3261C83.6708 66.3261 83.7994 66.3167 83.928 66.301C91.9651 65.934 98.0164 62.2072 98.2454 59.2898C98.4838 56.2594 93.9038 54.0133 94.4402 51.0268H94.4434Z" fill="#164265"/>
<path d="M107.126 57.7777C107.126 57.7777 109.1 55.4406 109.674 54.7787C110.248 54.1168 111.788 53.6086 112.566 53.5646C113.344 53.5207 114.677 52.1247 115.593 52.04C116.509 51.9553 114.884 54.3426 114.884 54.3426C114.884 54.3426 116.544 54.4618 117.557 54.0948C118.57 53.7278 119.577 52.8212 120.004 52.7082C120.43 52.5953 120.355 53.7027 118.564 55.1237C116.773 56.5448 114.796 56.6452 114.561 56.6483C114.326 56.6515 111.619 57.2005 111.164 57.853C110.709 58.5055 109.586 60.3469 109.586 60.3469L107.126 57.7777Z" fill="#F5B8A5"/>
<path d="M112.566 53.5647C112.24 53.5835 111.779 53.6839 111.311 53.8439C112.855 53.8376 114.881 54.3427 114.881 54.3427C114.881 54.3427 116.503 51.9522 115.59 52.0401C114.677 52.1279 113.341 53.5208 112.563 53.5647H112.566Z" fill="#EA9686"/>
<path d="M110.772 58.4428C110.772 58.4428 104.858 71.3234 101.994 71.5211C100.077 71.6528 95.7452 66.7653 95.7452 66.7653L99.6226 62.1414C99.6226 62.1414 101.248 63.9546 101.797 64.2275C102.346 64.5004 107.123 57.7809 107.123 57.7809L110.768 58.4459L110.772 58.4428Z" fill="#F5B8A5"/>
<path d="M91.8584 54.4839L101.31 62.6653L96.4511 68.4593L86.3028 58.3456L91.8584 54.4839Z" fill="#B3C6F2"/>
<path fill-rule="evenodd" clip-rule="evenodd" d="M92.7023 60.7108L96.451 68.4593L92.9752 64.996L92.7023 60.7108Z" fill="#92ACE0"/>
<path fill-rule="evenodd" clip-rule="evenodd" d="M100.755 63.3271L99.1144 70.0184C98.2956 69.3502 97.4894 68.5785 96.8714 67.9543L100.752 63.3271H100.755Z" fill="#EA9686"/>
<path d="M73.0551 78.9997C73.0551 78.9997 62.0347 71.8316 62.3045 68.9737C62.4833 67.0601 67.9292 61.9374 67.9292 61.9374L70.9219 66.9315C70.9219 66.9315 69.2624 69.0616 68.9017 69.5604C68.5409 70.0591 74.2974 75.5082 74.2974 75.5082L73.0551 78.9997Z" fill="#F5B8A5"/>
<path d="M66.3826 63.4651L69.1997 69.1588C69.4005 68.8953 69.6577 68.5596 69.9149 68.2271L70.6176 66.4233L69.0711 63.8415L66.3826 63.4682V63.4651Z" fill="#EA9686"/>
<path d="M71.518 77.9582C71.6246 77.8547 71.725 77.7229 71.816 77.5567C72.3116 76.6469 72.4999 74.313 72.4999 74.313L69.4005 76.443C70.191 77.0265 70.9219 77.5441 71.5211 77.9582H71.518Z" fill="#EA9686"/>
<path d="M90.9236 43.4791C90.0452 43.087 89.4774 43.4477 89.1857 43.7489L88.8595 46.0671C88.8155 46.384 88.7465 46.6977 88.6587 47.0114C91.3283 47.6984 92.26 44.0751 90.9236 43.4791Z" fill="#F5B8A5"/>
<path d="M76.1513 43.4791C77.0297 43.087 77.5975 43.4477 77.8893 43.7489L78.2155 46.0671C78.2594 46.384 78.3284 46.6977 78.4163 47.0114C75.7467 47.6984 74.815 44.0751 76.1513 43.4791Z" fill="#F5B8A5"/>
<path fill-rule="evenodd" clip-rule="evenodd" d="M77.1866 44.5269C77.1866 44.5269 76.8603 44.0532 76.5027 44.4391C76.189 44.781 76.3364 45.9605 77.5003 46.0954C77.5003 46.0954 76.9293 45.6562 76.876 45.079C76.8446 44.7559 77.0548 44.5614 77.1866 44.5269Z" fill="#EA9686"/>
<path fill-rule="evenodd" clip-rule="evenodd" d="M89.8884 44.5269C89.8884 44.5269 90.2146 44.0532 90.5723 44.4391C90.886 44.781 90.7385 45.9605 89.5747 46.0954C89.5747 46.0954 90.1456 45.6562 90.199 45.079C90.2303 44.7559 90.0201 44.5614 89.8884 44.5269Z" fill="#EA9686"/>
<path fill-rule="evenodd" clip-rule="evenodd" d="M83.5014 45.5308C82.0929 45.5308 80.9416 46.8734 80.9416 48.5141V54.2235C80.9416 55.8641 82.0929 57.2068 83.5014 57.2068C84.9099 57.2068 86.0612 55.8641 86.0612 54.2235V48.5141C86.0612 46.8734 84.9099 45.5308 83.5014 45.5308Z" fill="#EA9686"/>
<path fill-rule="evenodd" clip-rule="evenodd" d="M77.7449 42.3435C77.7449 39.4418 80.3518 37.0702 83.5359 37.0702C86.72 37.0702 89.3269 39.4418 89.3269 42.3435C89.3269 42.3435 89.6343 52.4134 83.5359 52.4134C77.4375 52.4134 77.7449 42.3435 77.7449 42.3435Z" fill="#F5B8A5"/>
<path fill-rule="evenodd" clip-rule="evenodd" d="M86.9427 44.2697C87.2094 44.2697 87.429 44.4892 87.429 44.7559C87.4039 44.7559 87.3788 44.7496 87.3505 44.7496C87.1592 44.7496 87.0055 44.8375 87.0055 44.9441C87.0055 45.0508 87.1592 45.1417 87.3505 45.1417C87.3788 45.1417 87.4039 45.1355 87.429 45.1323V45.6939C87.429 45.9605 87.2094 46.1801 86.9427 46.1801C86.6761 46.1801 86.4565 45.9605 86.4565 45.6939V44.7559C86.4565 44.4892 86.6761 44.2697 86.9427 44.2697Z" fill="#164265"/>
<path fill-rule="evenodd" clip-rule="evenodd" d="M87.2878 44.5018C87.4541 44.5018 88.0877 44.1913 87.7176 44.2415C87.3474 44.2916 86.9427 44.2697 86.9427 44.2697C86.9427 44.2697 87.0117 44.6273 87.3192 44.6461C87.3192 44.6461 87.5576 44.6618 87.7238 44.5175C87.8399 44.4171 87.5105 44.5646 87.2909 44.5018H87.2878Z" fill="#164265"/>
<path d="M82.6168 43.2532C82.5728 43.272 82.5226 43.2752 82.4725 43.2595C81.8262 43.087 81.0263 43.4258 80.6436 43.6955C80.5369 43.7708 80.3895 43.7457 80.3142 43.6391C80.2389 43.5324 80.264 43.385 80.3707 43.3097C80.7628 43.0336 81.729 42.5694 82.5948 42.8015C82.7203 42.836 82.7956 42.9646 82.7611 43.0901C82.7422 43.1654 82.6858 43.2219 82.6199 43.2469L82.6168 43.2532Z" fill="#164265"/>
<path d="M86.1083 43.2532C86.1522 43.272 86.2024 43.2752 86.2526 43.2595C86.8988 43.087 87.6987 43.4258 88.0815 43.6955C88.1881 43.7708 88.3356 43.7457 88.4108 43.6391C88.4861 43.5324 88.461 43.385 88.3544 43.3097C87.9622 43.0336 86.996 42.5694 86.1302 42.8015C86.0047 42.836 85.9295 42.9646 85.964 43.0901C85.9828 43.1654 86.0393 43.2219 86.1051 43.2469L86.1083 43.2532Z" fill="#164265"/>
<path fill-rule="evenodd" clip-rule="evenodd" d="M81.7823 44.2696C81.5157 44.2696 81.2961 44.4892 81.2961 44.7559C81.3212 44.7559 81.3463 44.7496 81.3745 44.7496C81.5659 44.7496 81.7196 44.8374 81.7196 44.9441C81.7196 45.0507 81.5659 45.1386 81.3745 45.1386C81.3463 45.1386 81.3212 45.1323 81.2961 45.1292V45.6907C81.2961 45.9573 81.5157 46.1769 81.7823 46.1769C82.049 46.1769 82.2685 45.9573 82.2685 45.6907V44.7527C82.2685 44.4861 82.049 44.2665 81.7823 44.2665V44.2696Z" fill="#164265"/>
<path fill-rule="evenodd" clip-rule="evenodd" d="M82.4317 48.4231C82.4317 49.4489 83.263 50.2802 84.2888 50.2802C85.3146 50.2802 86.1459 49.4489 86.1459 48.4231H82.4348H82.4317Z" fill="#E27466"/>
<path fill-rule="evenodd" clip-rule="evenodd" d="M86.0267 49.0473C86.0989 48.8497 86.1428 48.6427 86.1428 48.4199H82.4317C82.4317 48.6395 82.4756 48.8497 82.5477 49.0473H86.0267Z" fill="white"/>
<path fill-rule="evenodd" clip-rule="evenodd" d="M81.4372 44.5018C81.271 44.5018 80.6373 44.1913 81.0075 44.2415C81.3776 44.2916 81.7823 44.2697 81.7823 44.2697C81.7823 44.2697 81.7133 44.6273 81.4059 44.6461C81.4059 44.6461 81.1675 44.6618 81.0012 44.5175C80.8851 44.4171 81.2145 44.5646 81.4341 44.5018H81.4372Z" fill="#164265"/>
<path fill-rule="evenodd" clip-rule="evenodd" d="M73.3217 76.8947C73.3876 74.6894 74.4887 57.7306 74.6581 55.1802C74.6926 54.6752 75.0628 54.2579 75.5616 54.1607C77.0705 53.8721 78.4006 53.6494 79.1002 53.3984C79.9283 53.1004 80.7722 52.8494 80.9761 53.0753C80.9761 53.0753 81.6129 54.7379 83.5014 54.7379C85.3899 54.7379 86.0957 53.1129 86.0957 53.1129C86.2996 52.8839 87.0713 53.1004 87.8995 53.3953C88.5991 53.6462 89.9292 53.869 91.4381 54.1576C91.9369 54.2517 92.307 54.672 92.3415 55.1771C92.5109 57.7275 93.612 74.6863 93.6779 76.8916C93.7438 79.0969 95.6041 82.6449 95.3719 83.0747C95.3719 83.0747 91.024 86.1552 83.4983 85.9294C75.9725 86.1584 71.6246 83.0747 71.6246 83.0747C71.3925 82.6449 73.2527 79.0969 73.3186 76.8916L73.3217 76.8947Z" fill="#B3C6F2"/>
<path fill-rule="evenodd" clip-rule="evenodd" d="M87.5356 53.273C86.8549 53.0503 86.2714 52.9216 86.0989 53.1161C86.0989 53.1161 85.393 54.7411 83.5045 54.7411C81.6161 54.7411 80.9792 53.0785 80.9792 53.0785C80.813 52.8903 80.2044 53.0314 79.5331 53.2542L83.5422 60.3501L87.5388 53.2761L87.5356 53.273Z" fill="white"/>
<path fill-rule="evenodd" clip-rule="evenodd" d="M73.5225 73.1711V84.0943C75.48 84.9695 78.8931 86.0706 83.5014 85.9326C91.0271 86.1616 95.3751 83.0779 95.3751 83.0779C95.6072 82.6481 93.7469 79.1001 93.6811 76.8948C93.6654 76.3678 93.5901 74.9906 93.4834 73.1711H73.5225Z" fill="#1467AA"/>
<path fill-rule="evenodd" clip-rule="evenodd" d="M93.6779 79.1535C93.7156 80.4145 94.3398 82.1117 94.8229 83.4167C95.1837 83.2096 95.3719 83.0779 95.3719 83.0779C95.604 82.6481 93.7438 79.1001 93.6779 76.8948C93.6622 76.3678 93.5869 74.9906 93.4803 73.1711H73.5194V75.4298H93.4803C93.5869 77.2493 93.6622 78.6264 93.6779 79.1535Z" fill="#235D8C"/>
<path fill-rule="evenodd" clip-rule="evenodd" d="M86.0612 53.0533C86.0612 53.0533 86.0894 53.0313 86.1083 53.0251L86.1428 53.0094C86.4565 52.9184 87.1843 53.1411 87.8995 53.3984C88.5991 53.6493 89.9292 53.8721 91.4381 54.1607C91.9369 54.2548 92.307 54.6751 92.3415 55.1802C92.5109 57.7306 93.612 74.6894 93.6779 76.8947C93.7438 79.1 96.3883 83.6581 96.1562 84.0879C96.1562 84.0879 92.511 86.8391 86.6918 86.8391L86.0612 53.0564V53.0533Z" fill="#295E89"/>
<path d="M75.1444 54.4838L65.6925 62.6651L70.5518 68.4592L80.6969 58.3454L75.1444 54.4838Z" fill="#B3C6F2"/>
<path fill-rule="evenodd" clip-rule="evenodd" d="M74.3005 60.7108L70.5518 68.4593L74.0244 64.996L74.3005 60.7108Z" fill="#92ACE0"/>
<path d="M87.5858 40.0096C87.5858 40.0096 86.309 42.0236 82.5038 42.0236C78.6986 42.0236 77.5536 43.9528 78.0367 45.948C78.0367 45.948 76.349 46.3652 76.2612 45.948C76.1733 45.5308 75.6682 40.3296 75.8157 39.8841C75.9631 39.4387 76.0635 38.0866 76.9795 37.8105C77.8955 37.5345 79.4358 36.1385 81.2961 36.0193C83.1563 35.9001 83.8873 35.1629 85.2613 35.6523C86.6353 36.1416 89.8696 39.194 90.0954 39.4042C90.3213 39.6143 91.0334 41.9922 91.093 42.2902C91.1526 42.5882 91.093 44.2885 91.093 44.2885L89.3331 43.0933C89.3331 43.0933 87.3474 41.8322 87.5858 40.0096Z" fill="#164265"/>
<path fill-rule="evenodd" clip-rule="evenodd" d="M80.9385 53.0533C80.9385 53.0533 80.9102 53.0313 80.8914 53.0251L80.8569 53.0094C80.5432 52.9184 79.8154 53.1411 79.1002 53.3984C78.4006 53.6493 77.0705 53.8721 75.5616 54.1607C75.0628 54.2548 74.6926 54.6751 74.6581 55.1802C74.4887 57.7275 73.3876 74.6894 73.3218 76.8947C73.2559 79.1 70.6114 83.6581 70.8435 84.0879C70.8435 84.0879 74.4887 86.8391 80.3079 86.8391L80.9385 53.0564V53.0533Z" fill="#295E89"/>
<path d="M83.5359 63.4683C83.7958 63.4683 84.0065 63.2577 84.0065 62.9978C84.0065 62.7379 83.7958 62.5272 83.5359 62.5272C83.276 62.5272 83.0654 62.7379 83.0654 62.9978C83.0654 63.2577 83.276 63.4683 83.5359 63.4683Z" fill="#295E89"/>
<path d="M83.5359 65.9592C83.7958 65.9592 84.0065 65.7485 84.0065 65.4886C84.0065 65.2287 83.7958 65.0181 83.5359 65.0181C83.276 65.0181 83.0654 65.2287 83.0654 65.4886C83.0654 65.7485 83.276 65.9592 83.5359 65.9592Z" fill="#295E89"/>
<path d="M83.5359 68.4499C83.7958 68.4499 84.0065 68.2392 84.0065 67.9793C84.0065 67.7195 83.7958 67.5088 83.5359 67.5088C83.276 67.5088 83.0654 67.7195 83.0654 67.9793C83.0654 68.2392 83.276 68.4499 83.5359 68.4499Z" fill="#295E89"/>
<path d="M78.0367 45.9479L78.2657 47.0459L75.2008 48.5674C75.2008 48.5674 73.5351 47.5604 73.6543 46.5722C73.7735 45.584 75.5553 42.767 76.1513 42.1741C76.7474 41.5812 76.8635 39.677 79.3229 38.9649C81.7823 38.2528 81.5251 37.936 83.2567 37.936C84.9883 37.936 86.5694 37.9768 87.2062 37.936C87.843 37.8952 87.9309 37.6191 88.6587 37.936C89.3865 38.2528 90.8546 39.8778 90.933 40.0346C91.0114 40.1915 92.2004 43.1779 92.2004 43.1779C92.2004 43.1779 92.5172 45.3268 92.5956 45.5338C92.6741 45.7409 93.1101 46.5785 92.0812 47.0114C91.0522 47.4443 89.33 47.7611 89.33 47.7611L88.8061 47.049L89.3018 43.6171L89.7849 39.9154L86.0612 39.5578C86.0612 39.5578 82.1023 39.6362 81.7823 39.7178C81.4623 39.7994 78.6139 41.3836 78.4131 41.6596C78.2124 41.9357 77.5003 43.1779 77.5003 43.1779V44.7465L78.0367 45.9511V45.9479Z" fill="#164265"/>
<path d="M74.2785 75.5144C74.0589 75.4611 73.3563 75.3889 73.3563 75.3889L73.5413 74.1561C73.5413 74.1561 72.9986 74.0086 72.4998 74.3129C72.1234 74.5419 71.0725 76.2861 71.0349 77.7229C70.9972 79.1596 72.8982 79.7902 73.579 79.6459C73.579 79.6459 73.8613 79.6616 73.9774 79.1785C74.0746 78.7832 73.6951 78.6734 73.6951 78.6734C73.6951 78.6734 74.0715 78.7173 74.1593 78.0899C74.2252 77.6288 73.8111 77.5566 73.8111 77.5566C73.8111 77.5566 74.2691 77.5754 74.3068 77.1582C74.3381 76.8194 74.357 76.5559 74.0715 76.4618C74.0715 76.4618 74.4793 76.4336 74.5138 75.9818C74.5483 75.5301 74.2754 75.5144 74.2754 75.5144H74.2785Z" fill="#F5B8A5"/>
<path d="M74.1468 78.1527C74.1248 78.1747 73.7264 78.5668 73.0865 78.3441C72.4308 78.1119 73.2904 78.6264 73.6919 78.6766C73.7045 78.6766 73.7202 78.6766 73.7327 78.6766C73.8268 78.6703 74.059 78.5982 74.1437 78.1558L74.1468 78.1527Z" fill="#EA9686"/>
<path d="M74.3099 77.1583C74.3225 77.0171 74.3319 76.8917 74.3193 76.7819C74.3193 76.8007 74.2566 77.1771 74.0401 77.2744C73.8174 77.3748 73.1273 77.3308 73.0457 77.2744C72.9641 77.2179 72.9955 77.4689 73.8143 77.5567C73.8143 77.5567 74.2723 77.5755 74.3099 77.1583Z" fill="#EA9686"/>
<path d="M74.0715 76.4588C74.0715 76.4588 74.4793 76.4305 74.5138 75.9788C74.5264 75.8282 74.5013 75.7278 74.4668 75.6588C74.4668 75.6714 74.4511 76.0855 74.0903 76.1764C73.7233 76.2705 73.2276 76.1827 73.2308 76.1764C73.2308 76.1702 73.0739 76.2203 74.0715 76.4588Z" fill="#EA9686"/>
</g>
<path d="M84.4582 44.778C84.4582 44.778 84.7844 46.1363 85.1138 46.61C85.4432 47.0837 85.1483 47.366 84.3453 47.3535C83.5422 47.3409 84.6056 47.1778 84.6401 46.7511C84.6747 46.3245 84.2041 45.6877 84.4582 44.778Z" fill="#E27466"/>
<path d="M119.336 83.9907C121.39 83.9907 123.056 82.325 123.056 80.2702C123.056 78.2154 121.39 76.5497 119.336 76.5497C117.281 76.5497 115.615 78.2154 115.615 80.2702C115.615 82.325 117.281 83.9907 119.336 83.9907Z" fill="#D4484C"/>
<path d="M108.827 83.9907C110.881 83.9907 112.547 82.325 112.547 80.2702C112.547 78.2154 110.881 76.5497 108.827 76.5497C106.772 76.5497 105.106 78.2154 105.106 80.2702C105.106 82.325 106.772 83.9907 108.827 83.9907Z" fill="#295E89"/>
<path d="M109.956 80.6216L109.667 80.9102L110.568 81.8105L110.856 81.5219C110.894 81.4843 110.891 81.4278 110.856 81.3902L110.088 80.6216C110.05 80.584 109.994 80.584 109.956 80.6216ZM107.173 79.5519C107.28 80.0538 107.901 80.7126 108.165 80.9729C108.425 81.2333 109.084 81.8576 109.586 81.9642C109.78 82.005 110.194 82.0835 110.483 81.8795L109.592 80.9886C109.504 81.0357 109.272 81.0859 108.867 80.631L108.802 80.5651L108.573 80.3361L108.507 80.2703C108.052 79.8656 108.102 79.6334 108.149 79.5456L107.258 78.6547C107.054 78.9464 107.133 79.3574 107.173 79.5519ZM107.616 78.2814L107.327 78.57L108.227 79.4703L108.516 79.1817C108.554 79.1441 108.551 79.0876 108.516 79.0499L107.747 78.2814C107.713 78.2469 107.653 78.2469 107.616 78.2814Z" fill="white"/>
<path d="M129.845 83.9907C131.899 83.9907 133.565 82.325 133.565 80.2702C133.565 78.2154 131.899 76.5497 129.845 76.5497C127.79 76.5497 126.124 78.2154 126.124 80.2702C126.124 82.325 127.79 83.9907 129.845 83.9907Z" fill="#295E89"/>
<path d="M129.845 78.1809H129.842C129.516 78.1809 129.252 78.445 129.252 78.7707V79.969C129.252 80.2947 129.516 80.5588 129.842 80.5588H129.845C130.17 80.5588 130.434 80.2947 130.434 79.969V78.7707C130.434 78.445 130.17 78.1809 129.845 78.1809Z" fill="white"/>
<path d="M128.678 79.4576V79.8153C128.678 80.4584 129.198 80.9822 129.845 80.9822V82.1931" stroke="white" stroke-miterlimit="10"/>
<path d="M131.009 79.4576V79.8153C131.009 80.4584 130.488 80.9822 129.842 80.9822" stroke="white" stroke-miterlimit="10"/>
<path d="M129.324 82.1931H130.381" stroke="white" stroke-miterlimit="10"/>
<path d="M120.06 79.2538H117.689C117.547 79.2538 117.431 79.369 117.431 79.511V81.0639C117.431 81.2059 117.547 81.3211 117.689 81.3211H120.06C120.202 81.3211 120.318 81.2059 120.318 81.0639V79.511C120.318 79.369 120.202 79.2538 120.06 79.2538Z" fill="white"/>
<path d="M121.397 81.0356L120.597 80.794C120.54 80.7784 120.503 80.725 120.503 80.6686V79.9031C120.503 79.8435 120.54 79.7933 120.597 79.7776L121.397 79.5361C121.481 79.511 121.566 79.5737 121.566 79.6616V80.907C121.566 80.9948 121.481 81.0576 121.397 81.0325V81.0356Z" fill="white"/>
<path d="M104.661 104.203H62.3421V111.593H104.661V104.203Z" fill="#D4484C"/>
<path d="M77.0485 105.232H62.3421V110.561H77.0485V105.232Z" fill="white"/>
<path d="M77.0485 109.608H62.3421V109.987H77.0485V109.608Z" fill="#E6E7E8"/>
<path d="M77.0485 108.663H62.3421V109.043H77.0485V108.663Z" fill="#E6E7E8"/>
<path d="M77.0485 107.719H62.3421V108.099H77.0485V107.719Z" fill="#E6E7E8"/>
<path d="M77.0485 106.772H62.3421V107.151H77.0485V106.772Z" fill="#E6E7E8"/>
<path d="M77.0485 105.828H62.3421V106.207H77.0485V105.828Z" fill="#E6E7E8"/>
<path d="M82.2811 104.203H80.7565V111.593H82.2811V104.203Z" fill="#EF5B5B"/>
<path d="M101.27 104.203H99.7449V111.593H101.27V104.203Z" fill="#EF5B5B"/>
<path d="M96.6957 106.204H86.2934V109.567H96.6957V106.204Z" fill="#EF5B5B"/>
<path d="M34.6673 119H76.9858V111.609H34.6673V119Z" fill="#F4A945"/>
<path d="M62.2794 117.971H76.9858V112.641H62.2794V117.971Z" fill="white"/>
<path d="M62.2794 117.397H76.9858V117.017H62.2794V117.397Z" fill="#E6E7E8"/>
<path d="M62.2794 116.453H76.9858V116.073H62.2794V116.453Z" fill="#E6E7E8"/>
<path d="M62.2794 115.505H76.9858V115.126H62.2794V115.505Z" fill="#E6E7E8"/>
<path d="M62.2794 114.561H76.9858V114.181H62.2794V114.561Z" fill="#E6E7E8"/>
<path d="M62.2794 113.614H76.9858V113.234H62.2794V113.614Z" fill="#E6E7E8"/>
<path d="M57.0468 119H58.5714V111.609H57.0468V119Z" fill="#FFCA8A"/>
<path d="M38.0584 119H39.583V111.609H38.0584V119Z" fill="#FFCA8A"/>
<path d="M42.6322 116.98H53.0346V113.617H42.6322V116.98Z" fill="#FFCA8A"/>
<path d="M90.017 119H132.335V111.609H90.017V119Z" fill="#00A79D"/>
<path d="M117.632 117.971H132.339V112.641H117.632V117.971Z" fill="white"/>
<path d="M117.632 117.397H132.339V117.017H117.632V117.397Z" fill="#E6E7E8"/>
<path d="M117.632 116.453H132.339V116.073H117.632V116.453Z" fill="#E6E7E8"/>
<path d="M117.632 115.505H132.339V115.126H117.632V115.505Z" fill="#E6E7E8"/>
<path d="M117.632 114.561H132.339V114.181H117.632V114.561Z" fill="#E6E7E8"/>
<path d="M117.632 113.614H132.339V113.234H117.632V113.614Z" fill="#E6E7E8"/>
<path d="M112.397 119H113.921V111.609H112.397V119Z" fill="#12C6B4"/>
<path d="M93.4081 119H94.9327V111.609H93.4081V119Z" fill="#12C6B4"/>
<path d="M97.9819 116.98H108.384V113.617H97.9819V116.98Z" fill="#12C6B4"/>
<path d="M150.148 47.3628C150.148 47.3628 148.03 44.7371 149.931 41.9138C149.931 41.9138 150.838 39.2379 154.784 39.9218C158.73 40.6056 160.851 42.8549 159.923 46.7072L152.704 48.9564L150.148 47.3628Z" fill="#164265"/>
<path d="M158.574 49.085C158.574 49.085 158.031 50.3022 156.814 50.4026C155.597 50.5029 155.857 48.5831 156.271 48.4451C156.685 48.307 157.479 47.5573 157.937 47.7926C158.395 48.0278 158.574 49.085 158.574 49.085Z" fill="#164265"/>
<path d="M145.26 81.3086L149.354 115.311H152.083L153.488 79.8405H145.26V81.3086Z" fill="#164265"/>
<path d="M153.488 79.8405H145.608C145.395 80.6875 145.26 81.3117 145.26 81.3117C145.26 81.3117 147.741 83.6582 153.319 84.0911L153.488 79.8405Z" fill="#172B60"/>
<path d="M149.354 115.311L142.954 117.391V118.379H152.3L152.083 115.311H149.354Z" fill="#172B60"/>
<path d="M147.418 116.622C147.443 116.622 147.469 116.619 147.494 116.61C147.607 116.566 147.663 116.44 147.619 116.33L147.365 115.656C147.324 115.543 147.199 115.487 147.086 115.531C146.973 115.574 146.916 115.7 146.96 115.81L147.214 116.484C147.246 116.572 147.331 116.625 147.418 116.625V116.622Z" fill="white"/>
<path d="M148.228 116.368C148.253 116.368 148.278 116.365 148.303 116.356C148.416 116.312 148.472 116.186 148.428 116.076L148.174 115.402C148.134 115.289 148.008 115.232 147.895 115.276C147.782 115.32 147.726 115.446 147.77 115.556L148.024 116.23C148.055 116.318 148.14 116.371 148.228 116.371V116.368Z" fill="white"/>
<path d="M161.911 81.3086L157.818 115.311H155.088L153.683 79.8405H161.911V81.3086Z" fill="#164265"/>
<path d="M161.664 83.3821L161.915 81.3085V79.8373H153.686L153.856 84.1225C156.011 84.2354 158.605 84.0629 161.664 83.3821Z" fill="#172B60"/>
<path d="M157.818 115.311L164.22 117.391V118.379H154.872L155.088 115.311H157.818Z" fill="#172B60"/>
<path d="M159.753 116.622C159.728 116.622 159.703 116.619 159.678 116.61C159.565 116.566 159.508 116.44 159.552 116.33L159.806 115.656C159.847 115.543 159.973 115.487 160.086 115.531C160.199 115.574 160.255 115.7 160.211 115.81L159.957 116.484C159.926 116.572 159.841 116.625 159.753 116.625V116.622Z" fill="white"/>
<path d="M158.944 116.368C158.919 116.368 158.894 116.365 158.868 116.356C158.756 116.312 158.699 116.186 158.743 116.076L158.997 115.402C159.038 115.289 159.163 115.232 159.276 115.276C159.389 115.32 159.446 115.446 159.402 115.556L159.148 116.23C159.116 116.318 159.032 116.371 158.944 116.371V116.368Z" fill="white"/>
<path d="M152.993 59.6976C152.993 59.6976 145.781 63.9075 141.74 64.8172C137.703 65.727 134.632 55.9206 134.632 55.9206L137.389 54.5184C137.389 54.5184 139.569 57.5456 141.333 59.5345C141.333 59.5345 146.44 55.3466 148.752 54.2015L152.993 59.7007V59.6976Z" fill="#164265"/>
<path d="M150.69 60.9713C148.432 62.1822 144.962 63.917 142.402 64.6448C147.011 62.2261 148.874 58.6279 148.874 58.6279C148.874 58.6279 149.893 59.8169 150.693 60.9713H150.69Z" fill="#172B60"/>
<path d="M156.111 54.0729C156.111 54.0729 159.019 54.3176 160.864 54.6313L163.056 80.3172C163.056 80.3172 157.347 82.6167 152.958 82.2685L151.286 82.303C151.286 82.303 146.76 82.1273 144.253 80.9447L148.748 54.1984L152.507 54.0729H156.111Z" fill="#164265"/>
<path d="M156.174 72.0418C156.423 72.0418 156.626 71.8395 156.626 71.59C156.626 71.3406 156.423 71.1383 156.174 71.1383C155.924 71.1383 155.722 71.3406 155.722 71.59C155.722 71.8395 155.924 72.0418 156.174 72.0418Z" fill="#295E89"/>
<path d="M156.174 75.5646C156.423 75.5646 156.626 75.3624 156.626 75.1129C156.626 74.8634 156.423 74.6611 156.174 74.6611C155.924 74.6611 155.722 74.8634 155.722 75.1129C155.722 75.3624 155.924 75.5646 156.174 75.5646Z" fill="#295E89"/>
<path d="M151.509 72.0418C151.758 72.0418 151.961 71.8395 151.961 71.59C151.961 71.3406 151.758 71.1383 151.509 71.1383C151.26 71.1383 151.057 71.3406 151.057 71.59C151.057 71.8395 151.26 72.0418 151.509 72.0418Z" fill="#295E89"/>
<path d="M151.509 75.5646C151.758 75.5646 151.961 75.3624 151.961 75.1129C151.961 74.8634 151.758 74.6611 151.509 74.6611C151.26 74.6611 151.057 74.8634 151.057 75.1129C151.057 75.3624 151.26 75.5646 151.509 75.5646Z" fill="#295E89"/>
<path d="M153.771 67.057L158.781 58.6749L158.329 57.9157L159.342 57.8875L157.291 54.1889V54.1827C156.594 54.1137 156.111 54.0729 156.111 54.0729H152.507L151.208 54.1168L149.423 57.6679L150.323 57.8028L149.737 58.5651L153.774 67.0602L153.771 67.057Z" fill="#172B60"/>
<path d="M153.771 67.0571L156.622 54.1169L155.421 55.2933L154.219 55.5348C154.219 55.5348 153.203 55.7074 153.2 55.7168C153.197 55.7262 152.061 54.0604 152.061 54.0604L153.768 67.0571H153.771Z" fill="#DAE1EF"/>
<path d="M152.645 51.6731V54.1639C152.645 55.0831 153.303 55.538 154.223 55.538C155.142 55.538 155.976 55.0831 155.976 54.1639V51.3343C155.976 50.4152 155.23 49.6686 154.31 49.6686C153.391 49.6686 152.645 50.4152 152.645 51.3343V51.6731Z" fill="#F5B8A5"/>
<path d="M154.8 49.8504L152.827 50.0324C152.827 50.0324 152.758 50.0606 152.645 50.1077V53.1474C155.584 52.7647 155.976 51.1492 155.976 51.1492L155.132 49.8473H154.8V49.8504Z" fill="#EA9686"/>
<path d="M159.662 46.475C158.687 46.0013 158.056 47.3471 158.056 47.3471C158.056 47.3471 157.676 45.581 157.181 44.4736C157.181 44.4736 155.766 43.4415 153.592 43.2031C151.22 42.8926 150.204 44.6807 150.107 45.6312C149.821 48.3384 150.991 51.9711 153.752 52.0433C154.298 52.0589 156.324 51.6135 157.855 48.9941C159.844 49.6372 160.638 46.9487 159.659 46.475H159.662Z" fill="#F5B8A5"/>
<path d="M158.784 47.1997C158.784 47.1997 159.016 46.9079 159.402 47.1683C159.728 47.391 159.386 48.4984 158.458 48.5266C158.458 48.5266 159.022 48.2568 159.145 47.7926C159.267 47.3283 158.919 47.1871 158.784 47.1965V47.1997Z" fill="#EA9686"/>
<path d="M160.864 54.6313C160.864 54.6313 168.97 61.1595 170.639 64.949C172.308 68.7385 161.893 75.2259 161.893 75.2259L161.632 71.8097C161.632 71.8097 163.916 68.475 165.525 66.3607C165.525 66.3607 162.652 64.2243 161.25 62.5774L160.864 54.6282V54.6313Z" fill="#164265"/>
<path d="M166.131 72.1516C164.895 73.168 163.684 74.0307 162.874 74.5797C162.721 74.4416 162.589 74.2534 162.57 73.8926C162.533 73.2558 162.771 71.8693 162.771 71.8693C162.771 71.8693 164.484 72.5186 166.131 72.1516Z" fill="#172B60"/>
<path d="M165.528 66.3607C165.528 66.3607 162.655 64.2244 161.253 62.5774L161.124 59.9172L165.532 66.3607H165.528Z" fill="#172B60"/>
<path d="M161.397 72.6096C161.56 72.5876 162.075 72.5845 162.075 72.5845L162.031 71.681C162.031 71.681 162.435 71.6151 162.774 71.8692C163.028 72.0606 163.665 73.4001 163.587 74.4416C163.508 75.4831 162.09 75.8031 161.607 75.6494C161.607 75.6494 161.403 75.6399 161.353 75.2823C161.312 74.9874 161.591 74.9373 161.591 74.9373C161.591 74.9373 161.315 74.9404 161.297 74.4824C161.284 74.1436 161.585 74.1216 161.585 74.1216C161.585 74.1216 161.253 74.1028 161.256 73.7985C161.256 73.5507 161.262 73.3593 161.479 73.3123C161.479 73.3123 161.187 73.2621 161.193 72.9327C161.199 72.6033 161.4 72.6127 161.4 72.6127L161.397 72.6096Z" fill="#F5B8A5"/>
<path d="M161.3 74.5264C161.312 74.5421 161.573 74.8558 162.053 74.7397C162.545 74.6205 161.883 74.9279 161.588 74.9373C161.579 74.9373 161.57 74.9342 161.56 74.9342C161.494 74.9216 161.328 74.8558 161.3 74.5264Z" fill="#EA9686"/>
<path d="M161.256 73.7954C161.256 73.6919 161.256 73.6009 161.275 73.5225C161.275 73.535 161.29 73.8142 161.441 73.8989C161.595 73.9867 162.097 74.0056 162.159 73.9711C162.222 73.9366 162.181 74.1154 161.585 74.1185C161.585 74.1185 161.253 74.0997 161.256 73.7954Z" fill="#EA9686"/>
<path d="M161.475 73.3091C161.475 73.3091 161.184 73.259 161.19 72.9296C161.19 72.8198 161.218 72.7508 161.246 72.7006C161.246 72.71 161.228 73.0111 161.482 73.1021C161.742 73.1962 162.106 73.1711 162.103 73.1648C162.103 73.1586 162.213 73.2088 161.472 73.306L161.475 73.3091Z" fill="#EA9686"/>
<path d="M153.285 47.2656C153.285 47.2656 153.046 48.2663 152.801 48.6145C152.557 48.9628 152.776 49.1729 153.366 49.1635C153.956 49.1541 153.175 49.0318 153.15 48.7181C153.125 48.4044 153.473 47.9338 153.285 47.2656Z" fill="#E27466"/>
<path d="M151.004 46.5095C150.96 46.5095 150.916 46.4907 150.888 46.4562C150.831 46.3903 150.838 46.2931 150.9 46.2366C151.133 46.0327 151.738 45.7535 152.353 46.1613C152.425 46.2084 152.444 46.3056 152.397 46.3778C152.35 46.4499 152.252 46.4687 152.18 46.4217C151.609 46.039 151.114 46.4656 151.107 46.4687C151.079 46.4938 151.042 46.5064 151.004 46.5064V46.5095Z" fill="#164265"/>
<path d="M155.819 46.5095C155.863 46.5095 155.907 46.4907 155.935 46.4562C155.992 46.3903 155.986 46.2931 155.923 46.2366C155.691 46.0327 155.085 45.7535 154.47 46.1613C154.398 46.2084 154.379 46.3056 154.426 46.3778C154.473 46.4499 154.571 46.4687 154.643 46.4217C155.214 46.039 155.709 46.4656 155.716 46.4687C155.744 46.4938 155.782 46.5064 155.819 46.5064V46.5095Z" fill="#164265"/>
<path d="M152.532 50.1046C152.532 50.1046 153.805 50.939 154.784 49.8223C154.784 49.8223 153.881 50.2897 152.532 50.1046Z" fill="#E27466"/>
<path d="M153.724 57.1817L153.143 62.2762L153.771 67.057L154.862 62.1068L154.677 57.1534L154.223 57.4483L153.724 57.1817Z" fill="#164265"/>
<path d="M152.641 53.662L154.223 55.5348L153.206 56.9308L152.064 54.0604L152.641 53.662Z" fill="white"/>
<path d="M154.223 55.5348L155.976 53.5083L156.622 54.12L155.33 56.9308L154.223 55.5348Z" fill="white"/>
<path d="M151.224 54.0855L150.148 57.4484H151.609L150.609 58.3958L153.771 67.0571L152.064 54.0604L151.224 54.0855Z" fill="#295E89"/>
<path d="M157.291 54.1859L158.574 57.4484H157.19L158.04 58.2452L153.771 67.0571L156.622 54.12L157.291 54.1859Z" fill="#295E89"/>
<path d="M154.144 55.7167L153.426 56.8052L154.216 57.2319L155.019 56.7111L154.144 55.7167Z" fill="#164265"/>
<path d="M152.303 118.379H142.954V118.981H152.303V118.379Z" fill="#164265"/>
<path d="M164.211 118.379H154.863V118.981H164.211V118.379Z" fill="#164265"/>
<path fill-rule="evenodd" clip-rule="evenodd" d="M151.694 46.7072C151.509 46.7072 151.358 46.8577 151.358 47.0428C151.377 47.0428 151.393 47.0365 151.412 47.0365C151.544 47.0365 151.65 47.0961 151.65 47.1714C151.65 47.2467 151.544 47.3063 151.412 47.3063C151.393 47.3063 151.377 47.3032 151.358 47.3001V47.6859C151.358 47.871 151.509 48.0216 151.694 48.0216C151.879 48.0216 152.03 47.871 152.03 47.6859V47.0428C152.03 46.8577 151.879 46.7072 151.694 46.7072Z" fill="#164265"/>
<path fill-rule="evenodd" clip-rule="evenodd" d="M155.189 46.7072C155.004 46.7072 154.853 46.8577 154.853 47.0428C154.872 47.0428 154.888 47.0365 154.906 47.0365C155.038 47.0365 155.145 47.0961 155.145 47.1714C155.145 47.2467 155.038 47.3063 154.906 47.3063C154.888 47.3063 154.872 47.3032 154.853 47.3001V47.6859C154.853 47.871 155.004 48.0216 155.189 48.0216C155.374 48.0216 155.524 47.871 155.524 47.6859V47.0428C155.524 46.8577 155.374 46.7072 155.189 46.7072Z" fill="#164265"/>
<path d="M151.358 43.658C151.358 43.658 151.773 45.1795 154.345 45.4179C156.917 45.6563 158.059 47.344 158.059 47.344V43.8431C158.059 43.8431 155.095 42.0612 154.502 42.1209C153.909 42.1805 152.155 41.8824 151.798 42.5381C151.44 43.1937 151.362 43.6611 151.362 43.6611L151.358 43.658Z" fill="#164265"/>
<path d="M135.033 55.7136C135.033 55.7136 132.608 53.7153 132.593 53.3577C132.577 53.0001 133.813 53.6557 133.813 53.6557C133.813 53.6557 132.681 52.0809 132.95 51.5758C133.22 51.0708 134.481 53.091 134.481 53.091C134.481 53.091 133.634 50.9516 133.932 50.6536C134.23 50.3555 135.3 52.6895 135.3 52.6895C135.3 52.6895 134.676 50.7947 135.077 50.6285C135.479 50.4622 136.341 53.0753 136.341 53.0753C136.341 53.0753 136.58 52.1091 137.025 52.1091C137.471 52.1091 137.025 54.7003 137.025 54.7003L135.036 55.7104L135.033 55.7136Z" fill="#F5B8A5"/>
<path d="M1.2705 43.0526H52.608C53.3106 43.0526 53.8816 43.6236 53.8816 44.3262V76.3396C53.8816 77.0423 53.3106 77.6101 52.6111 77.6101H1.2705C0.570939 77.6101 0 77.0423 0 76.3396V44.3262C0 43.6236 0.570939 43.0526 1.2705 43.0526Z" fill="#1467AA"/>
<path d="M51.9021 47.0178H1.97947C1.63123 47.0178 1.34892 47.3001 1.34892 47.6484V75.5491C1.34892 75.8973 1.63123 76.1796 1.97947 76.1796H51.9021C52.2504 76.1796 52.5327 75.8973 52.5327 75.5491V47.6484C52.5327 47.3001 52.2504 47.0178 51.9021 47.0178Z" fill="white"/>
<path d="M6.1172 45.7159C6.41347 45.7159 6.65364 45.4758 6.65364 45.1795C6.65364 44.8832 6.41347 44.6431 6.1172 44.6431C5.82094 44.6431 5.58077 44.8832 5.58077 45.1795C5.58077 45.4758 5.82094 45.7159 6.1172 45.7159Z" fill="white"/>
<path d="M3.99971 45.7159C4.29597 45.7159 4.53614 45.4758 4.53614 45.1795C4.53614 44.8832 4.29597 44.6431 3.99971 44.6431C3.70345 44.6431 3.46328 44.8832 3.46328 45.1795C3.46328 45.4758 3.70345 45.7159 3.99971 45.7159Z" fill="white"/>
<path d="M1.88535 45.7159C2.18162 45.7159 2.42179 45.4758 2.42179 45.1795C2.42179 44.8832 2.18162 44.6431 1.88535 44.6431C1.58909 44.6431 1.34892 44.8832 1.34892 45.1795C1.34892 45.4758 1.58909 45.7159 1.88535 45.7159Z" fill="white"/>
<path d="M7.47554 69.8868H5.77213V73.0176H7.47554V69.8868Z" fill="#B3C6F2"/>
<path d="M10.0008 68.3402H8.29744V73.0175H10.0008V68.3402Z" fill="#B3C6F2"/>
<path d="M12.5262 65.6455H10.8227V73.0144H12.5262V65.6455Z" fill="#B3C6F2"/>
<path d="M15.0546 67.1921H13.3512V73.0176H15.0546V67.1921Z" fill="#B3C6F2"/>
<path d="M17.5799 63.9421H15.8765V73.0176H17.5799V63.9421Z" fill="#B3C6F2"/>
<path d="M10.0008 60.4035C12.792 60.4035 15.0546 58.1409 15.0546 55.3498C15.0546 52.5587 12.792 50.296 10.0008 50.296C7.20973 50.296 4.94709 52.5587 4.94709 55.3498C4.94709 58.1409 7.20973 60.4035 10.0008 60.4035Z" fill="#1467AA"/>
<path d="M31.3295 53.1538H16.9054V53.9851H31.3295V53.1538Z" fill="#1467AA"/>
<path d="M31.3295 54.967H16.9054V55.7984H31.3295V54.967Z" fill="#1467AA"/>
<path d="M24.1175 56.7802H16.9054V57.6115H24.1175V56.7802Z" fill="#1467AA"/>
<path d="M48.7243 53.1538H34.3003V53.9851H48.7243V53.1538Z" fill="#1467AA"/>
<path d="M48.7243 54.967H34.3003V55.7984H48.7243V54.967Z" fill="#1467AA"/>
<path d="M48.7243 56.7802H34.3003V57.6115H48.7243V56.7802Z" fill="#1467AA"/>
<path d="M46.5472 64.9648L42.0299 69.4821L40.2387 67.6877L36.1668 71.7596L33.2745 68.8672L32.0353 70.1063L29.5602 67.6281L24.1708 73.0175H46.6068V64.9052L46.5472 64.9648Z" fill="#B3C6F2"/>
<path d="M24.1708 73.0175L29.5602 67.6281L32.0353 70.1063L33.2745 68.8672L36.1668 71.7596L40.2387 67.6877L42.0299 69.4821L46.5472 64.9648L46.6068 64.9052" stroke="#1467AA" stroke-miterlimit="10"/>
<path d="M45.7598 65.6705L44.9191 64.8298L46.0673 64.5224L47.2185 64.215L46.908 65.3631L46.6005 66.5113L45.7598 65.6705Z" fill="#1467AA"/>
<path d="M22.8909 63.9421V73.0176H48.7243" stroke="#B7E2F7" stroke-miterlimit="10"/>
<path d="M122.774 26.0592H104.981V47.78H122.774V26.0592Z" fill="white"/>
<path d="M120.111 23.4462H107.628V27.3424H120.111V23.4462Z" fill="#1467AA"/>
<path d="M119.336 24.1143H108.403V26.6741H119.336V24.1143Z" fill="white"/>
<path d="M116.381 24.0735H111.358V21.1937H116.381V24.0735Z" fill="#1467AA"/>
<path d="M124.324 49.3957H103.415V24.5692H108.143V26.0593H104.981V47.7801H122.774V26.0593H119.593V24.5692H124.324V49.3957Z" fill="#1467AA"/>
<path d="M108.761 38.2874L107.252 36.7754L107.983 36.0444L108.761 36.8256L110.116 35.4735L110.844 36.2044L108.761 38.2874Z" fill="#00A79D"/>
<path d="M120.738 36.1793H111.666V37.2114H120.738V36.1793Z" fill="#00A79D"/>
<path d="M120.738 30.6895H111.666V31.6368H120.738V30.6895Z" fill="#D4484C"/>
<path d="M116.202 32.2079H111.666V33.1553H116.202V32.2079Z" fill="#D4484C"/>
<path d="M108.761 41.4841L107.252 39.972L107.983 39.2411L108.761 40.0222L110.116 38.6702L110.844 39.4011L108.761 41.4841Z" fill="#00A79D"/>
<path d="M120.738 39.376H111.666V40.4081H120.738V39.376Z" fill="#00A79D"/>
<path d="M108.761 44.6775L107.252 43.1686L107.983 42.4376L108.761 43.2188L110.116 41.8667L110.844 42.5945L108.761 44.6775Z" fill="#00A79D"/>
<path d="M120.738 42.5726H111.666V43.6047H120.738V42.5726Z" fill="#00A79D"/>
<path d="M34.6265 0H63.9075C64.6102 0 65.1812 0.570939 65.1812 1.27363V38.8803C65.1812 39.583 64.6102 40.1508 63.9107 40.1508H34.6296C33.9269 40.1508 33.3591 39.5799 33.3591 38.8803V1.2705C33.356 0.570939 33.9238 0 34.6265 0Z" fill="#1467AA"/>
<path d="M63.1986 3.96204H35.3355C34.9872 3.96204 34.7049 4.24434 34.7049 4.59258V38.0866C34.7049 38.4349 34.9872 38.7172 35.3355 38.7172H63.1986C63.5468 38.7172 63.8291 38.4349 63.8291 38.0866V4.59258C63.8291 4.24434 63.5468 3.96204 63.1986 3.96204Z" fill="white"/>
<path d="M39.4701 2.66332C39.7663 2.66332 40.0065 2.42315 40.0065 2.12689C40.0065 1.83062 39.7663 1.59045 39.4701 1.59045C39.1738 1.59045 38.9336 1.83062 38.9336 2.12689C38.9336 2.42315 39.1738 2.66332 39.4701 2.66332Z" fill="white"/>
<path d="M37.3557 2.66332C37.652 2.66332 37.8922 2.42315 37.8922 2.12689C37.8922 1.83062 37.652 1.59045 37.3557 1.59045C37.0595 1.59045 36.8193 1.83062 36.8193 2.12689C36.8193 2.42315 37.0595 2.66332 37.3557 2.66332Z" fill="white"/>
<path d="M35.2414 2.66332C35.5376 2.66332 35.7778 2.42315 35.7778 2.12689C35.7778 1.83062 35.5376 1.59045 35.2414 1.59045C34.9451 1.59045 34.7049 1.83062 34.7049 2.12689C34.7049 2.42315 34.9451 2.66332 35.2414 2.66332Z" fill="white"/>
<path d="M41.3931 14.3174C43.4912 14.3174 45.192 12.6165 45.192 10.5184C45.192 8.42033 43.4912 6.71948 41.3931 6.71948C39.295 6.71948 37.5941 8.42033 37.5941 10.5184C37.5941 12.6165 39.295 14.3174 41.3931 14.3174Z" fill="#D4484C"/>
<path d="M61.0779 8.32251H46.6539V9.15382H61.0779V8.32251Z" fill="#D4484C"/>
<path d="M61.0779 10.1357H46.6539V10.9671H61.0779V10.1357Z" fill="#D4484C"/>
<path d="M53.8659 11.9489H46.6539V12.7802H53.8659V11.9489Z" fill="#D4484C"/>
<path d="M41.3931 24.6601C43.4912 24.6601 45.192 22.9593 45.192 20.8612C45.192 18.7631 43.4912 17.0623 41.3931 17.0623C39.295 17.0623 37.5941 18.7631 37.5941 20.8612C37.5941 22.9593 39.295 24.6601 41.3931 24.6601Z" fill="#F4A945"/>
<path d="M61.0779 18.6653H46.6539V19.4966H61.0779V18.6653Z" fill="#F4A945"/>
<path d="M61.0779 20.4785H46.6539V21.3098H61.0779V20.4785Z" fill="#F4A945"/>
<path d="M53.8659 22.2916H46.6539V23.1229H53.8659V22.2916Z" fill="#F4A945"/>
<path d="M41.3931 34.9999C43.4912 34.9999 45.192 33.299 45.192 31.2009C45.192 29.1028 43.4912 27.402 41.3931 27.402C39.295 27.402 37.5941 29.1028 37.5941 31.2009C37.5941 33.299 39.295 34.9999 41.3931 34.9999Z" fill="#00A79D"/>
<path d="M61.0779 29.005H46.6539V29.8363H61.0779V29.005Z" fill="#00A79D"/>
<path d="M61.0779 30.8182H46.6539V31.6496H61.0779V30.8182Z" fill="#00A79D"/>
<path d="M53.8659 32.6313H46.6539V33.4627H53.8659V32.6313Z" fill="#00A79D"/>
<path d="M68.3402 80.5934H41.2268C41.038 80.5934 40.8849 80.7465 40.8849 80.9353V96.2879C40.8849 96.4768 41.038 96.6299 41.2268 96.6299H68.3402C68.529 96.6299 68.6821 96.4768 68.6821 96.2879V80.9353C68.6821 80.7465 68.529 80.5934 68.3402 80.5934Z" fill="#B3C6F2"/>
<path d="M54.9294 92.8685C57.2804 92.8685 59.1863 90.9626 59.1863 88.6116C59.1863 86.2605 57.2804 84.3546 54.9294 84.3546C52.5783 84.3546 50.6724 86.2605 50.6724 88.6116C50.6724 90.9626 52.5783 92.8685 54.9294 92.8685Z" fill="#92ACE0"/>
<path d="M53.8251 88.6117V87.2126C53.8251 87.0871 53.96 87.0087 54.0698 87.0714L55.2807 87.771L56.4916 88.4705C56.6014 88.5332 56.6014 88.6901 56.4916 88.7528L55.2807 89.4524L54.0698 90.152C53.96 90.2147 53.8251 90.1363 53.8251 90.0108V88.6117Z" fill="white"/>
</g>
<defs>
<clipPath id="clip0_24_1504">
<rect width="170.821" height="119" fill="white"/>
</clipPath>
</defs>
</svg>
