<svg width="143" height="119" viewBox="0 0 143 119" fill="none" xmlns="http://www.w3.org/2000/svg">
<g clip-path="url(#clip0_24_1257)">
<path d="M66.2828 61.3004H65.9529V95.8497H66.2828V61.3004Z" fill="#E0E0E0"/>
<path d="M89.7617 61.3004H89.4317V95.8497H89.7617V61.3004Z" fill="#E0E0E0"/>
<path d="M113.242 61.3004H112.911V95.8497H113.242V61.3004Z" fill="#E0E0E0"/>
<path d="M48.2632 57.0426H42.6393V57.9434H48.2632V57.0426Z" fill="#D9D9D9"/>
<path d="M50.6163 58.7074H42.6393V59.6082H50.6163V58.7074Z" fill="#D9D9D9"/>
<path d="M72.4675 57.0426H65.8651V57.9434H72.4675V57.0426Z" fill="#D9D9D9"/>
<path d="M70.0869 58.7074H65.8651V59.6082H70.0869V58.7074Z" fill="#D9D9D9"/>
<path d="M93.8534 57.0426H89.7622V57.9434H93.8534V57.0426Z" fill="#D9D9D9"/>
<path d="M94.5312 58.7074H89.7622V59.6082H94.5312V58.7074Z" fill="#D9D9D9"/>
<path d="M119.201 57.0426H113.241V57.9434H119.201V57.0426Z" fill="#D9D9D9"/>
<path d="M118.01 58.7074H113.241V59.6082H118.01V58.7074Z" fill="#D9D9D9"/>
<path d="M69.8537 97.8965H66.1181V99.0972H69.8537V97.8965Z" fill="#B8B8B8"/>
<path d="M93.4978 97.8965H89.7622V99.0972H93.4978V97.8965Z" fill="#B8B8B8"/>
<path d="M116.977 97.8965H113.241V99.0972H116.977V97.8965Z" fill="#B8B8B8"/>
<g opacity="0.43">
<path d="M128.418 85.5842C121.095 85.5842 114.729 82.4271 108.093 79.1356C99.8991 75.0723 91.4275 70.871 80.1397 72.0217C72.9317 72.7566 68.4074 75.684 64.4159 78.2663C60.8015 80.6046 57.3845 82.6615 52.757 82.8371C45.2776 83.1209 42.6834 79.9394 42.6399 79.7454V77.704C42.6494 77.7391 44.2824 81.3097 52.7493 81.2674C56.9192 81.2466 59.9966 79.2552 63.5597 76.9495C67.701 74.2702 72.3941 71.2334 79.9804 70.4599C91.721 69.2633 100.4 73.5676 108.794 77.7302C117.577 82.0856 125.958 86.1703 136.556 82.6264V84.3049C133.535 85.3152 131.119 85.5836 128.42 85.5836L128.418 85.5842Z" fill="url(#paint0_linear_24_1257)"/>
</g>
<g opacity="0.22">
<path d="M84.4611 85.1933C79.0556 85.1933 74.7682 81.5679 70.5708 78.0193C67.3884 75.3288 64.0866 72.5775 60.2753 71.2203C48.6432 67.0785 42.6924 74.6415 42.6393 74.7082V72.4079C42.7019 72.3294 43.7639 70.9543 46.8348 69.6423C49.6307 68.4476 54.322 67.4944 60.7925 69.7387C64.892 71.1608 68.2964 74.0394 71.5893 76.8228C78.268 82.4699 84.0363 87.3466 94.0539 79.708C101.641 73.9222 108.793 68.4089 115.831 66.3942C122.713 64.4242 129.889 65.8665 136.606 72.565L136.557 74.654C122.289 60.3627 110.14 69.4168 95.0103 80.9545C91.0027 84.0104 87.5499 85.1938 84.4623 85.1938L84.4611 85.1933Z" fill="url(#paint1_linear_24_1257)"/>
</g>
<path d="M88.4341 53.0466L88.1955 52.7676L92.1506 49.4076H94.5527L100.003 44.7773L103.412 47.6732H105.925L107.195 48.7525L111.143 45.3991H113.146L121.453 38.3418L121.691 38.6209L113.282 45.7656H111.278L107.195 49.2339L105.79 48.0397H103.276L100.003 45.2587L94.6881 49.7741H92.286L88.4341 53.0466Z" fill="url(#paint2_linear_24_1257)"/>
<path d="M89.0057 48.405H87.6388V48.0385H88.853L90.906 45.9917L92.3982 47.4804L95.9631 43.9247L97.0597 45.0183L100.675 41.4138L102.841 43.5736H105.31L109.122 39.7728H112.409L114.84 37.3487H117.814L120.766 34.4053L121.025 34.6647L117.966 37.7159H114.992L112.562 40.1393H109.274L105.462 43.9401H102.688L100.675 41.932L97.0597 45.5365L95.9631 44.4429L92.3982 47.9986L90.906 46.51L89.0057 48.405Z" fill="url(#paint3_linear_24_1257)"/>
<path d="M125.509 49.2387C125.507 49.2309 125.505 49.2232 125.503 49.2155C121.987 36.9894 113.214 26.5388 101.092 21.1618H101.091C99.0137 20.2318 96.8348 19.4613 94.5729 18.8538C88.9132 17.3348 83.2106 16.9909 77.7293 17.6674C77.7251 17.6686 77.7191 17.6686 77.715 17.6698L77.7072 17.6674C74.0188 18.1279 70.4288 19.0466 67.0155 20.3925C67.0089 20.3949 67.0023 20.3978 66.9952 20.4002C54.4586 25.3173 44.3468 35.9 40.5785 49.8664C34.2529 73.307 48.1755 97.4158 71.6728 103.722C83.7392 106.96 95.9816 104.875 105.896 98.9099L107.747 101.473L116.469 95.209L114.363 92.2929C119.617 87.0384 123.606 80.3845 125.679 72.7037C127.834 64.7158 127.639 56.6482 125.509 49.2387ZM93.246 89.3863C77.6672 94.9537 60.5109 86.8736 54.9282 71.3376C49.4487 56.0907 57.1507 39.3278 72.1656 33.4474C72.4502 33.3361 72.7366 33.2284 73.0266 33.1249C75.1524 32.3651 77.3069 31.8593 79.4571 31.5922C84.9713 30.9073 90.4567 31.7879 95.3551 33.9698C102.551 37.175 108.476 43.1899 111.344 51.173C111.57 51.8013 111.774 52.432 111.955 53.0645C116.259 68.0734 108.195 84.0426 93.246 89.3851V89.3863Z" fill="url(#paint4_linear_24_1257)"/>
<path d="M134.188 46.7473L125.502 49.2154L111.955 53.0656C111.773 52.4325 111.569 51.8024 111.344 51.1735C108.476 43.1904 102.551 37.1755 95.3551 33.9703L101.091 21.1611H101.092L101.695 19.8128L104.778 12.9281C119.388 19.4088 129.959 32.0092 134.188 46.7467L134.188 46.7473Z" fill="#1467AA"/>
<path d="M101.695 19.8129L101.092 21.1611L95.3551 33.9703C90.4567 31.7884 84.9713 30.9072 79.4571 31.5927L77.7299 17.6667L77.5491 16.2066C83.2159 15.5051 89.1107 15.8609 94.9625 17.4311C97.2978 18.057 99.5507 18.8537 101.696 19.8135L101.695 19.8129Z" fill="#005294"/>
<path d="M79.4571 31.5921C77.3069 31.8592 75.1524 32.365 73.0266 33.1248C72.7366 33.2283 72.4502 33.336 72.1656 33.4473L67.0155 20.3912L65.4564 16.4398C69.2051 14.9594 73.1471 13.9497 77.1977 13.4446L77.2066 13.447L77.5491 16.2066L77.7299 17.6667L79.4571 31.5927V31.5921Z" fill="#084474"/>
<path d="M135.71 119H118.342L106.271 102.283L117.709 94.0701L135.71 119Z" fill="url(#paint5_linear_24_1257)"/>
<path d="M73.7366 10.4167C73.7366 10.4167 73.1107 9.27068 72.7545 8.85894C72.3983 8.44661 71.2158 8.13721 71.3763 7.61064C71.5374 7.08406 73.122 7.31314 73.5582 7.82841C73.9943 8.34368 75.3266 8.52693 75.3726 8.7447C75.4185 8.96247 74.9102 10.1531 74.6244 10.3482C74.3386 10.5428 73.736 10.4172 73.736 10.4172L73.7366 10.4167Z" fill="#6A75BA"/>
<path d="M71.0762 11.3872C71.0762 11.3872 70.0565 10.5809 69.5661 10.3435C69.0751 10.1061 67.8663 10.2906 67.8042 9.74377C67.7422 9.19637 69.2875 8.77927 69.8936 9.07915C70.4992 9.37903 71.7951 9.02025 71.924 9.20172C72.0529 9.3832 72.0606 10.6779 71.8757 10.9695C71.6907 11.261 71.0768 11.3872 71.0768 11.3872H71.0762Z" fill="#545D94"/>
<path d="M73.3404 13.4856C73.3404 13.4856 73.7855 10.4505 73.7652 9.92396C73.7593 9.77342 74.6811 9.82935 74.6381 10.1185C74.5444 10.748 74.9698 13.1881 74.8958 13.6344C74.8219 14.0812 73.3028 13.7665 73.3404 13.4856Z" fill="#EEA886"/>
<path d="M71.9455 14.3579C71.9455 14.3579 71.1114 11.4109 70.9169 10.9206C70.8304 10.7023 71.68 10.3649 71.7957 10.7534C71.9765 11.3639 73.3219 13.4393 73.4323 13.8784C73.5421 14.3175 72.023 14.631 71.9455 14.3579Z" fill="#EEA886"/>
<path d="M72.5248 16.406C72.5248 16.406 71.6293 13.3941 71.4914 13.0734L72.9037 12.2029C72.9037 12.2029 73.5582 14.1271 73.6501 14.6079C73.742 15.0886 72.5248 16.406 72.5248 16.406Z" fill="#D9D3C8"/>
<path d="M97.5287 8.44775C97.5287 8.44775 96.1648 8.79166 95.5156 9.82042C94.8665 10.8492 94.3056 12.0338 93.0861 12.5717C91.8666 13.109 91.8588 14.4941 91.9537 14.7077C92.0486 14.9214 95.7948 19.1209 96.6122 19.2833C97.4296 19.4457 98.96 19.3327 98.7965 18.2534C98.633 17.174 97.0287 14.8529 97.929 13.682C98.8293 12.511 99.0561 11.4323 99.0561 11.4323L97.5281 8.44775H97.5287Z" fill="#222538"/>
<path d="M97.2906 13.4708C97.2906 13.4708 97.2506 13.4577 97.1838 13.4518C97.1063 13.4446 96.9935 13.447 96.8646 13.4898C96.8324 13.5006 96.79 13.522 96.7399 13.5517C96.4159 13.7421 95.6487 14.2592 95.5449 14.2717C95.4249 14.286 95.5264 12.5015 95.5264 12.5015C95.5264 12.5015 95.9351 11.781 95.9864 11.3068C96.0377 10.8326 97.2906 13.4714 97.2906 13.4714V13.4708Z" fill="#EEA886"/>
<path d="M87.6955 15.3355C87.6955 15.3355 86.1967 14.2877 84.4396 14.6138C82.6826 14.9405 82.4934 15.7592 81.8902 15.7967C81.287 15.8335 79.2716 15.6622 77.6183 16.1429C75.9644 16.6237 74.5695 16.6755 74.3798 16.538C74.19 16.4006 75.4131 13.6523 75.4131 13.2739L73.3631 12.7413C73.3631 12.7413 72.7772 15.1808 72.5481 15.7306C72.3023 16.3185 71.8303 17.4258 72.5021 18.3879C73.174 19.35 75.0516 18.9162 76.1888 19.1102C77.3253 19.3042 82.4147 19.1798 83.3031 19.1322C84.2678 19.0805 87.1788 18.943 87.1788 18.943L87.6955 15.3355Z" fill="#D9D3C8"/>
<path d="M100.004 9.90372C100.004 9.90372 100.1 11.3799 99.7708 11.8232C99.6396 12.0005 99.5501 12.0969 99.4904 12.1487C99.4063 12.2218 99.3407 12.3141 99.3031 12.4194C99.2016 12.7032 99.139 13.103 99.0579 13.1881C98.9696 13.2809 98.7142 13.0447 98.6211 13.0441C98.5286 13.0441 97.6265 13.82 97.4111 13.6611C97.1958 13.5023 95.8796 12.1707 95.9905 11.2579C96.1009 10.3452 96.5048 8.98206 97.9863 8.99039C99.4677 8.99872 99.8908 9.5366 100.004 9.90372Z" fill="#EEA886"/>
<path d="M95.5276 16.9504C95.4989 17.0111 94.9542 17.8786 94.3575 18.3819C94.1099 18.5908 93.8534 18.7372 93.6207 18.7372C93.5497 18.7372 93.4805 18.7383 93.4131 18.7401C92.7281 18.7586 92.2025 18.8633 91.2777 18.9091C90.3171 18.9567 87.9873 18.8234 87.9186 18.8234C87.85 18.8234 87.1776 18.9436 87.1776 18.9436C86.9366 18.6515 87.5738 15.3534 87.6943 15.3361C87.8148 15.3189 88.5899 15.611 89.3309 15.4908C90.0719 15.3706 90.3643 15.3016 91.4668 14.0135C92.5694 12.7253 93.672 12.3986 94.1368 12.5016C94.6022 12.6045 95.5264 12.5016 95.5264 12.5016C95.5264 12.5016 95.5663 16.8647 95.5264 16.951L95.5276 16.9504Z" fill="#FFC955"/>
<path d="M99.3818 10.961C99.3818 10.961 99.6581 11.6744 99.8042 11.7726C99.8042 11.7726 100.337 11.2109 99.9952 9.82399C99.6527 8.43764 98.3622 8.30674 97.5293 8.44776C96.4923 8.62328 95.4476 12.1231 95.5019 12.464C95.5556 12.8049 96.7178 10.6552 97.7363 10.8284C98.7548 11.0015 98.7625 11.058 99.383 10.961H99.3818Z" fill="#222538"/>
<path d="M97.1838 13.4512C97.1063 13.444 96.9941 13.4518 96.8658 13.4952C96.8336 13.5059 96.79 13.522 96.7399 13.5511C96.5019 13.1804 96.2811 12.3022 96.2739 12.2725C96.4326 12.6104 97.1838 13.4512 97.1838 13.4512Z" fill="#A77860"/>
<path d="M94.3575 18.3813C94.1099 18.5902 93.8534 18.7365 93.6207 18.7365C93.5497 18.7365 93.4805 18.7377 93.4131 18.7395L93.7508 16.0055L94.3569 18.3819L94.3575 18.3813Z" fill="#C29941"/>
<path d="M99.7177 23.0901L99.0567 23.6899C98.4863 23.3852 97.0567 22.3589 96.7817 22.1256C96.4935 21.8805 94.5699 20.2764 94.3056 19.9104C94.0389 19.5445 93.7018 15.7657 93.7358 15.5925C93.7699 15.4217 95.4082 15.3343 95.5938 15.7341C95.5938 15.7341 95.6791 17.8892 95.7232 18.2504C95.765 18.6109 95.9034 18.937 96.1516 19.2405C96.4947 19.6605 97.2262 20.6357 97.9344 21.4247C98.1032 21.6127 99.4994 22.9027 99.7177 23.0901Z" fill="#EEA886"/>
<path d="M95.7286 15.7818C95.7286 15.7818 95.8318 12.9115 94.8963 12.9472C93.7132 12.9919 93.5354 14.4359 93.6965 16.0049C93.6965 16.0049 95.4649 16.0222 95.7292 15.7818H95.7286Z" fill="#FFC955"/>
<path d="M99.3991 22.8087C99.3991 22.8087 99.4874 22.9467 99.6151 22.9902C99.8353 23.0645 100.161 22.9217 100.322 23.2091C100.483 23.4971 99.707 24.2159 99.4988 24.2593C99.2905 24.3027 98.9564 23.9797 98.6951 23.3412C98.4338 22.7028 99.3997 22.8087 99.3997 22.8087H99.3991Z" fill="#EEA886"/>
<path d="M100.254 23.1193C100.254 23.1193 100.649 23.4197 101.049 23.8053C101.4 24.1439 101.758 24.5883 101.668 24.6716C101.545 24.7865 101.305 24.4045 100.934 24.0915C100.593 23.8029 100.613 23.9142 100.613 23.9142C100.613 23.9142 100.609 23.8821 100.92 24.2658C101.255 24.6782 101.6 25.1673 101.497 25.2381C101.432 25.2827 101.429 25.294 101.283 25.1631C101.351 25.2553 101.335 25.2863 101.299 25.316C101.113 25.4719 100.527 24.9382 100.294 24.7264C100.472 24.89 100.585 25.0286 100.404 25.05C100.198 25.0744 99.4033 24.2843 99.0913 24.0272C98.7512 23.747 100.254 23.1193 100.254 23.1193Z" fill="#EEA886"/>
<path d="M88.3685 15.467C88.3685 15.467 88.0523 17.7256 88.208 18.8365C88.208 18.8365 88.3727 18.9585 88.7002 18.8597C88.7002 18.8597 88.782 16.394 88.9657 15.5188C88.9657 15.5188 88.8649 15.4426 88.3679 15.4664L88.3685 15.467Z" fill="#E0E0E0"/>
<path d="M88.6883 0H88.4437V17.1747H88.6883V0Z" fill="#E0E0E0"/>
<path d="M126.678 89.2904H131.419V88.959H126.678V89.2904Z" fill="white"/>
<path d="M126.678 90.9767H131.419V89.5832H126.678V90.9767Z" fill="white"/>
<path d="M124.451 91.6538H127.248V91.4456H124.451V91.6538Z" fill="white"/>
<path d="M124.451 92.3088H127.248V91.7448H124.451V92.3088Z" fill="white"/>
<path d="M132.197 91.0767H132.406V87.1723H132.197V91.0767Z" fill="white"/>
<path d="M3.52792 63.6578H8.08682L6.69129 60.7715H2.13298L3.52792 63.6578Z" fill="url(#paint6_linear_24_1257)"/>
<path d="M1.39494 63.6578H2.48141L1.08648 60.7715H0L1.39494 63.6578Z" fill="url(#paint7_linear_24_1257)"/>
<path d="M123.911 11.7584H128.965V9.81396H123.911V11.7584Z" fill="url(#paint8_linear_24_1257)"/>
<path d="M123.911 9.27307H128.965V8.90715H123.911V9.27307Z" fill="url(#paint9_linear_24_1257)"/>
<path style="mix-blend-mode:hard-light" d="M15.444 50.8267H48.3855C49.1522 50.8267 49.775 51.4478 49.775 52.2124V52.5629C49.775 53.3274 49.1522 53.9486 48.3855 53.9486H15.444C14.6767 53.9486 14.0544 53.3274 14.0544 52.5629V52.2124C14.0544 51.4478 14.6773 50.8267 15.444 50.8267Z" fill="url(#paint10_linear_24_1257)"/>
<path d="M68.7254 96.8023H86.8644L81.1474 114.31L81.682 114.484L87.6388 96.2418H68.3173L62.4178 114.31L62.9524 114.484L68.7254 96.8023Z" fill="#616587"/>
<path d="M74.8988 114.31L69.1824 96.8023H87.3208L93.0945 114.484L93.6291 114.31L87.7289 96.2418H68.408L74.3642 114.484L74.8988 114.31Z" fill="#616587"/>
<path d="M89.239 101.755H67.0381V102.316H89.239V101.755Z" fill="#616587"/>
<path d="M91.3129 107.843H64.7512V108.403H91.3129V107.843Z" fill="#616587"/>
<path d="M77.8146 56.8438C77.8146 56.8438 78.2668 56.0549 77.5497 53.9396C76.8564 51.894 74.4555 52.0797 73.6924 53.3898C72.9293 54.7 73.1871 55.514 74.3105 56.9938C75.434 58.4735 77.3486 57.5197 77.8146 56.8432V56.8438Z" fill="#EEA886"/>
<path d="M72.2384 93.2305C72.2384 93.2305 72.1197 94.0992 72.1048 94.2295C72.0899 94.3598 70.7832 94.1528 70.7832 94.1528L70.6776 93.1186C70.6776 93.1186 72.0749 93.1079 72.2384 93.2305Z" fill="#EEA886"/>
<path d="M72.1191 94.1188C72.1191 94.1188 72.5332 94.6424 72.9335 94.8703C73.3339 95.0982 73.9633 95.1887 74.2002 95.4249C74.3708 95.5956 74.8225 96.3293 73.1596 96.3144C71.4968 96.2995 70.6949 96.4179 70.5165 96.1365C70.3381 95.8551 70.7743 94.0599 70.7743 94.0599C70.7743 94.0599 71.1812 94.1742 72.1191 94.1188Z" fill="#152B3D"/>
<path d="M81.2858 93.2305C81.2858 93.2305 81.1671 94.0992 81.1522 94.2295C81.1373 94.3598 79.8306 94.1528 79.8306 94.1528L79.725 93.1186C79.725 93.1186 81.1229 93.1079 81.2858 93.2305Z" fill="#EEA886"/>
<path d="M81.1665 94.1188C81.1665 94.1188 81.5806 94.6424 81.9809 94.8703C82.3813 95.0982 83.8549 95.2856 84.0918 95.5219C84.263 95.692 84.547 96.3787 82.207 96.3144C80.5448 96.2686 79.7423 96.4179 79.5639 96.1365C79.3855 95.8551 79.8217 94.0599 79.8217 94.0599C79.8217 94.0599 80.3384 94.1516 81.1665 94.1188Z" fill="#152B3D"/>
<path d="M72.6787 71.6034C72.6787 71.6034 72.0087 73.6799 72.097 75.4691C72.1853 77.2583 71.7504 79.2164 71.5732 81.0853C71.3751 83.169 70.5643 88.1021 70.535 89.2166C70.5058 90.331 70.6609 93.8903 70.6609 93.8903L72.2838 93.9296C72.2838 93.9296 73.6465 85.3056 73.9997 84.4256C74.3529 83.5456 76.1028 77.272 76.1619 76.5681C76.221 75.8642 72.6793 71.6034 72.6793 71.6034H72.6787Z" fill="#FFC05C"/>
<path d="M79.4064 71.3875C79.4064 71.3875 80.3915 76.877 80.509 77.9724C80.6265 79.0672 80.7053 83.272 80.7638 83.9563C80.8228 84.6405 81.1558 92.9128 81.4696 93.9297H79.66C79.66 93.9297 77.8021 87.916 77.8021 85.0707C77.8021 82.2254 76.5718 78.8851 75.7777 77.0079C74.9835 75.1306 73.1656 75.086 72.6775 71.6035C72.6775 71.6035 78.7448 70.2826 79.4058 71.3875H79.4064Z" fill="#FFC05C"/>
<path d="M77.1583 57.4026C77.1583 57.4026 76.9542 57.9952 77.1583 58.4177C77.3623 58.8401 74.5504 58.5867 74.5504 58.5867C74.5504 58.5867 74.6775 57.7132 74.3099 56.9944C73.9424 56.2757 77.1577 57.4026 77.1577 57.4026H77.1583Z" fill="#EEA886"/>
<path d="M72.5481 72.0562C72.5481 72.0562 73.5594 73.0921 79.4971 71.895L79.4064 71.3881L72.6561 71.6415L72.5475 72.0568L72.5481 72.0562Z" fill="#FFC05C"/>
<path d="M77.5843 58.5545C77.5843 58.5545 78.623 58.6604 78.9196 58.7163C79.2161 58.7729 81.2136 58.3599 81.6235 58.3177C82.0334 58.2754 83.7804 57.0819 83.837 56.9409C83.8937 56.7998 84.9003 54.2586 84.9563 53.7088C85.013 53.159 85.9366 53.4429 85.8573 53.8219C85.7093 54.5299 85.519 56.2495 85.4146 56.7481C85.3018 57.286 84.9999 58.5051 84.8305 58.6551C84.661 58.805 83.0877 59.9986 81.5478 60.5055C80.0078 61.013 78.8486 61.7598 78.8486 61.7598H71.2581C71.2581 61.7598 68.306 57.5513 68.2422 56.9171C68.1783 56.2828 70.3041 52.0684 70.7283 51.54C71.1519 51.0117 71.7653 51.7126 71.7653 51.7126C71.7653 51.7126 70.495 55.429 70.3256 55.9573C70.1562 56.4857 71.8029 58.8074 72.2551 58.8145C72.7074 58.8217 73.8684 58.6735 74.3839 58.6527C74.8994 58.6313 75.4436 58.4063 75.4436 58.4063L77.5843 58.5545Z" fill="#EEA886"/>
<path d="M80.8551 61.3659C80.8551 61.3659 79.9261 61.9817 79.8414 63.039C79.7566 64.0957 79.4178 65.7653 79.2477 66.3359C79.0783 66.9065 79.3963 71.0489 79.4386 71.3452C79.481 71.6409 73.5653 72.3442 72.6567 71.6409C72.6567 71.6409 72.4025 67.7734 72.2963 66.6738C72.1901 65.5749 71.6818 62.9117 71.5123 62.5523C71.3429 62.1929 69.2869 59.3173 69.2021 58.9383C69.2021 58.9383 70.2659 57.2473 71.0284 57.2264C71.0284 57.2264 72.2402 58.6425 72.6352 58.7062C73.0302 58.7699 75.4519 58.3272 75.4525 58.3236C75.4525 58.3236 75.7168 58.6824 77.1219 58.26C77.1219 58.26 78.7955 58.4486 79.0675 58.4831C79.3975 58.5253 81.6886 58.1963 81.6886 58.1963C81.6886 58.1963 82.608 59.7445 82.4469 60.5257L80.8551 61.3665V61.3659Z" fill="#254380"/>
<path d="M84.9026 54.0396C84.9026 54.0396 85.1103 53.0602 84.8603 52.7788C84.7183 52.6187 84.3764 52.1951 84.3448 52.1326C84.3138 52.0702 83.9468 51.8601 83.9468 51.759C83.9468 51.6578 84.306 51.5335 84.618 51.8214C84.9301 52.1094 85.1258 52.1719 85.2505 52.141C85.3752 52.11 85.5548 51.0741 85.5709 50.8171C85.587 50.56 85.686 49.8829 85.8471 49.9293C86.0082 49.9763 86.0005 50.2721 86.0005 50.2721C86.0005 50.2721 86.1878 49.758 86.3125 49.8591C86.4372 49.9603 86.4217 50.2096 86.4217 50.2096C86.4217 50.2096 86.6562 49.9216 86.7182 50.1316C86.7808 50.3417 86.7182 50.5285 86.7182 50.5285C86.7182 50.5285 86.9604 50.3964 86.976 50.7231C86.9915 51.0503 86.9055 52.0077 86.7337 52.3504C86.5619 52.6931 85.9193 53.5892 85.8423 53.939C85.7654 54.2889 84.902 54.0396 84.902 54.0396H84.9026Z" fill="#EEA886"/>
<path d="M71.5577 52.3195C71.5577 52.3195 72.2641 51.136 72.5039 51.0301C72.7444 50.9242 73.0833 50.8647 73.3798 50.6535C73.6763 50.4423 74.0683 50.2661 74.0474 50.1953C74.0259 50.1251 73.6763 50.1531 73.3022 50.3149C72.9275 50.4768 72.7635 50.3988 72.7283 50.3143C72.6931 50.2299 72.9281 49.6331 73.0409 49.4921C73.1537 49.351 73.9591 48.543 73.8249 48.4234C73.6906 48.3038 73.168 48.7477 73.0833 48.8393C73.0833 48.8393 73.5003 47.9659 73.3374 47.9236C73.1751 47.8814 72.8715 48.1914 72.8715 48.1914C72.8715 48.1914 72.9067 47.4447 72.1012 48.6561C72.1012 48.6561 72.2706 48.2545 72.0236 48.3883C71.7766 48.5222 71.5362 49.2761 71.4586 49.6563C71.381 50.0365 71.0284 51.2485 70.7277 51.5412C70.427 51.8334 71.5577 52.3195 71.5577 52.3195Z" fill="#EEA886"/>
<path d="M74.3105 56.9944C74.3105 56.9944 74.6828 57.0271 75.474 56.7546C76.2651 56.4821 76.3242 55.1023 76.4954 55.2659C76.8445 55.5991 77.1744 55.3694 77.3063 55.1719C77.3063 55.1719 76.9202 54.6643 77.0992 54.4204C77.2782 54.1764 77.5694 53.9979 77.5694 53.9979C77.5694 53.9979 77.0127 51.3228 74.48 52.5414C71.5129 53.9694 74.3105 56.9944 74.3105 56.9944Z" fill="#353A3D"/>
<path d="M77.1583 58.4176L77.0688 58.0309C77.0688 58.0309 75.4525 57.9981 74.5701 58.1255L74.477 58.5878C74.477 58.5878 75.6064 59.0989 77.1577 58.4176H77.1583Z" fill="#254380"/>
<path d="M76.7597 54.9274C76.613 54.6841 76.07 54.5199 76.0062 55.2095C75.9567 55.7438 76.9763 56.3275 76.9859 55.8294C76.9954 55.3314 76.8576 55.0893 76.7597 54.9274Z" fill="#EEA886"/>
<path d="M84.9414 53.8171C84.9414 53.8171 85.5249 53.8314 85.8077 54.0861C85.8077 54.0861 85.8262 54.2479 85.7606 54.3752C85.7606 54.3752 85.2553 54.1402 84.8674 54.0962C84.8674 54.0962 84.874 53.885 84.942 53.8171H84.9414Z" fill="#E55353"/>
<path d="M85.6287 53.9623C85.6824 54.0896 85.6228 54.2366 85.4951 54.2901C85.3674 54.3437 85.2206 54.2842 85.1664 54.1568C85.1127 54.0295 85.1723 53.8831 85.3 53.829C85.4277 53.7754 85.5745 53.8349 85.6287 53.9623Z" fill="#353A3D"/>
<path d="M131.704 67.5283C131.704 67.5283 131.187 67.5974 131.19 67.379C131.195 67.1606 131.23 66.8756 131.23 66.8756L131.704 67.5289V67.5283Z" fill="#EEA987"/>
<path d="M134.614 65.1591L132.915 66.4705C133.131 66.4294 133.494 66.3776 133.502 66.4907C133.514 66.6519 132.856 66.8465 132.648 66.9929C132.457 67.1273 132.257 67.3671 132.203 67.3778L131.831 67.6956L131.23 66.875C131.23 66.875 132.223 65.7559 132.461 65.5167C132.85 65.1281 134.422 64.9008 134.508 64.9568C134.663 65.0585 134.614 65.1585 134.614 65.1585V65.1591Z" fill="#EEA987"/>
<path d="M132.516 67.7509L131.145 66.593L126.444 71.3298C125.708 71.8344 127.879 73.5736 128.492 73.9526C130.068 74.9272 131.927 77.1816 133.855 75.8066C135.946 74.3155 132.902 73.2552 131.888 73.2808C131.009 73.3034 129.094 71.5791 129.094 71.5791L132.516 67.7503V67.7509Z" fill="#2F4563"/>
<path d="M130.035 110.259C130.035 110.259 129.254 111.078 128.461 111.248C127.668 111.42 127.114 111.638 127.108 112.108C127.102 112.577 129.39 112.886 130.297 112.413C131.652 111.706 131.789 111.919 131.939 111.567C132.089 111.214 131.759 110.27 131.768 110.158C131.78 110.019 130.035 110.259 130.035 110.259Z" fill="#202338"/>
<path d="M130.123 109.868C130.123 109.868 130.02 110.251 130.035 110.259C130.051 110.268 131.822 110.465 131.768 110.158C131.725 109.908 131.663 109.637 131.663 109.637L130.123 109.867V109.868Z" fill="#2F6B8C"/>
<path d="M138.857 110.473C138.857 110.473 138.283 111.269 137.514 111.453C136.756 111.634 136.265 111.979 136.228 112.435C136.191 112.892 138.015 113.489 139.296 112.688C140.138 112.161 140.452 112.191 140.622 111.856C140.791 111.522 140.533 110.584 140.55 110.476C140.571 110.342 138.858 110.473 138.858 110.473L138.857 110.473Z" fill="#202338"/>
<path d="M138.881 110.079C138.881 110.079 138.843 110.464 138.858 110.472C138.872 110.481 140.561 110.779 140.55 110.475C140.543 110.234 140.444 109.935 140.444 109.935L138.882 110.079H138.881Z" fill="#2F6B8C"/>
<path d="M131.909 86.8575C131.909 86.8575 131.089 92.7998 130.754 94.8085C130.362 97.1569 130.23 99.0978 130.121 100.313C129.983 101.843 129.801 109.667 129.705 110.114C129.609 110.561 132.094 110.329 132.094 110.329C132.094 110.329 133.396 100.128 133.805 98.4999C134.187 96.9838 135.296 90.434 135.644 90.8482C135.991 91.2623 137.056 98.6813 137.314 99.8773C137.571 101.073 138.261 110.487 138.261 110.487C138.261 110.487 140.605 110.862 141.078 110.487C141.078 110.487 140.708 102.092 140.544 99.8505C140.481 98.9961 141.086 89.6219 139.637 85.8412C138.871 83.8432 131.91 86.8575 131.91 86.8575H131.909Z" fill="#877D78"/>
<path d="M134.316 72.6061C134.316 72.6061 132.146 73.0535 131.888 73.2814C131.608 73.5236 131.115 75.8946 131.086 76.5551C131.057 77.2155 131.348 79.9746 131.627 81.0015C131.907 82.0291 131.91 86.4731 131.734 87.897C131.734 87.897 135.915 88.7502 140.212 88.1921C140.212 88.1921 139.626 83.8688 139.798 82.4611C140.018 80.6576 140.549 76.5027 140.549 76.5027C140.549 76.5027 140.552 74.1638 140.22 73.7895C139.507 72.9875 136.767 72.6061 136.767 72.6061H134.316Z" fill="#FFC05C"/>
<path d="M137.576 76.9437C137.677 79.0851 138.361 79.6051 139.034 79.4385C139.245 79.3868 139.452 79.2672 139.635 79.1089C139.921 78.8602 140.145 78.5175 140.225 78.1914C140.519 76.999 140.522 73.7105 139.013 73.2874C139.013 73.2874 137.377 72.7596 137.576 76.9437H137.576Z" fill="#2F4563"/>
<path d="M131.084 77.9159C131.084 77.9159 132.295 77.7154 132.369 79.4671C132.443 81.2187 133.203 84.4722 134.443 85.7693L129.569 85.9537C128.331 84.6572 127.722 81.5519 127.63 79.8014C127.545 78.1914 126.344 78.2503 126.344 78.2503L131.085 77.9165L131.084 77.9159Z" fill="#F5E1D9"/>
<path d="M133.927 73.9044C133.955 73.9228 133.984 73.9401 134.017 73.9561C134.127 74.0121 134.267 74.0525 134.443 74.0716C134.507 74.0787 134.571 74.0811 134.636 74.0799C134.675 74.0787 134.715 74.0763 134.755 74.0728C135.903 73.9609 137.045 72.6501 137.045 72.6501C134.737 72.3014 133.749 72.7298 133.749 72.7298C133.749 72.7298 133.379 73.5361 133.928 73.9044H133.927Z" fill="#2F4563"/>
<path d="M134.421 65.9754C134.421 65.9754 131.691 65.4292 132.393 68.8219C133.094 72.2146 133.753 72.4669 135.375 71.7231C136.996 70.9788 136.797 68.7993 136.854 67.7271C136.91 66.6543 135.287 65.9927 134.421 65.976V65.9754Z" fill="#EEA886"/>
<path d="M133.975 73.075C133.975 73.075 134.512 73.429 136.549 72.5341C136.549 72.5341 136.346 71.3275 136.66 70.0036C136.963 68.7291 134.157 71.575 134.157 71.575C134.19 71.5982 134.196 71.7285 134.178 71.9094C134.172 71.9588 134.166 72.0111 134.157 72.0659C134.143 72.1593 134.123 72.2598 134.098 72.3634C134.092 72.3913 134.085 72.4193 134.077 72.4473C133.963 72.8822 133.975 72.6954 133.975 73.075Z" fill="#EEA886"/>
<path d="M136.763 69.4782C136.763 69.4782 136.626 68.5637 136.232 68.5399C135.838 68.5155 135.725 69.0742 135.725 69.0742L135.416 69.1058C135.416 69.1058 135.544 68.1371 135.147 67.9824C134.75 67.8271 132.609 68.3549 132.287 68.0865C131.965 67.8176 132.124 66.0314 132.688 65.7571C133.252 65.4822 134.756 64.7337 135.928 65.4846C135.928 65.4846 136.824 65.3608 136.975 66.0814C137.125 66.8019 136.994 68.9344 136.763 69.4782Z" fill="#353A3D"/>
<path d="M135.74 68.2197C135.806 67.9008 136.455 67.8371 136.465 68.325C136.474 68.8129 136.059 69.6316 135.823 69.5275C135.588 69.4234 135.648 68.6594 135.739 68.2197H135.74Z" fill="#EEA886"/>
<path d="M136.549 72.1492C136.549 72.1492 135.484 72.79 134.43 72.934L134.991 73.8259L136.767 72.6061L136.549 72.1486L136.549 72.1492Z" fill="#4B6F9E"/>
<path d="M134.077 72.4473C134.077 72.4473 134.19 72.8144 134.43 72.934L133.903 73.6658L133.922 72.6948L134.077 72.4467L134.077 72.4473Z" fill="#4B6F9E"/>
<path d="M134.43 72.9339L134.013 73.5135C134.013 73.5135 134.277 73.8461 134.845 73.5938L134.43 72.9333V72.9339Z" fill="white"/>
<path d="M134.017 73.9562C134.127 74.0121 134.267 74.0526 134.443 74.0716C134.507 74.0787 134.571 74.0811 134.636 74.0799L134.573 73.5397H134.188C134.188 73.5397 134.089 73.6979 134.017 73.9562Z" fill="white"/>
<path d="M134.086 72.4127C135.294 72.4763 136.067 71.2268 136.091 71.1906C135.332 72.017 134.157 72.0664 134.157 72.0664C134.143 72.1598 134.111 72.3097 134.086 72.4127Z" fill="#A77860"/>
<path d="M131.084 77.9159C131.084 77.9159 129.634 78.0504 129.94 80.0686L125.635 80.3012C125.635 80.3012 125.041 78.9262 126.344 78.2497L131.084 77.9159Z" fill="#EDDAD3"/>
<path d="M126.051 79.5763L129.413 79.3959L129.404 79.2212L126.042 79.4016L126.051 79.5763Z" fill="#C9BAB3"/>
<path d="M126.338 78.8028L129.7 78.6224L129.691 78.4478L126.329 78.6282L126.338 78.8028Z" fill="#C9BAB3"/>
<path d="M131.497 80.1665L128.135 80.3469L128.145 80.5216L131.507 80.3412L131.497 80.1665Z" fill="#C9BAB3"/>
<path d="M131.917 81.3423L128.555 81.5227L128.565 81.6974L131.927 81.517L131.917 81.3423Z" fill="#C9BAB3"/>
<path d="M132.34 82.5141L128.978 82.6945L128.988 82.8691L132.35 82.6887L132.34 82.5141Z" fill="#C9BAB3"/>
<path d="M132.76 83.6904L129.398 83.8708L129.408 84.0455L132.77 83.8651L132.76 83.6904Z" fill="#C9BAB3"/>
<path d="M133.183 84.8622L129.821 85.0426L129.83 85.2173L133.192 85.0369L133.183 84.8622Z" fill="#C9BAB3"/>
<path d="M134.816 81.6888C134.816 81.6888 134.629 81.7768 134.466 81.7328C134.187 81.6566 133.948 81.2693 133.582 81.4686C133.217 81.6673 133.524 83.0031 133.709 83.1989C133.895 83.3946 134.465 83.2798 135.177 82.7705C135.889 82.2611 134.816 81.6888 134.816 81.6888Z" fill="#EEA886"/>
<path d="M133.715 81.4193C133.715 81.4193 133.097 81.4645 132.415 81.6002C131.817 81.7192 131.091 81.9494 131.119 82.1C131.162 82.3285 131.735 82.0714 132.336 81.9935C132.889 81.9221 132.792 82.0298 132.792 82.0298C132.792 82.0298 132.817 81.9976 132.23 82.194C131.598 82.4046 130.928 82.6575 130.949 82.7813C130.974 82.9348 130.99 82.9514 131.232 82.9127C131.098 82.9651 131.093 83.0097 131.11 83.068C131.195 83.3709 132.172 83.2067 132.56 83.1412C132.262 83.193 132.049 83.2632 132.221 83.4149C132.419 83.5881 133.789 83.2935 134.29 83.2352C134.836 83.1722 133.713 81.4187 133.713 81.4187L133.715 81.4193Z" fill="#EEA886"/>
<path d="M138.532 73.3296C138.089 73.4748 137.852 74.0995 138.121 75.3966C138.42 76.8312 138.754 77.5285 138.946 77.8665C139.138 78.2044 140.177 79.9347 139.988 80.2084C139.797 80.4821 137.287 81.1336 137.116 81.1818C136.776 81.2782 134.497 81.7316 134.497 81.7316L135.055 83.6772C135.055 83.6772 141.991 82.4974 142.329 82.1606C142.667 81.8238 142.843 81.3674 142.469 80.1917C142.09 78.9964 141.408 76.1981 141.287 75.9791C141.166 75.7602 140.53 72.6751 138.532 73.3296Z" fill="#2F4563"/>
<path d="M138.183 75.6798C138.183 75.6798 138.339 77.8777 139.034 79.4384C139.245 79.3867 139.452 79.2671 139.635 79.1088C139.635 79.1088 138.832 77.6641 138.76 77.5005C138.689 77.3363 138.265 76.0624 138.184 75.6798H138.183Z" fill="#1E2C40"/>
<g style="mix-blend-mode:hard-light">
<path d="M16.176 55.9698H47.4637C48.5782 55.9698 49.4833 56.8725 49.4833 57.9839V79.0725C49.4833 80.184 48.5782 81.0866 47.4637 81.0866H16.176C15.0615 81.0866 14.1564 80.184 14.1564 79.0725V57.9839C14.1564 56.8725 15.0615 55.9698 16.176 55.9698Z" fill="url(#paint11_linear_24_1257)"/>
</g>
<path d="M40.3428 60.6781H39.2384V66.8006H40.3428V60.6781Z" fill="url(#paint12_linear_24_1257)"/>
<path d="M42.2819 59.0454H41.1775V66.8H42.2819V59.0454Z" fill="url(#paint13_linear_24_1257)"/>
<path d="M44.317 59.8993H43.2126V66.8001H44.317V59.8993Z" fill="url(#paint14_linear_24_1257)"/>
<path d="M46.4076 61.8823H45.3032V66.8006H46.4076V61.8823Z" fill="url(#paint15_linear_24_1257)"/>
<path d="M40.3428 62.9177H39.2384V66.8007H40.3428V62.9177Z" fill="#007BDE"/>
<path d="M42.2819 61.8823H41.1775V66.8006H42.2819V61.8823Z" fill="#007BDE"/>
<path d="M44.317 62.4238H43.2126V66.8006H44.317V62.4238Z" fill="#007BDE"/>
<path d="M46.4076 63.7394H45.3032V66.8007H46.4076V63.7394Z" fill="#007BDE"/>
<path d="M45.669 68.8969H39.9771C39.7365 68.8969 39.5415 69.0913 39.5415 69.3312V70.2076C39.5415 70.4475 39.7365 70.642 39.9771 70.642H45.669C45.9095 70.642 46.1045 70.4475 46.1045 70.2076V69.3312C46.1045 69.0913 45.9095 68.8969 45.669 68.8969Z" fill="white"/>
<path d="M45.669 72.1646H39.9771C39.7365 72.1646 39.5415 72.359 39.5415 72.5989V73.4753C39.5415 73.7152 39.7365 73.9097 39.9771 73.9097H45.669C45.9095 73.9097 46.1045 73.7152 46.1045 73.4753V72.5989C46.1045 72.359 45.9095 72.1646 45.669 72.1646Z" fill="white"/>
<path d="M39.9771 75.4323H45.669C45.9094 75.4323 46.1045 75.6268 46.1045 75.8666V76.743C46.1045 76.9828 45.9094 77.1774 45.669 77.1774H39.9771C39.7366 77.1774 39.5415 76.9828 39.5415 76.743V75.8666C39.5415 75.6268 39.7366 75.4323 39.9771 75.4323Z" fill="white"/>
<path d="M36.368 65.0038C34.908 60.9328 31.0072 58.4326 26.8952 58.5557C25.9 58.5855 24.8923 58.7693 23.9031 59.1216C20.908 60.1896 18.7607 62.569 17.8782 65.3798C17.2667 67.3278 17.2631 69.4829 18.0053 71.5529C18.0793 71.7588 18.1592 71.9617 18.2452 72.1592C18.636 73.0559 19.1479 73.8669 19.7564 74.5797C22.3083 77.5713 26.542 78.8357 30.4703 77.4351C35.5411 75.6263 38.1812 70.0607 36.368 65.0038ZM29.6487 75.1432C26.7037 76.1933 23.5296 75.2455 21.6162 73.0029C21.1603 72.4686 20.7755 71.8599 20.4831 71.1876C20.4187 71.0394 20.3585 70.8877 20.303 70.733C19.7463 69.1813 19.7493 67.5652 20.2081 66.1051C20.8698 63.9976 22.4795 62.2138 24.7252 61.4129C25.4663 61.1482 26.2222 61.0107 26.9686 60.9881C30.0508 60.8953 32.9761 62.7701 34.071 65.8225C35.4307 69.6138 33.4511 73.7866 29.6493 75.1426L29.6487 75.1432Z" fill="white"/>
<path d="M20.2081 66.1051L17.8782 65.3798C18.7607 62.5691 20.908 60.1903 23.9031 59.1216C24.8917 58.7688 25.8994 58.5855 26.8952 58.5558L26.968 60.9887C26.2216 61.0114 25.4663 61.1488 24.7246 61.4136C22.4789 62.2144 20.8692 63.9977 20.2075 66.1057L20.2081 66.1051Z" fill="#1A598C"/>
<path d="M20.4837 71.1876L18.2458 72.1592C18.1598 71.9617 18.0793 71.7588 18.0059 71.5529C17.2637 69.4829 17.2673 67.3278 17.8788 65.3798L20.2087 66.1051C19.7505 67.5652 19.7469 69.1812 20.3036 70.733C20.359 70.8877 20.4193 71.0388 20.4837 71.1876Z" fill="#2273B5"/>
<path d="M19.757 74.5797C19.1485 73.8669 18.636 73.0559 18.2458 72.1593L20.4837 71.1876C20.7761 71.86 21.1609 72.4681 21.6168 73.003L19.7576 74.5797H19.757Z" fill="#3788CC"/>
<path d="M46.3169 109.534C46.3169 109.534 45.9595 110.198 45.7263 110.462C45.493 110.727 44.5986 111.198 44.5938 111.982C44.5885 112.832 46.1009 112.596 46.6922 112.565C47.2835 112.534 47.3282 112.08 47.5776 111.599C47.8264 111.117 48.0776 111.199 48.1241 110.811C48.1707 110.423 47.8831 109.534 47.8831 109.534H46.3169V109.534Z" fill="#202338"/>
<path d="M47.8628 109.277C47.8628 109.277 47.932 109.64 47.9183 109.648C47.9052 109.657 46.2418 109.953 46.2513 109.652C46.2585 109.413 46.4046 109.134 46.4046 109.134L47.8622 109.277L47.8628 109.277Z" fill="#81807E"/>
<path d="M63.0914 78.0289C63.0914 78.0289 64.8359 77.663 64.966 77.7385C65.0967 77.8141 65.1044 77.9123 64.9427 77.9539C64.7805 77.995 63.2644 78.3579 63.2644 78.3579C63.2644 78.3579 65.3795 78.2812 65.5006 78.3181C65.5716 78.3395 65.5984 78.5281 65.5131 78.5585C65.4278 78.5888 63.3288 78.7893 63.3288 78.7893C63.3288 78.7893 65.3037 78.7215 65.3944 78.784C65.4738 78.8387 65.4564 79.0208 65.3097 79.0362C65.1629 79.0517 63.3276 79.2225 63.3276 79.2225C63.3276 79.2225 64.7632 79.2665 64.8067 79.3688C64.8336 79.4313 64.864 79.5926 64.4947 79.5694C64.1253 79.5462 63.2429 79.586 63.2429 79.586L63.0908 78.0295L63.0914 78.0289Z" fill="#EEA886"/>
<path d="M55.3267 109.408C55.3267 109.408 56.0558 110.22 56.7957 110.39C57.5355 110.56 58.0534 110.777 58.0587 111.242C58.0641 111.708 55.9293 112.015 55.0827 111.545C53.819 110.844 53.6908 111.056 53.5506 110.706C53.4103 110.355 53.7188 109.419 53.7099 109.308C53.6985 109.17 55.3273 109.408 55.3273 109.408H55.3267Z" fill="#202338"/>
<path d="M55.245 109.019C55.245 109.019 55.3411 109.4 55.3267 109.408C55.3124 109.416 53.6591 109.613 53.7093 109.307C53.7498 109.06 53.8077 108.791 53.8077 108.791L55.245 109.019Z" fill="#81807E"/>
<path d="M53.7421 86.2608C53.7421 86.2608 54.3435 92.0835 54.6561 94.0767C55.0219 96.4074 55.1454 98.3328 55.2474 99.5388C55.3757 101.056 55.4001 108.519 55.4902 108.963C55.5797 109.407 53.4986 109.086 53.4986 109.086C53.4986 109.086 52.4748 99.3342 52.093 97.7181C51.7374 96.2134 50.4176 89.7362 50.093 90.1468C49.7685 90.5573 49.3663 97.7057 49.1259 98.8921C48.8855 100.079 48.1546 109.368 48.1546 109.368C48.1546 109.368 46.4983 109.697 46.0574 109.325C46.0574 109.325 45.8569 101.32 46.0103 99.095C46.0687 98.2471 45.0139 88.9294 46.3665 85.1785C47.0812 83.196 53.7421 86.2602 53.7421 86.2602V86.2608Z" fill="#292C47"/>
<path d="M43.4376 87.0878C43.4376 87.0878 44.4512 87.3948 44.8755 87.3175C45.3003 87.2395 45.0855 82.0452 45.1022 80.9641C45.1153 80.0876 45.5962 77.7725 45.5962 77.7725C45.5962 77.7725 45.5962 77.7737 45.5968 77.7761C45.5974 77.7767 45.5974 77.7778 45.5974 77.7784C45.5974 77.7796 45.598 77.7808 45.598 77.7826C45.6457 77.9558 46.2949 80.3584 46.3175 81.5121C46.3414 82.7098 46.1612 87.2919 46.1612 87.2919L47.9505 87.4656L53.0929 87.5912L54.1657 87.465C54.1657 87.465 54.0374 85.5057 53.9897 84.5751C53.9599 83.9837 53.8447 82.9246 53.8745 81.8929C53.8745 81.8929 53.856 80.8052 53.964 80.3375C53.9754 78.2705 54.1013 76.2237 54.1013 76.2237C54.1711 75.2866 54.2194 74.4107 54.2468 73.5932C54.0201 73.4736 53.7474 73.3338 53.5291 73.2303C52.8543 72.9096 51.914 72.4782 51.3102 72.2021C50.9564 72.0403 50.6109 71.9219 50.6109 71.9219C50.6109 71.9219 48.1987 71.691 48.003 71.7035C47.941 71.7071 47.6397 71.8118 47.2441 71.9623C46.3885 72.286 44.74 72.9447 44.4775 73.1333C44.0921 73.4082 43.2783 79.9413 43.2419 80.3988C43.1756 81.2229 43.437 87.0878 43.437 87.0878H43.4376Z" fill="#CAC7D1"/>
<path d="M54.0112 86.6464C54.0112 86.6464 50.4815 86.9462 47.3897 86.6464V87.6579C47.3897 87.6579 52.0321 88.3266 54.1657 87.4651L54.0112 86.6464Z" fill="#1D2033"/>
<path d="M51.0005 72.0682C51.0005 72.0682 51.5745 73.4135 52.0053 76.4201C52.1705 77.575 52.4778 79.5188 52.7003 81.5032C52.8764 83.068 53.2773 84.6727 53.405 85.8699C53.5368 87.1098 53.9348 90.7637 53.9348 90.7637L54.9001 90.1568C55.038 90.0295 55.2313 89.8647 55.1752 89.6862C54.9097 88.8312 54.402 86.0055 54.1013 83.5422C54.1013 83.5404 54.1007 83.5392 54.1007 83.5369C54.0863 83.4179 54.0726 83.3007 54.0589 83.1834C54.0583 83.1775 54.0577 83.1709 54.0571 83.165C54.0004 82.6723 53.9533 82.2005 53.9199 81.7679C53.8942 81.4365 53.9175 81.1128 53.9628 80.7963C54.0971 78.5853 54.1645 76.2547 54.1645 76.2547C54.2355 75.3003 54.2761 74.409 54.3029 73.5778C54.1466 73.4582 53.8011 73.2743 53.5595 73.1595C53.5595 73.1595 51.4039 72.1849 51.0005 72.0682Z" fill="#323657"/>
<path d="M50.8198 72.7698C50.8198 72.7698 50.8842 73.6902 50.1032 73.7117C49.3222 73.7331 48.7023 72.9852 48.7023 72.9852L49.9982 73.3184L50.7869 72.6514L50.8192 72.7692L50.8198 72.7698Z" fill="#CAC7D1"/>
<path d="M61.1326 78.7722C61.1326 78.7722 61.7012 78.6139 61.7776 78.2747C61.842 77.9862 62.1242 77.6506 62.2107 77.5471C62.3265 77.4084 62.5365 76.8545 62.6982 76.9949C62.8599 77.1353 62.3933 77.9231 62.3259 78.107C62.2591 78.2908 63.0466 77.9683 63.2286 78.0242C63.4112 78.0808 63.7781 79.4368 63.2167 79.5945C62.6546 79.7521 61.9751 79.5415 61.8808 79.5891C61.7859 79.6367 61.4757 79.7206 61.4757 79.7206L61.1326 78.7728V78.7722Z" fill="#EEA886"/>
<path d="M49.7655 65.7184C49.7655 65.7184 51.5566 66.0194 51.2523 68.8159C50.9486 71.6118 49.3675 71.3655 49.2619 71.3613C49.1563 71.3572 47.6719 71.3953 47.5937 67.9764C47.5937 67.9764 47.5711 65.4488 49.7655 65.7184Z" fill="#EEA987"/>
<path d="M50.5501 70.551C50.5501 70.551 50.5501 71.7029 50.5972 71.9522C50.6485 72.2205 49.1593 72.9952 48.1981 72.0926C48.1981 72.0926 48.3926 70.8348 48.3324 70.3903C48.2721 69.9465 50.5507 70.551 50.5507 70.551H50.5501Z" fill="#EEA987"/>
<path d="M51.2595 68.1644C51.2595 68.1644 51.4582 67.9574 51.528 68.1698C51.5978 68.3822 51.2762 69.2812 51.2344 69.3675C51.2344 69.3675 51.1974 69.4496 51.1509 69.4038C51.1043 69.358 51.2589 68.1644 51.2589 68.1644H51.2595Z" fill="#EEA987"/>
<path d="M47.6146 67.9502C47.6146 67.9502 47.4249 67.7349 47.3461 67.9449C47.268 68.1543 47.5544 69.0956 47.5896 69.1539C47.5896 69.1539 47.651 69.2503 47.6999 69.2069C47.7483 69.1628 47.6146 67.9508 47.6146 67.9508V67.9502Z" fill="#EEA987"/>
<path d="M51.4033 67.7878C51.3418 68.1704 51.2833 68.4548 51.2833 68.4548L51.0226 68.7945C51.0226 68.7945 51.0381 68.0437 50.9981 67.9258C50.9832 67.8812 50.9653 67.8021 50.9468 67.7164C50.917 67.5748 50.8866 67.4153 50.8651 67.3624C50.8317 67.2773 49.3299 66.84 47.9929 67.454C47.9929 67.454 48.0042 67.5694 48.0036 67.6986C48.0036 67.8485 47.9869 68.0163 47.9177 68.0413C47.7894 68.0883 47.8431 68.9195 47.8431 68.9195L47.6349 68.6797C47.6349 68.6797 47.5746 68.2454 47.5156 67.7462C47.5156 67.7462 47.5156 67.745 47.5156 67.7426C47.5024 67.626 47.4887 67.5064 47.4756 67.3874C47.4458 66.8852 47.4959 65.9731 48.1516 65.437C48.5943 65.2483 49.3007 65.0877 50.4785 65.4471C50.4785 65.4471 50.772 65.5304 50.8478 65.603C51.5811 66.408 51.4045 67.7878 51.4045 67.7878H51.4033Z" fill="#353A3D"/>
<path d="M48.4547 70.9877C48.4547 70.9877 48.7405 71.3833 49.4045 71.3685C50.0686 71.3536 50.3568 71.0085 50.3568 71.0085C50.3568 71.0085 50.0423 71.6642 49.4015 71.657C48.7602 71.6499 48.4547 70.9877 48.4547 70.9877Z" fill="#C78D71"/>
<path d="M50.667 72.8263L49.9988 73.3189C49.9988 73.3189 50.5602 72.1319 50.5715 71.6571L50.667 72.8263Z" fill="#A09EA6"/>
<path d="M50.5715 71.6571L51.0256 72.0784L51.5041 73.5004L50.667 72.8263L50.5715 71.6571Z" fill="#EAE6F2"/>
<path d="M61.885 80.0876C61.885 80.0876 57.9412 81.1229 56.9776 80.8867C56.532 80.7772 55.9449 80.1638 55.387 79.4426C55.2032 79.2052 55.0231 78.9559 54.8512 78.709V78.7078C54.1669 77.7225 53.6305 76.7776 53.6305 76.7776C53.6305 76.7776 51.6079 74.4137 53.2308 73.3594C53.2308 73.3594 53.9151 73.2903 54.3041 73.5765C54.6633 73.8407 55.5374 75.5049 55.6794 75.8137C55.8214 76.1219 57.3583 78.9869 57.4615 79.0511C57.5647 79.1154 58.8827 78.8804 59.5784 78.8226C60.7132 78.728 61.6571 78.4401 61.6571 78.4401L61.885 80.0864V80.0876Z" fill="#323657"/>
<path d="M50.4856 72.0813C50.4856 72.0813 50.3007 72.7287 49.9988 73.3195C49.9988 73.3195 49.2977 72.7066 49.077 72.4883C48.8562 72.2699 50.4856 72.0813 50.4856 72.0813Z" fill="#EEA987"/>
<path d="M49.2649 72.634L49.9988 73.3189C49.9988 73.3189 49.1313 73.2618 48.9696 73.1172L49.2655 72.634H49.2649Z" fill="#A09EA6"/>
<path d="M48.2918 71.3721C48.2918 71.3721 48.8789 72.3235 49.2649 72.6341L48.614 73.7116L47.5705 71.8207L48.2918 71.3721Z" fill="#EAE6F2"/>
<path d="M45.1762 81.0129C45.1016 82.016 45.527 87.5668 45.1022 87.6447C44.6774 87.7227 43.1172 87.3805 43.1172 87.3805C43.1172 87.3805 42.9215 81.3948 42.9841 80.7671C43.0295 80.3102 43.7591 73.4599 44.144 73.1844C44.3665 73.0256 46.0138 72.4431 46.8223 72.1253C46.9702 72.067 47.438 71.8713 47.5705 71.8213C47.7417 72.0117 49.2357 75.5073 49.3777 78.2342C49.4206 79.0642 49.2261 80.8165 49.0776 82.2481C48.9195 83.7754 48.744 84.9678 48.6152 86.2453C48.3622 88.7621 48.185 90.7643 48.185 90.7643L45.6738 89.6493C45.2674 89.4464 44.7048 88.6146 44.8576 88.188C45.4381 86.566 46.1696 83.7957 46.1702 82.3724C46.1702 82.3724 45.8897 78.8875 45.6678 78.1217C45.6678 78.1217 45.2716 79.7378 45.1768 81.0134L45.1762 81.0129Z" fill="#323657"/>
<path d="M51.4987 86.7089H49.8353V87.9423H51.4987V86.7089Z" fill="#3A4066"/>
<path d="M46.1057 93.2223H40.6322L41.9167 89.5874H47.3903L46.1057 93.2223Z" fill="#EDDAD3"/>
<path d="M46.1057 93.2223H40.6322L41.9167 89.5874H47.3903L46.1057 93.2223Z" fill="#F2DFD8"/>
<path d="M41.9167 96.8571H47.3903L46.1057 93.2223H40.6322L41.9167 96.8571Z" fill="#D6C5BE"/>
<path d="M46.1057 100.493H40.6322L41.9167 96.8571H47.3903L46.1057 100.493Z" fill="#F2DFD8"/>
<path d="M41.9167 104.127H47.3903L46.1057 100.493H40.6322L41.9167 104.127Z" fill="#D6C5BE"/>
<path d="M45.3593 90.1943H42.2377V90.3288H45.3593V90.1943Z" fill="#C9BAB3"/>
<path d="M45.1738 90.6823H42.0522V90.8167H45.1738V90.6823Z" fill="#C9BAB3"/>
<path d="M44.3749 91.17H41.8493V91.3045H44.3749V91.17Z" fill="#C9BAB3"/>
<path d="M45.3593 97.4385H42.2377V97.5729H45.3593V97.4385Z" fill="#C9BAB3"/>
<path d="M43.613 97.9269H42.0522V98.0614H43.613V97.9269Z" fill="#C9BAB3"/>
<path d="M44.7901 87.7137C44.7901 87.7137 44.8194 87.8065 44.8713 87.9624C44.9602 88.2314 45.246 88.5378 45.07 88.9049C44.8934 89.2714 43.5688 89.0412 43.3678 88.8698C43.1661 88.6984 43.249 88.1374 43.712 87.4168C44.1744 86.6963 44.7907 87.7137 44.7907 87.7137H44.7901Z" fill="#EEA886"/>
<path d="M45.1105 88.7729C45.1105 88.7729 45.098 89.3774 45.0002 90.0492C44.9142 90.6382 44.7257 91.3576 44.5765 91.3379C44.3504 91.3082 44.573 90.7358 44.6183 90.1462C44.6601 89.6035 44.5598 89.7035 44.5598 89.7035C44.5598 89.7035 44.5903 89.6767 44.428 90.2592C44.2538 90.8857 44.0402 91.5521 43.9179 91.5379C43.7663 91.5206 43.749 91.5057 43.7747 91.2683C43.7299 91.4016 43.687 91.4088 43.6285 91.3957C43.3272 91.3278 43.4382 90.3675 43.4817 89.9861C43.4459 90.2789 43.388 90.4901 43.2305 90.3294C43.0503 90.1462 43.2687 88.7949 43.3003 88.304C43.3343 87.7679 45.1105 88.7729 45.1105 88.7729Z" fill="#EEA886"/>
<path d="M45.2424 83.8189L45.2167 88.2302C45.2167 88.2302 44.3337 88.191 43.1172 87.7429L43.033 81.5222L45.243 83.8189H45.2424Z" fill="#323657"/>
<path d="M38.1699 81.7922L35.0984 88.6925L35.016 88.8775C34.8549 88.8948 34.7225 88.8585 34.6742 88.8424L34.7422 88.6901L37.7844 81.8565L33.3514 77.1025L32.6862 76.9585L32.7554 76.6401L33.5209 76.8061L38.1699 81.7917V81.7922Z" fill="url(#paint16_linear_24_1257)"/>
<path d="M33.4391 90.0265H36.2821C36.2821 90.0265 36.2773 89.958 36.2511 89.8539C36.1657 89.5171 35.8543 88.8043 34.7475 88.8043C33.6408 88.8043 33.4618 89.5171 33.4385 89.8539C33.4314 89.958 33.4391 90.0265 33.4391 90.0265Z" fill="url(#paint17_linear_24_1257)"/>
<path d="M30.5442 75.5757L30.7364 76.1183L31.9004 79.4075C32.3735 79.2409 32.747 78.9178 32.9815 78.5168C33.2727 78.0188 33.3508 77.4018 33.1438 76.8157C32.7691 75.7572 31.6057 75.2026 30.5448 75.5757H30.5442Z" fill="url(#paint18_linear_24_1257)"/>
<path d="M35.1694 88.693V88.8442C35.1163 88.8614 35.0644 88.8721 35.0154 88.8775C34.8543 88.8947 34.7219 88.8584 34.6736 88.8424C34.661 88.8382 34.6539 88.8352 34.6539 88.8352V88.6895H34.7416L35.0978 88.6924H35.1694V88.693Z" fill="#FFA855"/>
<path d="M33.4391 90.0264H36.2821C36.2821 90.0264 36.2773 89.958 36.2511 89.8539H33.4385C33.4314 89.958 33.4391 90.0264 33.4391 90.0264Z" fill="#FFA555"/>
<path d="M30.5442 75.5757L30.7364 76.1183C31.4159 76.6526 32.4696 77.5761 32.9815 78.5162C33.2727 78.0182 33.3508 77.4012 33.1438 76.8151C32.7691 75.7566 31.6057 75.202 30.5448 75.5751L30.5442 75.5757Z" fill="#FFA855"/>
<path d="M20.9521 81.3977C20.9521 81.3977 21.4473 80.773 21.5261 80.6802C21.6042 80.5873 21.9121 80.4993 22.2719 80.4321C22.6316 80.3648 23.1382 80.4493 23.1788 80.4993C23.2193 80.5493 23.2826 80.5778 23.2993 80.7522C23.3154 80.9265 23.2414 81.0883 23.2414 81.0883C23.2414 81.0883 23.3542 81.2883 23.2492 81.4804C23.2492 81.4804 23.347 81.6744 23.1967 81.8731C23.1967 81.8731 23.2873 82.0653 23.1674 82.2004C23.1674 82.2004 22.859 82.2891 22.7522 82.3575C22.6454 82.4259 21.9944 82.5628 21.3566 82.5889C21.3566 82.5889 20.7558 82.3902 20.9527 81.3977H20.9521Z" fill="#EEA886"/>
<path d="M6.66027 100.675L3.83817 112.409H3.21648L5.61018 100.649L6.66027 100.675Z" fill="#858585"/>
<path d="M9.7395 100.675L6.91741 112.409H6.29572L8.68883 100.649L9.7395 100.675Z" fill="#858585"/>
<path d="M14.719 100.675L17.5411 112.409H18.1628L15.7697 100.649L14.719 100.675Z" fill="#858585"/>
<path d="M17.3902 100.789H5.22953C5.22953 100.789 4.3823 100.769 3.8155 98.2673C3.1771 95.4523 1.88836 86.0507 1.88836 86.0507C1.88836 86.0507 2.23023 85.1761 7.5761 85.288L17.1491 97.6741C17.1491 97.6741 17.4755 99.6269 17.3902 100.789V100.789Z" fill="#E2D2CA"/>
<path d="M17.7643 89.0548C17.7643 89.0548 18.3836 88.7865 18.8484 88.8948C19.3131 89.0031 20.4014 89.4077 20.939 89.4755C21.4766 89.5427 21.9885 89.8545 21.9783 90.0324C21.9682 90.2103 17.8281 90.3561 17.8078 89.9503C17.7881 89.5445 17.7643 89.0554 17.7643 89.0554V89.0548Z" fill="#EEA886"/>
<path d="M20.9521 81.3978C20.9521 81.3978 20.1431 81.928 20.1258 82.091C20.0965 82.3599 20.263 83.1953 20.2833 83.1834C20.3036 83.1715 21.5028 82.5807 21.5028 82.5807L20.9521 81.3978Z" fill="#EEA886"/>
<path d="M20.9348 110.411C20.9348 110.411 21.9765 111.029 22.4485 111.259C22.9204 111.489 24.7563 111.559 24.937 111.731C25.1178 111.904 25.0504 112.451 24.7455 112.506C24.4412 112.561 22.2092 112.757 21.4652 112.581C20.7212 112.406 19.3281 112.694 19.0196 112.589C18.7117 112.484 18.9146 110.826 19.0345 110.455C19.1544 110.083 20.9342 110.411 20.9342 110.411H20.9348Z" fill="#292C47"/>
<path d="M20.9187 109.71L20.9348 110.411C20.9348 110.411 19.5393 110.668 19.0351 110.455L19.0703 109.685L20.9187 109.71V109.71Z" fill="#1C1E30"/>
<path d="M23.375 110.411C23.375 110.411 24.4168 111.029 24.8887 111.259C25.3607 111.489 27.1965 111.559 27.3773 111.731C27.5581 111.904 27.4907 112.451 27.1858 112.506C26.8815 112.561 24.6495 112.757 23.9055 112.581C23.1615 112.406 21.7683 112.694 21.4598 112.589C21.152 112.484 21.3548 110.826 21.4748 110.455C21.5947 110.083 23.3745 110.411 23.3745 110.411H23.375Z" fill="#323657"/>
<path d="M23.3589 109.71L23.375 110.411C23.375 110.411 21.9795 110.668 21.4754 110.455L21.5106 109.685L23.3589 109.71V109.71Z" fill="#1C1E30"/>
<path d="M15.16 93.3817L13.5747 93.1056L14.6313 90.4513L15.16 93.3817Z" fill="#24263D"/>
<path d="M10.4101 93.9255C10.4101 93.9255 18.3764 95.6123 19.6198 96.1389C20.8632 96.666 21.609 96.8826 21.7021 97.1462C21.7952 97.4098 23.7378 110.01 23.7378 110.01H21.0959C21.0959 110.01 19.0447 100.494 18.7959 99.9052C18.5471 99.3162 8.6948 99.2852 7.97943 98.5724C7.26466 97.8596 6.64296 95.9068 7.41978 94.1557C8.1966 92.4046 10.4095 93.9261 10.4095 93.9261L10.4101 93.9255Z" fill="#282B45"/>
<path d="M14.4452 93.0395C14.4452 93.0395 23.5809 95.6028 24.3291 96.7743C25.0904 97.9673 21.2832 110.01 21.2832 110.01H18.6724C18.6724 110.01 21.1902 98.7271 20.8793 98.2315C20.5685 97.7359 6.79988 98.216 9.36363 94.1557C11.928 90.0955 14.4452 93.0401 14.4452 93.0401V93.0395Z" fill="#282B45"/>
<path d="M13.4953 80.3779C13.839 80.1994 14.9857 80.5903 15.3246 81.1163C16.1116 82.339 17.5996 83.8497 17.5996 83.8497L20.9175 81.0681L21.5822 82.7258L17.6444 86.0358C17.309 86.3178 16.8138 86.3005 16.4988 85.9959C15.4642 84.9939 13.3348 82.8882 13.1708 82.3616C12.953 81.6643 12.8384 80.7183 13.4953 80.3779Z" fill="#323657"/>
<path d="M12.3725 73.2957C12.3725 73.2957 13.9577 73.5592 13.9732 76.2403C13.9888 78.9214 12.9691 79.1743 11.4244 78.7822C10.4948 78.5459 9.62197 77.2322 9.96384 74.923C10.3057 72.6138 12.3725 73.2957 12.3725 73.2957Z" fill="#EEA987"/>
<path d="M12.5801 79.6962C12.5801 79.6962 14.765 80.4875 15.0907 80.9831C15.4171 81.4788 15.2059 85.9413 15.0197 87.5377C14.833 89.134 14.3205 92.5743 14.4446 93.039L9.36302 94.1547C9.36302 94.1547 7.73122 88.2344 7.68469 87.2889C7.63815 86.3435 6.44129 81.9423 7.01645 81.5859C7.59161 81.2295 10.0933 79.8348 10.0933 79.8348L12.5795 79.6956L12.5801 79.6962Z" fill="#EDDAD3"/>
<path d="M9.36302 94.1558L9.11423 93.2413L14.4565 92.2036L14.4452 93.0396L9.36302 94.1558Z" fill="#1F2136"/>
<path d="M12.0204 92.6291L13.2871 92.3655V93.3651L12.0204 93.6596V92.6291Z" fill="#4F558A"/>
<path d="M11.4524 90.0271C11.4387 90.2889 11.422 90.5536 11.4083 90.822L11.4047 90.8256C11.2239 93.7666 10.9549 96.844 10.9549 96.844C10.5837 97.1534 5.87688 96.0627 5.87688 96.0627C5.87688 96.0627 6.45561 95.2779 7.01466 93.1044C7.5767 90.9344 7.13697 88.849 6.55466 85.3165C5.97592 81.7845 6.45561 81.8048 6.45561 81.8048L10.0927 79.8347C10.3314 80.7379 11.2949 84.0158 11.5229 85.8936C11.6046 86.5796 11.5533 88.2201 11.4513 90.0271H11.4524Z" fill="#323657"/>
<path d="M12.6153 79.7026C12.6153 79.7026 13.6743 82.4307 14.1236 85.2135C14.5818 88.0505 14.5591 93.1877 15.0561 93.3127C15.5531 93.4382 15.3998 93.3543 15.3998 93.3543C15.3998 93.3543 15.3067 90.2508 15.2614 89.222C15.16 86.9259 15.5895 81.75 15.3909 81.227C15.1916 80.704 13.7656 79.9091 12.6153 79.7026Z" fill="#323657"/>
<path d="M12.5288 79.2743C12.5288 79.4409 12.5425 79.5938 12.5801 79.6955C12.5801 79.6955 12.3009 80.7826 10.0939 79.8348C10.0939 79.8348 10.5295 78.2146 10.0939 76.8562L12.5801 78.3949C12.5801 78.3949 12.5497 78.6394 12.5359 78.9244C12.5294 79.0399 12.5258 79.1624 12.5294 79.2743H12.5288Z" fill="#EEA987"/>
<path d="M10.184 79.4039C10.184 79.4039 11.0515 79.8228 11.9268 79.9031L11.5002 80.8081L10.0939 79.8359L10.184 79.4039Z" fill="#D6C5BF"/>
<path d="M11.9268 79.9031C11.9268 79.9031 12.5371 79.7014 12.533 79.4039L12.6159 79.7026L12.3671 80.657L11.9274 79.9031H11.9268Z" fill="#D6C5BF"/>
<path d="M13.7835 74.8468C13.7835 74.8468 14.2268 73.8978 13.9058 73.2017C13.5848 72.5055 12.7454 72.7947 12.3623 72.8774C11.9793 72.9601 11.2538 72.1128 9.96921 73.1457C8.68465 74.1787 9.06769 75.2639 9.63748 76.5551C10.2073 77.8468 10.2765 77.9456 10.2765 77.9456C10.2765 77.9456 10.2807 76.6348 10.4358 76.4022C10.6178 76.1291 11.2848 75.9863 11.2848 75.9863C11.2848 75.9863 10.7771 75.2943 11.2747 75.0355C11.7717 74.7772 12.8014 75.2556 13.7835 74.8457V74.8468Z" fill="#16202E"/>
<path d="M10.6321 75.7185C10.5647 75.521 10.2299 75.2961 10.0623 75.6668C9.89463 76.0375 10.3314 76.6896 10.57 76.6896C10.8087 76.6896 10.7878 76.1731 10.6321 75.7185Z" fill="#EEA987"/>
<path d="M11.9268 79.9032L12.2454 80.4494C12.2454 80.4494 12.098 80.6184 11.6243 80.5446L11.9268 79.9032Z" fill="#007FE6"/>
<path d="M12.1774 80.4976C12.1774 80.4976 13.4816 84.3252 13.4918 87.042C13.5019 89.7593 13.2871 91.3813 13.2871 91.3813L13.0001 91.9162L12.5801 91.4277C12.5801 91.4277 12.8766 83.5374 11.7162 80.5565C11.7162 80.5565 12.129 80.3607 12.1774 80.4976Z" fill="#007FE6"/>
<path d="M6.86073 81.587C7.81475 81.1985 8.80398 82.517 9.332 83.8343C9.86062 85.1517 10.8707 87.5483 10.8707 87.5483L17.9278 88.6884L18.0274 90.0265H9.7932C9.7932 90.0265 6.65608 84.4228 6.43891 83.7255C6.22114 83.0281 6.17519 81.8655 6.86073 81.587Z" fill="#323657"/>
<path d="M38.7951 90.0265H15.5263V90.8256H38.7951V90.0265Z" fill="#E2D2CA"/>
<path d="M29.7215 76.0363H29.1612V88.4236H29.7215V76.0363Z" fill="#6E6760"/>
<path d="M30.5353 90.0265H34.7285V89.773H30.5353C30.3169 89.773 30.1594 89.7213 30.0675 89.6189C29.9571 89.4958 29.9745 89.3298 29.9745 89.328L29.9756 89.3203V89.3131V83.9099H29.7215V89.3072C29.7167 89.3589 29.7072 89.5939 29.8754 89.7843C30.0174 89.945 30.2394 90.0265 30.5353 90.0265Z" fill="#918880"/>
<path d="M29.2471 90.0265H24.5277V89.9902C24.5277 89.7653 24.7109 89.5832 24.9358 89.5832H29.2471V90.0271V90.0265Z" fill="#6E6760"/>
<path d="M36.3758 112.543H37.0368V90.8262H36.3758V112.543Z" fill="#706865"/>
<path d="M17.2846 112.543H17.9456L17.9456 90.8262H17.2846L17.2846 112.543Z" fill="#706865"/>
<path d="M11.4524 90.027C11.4387 90.2888 11.422 90.5536 11.4083 90.8219L11.4047 90.8255C11.4047 90.8255 10.4877 90.9463 9.71922 90.5982C8.94717 90.2484 8.41139 87.5988 8.3738 87.4596C8.45196 87.6125 9.68461 90.027 9.9883 90.027H11.453H11.4524Z" fill="#1F2136"/>
<path d="M12.5359 78.9244C12.5294 79.0398 12.5258 79.1624 12.5294 79.2743C10.7753 79.3016 10.7484 78.3032 10.7484 78.3032C11.0211 79.0267 12.5365 78.9244 12.5365 78.9244H12.5359Z" fill="#A77860"/>
<path d="M23.909 79.3847L21.9915 81.2307L22.1482 81.3925L24.0656 79.5466L23.909 79.3847Z" fill="#EB4747"/>
<path d="M23.9061 79.3902L24.2664 79.1998L24.0624 79.5521L23.9061 79.3902Z" fill="#EEA886"/>
<path d="M23.0833 80.5125C23.0833 80.5125 22.174 80.7076 22.1782 80.8712C22.1818 81.0349 22.2743 81.0878 22.2743 81.0878L21.9252 81.3532C21.9252 81.3532 21.7784 81.6679 22.1263 81.7358C22.1263 81.7358 21.9622 82.0154 22.3071 82.0363C22.3071 82.0363 22.2719 82.2701 22.4288 82.3111C22.5857 82.3522 23.1668 82.1999 23.1668 82.1999C23.1668 82.1999 23.3058 82.1083 23.2229 81.8732C23.2229 81.8732 23.3739 81.6929 23.2724 81.4817C23.2724 81.4817 23.3768 81.3133 23.2659 81.0866C23.2659 81.0866 23.446 80.6999 23.1782 80.4988C23.1782 80.4988 23.1215 80.5041 23.0833 80.5125Z" fill="#D69779"/>
<path d="M21.5535 80.6707C21.5535 80.6707 22.1513 80.8616 22.43 81.1252C22.4932 81.1847 22.5433 81.2561 22.5141 81.3454C22.4849 81.4346 22.3315 81.5072 22.0678 81.4394C21.8041 81.3716 21.43 81.418 21.43 81.418C21.43 81.418 21.1812 81.2597 21.5541 80.6712L21.5535 80.6707Z" fill="#EEA886"/>
<path d="M22.3196 100.904C22.3196 100.904 21.7611 97.4283 21.7319 97.2873C21.7021 97.1463 21.1341 96.64 18.4176 95.7528C18.4176 95.7528 21.4366 96.3383 22.2283 96.8524C22.8387 97.2486 22.3196 100.904 22.3196 100.904V100.904Z" fill="#12131F"/>
<path d="M33.6873 90.0265C33.9856 89.9028 34.4671 88.4986 34.6986 87.7721C34.781 87.5139 34.8317 87.3413 34.8317 87.3413H32.105C32.3407 89.0198 32.9129 90.0265 32.9129 90.0265H33.6873Z" fill="#9E633A"/>
<path d="M33.9063 86.5046C33.9063 86.4071 34.3436 85.9983 34.5626 85.7311C34.7815 85.464 34.4785 84.9576 34.4785 84.9576C33.5024 85.3605 33.6706 86.5046 33.6706 86.5046C33.6706 86.5046 33.9063 86.6022 33.9063 86.5046Z" fill="#97A43C"/>
<path d="M33.3508 86.5481H33.4684C33.4684 86.5481 33.5525 84.5715 32.8288 84.3032C32.105 84.0348 32.105 83.4976 32.105 83.4976C32.105 83.4976 31.8861 84.236 32.2399 84.6221C32.5931 85.0083 32.997 85.4611 32.9302 85.8306C32.8628 86.2001 33.3508 86.5481 33.3508 86.5481Z" fill="#97A43C"/>
<path d="M34.6992 87.7715C34.7816 87.5132 34.8323 87.3407 34.8323 87.3407H32.1056C32.3413 89.0192 32.9135 90.0259 32.9135 90.0259H33.0913C33.0579 88.4545 34.096 87.9381 34.6986 87.7715H34.6992Z" fill="#82522F"/>
<path d="M34.8311 86.5046H32.0848L31.9284 87.3412H34.9432L34.8311 86.5046Z" fill="#C67B47"/>
</g>
<defs>
<linearGradient id="paint0_linear_24_1257" x1="42.6393" y1="77.9212" x2="136.555" y2="77.9212" gradientUnits="userSpaceOnUse">
<stop stop-color="#FFC05C"/>
<stop offset="1" stop-color="#FF3857"/>
</linearGradient>
<linearGradient id="paint1_linear_24_1257" x1="42.6393" y1="75.3865" x2="136.605" y2="75.3865" gradientUnits="userSpaceOnUse">
<stop stop-color="#40D5E6"/>
<stop offset="1" stop-color="#5577FF"/>
</linearGradient>
<linearGradient id="paint2_linear_24_1257" x1="88.1955" y1="45.6942" x2="121.691" y2="45.6942" gradientUnits="userSpaceOnUse">
<stop stop-color="#8FD6FF"/>
<stop offset="1" stop-color="#BFEBFE"/>
</linearGradient>
<linearGradient id="paint3_linear_24_1257" x1="87.6388" y1="41.4055" x2="121.025" y2="41.4055" gradientUnits="userSpaceOnUse">
<stop stop-color="#8FD6FF"/>
<stop offset="1" stop-color="#BFEBFE"/>
</linearGradient>
<linearGradient id="paint4_linear_24_1257" x1="93.8462" y1="30.8323" x2="75.0602" y2="84.5027" gradientUnits="userSpaceOnUse">
<stop stop-color="#C6CBCF"/>
<stop offset="1" stop-color="#F8F1FE"/>
</linearGradient>
<linearGradient id="paint5_linear_24_1257" x1="108.575" y1="92.7391" x2="136.938" y2="133.863" gradientUnits="userSpaceOnUse">
<stop stop-color="#57C1FF"/>
<stop offset="1" stop-color="#BFEBFE"/>
</linearGradient>
<linearGradient id="paint6_linear_24_1257" x1="4.81665" y1="48.095" x2="5.31568" y2="72.264" gradientUnits="userSpaceOnUse">
<stop stop-color="#40D5E6"/>
<stop offset="1" stop-color="#5577FF"/>
</linearGradient>
<linearGradient id="paint7_linear_24_1257" x1="0.949249" y1="48.1747" x2="1.44827" y2="72.3437" gradientUnits="userSpaceOnUse">
<stop stop-color="#40D5E6"/>
<stop offset="1" stop-color="#5577FF"/>
</linearGradient>
<linearGradient id="paint8_linear_24_1257" x1="129.221" y1="0.405225" x2="123.436" y2="22.1057" gradientUnits="userSpaceOnUse">
<stop stop-color="#40D5E6"/>
<stop offset="1" stop-color="#5577FF"/>
</linearGradient>
<linearGradient id="paint9_linear_24_1257" x1="128.368" y1="1.88852" x2="123.888" y2="18.6951" gradientUnits="userSpaceOnUse">
<stop stop-color="#40D5E6"/>
<stop offset="1" stop-color="#5577FF"/>
</linearGradient>
<linearGradient id="paint10_linear_24_1257" x1="31.9147" y1="57.9423" x2="31.9147" y2="89.6171" gradientUnits="userSpaceOnUse">
<stop stop-color="#626E7A"/>
<stop offset="1" stop-color="#F5F5F5"/>
</linearGradient>
<linearGradient id="paint11_linear_24_1257" x1="31.8204" y1="69.4276" x2="31.8204" y2="137.241" gradientUnits="userSpaceOnUse">
<stop stop-color="#44607D"/>
<stop offset="1" stop-color="#F5F5F5"/>
</linearGradient>
<linearGradient id="paint12_linear_24_1257" x1="39.2384" y1="63.7394" x2="40.3428" y2="63.7394" gradientUnits="userSpaceOnUse">
<stop stop-color="#D5E4FF"/>
<stop offset="1" stop-color="#EDFFFE"/>
</linearGradient>
<linearGradient id="paint13_linear_24_1257" x1="41.1775" y1="62.923" x2="42.2819" y2="62.923" gradientUnits="userSpaceOnUse">
<stop stop-color="#D5E4FF"/>
<stop offset="1" stop-color="#EDFFFE"/>
</linearGradient>
<linearGradient id="paint14_linear_24_1257" x1="43.2126" y1="63.3503" x2="44.317" y2="63.3503" gradientUnits="userSpaceOnUse">
<stop stop-color="#D5E4FF"/>
<stop offset="1" stop-color="#EDFFFE"/>
</linearGradient>
<linearGradient id="paint15_linear_24_1257" x1="45.3032" y1="64.3415" x2="46.4076" y2="64.3415" gradientUnits="userSpaceOnUse">
<stop stop-color="#D5E4FF"/>
<stop offset="1" stop-color="#EDFFFE"/>
</linearGradient>
<linearGradient id="paint16_linear_24_1257" x1="35.4277" y1="86.8414" x2="35.4277" y2="81.506" gradientUnits="userSpaceOnUse">
<stop stop-color="#FF9F55"/>
<stop offset="1" stop-color="#FFD255"/>
</linearGradient>
<linearGradient id="paint17_linear_24_1257" x1="36.2827" y1="89.4154" x2="33.4361" y2="89.4154" gradientUnits="userSpaceOnUse">
<stop stop-color="#FF9F55"/>
<stop offset="1" stop-color="#FFD255"/>
</linearGradient>
<linearGradient id="paint18_linear_24_1257" x1="33.2601" y1="77.4333" x2="30.5442" y2="77.4333" gradientUnits="userSpaceOnUse">
<stop stop-color="#FF9F55"/>
<stop offset="1" stop-color="#FFD255"/>
</linearGradient>
<clipPath id="clip0_24_1257">
<rect width="142.679" height="119" fill="white"/>
</clipPath>
</defs>
</svg>
