<?xml version="1.0" encoding="utf-8"?>
<!-- Generator: Adobe Illustrator 25.3.1, SVG Export Plug-In . SVG Version: 6.00 Build 0)  -->
<svg version="1.1" id="Layer_1" xmlns="http://www.w3.org/2000/svg" xmlns:xlink="http://www.w3.org/1999/xlink" x="0px" y="0px"
	 viewBox="0 0 122.48 112.05" style="enable-background:new 0 0 122.48 112.05;" xml:space="preserve">
<style type="text/css">
	.st0{fill:#24487F;}
	.st1{fill:#8E8E8E;}
	.st2{fill:#FFFFFF;stroke:#8E8E8E;stroke-linecap:round;stroke-miterlimit:10;}
	.st3{fill:#FFFFFF;}
	.st4{fill:#4DB5D1;}
	.st5{fill:#60934D;}
	.st6{fill:#FFFFFF;stroke:#5F934D;stroke-linecap:round;stroke-miterlimit:10;}
	.st7{fill:#23497F;}
	.st8{fill:#FFFFFF;stroke:#23497F;stroke-linecap:round;stroke-miterlimit:10;}
	.st9{fill:url(#SVGID_1_);}
	.st10{fill:url(#SVGID_2_);}
	.st11{fill:url(#SVGID_3_);}
	.st12{fill:url(#SVGID_4_);}
	.st13{fill:#397BBF;}
	.st14{fill:#1466B1;}
	.st15{fill:#054F8C;}
	.st16{fill:url(#SVGID_5_);}
	.st17{fill:#EFA986;}
	.st18{fill:#152B3D;}
	.st19{fill:#62A9DC;}
	.st20{fill:#977332;}
	.st21{fill:#264480;}
	.st22{fill:#363B3D;}
	.st23{fill:#E45354;}
	.st24{fill:#F5F6F6;}
	.st25{fill:#1A5A8D;}
	.st26{fill:#2274B5;}
	.st27{fill:#3A88C8;}
	.st28{fill:#E3F3FC;}
	.st29{fill:#C5CCD1;}
	.st30{fill:#2A2C47;}
	.st31{fill:#E2D2CA;}
	.st32{fill:#434873;}
	.st33{fill:#3B4048;}
	.st34{fill:#323757;}
	.st35{fill:#81A358;}
	.st36{fill:#71A341;}
	.st37{fill:#618A3C;}
	.st38{fill:#87BD43;}
	.st39{fill:#7BA840;}
	.st40{fill:#70A341;}
	.st41{fill:#6A943E;}
	.st42{fill:#B2CF43;}
	.st43{fill:#9FB34D;}
	.st44{fill:url(#SVGID_6_);}
	.st45{filter:url(#Adobe_OpacityMaskFilter);}
	.st46{filter:url(#Adobe_OpacityMaskFilter_1_);}
	.st47{mask:url(#SVGID_7_);fill:url(#SVGID_8_);}
	.st48{fill:url(#SVGID_9_);}
	.st49{fill:#464443;}
	.st50{fill:#928783;}
	.st51{fill:#1D3C55;}
	.st52{fill:#152C3D;}
	.st53{fill:#A77961;}
	.st54{fill:#D8E9F7;}
	.st55{fill:#BFB2AC;}
	.st56{fill:#FED1A2;}
	.st57{fill:#B37953;}
	.st58{fill:#D6995E;}
	.st59{fill:#807167;}
	.st60{fill:#6E6760;}
	.st61{fill:#928880;}
	.st62{fill:#BC8552;}
	.st63{filter:url(#Adobe_OpacityMaskFilter_2_);}
	.st64{filter:url(#Adobe_OpacityMaskFilter_3_);}
	.st65{mask:url(#SVGID_10_);fill:url(#SVGID_11_);}
	.st66{fill:url(#SVGID_12_);}
	.st67{filter:url(#Adobe_OpacityMaskFilter_4_);}
	.st68{filter:url(#Adobe_OpacityMaskFilter_5_);}
	.st69{mask:url(#SVGID_13_);fill:url(#SVGID_14_);}
	.st70{fill:url(#SVGID_15_);}
	.st71{fill:#C3C8E5;}
	.st72{opacity:0.3;}
	.st73{fill:#F4F6FB;}
	.st74{fill:#E8E8F2;}
	.st75{fill:#D7D6E6;}
	.st76{fill:#F3F4F7;}
	.st77{fill:#FCFDFD;}
	.st78{filter:url(#Adobe_OpacityMaskFilter_6_);}
	.st79{mask:url(#SVGID_16_);}
	.st80{fill:#3F54A5;}
	.st81{fill:#A5A7D4;}
	.st82{fill:#B4BBDF;}
	.st83{fill:url(#SVGID_17_);}
	.st84{fill:#CED0E4;}
	.st85{fill:#EDF0F9;}
	.st86{opacity:0.5;fill:#CFD2D3;}
	.st87{opacity:0.5;fill:#A5A7AA;}
	.st88{fill:#332566;}
	.st89{fill:#FAAE42;}
	.st90{fill:#DFDFDE;}
	.st91{fill:#F6C6B1;}
	.st92{fill:#E8B8A9;}
	.st93{fill:#3D4592;}
	.st94{fill:url(#SVGID_18_);}
	.st95{fill:url(#SVGID_19_);}
	.st96{fill:url(#SVGID_20_);}
	.st97{fill:#112F41;}
	.st98{opacity:0.5;fill:#BDBCD8;}
	.st99{opacity:0.2;fill:#ED5B2A;}
	.st100{fill-rule:evenodd;clip-rule:evenodd;fill:#3E55A5;}
	.st101{fill:#2C1C28;}
	.st102{fill:#EE7762;}
	.st103{opacity:0.25;fill:#ED5B2A;}
	.st104{fill:#CD3046;}
	.st105{fill:#282B70;}
	.st106{fill:url(#SVGID_21_);}
	.st107{fill:url(#SVGID_22_);}
	.st108{fill:#212B46;}
	.st109{fill:#D2D2E9;}
	.st110{fill:#8F95CA;}
	.st111{fill:#BDBCD8;}
	.st112{fill:#F2F7F6;}
	.st113{fill:#C9C8DF;}
	.st114{fill:#E3E3EE;}
	.st115{fill:#FAF0F7;}
	.st116{fill:#FFFCFD;}
	.st117{fill:#E4A28B;}
	.st118{opacity:0.05;fill:#010101;}
	.st119{fill:#D9DDEC;}
	.st120{fill:#C6CBE7;}
	.st121{fill:#8A97CC;}
	.st122{fill:#DFE4F3;}
	.st123{fill:#D5A393;}
	.st124{fill:#182540;}
	.st125{fill:url(#SVGID_23_);}
	.st126{fill:#F1A993;}
	.st127{fill:#687094;}
	.st128{fill:#D7DBEF;}
	.st129{fill:#F4F4F8;}
	.st130{fill:#B2B9DE;}
	.st131{fill:#4D60AC;}
	.st132{fill:#8E97CB;}
	.st133{fill:#BCC6E5;}
	.st134{fill:#AAB9DF;}
	.st135{fill:#FFFBFD;}
	.st136{fill:#34479E;}
	.st137{opacity:0.2;}
	.st138{fill:#60848C;}
	.st139{fill:url(#SVGID_24_);}
	.st140{fill:#F36E5C;}
	.st141{fill:#85BEE7;}
	.st142{fill:#908F8F;}
	.st143{fill:#F1F0F0;}
	.st144{fill:url(#SVGID_25_);}
	.st145{fill:#CCCCCC;}
	.st146{fill:#F6F7FB;}
	.st147{fill:#E6E6E5;}
	.st148{fill:#F3F3F3;}
	.st149{fill:#EFF0F7;}
	.st150{fill:url(#SVGID_26_);}
	.st151{fill:url(#SVGID_27_);}
	.st152{fill:url(#SVGID_28_);}
	.st153{fill:url(#SVGID_29_);}
	.st154{fill:url(#SVGID_30_);}
	.st155{fill:url(#SVGID_31_);}
	.st156{fill:#3D426A;}
	.st157{fill:#252840;}
	.st158{fill:#C4B4AF;}
	.st159{fill:#EA4747;}
	.st160{fill:#6B7BBC;}
	.st161{fill:#5266AF;}
	.st162{fill:#5062AD;}
	.st163{fill:#EDDAD3;}
	.st164{fill:#DECDC7;}
	.st165{fill:#E3D1CA;}
	.st166{fill:#B39595;}
	.st167{fill:#DBB8B8;}
	.st168{fill:#F1CCCB;}
	.st169{fill:#323538;}
	.st170{fill:#EFAA88;}
	.st171{fill:#1D2133;}
	.st172{fill:#EFAA87;}
	.st173{fill:#D88A51;}
	.st174{fill:#C68D71;}
	.st175{fill:#A19FA7;}
	.st176{fill:#EAE6F1;}
	.st177{fill:#3B4167;}
	.st178{fill:#DE9674;}
	.st179{fill:#764937;}
	.st180{fill:#5D554E;}
	.st181{fill:#3D4246;}
	.st182{fill:#FFD356;}
	.st183{fill:url(#SVGID_32_);}
	.st184{fill:url(#SVGID_33_);}
	.st185{fill:url(#SVGID_34_);}
	.st186{fill:url(#SVGID_35_);}
	.st187{fill:url(#SVGID_36_);}
	.st188{fill:url(#SVGID_37_);}
	.st189{opacity:0.5;}
	.st190{fill:#FCEACF;}
	.st191{opacity:0.8;}
	.st192{fill:#D4EEF6;}
	.st193{fill:#3AA1C9;}
	.st194{fill:#3F9896;}
	.st195{fill:#7FC6A6;}
	.st196{fill:#DEF2FD;}
	.st197{fill:#223849;}
	.st198{fill:#B4E3F7;}
	.st199{fill:#F89F74;}
	.st200{fill:#E33F3E;}
	.st201{fill:#482B32;}
	.st202{fill:#D8E4F4;}
	.st203{fill:#683E47;}
	.st204{fill:#3788BA;}
	.st205{fill:#22131E;}
	.st206{fill:#FAB59D;}
	.st207{fill:#CC2327;}
	.st208{fill:#E2F3F1;}
	.st209{fill:#F07163;}
	.st210{fill:#49273F;}
	.st211{fill:#4C232E;}
	.st212{fill:#010101;}
	.st213{fill:#F7956E;}
	.st214{fill:#F68D64;}
	.st215{fill:#F27584;}
	.st216{fill:#4EB8D9;}
	.st217{fill:#EF4751;}
	.st218{fill:#ACC7E8;}
	.st219{fill:#268E8D;}
	.st220{fill:#3A1F33;}
	.st221{fill:#FECC87;}
	.st222{fill:#FBB359;}
	.st223{fill:#331A2C;}
	.st224{fill:#FDC886;}
	.st225{fill:#F7934B;}
	.st226{fill:#F04D65;}
	.st227{fill:#F6D6B2;}
	.st228{fill:#61A3C5;}
	.st229{fill:#B1D89B;}
	.st230{fill:#A8C8E5;}
	.st231{fill:#C1D1EC;}
	.st232{fill:#F2AC40;}
	.st233{fill:#3B57A6;}
	.st234{fill:#C2D5EE;}
	.st235{fill:#A9C4E6;}
	.st236{fill:#2D572A;}
	.st237{fill:#274392;}
	.st238{fill:#95B0DB;}
	.st239{fill:#BFBFBF;}
	.st240{fill:#E9F3FB;}
	.st241{fill:#6B81C0;}
	.st242{fill:#8FB1DD;}
	.st243{fill:#F58765;}
	.st244{fill:#2C1913;}
	.st245{fill:#6A3F31;}
	.st246{fill:#F37559;}
	.st247{fill:#F47A55;}
	.st248{fill:#E0B3A8;}
	.st249{fill:#D9D9D9;}
	.st250{fill:#C6DD74;}
	.st251{fill:#9FCB5F;}
	.st252{fill:#7C9D48;}
	.st253{fill:#E7E7E7;}
	.st254{fill:#F2C791;}
	.st255{fill:#B7B7B7;}
	.st256{fill:#7595CD;}
	.st257{fill:#FAB18D;}
	.st258{fill:#F6977C;}
	.st259{fill:#D1E28C;}
	.st260{fill:none;}
	.st261{fill:#1B1B1C;}
	.st262{fill:#F47E46;}
	.st263{fill:#EB6828;}
	.st264{fill:#F79668;}
	.st265{fill:#E6B54E;}
	.st266{fill:#676767;}
	.st267{fill:#4D4C4C;}
	.st268{fill:#F27070;}
	.st269{fill:#C24D4D;}
	.st270{enable-background:new    ;}
	.st271{fill:#C39B6A;}
	.st272{fill:#C9A475;}
	.st273{fill:#E6B880;}
	.st274{fill:#9F3D3E;}
	.st275{fill:#FFD679;}
	.st276{fill:#F4805D;}
	.st277{fill:#DA5958;}
	.st278{fill:#7D3D20;}
	.st279{fill:#562915;}
	.st280{fill:#B15931;}
	.st281{fill:#5076BA;}
	.st282{fill:#59ADC0;}
	.st283{fill:#099895;}
	.st284{fill:#F5AE87;}
	.st285{fill:#D9504F;}
	.st286{fill:#FCC79A;}
	.st287{fill:#FFDC7B;}
	.st288{fill:#F15958;}
	.st289{fill:#674E46;}
	.st290{fill:#785D51;}
	.st291{clip-path:url(#SVGID_39_);fill:#60934D;}
	.st292{clip-path:url(#SVGID_39_);}
	.st293{fill:#BD725F;}
	.st294{fill:#E6F1D1;}
	.st295{fill:#A86046;}
	.st296{fill:#3C251D;}
	.st297{fill:#4A413F;}
	.st298{fill:#716765;}
	.st299{fill:#EEBD7F;}
	.st300{fill:#7DA594;}
	.st301{fill:#252433;}
	.st302{fill:#F7E6C7;}
	.st303{fill:#E79F90;}
	.st304{fill:#CC4A38;}
	.st305{fill:#333333;}
	.st306{fill:#E1755E;}
	.st307{fill:#E8A180;}
	.st308{fill:#694136;}
	.st309{fill:#C06360;}
	.st310{fill:#CD5A5A;}
	.st311{fill:#E17660;}
	.st312{opacity:0.42;}
	.st313{fill-rule:evenodd;clip-rule:evenodd;fill:#B1D89B;}
	.st314{clip-path:url(#SVGID_41_);fill:#92B779;}
	.st315{clip-path:url(#SVGID_43_);fill:url(#SVGID_44_);}
	.st316{fill-rule:evenodd;clip-rule:evenodd;fill:#60934D;}
	.st317{clip-path:url(#SVGID_46_);fill:url(#SVGID_47_);}
	.st318{fill-rule:evenodd;clip-rule:evenodd;fill:#274CA1;}
	.st319{clip-path:url(#SVGID_49_);fill:url(#SVGID_50_);}
	.st320{clip-path:url(#SVGID_52_);fill:url(#SVGID_53_);}
	.st321{fill-rule:evenodd;clip-rule:evenodd;fill:#F3AF8F;}
	.st322{fill-rule:evenodd;clip-rule:evenodd;fill:#6E2D5F;}
	.st323{fill-rule:evenodd;clip-rule:evenodd;fill:#4D1942;}
	.st324{fill-rule:evenodd;clip-rule:evenodd;fill:#101841;}
	.st325{fill-rule:evenodd;clip-rule:evenodd;fill:#144984;}
	.st326{fill-rule:evenodd;clip-rule:evenodd;fill:#35AD82;}
	.st327{fill-rule:evenodd;clip-rule:evenodd;fill:#198C67;}
	.st328{fill-rule:evenodd;clip-rule:evenodd;fill:#F6C1C5;}
	.st329{fill-rule:evenodd;clip-rule:evenodd;fill:#53B9E9;}
	.st330{fill-rule:evenodd;clip-rule:evenodd;fill:#7DD3F7;}
	.st331{clip-path:url(#SVGID_55_);fill:url(#SVGID_56_);}
	.st332{clip-path:url(#SVGID_58_);fill:url(#SVGID_59_);}
	.st333{fill-rule:evenodd;clip-rule:evenodd;fill:#3DB4E8;}
	.st334{clip-path:url(#SVGID_61_);fill:url(#SVGID_62_);}
	.st335{fill-rule:evenodd;clip-rule:evenodd;fill:#F4FBFE;}
	.st336{fill-rule:evenodd;clip-rule:evenodd;fill:#F4B1B1;}
	.st337{fill-rule:evenodd;clip-rule:evenodd;fill:#D4EAD8;}
	.st338{fill-rule:evenodd;clip-rule:evenodd;fill:#E16C6C;}
	.st339{clip-path:url(#SVGID_64_);fill:url(#SVGID_65_);}
	.st340{clip-path:url(#SVGID_67_);fill:url(#SVGID_68_);}
	.st341{clip-path:url(#SVGID_70_);fill:url(#SVGID_71_);}
	.st342{clip-path:url(#SVGID_73_);fill:url(#SVGID_74_);}
	.st343{clip-path:url(#SVGID_76_);fill:url(#SVGID_77_);}
	.st344{fill-rule:evenodd;clip-rule:evenodd;fill:#316CB5;}
	.st345{clip-path:url(#SVGID_79_);fill:url(#SVGID_80_);}
	.st346{fill-rule:evenodd;clip-rule:evenodd;fill:#DF5D7B;}
	.st347{clip-path:url(#SVGID_82_);fill:url(#SVGID_83_);}
	.st348{fill-rule:evenodd;clip-rule:evenodd;fill:#2D572A;}
	.st349{clip-path:url(#SVGID_85_);fill:#60934D;}
	.st350{clip-path:url(#SVGID_87_);fill:url(#SVGID_88_);}
	.st351{clip-path:url(#SVGID_90_);fill:url(#SVGID_91_);}
	.st352{clip-path:url(#SVGID_93_);fill:url(#SVGID_94_);}
	.st353{fill:url(#SVGID_95_);}
	.st354{filter:url(#Adobe_OpacityMaskFilter_7_);}
	.st355{filter:url(#Adobe_OpacityMaskFilter_8_);}
	.st356{mask:url(#SVGID_96_);fill:url(#SVGID_97_);}
	.st357{fill:url(#SVGID_98_);}
	.st358{fill:none;stroke:#FFFFFF;stroke-miterlimit:10;}
	.st359{fill:url(#SVGID_99_);}
	.st360{filter:url(#Adobe_OpacityMaskFilter_9_);}
	.st361{filter:url(#Adobe_OpacityMaskFilter_10_);}
	.st362{mask:url(#SVGID_100_);fill:url(#SVGID_101_);}
	.st363{fill:url(#SVGID_102_);}
	.st364{fill:url(#SVGID_103_);}
	.st365{filter:url(#Adobe_OpacityMaskFilter_11_);}
	.st366{filter:url(#Adobe_OpacityMaskFilter_12_);}
	.st367{mask:url(#SVGID_104_);fill:url(#SVGID_105_);}
	.st368{fill:url(#SVGID_106_);}
	.st369{fill:url(#SVGID_107_);}
	.st370{filter:url(#Adobe_OpacityMaskFilter_13_);}
	.st371{filter:url(#Adobe_OpacityMaskFilter_14_);}
	.st372{mask:url(#SVGID_108_);fill:url(#SVGID_109_);}
	.st373{fill:url(#SVGID_110_);}
	.st374{fill:url(#SVGID_111_);}
	.st375{fill:url(#SVGID_112_);}
	.st376{fill:url(#SVGID_113_);}
	.st377{fill:url(#SVGID_114_);}
	.st378{fill:url(#SVGID_115_);}
	.st379{fill:url(#SVGID_116_);}
	.st380{fill:#FBC5B4;}
	.st381{fill:url(#SVGID_117_);}
	.st382{fill:url(#SVGID_118_);}
	.st383{filter:url(#Adobe_OpacityMaskFilter_15_);}
	.st384{filter:url(#Adobe_OpacityMaskFilter_16_);}
	.st385{mask:url(#SVGID_119_);fill:url(#SVGID_120_);}
	.st386{fill:url(#SVGID_121_);}
	.st387{fill:url(#SVGID_122_);}
	.st388{filter:url(#Adobe_OpacityMaskFilter_17_);}
	.st389{filter:url(#Adobe_OpacityMaskFilter_18_);}
	.st390{mask:url(#SVGID_123_);fill:url(#SVGID_124_);}
	.st391{fill:url(#SVGID_125_);}
	.st392{fill:url(#SVGID_126_);}
	.st393{fill:#F69575;}
	.st394{fill:url(#SVGID_127_);}
	.st395{fill:url(#SVGID_128_);}
	.st396{fill:url(#SVGID_129_);}
	.st397{fill:url(#SVGID_130_);}
	.st398{fill:url(#SVGID_131_);}
	.st399{fill:#F05253;}
	.st400{fill:#ED1C24;}
	.st401{fill:url(#SVGID_132_);}
	.st402{fill:url(#SVGID_133_);}
	.st403{fill:url(#SVGID_134_);}
	.st404{fill:url(#SVGID_135_);}
	.st405{fill:url(#SVGID_136_);}
	.st406{fill:url(#SVGID_137_);}
	.st407{fill:#FDC78D;}
	.st408{fill:#FFD10A;}
	.st409{fill:url(#SVGID_138_);}
	.st410{fill:url(#SVGID_139_);}
	.st411{fill:url(#SVGID_140_);}
	.st412{fill:#6899D1;}
	.st413{fill:#F4F4F4;}
	.st414{fill:#DAEEF6;}
	.st415{fill:url(#SVGID_141_);}
	.st416{fill:#85CEC1;}
	.st417{fill:url(#SVGID_142_);}
	.st418{fill:#F37878;}
	.st419{fill:url(#SVGID_143_);}
	.st420{fill:url(#SVGID_144_);}
	.st421{fill:url(#SVGID_145_);}
	.st422{fill:url(#SVGID_146_);}
	.st423{fill:url(#SVGID_147_);}
	.st424{fill:url(#SVGID_148_);}
	.st425{fill:url(#SVGID_149_);}
	.st426{fill:url(#SVGID_150_);}
	.st427{fill:url(#SVGID_151_);}
	.st428{fill:url(#SVGID_152_);}
	.st429{fill:url(#SVGID_153_);}
	.st430{fill:#F0EFEF;}
	.st431{fill:#DBD7D7;}
	.st432{fill:#63C7D3;}
	.st433{opacity:0.5;fill:#63C7D3;}
	.st434{fill:#E6E7F4;}
	.st435{fill:#23214D;}
	.st436{fill:#283996;}
	.st437{fill:#1B193A;}
	.st438{fill:#F68D63;}
	.st439{fill:#F9A575;}
	.st440{fill:#FEDA04;}
	.st441{fill:#312126;}
	.st442{fill:#F15F4B;}
	.st443{fill:#F15834;}
	.st444{fill:#EC4524;}
	.st445{fill:#F26B76;}
	.st446{fill:#4D5BA9;}
	.st447{fill:#2D327E;}
	.st448{fill:#39469D;}
	.st449{fill:#9AC181;}
	.st450{fill:#7ED0DC;}
	.st451{display:none;}
	.st452{display:inline;fill:#F9A575;}
	.st453{display:inline;}
	.st454{fill:#673A3C;}
	.st455{fill:#794447;}
	.st456{fill:#47222C;}
	.st457{fill:#29275C;}
	.st458{fill:#57B0B9;}
	.st459{fill:#EF434E;}
	.st460{fill:#E24826;}
	.st461{fill:#4754A5;}
	.st462{fill:#B6C153;}
	.st463{fill:#DD4361;}
	.st464{fill:#FBB67B;}
	.st465{fill:#F6EEEA;}
	.st466{fill:#251D1C;}
	.st467{fill:#E0B895;}
	.st468{fill:#DFB793;}
	.st469{fill:#B8A79D;}
	.st470{fill:#9B93C7;}
	.st471{fill:#6A8037;}
	.st472{fill:#E9633E;}
	.st473{fill:#F6936F;}
	.st474{fill:#DBD8EC;}
	.st475{fill:#221A19;}
	.st476{fill:#382621;}
	.st477{fill:#F7EFEC;}
	.st478{fill:#FBB67C;}
	.st479{fill:#70CACA;}
	.st480{fill:#004669;}
	.st481{fill:#33ADA9;}
	.st482{fill:#EE777A;}
	.st483{fill:#C3E8F0;}
	.st484{fill:#C39C44;}
	.st485{fill:#FFE6B0;}
	.st486{fill:#FFCB5D;}
	.st487{fill:#D2EDF5;}
	.st488{fill:none;stroke:#D2EDF5;stroke-width:2.2824;stroke-miterlimit:10;}
	.st489{fill:#0F4672;}
	.st490{fill:#92B779;}
	.st491{fill:#D47C60;}
	.st492{fill:#054A6E;}
	.st493{fill:#2B9996;}
	.st494{fill:#CAE9EB;}
	.st495{fill:#F7A581;}
	.st496{fill:#F18D24;}
	.st497{fill:#CF7929;}
	.st498{fill:#182F40;}
	.st499{fill:#0E1B2D;}
	.st500{fill:#406E34;}
	.st501{fill:#3B83B0;}
	.st502{fill:#3B3F4A;}
	.st503{fill:#242930;}
	.st504{fill:#FBD165;}
	.st505{fill:#FCB017;}
	.st506{fill:#155567;}
	.st507{fill:#236A7E;}
	.st508{fill:#3096B3;}
	.st509{fill:#84D2F6;}
	.st510{fill:#C4E4F8;}
	.st511{fill:#FCB774;}
	.st512{fill:#FAA31B;}
	.st513{fill:#E38D25;}
	.st514{fill:#AADFF3;}
	.st515{fill:#126E84;}
	.st516{fill:#064A56;}
	.st517{fill:#096D84;}
	.st518{fill:#D3CED9;}
	.st519{fill:#D89466;}
	.st520{fill:#FAA61A;}
	.st521{fill:#AA6549;}
	.st522{fill:#B35143;}
	.st523{fill:#3B3E54;}
	.st524{fill:#8A432D;}
	.st525{fill:#4C2F2C;}
	.st526{fill:#3C1C19;}
	.st527{fill:#9889C1;}
	.st528{fill:#CC8759;}
	.st529{fill:#665DA9;}
	.st530{fill:#5C2B20;}
	.st531{fill:#F4F5F0;}
	.st532{fill:#E04A95;}
	.st533{fill:#BC6944;}
	.st534{fill:#673021;}
	.st535{fill:#C4C2DF;}
	.st536{fill:#342B29;}
	.st537{fill:#E69F6F;}
	.st538{fill:#F173AC;}
	.st539{fill:#FAA43A;}
	.st540{fill:#F7F7FA;}
	.st541{fill:#3F4076;}
	.st542{fill:#5CA4DA;}
	.st543{fill:#BBD071;}
	.st544{fill:#97A33B;}
	.st545{fill:#49763A;}
	.st546{fill:#E5F2FC;}
	.st547{opacity:0.85;}
	.st548{fill:#4692CF;}
	.st549{fill:#0E2D3D;}
	.st550{fill:#5478B4;}
	.st551{fill:#5B83C3;}
	.st552{fill:#304664;}
	.st553{fill:#364D71;}
	.st554{fill:#2C3B57;}
	.st555{fill:#D5D8E8;}
	.st556{opacity:0.82;}
	.st557{fill:#418ECC;}
	.st558{fill:#173342;}
	.st559{fill:#295274;}
	.st560{fill:#F47D58;}
	.st561{fill:#183C59;}
	.st562{fill:#616262;}
	.st563{fill:#E0CFC8;}
	.st564{fill:#64A8DC;}
	.st565{opacity:0.66;}
	.st566{fill:#CBE1F5;}
	.st567{fill:#8CB6E1;}
	.st568{fill:#B5D3EF;}
	.st569{fill:#B8D8F2;}
	.st570{fill:#92B4DF;}
	.st571{fill:#BBDDDE;}
	.st572{fill:#D1ECED;}
	.st573{fill:#C8CBE2;}
	.st574{fill:#669AD2;}
	.st575{fill:#4D84C5;}
	.st576{fill:#181C4D;}
	.st577{fill:#EFBBBB;}
	.st578{fill:#F9CBCB;}
	.st579{fill:#2B3874;}
	.st580{fill:#EBAEAD;}
	.st581{fill:#21295D;}
	.st582{fill:#31344D;}
	.st583{fill:#FCD4D1;}
	.st584{fill:#B95050;}
	.st585{fill:#FEE9E2;}
	.st586{fill:#181A2E;}
	.st587{fill:#EB9B9C;}
	.st588{fill:#F9B7B3;}
	.st589{fill:#444C86;}
	.st590{fill:#2B3367;}
	.st591{fill:#93BAE3;}
	.st592{fill:#4B80C1;}
	.st593{fill:#396CAD;}
	.st594{fill:#C0D9F1;}
	.st595{fill:#F9B4AF;}
	.st596{fill:#4E88C7;}
	.st597{fill:#195595;}
	.st598{fill:#D9475A;}
	.st599{fill:#1172BA;}
	.st600{fill:#247BBC;}
	.st601{fill:#FAA71F;}
	.st602{fill:#D55127;}
	.st603{fill:none;stroke:#212F57;stroke-width:0.925;stroke-miterlimit:10;}
	.st604{fill:#212F57;}
	.st605{opacity:0.5;fill:#838DC5;}
	.st606{fill:#F2C7BD;}
	.st607{fill:none;stroke:#212F57;stroke-width:1.2665;stroke-linecap:round;stroke-linejoin:round;stroke-miterlimit:10;}
	.st608{fill:#272A41;}
	.st609{fill:none;stroke:#E8B1C3;stroke-width:2.5241;stroke-miterlimit:10;}
	.st610{fill:#5160A5;}
	.st611{opacity:0.5;fill:#D55127;}
	.st612{opacity:0.5;fill:#DA8727;}
	.st613{opacity:0.7;}
	.st614{fill:#DA8727;}
	.st615{fill:#A3BDE3;}
	.st616{fill:#1B7A84;}
	.st617{fill:#B1D2EF;}
	.st618{fill:#F8ACAD;}
	.st619{opacity:0.63;}
	.st620{clip-path:url(#SVGID_155_);}
	.st621{fill:#D7E7F6;}
	.st622{clip-path:url(#SVGID_157_);}
	.st623{clip-path:url(#SVGID_159_);}
	.st624{clip-path:url(#SVGID_161_);}
	.st625{clip-path:url(#SVGID_163_);}
	.st626{clip-path:url(#SVGID_165_);}
	.st627{clip-path:url(#SVGID_167_);}
	.st628{clip-path:url(#SVGID_169_);}
	.st629{clip-path:url(#SVGID_171_);}
	.st630{clip-path:url(#SVGID_173_);}
	.st631{clip-path:url(#SVGID_175_);}
	.st632{clip-path:url(#SVGID_177_);}
	.st633{clip-path:url(#SVGID_179_);}
	.st634{clip-path:url(#SVGID_181_);}
	.st635{clip-path:url(#SVGID_183_);}
	.st636{clip-path:url(#SVGID_185_);}
	.st637{clip-path:url(#SVGID_187_);}
	.st638{clip-path:url(#SVGID_189_);}
	.st639{clip-path:url(#SVGID_191_);}
	.st640{clip-path:url(#SVGID_193_);}
	.st641{clip-path:url(#SVGID_195_);}
	.st642{fill:#89B2DF;}
	.st643{fill:#4377BC;}
	.st644{fill:#DA6566;}
	.st645{fill:#F58E92;}
	.st646{fill-rule:evenodd;clip-rule:evenodd;fill:#4DB5D1;}
	.st647{fill:#F15C60;}
	.st648{fill:#FFD574;}
	.st649{fill:#F2B892;}
	.st650{fill:#EB836C;}
	.st651{fill:url(#SVGID_196_);}
	.st652{fill:#222C55;}
	.st653{fill:#4551A3;}
	.st654{fill:url(#SVGID_197_);}
	.st655{fill:#0B3C5F;}
	.st656{fill:#F8A187;}
	.st657{fill:#F4B68F;}
	.st658{fill:#232850;}
	.st659{fill:#306D9E;}
	.st660{fill:#255981;}
	.st661{fill:#F69E83;}
	.st662{fill:#0B3D60;}
	.st663{opacity:0.45;fill:#89B2DF;}
	.st664{filter:url(#Adobe_OpacityMaskFilter_19_);}
	.st665{filter:url(#Adobe_OpacityMaskFilter_20_);}
	.st666{mask:url(#SVGID_198_);fill:url(#SVGID_199_);}
	.st667{opacity:0.33;fill:#AADFF3;}
	.st668{filter:url(#Adobe_OpacityMaskFilter_21_);}
	.st669{filter:url(#Adobe_OpacityMaskFilter_22_);}
	.st670{mask:url(#SVGID_200_);fill:url(#SVGID_201_);}
	.st671{filter:url(#Adobe_OpacityMaskFilter_23_);}
	.st672{filter:url(#Adobe_OpacityMaskFilter_24_);}
	.st673{mask:url(#SVGID_202_);fill:url(#SVGID_203_);}
	.st674{fill:#CFD8EE;}
	.st675{fill:#E3E6F4;}
	.st676{fill:#ABBADF;}
	.st677{fill:#C3CCE8;}
	.st678{fill:url(#SVGID_204_);}
	.st679{fill:url(#SVGID_205_);}
	.st680{fill:#D3D0E9;}
	.st681{fill:#078BBF;}
	.st682{fill:#057B97;}
	.st683{fill:url(#SVGID_206_);}
	.st684{fill:#C74534;}
	.st685{fill:#F27B66;}
	.st686{fill:#58449B;}
	.st687{fill:#6B52A2;}
	.st688{fill:#A9A6D2;}
	.st689{fill:#C4C0E0;}
	.st690{opacity:0.33;}
	.st691{opacity:0.23;fill:url(#SVGID_207_);}
	.st692{opacity:0.36;fill:url(#SVGID_208_);}
	.st693{opacity:0.36;fill:url(#SVGID_209_);}
	.st694{opacity:0.23;fill:url(#SVGID_210_);}
	.st695{fill:#D8E0F2;}
	.st696{opacity:0.36;fill:url(#SVGID_211_);}
	.st697{opacity:0.42;fill:url(#SVGID_212_);}
	.st698{fill:#F6F9FD;}
	.st699{fill:#049AC9;}
	.st700{fill:#E0E0E0;}
	.st701{fill:#EBEBEB;}
	.st702{fill:none;stroke:#F2A59D;stroke-width:0.05;stroke-miterlimit:10;}
	.st703{fill:#FAFBFB;}
	.st704{fill:#E7515B;}
	.st705{fill:#CFCFCE;}
	.st706{fill:#FBBD9D;}
	.st707{fill:#EC996F;}
	.st708{opacity:0.6;fill:#FFFFFF;}
	.st709{opacity:0.6;}
	.st710{fill:#263238;}
	.st711{fill:#455B64;}
	.st712{fill:none;stroke:#43494E;stroke-miterlimit:10;}
	.st713{fill:#F5F5F5;}
	.st714{fill:#F3725F;}
	.st715{opacity:0;}
	.st716{clip-path:url(#SVGID_214_);}
	.st717{fill:#C9D8EF;}
	.st718{clip-path:url(#SVGID_216_);}
	.st719{clip-path:url(#SVGID_218_);}
	.st720{clip-path:url(#SVGID_220_);}
	.st721{clip-path:url(#SVGID_222_);}
	.st722{clip-path:url(#SVGID_224_);}
	.st723{clip-path:url(#SVGID_226_);}
	.st724{clip-path:url(#SVGID_228_);}
	.st725{clip-path:url(#SVGID_230_);}
	.st726{clip-path:url(#SVGID_232_);}
	.st727{clip-path:url(#SVGID_234_);}
	.st728{clip-path:url(#SVGID_236_);}
	.st729{clip-path:url(#SVGID_238_);}
	.st730{clip-path:url(#SVGID_240_);}
	.st731{clip-path:url(#SVGID_242_);}
	.st732{clip-path:url(#SVGID_244_);}
	.st733{clip-path:url(#SVGID_246_);}
	.st734{clip-path:url(#SVGID_248_);}
	.st735{clip-path:url(#SVGID_250_);}
	.st736{clip-path:url(#SVGID_252_);}
	.st737{clip-path:url(#SVGID_254_);}
	.st738{fill:#59595B;}
	.st739{fill:#EDF7F7;}
	.st740{fill:#FDD247;}
	.st741{fill:#1D2040;}
	.st742{fill:url(#SVGID_255_);}
	.st743{fill:#F89A45;}
	.st744{fill:#4F2E1F;}
	.st745{fill:#AEADAD;}
	.st746{fill:#3C2116;}
	.st747{fill:#76696D;}
	.st748{fill:#DFB0B4;}
	.st749{fill:#0E4363;}
	.st750{fill:#F8F6F1;}
	.st751{fill:#A4BAE1;}
	.st752{fill:#4D1F38;}
	.st753{fill:#3A1528;}
	.st754{fill:#746875;}
	.st755{fill:#DAADD1;}
	.st756{fill:url(#SVGID_256_);}
	.st757{fill:#CD3570;}
	.st758{fill:url(#SVGID_257_);}
	.st759{fill:url(#SVGID_258_);}
	.st760{fill:#A09F9F;}
	.st761{fill:none;stroke:#FFFFFF;stroke-linecap:round;stroke-miterlimit:10;}
	.st762{fill:none;stroke:#FFFFFF;stroke-linecap:round;stroke-linejoin:round;stroke-miterlimit:10;}
	.st763{fill:none;stroke:#A09F9F;stroke-miterlimit:10;}
	.st764{fill:#7B553A;}
	.st765{fill:#5F422D;}
	.st766{fill:#FDB839;}
	.st767{fill:#401B0F;}
	.st768{fill:#034B4E;}
	.st769{opacity:0.36;}
	.st770{opacity:0.1;fill:#CFCFCE;}
	.st771{opacity:0.15;}
	.st772{fill:#FBB781;}
	.st773{fill:#49A8D5;}
	.st774{fill:#077679;}
	.st775{opacity:0.1;}
	.st776{fill:#BEE0C0;}
	.st777{opacity:0.23;fill:#245C74;}
	.st778{fill:#245C74;}
	.st779{fill:#FCC69B;}
	.st780{fill:#DBA285;}
	.st781{fill:#757576;}
	.st782{fill:#ABABAA;}
	.st783{fill:#6F6F71;}
	.st784{fill:#FFCA70;}
	.st785{fill:#FAA325;}
	.st786{fill:none;stroke:#077679;stroke-width:0.25;stroke-linecap:round;stroke-linejoin:round;stroke-miterlimit:10;}
	.st787{fill:#963A20;}
	.st788{fill:#E2E2E2;}
	.st789{fill:#18184B;}
	.st790{fill:#F8B6C9;}
	.st791{fill:#F58531;}
	.st792{fill:#759CD2;}
	.st793{fill:#BACFEB;}
</style>
<g>
	<g>
		<defs>
			<filter id="Adobe_OpacityMaskFilter" filterUnits="userSpaceOnUse" x="12.12" y="0" width="105.24" height="105.37">
				<feFlood  style="flood-color:white;flood-opacity:1" result="back"/>
				<feBlend  in="SourceGraphic" in2="back" mode="normal"/>
			</filter>
		</defs>
		<mask maskUnits="userSpaceOnUse" x="12.12" y="0" width="105.24" height="105.37" id="SVGID_1_">
			<g class="st45">
				<defs>
					<filter id="Adobe_OpacityMaskFilter_1_" filterUnits="userSpaceOnUse" x="12.12" y="0" width="105.24" height="105.37">
						<feFlood  style="flood-color:white;flood-opacity:1" result="back"/>
						<feBlend  in="SourceGraphic" in2="back" mode="normal"/>
					</filter>
				</defs>
				<mask maskUnits="userSpaceOnUse" x="12.12" y="0" width="105.24" height="105.37" id="SVGID_1_">
				</mask>
				
					<linearGradient id="SVGID_2_" gradientUnits="userSpaceOnUse" x1="1208.1727" y1="-493.7744" x2="1189.2629" y2="-550.7492" gradientTransform="matrix(0.9999 0.0149 -0.0149 0.9999 -1146.5913 567.4186)">
					<stop  offset="0" style="stop-color:#000000"/>
					<stop  offset="1" style="stop-color:#FFFFFF"/>
				</linearGradient>
				<path style="mask:url(#SVGID_1_);fill:url(#SVGID_2_);" d="M32.32,1.06C18.07,4.8,16.92,17.74,15.4,41.32
					c-1.52,23.59-8.96,34.26,5.38,49.64c14.35,15.37,57.74,18.06,78.27,9.91c20.53-8.15,19.76-15.74,16.67-23.36
					C112.63,69.88,98.31,72,79.7,49.57C61.08,27.14,60.71-6.39,32.32,1.06z"/>
			</g>
		</mask>
		<path class="st667" d="M32.32,1.06C18.07,4.8,16.92,17.74,15.4,41.32c-1.52,23.59-8.96,34.26,5.38,49.64
			c14.35,15.37,57.74,18.06,78.27,9.91c20.53-8.15,19.76-15.74,16.67-23.36C112.63,69.88,98.31,72,79.7,49.57
			C61.08,27.14,60.71-6.39,32.32,1.06z"/>
		<defs>
			<filter id="Adobe_OpacityMaskFilter_2_" filterUnits="userSpaceOnUse" x="69.34" y="17.01" width="40.24" height="42.89">
				<feFlood  style="flood-color:white;flood-opacity:1" result="back"/>
				<feBlend  in="SourceGraphic" in2="back" mode="normal"/>
			</filter>
		</defs>
		<mask maskUnits="userSpaceOnUse" x="69.34" y="17.01" width="40.24" height="42.89" id="SVGID_3_">
			<g class="st63">
				<defs>
					<filter id="Adobe_OpacityMaskFilter_3_" filterUnits="userSpaceOnUse" x="69.34" y="17.01" width="40.24" height="42.89">
						<feFlood  style="flood-color:white;flood-opacity:1" result="back"/>
						<feBlend  in="SourceGraphic" in2="back" mode="normal"/>
					</filter>
				</defs>
				<mask maskUnits="userSpaceOnUse" x="69.34" y="17.01" width="40.24" height="42.89" id="SVGID_3_">
				</mask>
				
					<linearGradient id="SVGID_4_" gradientUnits="userSpaceOnUse" x1="1214.9259" y1="-600.3693" x2="1243.775" y2="-484.9726" gradientTransform="matrix(0.9999 0.0149 -0.0149 0.9999 -1146.5913 567.4186)">
					<stop  offset="0" style="stop-color:#000000"/>
					<stop  offset="1" style="stop-color:#FFFFFF"/>
				</linearGradient>
				<path style="mask:url(#SVGID_3_);fill:url(#SVGID_4_);" d="M71,17.01c-5.67,0.35,4.07,20.39,15.71,31.28s18.37,14.27,21.94,9.51
					c3.57-4.76-3.53-7.69-15.71-17.07C77.6,28.92,73.84,16.83,71,17.01z"/>
			</g>
		</mask>
		<path class="st514" d="M71,17.01c-5.67,0.35,4.07,20.39,15.71,31.28s18.37,14.27,21.94,9.51c3.57-4.76-3.53-7.69-15.71-17.07
			C77.6,28.92,73.84,16.83,71,17.01z"/>
		<defs>
			<filter id="Adobe_OpacityMaskFilter_4_" filterUnits="userSpaceOnUse" x="21.5" y="9.09" width="84.05" height="87.83">
				<feFlood  style="flood-color:white;flood-opacity:1" result="back"/>
				<feBlend  in="SourceGraphic" in2="back" mode="normal"/>
			</filter>
		</defs>
		<mask maskUnits="userSpaceOnUse" x="21.5" y="9.09" width="84.05" height="87.83" id="SVGID_5_">
			<g class="st67">
				<defs>
					<filter id="Adobe_OpacityMaskFilter_5_" filterUnits="userSpaceOnUse" x="21.5" y="9.09" width="84.05" height="87.83">
						<feFlood  style="flood-color:white;flood-opacity:1" result="back"/>
						<feBlend  in="SourceGraphic" in2="back" mode="normal"/>
					</filter>
				</defs>
				<mask maskUnits="userSpaceOnUse" x="21.5" y="9.09" width="84.05" height="87.83" id="SVGID_5_">
				</mask>
				
					<linearGradient id="SVGID_6_" gradientUnits="userSpaceOnUse" x1="1181.7477" y1="-592.0747" x2="1210.5969" y2="-476.6772" gradientTransform="matrix(0.9999 0.0149 -0.0149 0.9999 -1146.5913 567.4186)">
					<stop  offset="0" style="stop-color:#000000"/>
					<stop  offset="1" style="stop-color:#FFFFFF"/>
				</linearGradient>
				<path style="mask:url(#SVGID_5_);fill:url(#SVGID_6_);" d="M33.93,10.56c-11.87,4.54-7.88,30.05-10.71,43.57
					C20.4,67.63,18.9,80.29,36.67,90.61c17.77,10.32,60.24,6.58,66.48-1.2c6.24-7.78-0.27-11.37-12.85-17.68S67.45,49.97,61.57,33.7
					C55.69,17.44,49.32,4.66,33.93,10.56z"/>
			</g>
		</mask>
		<path class="st514" d="M33.93,10.56c-11.87,4.54-7.88,30.05-10.71,43.57C20.4,67.63,18.9,80.29,36.67,90.61
			c17.77,10.32,60.24,6.58,66.48-1.2c6.24-7.78-0.27-11.37-12.85-17.68S67.45,49.97,61.57,33.7C55.69,17.44,49.32,4.66,33.93,10.56z
			"/>
	</g>
	<path class="st3" d="M92.94,80.7h1.68v-3.52h-1.75c-0.19-0.65-0.46-1.26-0.82-1.81l0,0l1.28-1.28l-2.49-2.49l-1.38,1.38
		c-0.53-0.28-1.11-0.5-1.71-0.63V70.3h-3.52v2.16c-0.55,0.16-1.06,0.39-1.54,0.68l-1.56-1.56l-2.49,2.49l1.59,1.59
		c-0.27,0.47-0.48,0.98-0.64,1.51h-2.23v3.52h2.16c0.14,0.57,0.34,1.11,0.61,1.61l0,0l-1.49,1.49l2.49,2.49l1.39-1.39
		c0.53,0.34,1.1,0.6,1.71,0.79v1.88h3.52v-1.76c0.67-0.15,1.31-0.4,1.89-0.73l1.21,1.21l2.49-2.49l-1.18-1.18l0,0
		C92.51,82.03,92.77,81.38,92.94,80.7z M88.91,79.07c-0.02,1.65-1.58,2.97-3.22,2.64c-1.47-0.3-2.31-1.75-2.03-3.19
		c0.4-2.01,3.01-2.82,4.47-1.35c0.37,0.37,0.63,0.84,0.73,1.37C88.9,78.72,88.91,78.89,88.91,79.07z"/>
	<path class="st674" d="M32.9,111.35c0,0.39-7.37,0.7-16.45,0.7c-9.09,0-16.45-0.31-16.45-0.7c0-0.39,7.37-0.7,16.45-0.7
		C25.54,110.65,32.9,110.96,32.9,111.35z"/>
	<path class="st674" d="M122.48,111.35c0,0.39-7.37,0.7-16.45,0.7c-9.09,0-16.45-0.31-16.45-0.7c0-0.39,7.37-0.7,16.45-0.7
		C115.11,110.65,122.48,110.96,122.48,111.35z"/>
	<path class="st674" d="M92.81,111.63c0,0.23-2.19,0.42-4.9,0.42c-2.71,0-4.9-0.19-4.9-0.42c0-0.23,2.19-0.42,4.9-0.42
		C90.62,111.22,92.81,111.4,92.81,111.63z"/>
	<g>
		<g>
			<g>
				<g>
					<rect x="10.9" y="95.5" class="st675" width="16.43" height="2.11"/>
					<rect x="10.9" y="96.71" class="st676" width="16.43" height="0.9"/>
				</g>
				<g>
					<polygon class="st676" points="29.68,111.31 28.85,111.31 25.18,84.42 24.72,81.03 25.42,80.96 26.98,80.82 27.2,83.22 					
						"/>
					<polygon class="st676" points="29.14,111.31 28.85,111.31 24.72,81.03 25.42,80.96 					"/>
					<path class="st676" d="M27.2,83.22c-0.59,0.37-1.43,0.86-2.01,1.2l-0.46-3.39l0.7-0.06l1.57-0.14L27.2,83.22z"/>
				</g>
				<g>
					<polygon class="st676" points="9.05,111.31 9.88,111.31 13.55,84.42 14.01,81.03 13.32,80.96 11.75,80.82 11.54,83.22 					"/>
					<polygon class="st676" points="9.59,111.31 9.88,111.31 14.01,81.03 13.32,80.96 					"/>
					<path class="st676" d="M11.54,83.22c0.59,0.37,1.43,0.86,2.01,1.2l0.46-3.39l-0.7-0.06l-1.57-0.14L11.54,83.22z"/>
				</g>
			</g>
			<g>
				<path class="st675" d="M28.56,77.9v3.19c0,0.59-0.48,1.07-1.07,1.07H11.24c-0.59,0-1.07-0.48-1.07-1.07V77.9
					c0-0.59,0.48-1.07,1.07-1.07h16.24C28.08,76.83,28.56,77.31,28.56,77.9z"/>
				<path class="st677" d="M28.56,79.97v1.12c0,0.59-0.48,1.07-1.07,1.07H11.24c-0.59,0-1.07-0.48-1.07-1.07v-0.93
					c0.67,0.3,1.71,0.62,3.14,0.62c2.37,0,9.53,0.15,12.5,0C27.39,80.7,28.17,80.32,28.56,79.97z"/>
			</g>
		</g>
		<g>
			<g>
				<linearGradient id="SVGID_7_" gradientUnits="userSpaceOnUse" x1="14.5719" y1="109.1271" x2="14.1367" y2="103.4219">
					<stop  offset="0" style="stop-color:#FCDFE5"/>
					<stop  offset="0.0754" style="stop-color:#FCDFE5"/>
					<stop  offset="0.7933" style="stop-color:#F59395"/>
					<stop  offset="1" style="stop-color:#F59395"/>
				</linearGradient>
				<polygon style="fill:url(#SVGID_7_);" points="15.84,103.73 15.71,104.86 15.44,107.06 12.73,106.99 12.82,105.26 12.91,103.62 
									"/>
				<linearGradient id="SVGID_8_" gradientUnits="userSpaceOnUse" x1="14.3309" y1="107.4629" x2="14.3309" y2="104.6345">
					<stop  offset="0" style="stop-color:#E6B6BF"/>
					<stop  offset="0.0754" style="stop-color:#E6B6BF"/>
					<stop  offset="0.7933" style="stop-color:#E67171"/>
					<stop  offset="1" style="stop-color:#E67171"/>
				</linearGradient>
				<polygon style="fill:url(#SVGID_8_);" points="15.84,103.73 15.71,104.86 12.82,105.26 12.91,103.62 				"/>
				<path class="st680" d="M16.06,111.13H6.52c0,0,0.15-0.56,0.45-1.15c0.2-0.39,0.46-0.79,0.78-1.06c0.83-0.69,2.72-0.54,3.23-0.94
					c0.51-0.4,1.78-1.45,1.78-1.45h2.83L16.06,111.13z"/>
				<path class="st681" d="M18.93,70.77c0,0-0.06,1.4-0.16,2.95c-0.02,0.4-0.05,0.82-0.08,1.22c-0.1,1.41-0.22,2.67-0.35,2.8
					c-0.29,0.29-1.74,2.32-2.32,2.76c-0.15,0.11-0.62,0.45-1.24,0.88c-1.76,1.24-4.71,3.28-4.77,3.32l0,0l2.58,3.28l0.33,0.41
					l3.77,4.79l-3.55,4.35c0,0-0.26-0.29-0.69-0.79c-1.62-1.85-5.68-6.5-8-9.3c-0.93-1.12-1.58-1.94-1.68-2.17
					c-0.44-0.94-0.39-3.19,0.87-4.28c0.57-0.49,8.92-7.69,8.92-7.69l0.09-0.39l0.57-2.58l4.41,0.34L18.93,70.77z"/>
				<path class="st682" d="M18.69,74.93c-0.1,1.41-0.22,2.67-0.35,2.8c-0.29,0.29-1.74,2.32-2.32,2.76
					c-0.58,0.43-5.93,4.15-6.02,4.21l0,0l-0.94-1.6L18.69,74.93z"/>
				<path class="st680" d="M16.26,93.78l-2.06,2.49c0,0,0.16,1.45,0.15,2.1c-0.02,0.65-1.33,2.01-1.33,3.09
					c0,1.08,0.92,2.36,0.92,2.36l6.07-7.35L16.26,93.78z"/>
				<path class="st681" d="M25.24,80.19C23.9,82.43,19,88.53,19,88.53l-2.54,15.88L15,104.39l-2.96-0.05c0,0,0.18-3.58,0.4-7.61
					c0.16-2.95,0.34-6.14,0.48-8.35c0.09-1.43,0.17-2.45,0.21-2.75c0.1-0.63,0.85-2.46,1.66-4.27c0.96-2.15,2-4.28,2.11-4.36
					c0.11-0.08,0.23-1.81,0.31-3.44c0.08-1.48,0.12-2.87,0.12-2.87l0.28-0.03l6.41-0.63l1.44-0.14l0.51,2.54
					c0,0,0.18,0.62,0.34,1.45c0.11,0.55,0.21,1.2,0.24,1.81C26.61,77.22,25.84,79.19,25.24,80.19z"/>
				<path class="st682" d="M25.24,80.19C23.9,82.43,19,88.53,19,88.53l-2.54,15.88L15,104.39c0.7-4.07,3.01-17.27,3.5-17.82
					c0.58-0.65,6.09-7.54,6.45-8.85c0.36-1.31-0.23-2.38-0.29-2.68c-0.25-1.22-0.51-3.66-0.64-5.01l1.44-0.14l0.51,2.54
					c0,0,0.51,1.74,0.58,3.26C26.61,77.22,25.84,79.19,25.24,80.19z"/>
				<path class="st682" d="M26.3,73.88c-0.54-0.03-1.26-0.06-1.72-0.05c-1.57,0.05-4-0.03-5.81-0.12c-0.15-0.01-0.29-0.01-0.42-0.02
					c-0.21-0.01-0.62-0.06-1.14-0.12c-1.34-0.17-3.4-0.48-4.58-0.66l0.57-2.58l4.41,0.34l6.41-0.63l1.44-0.14l0.51,2.54
					C25.96,72.43,26.14,73.06,26.3,73.88z"/>
			</g>
			<g>
				<linearGradient id="SVGID_9_" gradientUnits="userSpaceOnUse" x1="8.9866" y1="62.833" x2="10.2837" y2="65.9829">
					<stop  offset="0" style="stop-color:#FFC761"/>
					<stop  offset="1" style="stop-color:#F1823C"/>
				</linearGradient>
				<path class="st48" d="M11.48,67.5c0,0-0.86,0.25-1.8-0.76c-0.94-1.02-0.73-3.66-0.73-3.66s1.02,0.22,1.85,1.74
					C11.64,66.34,11.48,67.5,11.48,67.5z"/>
				<path class="st684" d="M11.53,60.35c0,0-3.92,4.25-4.01,4.4c-0.1,0.14-0.92,2.22-0.14,3c0.77,0.77,1.43,1.58,2.68,0.42
					c1.26-1.16,3.09-4.27,3.09-4.27S12.35,60.44,11.53,60.35z"/>
				<path class="st4" d="M14.86,55.66c0,0.68-0.07,2.45-0.14,4.09c-0.07,1.73-0.15,3.31-0.15,3.31l-3.09,4.45
					c0,0,0.05-0.77-0.63-2.32c-0.1-0.23-0.22-0.48-0.34-0.73c-0.7-1.4-1.64-2.9-1.64-2.9s3.82-7.69,4.88-7.93
					C14.82,53.38,14.86,54.25,14.86,55.66z"/>
				<path class="st517" d="M14.73,59.74c-0.07,1.73-0.15,3.31-0.15,3.31l-3.09,4.45c0,0,0.05-0.77-0.63-2.32
					c-0.1-0.23-0.22-0.48-0.34-0.73c1.26-0.01,2.03-1.32,2.33-2c0.73-1.71,0.94-4.45,0.94-4.45L14.73,59.74z"/>
				<g>
					<path class="st4" d="M27.36,58.13C27.36,58.13,27.36,58.13,27.36,58.13c-0.06,1.93-0.28,3.7-0.41,4.5
						c-0.34,2.03-0.29,7.57-0.29,7.57s0.11,1.66-0.18,2.01c-0.93,1.12-1.3,1.34-7.74,1.26c-3.92-0.05-5.72-1.35-6.16-1.65
						c-0.44-0.31,0.1-1.27,0.29-3.05c0.16-1.43,0.09-5.31-0.11-7.92c-0.05-0.64-0.11-1.2-0.18-1.63c-0.34-2.19-0.48-2.85,0-3.91
						c0.48-1.07,0.77-1.47,1.84-2.19c0.22-0.14,0.65-0.32,1.22-0.51c0.24-0.08,0.49-0.16,0.77-0.24c1.85-0.56,4.45-1.17,5.93-1.47
						c0.37-0.08,0.68-0.13,0.88-0.16c0.13-0.02,0.26-0.03,0.38-0.04c1.18-0.09,1.89,0.24,1.89,0.24
						C27.14,51.79,27.45,55.16,27.36,58.13z"/>
					<path class="st4" d="M18.7,52.32c1.87-0.47,2.71,2.31,0.88,2.9c-0.14,0.05-0.3,0.08-0.46,0.1c-1.28,0.17-1.74-0.49-1.85-1.25
						c-0.12-0.76,0.38-1.48,1.13-1.67C18.5,52.37,18.6,52.35,18.7,52.32z"/>
				</g>
				<g>
					<g>
						<path class="st685" d="M20.16,48.9c0,0-0.01,1.81-0.03,3.27c-0.01,0.9-0.02,1.66-0.04,1.77c-0.03,0.29-0.41,0.83-1.36,0.83
							c-0.95,0-1.36-0.76-1.36-0.76l-0.12-3.29l-0.1-2.75L20.16,48.9z"/>
						<path class="st684" d="M20.16,48.9c0,0-0.01,0.94-0.02,2.01c-0.23,0.16-0.54,0.24-0.94,0.13c-0.66-0.19-1.46-1.09-2.02-1.82
							l-0.05-1.25L20.16,48.9z"/>
					</g>
					<path class="st685" d="M22.59,43.89v3.01c0,1.42-0.43,2.95-1.76,3.33c-0.14,0.04-0.3,0.07-0.46,0.08
						c-1.53,0.12-3.49-1.9-4.14-4.15c-0.07-0.23-0.12-0.46-0.16-0.7c-0.4-2.52,0.78-3.78,1.99-4.18c0.19-0.06,0.37-0.11,0.55-0.15
						c2.53-0.56,3.76,1.17,3.94,2.44C22.58,43.68,22.59,43.79,22.59,43.89z"/>
					<path class="st686" d="M20.3,44.76c0,0-0.22-0.36-0.79-0.36c-0.56,0-0.76,0.58-0.76,0.58s0.28-0.31,0.76-0.35
						C19.99,44.61,20.3,44.76,20.3,44.76z"/>
					<path class="st686" d="M22.5,44.78c0,0-0.12-0.38-0.53-0.43c-0.41-0.05-0.54,0.48-0.54,0.48s0.16-0.26,0.51-0.25
						C22.29,44.6,22.5,44.78,22.5,44.78z"/>
					<path class="st686" d="M19.95,45.89c0,0.26-0.13,0.47-0.28,0.47c-0.16,0-0.28-0.21-0.28-0.47s0.13-0.47,0.28-0.47
						C19.82,45.41,19.95,45.62,19.95,45.89z"/>
					<path class="st686" d="M22.35,45.89c0,0.27-0.12,0.48-0.27,0.48s-0.27-0.22-0.27-0.48s0.12-0.48,0.27-0.48
						S22.35,45.62,22.35,45.89z"/>
					<path class="st686" d="M21.11,45.93c0,0,0.14,0.54,0.44,0.8c0.3,0.26,0.47,0.26,0.47,0.26s-0.26,0.17-0.57,0.3
						c-0.32,0.12-0.56,0.09-0.56,0.09s0.27-0.07,0.52-0.19c0.26-0.12,0.26-0.12,0.26-0.12S21.03,46.53,21.11,45.93z"/>
					<path class="st686" d="M19.78,47.76c0,0,0.36,0.6,0.96,0.64c0.6,0.03,0.89-0.15,0.89-0.15s-0.36,0.39-0.94,0.32
						C19.96,48.48,19.78,47.76,19.78,47.76z"/>
					<path class="st684" d="M22.56,43.57c-0.31,0.14-0.92,0.34-1.8,0.3c-1.32-0.07-2.11-0.47-2.11-0.47s-0.49,1.01-0.99,1.73
						c-0.33,0.47-1.01,0.84-1.44,1.03c-0.07-0.23-0.12-0.46-0.16-0.7c-0.4-2.52,0.78-3.78,1.99-4.18
						C20.98,40.33,22.37,42.21,22.56,43.57z"/>
					<path class="st687" d="M23.07,41.44c-0.02,0.18-0.04,0.34-0.06,0.49c-0.19,1.1-0.7,1.5-2.5,1.53
						c-2.05,0.03-2.47-0.54-2.47-0.54s-0.27,1.19-0.72,1.86c-0.45,0.67-0.49,0.73-0.49,0.73l-0.17,1.2l-0.4-0.7l0.92,2.1
						c0,0-2.27-2.04-2.81-3c-0.15-0.27-0.21-0.59-0.2-0.91c0.02-0.81,0.41-1.64,0.54-1.85c0.18-0.29,1.03-0.83,2-0.85
						c0.38-0.01,0.76-0.94,3.03-1.84C21.43,39,23.22,39.88,23.07,41.44z"/>
					<path class="st686" d="M23.01,41.93c-0.19,1.1-0.3,1.74-1.63,1.77c-2.05,0.03-2.74-0.37-2.74-0.37s-0.39,0.98-1.1,1.7
						c-0.57,0.58-0.71,0.49-0.71,0.49l-0.17,1.2l0.52,1.41c0,0-2.27-2.04-2.81-3c-0.15-0.27-0.21-0.59-0.2-0.91
						c0.04,0.05,0.08,0.1,0.12,0.15c0.4,0.49,0.9,0.31,0.9,0.31s0.2,0,0.66-0.36c0.45-0.35,0.92-1.02,0.94-1.05
						c0,0.01-0.02,0.07-0.16,0.54c-0.16,0.52-0.33,0.75-0.34,0.76c0.01,0,0.12-0.07,0.7-0.81c0.6-0.76,0.62-1.55,0.62-1.55
						s1.06,0.22,2.05,0.02c0.98-0.2,1.76-0.52,1.76-0.52s0,0-0.32,0.27c-0.32,0.27-0.92,0.47-0.92,0.47s0.4,0.05,1.66-0.18
						C22.38,42.18,22.75,42.05,23.01,41.93z"/>
					<path class="st685" d="M16.7,45.27c0,0-0.36-0.63-1.01-0.11c-0.65,0.52-0.31,1.62,0.02,2.02c0.34,0.4,1.12,0.49,1.21,0.36
						s0.04-0.34,0.04-0.34S16.72,45.56,16.7,45.27z"/>
					<path class="st684" d="M16.27,46.96c0.27,0.03,0.29-0.17,0.12-0.35c-0.18-0.18-0.33-0.18-0.35-0.45
						c-0.02-0.27,0.24-0.39,0.32-0.45c0.08-0.06-0.04-0.48-0.41-0.26c-0.07,0.04-0.15,0.11-0.21,0.19c0.08-0.16,0.2-0.28,0.29-0.34
						c0.4-0.27,0.54,0.38,0.45,0.46c-0.09,0.08-0.37,0.08-0.35,0.4c0.02,0.33,0.19,0.18,0.38,0.4C16.7,46.81,16.56,47,16.27,46.96z"
						/>
				</g>
				<g>
					<path class="st685" d="M31.01,68.28c-0.82,0.24-1.69-0.14-2.51-1.16c-0.26-0.32-0.64-1.08-1.04-1.98
						c-0.38-0.85-0.78-1.82-1.12-2.65c-0.43-1.07-0.74-1.9-0.74-1.9l3.34-2.08c0,0,0.15,0.43,0.37,1.08
						c0.28,0.8,0.67,1.93,1.04,2.96c0.32,0.89,0.62,1.7,0.81,2.16C31.74,66.1,31.84,68.03,31.01,68.28z"/>
					<path class="st684" d="M30.35,62.54c-0.4,0.32-1.16,0.93-1.95,1.62c-0.37,0.33-0.69,0.66-0.95,0.97
						c-0.38-0.85-0.78-1.82-1.12-2.65c0.71-0.69,2.1-2.05,2.97-2.91C29.58,60.39,29.98,61.52,30.35,62.54z"/>
					<path class="st4" d="M30.43,62.04c0,0-0.43,0.18-1.26,0.7c-0.21,0.13-0.44,0.28-0.7,0.45c-0.01,0.01-0.02,0.01-0.02,0.02
						c-0.17,0.11-0.33,0.22-0.49,0.33c-1.04,0.72-1.74,1.27-1.74,1.27s-2.21-5.2-2.89-8.31c-0.04-0.17-0.07-0.32-0.09-0.48
						c-0.01-0.04-0.01-0.07-0.02-0.11c-0.48-3-0.69-4.98,0.86-5.22c1.55-0.24,2.77,0.35,3.4,1.66
						C28.11,53.64,30.43,62.04,30.43,62.04z"/>
					<path class="st685" d="M36.36,54.79c0.05,0.29,0.22,0.34-0.15,1.04c-0.36,0.7-0.51,0.94-0.51,0.94s-0.35,1.47-0.81,3.28
						c-0.59,2.3-1.36,5.16-1.85,6.24c-0.87,1.93-1.69,2.32-2.71,2.08c-0.35-0.08-0.64-0.24-0.87-0.46c-0.55-0.54-0.7-1.48-0.29-2.68
						c0.58-1.69,4.4-8.61,4.4-8.9s-0.7-1.76-0.65-2.39c0.05-0.63,0.8-2.39,0.8-2.39s1.43-1.79,1.76-2.1
						c0.34-0.31,0.8-0.58,0.97-0.56c0.08,0.01,0.11,0.11,0.12,0.23c0.01,0.15-0.02,0.33-0.07,0.4c-0.1,0.12-0.82,0.97-0.97,1.45
						c-0.15,0.48-0.36,1.31-0.36,1.31s1.4,0.51,1.47,0.94c0.06,0.35-0.2,0.97-0.27,1.35C36.35,54.66,36.35,54.73,36.36,54.79z"/>
					<path class="st684" d="M36.37,54.57c-0.18,0.02-0.38,0.05-0.56,0.08c-0.45,0.07-0.73,0.51-0.73,0.51s-0.16-0.24-0.42-0.62
						c-0.25-0.38-1.07-0.67-1.12-0.94c-0.05-0.27,0.13-0.78,0.29-1.18c0.16-0.4,0.54-0.87,0.82-1.31c0.27-0.44,1.16-1.78,1.65-1.98
						c0.14-0.06,0.22-0.05,0.27-0.02c0.01,0.15-0.02,0.33-0.07,0.4c-0.1,0.12-0.82,0.97-0.97,1.45c-0.15,0.48-0.36,1.31-0.36,1.31
						s1.4,0.51,1.47,0.94C36.71,53.57,36.45,54.19,36.37,54.57z"/>
					<path class="st685" d="M35.31,51.53c0.35-0.16,0.51-0.02,0.62,0.24c0.11,0.25-0.11,1.6-0.26,1.67
						c-0.15,0.07-0.6,0.05-0.63-0.18C35,53.02,35.04,51.66,35.31,51.53z"/>
					<path class="st685" d="M36.11,51.87c0.35-0.16,0.51-0.02,0.62,0.24c0.11,0.25-0.17,1.54-0.31,1.61
						c-0.15,0.07-0.58,0.07-0.62-0.16C35.76,53.32,35.84,52,36.11,51.87z"/>
					<path class="st685" d="M36.84,52.33c0.37-0.07,0.58-0.02,0.6,0.24c0.02,0.26-0.35,1.38-0.5,1.43
						c-0.16,0.04-0.45,0.04-0.46-0.32C36.47,53.33,36.74,52.35,36.84,52.33z"/>
					<path class="st685" d="M34.6,53.63l0.36-0.54c0,0,0.73,0.34,1.14,0.13c0.42-0.22,0.38-0.42,0.24-0.53
						c-0.15-0.11-1.29-0.58-1.5-0.58c-0.22,0-1.21,0.78-1.5,1.03c-0.29,0.25-0.49,0.62-0.44,0.87c0.05,0.25,0.44,1.65,0.56,1.83
						c0.13,0.18,1.12,0.09,1.43-0.07C35.2,55.61,35.47,53.98,34.6,53.63z"/>
					<path class="st684" d="M34.89,60.05c-0.59,2.3-1.36,5.16-1.85,6.24c-0.87,1.93-1.69,2.32-2.71,2.08
						c-0.35-0.08-0.64-0.24-0.87-0.46c0.62-0.08,1.29-0.3,1.86-0.77C32.3,66.34,33.84,62.74,34.89,60.05z"/>
					<path class="st517" d="M27.96,63.53c-1.04,0.72-1.74,1.27-1.74,1.27s-2.21-5.2-2.89-8.31c0.83,1.91,1.71,2.96,2.88,4.66
						C26.81,62.02,27.52,62.9,27.96,63.53z"/>
				</g>
				<g>
					<path class="st680" d="M14.85,54.81l-3.22,0.53c-0.26,0.04-0.51-0.13-0.56-0.39l-1.01-5.23L9.62,47.4
						c-0.05-0.27,0.13-0.53,0.4-0.58l3.39-0.57c0.27-0.04,0.52,0.13,0.56,0.4l1.03,6.1l0.25,1.49
						C15.3,54.51,15.12,54.76,14.85,54.81z"/>
					<path class="st688" d="M14.49,54.85l-3.22,0.53c-0.26,0.04-0.51-0.13-0.56-0.39L9.7,49.77l-0.45-2.32
						c-0.05-0.27,0.13-0.53,0.4-0.58l3.39-0.57c0.27-0.04,0.52,0.13,0.56,0.4l1.03,6.1l0.25,1.49
						C14.94,54.56,14.76,54.81,14.49,54.85z"/>
					<path class="st688" d="M14.49,54.85l-3.22,0.53c-0.26,0.04-0.51-0.13-0.56-0.39L9.7,49.77c0.62,0.31,1.29,0.77,1.57,1.38
						c0.58,1.27,1.2,2.25,2.1,2.18c0.47-0.04,0.93-0.29,1.26-0.52l0.25,1.49C14.94,54.56,14.76,54.81,14.49,54.85z"/>
				</g>
				<g>
					<path class="st685" d="M13.24,51.65L13.24,51.65c0,0.02-0.01,0.04-0.02,0.06c-0.13,0.19-0.6,0.12-1.06,0.1
						c-0.46-0.02-1.04,0.11-1.28,0.19c-0.24,0.08-0.19,0.22-0.19,0.22s0.08-0.01,0.28,0c0.19,0.01,1-0.01,1.49,0.05
						c0.47,0.06,0.67,0.09,0.61,0.34c0,0.01-0.01,0.02-0.01,0.03c-0.08,0.27-0.35,0.25-1.06,0.31c-0.71,0.06-1.08,0.22-1.08,0.22
						s0.69-0.01,1.06,0.01c0.36,0.02,0.78,0.01,0.74,0.29c0,0.01,0,0.02-0.01,0.03c-0.07,0.31-1.93,0.41-1.93,0.41
						s-0.1,0.15-0.27,0.48c-0.17,0.34-0.73,1.16-0.73,1.16s0.52,4.79,0.76,7.97c0.1,1.35,0.16,2.4,0.11,2.67
						c-0.22,1.11-0.34,1.72-1.06,2.3c-0.73,0.58-1.31,0.27-2.13-0.27c-0.82-0.53-1.04-1.33-1.09-2.54
						c-0.05-1.21,1.36-10.04,1.29-10.32c-0.07-0.27,0.33-1.72,0.6-2.85c0.27-1.12,0.75-1.81,0.88-1.92
						c0.13-0.11,0.68-0.68,1.14-0.68c0.46,0,1.03-0.04,1.69,0.1c0.66,0.15,0.97,0.56,0.86,0.7c-0.01,0.01-0.02,0.02-0.02,0.03
						c-0.11,0.11-0.3,0.09-0.64,0.02c-0.36-0.07-0.51-0.07-1.04,0.01c-0.53,0.07-0.8,0.27-0.8,0.27l0.01,0
						c0.05,0,0.33-0.02,0.66-0.02c0.36,0,0.91,0,1.43,0.1C12.89,51.21,13.27,51.46,13.24,51.65z"/>
					<path class="st684" d="M12.81,50.76c-0.11,0.11-0.3,0.09-0.64,0.02c-0.36-0.07-0.51-0.07-1.04,0.01
						c-0.53,0.07-0.8,0.27-0.8,0.27l-0.39,0.01c0,0,0.16-0.25,0.4-0.37c0.24-0.12,0.7-0.17,1.15-0.19c0.45-0.02,0.83,0.11,1.03,0.17
						C12.64,50.7,12.74,50.73,12.81,50.76z"/>
					<path class="st684" d="M13.24,51.65c0,0.02-0.01,0.04-0.02,0.06c-0.13,0.19-0.6,0.12-1.06,0.1c-0.46-0.02-1.04,0.11-1.28,0.19
						c-0.24,0.08-0.19,0.22-0.19,0.22l-0.38,0.1c0,0,0.14-0.4,0.36-0.55c0.22-0.15,1.06-0.27,1.18-0.28
						c0.12-0.01,1.18,0.21,1.31,0.18C13.18,51.67,13.22,51.66,13.24,51.65z"/>
					<path class="st684" d="M13.06,52.61c0,0.01-0.01,0.02-0.01,0.03c-0.08,0.27-0.35,0.25-1.06,0.31
						c-0.71,0.06-1.08,0.22-1.08,0.22l-0.48,0.07c0,0,0.1-0.19,0.25-0.25c0.16-0.06,0.31-0.17,0.74-0.22
						c0.42-0.05,0.96-0.02,1.28-0.07C12.85,52.67,12.97,52.64,13.06,52.61z"/>
					<path class="st684" d="M12.72,53.47c0,0.01,0,0.02-0.01,0.03c-0.07,0.31-1.93,0.41-1.93,0.41s-0.1,0.15-0.27,0.48
						c-0.17,0.34-0.73,1.16-0.73,1.16s0.52,4.79,0.76,7.97l-1.43-7.86c0,0,0.15,0.04,0.38-0.25c0.24-0.29,0.8-1.61,0.8-1.61
						s0.27-0.09,0.49-0.13c0.22-0.04,0.67-0.04,1.18-0.05C12.33,53.6,12.6,53.52,12.72,53.47z"/>
				</g>
			</g>
		</g>
	</g>
	<g>
		<g>
			<g>
				<path class="st675" d="M92.15,90.38c-0.1,1.39-0.29,2.93-0.53,4.46c-0.68,4.44-1.69,8.74-1.69,8.74l-2.13,0.13
					c0,0-0.49-3.11-0.31-7.34c0.05-1.12,0.14-2.31,0.31-3.55c0.78-5.92,2.61-10.01,3.31-9.8C91.8,83.24,92.54,84.94,92.15,90.38z"/>
				<path class="st680" d="M91.62,94.84c-0.68,4.44-1.69,8.74-1.69,8.74l-2.13,0.13c0,0-0.49-3.11-0.31-7.34
					c0.44-0.04,0.96-0.12,1.57-0.28C90.23,95.79,91.07,95.28,91.62,94.84z"/>
			</g>
			<g>
				<path class="st681" d="M89.36,103.53l-1.96,0.17c0,0,0-0.31-0.7-2.18c-0.31-0.84-0.84-1.87-1.47-2.99
					c-0.77-1.37-1.71-2.88-2.62-4.37c-1.65-2.7-3.7-6.44-2.7-6.79c1-0.35,3.22,0.96,6.01,5.49c0.71,1.16,1.28,2.42,1.74,3.66
					C89,100.13,89.36,103.53,89.36,103.53z"/>
				<path class="st682" d="M89.36,103.53l-1.96,0.17c0,0,0-0.31-0.7-2.18c-0.31-0.84-0.84-1.87-1.47-2.99
					c0.37,0.02,0.74-0.04,1.04-0.23c0.69-0.43,1.14-1.21,1.39-1.78C89,100.13,89.36,103.53,89.36,103.53z"/>
			</g>
			<path class="st680" d="M88.12,102.96c0,0-1.47-3.98-2.71-5.13c-1.24-1.14-1.57-1.14-1.57-1.14l-2.51,1.21
				c0,0,2.68,1.63,3.79,3.27c1.11,1.63,1.24,2.29,1.24,2.29L88.12,102.96z"/>
			<path class="st675" d="M80.25,98.12c-0.31,0.25-2.22,4.38-2.35,5.49s0.39,1.18,1.6-0.13c1.21-1.31,4.72-6.59,4.72-6.59
				s-0.27-0.34-1.05-0.21C82.15,96.85,81.16,97.37,80.25,98.12z"/>
			<path class="st682" d="M89.88,103.29c0,0,0.48-0.98,1.57-2.53c1.09-1.55,2-2.2,2-2.2l-2.07-2.5c0,0-0.59,1.07-1.44,3.31
				c-0.85,2.24-1.11,3.77-1.11,3.77L89.88,103.29z"/>
			<path class="st681" d="M94.65,100.55c-0.7,0.04-1.87-0.96-2.48-2.2c-0.61-1.24-0.78-2.29-0.78-2.29s0.57-0.39,2.02-0.04
				c1.46,0.35,1.92,0.81,2.05,1.48C95.59,98.18,96.04,100.46,94.65,100.55z"/>
		</g>
		<g>
			<polygon class="st680" points="91.71,102.73 91.52,105.73 91.18,111.22 85.06,111.22 84.95,109.47 84.53,102.73 			"/>
			<path class="st689" d="M91.52,105.73l-0.34,5.48h-6.12l-0.11-1.75c0.54-0.13,1.15-0.28,1.82-0.47
				C88.92,108.4,90.54,106.91,91.52,105.73z"/>
		</g>
	</g>
	<g>
		<g class="st690">
			<path class="st514" d="M81.79,40.44h-6.06c-4.74,0-8.59-3.84-8.59-8.59V21.07c0-4.74,3.84-8.59,8.59-8.59h6.06
				c4.74,0,8.59,3.84,8.59,8.59v10.78C90.38,36.6,86.54,40.44,81.79,40.44z"/>
			<path class="st514" d="M61.73,19.01L61.73,19.01c-2.16,0-3.92-1.75-3.92-3.92V13.5c0-2.16,1.75-3.92,3.92-3.92h0
				c2.16,0,3.92,1.75,3.92,3.92v1.59C65.65,17.25,63.9,19.01,61.73,19.01z"/>
			<path class="st514" d="M61.96,107.08L61.96,107.08c-1.47,0-2.66-1.19-2.66-2.66v-1.08c0-1.47,1.19-2.66,2.66-2.66l0,0
				c1.47,0,2.66,1.19,2.66,2.66v1.08C64.62,105.89,63.43,107.08,61.96,107.08z"/>
			<path class="st514" d="M47.54,104.3L47.54,104.3c-5.28,0-9.57-4.28-9.57-9.57v-3.89c0-5.28,4.28-9.57,9.57-9.57h0
				c5.28,0,9.57,4.28,9.57,9.57v3.89C57.1,100.02,52.82,104.3,47.54,104.3z"/>
		</g>
		<g>
			<path class="st4" d="M48.17,23.87h2.11v-4.42h-2.2c-0.23-0.82-0.58-1.58-1.03-2.28l0,0l1.61-1.61l-3.13-3.13l-1.74,1.74
				c-0.67-0.36-1.39-0.63-2.15-0.8v-2.55h-4.42v2.71c-0.68,0.21-1.33,0.5-1.93,0.86l-1.96-1.96l-3.13,3.13l1.99,1.99
				c-0.34,0.59-0.61,1.23-0.8,1.9h-2.8v4.42h2.71c0.17,0.71,0.43,1.39,0.77,2.02l0,0l-1.87,1.87l3.13,3.13l1.74-1.74
				c0.66,0.42,1.38,0.76,2.15,0.99v2.37h4.42v-2.21c0.85-0.19,1.64-0.5,2.38-0.92l1.51,1.51l3.13-3.13l-1.48-1.48l0,0
				C47.63,25.54,47.97,24.73,48.17,23.87z M43.12,21.83c-0.01,1.09-0.55,2.16-1.47,2.79c-2,1.37-4.67-0.02-5.18-2.28
				c-0.64-2.87,2.84-4.91,5.18-3.31c0.72,0.5,1.24,1.27,1.41,2.13C43.1,21.39,43.12,21.61,43.12,21.83z"/>
			<g>
				<linearGradient id="SVGID_10_" gradientUnits="userSpaceOnUse" x1="20.6555" y1="15.0746" x2="28.1182" y2="58.4391">
					<stop  offset="0" style="stop-color:#E3F4FD"/>
					<stop  offset="0.0754" style="stop-color:#E3F4FD"/>
					<stop  offset="0.7933" style="stop-color:#CCE4F6"/>
					<stop  offset="1" style="stop-color:#CCE4F6"/>
				</linearGradient>
				<path style="opacity:0.23;fill:url(#SVGID_10_);" d="M33.96,19.47v15.48c0,0.35-0.29,0.64-0.64,0.64H12.16
					c-0.35,0-0.64-0.29-0.64-0.64V19.47c0-0.35,0.29-0.64,0.64-0.64h21.16C33.68,18.83,33.96,19.12,33.96,19.47z"/>
				<path class="st675" d="M32.75,18.46v15.48c0,0.35-0.29,0.64-0.64,0.64H10.95c-0.35,0-0.64-0.29-0.64-0.64V18.46
					c0-0.35,0.29-0.64,0.64-0.64h21.16C32.47,17.82,32.75,18.11,32.75,18.46z"/>
				<linearGradient id="SVGID_11_" gradientUnits="userSpaceOnUse" x1="31.7987" y1="4.943" x2="20.1016" y2="24.4382">
					<stop  offset="0" style="stop-color:#FFFFFF"/>
					<stop  offset="1" style="stop-color:#E2ECF5"/>
				</linearGradient>
				<path style="opacity:0.36;fill:url(#SVGID_11_);" d="M26.98,20.71c-0.8,1.6-9.44,9.57-14.17,13.87h-1.85
					c-0.35,0-0.64-0.29-0.64-0.64v-0.12c3.38-2.95,9.94-8.87,10.61-10.89c0.91-2.72-2.62-0.3-2.85-2.13
					c-0.07-0.54,0.52-1.66,1.38-2.97h3.88c-0.27,0.32-0.51,0.59-0.69,0.77C21.33,19.9,28.09,18.49,26.98,20.71z"/>
				<linearGradient id="SVGID_12_" gradientUnits="userSpaceOnUse" x1="38.6331" y1="9.0438" x2="26.9361" y2="28.5389">
					<stop  offset="0" style="stop-color:#FFFFFF"/>
					<stop  offset="1" style="stop-color:#E2ECF5"/>
				</linearGradient>
				<path style="opacity:0.36;fill:url(#SVGID_12_);" d="M32.75,18.46v10.29c-1.66,1.93-3.39,3.93-5.06,5.83h-8
					c5.22-4.74,11.39-10.7,12.19-13.1c1.42-4.25-4.09-0.47-4.46-3.33c-0.01-0.1-0.01-0.21,0-0.33h4.69
					C32.47,17.82,32.75,18.11,32.75,18.46z"/>
				<g>
					<path class="st3" d="M16.84,30.32h-4.27c-0.09,0-0.16-0.07-0.16-0.16l0,0c0-0.09,0.07-0.16,0.16-0.16h4.27
						c0.09,0,0.16,0.07,0.16,0.16l0,0C17.01,30.24,16.94,30.32,16.84,30.32z"/>
					<path class="st3" d="M19.79,31.4h-7.22c-0.09,0-0.16-0.07-0.16-0.16l0,0c0-0.09,0.07-0.16,0.16-0.16h7.22
						c0.09,0,0.16,0.07,0.16,0.16l0,0C19.95,31.33,19.88,31.4,19.79,31.4z"/>
					<path class="st3" d="M19.79,32.39h-7.22c-0.09,0-0.16-0.07-0.16-0.16l0,0c0-0.09,0.07-0.16,0.16-0.16h7.22
						c0.09,0,0.16,0.07,0.16,0.16l0,0C19.95,32.31,19.88,32.39,19.79,32.39z"/>
				</g>
				<g>
					<g>
						<g>
							<path class="st3" d="M28.34,29.5L28.34,29.5c-0.05-0.05-0.05-0.14,0-0.19l1.13-1.13c0.05-0.05,0.14-0.05,0.19,0l0,0
								c0.05,0.05,0.05,0.14,0,0.19l-1.13,1.13C28.48,29.55,28.39,29.55,28.34,29.5z"/>
						</g>
						<g>
							<path class="st3" d="M29.47,29.5l-1.13-1.13c-0.05-0.05-0.05-0.14,0-0.19l0,0c0.05-0.05,0.14-0.05,0.19,0l1.13,1.13
								c0.05,0.05,0.05,0.14,0,0.19l0,0C29.61,29.55,29.52,29.55,29.47,29.5z"/>
						</g>
					</g>
					<g>
						<g>
							<path class="st3" d="M23.56,31.18L23.56,31.18c-0.05-0.05-0.05-0.14,0-0.19l1.13-1.13c0.05-0.05,0.14-0.05,0.19,0l0,0
								c0.05,0.05,0.05,0.14,0,0.19l-1.13,1.13C23.69,31.24,23.61,31.24,23.56,31.18z"/>
						</g>
						<g>
							<path class="st3" d="M24.69,31.18l-1.13-1.13c-0.05-0.05-0.05-0.14,0-0.19l0,0c0.05-0.05,0.14-0.05,0.19,0l1.13,1.13
								c0.05,0.05,0.05,0.14,0,0.19l0,0C24.83,31.24,24.74,31.24,24.69,31.18z"/>
						</g>
					</g>
					<path class="st677" d="M25.99,23.12c-0.49,0-0.89,0.4-0.89,0.89c0,0.49,0.4,0.89,0.89,0.89c0.49,0,0.88-0.4,0.88-0.89
						C26.87,23.52,26.48,23.12,25.99,23.12z M25.99,24.64c-0.35,0-0.63-0.28-0.63-0.63c0-0.35,0.28-0.63,0.63-0.63
						c0.35,0,0.63,0.28,0.63,0.63C26.62,24.36,26.34,24.64,25.99,24.64z"/>
					<g>
						<g>
							<path class="st677" d="M27.14,21.75c-0.03,0-0.05-0.01-0.08-0.02c-0.2-0.11-0.34-0.17-0.34-0.17
								c-0.08-0.03-0.12-0.13-0.09-0.21c0.03-0.08,0.13-0.12,0.21-0.09c0.01,0,0.16,0.06,0.38,0.19c0.08,0.04,0.11,0.14,0.06,0.22
								C27.25,21.72,27.19,21.75,27.14,21.75z"/>
						</g>
						<g>
							<path class="st677" d="M27.64,31.36c-0.02,0-0.04,0-0.05-0.01c-0.26-0.09-0.51-0.21-0.74-0.34c-0.08-0.05-0.1-0.14-0.06-0.22
								c0.04-0.08,0.14-0.1,0.22-0.06c0.21,0.12,0.44,0.22,0.68,0.31c0.08,0.03,0.13,0.12,0.1,0.21
								C27.77,31.32,27.71,31.36,27.64,31.36z M26.31,30.57c-0.04,0-0.08-0.02-0.11-0.05c-0.2-0.19-0.37-0.41-0.51-0.64
								c-0.05-0.08-0.02-0.18,0.06-0.22c0.08-0.05,0.18-0.02,0.22,0.06c0.12,0.21,0.28,0.4,0.45,0.57c0.06,0.06,0.07,0.16,0,0.23
								C26.39,30.55,26.35,30.57,26.31,30.57z M25.53,29.25c-0.07,0-0.14-0.05-0.16-0.12c-0.02-0.08-0.04-0.17-0.06-0.26
								c-0.04-0.19-0.05-0.38-0.06-0.55c0-0.09,0.07-0.16,0.16-0.16h0c0.09,0,0.16,0.07,0.16,0.16c0,0.15,0.02,0.32,0.05,0.49
								c0.02,0.08,0.03,0.16,0.05,0.24c0.02,0.09-0.03,0.18-0.11,0.2C25.56,29.25,25.54,29.25,25.53,29.25z M25.56,27.72
								c-0.02,0-0.04,0-0.06-0.01c-0.08-0.03-0.12-0.13-0.09-0.21c0.1-0.24,0.26-0.47,0.47-0.69c0.06-0.06,0.17-0.07,0.23,0
								c0.06,0.06,0.07,0.17,0,0.23c-0.18,0.19-0.32,0.38-0.4,0.59C25.69,27.68,25.63,27.72,25.56,27.72z M26.59,26.58
								c-0.05,0-0.1-0.02-0.13-0.07c-0.05-0.07-0.04-0.17,0.03-0.23c0.09-0.07,0.18-0.13,0.27-0.2c0.12-0.08,0.24-0.17,0.35-0.26
								c0.07-0.05,0.17-0.04,0.23,0.03c0.05,0.07,0.04,0.17-0.03,0.23c-0.12,0.09-0.24,0.18-0.36,0.26
								c-0.09,0.07-0.18,0.13-0.27,0.2C26.66,26.57,26.63,26.58,26.59,26.58z M27.81,25.62c-0.04,0-0.08-0.02-0.11-0.05
								c-0.06-0.06-0.07-0.17,0-0.23c0.18-0.19,0.33-0.38,0.44-0.58c0.04-0.08,0.14-0.11,0.22-0.06c0.08,0.04,0.11,0.14,0.06,0.22
								c-0.13,0.23-0.29,0.44-0.49,0.65C27.9,25.6,27.85,25.62,27.81,25.62z M28.55,24.27c-0.01,0-0.02,0-0.03,0
								c-0.09-0.02-0.14-0.1-0.13-0.19c0.03-0.14,0.04-0.27,0.04-0.4c0-0.1-0.01-0.21-0.03-0.31c-0.02-0.09,0.04-0.17,0.13-0.19
								c0.09-0.02,0.17,0.04,0.19,0.13c0.02,0.12,0.03,0.24,0.03,0.37c0,0.15-0.02,0.31-0.05,0.47
								C28.69,24.22,28.63,24.27,28.55,24.27z M28.28,22.78c-0.05,0-0.11-0.03-0.14-0.08c-0.12-0.19-0.28-0.38-0.48-0.55
								c-0.07-0.06-0.07-0.16-0.02-0.23c0.06-0.07,0.16-0.07,0.23-0.02c0.22,0.19,0.4,0.4,0.54,0.62c0.05,0.08,0.03,0.18-0.05,0.22
								C28.34,22.77,28.31,22.78,28.28,22.78z"/>
						</g>
						<g>
							<path class="st677" d="M28.81,31.61C28.81,31.61,28.8,31.61,28.81,31.61c-0.01,0-0.18-0.01-0.43-0.05
								c-0.09-0.02-0.15-0.1-0.13-0.19c0.02-0.09,0.1-0.15,0.19-0.13c0.23,0.04,0.38,0.05,0.38,0.05c0.09,0,0.16,0.08,0.15,0.17
								C28.97,31.54,28.89,31.61,28.81,31.61z"/>
						</g>
					</g>
					<polygon class="st677" points="27.76,21 26.62,22.37 25.65,20.42 					"/>
				</g>
				<g>
					<g>
						<polygon class="st677" points="15.58,22.06 17.74,22.95 17.74,25.44 15.58,24.41 						"/>
						<polygon class="st677" points="20.43,22.06 18.28,22.95 18.28,25.44 20.43,24.41 						"/>
						<polygon class="st677" points="15.95,21.6 18.05,22.44 20.19,21.6 18.07,20.8 						"/>
					</g>
					<g>
						<path class="st3" d="M23.59,22.37h-1.88c-0.27,0-0.48-0.22-0.48-0.48v0c0-0.27,0.22-0.48,0.48-0.48h1.88
							c0.27,0,0.48,0.22,0.48,0.48l0,0C24.07,22.16,23.86,22.37,23.59,22.37z"/>
						<path class="st3" d="M15.1,20.38h-1.88c-0.27,0-0.48-0.22-0.48-0.48l0,0c0-0.27,0.22-0.48,0.48-0.48h1.88
							c0.27,0,0.48,0.22,0.48,0.48l0,0C15.58,20.17,15.37,20.38,15.1,20.38z"/>
						<path class="st3" d="M14.92,26.91h-1.88c-0.27,0-0.48-0.22-0.48-0.48v0c0-0.27,0.22-0.48,0.48-0.48h1.88
							c0.27,0,0.48,0.22,0.48,0.48l0,0C15.4,26.69,15.19,26.91,14.92,26.91z"/>
						<g>
							
								<rect x="14.85" y="25.34" transform="matrix(0.5921 -0.8059 0.8059 0.5921 -14.1608 22.859)" class="st677" width="1.3" height="0.16"/>
						</g>
						<g>
							
								<rect x="20.5" y="22.07" transform="matrix(0.8119 -0.5838 0.5838 0.8119 -9.0009 16.3586)" class="st677" width="0.77" height="0.16"/>
						</g>
						<g>
							
								<rect x="16.19" y="19.56" transform="matrix(0.6115 -0.7912 0.7912 0.6115 -9.845 20.8138)" class="st677" width="0.16" height="1.74"/>
						</g>
					</g>
				</g>
			</g>
			<g>
				<linearGradient id="SVGID_13_" gradientUnits="userSpaceOnUse" x1="74.9096" y1="86.1381" x2="42.6166" y2="11.1191">
					<stop  offset="0" style="stop-color:#E3F4FD"/>
					<stop  offset="0.0754" style="stop-color:#E3F4FD"/>
					<stop  offset="0.7933" style="stop-color:#CCE4F6"/>
					<stop  offset="1" style="stop-color:#CCE4F6"/>
				</linearGradient>
				<path style="opacity:0.23;fill:url(#SVGID_13_);" d="M82.29,96.82H46.57c-2.73,0-4.94-2.21-4.94-4.94V31.72
					c0-2.73,2.21-4.94,4.94-4.94h35.71c2.73,0,4.94,2.21,4.94,4.94v60.15C87.23,94.6,85.02,96.82,82.29,96.82z"/>
				<g>
					<path class="st695" d="M84.87,95.19H41.24c-0.55,0-0.99-0.44-0.99-0.99V26.14c0-0.55,0.44-0.99,0.99-0.99h43.62
						c0.55,0,0.99,0.44,0.99,0.99V94.2C85.86,94.75,85.41,95.19,84.87,95.19z"/>
					<linearGradient id="SVGID_14_" gradientUnits="userSpaceOnUse" x1="41.5848" y1="59.3031" x2="84.5258" y2="59.3031">
						<stop  offset="0" style="stop-color:#FFFFFF"/>
						<stop  offset="1" style="stop-color:#E2ECF5"/>
					</linearGradient>
					<path style="opacity:0.36;fill:url(#SVGID_14_);" d="M84.53,26.96v64.69c0,0.32-0.26,0.58-0.58,0.58H42.16
						c-0.32,0-0.58-0.26-0.58-0.58V26.96c0-0.32,0.26-0.58,0.58-0.58h41.78C84.27,26.38,84.53,26.64,84.53,26.96z"/>
					<linearGradient id="SVGID_15_" gradientUnits="userSpaceOnUse" x1="22.4829" y1="50.9349" x2="77.6747" y2="50.9349">
						<stop  offset="0" style="stop-color:#FFFFFF"/>
						<stop  offset="1" style="stop-color:#E2ECF5"/>
					</linearGradient>
					<path style="opacity:0.42;fill:url(#SVGID_15_);" d="M77.07,41.12c-0.9,1.26-22.95,22.38-35.49,34.37V63.57
						c6.77-6.08,14.72-13.24,19.89-17.92c10.57-9.56,0.82-4.93-2.7-9.71c-1.39-1.89,0.62-5.67,3.57-9.56h13.78
						c-2.84,2.33-5.36,4.52-6.34,5.69C67.01,35.34,78.33,39.36,77.07,41.12z"/>
				</g>
				<g>
					<polygon class="st677" points="44.61,91.28 44.61,73.84 52.04,63.52 52.04,91.28 					"/>
					<polygon class="st3" points="52.04,91.28 52.04,63.52 59.46,69.45 59.46,91.28 					"/>
					<polygon class="st677" points="59.46,91.28 59.46,69.45 66.88,56.82 66.88,91.28 					"/>
					<polygon class="st3" points="66.88,91.28 66.88,56.82 74.31,60.84 74.31,91.28 					"/>
					<polygon class="st677" points="74.31,91.28 74.31,60.84 81.73,47.62 81.73,91.28 					"/>
				</g>
				<g>
					<polygon class="st3" points="44.75,61.68 44.48,61.49 52,51.04 59.41,56.95 66.82,44.35 74.24,48.37 81.59,35.29 81.87,35.45 
						74.37,48.81 66.94,44.78 59.51,57.44 52.07,51.51 					"/>
				</g>
				<g>
					<path class="st687" d="M50.85,51.27c0-0.65,0.53-1.19,1.18-1.19s1.19,0.53,1.19,1.19c0,0.65-0.53,1.19-1.19,1.19
						S50.85,51.93,50.85,51.27z"/>
					<path class="st681" d="M58.28,57.06c0-0.65,0.53-1.19,1.19-1.19s1.19,0.53,1.19,1.19c0,0.65-0.53,1.18-1.19,1.18
						S58.28,57.71,58.28,57.06z"/>
					<path class="st687" d="M65.7,44.57c0-0.65,0.53-1.19,1.19-1.19c0.65,0,1.18,0.53,1.18,1.19c0,0.65-0.53,1.19-1.18,1.19
						C66.23,45.76,65.7,45.22,65.7,44.57z"/>
					<path class="st687" d="M80.55,35.37c0-0.65,0.53-1.19,1.19-1.19c0.65,0,1.19,0.53,1.19,1.19c0,0.65-0.53,1.18-1.19,1.18
						C81.08,36.55,80.55,36.02,80.55,35.37z"/>
					<path class="st681" d="M73.12,48.48c0-0.65,0.53-1.19,1.18-1.19c0.65,0,1.19,0.53,1.19,1.19s-0.53,1.19-1.19,1.19
						C73.65,49.66,73.12,49.13,73.12,48.48z"/>
					<path class="st681" d="M43.43,61.59c0-0.65,0.53-1.19,1.19-1.19c0.65,0,1.18,0.53,1.18,1.19c0,0.65-0.53,1.18-1.18,1.18
						C43.96,62.77,43.43,62.24,43.43,61.59z"/>
				</g>
				<g>
					<path class="st3" d="M52.99,36.58H43.8c-0.23,0-0.42-0.19-0.42-0.42l0,0c0-0.23,0.19-0.42,0.42-0.42h9.18
						c0.23,0,0.42,0.19,0.42,0.42l0,0C53.4,36.4,53.22,36.58,52.99,36.58z"/>
					<path class="st3" d="M51.42,38.66H43.8c-0.23,0-0.42-0.19-0.42-0.42l0,0c0-0.23,0.19-0.42,0.42-0.42h7.61
						c0.23,0,0.42,0.19,0.42,0.42l0,0C51.83,38.47,51.65,38.66,51.42,38.66z"/>
					<path class="st3" d="M52.99,40.73H43.8c-0.23,0-0.42-0.19-0.42-0.42l0,0c0-0.23,0.19-0.42,0.42-0.42h9.18
						c0.23,0,0.42,0.19,0.42,0.42l0,0C53.4,40.54,53.22,40.73,52.99,40.73z"/>
					<path class="st3" d="M49.44,42.8H43.8c-0.23,0-0.42-0.19-0.42-0.42l0,0c0-0.23,0.19-0.42,0.42-0.42h5.64
						c0.23,0,0.42,0.19,0.42,0.42l0,0C49.86,42.61,49.67,42.8,49.44,42.8z"/>
					<path class="st3" d="M46.13,34.34L46.13,34.34c-1.53,0-2.76-1.24-2.76-2.76l0,0c0-1.53,1.24-2.76,2.76-2.76h0
						c1.53,0,2.76,1.24,2.76,2.76l0,0C48.9,33.1,47.66,34.34,46.13,34.34z"/>
				</g>
			</g>
			<g>
				<path class="st698" d="M98.6,32.83h-2.74c-2.18,0-3.94-1.76-3.94-3.94v0c0-2.18,1.76-3.94,3.94-3.94h2.74
					c2.18,0,3.94,1.76,3.94,3.94v0C102.54,31.07,100.77,32.83,98.6,32.83z"/>
				<path class="st699" d="M99.6,31.8h-2.74c-2.18,0-3.94-1.76-3.94-3.94l0,0c0-2.18,1.76-3.94,3.94-3.94h2.74
					c2.18,0,3.94,1.76,3.94,3.94v0C103.54,30.04,101.77,31.8,99.6,31.8z"/>
				<polygon class="st699" points="98.86,31.55 101.47,31.55 101.47,33.35 				"/>
				<g>
					<path class="st3" d="M96.27,27.9c0,0.33-0.26,0.59-0.59,0.59c-0.33,0-0.59-0.26-0.59-0.59c0-0.33,0.26-0.59,0.59-0.59
						C96.01,27.31,96.27,27.58,96.27,27.9z"/>
					<path class="st3" d="M99.15,27.9c0,0.33-0.26,0.59-0.59,0.59c-0.33,0-0.59-0.26-0.59-0.59c0-0.33,0.26-0.59,0.59-0.59
						C98.88,27.31,99.15,27.58,99.15,27.9z"/>
					<path class="st3" d="M102.03,27.9c0,0.33-0.26,0.59-0.59,0.59c-0.33,0-0.59-0.26-0.59-0.59c0-0.33,0.26-0.59,0.59-0.59
						C101.76,27.31,102.03,27.58,102.03,27.9z"/>
				</g>
			</g>
		</g>
	</g>
	<g>
		<g>
			<polygon class="st685" points="105.54,110.37 102.54,110.37 102.11,104.79 105.1,104.79 			"/>
			<g>
				<path class="st680" d="M96.44,111.32c0,0-0.1-0.17-0.08-0.32c0.02-0.11,5.59-2.72,5.59-2.72l1.59,1.04h2
					c0,0,0.27,0.32,0.39,0.66c0.12,0.34,0.15,1.34,0.15,1.34H96.44z"/>
				<polygon class="st689" points="106.05,111.82 96.68,111.82 96.44,111.32 106.05,111.32 				"/>
			</g>
		</g>
		<g>
			<polygon class="st685" points="116.26,110.37 113.27,110.37 112.83,104.79 115.83,104.79 			"/>
			<g>
				<path class="st680" d="M107.8,111.32c0,0-0.1-0.17-0.08-0.32c0.02-0.11,5.15-2.72,5.15-2.72l1.59,1.04h2
					c0,0,0.27,0.32,0.39,0.66c0.12,0.34,0.15,1.34,0.15,1.34H107.8z"/>
				<polygon class="st689" points="116.97,111.82 108.03,111.82 107.8,111.32 116.97,111.32 				"/>
			</g>
		</g>
		<g>
			<polygon class="st681" points="109.28,65.54 108.77,72.41 108.74,72.69 108.09,78.2 106.56,90.98 105.89,107.79 101.95,107.79 
				99.69,73.17 99.79,72.63 100.94,65.9 			"/>
			<path class="st682" d="M108.09,78.2l-1.52,12.78l-0.67,16.8h-1.5c0.28-4,1.08-15.21,1.43-17.82
				C106.14,87.67,107.41,81.47,108.09,78.2z"/>
			<path class="st681" d="M109.28,65.54l-0.51,6.87c-3.77,0.54-6.86,0.44-8.98,0.22l1.15-6.73L109.28,65.54z"/>
		</g>
		<g>
			<polygon class="st681" points="116.54,107.79 112.67,107.79 106.88,75.84 106.72,72.65 106.4,65.98 115.84,65.19 116.24,70.66 
				116.42,73.16 115.95,90.43 			"/>
			<path class="st681" d="M116.24,70.66c-1.37,0.45-2.94,0.89-4.73,1.27c-1.71,0.36-3.31,0.59-4.78,0.72l-0.32-6.67l9.44-0.79
				L116.24,70.66z"/>
		</g>
		<path class="st685" d="M105.28,45.64c-0.08-1.33-1.7-2.09-3.73-0.2c-2.03,1.89-6.49,6.35-7.36,7.46c-0.87,1.1-0.44,2.55,0.75,3.05
			c1.2,0.51,5.94-2.87,8.19-5.12C105.39,48.57,105.37,47.2,105.28,45.64z"/>
		<path class="st685" d="M95.95,52.24c-1.51-1.88-6.44-6.38-6.81-6.84c-0.37-0.46-1.38-0.21-1.6,0.12c-0.21,0.34-0.4,0.83,0.34,1.9
			c0.74,1.07,5.34,7.7,6.2,8.16c0.86,0.46,1.81,0.64,2.42-0.03S96.57,53,95.95,52.24z"/>
		<path class="st685" d="M89.04,46.13c0.17-0.22,0.4-1.21,0.06-1.92c-0.34-0.71-0.51-1.58-0.57-2.01c-0.06-0.43-0.31-0.42-0.48-0.14
			c-0.17,0.28-0.22,0.71-0.17,1.19c0.05,0.48,0.15,0.57,0.11,0.63c-0.05,0.06-0.45-0.26-0.66-0.6c-0.22-0.34-0.51-1.02-0.54-1.08
			c-0.03-0.06-0.39-1.14-0.48-1.39c-0.09-0.25-0.31-0.34-0.45-0.26c-0.14,0.08-0.06,0.34,0.03,0.77c0.09,0.43,0.48,1.28,0.48,1.28
			s-0.45-0.91-0.62-1.36c-0.17-0.45-0.22-0.62-0.42-0.73c-0.2-0.11-0.4,0.03-0.26,0.46c0.14,0.43,0.29,0.87,0.59,1.45
			c0.29,0.59,0.29,0.59,0.29,0.59s-0.45-0.66-0.79-1.36c-0.34-0.7-0.43-0.77-0.62-0.71c-0.19,0.06,0.02,0.46,0.25,1.08
			c0.23,0.62,0.65,1.36,0.65,1.36s-0.46-0.57-0.68-1.07c-0.22-0.49-0.34-0.62-0.46-0.56c-0.12,0.06-0.15,0.71,0.15,1.33
			c0.31,0.62,0.94,1.67,1.48,2.33c0.54,0.66,0.84,1.15,1.58,1.25C88.31,46.79,88.73,46.51,89.04,46.13z"/>
		<g>
			<path class="st4" d="M104.99,50.39c-0.34,0.39-0.74,0.74-1.17,1.03c-1.84,1.26-5.52,3.87-5.52,3.87s-0.65,0.04-1.42-0.99
				c-0.04-0.06-0.08-0.11-0.12-0.18c-0.82-1.21-1.21-3.05-1.21-3.05s2.81-3.1,4.6-4.75c1.79-1.65,2.9-2.18,3.55-2.21
				c1.56-0.08,2.31,0.22,2.7,2.01C106.68,47.52,106.1,49.14,104.99,50.39z"/>
			<path class="st517" d="M104.99,50.39c-0.34,0.39-0.74,0.74-1.17,1.03c-1.84,1.26-5.52,3.87-5.52,3.87s-0.65,0.04-1.42-0.99
				L104.99,50.39z"/>
		</g>
		<g>
			<path class="st4" d="M116.65,68.55c0,0-3.81,1.09-9.19,1.1c-4.24,0.01-7.78-1.32-7.78-1.32s0.01-0.13,0.03-0.38
				c0.17-2.26,1.05-13.95,1.33-16.88c0.31-3.25,0.37-6.06,2.22-6.86c1.84-0.8,4.45,0.4,5.45,0.51c2.33,0.25,4.23-1.23,6.01-0.09
				c0.67,0.43,1.38,12.87,1.72,19.64C116.58,66.81,116.65,68.55,116.65,68.55z"/>
			<path class="st4" d="M111.71,46.06c0,0.63-1.26,1.13-2.82,1.13s-2.82-0.51-2.82-1.13c0-0.63,1.26-1.13,2.82-1.13
				S111.71,45.43,111.71,46.06z"/>
			<path class="st517" d="M116.65,68.55c0,0-3.81,1.09-9.19,1.1c-4.24,0.01-7.78-1.32-7.78-1.32s0.01-0.13,0.03-0.38
				c0.85,0.06,1.78,0.09,2.79,0.07c6.62-0.08,11.58-2.39,13.94-3.76C116.58,66.81,116.65,68.55,116.65,68.55z"/>
		</g>
		<path class="st685" d="M112.95,50.21c0,0,3.25,9.2,4.3,11.35c1.04,2.15,2.45,2.15,3.25,1.41c0.8-0.74,0.06-5.34-1.1-8.9
			c-1.17-3.56-2.95-10.42-5.65-9.74C111.05,45.01,112.4,48.37,112.95,50.21z"/>
		<g>
			<path class="st4" d="M120.81,56.01c0,0-0.4,0.71-2.42,1.26c-0.28,0.08-0.55,0.13-0.81,0.17c-1.62,0.24-2.78-0.2-2.78-0.2
				s-1.21-3.92-2.05-7c-0.21-0.77-0.39-1.49-0.53-2.09c-0.68-2.95,0.24-3.56,0.87-3.81c1.2-0.49,2.93,0.24,4.28,2.76
				C118.71,49.62,120.81,56.01,120.81,56.01z"/>
			<path class="st517" d="M117.57,57.43c-1.62,0.24-2.78-0.2-2.78-0.2s-1.21-3.92-2.05-7L117.57,57.43z"/>
		</g>
		<path class="st685" d="M111.08,41.71l-0.24,1.28l-0.54,2.86c0,0-0.34,1.05-1.89,0.87c-1-0.12-1-0.77-1-0.77l0.15-1.39l0.22-2.02
			L111.08,41.71z"/>
		<path class="st685" d="M107.26,55.47c0,0,7.92,3.54,10.03,4.42c2.12,0.87,3.51,1.83,3.33,3.02c-0.18,1.2-2.91,1.76-5.63,0.34
			c-2.72-1.43-8.22-5.57-8.77-5.98s-1.04-1.07-0.55-1.64C106.15,55.06,106.71,55.2,107.26,55.47z"/>
		<path class="st685" d="M105.86,56.96c-0.55-0.06-0.77,0.06-1.44-1.04c-0.67-1.1-0.77-2.06-0.89-2.12
			c-0.12-0.06-1.78-0.58-2.06-0.86c-0.28-0.28-0.18-0.44-0.09-0.48c0.09-0.03,1.38,0.41,1.44,0.43c0.06,0.02-1.49-0.75-1.76-0.9
			c-0.28-0.15-0.37-0.64-0.23-0.68c0.14-0.03,2.53,0.95,2.53,0.95s-2.07-1.03-2.35-1.27c-0.28-0.25-0.2-0.66,0.06-0.6
			c0.26,0.06,2.36,1.23,2.36,1.23s-1.76-0.95-1.76-1.32c0-0.37,0.26-0.18,0.72,0.03c0.46,0.21,2.21,0.97,2.58,1.27
			c0.37,0.31,2.29,3.87,2.29,3.87s0.4,0.66-0.06,1.1C106.74,57.02,106.02,56.98,105.86,56.96z"/>
		<path class="st684" d="M111.08,41.71l-0.24,1.28c-0.35,0.46-0.83,0.94-1.5,1.26c-0.66,0.32-1.28,0.4-1.79,0.31l0.22-2.02
			L111.08,41.71z"/>
		<path class="st685" d="M108.69,33.93c-1.46,0.13-2.53,1.84-2.76,4.05c-0.23,2.21,0.18,4.88,1.33,5.2c1.15,0.32,3.27-0.41,4.1-1.43
			c0.83-1.01,1.56-3.18,1.38-5.02C112.55,34.9,110.71,33.75,108.69,33.93z"/>
		<g>
			<path class="st687" d="M113.59,38.9c-0.67,0.78-1.96,1.61-1.96,1.61l0.3-2.07c0,0-0.28-0.08-0.71-0.56
				c-0.63-0.7-0.46-1.42-0.46-1.42s-1.78,0.06-2.8-0.15c-1.55-0.32-2.09-0.87-2.18-1.45c-0.06-0.36,0.07-0.73,0.23-1.06
				c0.21-0.43,1.9-1.32,3.95-0.58c2.05,0.74,1.9,1.23,1.9,1.23s1.33,0.21,1.86,1.13c0.22,0.39,0.35,0.9,0.38,1.43
				C114.14,37.71,113.97,38.45,113.59,38.9z"/>
			<path class="st686" d="M113.59,38.9c-0.67,0.78-1.96,1.61-1.96,1.61l0.3-2.07c0,0-0.28-0.08-0.71-0.56
				c-0.63-0.7-0.46-1.42-0.46-1.42s-1.78,0.06-2.8-0.15c-1.55-0.32-2.09-0.87-2.18-1.45c0.33,0.15,0.76,0.32,1.29,0.5
				c1.78,0.59,2.53,0.53,2.53,0.53s-0.1,0-0.49-0.14c-0.37-0.14-1.16-0.62-1.24-0.67c0.07,0.03,0.69,0.27,1.38,0.43
				c1.04,0.22,2,0.25,2,0.25s0.53,1.04,1.61,1.33c0.68,0.18,1.05,0.04,1.23-0.08C114.14,37.71,113.97,38.45,113.59,38.9z"/>
		</g>
		<path class="st685" d="M111.91,39.34c0,0,0.07-0.76,0.71-0.83s1.22,0.94,0.71,1.82c-0.51,0.87-1.68,0.9-1.77,0.71
			C111.47,40.86,111.91,39.34,111.91,39.34z"/>
		<path class="st684" d="M112.6,38.97c-0.14,0.07-0.32,0.13-0.4,0.5c-0.07,0.32,0.2,0.39,0.26,0.54c0.06,0.16-0.04,0.36-0.16,0.42
			c-0.14,0.06-0.25-0.02-0.25-0.02s0.26,0.31,0.53,0.03c0.27-0.28,0.14-0.41,0-0.56c-0.14-0.15-0.2-0.35-0.06-0.58
			c0.14-0.23,0.41-0.12,0.49-0.01c0.08,0.11,0.06,0.2,0.06,0.2s0.1-0.16-0.02-0.33C112.95,39.02,112.73,38.92,112.6,38.97z"/>
		<g>
			<path class="st687" d="M108.53,37.55c0,0,0.13-0.4,0.7-0.22c0.54,0.16,0.46,0.59,0.46,0.59s-0.08-0.29-0.48-0.41
				C108.73,37.37,108.53,37.55,108.53,37.55z"/>
			<path class="st687" d="M109.25,38.63c-0.05,0.24-0.23,0.41-0.39,0.38c-0.16-0.04-0.25-0.26-0.2-0.5s0.23-0.41,0.39-0.38
				C109.21,38.16,109.3,38.39,109.25,38.63z"/>
		</g>
		<g>
			<path class="st687" d="M107.57,37.32c0,0,0.04-0.39-0.54-0.49c-0.43-0.08-0.63,0.36-0.63,0.36s0.19-0.23,0.6-0.18
				C107.41,37.06,107.57,37.32,107.57,37.32z"/>
			<path class="st687" d="M106.47,38.06c-0.05,0.24,0.04,0.47,0.2,0.5c0.16,0.04,0.34-0.13,0.39-0.38c0.05-0.24-0.04-0.47-0.2-0.5
				C106.7,37.65,106.52,37.82,106.47,38.06z"/>
		</g>
		<path class="st687" d="M107.64,38.85l-0.81,0.92c0,0,0.16,0.18,0.44,0.31c0.28,0.13,0.39,0.15,0.39,0.15l-0.55-0.46L107.64,38.85z
			"/>
		<path class="st3" d="M106.93,40.82l1.63,0.33c0,0-0.49,0.41-1.04,0.29C106.97,41.31,106.93,40.82,106.93,40.82z"/>
	</g>
</g>
</svg>
