<?xml version="1.0" encoding="utf-8"?>
<!-- Generator: Adobe Illustrator 25.3.1, SVG Export Plug-In . SVG Version: 6.00 Build 0)  -->
<svg version="1.1" id="Layer_1" xmlns="http://www.w3.org/2000/svg" xmlns:xlink="http://www.w3.org/1999/xlink" x="0px" y="0px"
	 viewBox="0 0 147.97 111.32" style="enable-background:new 0 0 147.97 111.32;" xml:space="preserve">
<style type="text/css">
	.st0{fill:#24487F;}
	.st1{fill:#8E8E8E;}
	.st2{fill:#FFFFFF;stroke:#8E8E8E;stroke-linecap:round;stroke-miterlimit:10;}
	.st3{fill:#FFFFFF;}
	.st4{fill:#4DB5D1;}
	.st5{fill:#60934D;}
	.st6{fill:#FFFFFF;stroke:#5F934D;stroke-linecap:round;stroke-miterlimit:10;}
	.st7{fill:#23497F;}
	.st8{fill:#FFFFFF;stroke:#23497F;stroke-linecap:round;stroke-miterlimit:10;}
	.st9{fill:url(#SVGID_1_);}
	.st10{fill:url(#SVGID_2_);}
	.st11{fill:url(#SVGID_3_);}
	.st12{fill:url(#SVGID_4_);}
	.st13{fill:#397BBF;}
	.st14{fill:#1466B1;}
	.st15{fill:#054F8C;}
	.st16{fill:url(#SVGID_5_);}
	.st17{fill:#EFA986;}
	.st18{fill:#152B3D;}
	.st19{fill:#62A9DC;}
	.st20{fill:#977332;}
	.st21{fill:#264480;}
	.st22{fill:#363B3D;}
	.st23{fill:#E45354;}
	.st24{fill:#F5F6F6;}
	.st25{fill:#1A5A8D;}
	.st26{fill:#2274B5;}
	.st27{fill:#3A88C8;}
	.st28{fill:#E3F3FC;}
	.st29{fill:#C5CCD1;}
	.st30{fill:#2A2C47;}
	.st31{fill:#E2D2CA;}
	.st32{fill:#434873;}
	.st33{fill:#3B4048;}
	.st34{fill:#323757;}
	.st35{fill:#81A358;}
	.st36{fill:#71A341;}
	.st37{fill:#618A3C;}
	.st38{fill:#87BD43;}
	.st39{fill:#7BA840;}
	.st40{fill:#70A341;}
	.st41{fill:#6A943E;}
	.st42{fill:#B2CF43;}
	.st43{fill:#9FB34D;}
	.st44{fill:url(#SVGID_6_);}
	.st45{filter:url(#Adobe_OpacityMaskFilter);}
	.st46{filter:url(#Adobe_OpacityMaskFilter_1_);}
	.st47{mask:url(#SVGID_7_);fill:url(#SVGID_8_);}
	.st48{fill:url(#SVGID_9_);}
	.st49{fill:#464443;}
	.st50{fill:#928783;}
	.st51{fill:#1D3C55;}
	.st52{fill:#152C3D;}
	.st53{fill:#A77961;}
	.st54{fill:#D8E9F7;}
	.st55{fill:#BFB2AC;}
	.st56{fill:#FED1A2;}
	.st57{fill:#B37953;}
	.st58{fill:#D6995E;}
	.st59{fill:#807167;}
	.st60{fill:#6E6760;}
	.st61{fill:#928880;}
	.st62{fill:#BC8552;}
	.st63{filter:url(#Adobe_OpacityMaskFilter_2_);}
	.st64{filter:url(#Adobe_OpacityMaskFilter_3_);}
	.st65{mask:url(#SVGID_10_);fill:url(#SVGID_11_);}
	.st66{fill:url(#SVGID_12_);}
	.st67{filter:url(#Adobe_OpacityMaskFilter_4_);}
	.st68{filter:url(#Adobe_OpacityMaskFilter_5_);}
	.st69{mask:url(#SVGID_13_);fill:url(#SVGID_14_);}
	.st70{fill:url(#SVGID_15_);}
	.st71{fill:#C3C8E5;}
	.st72{opacity:0.3;}
	.st73{fill:#F4F6FB;}
	.st74{fill:#E8E8F2;}
	.st75{fill:#D7D6E6;}
	.st76{fill:#F3F4F7;}
	.st77{fill:#FCFDFD;}
	.st78{filter:url(#Adobe_OpacityMaskFilter_6_);}
	.st79{mask:url(#SVGID_16_);}
	.st80{fill:#3F54A5;}
	.st81{fill:#A5A7D4;}
	.st82{fill:#B4BBDF;}
	.st83{fill:url(#SVGID_17_);}
	.st84{fill:#CED0E4;}
	.st85{fill:#EDF0F9;}
	.st86{opacity:0.5;fill:#CFD2D3;}
	.st87{opacity:0.5;fill:#A5A7AA;}
	.st88{fill:#332566;}
	.st89{fill:#FAAE42;}
	.st90{fill:#DFDFDE;}
	.st91{fill:#F6C6B1;}
	.st92{fill:#E8B8A9;}
	.st93{fill:#3D4592;}
	.st94{fill:url(#SVGID_18_);}
	.st95{fill:url(#SVGID_19_);}
	.st96{fill:url(#SVGID_20_);}
	.st97{fill:#112F41;}
	.st98{opacity:0.5;fill:#BDBCD8;}
	.st99{opacity:0.2;fill:#ED5B2A;}
	.st100{fill-rule:evenodd;clip-rule:evenodd;fill:#3E55A5;}
	.st101{fill:#2C1C28;}
	.st102{fill:#EE7762;}
	.st103{opacity:0.25;fill:#ED5B2A;}
	.st104{fill:#CD3046;}
	.st105{fill:#282B70;}
	.st106{fill:url(#SVGID_21_);}
	.st107{fill:url(#SVGID_22_);}
	.st108{fill:#212B46;}
	.st109{fill:#D2D2E9;}
	.st110{fill:#8F95CA;}
	.st111{fill:#BDBCD8;}
	.st112{fill:#F2F7F6;}
	.st113{fill:#C9C8DF;}
	.st114{fill:#E3E3EE;}
	.st115{fill:#FAF0F7;}
	.st116{fill:#FFFCFD;}
	.st117{fill:#E4A28B;}
	.st118{opacity:0.05;fill:#010101;}
	.st119{fill:#D9DDEC;}
	.st120{fill:#C6CBE7;}
	.st121{fill:#8A97CC;}
	.st122{fill:#DFE4F3;}
	.st123{fill:#D5A393;}
	.st124{fill:#182540;}
	.st125{fill:url(#SVGID_23_);}
	.st126{fill:#F1A993;}
	.st127{fill:#687094;}
	.st128{fill:#D7DBEF;}
	.st129{fill:#F4F4F8;}
	.st130{fill:#B2B9DE;}
	.st131{fill:#4D60AC;}
	.st132{fill:#8E97CB;}
	.st133{fill:#BCC6E5;}
	.st134{fill:#AAB9DF;}
	.st135{fill:#FFFBFD;}
	.st136{fill:#34479E;}
	.st137{opacity:0.2;}
	.st138{fill:#60848C;}
	.st139{fill:url(#SVGID_24_);}
	.st140{fill:#F36E5C;}
	.st141{fill:#85BEE7;}
	.st142{fill:#908F8F;}
	.st143{fill:#F1F0F0;}
	.st144{fill:url(#SVGID_25_);}
	.st145{fill:#CCCCCC;}
	.st146{fill:#F6F7FB;}
	.st147{fill:#E6E6E5;}
	.st148{fill:#F3F3F3;}
	.st149{fill:#EFF0F7;}
	.st150{fill:url(#SVGID_26_);}
	.st151{fill:url(#SVGID_27_);}
	.st152{fill:url(#SVGID_28_);}
	.st153{fill:url(#SVGID_29_);}
	.st154{fill:url(#SVGID_30_);}
	.st155{fill:url(#SVGID_31_);}
	.st156{fill:#3D426A;}
	.st157{fill:#252840;}
	.st158{fill:#C4B4AF;}
	.st159{fill:#EA4747;}
	.st160{fill:#6B7BBC;}
	.st161{fill:#5266AF;}
	.st162{fill:#5062AD;}
	.st163{fill:#EDDAD3;}
	.st164{fill:#DECDC7;}
	.st165{fill:#E3D1CA;}
	.st166{fill:#B39595;}
	.st167{fill:#DBB8B8;}
	.st168{fill:#F1CCCB;}
	.st169{fill:#323538;}
	.st170{fill:#EFAA88;}
	.st171{fill:#1D2133;}
	.st172{fill:#EFAA87;}
	.st173{fill:#D88A51;}
	.st174{fill:#C68D71;}
	.st175{fill:#A19FA7;}
	.st176{fill:#EAE6F1;}
	.st177{fill:#3B4167;}
	.st178{fill:#DE9674;}
	.st179{fill:#764937;}
	.st180{fill:#5D554E;}
	.st181{fill:#3D4246;}
	.st182{fill:#FFD356;}
	.st183{fill:url(#SVGID_32_);}
	.st184{fill:url(#SVGID_33_);}
	.st185{fill:url(#SVGID_34_);}
	.st186{fill:url(#SVGID_35_);}
	.st187{fill:url(#SVGID_36_);}
	.st188{fill:url(#SVGID_37_);}
	.st189{opacity:0.5;}
	.st190{fill:#FCEACF;}
	.st191{opacity:0.8;}
	.st192{fill:#D4EEF6;}
	.st193{fill:#3AA1C9;}
	.st194{fill:#3F9896;}
	.st195{fill:#7FC6A6;}
	.st196{fill:#DEF2FD;}
	.st197{fill:#223849;}
	.st198{fill:#B4E3F7;}
	.st199{fill:#F89F74;}
	.st200{fill:#E33F3E;}
	.st201{fill:#482B32;}
	.st202{fill:#D8E4F4;}
	.st203{fill:#683E47;}
	.st204{fill:#3788BA;}
	.st205{fill:#22131E;}
	.st206{fill:#FAB59D;}
	.st207{fill:#CC2327;}
	.st208{fill:#E2F3F1;}
	.st209{fill:#F07163;}
	.st210{fill:#49273F;}
	.st211{fill:#4C232E;}
	.st212{fill:#010101;}
	.st213{fill:#F7956E;}
	.st214{fill:#F68D64;}
	.st215{fill:#F27584;}
	.st216{fill:#4EB8D9;}
	.st217{fill:#EF4751;}
	.st218{fill:#ACC7E8;}
	.st219{fill:#268E8D;}
	.st220{fill:#3A1F33;}
	.st221{fill:#FECC87;}
	.st222{fill:#FBB359;}
	.st223{fill:#331A2C;}
	.st224{fill:#FDC886;}
	.st225{fill:#F7934B;}
	.st226{fill:#F04D65;}
	.st227{fill:#F6D6B2;}
	.st228{fill:#61A3C5;}
	.st229{fill:#B1D89B;}
	.st230{fill:#A8C8E5;}
	.st231{fill:#C1D1EC;}
	.st232{fill:#F2AC40;}
	.st233{fill:#3B57A6;}
	.st234{fill:#C2D5EE;}
	.st235{fill:#A9C4E6;}
	.st236{fill:#2D572A;}
	.st237{fill:#274392;}
	.st238{fill:#95B0DB;}
	.st239{fill:#BFBFBF;}
	.st240{fill:#E9F3FB;}
	.st241{fill:#6B81C0;}
	.st242{fill:#8FB1DD;}
	.st243{fill:#F58765;}
	.st244{fill:#2C1913;}
	.st245{fill:#6A3F31;}
	.st246{fill:#F37559;}
	.st247{fill:#F47A55;}
	.st248{fill:#E0B3A8;}
	.st249{fill:#D9D9D9;}
	.st250{fill:#C6DD74;}
	.st251{fill:#9FCB5F;}
	.st252{fill:#7C9D48;}
	.st253{fill:#E7E7E7;}
	.st254{fill:#F2C791;}
	.st255{fill:#B7B7B7;}
	.st256{fill:#7595CD;}
	.st257{fill:#FAB18D;}
	.st258{fill:#F6977C;}
	.st259{fill:#D1E28C;}
	.st260{fill:none;}
	.st261{fill:#1B1B1C;}
	.st262{fill:#F47E46;}
	.st263{fill:#EB6828;}
	.st264{fill:#F79668;}
	.st265{fill:#E6B54E;}
	.st266{fill:#676767;}
	.st267{fill:#4D4C4C;}
	.st268{fill:#F27070;}
	.st269{fill:#C24D4D;}
	.st270{enable-background:new    ;}
	.st271{fill:#C39B6A;}
	.st272{fill:#C9A475;}
	.st273{fill:#E6B880;}
	.st274{fill:#9F3D3E;}
	.st275{fill:#FFD679;}
	.st276{fill:#F4805D;}
	.st277{fill:#DA5958;}
	.st278{fill:#7D3D20;}
	.st279{fill:#562915;}
	.st280{fill:#B15931;}
	.st281{fill:#5076BA;}
	.st282{fill:#59ADC0;}
	.st283{fill:#099895;}
	.st284{fill:#F5AE87;}
	.st285{fill:#D9504F;}
	.st286{fill:#FCC79A;}
	.st287{fill:#FFDC7B;}
	.st288{fill:#F15958;}
	.st289{fill:#674E46;}
	.st290{fill:#785D51;}
	.st291{clip-path:url(#SVGID_39_);fill:#60934D;}
	.st292{clip-path:url(#SVGID_39_);}
	.st293{fill:#BD725F;}
	.st294{fill:#E6F1D1;}
	.st295{fill:#A86046;}
	.st296{fill:#3C251D;}
	.st297{fill:#4A413F;}
	.st298{fill:#716765;}
	.st299{fill:#EEBD7F;}
	.st300{fill:#7DA594;}
	.st301{fill:#252433;}
	.st302{fill:#F7E6C7;}
	.st303{fill:#E79F90;}
	.st304{fill:#CC4A38;}
	.st305{fill:#333333;}
	.st306{fill:#E1755E;}
	.st307{fill:#E8A180;}
	.st308{fill:#694136;}
	.st309{fill:#C06360;}
	.st310{fill:#CD5A5A;}
	.st311{fill:#E17660;}
	.st312{opacity:0.42;}
	.st313{fill-rule:evenodd;clip-rule:evenodd;fill:#B1D89B;}
	.st314{clip-path:url(#SVGID_41_);fill:#92B779;}
	.st315{clip-path:url(#SVGID_43_);fill:url(#SVGID_44_);}
	.st316{fill-rule:evenodd;clip-rule:evenodd;fill:#60934D;}
	.st317{clip-path:url(#SVGID_46_);fill:url(#SVGID_47_);}
	.st318{fill-rule:evenodd;clip-rule:evenodd;fill:#274CA1;}
	.st319{clip-path:url(#SVGID_49_);fill:url(#SVGID_50_);}
	.st320{clip-path:url(#SVGID_52_);fill:url(#SVGID_53_);}
	.st321{fill-rule:evenodd;clip-rule:evenodd;fill:#F3AF8F;}
	.st322{fill-rule:evenodd;clip-rule:evenodd;fill:#6E2D5F;}
	.st323{fill-rule:evenodd;clip-rule:evenodd;fill:#4D1942;}
	.st324{fill-rule:evenodd;clip-rule:evenodd;fill:#101841;}
	.st325{fill-rule:evenodd;clip-rule:evenodd;fill:#144984;}
	.st326{fill-rule:evenodd;clip-rule:evenodd;fill:#35AD82;}
	.st327{fill-rule:evenodd;clip-rule:evenodd;fill:#198C67;}
	.st328{fill-rule:evenodd;clip-rule:evenodd;fill:#F6C1C5;}
	.st329{fill-rule:evenodd;clip-rule:evenodd;fill:#53B9E9;}
	.st330{fill-rule:evenodd;clip-rule:evenodd;fill:#7DD3F7;}
	.st331{clip-path:url(#SVGID_55_);fill:url(#SVGID_56_);}
	.st332{clip-path:url(#SVGID_58_);fill:url(#SVGID_59_);}
	.st333{fill-rule:evenodd;clip-rule:evenodd;fill:#3DB4E8;}
	.st334{clip-path:url(#SVGID_61_);fill:url(#SVGID_62_);}
	.st335{fill-rule:evenodd;clip-rule:evenodd;fill:#F4FBFE;}
	.st336{fill-rule:evenodd;clip-rule:evenodd;fill:#F4B1B1;}
	.st337{fill-rule:evenodd;clip-rule:evenodd;fill:#D4EAD8;}
	.st338{fill-rule:evenodd;clip-rule:evenodd;fill:#E16C6C;}
	.st339{clip-path:url(#SVGID_64_);fill:url(#SVGID_65_);}
	.st340{clip-path:url(#SVGID_67_);fill:url(#SVGID_68_);}
	.st341{clip-path:url(#SVGID_70_);fill:url(#SVGID_71_);}
	.st342{clip-path:url(#SVGID_73_);fill:url(#SVGID_74_);}
	.st343{clip-path:url(#SVGID_76_);fill:url(#SVGID_77_);}
	.st344{fill-rule:evenodd;clip-rule:evenodd;fill:#316CB5;}
	.st345{clip-path:url(#SVGID_79_);fill:url(#SVGID_80_);}
	.st346{fill-rule:evenodd;clip-rule:evenodd;fill:#DF5D7B;}
	.st347{clip-path:url(#SVGID_82_);fill:url(#SVGID_83_);}
	.st348{fill-rule:evenodd;clip-rule:evenodd;fill:#2D572A;}
	.st349{clip-path:url(#SVGID_85_);fill:#60934D;}
	.st350{clip-path:url(#SVGID_87_);fill:url(#SVGID_88_);}
	.st351{clip-path:url(#SVGID_90_);fill:url(#SVGID_91_);}
	.st352{clip-path:url(#SVGID_93_);fill:url(#SVGID_94_);}
	.st353{fill:url(#SVGID_95_);}
	.st354{filter:url(#Adobe_OpacityMaskFilter_7_);}
	.st355{filter:url(#Adobe_OpacityMaskFilter_8_);}
	.st356{mask:url(#SVGID_96_);fill:url(#SVGID_97_);}
	.st357{fill:url(#SVGID_98_);}
	.st358{fill:none;stroke:#FFFFFF;stroke-miterlimit:10;}
	.st359{fill:url(#SVGID_99_);}
	.st360{filter:url(#Adobe_OpacityMaskFilter_9_);}
	.st361{filter:url(#Adobe_OpacityMaskFilter_10_);}
	.st362{mask:url(#SVGID_100_);fill:url(#SVGID_101_);}
	.st363{fill:url(#SVGID_102_);}
	.st364{fill:url(#SVGID_103_);}
	.st365{filter:url(#Adobe_OpacityMaskFilter_11_);}
	.st366{filter:url(#Adobe_OpacityMaskFilter_12_);}
	.st367{mask:url(#SVGID_104_);fill:url(#SVGID_105_);}
	.st368{fill:url(#SVGID_106_);}
	.st369{fill:url(#SVGID_107_);}
	.st370{filter:url(#Adobe_OpacityMaskFilter_13_);}
	.st371{filter:url(#Adobe_OpacityMaskFilter_14_);}
	.st372{mask:url(#SVGID_108_);fill:url(#SVGID_109_);}
	.st373{fill:url(#SVGID_110_);}
	.st374{fill:url(#SVGID_111_);}
	.st375{fill:url(#SVGID_112_);}
	.st376{fill:url(#SVGID_113_);}
	.st377{fill:url(#SVGID_114_);}
	.st378{fill:url(#SVGID_115_);}
	.st379{fill:url(#SVGID_116_);}
	.st380{fill:#FBC5B4;}
	.st381{fill:url(#SVGID_117_);}
	.st382{fill:url(#SVGID_118_);}
	.st383{filter:url(#Adobe_OpacityMaskFilter_15_);}
	.st384{filter:url(#Adobe_OpacityMaskFilter_16_);}
	.st385{mask:url(#SVGID_119_);fill:url(#SVGID_120_);}
	.st386{fill:url(#SVGID_121_);}
	.st387{fill:url(#SVGID_122_);}
	.st388{filter:url(#Adobe_OpacityMaskFilter_17_);}
	.st389{filter:url(#Adobe_OpacityMaskFilter_18_);}
	.st390{mask:url(#SVGID_123_);fill:url(#SVGID_124_);}
	.st391{fill:url(#SVGID_125_);}
	.st392{fill:url(#SVGID_126_);}
	.st393{fill:#F69575;}
	.st394{fill:url(#SVGID_127_);}
	.st395{fill:url(#SVGID_128_);}
	.st396{fill:url(#SVGID_129_);}
	.st397{fill:url(#SVGID_130_);}
	.st398{fill:url(#SVGID_131_);}
	.st399{fill:#F05253;}
	.st400{fill:#ED1C24;}
	.st401{fill:url(#SVGID_132_);}
	.st402{fill:url(#SVGID_133_);}
	.st403{fill:url(#SVGID_134_);}
	.st404{fill:url(#SVGID_135_);}
	.st405{fill:url(#SVGID_136_);}
	.st406{fill:url(#SVGID_137_);}
	.st407{fill:#FDC78D;}
	.st408{fill:#FFD10A;}
	.st409{fill:url(#SVGID_138_);}
	.st410{fill:url(#SVGID_139_);}
	.st411{fill:url(#SVGID_140_);}
	.st412{fill:#6899D1;}
	.st413{fill:#F4F4F4;}
	.st414{fill:#DAEEF6;}
	.st415{fill:url(#SVGID_141_);}
	.st416{fill:#85CEC1;}
	.st417{fill:url(#SVGID_142_);}
	.st418{fill:#F37878;}
	.st419{fill:url(#SVGID_143_);}
	.st420{fill:url(#SVGID_144_);}
	.st421{fill:url(#SVGID_145_);}
	.st422{fill:url(#SVGID_146_);}
	.st423{fill:url(#SVGID_147_);}
	.st424{fill:url(#SVGID_148_);}
	.st425{fill:url(#SVGID_149_);}
	.st426{fill:url(#SVGID_150_);}
	.st427{fill:url(#SVGID_151_);}
	.st428{fill:url(#SVGID_152_);}
	.st429{fill:url(#SVGID_153_);}
	.st430{fill:#F0EFEF;}
	.st431{fill:#DBD7D7;}
	.st432{fill:#63C7D3;}
	.st433{opacity:0.5;fill:#63C7D3;}
	.st434{fill:#E6E7F4;}
	.st435{fill:#23214D;}
	.st436{fill:#283996;}
	.st437{fill:#1B193A;}
	.st438{fill:#F68D63;}
	.st439{fill:#F9A575;}
	.st440{fill:#FEDA04;}
	.st441{fill:#312126;}
	.st442{fill:#F15F4B;}
	.st443{fill:#F15834;}
	.st444{fill:#EC4524;}
	.st445{fill:#F26B76;}
	.st446{fill:#4D5BA9;}
	.st447{fill:#2D327E;}
	.st448{fill:#39469D;}
	.st449{fill:#9AC181;}
	.st450{fill:#7ED0DC;}
	.st451{display:none;}
	.st452{display:inline;fill:#F9A575;}
	.st453{display:inline;}
	.st454{fill:#673A3C;}
	.st455{fill:#794447;}
	.st456{fill:#47222C;}
	.st457{fill:#29275C;}
	.st458{fill:#57B0B9;}
	.st459{fill:#EF434E;}
	.st460{fill:#E24826;}
	.st461{fill:#4754A5;}
	.st462{fill:#B6C153;}
	.st463{fill:#DD4361;}
	.st464{fill:#FBB67B;}
	.st465{fill:#F6EEEA;}
	.st466{fill:#251D1C;}
	.st467{fill:#E0B895;}
	.st468{fill:#DFB793;}
	.st469{fill:#B8A79D;}
	.st470{fill:#9B93C7;}
	.st471{fill:#6A8037;}
	.st472{fill:#E9633E;}
	.st473{fill:#F6936F;}
	.st474{fill:#DBD8EC;}
	.st475{fill:#221A19;}
	.st476{fill:#382621;}
	.st477{fill:#F7EFEC;}
	.st478{fill:#FBB67C;}
	.st479{fill:#70CACA;}
	.st480{fill:#004669;}
	.st481{fill:#33ADA9;}
	.st482{fill:#EE777A;}
	.st483{fill:#C3E8F0;}
	.st484{fill:#C39C44;}
	.st485{fill:#FFE6B0;}
	.st486{fill:#FFCB5D;}
	.st487{fill:#D2EDF5;}
	.st488{fill:none;stroke:#D2EDF5;stroke-width:2.2824;stroke-miterlimit:10;}
	.st489{fill:#0F4672;}
	.st490{fill:#92B779;}
	.st491{fill:#D47C60;}
	.st492{fill:#054A6E;}
	.st493{fill:#2B9996;}
	.st494{fill:#CAE9EB;}
	.st495{fill:#F7A581;}
	.st496{fill:#F18D24;}
	.st497{fill:#CF7929;}
	.st498{fill:#182F40;}
	.st499{fill:#0E1B2D;}
	.st500{fill:#406E34;}
	.st501{fill:#3B83B0;}
	.st502{fill:#3B3F4A;}
	.st503{fill:#242930;}
	.st504{fill:#FBD165;}
	.st505{fill:#FCB017;}
	.st506{fill:#155567;}
	.st507{fill:#236A7E;}
	.st508{fill:#3096B3;}
	.st509{fill:#84D2F6;}
	.st510{fill:#C4E4F8;}
	.st511{fill:#FCB774;}
	.st512{fill:#FAA31B;}
	.st513{fill:#E38D25;}
	.st514{fill:#AADFF3;}
	.st515{fill:#126E84;}
	.st516{fill:#064A56;}
	.st517{fill:#096D84;}
	.st518{fill:#D3CED9;}
	.st519{fill:#D89466;}
	.st520{fill:#FAA61A;}
	.st521{fill:#AA6549;}
	.st522{fill:#B35143;}
	.st523{fill:#3B3E54;}
	.st524{fill:#8A432D;}
	.st525{fill:#4C2F2C;}
	.st526{fill:#3C1C19;}
	.st527{fill:#9889C1;}
	.st528{fill:#CC8759;}
	.st529{fill:#665DA9;}
	.st530{fill:#5C2B20;}
	.st531{fill:#F4F5F0;}
	.st532{fill:#E04A95;}
	.st533{fill:#BC6944;}
	.st534{fill:#673021;}
	.st535{fill:#C4C2DF;}
	.st536{fill:#342B29;}
	.st537{fill:#E69F6F;}
	.st538{fill:#F173AC;}
	.st539{fill:#FAA43A;}
	.st540{fill:#F7F7FA;}
	.st541{fill:#3F4076;}
	.st542{fill:#5CA4DA;}
	.st543{fill:#BBD071;}
	.st544{fill:#97A33B;}
	.st545{fill:#49763A;}
	.st546{fill:#E5F2FC;}
	.st547{opacity:0.85;}
	.st548{fill:#4692CF;}
	.st549{fill:#0E2D3D;}
	.st550{fill:#5478B4;}
	.st551{fill:#5B83C3;}
	.st552{fill:#304664;}
	.st553{fill:#364D71;}
	.st554{fill:#2C3B57;}
	.st555{fill:#D5D8E8;}
	.st556{opacity:0.82;}
	.st557{fill:#418ECC;}
	.st558{fill:#173342;}
	.st559{fill:#295274;}
	.st560{fill:#F47D58;}
	.st561{fill:#183C59;}
	.st562{fill:#616262;}
	.st563{fill:#E0CFC8;}
	.st564{fill:#64A8DC;}
	.st565{opacity:0.66;}
	.st566{fill:#CBE1F5;}
	.st567{fill:#8CB6E1;}
	.st568{fill:#B5D3EF;}
	.st569{fill:#B8D8F2;}
	.st570{fill:#92B4DF;}
	.st571{fill:#BBDDDE;}
	.st572{fill:#D1ECED;}
	.st573{fill:#C8CBE2;}
	.st574{fill:#669AD2;}
	.st575{fill:#4D84C5;}
	.st576{fill:#181C4D;}
	.st577{fill:#EFBBBB;}
	.st578{fill:#F9CBCB;}
	.st579{fill:#2B3874;}
	.st580{fill:#EBAEAD;}
	.st581{fill:#21295D;}
	.st582{fill:#31344D;}
	.st583{fill:#FCD4D1;}
	.st584{fill:#B95050;}
	.st585{fill:#FEE9E2;}
	.st586{fill:#181A2E;}
	.st587{fill:#EB9B9C;}
	.st588{fill:#F9B7B3;}
	.st589{fill:#444C86;}
	.st590{fill:#2B3367;}
	.st591{fill:#93BAE3;}
	.st592{fill:#4B80C1;}
	.st593{fill:#396CAD;}
	.st594{fill:#C0D9F1;}
	.st595{fill:#F9B4AF;}
	.st596{fill:#4E88C7;}
	.st597{fill:#195595;}
	.st598{fill:#D9475A;}
	.st599{fill:#1172BA;}
	.st600{fill:#247BBC;}
	.st601{fill:#FAA71F;}
	.st602{fill:#D55127;}
	.st603{fill:none;stroke:#212F57;stroke-width:0.925;stroke-miterlimit:10;}
	.st604{fill:#212F57;}
	.st605{opacity:0.5;fill:#838DC5;}
	.st606{fill:#F2C7BD;}
	.st607{fill:none;stroke:#212F57;stroke-width:1.2665;stroke-linecap:round;stroke-linejoin:round;stroke-miterlimit:10;}
	.st608{fill:#272A41;}
	.st609{fill:none;stroke:#E8B1C3;stroke-width:2.5241;stroke-miterlimit:10;}
	.st610{fill:#5160A5;}
	.st611{opacity:0.5;fill:#D55127;}
	.st612{opacity:0.5;fill:#DA8727;}
	.st613{opacity:0.7;}
	.st614{fill:#DA8727;}
	.st615{fill:#A3BDE3;}
	.st616{fill:#1B7A84;}
	.st617{fill:#B1D2EF;}
	.st618{fill:#F8ACAD;}
	.st619{opacity:0.63;}
	.st620{clip-path:url(#SVGID_155_);}
	.st621{fill:#D7E7F6;}
	.st622{clip-path:url(#SVGID_157_);}
	.st623{clip-path:url(#SVGID_159_);}
	.st624{clip-path:url(#SVGID_161_);}
	.st625{clip-path:url(#SVGID_163_);}
	.st626{clip-path:url(#SVGID_165_);}
	.st627{clip-path:url(#SVGID_167_);}
	.st628{clip-path:url(#SVGID_169_);}
	.st629{clip-path:url(#SVGID_171_);}
	.st630{clip-path:url(#SVGID_173_);}
	.st631{clip-path:url(#SVGID_175_);}
	.st632{clip-path:url(#SVGID_177_);}
	.st633{clip-path:url(#SVGID_179_);}
	.st634{clip-path:url(#SVGID_181_);}
	.st635{clip-path:url(#SVGID_183_);}
	.st636{clip-path:url(#SVGID_185_);}
	.st637{clip-path:url(#SVGID_187_);}
	.st638{clip-path:url(#SVGID_189_);}
	.st639{clip-path:url(#SVGID_191_);}
	.st640{clip-path:url(#SVGID_193_);}
	.st641{clip-path:url(#SVGID_195_);}
	.st642{fill:#89B2DF;}
	.st643{fill:#4377BC;}
	.st644{fill:#DA6566;}
	.st645{fill:#F58E92;}
	.st646{fill-rule:evenodd;clip-rule:evenodd;fill:#4DB5D1;}
	.st647{fill:#F15C60;}
	.st648{fill:#FFD574;}
	.st649{fill:#F2B892;}
	.st650{fill:#EB836C;}
	.st651{fill:url(#SVGID_196_);}
	.st652{fill:#222C55;}
	.st653{fill:#4551A3;}
	.st654{fill:url(#SVGID_197_);}
	.st655{fill:#0B3C5F;}
	.st656{fill:#F8A187;}
	.st657{fill:#F4B68F;}
	.st658{fill:#232850;}
	.st659{fill:#306D9E;}
	.st660{fill:#255981;}
	.st661{fill:#F69E83;}
	.st662{fill:#0B3D60;}
	.st663{opacity:0.45;fill:#89B2DF;}
	.st664{filter:url(#Adobe_OpacityMaskFilter_19_);}
	.st665{filter:url(#Adobe_OpacityMaskFilter_20_);}
	.st666{mask:url(#SVGID_198_);fill:url(#SVGID_199_);}
	.st667{opacity:0.33;fill:#AADFF3;}
	.st668{filter:url(#Adobe_OpacityMaskFilter_21_);}
	.st669{filter:url(#Adobe_OpacityMaskFilter_22_);}
	.st670{mask:url(#SVGID_200_);fill:url(#SVGID_201_);}
	.st671{filter:url(#Adobe_OpacityMaskFilter_23_);}
	.st672{filter:url(#Adobe_OpacityMaskFilter_24_);}
	.st673{mask:url(#SVGID_202_);fill:url(#SVGID_203_);}
	.st674{fill:#CFD8EE;}
	.st675{fill:#E3E6F4;}
	.st676{fill:#ABBADF;}
	.st677{fill:#C3CCE8;}
	.st678{fill:url(#SVGID_204_);}
	.st679{fill:url(#SVGID_205_);}
	.st680{fill:#D3D0E9;}
	.st681{fill:#078BBF;}
	.st682{fill:#057B97;}
	.st683{fill:url(#SVGID_206_);}
	.st684{fill:#C74534;}
	.st685{fill:#F27B66;}
	.st686{fill:#58449B;}
	.st687{fill:#6B52A2;}
	.st688{fill:#A9A6D2;}
	.st689{fill:#C4C0E0;}
	.st690{opacity:0.33;}
	.st691{opacity:0.23;fill:url(#SVGID_207_);}
	.st692{opacity:0.36;fill:url(#SVGID_208_);}
	.st693{opacity:0.36;fill:url(#SVGID_209_);}
	.st694{opacity:0.23;fill:url(#SVGID_210_);}
	.st695{fill:#D8E0F2;}
	.st696{opacity:0.36;fill:url(#SVGID_211_);}
	.st697{opacity:0.42;fill:url(#SVGID_212_);}
	.st698{fill:#F6F9FD;}
	.st699{fill:#049AC9;}
	.st700{fill:#E0E0E0;}
	.st701{fill:#EBEBEB;}
	.st702{fill:none;stroke:#F2A59D;stroke-width:0.05;stroke-miterlimit:10;}
	.st703{fill:#FAFBFB;}
	.st704{fill:#E7515B;}
	.st705{fill:#CFCFCE;}
	.st706{fill:#FBBD9D;}
	.st707{fill:#EC996F;}
	.st708{opacity:0.6;fill:#FFFFFF;}
	.st709{opacity:0.6;}
	.st710{fill:#263238;}
	.st711{fill:#455B64;}
	.st712{fill:none;stroke:#43494E;stroke-miterlimit:10;}
	.st713{fill:#F5F5F5;}
	.st714{fill:#F3725F;}
	.st715{opacity:0;}
	.st716{clip-path:url(#SVGID_214_);}
	.st717{fill:#C9D8EF;}
	.st718{clip-path:url(#SVGID_216_);}
	.st719{clip-path:url(#SVGID_218_);}
	.st720{clip-path:url(#SVGID_220_);}
	.st721{clip-path:url(#SVGID_222_);}
	.st722{clip-path:url(#SVGID_224_);}
	.st723{clip-path:url(#SVGID_226_);}
	.st724{clip-path:url(#SVGID_228_);}
	.st725{clip-path:url(#SVGID_230_);}
	.st726{clip-path:url(#SVGID_232_);}
	.st727{clip-path:url(#SVGID_234_);}
	.st728{clip-path:url(#SVGID_236_);}
	.st729{clip-path:url(#SVGID_238_);}
	.st730{clip-path:url(#SVGID_240_);}
	.st731{clip-path:url(#SVGID_242_);}
	.st732{clip-path:url(#SVGID_244_);}
	.st733{clip-path:url(#SVGID_246_);}
	.st734{clip-path:url(#SVGID_248_);}
	.st735{clip-path:url(#SVGID_250_);}
	.st736{clip-path:url(#SVGID_252_);}
	.st737{clip-path:url(#SVGID_254_);}
	.st738{fill:#59595B;}
	.st739{fill:#EDF7F7;}
	.st740{fill:#FDD247;}
	.st741{fill:#1D2040;}
	.st742{fill:url(#SVGID_255_);}
	.st743{fill:#F89A45;}
	.st744{fill:#4F2E1F;}
	.st745{fill:#AEADAD;}
	.st746{fill:#3C2116;}
	.st747{fill:#76696D;}
	.st748{fill:#DFB0B4;}
	.st749{fill:#0E4363;}
	.st750{fill:#F8F6F1;}
	.st751{fill:#A4BAE1;}
	.st752{fill:#4D1F38;}
	.st753{fill:#3A1528;}
	.st754{fill:#746875;}
	.st755{fill:#DAADD1;}
	.st756{fill:url(#SVGID_256_);}
	.st757{fill:#CD3570;}
	.st758{fill:url(#SVGID_257_);}
	.st759{fill:url(#SVGID_258_);}
	.st760{fill:#A09F9F;}
	.st761{fill:none;stroke:#FFFFFF;stroke-linecap:round;stroke-miterlimit:10;}
	.st762{fill:none;stroke:#FFFFFF;stroke-linecap:round;stroke-linejoin:round;stroke-miterlimit:10;}
	.st763{fill:none;stroke:#A09F9F;stroke-miterlimit:10;}
	.st764{fill:#7B553A;}
	.st765{fill:#5F422D;}
	.st766{fill:#FDB839;}
	.st767{fill:#401B0F;}
	.st768{fill:#034B4E;}
	.st769{opacity:0.36;}
	.st770{opacity:0.1;fill:#CFCFCE;}
	.st771{opacity:0.15;}
	.st772{fill:#FBB781;}
	.st773{fill:#49A8D5;}
	.st774{fill:#077679;}
	.st775{opacity:0.1;}
	.st776{fill:#BEE0C0;}
	.st777{opacity:0.23;fill:#245C74;}
	.st778{fill:#245C74;}
	.st779{fill:#FCC69B;}
	.st780{fill:#DBA285;}
	.st781{fill:#757576;}
	.st782{fill:#ABABAA;}
	.st783{fill:#6F6F71;}
	.st784{fill:#FFCA70;}
	.st785{fill:#FAA325;}
	.st786{fill:none;stroke:#077679;stroke-width:0.25;stroke-linecap:round;stroke-linejoin:round;stroke-miterlimit:10;}
	.st787{fill:#963A20;}
	.st788{fill:#E2E2E2;}
	.st789{fill:#18184B;}
	.st790{fill:#F8B6C9;}
	.st791{fill:#F58531;}
	.st792{fill:#759CD2;}
	.st793{fill:#BACFEB;}
</style>
<g>
	<g>
		<g>
			<g>
				<g>
					<g>
						<g>
							<path class="st514" d="M35.03,110.57l-11.66-0.14C12.83,110.3-6.57,84.37,2.23,58.34C9.99,35.39,29.95,24.3,49.02,22.97
								C72.28,21.34,74.39-2.46,99.96,0.21c11.95,1.25,31.95,11.03,41.52,31.68c6.26,13.5,11.77,34.46-2.53,64.89
								c-3.84,8.18-11.57,13.34-20.03,13.38L35.03,110.57z"/>
						</g>
					</g>
				</g>
			</g>
		</g>
	</g>
	<g class="st191">
		<g>
			<g>
				<circle class="st19" cx="93.91" cy="26.07" r="21.21"/>
			</g>
		</g>
		<g>
			<g>
				<circle class="st3" cx="93.91" cy="26.07" r="19.17"/>
			</g>
		</g>
		<g>
			<g>
				<path class="st19" d="M106.94,17.78c-12.86,4.52-13.03,8.39-13.03,8.39C98.75,27.21,106.94,17.78,106.94,17.78z"/>
			</g>
		</g>
		<g>
			<g>
				<path class="st19" d="M86.67,18.68c0,0,7.42,4.95,7.11,8.47C93.78,27.16,91.03,27.39,86.67,18.68z"/>
			</g>
		</g>
		<g>
			<g>
				<path class="st21" d="M94.59,26.99c0.46-0.38,0.53-1.05,0.15-1.51c-0.38-0.46-1.05-0.53-1.51-0.15
					c-0.46,0.38-0.53,1.05-0.15,1.51C93.46,27.3,94.13,27.37,94.59,26.99z"/>
			</g>
		</g>
		<g>
			<g>
				<rect x="93.74" y="6.9" class="st21" width="0.35" height="4.22"/>
			</g>
		</g>
		<g>
			<g>
				<rect x="93.74" y="41.02" class="st21" width="0.35" height="4.22"/>
			</g>
		</g>
		<g>
			<g>
				<rect x="108.86" y="25.9" class="st21" width="4.22" height="0.35"/>
			</g>
		</g>
		<g>
			<g>
				<rect x="74.74" y="25.9" class="st21" width="4.22" height="0.35"/>
			</g>
		</g>
		<g>
			<g>
				
					<rect x="105.67" y="13.09" transform="matrix(0.7071 -0.7071 0.7071 0.7071 21.8813 79.3471)" class="st21" width="2.11" height="0.35"/>
			</g>
		</g>
		<g>
			<g>
				
					<rect x="80.04" y="38.71" transform="matrix(0.7071 -0.7071 0.7071 0.7071 -3.7393 68.7349)" class="st21" width="2.11" height="0.35"/>
			</g>
		</g>
		<g>
			<g>
				
					<rect x="100.18" y="41.95" transform="matrix(0.9345 -0.356 0.356 0.9345 -8.7334 38.5401)" class="st21" width="0.35" height="2.11"/>
			</g>
		</g>
		<g>
			<g>
				
					<rect x="87.29" y="8.08" transform="matrix(0.9345 -0.356 0.356 0.9345 2.4753 31.7322)" class="st21" width="0.35" height="2.11"/>
			</g>
		</g>
		<g>
			<g>
				
					<rect x="85.44" y="42.43" transform="matrix(0.4092 -0.9125 0.9125 0.4092 12.2327 104.095)" class="st21" width="2.11" height="0.35"/>
			</g>
		</g>
		<g>
			<g>
				
					<rect x="100.27" y="9.37" transform="matrix(0.4092 -0.9124 0.9124 0.4092 51.1585 98.0893)" class="st21" width="2.11" height="0.35"/>
			</g>
		</g>
		<g>
			<g>
				
					<rect x="75.92" y="32.34" transform="matrix(0.9345 -0.3559 0.3559 0.9345 -6.5327 29.5245)" class="st21" width="2.11" height="0.35"/>
			</g>
		</g>
		<g>
			<g>
				
					<rect x="109.79" y="19.45" transform="matrix(0.9345 -0.3559 0.3559 0.9345 0.273 40.7307)" class="st21" width="2.11" height="0.35"/>
			</g>
		</g>
		<g>
			<g>
				
					<rect x="77.21" y="17.6" transform="matrix(0.4093 -0.9124 0.9124 0.4093 28.6849 81.6229)" class="st21" width="0.35" height="2.11"/>
			</g>
		</g>
		<g>
			<g>
				
					<rect x="110.27" y="32.43" transform="matrix(0.4092 -0.9125 0.9125 0.4092 34.6986 120.5554)" class="st21" width="0.35" height="2.11"/>
			</g>
		</g>
		<g>
			<g>
				
					<rect x="81.14" y="11.99" transform="matrix(0.7188 -0.6952 0.6952 0.7188 13.796 60.2038)" class="st21" width="0.35" height="2.11"/>
			</g>
		</g>
		<g>
			<g>
				
					<rect x="106.33" y="38.04" transform="matrix(0.7188 -0.6953 0.6953 0.7188 2.7745 85.0442)" class="st21" width="0.35" height="2.11"/>
			</g>
		</g>
	</g>
	<g>
		<g>
			<g>
				<g>
					<g>
						<g>
							<g>
								<g>
									<path class="st194" d="M122.02,36.71c0,0,3.67-6.06,12.47-4.49C134.49,32.22,128.57,41,122.02,36.71z"/>
								</g>
							</g>
						</g>
					</g>
				</g>
			</g>
		</g>
		<g>
			<g>
				<g>
					<g>
						<g>
							<g>
								<g>
									<path class="st195" d="M116.29,38.31c0,0,1.09-12.16,15.9-16.37C132.19,21.94,129.66,40.01,116.29,38.31z"/>
								</g>
							</g>
						</g>
					</g>
				</g>
			</g>
		</g>
	</g>
	<g>
		<g>
			<rect x="23.55" y="33.7" class="st196" width="101.84" height="75.29"/>
		</g>
		<g>
			<g>
				<g>
					<g>
						<path class="st197" d="M127.19,106.38V36.72c0-2.45-1.99-4.44-4.44-4.44h-98.9c-2.45,0-4.44,1.99-4.44,4.44v69.66
							c0,2.45,1.99,4.44,4.44,4.44h98.9C125.2,110.82,127.19,108.83,127.19,106.38z M29.23,108.99c-1.33,0-2.41-1.08-2.41-2.41
							V36.52c0-1.33,1.08-2.41,2.41-2.41h93.47c1.49,0,2.69,1.2,2.69,2.69v69.5c0,1.49-1.2,2.69-2.69,2.69H29.23z"/>
					</g>
				</g>
			</g>
		</g>
	</g>
	<g>
		<g>
			<path class="st3" d="M95.43,90.89H56.78c-15.03,0-27.21-12.18-27.21-27.21v0c0-15.03,12.18-27.21,27.21-27.21h38.65
				c15.03,0,27.22,12.18,27.22,27.21v0C122.64,78.7,110.46,90.89,95.43,90.89z"/>
		</g>
	</g>
	<g>
		<g>
			<g>
				<path class="st198" d="M43.61,47.96H32.5v-6.75h11.11V47.96z M32.89,47.57h10.33v-5.96H32.89V47.57z"/>
			</g>
		</g>
		<g>
			<g>
				<path class="st198" d="M56.3,47.96H45.18v-6.75H56.3V47.96z M45.57,47.57h10.33v-5.96H45.57V47.57z"/>
			</g>
		</g>
		<g>
			<g>
				<rect x="58.06" y="41.41" class="st198" width="10.72" height="6.35"/>
			</g>
		</g>
		<g>
			<g>
				<rect x="70.74" y="41.41" class="st198" width="10.72" height="6.35"/>
			</g>
		</g>
		<g>
			<g>
				<rect x="83.42" y="41.41" class="st198" width="10.72" height="6.35"/>
			</g>
		</g>
		<g>
			<g>
				<rect x="96.11" y="41.41" class="st198" width="10.72" height="6.35"/>
			</g>
		</g>
		<g>
			<g>
				<rect x="108.79" y="41.41" class="st198" width="10.72" height="6.35"/>
			</g>
		</g>
	</g>
	<g>
		<g>
			<g>
				<rect x="32.7" y="49.74" class="st198" width="10.72" height="6.35"/>
			</g>
		</g>
		<g>
			<g>
				<rect x="45.38" y="49.74" class="st198" width="10.72" height="6.35"/>
			</g>
		</g>
		<g>
			<g>
				<rect x="58.06" y="49.74" class="st198" width="10.72" height="6.35"/>
			</g>
		</g>
		<g>
			<g>
				<rect x="70.74" y="49.74" class="st198" width="10.72" height="6.35"/>
			</g>
		</g>
		<g>
			<g>
				<rect x="83.42" y="49.74" class="st198" width="10.72" height="6.35"/>
			</g>
		</g>
		<g>
			<g>
				<rect x="96.11" y="49.74" class="st198" width="10.72" height="6.35"/>
			</g>
		</g>
		<g>
			<g>
				<rect x="108.79" y="49.74" class="st198" width="10.72" height="6.35"/>
			</g>
		</g>
	</g>
	<g>
		<g>
			<g>
				<rect x="32.7" y="58.06" class="st198" width="10.72" height="6.35"/>
			</g>
		</g>
		<g>
			<g>
				<rect x="45.38" y="58.06" class="st198" width="10.72" height="6.35"/>
			</g>
		</g>
		<g>
			<g>
				<rect x="58.06" y="58.06" class="st198" width="10.72" height="6.35"/>
			</g>
		</g>
		<g>
			<g>
				<rect x="70.74" y="58.06" class="st198" width="10.72" height="6.35"/>
			</g>
		</g>
		<g>
			<g>
				<rect x="83.42" y="58.06" class="st198" width="10.72" height="6.35"/>
			</g>
		</g>
		<g>
			<g>
				<rect x="96.11" y="58.06" class="st198" width="10.72" height="6.35"/>
			</g>
		</g>
		<g>
			<g>
				<rect x="108.79" y="58.06" class="st198" width="10.72" height="6.35"/>
			</g>
		</g>
	</g>
	<g>
		<g>
			<g>
				<rect x="32.7" y="66.38" class="st198" width="10.72" height="6.35"/>
			</g>
		</g>
		<g>
			<g>
				<rect x="45.38" y="66.38" class="st198" width="10.72" height="6.35"/>
			</g>
		</g>
		<g>
			<g>
				<rect x="58.06" y="66.38" class="st198" width="10.72" height="6.35"/>
			</g>
		</g>
		<g>
			<g>
				<rect x="70.74" y="66.38" class="st198" width="10.72" height="6.35"/>
			</g>
		</g>
		<g>
			<g>
				<rect x="83.42" y="66.38" class="st198" width="10.72" height="6.35"/>
			</g>
		</g>
		<g>
			<g>
				<rect x="96.11" y="66.38" class="st198" width="10.72" height="6.35"/>
			</g>
		</g>
		<g>
			<g>
				<rect x="108.79" y="66.38" class="st198" width="10.72" height="6.35"/>
			</g>
		</g>
	</g>
	<g>
		<g>
			<g>
				<rect x="32.7" y="74.7" class="st198" width="10.72" height="6.35"/>
			</g>
		</g>
		<g>
			<g>
				<rect x="45.38" y="74.7" class="st198" width="10.72" height="6.35"/>
			</g>
		</g>
		<g>
			<g>
				<rect x="58.06" y="74.7" class="st198" width="10.72" height="6.35"/>
			</g>
		</g>
		<g>
			<g>
				<rect x="70.74" y="74.7" class="st198" width="10.72" height="6.35"/>
			</g>
		</g>
		<g>
			<g>
				<path class="st198" d="M94.34,81.25H83.23V74.5h11.11V81.25z M83.62,80.86h10.33v-5.96H83.62V80.86z"/>
			</g>
		</g>
		<g>
			<g>
				<path class="st198" d="M107.02,81.25H95.91V74.5h11.11V81.25z M96.3,80.86h10.33v-5.96H96.3V80.86z"/>
			</g>
		</g>
		<g>
			<g>
				<path class="st198" d="M119.71,81.25h-11.11V74.5h11.11V81.25z M108.98,80.86h10.33v-5.96h-10.33V80.86z"/>
			</g>
		</g>
	</g>
	<g>
		<g>
			<g>
				<g>
					<path class="st193" d="M63.17,71.54l-3.15-4.69c-0.07-0.11-0.04-0.25,0.06-0.33c0.11-0.07,0.25-0.04,0.33,0.06l2.65,3.95
						l3.37-8.61c0.05-0.12,0.18-0.18,0.3-0.13c0.12,0.05,0.18,0.18,0.13,0.3L63.17,71.54z"/>
				</g>
			</g>
		</g>
	</g>
	<g>
		<g>
			<g>
				<g>
					<path class="st193" d="M75.84,54.97l-3.15-4.69c-0.07-0.11-0.04-0.25,0.06-0.33c0.11-0.07,0.25-0.04,0.33,0.06l2.65,3.95
						l3.37-8.61c0.05-0.12,0.18-0.18,0.3-0.13c0.12,0.05,0.18,0.18,0.13,0.3L75.84,54.97z"/>
				</g>
			</g>
		</g>
	</g>
	<g>
		<g>
			<g>
				<g>
					<path class="st193" d="M39.86,78.67l-3.15-4.69c-0.07-0.11-0.04-0.25,0.06-0.33c0.11-0.07,0.25-0.04,0.33,0.06l2.65,3.95
						l3.37-8.61c0.05-0.12,0.18-0.18,0.3-0.13c0.12,0.05,0.18,0.18,0.13,0.3L39.86,78.67z"/>
				</g>
			</g>
		</g>
	</g>
	<g>
		<g>
			<g>
				<g>
					<path class="st193" d="M63.61,60.98l-3.15-4.69c-0.07-0.11-0.04-0.25,0.06-0.33c0.11-0.07,0.25-0.04,0.33,0.06l2.65,3.95
						l3.37-8.61c0.05-0.12,0.18-0.18,0.3-0.13c0.12,0.05,0.18,0.18,0.13,0.3L63.61,60.98z"/>
				</g>
			</g>
		</g>
	</g>
	<g>
		<g>
			<g>
				<g>
					<path class="st193" d="M38.79,54.62l-3.15-4.69c-0.07-0.11-0.04-0.25,0.06-0.33c0.11-0.07,0.25-0.04,0.33,0.06l2.65,3.95
						L42.05,45c0.05-0.12,0.18-0.18,0.3-0.13c0.12,0.05,0.18,0.18,0.13,0.3L38.79,54.62z"/>
				</g>
			</g>
		</g>
	</g>
	<g>
		<g>
			<path class="st3" d="M62.24,104.71H34.79c-2.89,0-5.23-2.34-5.23-5.23l0,0c0-2.89,2.34-5.23,5.23-5.23h27.44
				c2.89,0,5.23,2.34,5.23,5.23l0,0C67.47,102.37,65.13,104.71,62.24,104.71z"/>
		</g>
	</g>
	<g>
		<g>
			<g>
				<path class="st198" d="M60.49,97.03c-1.43,0-2.59,1.16-2.59,2.59c0,1.43,1.16,2.59,2.59,2.59c1.43,0,2.59-1.16,2.59-2.59
					C63.08,98.19,61.92,97.03,60.49,97.03z M60.49,101.83c-1.22,0-2.21-0.99-2.21-2.21c0-1.22,0.99-2.21,2.21-2.21
					c1.22,0,2.21,0.99,2.21,2.21C62.7,100.84,61.71,101.83,60.49,101.83z"/>
			</g>
		</g>
		<g>
			<g>
				<g>
					<path class="st198" d="M61.92,99.78h-1.66v-1.77c0-0.06,0.05-0.11,0.11-0.11s0.11,0.05,0.11,0.11v1.56h1.45
						c0.06,0,0.11,0.05,0.11,0.11S61.98,99.78,61.92,99.78z"/>
				</g>
			</g>
		</g>
	</g>
	<g>
		<g>
			<path class="st198" d="M54.11,98.65H34.26c-0.22,0-0.4-0.18-0.4-0.4l0,0c0-0.22,0.18-0.4,0.4-0.4h19.85c0.22,0,0.4,0.18,0.4,0.4
				l0,0C54.51,98.47,54.33,98.65,54.11,98.65z"/>
		</g>
	</g>
	<g>
		<g>
			<path class="st198" d="M54.11,101.11H34.26c-0.22,0-0.4-0.18-0.4-0.4l0,0c0-0.22,0.18-0.4,0.4-0.4h19.85c0.22,0,0.4,0.18,0.4,0.4
				v0C54.51,100.94,54.33,101.11,54.11,101.11z"/>
		</g>
	</g>
	<g>
		<g>
			<g>
				<g>
					<path class="st198" d="M34.71,102.95c0,0.24-0.19,0.43-0.43,0.43c-0.23,0-0.43-0.19-0.43-0.43s0.19-0.43,0.43-0.43
						C34.52,102.53,34.71,102.72,34.71,102.95z"/>
				</g>
			</g>
		</g>
		<g>
			<g>
				<g>
					<path class="st198" d="M36.03,102.95c0,0.24-0.19,0.43-0.43,0.43s-0.43-0.19-0.43-0.43s0.19-0.43,0.43-0.43
						S36.03,102.72,36.03,102.95z"/>
				</g>
			</g>
		</g>
		<g>
			<g>
				<g>
					<path class="st198" d="M37.34,102.95c0,0.24-0.19,0.43-0.43,0.43c-0.23,0-0.43-0.19-0.43-0.43s0.19-0.43,0.43-0.43
						C37.15,102.53,37.34,102.72,37.34,102.95z"/>
				</g>
			</g>
		</g>
	</g>
	<g>
		<g>
			<g>
				<g>
					<path class="st198" d="M95.15,102.43h-23.8c-0.15,0-0.27-0.12-0.27-0.27l0,0c0-0.15,0.12-0.27,0.27-0.27h23.8
						c0.15,0,0.27,0.12,0.27,0.27l0,0C95.42,102.31,95.3,102.43,95.15,102.43z"/>
				</g>
			</g>
			<g>
				<g>
					<path class="st198" d="M95.15,104.71h-23.8c-0.15,0-0.27-0.12-0.27-0.27l0,0c0-0.15,0.12-0.27,0.27-0.27h23.8
						c0.15,0,0.27,0.12,0.27,0.27l0,0C95.42,104.59,95.3,104.71,95.15,104.71z"/>
				</g>
			</g>
		</g>
		<g>
			<g>
				<g>
					<path class="st198" d="M71.04,97.24c0-0.96,0.18-1.69,0.53-2.21c0.35-0.52,0.85-0.77,1.49-0.77c0.65,0,1.14,0.26,1.49,0.77
						c0.35,0.51,0.52,1.25,0.52,2.21c0,0.95-0.17,1.69-0.52,2.21c-0.35,0.52-0.85,0.78-1.49,0.78s-1.14-0.26-1.49-0.78
						C71.21,98.93,71.04,98.19,71.04,97.24z M71.51,97.25c0,0.82,0.13,1.45,0.39,1.88c0.26,0.44,0.64,0.66,1.13,0.66
						c0.49,0,0.87-0.22,1.13-0.66c0.26-0.44,0.39-1.07,0.39-1.88c0-0.82-0.13-1.45-0.39-1.89c-0.26-0.44-0.64-0.66-1.13-0.66
						c-0.49,0-0.87,0.22-1.13,0.66C71.65,95.8,71.51,96.43,71.51,97.25z"/>
				</g>
			</g>
			<g>
				<g>
					<path class="st198" d="M77.19,97.06c-0.39-0.18-0.68-0.38-0.86-0.6c-0.18-0.22-0.28-0.48-0.28-0.77c0-0.44,0.16-0.78,0.48-1.05
						c0.32-0.26,0.75-0.39,1.29-0.39c0.56,0,0.99,0.13,1.3,0.39c0.31,0.26,0.46,0.62,0.46,1.08c0,0.3-0.09,0.56-0.27,0.78
						c-0.18,0.22-0.46,0.41-0.83,0.57c0.46,0.16,0.81,0.37,1.03,0.62c0.22,0.25,0.34,0.55,0.34,0.91c0,0.51-0.17,0.91-0.52,1.21
						c-0.34,0.29-0.82,0.44-1.42,0.44c-0.64,0-1.15-0.15-1.51-0.44c-0.37-0.29-0.55-0.69-0.55-1.2c0-0.33,0.1-0.62,0.31-0.86
						C76.37,97.51,76.72,97.28,77.19,97.06z M77.81,97.26c-0.5,0.17-0.87,0.37-1.1,0.6c-0.23,0.22-0.35,0.49-0.35,0.79
						c0,0.35,0.14,0.63,0.41,0.84c0.27,0.21,0.64,0.31,1.11,0.31c0.45,0,0.81-0.1,1.07-0.31c0.27-0.21,0.4-0.49,0.4-0.84
						c0-0.33-0.11-0.6-0.34-0.8C78.79,97.63,78.39,97.44,77.81,97.26z M77.89,96.9c0.4-0.14,0.71-0.31,0.91-0.51
						c0.2-0.19,0.3-0.42,0.3-0.67c0-0.32-0.11-0.57-0.33-0.76s-0.53-0.27-0.92-0.27c-0.39,0-0.7,0.09-0.93,0.27
						c-0.23,0.18-0.35,0.42-0.35,0.72c0,0.25,0.1,0.47,0.29,0.65C77.06,96.51,77.4,96.7,77.89,96.9z"/>
				</g>
			</g>
			<g>
				<g>
					<path class="st198" d="M81.12,97.69v-0.75h0.67v0.75H81.12z M81.12,100.13v-0.76h0.67v0.76H81.12z"/>
				</g>
			</g>
			<g>
				<g>
					<path class="st198" d="M84.14,96.81h0.65c0.42,0,0.76-0.1,1-0.29c0.25-0.2,0.37-0.46,0.37-0.79c0-0.3-0.11-0.55-0.33-0.74
						c-0.22-0.19-0.5-0.28-0.85-0.28c-0.31,0-0.57,0.06-0.79,0.19c-0.22,0.13-0.41,0.33-0.59,0.6l-0.39-0.23
						c0.2-0.33,0.45-0.59,0.74-0.76c0.29-0.17,0.63-0.25,1.01-0.25c0.51,0,0.92,0.14,1.23,0.41c0.31,0.27,0.47,0.64,0.47,1.09
						c0,0.29-0.07,0.54-0.22,0.74c-0.15,0.2-0.38,0.37-0.7,0.5v0.06c0.39,0.13,0.68,0.31,0.86,0.55c0.19,0.23,0.28,0.53,0.28,0.89
						c0,0.52-0.17,0.94-0.52,1.26c-0.35,0.32-0.81,0.48-1.37,0.48c-0.45,0-0.85-0.1-1.21-0.3c-0.35-0.2-0.63-0.49-0.85-0.87
						l0.43-0.26c0.18,0.33,0.4,0.58,0.66,0.75c0.26,0.17,0.57,0.25,0.92,0.25c0.43,0,0.78-0.12,1.04-0.35
						c0.27-0.23,0.4-0.54,0.4-0.92c0-0.4-0.15-0.72-0.44-0.96c-0.29-0.23-0.69-0.35-1.2-0.35h-0.61V96.81z"/>
				</g>
			</g>
			<g>
				<g>
					<path class="st198" d="M87.84,97.24c0-0.96,0.18-1.69,0.53-2.21c0.35-0.52,0.85-0.77,1.49-0.77c0.65,0,1.14,0.26,1.49,0.77
						c0.35,0.51,0.52,1.25,0.52,2.21c0,0.95-0.18,1.69-0.52,2.21c-0.35,0.52-0.85,0.78-1.49,0.78c-0.64,0-1.14-0.26-1.49-0.78
						C88.01,98.93,87.84,98.19,87.84,97.24z M88.31,97.25c0,0.82,0.13,1.45,0.39,1.88c0.26,0.44,0.64,0.66,1.13,0.66
						c0.49,0,0.87-0.22,1.13-0.66c0.26-0.44,0.39-1.07,0.39-1.88c0-0.82-0.13-1.45-0.39-1.89c-0.26-0.44-0.64-0.66-1.13-0.66
						c-0.49,0-0.87,0.22-1.13,0.66C88.45,95.8,88.31,96.43,88.31,97.25z"/>
				</g>
			</g>
		</g>
	</g>
	<g>
		<g>
			<g>
				<g>
					<g>
						<g>
							<path class="st198" d="M109.38,98.96l0.01,0.59l0.01,0.59l0.86,0.14c0.09,0.35,0.23,0.68,0.42,0.97l-0.48,0.72l0.43,0.41
								l0.43,0.41l0.71-0.51c0.3,0.18,0.63,0.31,0.99,0.39l0.17,0.85l0.59-0.01l0.59-0.01l0.14-0.86c0.35-0.09,0.68-0.23,0.97-0.42
								l0.72,0.48l0.41-0.43l0.41-0.43l-0.51-0.71c0.18-0.3,0.31-0.63,0.39-0.99l0.85-0.17l-0.01-0.59l-0.01-0.59l-0.86-0.14
								c-0.09-0.35-0.23-0.68-0.42-0.97l0.48-0.72l-0.43-0.41l-0.43-0.41l-0.71,0.51c-0.3-0.18-0.63-0.31-0.99-0.39l-0.17-0.85
								l-0.59,0.01l-0.59,0.01l-0.14,0.86c-0.35,0.09-0.68,0.23-0.97,0.42l-0.72-0.48l-0.41,0.43l-0.41,0.43l0.51,0.71
								c-0.18,0.3-0.31,0.63-0.39,0.99L109.38,98.96z M111.22,99.52c-0.02-1.23,0.96-2.25,2.19-2.27c1.23-0.02,2.25,0.96,2.27,2.19
								s-0.96,2.25-2.19,2.27C112.26,101.73,111.24,100.75,111.22,99.52z"/>
						</g>
					</g>
				</g>
			</g>
		</g>
	</g>
	<g>
		<g>
			<g>
				<g>
					<g>
						<path class="st199" d="M40.89,22.34l0.94,0.41l1.05,0.5c0,0,1.62,0.28,1.65,0.28c0,0-0.13,0.24-0.13,0.24
							c2.02,0.25,8.37,0.51,9.41,0.63c0.63,0.07,1.23,0.85,1.61,1.46L54.9,26.2c0,0-5.55-0.24-5.54-0.13c0,0.04,0.16,0.59,0.4,1.31
							c-3.43,0.23-8.23,0.21-9.12-1.2C39.92,25.01,40.63,23.35,40.89,22.34z"/>
					</g>
				</g>
			</g>
		</g>
		<g>
			<g>
				<g>
					<g>
						<g>
							<g>
								<g>
									<g>
										<g>
											<g>
												<g>
													<g>
														<polygon class="st199" points="62.45,47.24 58.23,47.3 58.17,43.36 62.37,42.84 														"/>
													</g>
												</g>
											</g>
										</g>
									</g>
								</g>
							</g>
						</g>
					</g>
				</g>
			</g>
		</g>
		<g>
			<g>
				<g>
					<g>
						<g>
							<g>
								<g>
									<g>
										<g>
											<path class="st200" d="M66.51,48.7l-8.55-1.04l0.21-1.7c0,0,0.72-0.74,1.62-0.21c0,0,1.28,1.18,2.69,0.13l3,1.73
												C65.47,47.61,66.58,48.12,66.51,48.7z"/>
										</g>
									</g>
								</g>
							</g>
						</g>
					</g>
				</g>
			</g>
			<g>
				<g>
					<g>
						<g>
							<g>
								<g>
									<g>
										<g>
											<path class="st201" d="M57.89,48.26l8.62,1.05c0.16,0.02,0.31-0.1,0.33-0.26l0,0c0.02-0.16-0.1-0.31-0.26-0.33
												l-8.62-1.05L57.89,48.26z"/>
										</g>
									</g>
								</g>
							</g>
						</g>
					</g>
				</g>
			</g>
			<g>
				<g>
					<g>
						<g>
							<g>
								<g>
									<g>
										<g>
											<path class="st202" d="M63.36,46.39c-0.34,0.41-1.02,1.23-1.46,1.75l-0.58-0.07c0.39-0.47,1.2-1.45,1.61-1.93
												L63.36,46.39z"/>
										</g>
									</g>
								</g>
							</g>
						</g>
					</g>
				</g>
			</g>
			<g>
				<g>
					<g>
						<g>
							<g>
								<g>
									<g>
										<g>
											<path class="st202" d="M62.84,48.26l-0.58-0.07c0.32-0.38,0.93-1.12,1.37-1.64l0.43,0.25
												C63.69,47.23,63.18,47.84,62.84,48.26z"/>
										</g>
									</g>
								</g>
							</g>
						</g>
					</g>
				</g>
			</g>
		</g>
		<g>
			<g>
				<g>
					<g>
						<g>
							<g>
								<path class="st515" d="M49.33,33.19c0,0-3.63,0.06-6.17-0.03c-0.82-0.03-1.54,0.03-1.97-0.07c-1.77-0.39-2.21-5.92-0.2-9.31
									c2.01-3.39,9.04,7.01,9.04,7.01L49.33,33.19z"/>
							</g>
						</g>
					</g>
				</g>
			</g>
		</g>
		<g>
			<g>
				<g>
					<g>
						<g>
							<g>
								<g>
									<g>
										<g>
											<g>
												<g>
													<g>
														<polygon class="st199" points="55.9,47.24 51.69,47.3 51.63,43.36 55.83,42.84 														"/>
													</g>
												</g>
											</g>
										</g>
									</g>
								</g>
							</g>
						</g>
					</g>
				</g>
			</g>
		</g>
		<g>
			<g>
				<g>
					<g>
						<g>
							<g>
								<g>
									<g>
										<g>
											<path class="st200" d="M59.66,49.13l-8.44-1.7l0.34-1.68c0,0,0.78-0.68,1.63-0.08c0,0,1.18,1.27,2.67,0.34l2.86,1.96
												C58.71,47.96,59.78,48.56,59.66,49.13z"/>
										</g>
									</g>
								</g>
							</g>
						</g>
					</g>
				</g>
			</g>
			<g>
				<g>
					<g>
						<g>
							<g>
								<g>
									<g>
										<g>
											<path class="st203" d="M51.1,48.02l8.51,1.72c0.16,0.03,0.32-0.07,0.35-0.24l0,0c0.03-0.16-0.07-0.32-0.24-0.35
												l-8.51-1.72L51.1,48.02z"/>
										</g>
									</g>
								</g>
							</g>
						</g>
					</g>
				</g>
			</g>
			<g>
				<g>
					<g>
						<g>
							<g>
								<g>
									<g>
										<g>
											<path class="st202" d="M56.7,46.58c-0.37,0.38-1.12,1.15-1.59,1.63l-0.58-0.12c0.42-0.44,1.31-1.35,1.76-1.8L56.7,46.58z
												"/>
										</g>
									</g>
								</g>
							</g>
						</g>
					</g>
				</g>
			</g>
			<g>
				<g>
					<g>
						<g>
							<g>
								<g>
									<g>
										<g>
											<path class="st202" d="M56.03,48.4l-0.58-0.12c0.35-0.35,1.02-1.04,1.49-1.53l0.41,0.28
												C56.97,47.44,56.41,48.01,56.03,48.4z"/>
										</g>
									</g>
								</g>
							</g>
						</g>
					</g>
				</g>
			</g>
		</g>
		<g>
			<g>
				<g>
					<g>
						<g>
							<g>
								<g>
									<path class="st516" d="M53.24,25.79c0,0,8.92,0.57,9.17,1.6c0.26,1.03,0.99,11.97,0.44,16.64c0,0-3.38,0.23-5-0.16
										l-0.39-11.39l-2.67-0.31l-6.12-7.35L53.24,25.79z"/>
								</g>
							</g>
						</g>
					</g>
				</g>
			</g>
		</g>
		<g>
			<g>
				<g>
					<g>
						<g>
							<g>
								<g>
									<path class="st515" d="M48.96,25.62c0,0,6.88,1.94,7.13,2.97c0.26,1.03,0.99,10.8,0.44,15.47c0,0-3.64,0.21-5.25-0.18
										l-0.44-10.74l-1.57,0.05l-3.8-6.69L48.96,25.62z"/>
								</g>
							</g>
						</g>
					</g>
				</g>
			</g>
		</g>
		<g>
			<g>
				<g>
					<g>
						<g>
							<g>
								<g>
									<path class="st205" d="M53.46,44.18c-1.61,0-2.18-0.24-2.21-0.25l-0.04-0.02l-0.42-10.8l0.66,0.31l-0.05,0.11l-0.48-0.23
										l0.41,10.52c0.17,0.06,1.01,0.3,2.98,0.21l0.01,0.12C54,44.18,53.72,44.18,53.46,44.18z"/>
								</g>
							</g>
						</g>
					</g>
				</g>
			</g>
		</g>
		<g>
			<g>
				<g>
					<g>
						<g>
							<g>
								<g>
									<path class="st205" d="M51.95,41.85c-0.17-0.66-0.22-7.12-0.22-7.39l0.12,0c0,0.07,0.05,6.71,0.22,7.36L51.95,41.85z"/>
								</g>
							</g>
						</g>
					</g>
				</g>
			</g>
		</g>
		<g>
			<g>
				<g>
					<g>
						<g>
							<g>
								<g>
									<path class="st205" d="M58.34,32.73c-0.82-0.26-1.94-0.3-1.95-0.3l0-0.12c0.01,0,1.15,0.04,1.98,0.31L58.34,32.73z"/>
								</g>
							</g>
						</g>
					</g>
				</g>
			</g>
		</g>
		<g>
			<g>
				<g>
					<g>
						<g>
							<g>
								<g>
									<path class="st205" d="M60.17,44.16c-1.37,0-2.32-0.23-2.33-0.23l-0.05-0.01l-0.4-11.51l0.51,0.41l-0.08,0.1l-0.3-0.24
										l0.39,11.15c0.21,0.05,1.13,0.23,2.38,0.21l0,0.12C60.26,44.16,60.22,44.16,60.17,44.16z"/>
								</g>
							</g>
						</g>
					</g>
				</g>
			</g>
		</g>
		<g>
			<g>
				<g>
					<g>
						<g>
							<g>
								<g>
									<path class="st205" d="M58.45,42.09c-0.17-1-0.01-7.76,0-8.05l0.12,0c0,0.07-0.17,7.04,0,8.03L58.45,42.09z"/>
								</g>
							</g>
						</g>
					</g>
				</g>
			</g>
		</g>
		<g>
			<g>
				<g>
					<g>
						<g>
							<g>
								<path class="st205" d="M46.6,33.3c-1.58,0-3.48-0.05-5.62-0.21L41,32.96c6.36,0.48,10.62,0.01,10.67,0l0.01,0.12
									C51.65,33.09,49.75,33.3,46.6,33.3z"/>
							</g>
						</g>
					</g>
				</g>
			</g>
		</g>
		<g>
			<g>
				<g>
					<g>
						<g>
							<g>
								<g>
									<g>
										<path class="st4" d="M48.78,22.15c0.12,0,5.06,2.12,5.06,2.12l-1,1.9l-2.77-0.61L48.78,22.15z"/>
									</g>
								</g>
							</g>
						</g>
					</g>
				</g>
			</g>
		</g>
		<g>
			<g>
				<g>
					<g>
						<g>
							<g>
								<path class="st4" d="M41.62,13.3c0,0-2.1-0.07-3.1,0.49c-1.5,0.85-0.96,5.7-0.96,5.7s1.27-0.69,1.35-0.92
									C38.98,18.34,41.62,13.3,41.62,13.3z"/>
							</g>
						</g>
					</g>
				</g>
			</g>
		</g>
		<g>
			<g>
				<g>
					<g>
						<g>
							<g>
								<g>
									<g>
										<path class="st205" d="M41.12,23.84C41.12,23.84,41.12,23.84,41.12,23.84l1.55,0.36c0.03,0.01,0.06-0.01,0.07-0.04
											c0.01-0.03-0.01-0.06-0.04-0.07l-1.54-0.35c-0.03-0.01-0.06,0.01-0.07,0.04C41.07,23.8,41.09,23.83,41.12,23.84z"/>
									</g>
								</g>
							</g>
						</g>
					</g>
				</g>
			</g>
		</g>
		<g>
			<g>
				<g>
					<g>
						<path class="st206" d="M40.31,22.92l0.94,0.41l1.05,0.5c0,0,1.62,0.28,1.65,0.28c0,0-0.13,0.24-0.13,0.24
							c2.02,0.25,8.37,0.51,9.41,0.63c0.63,0.07,1.23,0.85,1.61,1.46l-0.52,0.35c0,0-5.55-0.24-5.54-0.13c0,0.04,0.16,0.59,0.4,1.31
							c-3.43,0.23-8.23,0.21-9.12-1.2C39.34,25.6,40.05,23.93,40.31,22.92z"/>
					</g>
				</g>
			</g>
		</g>
		<g>
			<g>
				<g>
					<g>
						<g>
							<g>
								<path class="st4" d="M39.59,13.68c1.19-0.17,4.34-0.28,4.34-0.28s0.42,0.11,0.28,0.05c3.48,0.61,3.86,3.19,3.86,3.19
									l1.7,7.45l1.89,0.1c0.61,1.16,0.16,4.28,0.16,4.28l-9.15,1.03c0,0-1.98,0.33-3.65-1.82c-1.11-1.42-1.48-5.78-1.48-8.96
									C37.55,18.73,37.74,13.94,39.59,13.68z"/>
							</g>
						</g>
					</g>
				</g>
			</g>
		</g>
		<g>
			<g>
				<g>
					<g>
						<g>
							<g>
								<polygon class="st200" points="65.22,19.45 56.51,19.45 53.47,27.19 62.18,27.19 								"/>
							</g>
						</g>
					</g>
				</g>
				<g>
					<g>
						<g>
							<g>
								<polygon class="st207" points="53.47,27.19 53.93,27.19 56.96,19.45 56.51,19.45 								"/>
							</g>
						</g>
					</g>
				</g>
				<g>
					<g>
						<g>
							<g>
								<path class="st208" d="M59.53,23.07c-0.12,0.36-0.03,0.71,0.2,0.79c0.23,0.08,0.51-0.15,0.64-0.5
									c0.12-0.36,0.03-0.71-0.2-0.78C59.93,22.49,59.65,22.72,59.53,23.07z"/>
							</g>
						</g>
					</g>
				</g>
			</g>
			<g>
				<g>
					<g>
						<g>
							<path class="st207" d="M50.59,26.56h3.25v0.62h-3.25c-0.17,0-0.31-0.14-0.31-0.31l0,0C50.28,26.7,50.42,26.56,50.59,26.56z"
								/>
						</g>
					</g>
				</g>
			</g>
			<g>
				<g>
					<g>
						<g>
							
								<rect x="51.42" y="26.78" transform="matrix(-1 -1.224647e-16 1.224647e-16 -1 104.8865 53.657)" class="st200" width="2.06" height="0.1"/>
						</g>
					</g>
				</g>
			</g>
		</g>
		<g>
			<g>
				<g>
					<g>
						<g>
							<g>
								<g>
									<g>
										<path class="st205" d="M42.67,24.22c0.01,0,0.02,0,0.03,0c0.03-0.01,0.05-0.04,0.04-0.07c-0.01-0.04-0.97-4.11-1.37-6.66
											c-0.01-0.03-0.03-0.05-0.07-0.05c-0.03,0.01-0.05,0.03-0.05,0.07c0.41,2.56,1.36,6.63,1.37,6.67
											C42.64,24.2,42.65,24.22,42.67,24.22z"/>
									</g>
								</g>
							</g>
						</g>
					</g>
				</g>
			</g>
		</g>
		<g>
			<g>
				<g>
					<g>
						<g>
							<g>
								<g>
									<g>
										<path class="st205" d="M48.59,24.16c0.01,0,0.03,0.01,0.04,0c0.03-0.01,0.05-0.04,0.04-0.07
											c-0.01-0.05-1.43-4.55-1.73-6.1c-0.01-0.03-0.04-0.05-0.07-0.05c-0.03,0.01-0.05,0.04-0.05,0.07
											c0.3,1.56,1.72,6.07,1.73,6.12C48.56,24.14,48.57,24.15,48.59,24.16z"/>
									</g>
								</g>
							</g>
						</g>
					</g>
				</g>
			</g>
		</g>
		<g>
			<g>
				<g>
					<g>
						<g>
							<g>
								<g>
									<g>
										<path class="st205" d="M42.82,15.59c0.04,0,0.09,0.01,0.14,0.01c0.03,0,0.05-0.02,0.05-0.04c0-0.03-0.02-0.05-0.04-0.05
											c-1.99-0.14-2.36-1.6-2.36-1.61c0-0.03-0.03-0.04-0.06-0.04c-0.03,0-0.04,0.03-0.04,0.05
											C40.51,13.92,40.87,15.39,42.82,15.59z"/>
									</g>
								</g>
							</g>
						</g>
					</g>
				</g>
			</g>
		</g>
		<g>
			<g>
				<g>
					<g>
						<g>
							<g>
								<g>
									<g>
										<path class="st205" d="M48.99,23.08c0.03,0.01,0.06,0,0.07-0.02l0.39-0.66l0-0.02l-1.31-5.74
											c-0.01-0.05-0.12-0.72-0.69-1.46c-0.53-0.69-1.58-1.57-3.55-1.83c-0.03,0-0.06,0.02-0.06,0.05c0,0.03,0.02,0.06,0.05,0.06
											c1.93,0.26,2.96,1.11,3.47,1.78c0.56,0.73,0.67,1.41,0.67,1.41l0,0l1.3,5.72L48.96,23
											C48.95,23.03,48.96,23.06,48.99,23.08C48.99,23.08,48.99,23.08,48.99,23.08z"/>
									</g>
								</g>
							</g>
						</g>
					</g>
				</g>
			</g>
		</g>
		<g>
			<g>
				<g>
					<g>
						<g>
							<g>
								<g>
									<g>
										<path class="st205" d="M51.04,23.1c0.03,0.01,0.06,0,0.07-0.03c0.01-0.03,0-0.06-0.03-0.08l-1.67-0.67
											c-0.03-0.01-0.06,0-0.08,0.03c-0.01,0.03,0,0.06,0.03,0.08L51.04,23.1C51.04,23.1,51.04,23.1,51.04,23.1z"/>
									</g>
								</g>
							</g>
						</g>
					</g>
				</g>
			</g>
		</g>
		<g>
			<g>
				<g>
					<g>
						<g>
							<g>
								<path class="st4" d="M51.67,24.2c0,0,0.6,1.42,0.16,4.28l-2.21-1.18l0.66-2.14L51.67,24.2z"/>
							</g>
						</g>
					</g>
				</g>
			</g>
		</g>
		<g>
			<g>
				<g>
					<g>
						<g>
							<g>
								<g>
									<g>
										<path class="st205" d="M40.67,24.28c0.01,0,0.01,0,0.02,0c0.08,0,8.26-0.25,10.93-0.03c0.07,0.18,0.37,1.08,0.28,2.74
											c0,0.03,0.02,0.06,0.05,0.06c0.03,0,0.06-0.02,0.06-0.05c0.1-1.88-0.29-2.79-0.3-2.83l-0.01-0.03l-0.03,0
											c-2.64-0.23-10.9,0.02-10.98,0.02c-0.03,0-0.06,0.03-0.06,0.06C40.64,24.25,40.65,24.27,40.67,24.28z"/>
									</g>
								</g>
							</g>
						</g>
					</g>
				</g>
			</g>
		</g>
		<g>
			<g>
				<g>
					<g>
						<g>
							<g>
								<g>
									<g>
										<g>
											<g>
												<g>
													<path class="st199" d="M44.41,9.07l0.07,2.51c0,0,0.05,0.81-0.65,0.93l0.16,1.08c0.06,0.4-0.17,0.79-0.55,0.92
														c-0.19,0.06-0.41,0.11-0.67,0.12c-0.81,0.02-1.26-0.57-1.34-0.88c-0.08-0.3,0.09-1.76,0.09-1.76l-0.04-0.71l0.02-2.76
														L44.41,9.07z"/>
												</g>
											</g>
										</g>
									</g>
								</g>
							</g>
						</g>
					</g>
				</g>
			</g>
			<g>
				<g>
					<g>
						<g>
							<g>
								<g>
									<g>
										<g>
											<g>
												<g>
													<path class="st209" d="M42.17,11.87c0,0,0.08,1.35,1.78,1.44l-0.12-0.79C43.83,12.51,42.74,12.76,42.17,11.87z"/>
												</g>
											</g>
										</g>
									</g>
								</g>
							</g>
						</g>
					</g>
				</g>
			</g>
			<g>
				<g>
					<g>
						<g>
							<g>
								<g>
									<g>
										<g>
											<g>
												<g>
													<path class="st210" d="M42.49,10.44c-0.01,0-0.02,0-0.02-0.01c-0.01-0.01-0.01-0.03,0-0.05c0-0.01,0.46-0.49,0.89-0.16
														c0.01,0.01,0.02,0.03,0.01,0.05c-0.01,0.01-0.03,0.02-0.05,0.01c-0.38-0.29-0.78,0.13-0.8,0.15
														C42.51,10.43,42.5,10.44,42.49,10.44z"/>
												</g>
											</g>
										</g>
									</g>
								</g>
							</g>
						</g>
					</g>
				</g>
			</g>
			<g>
				<g>
					<g>
						<g>
							<g>
								<g>
									<g>
										<g>
											<path class="st211" d="M41.32,10.11l0.73,0.13l0.14,0.13c0,0-0.09-1.22-0.24-1.45C41.81,8.69,41.32,10.11,41.32,10.11z"
												/>
										</g>
									</g>
								</g>
							</g>
						</g>
					</g>
				</g>
			</g>
			<g>
				<g>
					<g>
						<g>
							<g>
								<g>
									<g>
										<g>
											<g>
												<g>
													<path class="st210" d="M43.88,10.2c-0.01,0-0.02,0-0.03-0.01c-0.01-0.01-0.01-0.03,0-0.05
														c0.01-0.01,0.33-0.3,0.54-0.13c0.01,0.01,0.02,0.03,0,0.05c-0.01,0.01-0.03,0.02-0.05,0
														c-0.16-0.13-0.44,0.12-0.45,0.12C43.89,10.2,43.88,10.2,43.88,10.2z"/>
												</g>
											</g>
										</g>
									</g>
								</g>
							</g>
						</g>
					</g>
				</g>
			</g>
			<g>
				<g>
					<g>
						<g>
							<g>
								<g>
									<g>
										<g>
											<g>
												<g>
													<path class="st212" d="M43.18,10.56c0,0.06-0.04,0.1-0.1,0.1c-0.06,0-0.1-0.04-0.1-0.1c0-0.06,0.04-0.1,0.1-0.1
														C43.13,10.46,43.18,10.5,43.18,10.56z"/>
												</g>
											</g>
										</g>
									</g>
								</g>
							</g>
						</g>
					</g>
				</g>
			</g>
			<g>
				<g>
					<g>
						<g>
							<g>
								<g>
									<g>
										<g>
											<g>
												<g>
													<path class="st212" d="M44.25,10.43c0,0.06-0.04,0.1-0.1,0.1c-0.06,0-0.1-0.04-0.1-0.1c0-0.06,0.04-0.1,0.1-0.1
														C44.2,10.33,44.25,10.37,44.25,10.43z"/>
												</g>
											</g>
										</g>
									</g>
								</g>
							</g>
						</g>
					</g>
				</g>
			</g>
			<g>
				<g>
					<g>
						<g>
							<g>
								<g>
									<g>
										<g>
											<g>
												<g>
													<path class="st199" d="M42.34,10.54c0.01,0.33-0.26,0.61-0.59,0.62c-0.33,0.01-0.61-0.26-0.62-0.59
														c-0.01-0.33,0.26-0.61,0.59-0.62C42.05,9.94,42.33,10.21,42.34,10.54z"/>
												</g>
											</g>
										</g>
									</g>
								</g>
							</g>
						</g>
					</g>
				</g>
			</g>
			<g>
				<g>
					<g>
						<g>
							<g>
								<g>
									<g>
										<g>
											<g>
												<g>
													<path class="st209" d="M41.64,10.9c-0.13,0-0.21-0.09-0.24-0.18c-0.04-0.11,0-0.22,0.09-0.28
														c0.13-0.09,0.26-0.04,0.32,0c-0.03-0.07-0.07-0.12-0.13-0.15c-0.12-0.06-0.27-0.01-0.27-0.01c-0.01,0-0.02,0-0.02-0.01
														c0-0.01,0-0.02,0.01-0.02c0.01,0,0.16-0.06,0.3,0.01c0.08,0.04,0.13,0.11,0.16,0.22l0.02,0.06l-0.04-0.04
														c-0.01-0.01-0.15-0.14-0.32-0.03c-0.09,0.06-0.1,0.17-0.07,0.24c0.02,0.08,0.09,0.16,0.21,0.16c0,0,0,0,0,0
														c0.01,0,0.02,0.01,0.02,0.02C41.66,10.89,41.65,10.9,41.64,10.9C41.64,10.9,41.64,10.9,41.64,10.9z"/>
												</g>
											</g>
										</g>
									</g>
								</g>
							</g>
						</g>
					</g>
				</g>
			</g>
			<g>
				<g>
					<g>
						<g>
							<g>
								<g>
									<g>
										<g>
											<g>
												<g>
													<path class="st209" d="M43.55,11.23c-0.01,0-0.01,0-0.02-0.01c0-0.01,0-0.02,0.01-0.02l0.33-0.12l-0.13-0.79
														c0-0.01,0-0.02,0.01-0.02c0.01,0,0.02,0,0.02,0.01l0.13,0.82L43.55,11.23C43.56,11.23,43.55,11.23,43.55,11.23z"/>
												</g>
											</g>
										</g>
									</g>
								</g>
							</g>
						</g>
					</g>
				</g>
			</g>
			<g>
				<g>
					<g>
						<g>
							<g>
								<g>
									<g>
										<g>
											<g>
												<g>
													<path class="st77" d="M43.3,11.56c0.01,0,0.67-0.03,0.67-0.03s-0.08,0.27-0.32,0.29C43.4,11.83,43.3,11.56,43.3,11.56z
														"/>
												</g>
											</g>
										</g>
									</g>
								</g>
							</g>
						</g>
					</g>
				</g>
			</g>
			<g>
				<g>
					<g>
						<g>
							<g>
								<g>
									<g>
										<g>
											<path class="st211" d="M41.32,10.11c0,0-0.24-1.18,0.11-1.62c0.35-0.45,2.4-1.27,2.66-1.06
												c0.26,0.21,0.01,0.49,0.01,0.49s0.83-0.29,1.03,0.45c0.21,0.73-1.58,1.09-2.65,0.78C42.49,9.14,41.79,9.36,41.32,10.11z"
												/>
										</g>
									</g>
								</g>
							</g>
						</g>
					</g>
				</g>
			</g>
		</g>
		<g>
			<g>
				<g>
					<g>
						<g>
							<g>
								<g>
									<g>
										<path class="st205" d="M41.09,29.34c0.14,0.05,0.26,0.09,0.38,0.12c0.71,0.19,1.2,0.11,1.22,0.11
											c0.03-0.01,0.05-0.03,0.05-0.07c-0.01-0.03-0.03-0.05-0.07-0.05c0,0-0.5,0.08-1.18-0.11c-0.63-0.17-1.56-0.6-2.42-1.69
											c-1.07-1.37-1.46-5.6-1.47-8.8c0-0.03-0.03-0.06-0.06-0.06c-0.03,0-0.06,0.03-0.06,0.06c0.01,3.22,0.41,7.47,1.49,8.87
											C39.7,28.65,40.47,29.11,41.09,29.34z"/>
									</g>
								</g>
							</g>
						</g>
					</g>
				</g>
			</g>
		</g>
	</g>
	<g>
		<g>
			<g>
				<g>
					<g>
						<path class="st3" d="M131.71,103.84c0,0-1.53,3.85-0.25,6.77l-29.45,0.25l-2.72-0.25l-2.4-1.48v-2.27l0.67-1.88l2.17-1.14
							H131.71z"/>
					</g>
				</g>
			</g>
		</g>
		<g>
			<g>
				<g>
					<g>
						<g>
							<path class="st217" d="M100.64,111.23h31.82c0.21,0,0.38-0.17,0.38-0.38s-0.17-0.38-0.38-0.38h-31.82
								c-1.92,0-3.48-1.45-3.48-3.23c0-1.78,1.56-3.23,3.48-3.23h31.82c0.21,0,0.38-0.17,0.38-0.38s-0.17-0.38-0.38-0.38h-31.82
								c-2.33,0-4.23,1.79-4.23,3.98C96.4,109.45,98.3,111.23,100.64,111.23z"/>
						</g>
					</g>
				</g>
			</g>
		</g>
		<g>
			<g>
				<g>
					<g>
						<path class="st218" d="M131.28,107.33h-15.61c-0.05,0-0.08-0.04-0.08-0.08c0-0.05,0.04-0.08,0.08-0.08h15.61
							c0.05,0,0.08,0.04,0.08,0.08C131.36,107.3,131.33,107.33,131.28,107.33z"/>
					</g>
				</g>
			</g>
		</g>
		<g>
			<g>
				<g>
					<g>
						<path class="st218" d="M113.47,107.33H98.3c-0.05,0-0.08-0.04-0.08-0.08c0-0.05,0.04-0.08,0.08-0.08h15.17
							c0.05,0,0.08,0.04,0.08,0.08C113.55,107.3,113.51,107.33,113.47,107.33z"/>
					</g>
				</g>
			</g>
		</g>
		<g>
			<g>
				<g>
					<g>
						<path class="st218" d="M106.49,108.83h-7.78c-0.05,0-0.08-0.04-0.08-0.08s0.04-0.08,0.08-0.08h7.78
							c0.05,0,0.08,0.04,0.08,0.08S106.54,108.83,106.49,108.83z"/>
					</g>
				</g>
			</g>
		</g>
		<g>
			<g>
				<g>
					<g>
						<path class="st218" d="M131.28,108.83h-23.65c-0.05,0-0.08-0.04-0.08-0.08s0.04-0.08,0.08-0.08h23.65
							c0.05,0,0.08,0.04,0.08,0.08S131.33,108.83,131.28,108.83z"/>
					</g>
				</g>
			</g>
		</g>
		<g>
			<g>
				<g>
					<g>
						<path class="st3" d="M102.18,96.41c0,0,1.42,3.58,0.23,6.28l27.33,0.23l2.52-0.23l2.22-1.38v-2.11l-0.62-1.74l-2.02-1.05
							H102.18z"/>
					</g>
				</g>
			</g>
		</g>
		<g>
			<g>
				<g>
					<g>
						<g>
							<path class="st219" d="M131.02,103.27H101.5c-0.19,0-0.35-0.16-0.35-0.35c0-0.19,0.16-0.35,0.35-0.35h29.53
								c1.78,0,3.23-1.35,3.23-3c0-1.65-1.45-3-3.23-3H101.5c-0.19,0-0.35-0.16-0.35-0.35c0-0.19,0.16-0.35,0.35-0.35h29.53
								c2.17,0,3.93,1.66,3.93,3.7C134.95,101.61,133.19,103.27,131.02,103.27z"/>
						</g>
					</g>
				</g>
			</g>
		</g>
		<g>
			<g>
				<g>
					<g>
						<path class="st218" d="M117.08,99.66h-14.49c-0.05,0-0.08-0.04-0.08-0.08c0-0.05,0.04-0.08,0.08-0.08h14.49
							c0.05,0,0.08,0.04,0.08,0.08C117.16,99.62,117.12,99.66,117.08,99.66z"/>
					</g>
				</g>
			</g>
		</g>
		<g>
			<g>
				<g>
					<g>
						<path class="st218" d="M133.19,99.66h-14.08c-0.05,0-0.08-0.04-0.08-0.08c0-0.05,0.04-0.08,0.08-0.08h14.08
							c0.05,0,0.08,0.04,0.08,0.08C133.28,99.62,133.24,99.66,133.19,99.66z"/>
					</g>
				</g>
			</g>
		</g>
		<g>
			<g>
				<g>
					<g>
						<path class="st218" d="M132.82,101.04h-7.22c-0.05,0-0.08-0.04-0.08-0.08c0-0.05,0.04-0.08,0.08-0.08h7.22
							c0.05,0,0.08,0.04,0.08,0.08C132.9,101,132.86,101.04,132.82,101.04z"/>
					</g>
				</g>
			</g>
		</g>
		<g>
			<g>
				<g>
					<g>
						<path class="st218" d="M132.82,98.27h-30.23c-0.05,0-0.08-0.04-0.08-0.08c0-0.05,0.04-0.08,0.08-0.08h30.23
							c0.05,0,0.08,0.04,0.08,0.08C132.9,98.23,132.86,98.27,132.82,98.27z"/>
					</g>
				</g>
			</g>
		</g>
		<g>
			<g>
				<g>
					<g>
						<g>
							<path class="st205" d="M132.45,111.32h-31.82c-2.38,0-4.32-1.82-4.32-4.07c0-2.24,1.94-4.07,4.32-4.07h31.82
								c0.25,0,0.46,0.21,0.46,0.46c0,0.25-0.21,0.46-0.46,0.46c-0.05,0-0.08-0.04-0.08-0.08c0-0.05,0.04-0.08,0.08-0.08
								c0.16,0,0.29-0.13,0.29-0.29c0-0.16-0.13-0.29-0.29-0.29h-31.82c-2.29,0-4.15,1.75-4.15,3.9c0,2.15,1.86,3.9,4.15,3.9h31.82
								c0.16,0,0.29-0.13,0.29-0.29c0-0.16-0.13-0.29-0.29-0.29c-0.05,0-0.08-0.04-0.08-0.08s0.04-0.08,0.08-0.08
								c0.25,0,0.46,0.21,0.46,0.46S132.71,111.32,132.45,111.32z"/>
						</g>
					</g>
				</g>
			</g>
		</g>
		<g>
			<g>
				<g>
					<g>
						<g>
							<path class="st205" d="M131.02,103.35H101.5c-0.24,0-0.43-0.19-0.43-0.43c0-0.24,0.19-0.43,0.43-0.43
								c0.05,0,0.08,0.04,0.08,0.08s-0.04,0.08-0.08,0.08c-0.15,0-0.26,0.12-0.26,0.26c0,0.15,0.12,0.26,0.26,0.26h29.53
								c2.12,0,3.85-1.62,3.85-3.61c0-1.99-1.73-3.61-3.85-3.61H101.5c-0.15,0-0.26,0.12-0.26,0.26c0,0.15,0.12,0.26,0.26,0.26
								c0.05,0,0.08,0.04,0.08,0.08c0,0.05-0.04,0.08-0.08,0.08c-0.24,0-0.43-0.19-0.43-0.43c0-0.24,0.19-0.43,0.43-0.43h29.53
								c2.21,0,4.01,1.7,4.01,3.78C135.04,101.66,133.24,103.35,131.02,103.35z"/>
						</g>
					</g>
				</g>
			</g>
		</g>
		<g>
			<g>
				<g>
					<g>
						<path class="st195" d="M118.41,105.76c0,0,1,2.5,0.42,4.33l-0.81-1.26c0,0-0.56,0.67-0.9,1.26c0,0-0.62-4.1-1.83-4.33H118.41z
							"/>
					</g>
				</g>
			</g>
		</g>
		<g>
			<g>
				<g>
					<g>
						<path class="st216" d="M119.86,100.96c0,0-1,2.5-0.42,4.33l0.81-1.26c0,0,0.56,0.67,0.9,1.26c0,0,0.62-4.1,1.83-4.33H119.86z"
							/>
					</g>
				</g>
			</g>
		</g>
		<g>
			<g>
				<g>
					<g>
						<path class="st218" d="M131.28,105.84H98.71c-0.05,0-0.08-0.04-0.08-0.08c0-0.05,0.04-0.08,0.08-0.08h32.57
							c0.05,0,0.08,0.04,0.08,0.08C131.36,105.8,131.33,105.84,131.28,105.84z"/>
					</g>
				</g>
			</g>
		</g>
		<g>
			<g>
				<g>
					<g>
						<path class="st218" d="M124.53,101.04h-21.95c-0.05,0-0.08-0.04-0.08-0.08c0-0.05,0.04-0.08,0.08-0.08h21.95
							c0.05,0,0.08,0.04,0.08,0.08C124.62,101,124.58,101.04,124.53,101.04z"/>
					</g>
				</g>
			</g>
		</g>
	</g>
	<g>
		<g>
			<g>
				<g>
					<g>
						<g>
							<g>
								<g>
									<polygon class="st199" points="105.71,107.94 107.15,108.75 108.87,107.06 108.92,106.78 108.5,103.7 105.15,104.33 
																			"/>
								</g>
							</g>
						</g>
					</g>
				</g>
			</g>
			<g>
				<g>
					<g>
						<g>
							<g>
								<path class="st220" d="M108.17,108.84l-4.62,0.63c-0.04,0-0.08,0-0.1-0.01c-0.45-0.07-0.35-0.37-0.35-0.37l2.02-1.67
									l0.01-0.21c0.02-0.33,0.41-0.5,0.73-0.32l0.85,0.46c0,0,2,0.03,2.19-0.57l0.18,1.45
									C109.1,108.23,109.31,108.68,108.17,108.84z"/>
							</g>
						</g>
					</g>
				</g>
			</g>
		</g>
		<g>
			<g>
				<g>
					<g>
						<g>
							<g>
								<g>
									<polygon class="st199" points="99.75,108.14 101.19,108.95 102.91,107.25 102.96,106.98 102.54,103.9 99.19,104.52 
																			"/>
								</g>
							</g>
						</g>
					</g>
				</g>
			</g>
			<g>
				<g>
					<g>
						<g>
							<g>
								<path class="st220" d="M102.21,109.04l-4.62,0.63c-0.04,0-0.08,0-0.1-0.01c-0.45-0.07-0.35-0.37-0.35-0.37l2.02-1.67
									l0.01-0.21c0.02-0.33,0.41-0.5,0.73-0.32l0.85,0.46c0,0,2,0.03,2.19-0.57l0.18,1.45
									C103.14,108.43,103.35,108.87,102.21,109.04z"/>
							</g>
						</g>
					</g>
				</g>
			</g>
		</g>
		<g>
			<g>
				<g>
					<g>
						<g>
							<g>
								<path class="st515" d="M111.07,95.84c0,0,5.76,0.27,7.36-0.08c1.6-0.35,1.99-5.34,0.18-8.4c-1.82-3.06-8.17,6.33-8.17,6.33
									L111.07,95.84z"/>
							</g>
						</g>
					</g>
				</g>
			</g>
			<g>
				<g>
					<g>
						<g>
							<g>
								<g>
									<path class="st516" d="M107.51,88.43c0,0-8.02,1.25-8.25,2.18c-0.23,0.93-0.9,10.81-0.4,15.03c0,0,3.05,0.21,4.51-0.14
										l0.41-9.66l2.46,0.04l5.42-7.58L107.51,88.43z"/>
								</g>
							</g>
						</g>
					</g>
				</g>
			</g>
			<g>
				<g>
					<g>
						<g>
							<g>
								<g>
									<path class="st515" d="M111.41,89.01c0,0-6.21,1.75-6.44,2.68c-0.23,0.93-0.89,9.75-0.4,13.96c0,0,3.28,0.19,4.74-0.17
										l0.39-9.7l1.42,0.05l3.43-6.04L111.41,89.01z"/>
								</g>
							</g>
						</g>
					</g>
				</g>
			</g>
			<g>
				<g>
					<g>
						<g>
							<path class="st4" d="M115.25,77.18c0,0,2.74,0.05,3.38,0.42c0.64,0.38,3.56,5.19,4.19,7.23c0,0-1.65,1.44-3.77,1.5
								l-0.51-0.96l0.29,1.97l-5.56,1.65c-1.89,0.56-3.91,0.49-5.75-0.19l-0.58-0.21c0,0,0.01-9.37,1.68-10.36
								C110.11,77.36,113.34,76.89,115.25,77.18z"/>
						</g>
					</g>
				</g>
			</g>
			<g>
				<g>
					<g>
						<g>
							<g>
								<g>
									<path class="st199" d="M111.81,72.58v2.65c0,0-0.04,0.9,0.75,1.01l-0.15,1.2c-0.05,0.44,0.21,0.87,0.64,1.01
										c0.21,0.07,0.46,0.11,0.74,0.11c0.9,0,1.38-0.67,1.46-1.01c0.07-0.34-0.15-1.94-0.15-1.94l0.03-0.79l-0.1-3.06
										L111.81,72.58z"/>
								</g>
							</g>
						</g>
					</g>
				</g>
			</g>
			<g>
				<g>
					<g>
						<g>
							<g>
								<g>
									<path class="st205" d="M113.97,73.91c0.01,0,0.02,0,0.03-0.01c0.01-0.01,0.02-0.04,0-0.05c-0.01-0.01-0.52-0.53-0.99-0.15
										c-0.02,0.01-0.02,0.04-0.01,0.05c0.01,0.02,0.04,0.02,0.05,0.01c0.42-0.34,0.87,0.13,0.89,0.15
										C113.95,73.9,113.96,73.91,113.97,73.91z"/>
								</g>
							</g>
						</g>
					</g>
				</g>
			</g>
			<g>
				<g>
					<g>
						<g>
							<g>
								<g>
									<path class="st205" d="M112.43,73.68c0.01,0,0.02,0,0.03-0.01c0.01-0.02,0.01-0.04,0-0.05c-0.02-0.01-0.37-0.32-0.6-0.12
										c-0.02,0.01-0.02,0.04,0,0.05c0.01,0.02,0.04,0.02,0.05,0c0.18-0.15,0.5,0.12,0.5,0.12
										C112.41,73.68,112.42,73.68,112.43,73.68z"/>
								</g>
							</g>
						</g>
					</g>
				</g>
			</g>
			<g>
				<g>
					<g>
						<g>
							<g>
								<g>
									<path class="st212" d="M113.22,74.06c0,0.06,0.05,0.11,0.11,0.11c0.06,0,0.11-0.05,0.11-0.11c0-0.06-0.05-0.11-0.11-0.11
										C113.27,73.95,113.22,74,113.22,74.06z"/>
								</g>
							</g>
						</g>
					</g>
				</g>
			</g>
			<g>
				<g>
					<g>
						<g>
							<g>
								<g>
									<path class="st212" d="M112.02,73.95c0,0.06,0.05,0.11,0.11,0.11c0.06,0,0.11-0.05,0.11-0.11c0-0.06-0.05-0.11-0.11-0.11
										C112.08,73.83,112.02,73.88,112.02,73.95z"/>
								</g>
							</g>
						</g>
					</g>
				</g>
			</g>
			<g>
				<g>
					<g>
						<g>
							<g>
								<g>
									<path class="st205" d="M114.91,71.91l-0.63,0.89c0,0-1.89,0.74-2.87-0.14c-0.97-0.87-0.67-1.29-0.39-1.73
										c0.14-0.22,0.81-0.65,1.63-0.29c0.45,0.2,0.78-0.4,1.3-0.1c0.52,0.3,1.14,0.82,1.07,1.02
										C114.97,71.77,114.91,71.91,114.91,71.91z"/>
								</g>
							</g>
						</g>
					</g>
				</g>
			</g>
			<g>
				<g>
					<g>
						<g>
							<g>
								<g>
									<path class="st205" d="M114.88,71.53c0,0,0.86-0.04,1.1,0.79c0.24,0.83-0.08,1.26-0.09,1.51
										c-0.01,0.25,0.16,1.92-1.01,1.79l-0.32-2.76l0.41-1.1L114.88,71.53z"/>
								</g>
							</g>
						</g>
					</g>
				</g>
			</g>
			<g>
				<g>
					<g>
						<g>
							<g>
								<g>
									<path class="st199" d="M114.14,74.02c0,0.37,0.3,0.67,0.67,0.67s0.67-0.3,0.67-0.67c0-0.37-0.3-0.67-0.67-0.67
										S114.14,73.65,114.14,74.02z"/>
								</g>
							</g>
						</g>
					</g>
				</g>
			</g>
			<g>
				<g>
					<g>
						<g>
							<g>
								<g>
									<path class="st209" d="M114.86,74.43c0.14,0,0.23-0.1,0.26-0.21c0.04-0.12-0.01-0.24-0.11-0.31
										c-0.15-0.09-0.28-0.03-0.35,0.01c0.03-0.08,0.07-0.13,0.14-0.17c0.13-0.07,0.3-0.02,0.3-0.02c0.01,0,0.02,0,0.02-0.01
										c0-0.01,0-0.02-0.01-0.02c-0.01,0-0.18-0.06-0.33,0.02c-0.08,0.05-0.14,0.13-0.17,0.24l-0.02,0.07l0.05-0.05
										c0.01-0.01,0.17-0.16,0.36-0.04c0.1,0.06,0.11,0.18,0.09,0.26c-0.02,0.08-0.1,0.18-0.23,0.18c0,0,0,0,0,0
										c-0.01,0-0.02,0.01-0.02,0.02C114.84,74.42,114.85,74.43,114.86,74.43C114.86,74.43,114.86,74.43,114.86,74.43z"/>
								</g>
							</g>
						</g>
					</g>
				</g>
			</g>
			<g>
				<g>
					<g>
						<g>
							<g>
								<g>
									<path class="st209" d="M114.37,75.48c0,0-0.05,1.5-1.93,1.64l0.11-0.88C112.55,76.24,113.77,76.49,114.37,75.48z"/>
								</g>
							</g>
						</g>
					</g>
				</g>
			</g>
			<g>
				<g>
					<g>
						<g>
							<g>
								<g>
									<path class="st205" d="M118.62,85.49c2.32-0.36,3.69-1.75,3.7-1.76l-0.08-0.08c-0.01,0.01-1.36,1.37-3.64,1.73
										L118.62,85.49z"/>
								</g>
							</g>
						</g>
					</g>
				</g>
			</g>
			<g>
				<g>
					<g>
						<g>
							<g>
								<g>
									<path class="st205" d="M107.34,105.77c1.45,0,1.97-0.22,1.99-0.23l0.03-0.01l0.38-9.75l-0.6,0.28l0.05,0.1l0.43-0.2
										l-0.37,9.5c-0.16,0.05-0.91,0.27-2.69,0.19l-0.01,0.11C106.85,105.77,107.11,105.77,107.34,105.77z"/>
								</g>
							</g>
						</g>
					</g>
				</g>
			</g>
			<g>
				<g>
					<g>
						<g>
							<g>
								<g>
									<path class="st205" d="M108.71,103.67c0.15-0.6,0.2-6.42,0.2-6.67l-0.11,0c0,0.06-0.05,6.06-0.2,6.64L108.71,103.67z"/>
								</g>
							</g>
						</g>
					</g>
				</g>
			</g>
			<g>
				<g>
					<g>
						<g>
							<g>
								<g>
									<path class="st205" d="M101.28,105.81c1.24,0,2.15-0.22,2.15-0.22l0.36-9.76l-0.46,0.32l0.07,0.09l0.27-0.22l-0.35,9.48
										c-0.19,0.04-1.02,0.2-2.15,0.19l0,0.11C101.21,105.81,101.24,105.81,101.28,105.81z"/>
								</g>
							</g>
						</g>
					</g>
				</g>
			</g>
			<g>
				<g>
					<g>
						<g>
							<g>
								<g>
									<path class="st205" d="M102.84,103.88c0.15-0.9,0.01-7.01,0-7.27l-0.11,0c0,0.06,0.15,6.36,0,7.25L102.84,103.88z"/>
								</g>
							</g>
						</g>
					</g>
				</g>
			</g>
			<g>
				<g>
					<g>
						<g>
							<g>
								<g>
									<path class="st199" d="M108.38,89.49l0.63-0.99l0,0c0.35-0.56,0.91-1.31,1.5-1.37c0.96-0.11,6.81-0.35,8.66-0.58
										c0,0-0.13-0.22-0.12-0.22c0.02,0,1.52-0.25,1.52-0.25l0.96-0.46l0.87-0.37c0.24,0.93,0.89,2.46,0.22,3.53
										c-1.24,1.97-10.75,1-11.6,0.74l-0.78,0.84l-0.16,0.24c-0.08,0.12-0.23,0.15-0.34,0.07c-0.12-0.07-0.15-0.23-0.07-0.34
										l-0.07,0.1c-0.08,0.12-0.23,0.15-0.34,0.07l0,0c-0.12-0.07-0.15-0.23-0.07-0.34c-0.07,0.12-0.23,0.15-0.34,0.07
										c-0.12-0.08-0.15-0.23-0.07-0.34l0.07-0.1c-0.08,0.12-0.23,0.15-0.34,0.07l0,0c0,0-0.01-0.01-0.01-0.01c0,0,0,0,0,0
										c0,0,0,0-0.01,0c0,0,0,0,0,0c0,0,0,0,0,0c-0.02-0.01-0.03-0.03-0.04-0.04C108.29,89.64,108.38,89.49,108.38,89.49z"/>
								</g>
							</g>
						</g>
					</g>
				</g>
			</g>
			<g>
				<g>
					<g>
						<g>
							<g>
								<g>
									<path class="st205" d="M119.02,86.41l0.04,0c1.89-0.04,3.79-1.5,3.81-1.51l0.04-0.03l-1.2-2.65l-0.1,0.05l1.16,2.57
										c-0.26,0.2-1.97,1.4-3.67,1.46l-0.51-1.05l-0.1,0.05L119.02,86.41z"/>
								</g>
							</g>
						</g>
					</g>
				</g>
			</g>
			<g>
				<g>
					<g>
						<g>
							<g>
								<g>
									<path class="st209" d="M119.84,87.47c0.01,0,0.02,0,0.03-0.01c0.02-0.01,0.02-0.04,0.01-0.05l-0.68-0.88
										c-0.01-0.02-0.04-0.02-0.05-0.01c-0.02,0.01-0.02,0.04-0.01,0.05l0.68,0.88C119.83,87.47,119.84,87.47,119.84,87.47z"/>
								</g>
							</g>
						</g>
					</g>
				</g>
			</g>
			<g>
				<g>
					<g>
						<g>
							<g>
								<g>
									<path class="st209" d="M108.73,89.93c0.01,0,0.03,0,0.04-0.01l0.89-1.22c0.01-0.02,0.01-0.04-0.01-0.05
										c-0.02-0.01-0.04-0.01-0.05,0.01l-0.89,1.22c-0.01,0.02-0.01,0.04,0.01,0.05C108.72,89.93,108.72,89.93,108.73,89.93z"/>
								</g>
							</g>
						</g>
					</g>
				</g>
			</g>
			<g>
				<g>
					<g>
						<g>
							<g>
								<g>
									<path class="st209" d="M109.12,90.29c0.01,0,0.03,0,0.04-0.02l0.85-1.26c0.01-0.02,0.01-0.04-0.01-0.05
										c-0.02-0.01-0.04-0.01-0.05,0.01l-0.85,1.26c-0.01,0.02-0.01,0.04,0.01,0.05C109.11,90.29,109.11,90.29,109.12,90.29z"/>
								</g>
							</g>
						</g>
					</g>
				</g>
			</g>
			<g>
				<g>
					<g>
						<g>
							<g>
								<g>
									<path class="st209" d="M109.59,90.52c0.01,0,0.03,0,0.04-0.02l0.71-1.07c0.01-0.02,0.01-0.04-0.01-0.05
										c-0.02-0.01-0.04-0.01-0.05,0.01l-0.71,1.07c-0.01,0.02-0.01,0.04,0.01,0.05C109.58,90.52,109.59,90.52,109.59,90.52z"/>
								</g>
							</g>
						</g>
					</g>
				</g>
			</g>
			<g>
				<g>
					<g>
						<g>
							<g>
								<path class="st205" d="M113.53,95.95c-2.84,0-4.56-0.19-4.58-0.19l0.01-0.11c0.04,0,3.89,0.43,9.63,0l0.01,0.11
									C116.68,95.9,114.96,95.95,113.53,95.95z"/>
							</g>
						</g>
					</g>
				</g>
			</g>
			<g>
				<g>
					<g>
						<g>
							<g>
								
									<rect x="107.15" y="83.25" transform="matrix(0.0321 -0.9995 0.9995 0.0321 22.756 190.1027)" class="st205" width="4.76" height="0.11"/>
							</g>
						</g>
					</g>
				</g>
			</g>
			<g>
				<g>
					<g>
						<g>
							<g>
								
									<rect x="117.89" y="81.06" transform="matrix(0.9172 -0.3984 0.3984 0.9172 -23.6434 53.9379)" class="st205" width="0.11" height="5.58"/>
							</g>
						</g>
					</g>
				</g>
			</g>
			<g>
				<g>
					<g>
						<g>
							<g>
								
									<rect x="118.55" y="85.06" transform="matrix(0.9872 -0.1595 0.1595 0.9872 -12.1727 20.0149)" class="st205" width="0.11" height="1.55"/>
							</g>
						</g>
					</g>
				</g>
			</g>
			<g>
				<g>
					<g>
						<g>
							<g>
								<g>
									<path class="st209" d="M112.82,74.81c0.01,0,0.02-0.01,0.02-0.01c0-0.01,0-0.02-0.01-0.02l-0.37-0.12l0.12-0.88
										c0-0.01-0.01-0.02-0.02-0.02c-0.01,0-0.02,0.01-0.02,0.02l-0.12,0.91L112.82,74.81C112.82,74.81,112.82,74.81,112.82,74.81
										z"/>
								</g>
							</g>
						</g>
					</g>
				</g>
			</g>
			<g>
				<g>
					<g>
						<g>
							<g>
								<g>
									<path class="st77" d="M113.11,75.18c-0.01,0-0.74-0.02-0.74-0.02s0.09,0.3,0.36,0.31C113,75.47,113.11,75.18,113.11,75.18z
										"/>
								</g>
							</g>
						</g>
					</g>
				</g>
			</g>
		</g>
		<g>
			<g>
				<g>
					<g>
						<g>
							<g>
								<polygon class="st221" points="97.54,82.22 106.44,82.22 109.54,90.12 100.64,90.12 								"/>
							</g>
						</g>
					</g>
				</g>
				<g>
					<g>
						<g>
							<g>
								<polygon class="st222" points="109.54,90.12 109.08,90.12 105.97,82.22 106.44,82.22 								"/>
							</g>
						</g>
					</g>
				</g>
				<g>
					<g>
						<g>
							<g>
								<path class="st208" d="M103.36,85.92c0.12,0.36,0.03,0.72-0.2,0.8c-0.23,0.08-0.53-0.15-0.65-0.51
									c-0.12-0.36-0.03-0.72,0.2-0.8C102.94,85.33,103.23,85.56,103.36,85.92z"/>
							</g>
						</g>
					</g>
				</g>
			</g>
			<g>
				<g>
					<g>
						<g>
							<path class="st222" d="M112.48,89.48h-3.32v0.64h3.32c0.18,0,0.32-0.14,0.32-0.32l0,0C112.8,89.63,112.66,89.48,112.48,89.48
								z"/>
						</g>
					</g>
				</g>
			</g>
			<g>
				<g>
					<g>
						<g>
							<rect x="109.54" y="89.7" class="st221" width="2.1" height="0.1"/>
						</g>
					</g>
				</g>
			</g>
		</g>
		<g>
			<g>
				<g>
					<rect x="108.29" y="90.12" class="st210" width="3.92" height="1.4"/>
				</g>
			</g>
		</g>
	</g>
	<g>
		<path class="st217" d="M37.61,55.28c-1.9,0-3.71-0.94-4.6-2.46c-0.52-0.89-0.68-1.93-0.46-3.01c0.24-1.2,0.93-2.44,2.04-3.68
			c0.12-0.14,0.34-0.15,0.47-0.02c0.14,0.12,0.15,0.33,0.02,0.47c-1.93,2.14-2.46,4.24-1.5,5.9c0.92,1.58,3.11,2.45,5.09,2.02
			c2.08-0.45,3.41-2.18,3.66-4.72c0.15-1.56-0.25-2.9-1.15-3.87c-1.1-1.18-2.89-1.8-5.05-1.74c-0.19,0.01-0.34-0.14-0.34-0.33
			c0-0.18,0.14-0.34,0.33-0.34c2.35-0.06,4.32,0.64,5.55,1.96c1.04,1.12,1.5,2.63,1.33,4.39c-0.27,2.86-1.8,4.79-4.18,5.31
			C38.42,55.23,38.02,55.28,37.61,55.28z"/>
	</g>
	<g>
		<path class="st217" d="M62.94,72.79c-1.9,0-3.71-0.94-4.6-2.46c-0.52-0.89-0.68-1.93-0.46-3.01c0.24-1.2,0.93-2.44,2.04-3.68
			c0.12-0.14,0.34-0.15,0.47-0.02c0.14,0.12,0.15,0.34,0.02,0.47c-1.93,2.14-2.46,4.24-1.5,5.9c0.92,1.58,3.11,2.45,5.09,2.02
			c2.08-0.45,3.41-2.18,3.66-4.72c0.15-1.56-0.25-2.9-1.15-3.87c-1.1-1.18-2.89-1.8-5.05-1.74c-0.19,0.01-0.34-0.14-0.34-0.33
			c0-0.18,0.14-0.34,0.33-0.34c2.35-0.06,4.32,0.64,5.55,1.96c1.04,1.12,1.5,2.63,1.33,4.39c-0.27,2.86-1.8,4.79-4.18,5.31
			C63.75,72.75,63.35,72.79,62.94,72.79z"/>
	</g>
	<g>
		<path class="st217" d="M101.36,73.99c-1.9,0-3.71-0.94-4.6-2.46c-0.52-0.89-0.68-1.93-0.46-3.01c0.24-1.2,0.93-2.44,2.04-3.68
			c0.12-0.14,0.34-0.15,0.47-0.02c0.14,0.12,0.15,0.34,0.02,0.47c-1.93,2.14-2.46,4.24-1.5,5.9c0.92,1.58,3.11,2.45,5.09,2.02
			c2.08-0.45,3.41-2.18,3.66-4.72c0.15-1.56-0.25-2.9-1.15-3.87c-1.1-1.18-2.89-1.8-5.05-1.74c0,0-0.01,0-0.01,0
			c-0.18,0-0.33-0.14-0.33-0.33c0-0.18,0.14-0.34,0.33-0.34c2.35-0.06,4.32,0.64,5.55,1.96c1.04,1.12,1.5,2.63,1.33,4.39
			c-0.27,2.86-1.8,4.79-4.18,5.31C102.16,73.95,101.76,73.99,101.36,73.99z"/>
	</g>
	<g>
		<g>
			<g>
				<g>
					<path class="st193" d="M101.21,71.78l-3.15-4.69c-0.07-0.11-0.04-0.25,0.06-0.33c0.11-0.07,0.25-0.04,0.33,0.06l2.65,3.95
						l3.37-8.61c0.05-0.12,0.18-0.18,0.3-0.13c0.12,0.05,0.18,0.18,0.13,0.3L101.21,71.78z"/>
				</g>
			</g>
		</g>
	</g>
	<g>
		<g>
			<g>
				<g>
					<g>
						<g>
							<path class="st228" d="M52.77,16.78l-0.08,0.03l-0.01-0.04c-0.05-0.14-0.1-0.28-0.14-0.43l-0.01-0.04l0.08-0.02l0.01,0.04
								c0.04,0.14,0.09,0.28,0.14,0.42L52.77,16.78z M52.52,15.93l-0.08,0.02l-0.01-0.04c-0.03-0.15-0.06-0.29-0.09-0.44l-0.01-0.04
								l0.08-0.01l0.01,0.04c0.02,0.14,0.05,0.29,0.09,0.44L52.52,15.93z M57.18,13.06C57.18,13.06,57.18,13.06,57.18,13.06
								c-0.06,0.03-0.12,0.06-0.19,0.07l-0.04,0.01l-0.02-0.08l0.04-0.01c0.06-0.02,0.12-0.04,0.18-0.07c0,0,0,0,0,0
								c0.07-0.04,0.14-0.08,0.2-0.13l0.03-0.03l0.05,0.06l-0.03,0.03C57.33,12.98,57.26,13.02,57.18,13.06z M56.58,13.19
								l-0.04-0.01c-0.15-0.02-0.29-0.09-0.41-0.22l-0.03-0.03l0.06-0.06l0.03,0.03c0.11,0.11,0.23,0.18,0.36,0.19l0.04,0.01
								L56.58,13.19z M57.65,12.58l-0.07-0.03l0.02-0.04c0.05-0.13,0.08-0.27,0.09-0.42l0-0.04l0.08,0l0,0.04
								c-0.01,0.16-0.04,0.31-0.1,0.45L57.65,12.58z M52.36,15.05l-0.08,0.01l0-0.04c-0.02-0.15-0.03-0.3-0.03-0.45l0-0.04l0.08,0
								l0,0.04c0.01,0.14,0.02,0.29,0.03,0.44L52.36,15.05z M55.97,12.59l-0.07,0.03l-0.02-0.04c-0.06-0.13-0.1-0.28-0.13-0.44
								l-0.01-0.04l0.08-0.01l0.01,0.04c0.03,0.15,0.07,0.29,0.12,0.42L55.97,12.59z M57.73,11.68l-0.08,0.02l-0.01-0.04
								c-0.03-0.14-0.07-0.28-0.13-0.42L57.5,11.2l0.07-0.03l0.02,0.04c0.06,0.14,0.11,0.29,0.14,0.43L57.73,11.68z M52.32,14.17
								l-0.08,0l0-0.04c0.01-0.15,0.02-0.3,0.04-0.45l0.01-0.04l0.08,0.01l-0.01,0.04c-0.02,0.14-0.03,0.29-0.04,0.44L52.32,14.17z
								 M55.79,11.74l-0.08,0l0-0.04c0-0.15,0-0.3,0.02-0.45l0-0.04l0.08,0.01l0,0.04c-0.02,0.15-0.02,0.3-0.02,0.44L55.79,11.74z
								 M57.33,10.89l-0.02-0.03c-0.03-0.05-0.07-0.09-0.1-0.14c-0.06-0.07-0.12-0.13-0.19-0.19l-0.03-0.03l0.05-0.06l0.03,0.03
								c0.07,0.06,0.14,0.13,0.2,0.2c0.04,0.04,0.07,0.09,0.11,0.14l0.02,0.03L57.33,10.89z M52.43,13.29l-0.08-0.02l0.01-0.04
								c0.03-0.15,0.07-0.29,0.12-0.43l0.01-0.04l0.08,0.03l-0.01,0.04c-0.05,0.14-0.09,0.28-0.12,0.43L52.43,13.29z M55.88,10.86
								l-0.08-0.02l0.01-0.04c0.03-0.14,0.08-0.29,0.13-0.43l0.01-0.04l0.08,0.03l-0.01,0.04c-0.05,0.14-0.09,0.28-0.13,0.42
								L55.88,10.86z M52.7,12.45l-0.07-0.03l0.02-0.04c0.06-0.14,0.14-0.27,0.22-0.4l0.02-0.03l0.07,0.04l-0.02,0.03
								c-0.08,0.12-0.15,0.25-0.21,0.39L52.7,12.45z M56.68,10.32l-0.04-0.02c-0.13-0.06-0.27-0.1-0.42-0.12l-0.04-0.01l0.01-0.08
								l0.04,0.01c0.15,0.02,0.3,0.07,0.44,0.13l0.04,0.02L56.68,10.32z M53.16,11.7l-0.06-0.05l0.03-0.03
								c0.09-0.12,0.19-0.23,0.3-0.34l0.03-0.03l0.06,0.06l-0.03,0.03c-0.1,0.11-0.2,0.22-0.29,0.33L53.16,11.7z M56.17,10.03
								l-0.07-0.04l0.02-0.04c0.06-0.13,0.14-0.27,0.22-0.39l0.02-0.03l0.07,0.04L56.4,9.61c-0.08,0.13-0.15,0.26-0.21,0.39
								L56.17,10.03z M55.83,10.16l-0.04,0c-0.14,0.01-0.29,0.03-0.43,0.06l-0.04,0.01l-0.02-0.08l0.04-0.01
								c0.15-0.04,0.3-0.06,0.45-0.07l0.04,0L55.83,10.16z M53.77,11.06L53.72,11l0.03-0.03c0.12-0.1,0.24-0.19,0.36-0.27l0.03-0.02
								l0.05,0.07l-0.03,0.02c-0.12,0.08-0.24,0.17-0.35,0.27L53.77,11.06z M54.97,10.34l-0.04,0.01c-0.13,0.05-0.27,0.11-0.4,0.18
								l-0.04,0.02l-0.04-0.07l0.04-0.02c0.13-0.07,0.27-0.14,0.41-0.19l0.04-0.01L54.97,10.34z M56.62,9.27l-0.06-0.05l0.02-0.03
								c0.09-0.12,0.19-0.23,0.3-0.34l0.03-0.03l0.06,0.06l-0.03,0.03c-0.11,0.11-0.2,0.22-0.29,0.33L56.62,9.27z M60.15,7.41
								l-0.04,0.01c-0.14,0.03-0.29,0.06-0.43,0.1l-0.04,0.01l-0.02-0.08l0.04-0.01c0.14-0.04,0.29-0.07,0.44-0.1l0.04-0.01
								L60.15,7.41z M59.28,7.62l-0.04,0.01c-0.14,0.04-0.28,0.09-0.42,0.14l-0.04,0.01l-0.03-0.08L58.8,7.7
								c0.14-0.05,0.28-0.1,0.43-0.14l0.04-0.01L59.28,7.62z M57.24,8.65l-0.05-0.06l0.03-0.03c0.11-0.09,0.24-0.18,0.37-0.26
								l0.03-0.02l0.04,0.07l-0.03,0.02c-0.13,0.08-0.25,0.17-0.36,0.26L57.24,8.65z M58.45,7.93l-0.04,0.02
								c-0.14,0.06-0.27,0.13-0.4,0.19l-0.04,0.02l-0.04-0.07l0.04-0.02c0.13-0.07,0.26-0.14,0.4-0.2l0.04-0.02L58.45,7.93z"/>
						</g>
					</g>
				</g>
			</g>
		</g>
		<g>
			<g>
				<g>
					<g>
						<path class="st194" d="M61.99,8.02l0.23-0.57c0,0,1.83-0.87,1.85-0.89c0.02-0.02,0.83-0.85,0.83-0.85l-1.25,0.36l-1.91,0.99
							L61.99,8.02z"/>
					</g>
				</g>
			</g>
		</g>
		<g>
			<g>
				<g>
					<g>
						<polygon class="st195" points="60.94,6.22 64.89,5.7 61.74,7.04 						"/>
					</g>
				</g>
			</g>
		</g>
		<g>
			<g>
				<g>
					<g>
						<polygon class="st195" points="62.22,7.44 63.06,8.32 64.89,5.7 						"/>
					</g>
				</g>
			</g>
		</g>
	</g>
	<g>
		<g>
			<g>
				<g>
					<g>
						<g>
							<g>
								<path class="st219" d="M123.21,94.16c0,0,0.34-4.72,2.17-3.81c1.83,0.92,3.33,6.94,3.53,7.12c0.2,0.18,0.14,5.68,0.14,5.68
									l-2.13-1.08C126.91,102.07,126.35,88.92,123.21,94.16z"/>
							</g>
						</g>
					</g>
				</g>
			</g>
			<g>
				<g>
					<g>
						<g>
							<g>
								<path class="st195" d="M125.26,84.38c0,0,4.11,3.68,5.23,9.98c1.12,6.3-2.42,8.16-2.42,8.16S127.57,89.26,125.26,84.38z"/>
							</g>
						</g>
					</g>
				</g>
			</g>
			<g>
				<g>
					<g>
						<g>
							<g>
								<path class="st219" d="M132.88,103.37c0,0,0.69-13.42,4.16-19.24c0,0-6.09,3.63-8.11,13.17c-0.11,0.54-0.18,1.13-0.27,1.71
									c-0.09,0.6-0.14,1.13-0.13,1.66c0.02,0.93,0.15,1.74,0.19,2.33C129.06,108.08,132.88,103.37,132.88,103.37z"/>
							</g>
						</g>
					</g>
				</g>
			</g>
			<g>
				<g>
					<g>
						<g>
							<g>
								<path class="st195" d="M132.77,97.67c0.24-1.91,0.96-3.74,2.13-5.27c0.84-1.11,1.82-1.95,2.58-1.35
									c1.69,1.34,2.03,9.63,2.03,9.63s-1.91-5.74-2.75-5.36c-0.84,0.38-1.61,8.17-1.61,8.17l-3.13,0.26L132.77,97.67z"/>
							</g>
						</g>
					</g>
				</g>
			</g>
			<g>
				<g>
					<g>
						<g>
							<g>
								<path class="st205" d="M128.5,102.9c-0.13-2.93,0.24-5.74,1.09-8.36c0.68-2.09,1.68-4.07,2.95-5.86
									c2.17-3.06,4.45-4.58,4.47-4.59l0.06,0.08c-0.02,0.01-2.28,1.52-4.45,4.57c-2,2.81-4.31,7.55-4.02,14.16L128.5,102.9z"/>
							</g>
						</g>
					</g>
				</g>
			</g>
			<g>
				<g>
					<g>
						<g>
							<g>
								<path class="st205" d="M128.02,102.52c0-0.03-0.13-3.36-0.54-7.24c-0.38-3.58-1.08-8.37-2.26-10.89l0.09-0.04
									c1.19,2.53,1.89,7.33,2.27,10.92c0.41,3.88,0.54,7.21,0.54,7.24L128.02,102.52z"/>
							</g>
						</g>
					</g>
				</g>
			</g>
			<g>
				<g>
					<g>
						<g>
							<g>
								<path class="st205" d="M126.86,102.07c0-0.02-0.1-2.18-0.41-4.37c-0.42-2.88-1.02-4.5-1.75-4.69
									c-0.43-0.11-0.92,0.28-1.45,1.17l-0.09-0.05c0.56-0.93,1.09-1.34,1.57-1.21c0.78,0.2,1.39,1.8,1.82,4.77
									c0.32,2.2,0.41,4.36,0.42,4.38L126.86,102.07z"/>
							</g>
						</g>
					</g>
				</g>
			</g>
			<g>
				<g>
					<g>
						<g>
							<g>
								<path class="st205" d="M132.07,103.75l-0.1-0.01l0.75-6.08c0.24-1.94,0.98-3.77,2.14-5.3c0.74-0.97,1.39-1.49,1.94-1.56
									c0.26-0.03,0.5,0.04,0.71,0.2c0.71,0.56,1.28,2.36,1.67,5.35c0.29,2.22,0.38,4.3,0.38,4.32l-0.1,0
									c0-0.08-0.36-8.28-2.01-9.59c-0.19-0.15-0.41-0.21-0.64-0.18c-0.52,0.07-1.15,0.58-1.87,1.52
									c-1.15,1.51-1.88,3.33-2.12,5.25L132.07,103.75z"/>
							</g>
						</g>
					</g>
				</g>
			</g>
			<g>
				<g>
					<g>
						<g>
							<g>
								
									<rect x="134.32" y="96.87" transform="matrix(0.459 -0.8884 0.8884 0.459 -13.0514 172.4009)" class="st205" width="1.43" height="0.1"/>
							</g>
						</g>
					</g>
				</g>
			</g>
			<g>
				<g>
					<g>
						<g>
							<g>
								
									<rect x="134.36" y="97.69" transform="matrix(0.4821 -0.8761 0.8761 0.4821 -15.6922 168.9298)" class="st205" width="1.36" height="0.1"/>
							</g>
						</g>
					</g>
				</g>
			</g>
			<g>
				<g>
					<g>
						<g>
							<g>
								
									<rect x="128.22" y="88.62" transform="matrix(0.9101 -0.4145 0.4145 0.9101 -25.4737 61.1949)" class="st205" width="0.1" height="1.36"/>
							</g>
						</g>
					</g>
				</g>
			</g>
			<g>
				<g>
					<g>
						<g>
							<g>
								
									<rect x="128.26" y="89.58" transform="matrix(0.8747 -0.4846 0.4846 0.8747 -27.5792 73.4658)" class="st205" width="0.1" height="0.99"/>
							</g>
						</g>
					</g>
				</g>
			</g>
			<g>
				<g>
					<g>
						<g>
							<g>
								
									<rect x="125.3" y="90.55" transform="matrix(0.4541 -0.8909 0.8909 0.4541 -12.7314 161.4027)" class="st205" width="0.1" height="1.07"/>
							</g>
						</g>
					</g>
				</g>
			</g>
			<g>
				<g>
					<g>
						<g>
							<g>
								
									<rect x="125.49" y="91.25" transform="matrix(0.5198 -0.8543 0.8543 0.5198 -17.9483 151.2254)" class="st205" width="0.1" height="0.66"/>
							</g>
						</g>
					</g>
				</g>
			</g>
		</g>
		<g>
			<g>
				<g>
					<g>
						<g>
							<path class="st225" d="M125.83,101.73c0,0,0.18,9.81,2.81,9.58h2.07h0.33h2.07c2.63,0.23,2.81-9.58,2.81-9.58
								C133.42,101.35,128.31,101.35,125.83,101.73z"/>
						</g>
					</g>
				</g>
			</g>
		</g>
		<g>
			<g>
				<g>
					<g>
						<g>
							
								<rect x="131.37" y="104.49" transform="matrix(0.6876 -0.7261 0.7261 0.6876 -34.2119 129.561)" class="st205" width="4.18" height="0.1"/>
						</g>
					</g>
				</g>
			</g>
		</g>
		<g>
			<g>
				<g>
					<g>
						<g>
							
								<rect x="132.05" y="105.83" transform="matrix(0.656 -0.7547 0.7547 0.656 -34.0773 136.9905)" class="st205" width="2.41" height="0.1"/>
						</g>
					</g>
				</g>
			</g>
		</g>
	</g>
</g>
</svg>
