<?xml version="1.0" encoding="utf-8"?>
<!-- Generator: Adobe Illustrator 25.3.1, SVG Export Plug-In . SVG Version: 6.00 Build 0)  -->
<svg version="1.1" id="Layer_1" xmlns="http://www.w3.org/2000/svg" xmlns:xlink="http://www.w3.org/1999/xlink" x="0px" y="0px"
	 viewBox="0 0 113.91 116.79" style="enable-background:new 0 0 113.91 116.79;" xml:space="preserve">
<style type="text/css">
	.st0{fill:#24487F;}
	.st1{fill:#8E8E8E;}
	.st2{fill:#FFFFFF;stroke:#8E8E8E;stroke-linecap:round;stroke-miterlimit:10;}
	.st3{fill:#FFFFFF;}
	.st4{fill:#4DB5D1;}
	.st5{fill:#60934D;}
	.st6{fill:#FFFFFF;stroke:#5F934D;stroke-linecap:round;stroke-miterlimit:10;}
	.st7{fill:#23497F;}
	.st8{fill:#FFFFFF;stroke:#23497F;stroke-linecap:round;stroke-miterlimit:10;}
	.st9{fill:url(#SVGID_1_);}
	.st10{fill:url(#SVGID_2_);}
	.st11{fill:url(#SVGID_3_);}
	.st12{fill:url(#SVGID_4_);}
	.st13{fill:#397BBF;}
	.st14{fill:#1466B1;}
	.st15{fill:#054F8C;}
	.st16{fill:url(#SVGID_5_);}
	.st17{fill:#EFA986;}
	.st18{fill:#152B3D;}
	.st19{fill:#62A9DC;}
	.st20{fill:#977332;}
	.st21{fill:#264480;}
	.st22{fill:#363B3D;}
	.st23{fill:#E45354;}
	.st24{fill:#F5F6F6;}
	.st25{fill:#1A5A8D;}
	.st26{fill:#2274B5;}
	.st27{fill:#3A88C8;}
	.st28{fill:#E3F3FC;}
	.st29{fill:#C5CCD1;}
	.st30{fill:#2A2C47;}
	.st31{fill:#E2D2CA;}
	.st32{fill:#434873;}
	.st33{fill:#3B4048;}
	.st34{fill:#323757;}
	.st35{fill:#81A358;}
	.st36{fill:#71A341;}
	.st37{fill:#618A3C;}
	.st38{fill:#87BD43;}
	.st39{fill:#7BA840;}
	.st40{fill:#70A341;}
	.st41{fill:#6A943E;}
	.st42{fill:#B2CF43;}
	.st43{fill:#9FB34D;}
	.st44{fill:url(#SVGID_6_);}
	.st45{filter:url(#Adobe_OpacityMaskFilter);}
	.st46{filter:url(#Adobe_OpacityMaskFilter_1_);}
	.st47{mask:url(#SVGID_7_);fill:url(#SVGID_8_);}
	.st48{fill:url(#SVGID_9_);}
	.st49{fill:#464443;}
	.st50{fill:#928783;}
	.st51{fill:#1D3C55;}
	.st52{fill:#152C3D;}
	.st53{fill:#A77961;}
	.st54{fill:#D8E9F7;}
	.st55{fill:#BFB2AC;}
	.st56{fill:#FED1A2;}
	.st57{fill:#B37953;}
	.st58{fill:#D6995E;}
	.st59{fill:#807167;}
	.st60{fill:#6E6760;}
	.st61{fill:#928880;}
	.st62{fill:#BC8552;}
	.st63{filter:url(#Adobe_OpacityMaskFilter_2_);}
	.st64{filter:url(#Adobe_OpacityMaskFilter_3_);}
	.st65{mask:url(#SVGID_10_);fill:url(#SVGID_11_);}
	.st66{fill:url(#SVGID_12_);}
	.st67{filter:url(#Adobe_OpacityMaskFilter_4_);}
	.st68{filter:url(#Adobe_OpacityMaskFilter_5_);}
	.st69{mask:url(#SVGID_13_);fill:url(#SVGID_14_);}
	.st70{fill:url(#SVGID_15_);}
	.st71{fill:#C3C8E5;}
	.st72{opacity:0.3;}
	.st73{fill:#F4F6FB;}
	.st74{fill:#E8E8F2;}
	.st75{fill:#D7D6E6;}
	.st76{fill:#F3F4F7;}
	.st77{fill:#FCFDFD;}
	.st78{filter:url(#Adobe_OpacityMaskFilter_6_);}
	.st79{mask:url(#SVGID_16_);}
	.st80{fill:#3F54A5;}
	.st81{fill:#A5A7D4;}
	.st82{fill:#B4BBDF;}
	.st83{fill:url(#SVGID_17_);}
	.st84{fill:#CED0E4;}
	.st85{fill:#EDF0F9;}
	.st86{opacity:0.5;fill:#CFD2D3;}
	.st87{opacity:0.5;fill:#A5A7AA;}
	.st88{fill:#332566;}
	.st89{fill:#FAAE42;}
	.st90{fill:#DFDFDE;}
	.st91{fill:#F6C6B1;}
	.st92{fill:#E8B8A9;}
	.st93{fill:#3D4592;}
	.st94{fill:url(#SVGID_18_);}
	.st95{fill:url(#SVGID_19_);}
	.st96{fill:url(#SVGID_20_);}
	.st97{fill:#112F41;}
	.st98{opacity:0.5;fill:#BDBCD8;}
	.st99{opacity:0.2;fill:#ED5B2A;}
	.st100{fill-rule:evenodd;clip-rule:evenodd;fill:#3E55A5;}
	.st101{fill:#2C1C28;}
	.st102{fill:#EE7762;}
	.st103{opacity:0.25;fill:#ED5B2A;}
	.st104{fill:#CD3046;}
	.st105{fill:#282B70;}
	.st106{fill:url(#SVGID_21_);}
	.st107{fill:url(#SVGID_22_);}
	.st108{fill:#212B46;}
	.st109{fill:#D2D2E9;}
	.st110{fill:#8F95CA;}
	.st111{fill:#BDBCD8;}
	.st112{fill:#F2F7F6;}
	.st113{fill:#C9C8DF;}
	.st114{fill:#E3E3EE;}
	.st115{fill:#FAF0F7;}
	.st116{fill:#FFFCFD;}
	.st117{fill:#E4A28B;}
	.st118{opacity:0.05;fill:#010101;}
	.st119{fill:#D9DDEC;}
	.st120{fill:#C6CBE7;}
	.st121{fill:#8A97CC;}
	.st122{fill:#DFE4F3;}
	.st123{fill:#D5A393;}
	.st124{fill:#182540;}
	.st125{fill:url(#SVGID_23_);}
	.st126{fill:#F1A993;}
	.st127{fill:#687094;}
	.st128{fill:#D7DBEF;}
	.st129{fill:#F4F4F8;}
	.st130{fill:#B2B9DE;}
	.st131{fill:#4D60AC;}
	.st132{fill:#8E97CB;}
	.st133{fill:#BCC6E5;}
	.st134{fill:#AAB9DF;}
	.st135{fill:#FFFBFD;}
	.st136{fill:#34479E;}
	.st137{opacity:0.2;}
	.st138{fill:#60848C;}
	.st139{fill:url(#SVGID_24_);}
	.st140{fill:#F36E5C;}
	.st141{fill:#85BEE7;}
	.st142{fill:#908F8F;}
	.st143{fill:#F1F0F0;}
	.st144{fill:url(#SVGID_25_);}
	.st145{fill:#CCCCCC;}
	.st146{fill:#F6F7FB;}
	.st147{fill:#E6E6E5;}
	.st148{fill:#F3F3F3;}
	.st149{fill:#EFF0F7;}
	.st150{fill:url(#SVGID_26_);}
	.st151{fill:url(#SVGID_27_);}
	.st152{fill:url(#SVGID_28_);}
	.st153{fill:url(#SVGID_29_);}
	.st154{fill:url(#SVGID_30_);}
	.st155{fill:url(#SVGID_31_);}
	.st156{fill:#3D426A;}
	.st157{fill:#252840;}
	.st158{fill:#C4B4AF;}
	.st159{fill:#EA4747;}
	.st160{fill:#6B7BBC;}
	.st161{fill:#5266AF;}
	.st162{fill:#5062AD;}
	.st163{fill:#EDDAD3;}
	.st164{fill:#DECDC7;}
	.st165{fill:#E3D1CA;}
	.st166{fill:#B39595;}
	.st167{fill:#DBB8B8;}
	.st168{fill:#F1CCCB;}
	.st169{fill:#323538;}
	.st170{fill:#EFAA88;}
	.st171{fill:#1D2133;}
	.st172{fill:#EFAA87;}
	.st173{fill:#D88A51;}
	.st174{fill:#C68D71;}
	.st175{fill:#A19FA7;}
	.st176{fill:#EAE6F1;}
	.st177{fill:#3B4167;}
	.st178{fill:#DE9674;}
	.st179{fill:#764937;}
	.st180{fill:#5D554E;}
	.st181{fill:#3D4246;}
	.st182{fill:#FFD356;}
	.st183{fill:url(#SVGID_32_);}
	.st184{fill:url(#SVGID_33_);}
	.st185{fill:url(#SVGID_34_);}
	.st186{fill:url(#SVGID_35_);}
	.st187{fill:url(#SVGID_36_);}
	.st188{fill:url(#SVGID_37_);}
	.st189{opacity:0.5;}
	.st190{fill:#FCEACF;}
	.st191{opacity:0.8;}
	.st192{fill:#D4EEF6;}
	.st193{fill:#3AA1C9;}
	.st194{fill:#3F9896;}
	.st195{fill:#7FC6A6;}
	.st196{fill:#DEF2FD;}
	.st197{fill:#223849;}
	.st198{fill:#B4E3F7;}
	.st199{fill:#F89F74;}
	.st200{fill:#E33F3E;}
	.st201{fill:#482B32;}
	.st202{fill:#D8E4F4;}
	.st203{fill:#683E47;}
	.st204{fill:#3788BA;}
	.st205{fill:#22131E;}
	.st206{fill:#FAB59D;}
	.st207{fill:#CC2327;}
	.st208{fill:#E2F3F1;}
	.st209{fill:#F07163;}
	.st210{fill:#49273F;}
	.st211{fill:#4C232E;}
	.st212{fill:#010101;}
	.st213{fill:#F7956E;}
	.st214{fill:#F68D64;}
	.st215{fill:#F27584;}
	.st216{fill:#4EB8D9;}
	.st217{fill:#EF4751;}
	.st218{fill:#ACC7E8;}
	.st219{fill:#268E8D;}
	.st220{fill:#3A1F33;}
	.st221{fill:#FECC87;}
	.st222{fill:#FBB359;}
	.st223{fill:#331A2C;}
	.st224{fill:#FDC886;}
	.st225{fill:#F7934B;}
	.st226{fill:#F04D65;}
	.st227{fill:#F6D6B2;}
	.st228{fill:#61A3C5;}
	.st229{fill:#B1D89B;}
	.st230{fill:#A8C8E5;}
	.st231{fill:#C1D1EC;}
	.st232{fill:#F2AC40;}
	.st233{fill:#3B57A6;}
	.st234{fill:#C2D5EE;}
	.st235{fill:#A9C4E6;}
	.st236{fill:#2D572A;}
	.st237{fill:#274392;}
	.st238{fill:#95B0DB;}
	.st239{fill:#BFBFBF;}
	.st240{fill:#E9F3FB;}
	.st241{fill:#6B81C0;}
	.st242{fill:#8FB1DD;}
	.st243{fill:#F58765;}
	.st244{fill:#2C1913;}
	.st245{fill:#6A3F31;}
	.st246{fill:#F37559;}
	.st247{fill:#F47A55;}
	.st248{fill:#E0B3A8;}
	.st249{fill:#D9D9D9;}
	.st250{fill:#C6DD74;}
	.st251{fill:#9FCB5F;}
	.st252{fill:#7C9D48;}
	.st253{fill:#E7E7E7;}
	.st254{fill:#F2C791;}
	.st255{fill:#B7B7B7;}
	.st256{fill:#7595CD;}
	.st257{fill:#FAB18D;}
	.st258{fill:#F6977C;}
	.st259{fill:#D1E28C;}
	.st260{fill:none;}
	.st261{fill:#1B1B1C;}
	.st262{fill:#F47E46;}
	.st263{fill:#EB6828;}
	.st264{fill:#F79668;}
	.st265{fill:#E6B54E;}
	.st266{fill:#676767;}
	.st267{fill:#4D4C4C;}
	.st268{fill:#F27070;}
	.st269{fill:#C24D4D;}
	.st270{enable-background:new    ;}
	.st271{fill:#C39B6A;}
	.st272{fill:#C9A475;}
	.st273{fill:#E6B880;}
	.st274{fill:#9F3D3E;}
	.st275{fill:#FFD679;}
	.st276{fill:#F4805D;}
	.st277{fill:#DA5958;}
	.st278{fill:#7D3D20;}
	.st279{fill:#562915;}
	.st280{fill:#B15931;}
	.st281{fill:#5076BA;}
	.st282{fill:#59ADC0;}
	.st283{fill:#099895;}
	.st284{fill:#F5AE87;}
	.st285{fill:#D9504F;}
	.st286{fill:#FCC79A;}
	.st287{fill:#FFDC7B;}
	.st288{fill:#F15958;}
	.st289{fill:#674E46;}
	.st290{fill:#785D51;}
	.st291{clip-path:url(#SVGID_39_);fill:#60934D;}
	.st292{clip-path:url(#SVGID_39_);}
	.st293{fill:#BD725F;}
	.st294{fill:#E6F1D1;}
	.st295{fill:#A86046;}
	.st296{fill:#3C251D;}
	.st297{fill:#4A413F;}
	.st298{fill:#716765;}
	.st299{fill:#EEBD7F;}
	.st300{fill:#7DA594;}
	.st301{fill:#252433;}
	.st302{fill:#F7E6C7;}
	.st303{fill:#E79F90;}
	.st304{fill:#CC4A38;}
	.st305{fill:#333333;}
	.st306{fill:#E1755E;}
	.st307{fill:#E8A180;}
	.st308{fill:#694136;}
	.st309{fill:#C06360;}
	.st310{fill:#CD5A5A;}
	.st311{fill:#E17660;}
	.st312{opacity:0.42;}
	.st313{fill-rule:evenodd;clip-rule:evenodd;fill:#B1D89B;}
	.st314{clip-path:url(#SVGID_41_);fill:#92B779;}
	.st315{clip-path:url(#SVGID_43_);fill:url(#SVGID_44_);}
	.st316{fill-rule:evenodd;clip-rule:evenodd;fill:#60934D;}
	.st317{clip-path:url(#SVGID_46_);fill:url(#SVGID_47_);}
	.st318{fill-rule:evenodd;clip-rule:evenodd;fill:#274CA1;}
	.st319{clip-path:url(#SVGID_49_);fill:url(#SVGID_50_);}
	.st320{clip-path:url(#SVGID_52_);fill:url(#SVGID_53_);}
	.st321{fill-rule:evenodd;clip-rule:evenodd;fill:#F3AF8F;}
	.st322{fill-rule:evenodd;clip-rule:evenodd;fill:#6E2D5F;}
	.st323{fill-rule:evenodd;clip-rule:evenodd;fill:#4D1942;}
	.st324{fill-rule:evenodd;clip-rule:evenodd;fill:#101841;}
	.st325{fill-rule:evenodd;clip-rule:evenodd;fill:#144984;}
	.st326{fill-rule:evenodd;clip-rule:evenodd;fill:#35AD82;}
	.st327{fill-rule:evenodd;clip-rule:evenodd;fill:#198C67;}
	.st328{fill-rule:evenodd;clip-rule:evenodd;fill:#F6C1C5;}
	.st329{fill-rule:evenodd;clip-rule:evenodd;fill:#53B9E9;}
	.st330{fill-rule:evenodd;clip-rule:evenodd;fill:#7DD3F7;}
	.st331{clip-path:url(#SVGID_55_);fill:url(#SVGID_56_);}
	.st332{clip-path:url(#SVGID_58_);fill:url(#SVGID_59_);}
	.st333{fill-rule:evenodd;clip-rule:evenodd;fill:#3DB4E8;}
	.st334{clip-path:url(#SVGID_61_);fill:url(#SVGID_62_);}
	.st335{fill-rule:evenodd;clip-rule:evenodd;fill:#F4FBFE;}
	.st336{fill-rule:evenodd;clip-rule:evenodd;fill:#F4B1B1;}
	.st337{fill-rule:evenodd;clip-rule:evenodd;fill:#D4EAD8;}
	.st338{fill-rule:evenodd;clip-rule:evenodd;fill:#E16C6C;}
	.st339{clip-path:url(#SVGID_64_);fill:url(#SVGID_65_);}
	.st340{clip-path:url(#SVGID_67_);fill:url(#SVGID_68_);}
	.st341{clip-path:url(#SVGID_70_);fill:url(#SVGID_71_);}
	.st342{clip-path:url(#SVGID_73_);fill:url(#SVGID_74_);}
	.st343{clip-path:url(#SVGID_76_);fill:url(#SVGID_77_);}
	.st344{fill-rule:evenodd;clip-rule:evenodd;fill:#316CB5;}
	.st345{clip-path:url(#SVGID_79_);fill:url(#SVGID_80_);}
	.st346{fill-rule:evenodd;clip-rule:evenodd;fill:#DF5D7B;}
	.st347{clip-path:url(#SVGID_82_);fill:url(#SVGID_83_);}
	.st348{fill-rule:evenodd;clip-rule:evenodd;fill:#2D572A;}
	.st349{clip-path:url(#SVGID_85_);fill:#60934D;}
	.st350{clip-path:url(#SVGID_87_);fill:url(#SVGID_88_);}
	.st351{clip-path:url(#SVGID_90_);fill:url(#SVGID_91_);}
	.st352{clip-path:url(#SVGID_93_);fill:url(#SVGID_94_);}
	.st353{fill:url(#SVGID_95_);}
	.st354{filter:url(#Adobe_OpacityMaskFilter_7_);}
	.st355{filter:url(#Adobe_OpacityMaskFilter_8_);}
	.st356{mask:url(#SVGID_96_);fill:url(#SVGID_97_);}
	.st357{fill:url(#SVGID_98_);}
	.st358{fill:none;stroke:#FFFFFF;stroke-miterlimit:10;}
	.st359{fill:url(#SVGID_99_);}
	.st360{filter:url(#Adobe_OpacityMaskFilter_9_);}
	.st361{filter:url(#Adobe_OpacityMaskFilter_10_);}
	.st362{mask:url(#SVGID_100_);fill:url(#SVGID_101_);}
	.st363{fill:url(#SVGID_102_);}
	.st364{fill:url(#SVGID_103_);}
	.st365{filter:url(#Adobe_OpacityMaskFilter_11_);}
	.st366{filter:url(#Adobe_OpacityMaskFilter_12_);}
	.st367{mask:url(#SVGID_104_);fill:url(#SVGID_105_);}
	.st368{fill:url(#SVGID_106_);}
	.st369{fill:url(#SVGID_107_);}
	.st370{filter:url(#Adobe_OpacityMaskFilter_13_);}
	.st371{filter:url(#Adobe_OpacityMaskFilter_14_);}
	.st372{mask:url(#SVGID_108_);fill:url(#SVGID_109_);}
	.st373{fill:url(#SVGID_110_);}
	.st374{fill:url(#SVGID_111_);}
	.st375{fill:url(#SVGID_112_);}
	.st376{fill:url(#SVGID_113_);}
	.st377{fill:url(#SVGID_114_);}
	.st378{fill:url(#SVGID_115_);}
	.st379{fill:url(#SVGID_116_);}
	.st380{fill:#FBC5B4;}
	.st381{fill:url(#SVGID_117_);}
	.st382{fill:url(#SVGID_118_);}
	.st383{filter:url(#Adobe_OpacityMaskFilter_15_);}
	.st384{filter:url(#Adobe_OpacityMaskFilter_16_);}
	.st385{mask:url(#SVGID_119_);fill:url(#SVGID_120_);}
	.st386{fill:url(#SVGID_121_);}
	.st387{fill:url(#SVGID_122_);}
	.st388{filter:url(#Adobe_OpacityMaskFilter_17_);}
	.st389{filter:url(#Adobe_OpacityMaskFilter_18_);}
	.st390{mask:url(#SVGID_123_);fill:url(#SVGID_124_);}
	.st391{fill:url(#SVGID_125_);}
	.st392{fill:url(#SVGID_126_);}
	.st393{fill:#F69575;}
	.st394{fill:url(#SVGID_127_);}
	.st395{fill:url(#SVGID_128_);}
	.st396{fill:url(#SVGID_129_);}
	.st397{fill:url(#SVGID_130_);}
	.st398{fill:url(#SVGID_131_);}
	.st399{fill:#F05253;}
	.st400{fill:#ED1C24;}
	.st401{fill:url(#SVGID_132_);}
	.st402{fill:url(#SVGID_133_);}
	.st403{fill:url(#SVGID_134_);}
	.st404{fill:url(#SVGID_135_);}
	.st405{fill:url(#SVGID_136_);}
	.st406{fill:url(#SVGID_137_);}
	.st407{fill:#FDC78D;}
	.st408{fill:#FFD10A;}
	.st409{fill:url(#SVGID_138_);}
	.st410{fill:url(#SVGID_139_);}
	.st411{fill:url(#SVGID_140_);}
	.st412{fill:#6899D1;}
	.st413{fill:#F4F4F4;}
	.st414{fill:#DAEEF6;}
	.st415{fill:url(#SVGID_141_);}
	.st416{fill:#85CEC1;}
	.st417{fill:url(#SVGID_142_);}
	.st418{fill:#F37878;}
	.st419{fill:url(#SVGID_143_);}
	.st420{fill:url(#SVGID_144_);}
	.st421{fill:url(#SVGID_145_);}
	.st422{fill:url(#SVGID_146_);}
	.st423{fill:url(#SVGID_147_);}
	.st424{fill:url(#SVGID_148_);}
	.st425{fill:url(#SVGID_149_);}
	.st426{fill:url(#SVGID_150_);}
	.st427{fill:url(#SVGID_151_);}
	.st428{fill:url(#SVGID_152_);}
	.st429{fill:url(#SVGID_153_);}
	.st430{fill:#F0EFEF;}
	.st431{fill:#DBD7D7;}
	.st432{fill:#63C7D3;}
	.st433{opacity:0.5;fill:#63C7D3;}
	.st434{fill:#E6E7F4;}
	.st435{fill:#23214D;}
	.st436{fill:#283996;}
	.st437{fill:#1B193A;}
	.st438{fill:#F68D63;}
	.st439{fill:#F9A575;}
	.st440{fill:#FEDA04;}
	.st441{fill:#312126;}
	.st442{fill:#F15F4B;}
	.st443{fill:#F15834;}
	.st444{fill:#EC4524;}
	.st445{fill:#F26B76;}
	.st446{fill:#4D5BA9;}
	.st447{fill:#2D327E;}
	.st448{fill:#39469D;}
	.st449{fill:#9AC181;}
	.st450{fill:#7ED0DC;}
	.st451{display:none;}
	.st452{display:inline;fill:#F9A575;}
	.st453{display:inline;}
	.st454{fill:#673A3C;}
	.st455{fill:#794447;}
	.st456{fill:#47222C;}
	.st457{fill:#29275C;}
	.st458{fill:#57B0B9;}
	.st459{fill:#EF434E;}
	.st460{fill:#E24826;}
	.st461{fill:#4754A5;}
	.st462{fill:#B6C153;}
	.st463{fill:#DD4361;}
	.st464{fill:#FBB67B;}
	.st465{fill:#F6EEEA;}
	.st466{fill:#251D1C;}
	.st467{fill:#E0B895;}
	.st468{fill:#DFB793;}
	.st469{fill:#B8A79D;}
	.st470{fill:#9B93C7;}
	.st471{fill:#6A8037;}
	.st472{fill:#E9633E;}
	.st473{fill:#F6936F;}
	.st474{fill:#DBD8EC;}
	.st475{fill:#221A19;}
	.st476{fill:#382621;}
	.st477{fill:#F7EFEC;}
	.st478{fill:#FBB67C;}
	.st479{fill:#70CACA;}
	.st480{fill:#004669;}
	.st481{fill:#33ADA9;}
	.st482{fill:#EE777A;}
	.st483{fill:#C3E8F0;}
	.st484{fill:#C39C44;}
	.st485{fill:#FFE6B0;}
	.st486{fill:#FFCB5D;}
	.st487{fill:#D2EDF5;}
	.st488{fill:none;stroke:#D2EDF5;stroke-width:2.2824;stroke-miterlimit:10;}
	.st489{fill:#0F4672;}
	.st490{fill:#92B779;}
	.st491{fill:#D47C60;}
	.st492{fill:#054A6E;}
	.st493{fill:#2B9996;}
	.st494{fill:#CAE9EB;}
	.st495{fill:#F7A581;}
	.st496{fill:#F18D24;}
	.st497{fill:#CF7929;}
	.st498{fill:#182F40;}
	.st499{fill:#0E1B2D;}
	.st500{fill:#406E34;}
	.st501{fill:#3B83B0;}
	.st502{fill:#3B3F4A;}
	.st503{fill:#242930;}
	.st504{fill:#FBD165;}
	.st505{fill:#FCB017;}
	.st506{fill:#155567;}
	.st507{fill:#236A7E;}
	.st508{fill:#3096B3;}
	.st509{fill:#84D2F6;}
	.st510{fill:#C4E4F8;}
	.st511{fill:#FCB774;}
	.st512{fill:#FAA31B;}
	.st513{fill:#E38D25;}
	.st514{fill:#AADFF3;}
	.st515{fill:#126E84;}
	.st516{fill:#064A56;}
	.st517{fill:#096D84;}
	.st518{fill:#D3CED9;}
	.st519{fill:#D89466;}
	.st520{fill:#FAA61A;}
	.st521{fill:#AA6549;}
	.st522{fill:#B35143;}
	.st523{fill:#3B3E54;}
	.st524{fill:#8A432D;}
	.st525{fill:#4C2F2C;}
	.st526{fill:#3C1C19;}
	.st527{fill:#9889C1;}
	.st528{fill:#CC8759;}
	.st529{fill:#665DA9;}
	.st530{fill:#5C2B20;}
	.st531{fill:#F4F5F0;}
	.st532{fill:#E04A95;}
	.st533{fill:#BC6944;}
	.st534{fill:#673021;}
	.st535{fill:#C4C2DF;}
	.st536{fill:#342B29;}
	.st537{fill:#E69F6F;}
	.st538{fill:#F173AC;}
	.st539{fill:#FAA43A;}
	.st540{fill:#F7F7FA;}
	.st541{fill:#3F4076;}
	.st542{fill:#5CA4DA;}
	.st543{fill:#BBD071;}
	.st544{fill:#97A33B;}
	.st545{fill:#49763A;}
	.st546{fill:#E5F2FC;}
	.st547{opacity:0.85;}
	.st548{fill:#4692CF;}
	.st549{fill:#0E2D3D;}
	.st550{fill:#5478B4;}
	.st551{fill:#5B83C3;}
	.st552{fill:#304664;}
	.st553{fill:#364D71;}
	.st554{fill:#2C3B57;}
	.st555{fill:#D5D8E8;}
	.st556{opacity:0.82;}
	.st557{fill:#418ECC;}
	.st558{fill:#173342;}
	.st559{fill:#295274;}
	.st560{fill:#F47D58;}
	.st561{fill:#183C59;}
	.st562{fill:#616262;}
	.st563{fill:#E0CFC8;}
	.st564{fill:#64A8DC;}
	.st565{opacity:0.66;}
	.st566{fill:#CBE1F5;}
	.st567{fill:#8CB6E1;}
	.st568{fill:#B5D3EF;}
	.st569{fill:#B8D8F2;}
	.st570{fill:#92B4DF;}
	.st571{fill:#BBDDDE;}
	.st572{fill:#D1ECED;}
	.st573{fill:#C8CBE2;}
	.st574{fill:#669AD2;}
	.st575{fill:#4D84C5;}
	.st576{fill:#181C4D;}
	.st577{fill:#EFBBBB;}
	.st578{fill:#F9CBCB;}
	.st579{fill:#2B3874;}
	.st580{fill:#EBAEAD;}
	.st581{fill:#21295D;}
	.st582{fill:#31344D;}
	.st583{fill:#FCD4D1;}
	.st584{fill:#B95050;}
	.st585{fill:#FEE9E2;}
	.st586{fill:#181A2E;}
	.st587{fill:#EB9B9C;}
	.st588{fill:#F9B7B3;}
	.st589{fill:#444C86;}
	.st590{fill:#2B3367;}
	.st591{fill:#93BAE3;}
	.st592{fill:#4B80C1;}
	.st593{fill:#396CAD;}
	.st594{fill:#C0D9F1;}
	.st595{fill:#F9B4AF;}
	.st596{fill:#4E88C7;}
	.st597{fill:#195595;}
	.st598{fill:#D9475A;}
	.st599{fill:#1172BA;}
	.st600{fill:#247BBC;}
	.st601{fill:#FAA71F;}
	.st602{fill:#D55127;}
	.st603{fill:none;stroke:#212F57;stroke-width:0.925;stroke-miterlimit:10;}
	.st604{fill:#212F57;}
	.st605{opacity:0.5;fill:#838DC5;}
	.st606{fill:#F2C7BD;}
	.st607{fill:none;stroke:#212F57;stroke-width:1.2665;stroke-linecap:round;stroke-linejoin:round;stroke-miterlimit:10;}
	.st608{fill:#272A41;}
	.st609{fill:none;stroke:#E8B1C3;stroke-width:2.5241;stroke-miterlimit:10;}
	.st610{fill:#5160A5;}
	.st611{opacity:0.5;fill:#D55127;}
	.st612{opacity:0.5;fill:#DA8727;}
	.st613{opacity:0.7;}
	.st614{fill:#DA8727;}
	.st615{fill:#A3BDE3;}
	.st616{fill:#1B7A84;}
	.st617{fill:#B1D2EF;}
	.st618{fill:#F8ACAD;}
	.st619{opacity:0.63;}
	.st620{clip-path:url(#SVGID_155_);}
	.st621{fill:#D7E7F6;}
	.st622{clip-path:url(#SVGID_157_);}
	.st623{clip-path:url(#SVGID_159_);}
	.st624{clip-path:url(#SVGID_161_);}
	.st625{clip-path:url(#SVGID_163_);}
	.st626{clip-path:url(#SVGID_165_);}
	.st627{clip-path:url(#SVGID_167_);}
	.st628{clip-path:url(#SVGID_169_);}
	.st629{clip-path:url(#SVGID_171_);}
	.st630{clip-path:url(#SVGID_173_);}
	.st631{clip-path:url(#SVGID_175_);}
	.st632{clip-path:url(#SVGID_177_);}
	.st633{clip-path:url(#SVGID_179_);}
	.st634{clip-path:url(#SVGID_181_);}
	.st635{clip-path:url(#SVGID_183_);}
	.st636{clip-path:url(#SVGID_185_);}
	.st637{clip-path:url(#SVGID_187_);}
	.st638{clip-path:url(#SVGID_189_);}
	.st639{clip-path:url(#SVGID_191_);}
	.st640{clip-path:url(#SVGID_193_);}
	.st641{clip-path:url(#SVGID_195_);}
	.st642{fill:#89B2DF;}
	.st643{fill:#4377BC;}
	.st644{fill:#DA6566;}
	.st645{fill:#F58E92;}
	.st646{fill-rule:evenodd;clip-rule:evenodd;fill:#4DB5D1;}
	.st647{fill:#F15C60;}
	.st648{fill:#FFD574;}
	.st649{fill:#F2B892;}
	.st650{fill:#EB836C;}
	.st651{fill:url(#SVGID_196_);}
	.st652{fill:#222C55;}
	.st653{fill:#4551A3;}
	.st654{fill:url(#SVGID_197_);}
	.st655{fill:#0B3C5F;}
	.st656{fill:#F8A187;}
	.st657{fill:#F4B68F;}
	.st658{fill:#232850;}
	.st659{fill:#306D9E;}
	.st660{fill:#255981;}
	.st661{fill:#F69E83;}
	.st662{fill:#0B3D60;}
	.st663{opacity:0.45;fill:#89B2DF;}
	.st664{filter:url(#Adobe_OpacityMaskFilter_19_);}
	.st665{filter:url(#Adobe_OpacityMaskFilter_20_);}
	.st666{mask:url(#SVGID_198_);fill:url(#SVGID_199_);}
	.st667{opacity:0.33;fill:#AADFF3;}
	.st668{filter:url(#Adobe_OpacityMaskFilter_21_);}
	.st669{filter:url(#Adobe_OpacityMaskFilter_22_);}
	.st670{mask:url(#SVGID_200_);fill:url(#SVGID_201_);}
	.st671{filter:url(#Adobe_OpacityMaskFilter_23_);}
	.st672{filter:url(#Adobe_OpacityMaskFilter_24_);}
	.st673{mask:url(#SVGID_202_);fill:url(#SVGID_203_);}
	.st674{fill:#CFD8EE;}
	.st675{fill:#E3E6F4;}
	.st676{fill:#ABBADF;}
	.st677{fill:#C3CCE8;}
	.st678{fill:url(#SVGID_204_);}
	.st679{fill:url(#SVGID_205_);}
	.st680{fill:#D3D0E9;}
	.st681{fill:#078BBF;}
	.st682{fill:#057B97;}
	.st683{fill:url(#SVGID_206_);}
	.st684{fill:#C74534;}
	.st685{fill:#F27B66;}
	.st686{fill:#58449B;}
	.st687{fill:#6B52A2;}
	.st688{fill:#A9A6D2;}
	.st689{fill:#C4C0E0;}
	.st690{opacity:0.33;}
	.st691{opacity:0.23;fill:url(#SVGID_207_);}
	.st692{opacity:0.36;fill:url(#SVGID_208_);}
	.st693{opacity:0.36;fill:url(#SVGID_209_);}
	.st694{opacity:0.23;fill:url(#SVGID_210_);}
	.st695{fill:#D8E0F2;}
	.st696{opacity:0.36;fill:url(#SVGID_211_);}
	.st697{opacity:0.42;fill:url(#SVGID_212_);}
	.st698{fill:#F6F9FD;}
	.st699{fill:#049AC9;}
	.st700{fill:#E0E0E0;}
	.st701{fill:#EBEBEB;}
	.st702{fill:none;stroke:#F2A59D;stroke-width:0.05;stroke-miterlimit:10;}
	.st703{fill:#FAFBFB;}
	.st704{fill:#E7515B;}
	.st705{fill:#CFCFCE;}
	.st706{fill:#FBBD9D;}
	.st707{fill:#EC996F;}
	.st708{opacity:0.6;fill:#FFFFFF;}
	.st709{opacity:0.6;}
	.st710{fill:#263238;}
	.st711{fill:#455B64;}
	.st712{fill:none;stroke:#43494E;stroke-miterlimit:10;}
	.st713{fill:#F5F5F5;}
	.st714{fill:#F3725F;}
	.st715{opacity:0;}
	.st716{clip-path:url(#SVGID_214_);}
	.st717{fill:#C9D8EF;}
	.st718{clip-path:url(#SVGID_216_);}
	.st719{clip-path:url(#SVGID_218_);}
	.st720{clip-path:url(#SVGID_220_);}
	.st721{clip-path:url(#SVGID_222_);}
	.st722{clip-path:url(#SVGID_224_);}
	.st723{clip-path:url(#SVGID_226_);}
	.st724{clip-path:url(#SVGID_228_);}
	.st725{clip-path:url(#SVGID_230_);}
	.st726{clip-path:url(#SVGID_232_);}
	.st727{clip-path:url(#SVGID_234_);}
	.st728{clip-path:url(#SVGID_236_);}
	.st729{clip-path:url(#SVGID_238_);}
	.st730{clip-path:url(#SVGID_240_);}
	.st731{clip-path:url(#SVGID_242_);}
	.st732{clip-path:url(#SVGID_244_);}
	.st733{clip-path:url(#SVGID_246_);}
	.st734{clip-path:url(#SVGID_248_);}
	.st735{clip-path:url(#SVGID_250_);}
	.st736{clip-path:url(#SVGID_252_);}
	.st737{clip-path:url(#SVGID_254_);}
	.st738{fill:#59595B;}
	.st739{fill:#EDF7F7;}
	.st740{fill:#FDD247;}
	.st741{fill:#1D2040;}
	.st742{fill:url(#SVGID_255_);}
	.st743{fill:#F89A45;}
	.st744{fill:#4F2E1F;}
	.st745{fill:#AEADAD;}
	.st746{fill:#3C2116;}
	.st747{fill:#76696D;}
	.st748{fill:#DFB0B4;}
	.st749{fill:#0E4363;}
	.st750{fill:#F8F6F1;}
	.st751{fill:#A4BAE1;}
	.st752{fill:#4D1F38;}
	.st753{fill:#3A1528;}
	.st754{fill:#746875;}
	.st755{fill:#DAADD1;}
	.st756{fill:url(#SVGID_256_);}
	.st757{fill:#CD3570;}
	.st758{fill:url(#SVGID_257_);}
	.st759{fill:url(#SVGID_258_);}
	.st760{fill:#A09F9F;}
	.st761{fill:none;stroke:#FFFFFF;stroke-linecap:round;stroke-miterlimit:10;}
	.st762{fill:none;stroke:#FFFFFF;stroke-linecap:round;stroke-linejoin:round;stroke-miterlimit:10;}
	.st763{fill:none;stroke:#A09F9F;stroke-miterlimit:10;}
	.st764{fill:#7B553A;}
	.st765{fill:#5F422D;}
	.st766{fill:#FDB839;}
	.st767{fill:#401B0F;}
	.st768{fill:#034B4E;}
	.st769{opacity:0.36;}
	.st770{opacity:0.1;fill:#CFCFCE;}
	.st771{opacity:0.15;}
	.st772{fill:#FBB781;}
	.st773{fill:#49A8D5;}
	.st774{fill:#077679;}
	.st775{opacity:0.1;}
	.st776{fill:#BEE0C0;}
	.st777{opacity:0.23;fill:#245C74;}
	.st778{fill:#245C74;}
	.st779{fill:#FCC69B;}
	.st780{fill:#DBA285;}
	.st781{fill:#757576;}
	.st782{fill:#ABABAA;}
	.st783{fill:#6F6F71;}
	.st784{fill:#FFCA70;}
	.st785{fill:#FAA325;}
	.st786{fill:none;stroke:#077679;stroke-width:0.25;stroke-linecap:round;stroke-linejoin:round;stroke-miterlimit:10;}
	.st787{fill:#963A20;}
	.st788{fill:#E2E2E2;}
	.st789{fill:#18184B;}
	.st790{fill:#F8B6C9;}
	.st791{fill:#F58531;}
	.st792{fill:#759CD2;}
	.st793{fill:#BACFEB;}
</style>
<g>
	<g>
		<g>
			<path class="st141" d="M61.58,9.07c-0.23-0.91-0.59-1.77-1.06-2.56l1.08-1.62l-1.5-1.5l-1.5-1.5l-1.62,1.08
				c-0.79-0.47-1.65-0.83-2.56-1.06L54.04,0h-2.12h-2.12l-0.38,1.91c-0.91,0.23-1.77,0.6-2.56,1.06l-1.62-1.08l-1.5,1.5l-1.5,1.5
				l1.08,1.62c-0.47,0.79-0.83,1.65-1.06,2.56l-1.91,0.38v2.12v2.12l1.91,0.38c0.23,0.91,0.6,1.77,1.06,2.56l-1.08,1.62l1.5,1.5
				l1.5,1.5l1.62-1.08c0.79,0.47,1.65,0.83,2.56,1.06l0.38,1.91h2.12h2.12l0.38-1.91c0.91-0.23,1.77-0.6,2.56-1.06l1.62,1.08
				l1.5-1.5l1.5-1.5l-1.08-1.62c0.47-0.79,0.83-1.65,1.06-2.56l1.91-0.38v-2.12V9.45L61.58,9.07z M51.93,18.99
				c-4.1,0-7.42-3.32-7.42-7.42s3.32-7.42,7.42-7.42s7.42,3.32,7.42,7.42S56.02,18.99,51.93,18.99z"/>
		</g>
	</g>
	<g>
		<g>
			<g>
				<path class="st141" d="M46.68,37.99H15.92c-1.54,0-2.79-1.25-2.79-2.79V14.05c0-1.54,1.25-2.79,2.79-2.79h30.77
					c1.54,0,2.79,1.25,2.79,2.79V35.2C49.47,36.74,48.22,37.99,46.68,37.99z M15.92,11.45c-1.43,0-2.59,1.16-2.59,2.59V35.2
					c0,1.43,1.16,2.59,2.59,2.59h30.77c1.43,0,2.59-1.16,2.59-2.59V14.05c0-1.43-1.16-2.59-2.59-2.59H15.92z"/>
			</g>
		</g>
	</g>
	<g>
		<g>
			<rect x="21.65" y="25.5" class="st141" width="0.28" height="34.09"/>
		</g>
	</g>
	<g>
		<g>
			<path class="st542" d="M89.87,95.77h-1.94v-0.32h1.94V95.77z M86,95.77h-1.94v-0.32H86V95.77z M82.12,95.77h-1.94v-0.32h1.94
				V95.77z M78.25,95.77h-1.94v-0.32h1.94V95.77z M74.37,95.77h-1.94v-0.32h1.94V95.77z M70.49,95.77h-1.94v-0.32h1.94V95.77z
				 M66.62,95.77h-1.94v-0.32h1.94V95.77z M62.74,95.77H60.8v-0.32h1.94V95.77z M58.87,95.77h-1.94v-0.32h1.94V95.77z M54.99,95.77
				h-1.94v-0.32h1.94V95.77z M51.11,95.77h-1.94v-0.32h1.94V95.77z M47.24,95.77H45.3v-0.32h1.94V95.77z M43.36,95.77h-1.94v-0.32
				h1.94V95.77z M39.49,95.77h-1.94v-0.32h1.94V95.77z M35.61,95.77h-1.94v-0.32h1.94V95.77z M91.83,95.73l-0.05-0.32
				c0.61-0.1,1.19-0.35,1.68-0.74l0.2,0.25C93.13,95.34,92.5,95.62,91.83,95.73z M31.72,95.4c-0.61-0.29-1.14-0.73-1.53-1.29
				l0.26-0.19c0.36,0.51,0.84,0.92,1.4,1.18L31.72,95.4z M94.86,93.32l-0.3-0.12c0.18-0.43,0.26-0.89,0.26-1.36v-0.49h0.32v0.49
				C95.15,92.36,95.05,92.85,94.86,93.32z M29.49,92.24c-0.01-0.13-0.02-0.26-0.02-0.39v-1.56h0.32v1.56c0,0.12,0.01,0.24,0.02,0.36
				L29.49,92.24z M95.15,89.42h-0.32v-1.94h0.32V89.42z M29.8,88.35h-0.32v-1.94h0.32V88.35z M95.15,85.55h-0.32v-1.94h0.32V85.55z
				 M29.8,84.47h-0.32v-1.94h0.32V84.47z M95.15,81.67h-0.32v-1.94h0.32V81.67z M29.8,80.59h-0.32v-1.94h0.32V80.59z M95.15,77.79
				h-0.32v-1.94h0.32V77.79z M29.8,76.72h-0.32v-1.94h0.32V76.72z M95.15,73.92h-0.32v-1.94h0.32V73.92z M29.8,72.84h-0.32V70.9
				h0.32V72.84z M95.15,70.04h-0.32v-1.94h0.32V70.04z M29.8,68.97h-0.32v-1.94h0.32V68.97z M95.15,66.17h-0.32v-1.94h0.32V66.17z
				 M29.8,65.09h-0.32v-1.94h0.32V65.09z M95.15,62.29h-0.32v-1.94h0.32V62.29z M29.8,61.22h-0.32v-1.94h0.32V61.22z M95.15,58.42
				h-0.32v-1.94h0.32V58.42z M29.8,57.34h-0.32V55.4h0.32V57.34z M95.15,54.54h-0.32V52.6h0.32V54.54z M29.8,53.46h-0.32v-1.94h0.32
				V53.46z M95.15,50.66h-0.32v-1.94h0.32V50.66z M29.8,49.59h-0.32v-1.94h0.32V49.59z M95.15,46.79h-0.32v-1.94h0.32V46.79z
				 M29.8,45.71h-0.32v-1.94h0.32V45.71z M95.15,42.91h-0.32v-1.94h0.32V42.91z M29.8,41.84h-0.32V39.9h0.32V41.84z M95.15,39.04
				h-0.32V37.1h0.32V39.04z M29.8,37.96h-0.32v-1.94h0.32V37.96z M95.15,35.16h-0.32v-1.94h0.32V35.16z M29.8,34.08h-0.32v-1.94
				h0.32V34.08z M95.15,31.29h-0.32v-1.94h0.32V31.29z M29.8,30.21h-0.32v-1.94h0.32V30.21z M95.15,27.41h-0.32v-1.94h0.32V27.41z
				 M29.8,26.33h-0.32v-1.94h0.32V26.33z M95.15,23.53h-0.32V21.6h0.32V23.53z M29.8,22.46h-0.32v-1.94h0.32V22.46z M95.15,19.66
				h-0.32v-1.94h0.32V19.66z M29.8,18.58h-0.32v-1.94h0.32V18.58z M95.15,15.78h-0.32v-1.94c0-0.24-0.02-0.48-0.07-0.71l0.32-0.06
				c0.05,0.25,0.08,0.52,0.08,0.78V15.78z M29.8,14.71h-0.32v-0.86c0-0.38,0.05-0.75,0.16-1.11l0.31,0.09
				c-0.1,0.33-0.15,0.67-0.15,1.02V14.71z M93.95,11.49c-0.41-0.47-0.93-0.83-1.51-1.04l0.11-0.3c0.64,0.23,1.21,0.62,1.65,1.13
				L93.95,11.49z M30.89,11.26l-0.22-0.23c0.49-0.47,1.09-0.81,1.74-0.98l0.08,0.31C31.89,10.51,31.34,10.82,30.89,11.26z
				 M90.57,10.24h-1.94V9.92h1.94V10.24z M86.7,10.24h-1.94V9.92h1.94V10.24z M82.82,10.24h-1.94V9.92h1.94V10.24z M78.95,10.24
				h-1.94V9.92h1.94V10.24z M75.07,10.24h-1.94V9.92h1.94V10.24z M71.2,10.24h-1.94V9.92h1.94V10.24z M67.32,10.24h-1.94V9.92h1.94
				V10.24z M63.44,10.24h-1.94V9.92h1.94V10.24z M59.57,10.24h-1.94V9.92h1.94V10.24z M55.69,10.24h-1.94V9.92h1.94V10.24z
				 M51.82,10.24h-1.94V9.92h1.94V10.24z M47.94,10.24H46V9.92h1.94V10.24z M44.07,10.24h-1.94V9.92h1.94V10.24z M40.19,10.24h-1.94
				V9.92h1.94V10.24z M36.31,10.24h-1.94V9.92h1.94V10.24z"/>
		</g>
	</g>
	<g>
		<g>
			<g>
				<g>
					<path class="st543" d="M79.57,12.63c0,0,8.77,7.26,5.19,13.63c-3.58,6.37-5.82,1.16-5.82,1.16s-2.65,1,0.85-6.79
						C81.43,16.96,79.57,12.63,79.57,12.63z"/>
				</g>
			</g>
		</g>
		<g>
			<g>
				<g>
					<path class="st544" d="M94.19,3.08c0,0,6.8,6.95-0.9,17.76c-7.69,10.81-6.01,16.13-6.01,16.13S74.35,20,94.19,3.08z"/>
				</g>
			</g>
		</g>
		<g>
			<g>
				<g>
					<path class="st545" d="M84.91,33.85c-3.86,1.06-1.22-10.36,4.4-14.23c5.62-3.87,10.85-4.58,13.9-8.14
						C103.21,11.47,103.9,28.61,84.91,33.85z"/>
				</g>
			</g>
		</g>
	</g>
	<g>
		<g>
			<g>
				<path class="st546" d="M90.85,20.23v78c0,2.08-1.68,3.76-3.76,3.76H29.27c-2.08,0-3.76-1.69-3.76-3.76v-78
					c0-2.08,1.69-3.76,3.76-3.76h57.82C89.17,16.47,90.85,18.15,90.85,20.23z"/>
			</g>
		</g>
	</g>
	<g class="st547">
		<g>
			<g>
				<path class="st548" d="M80.2,78.19V102H43.25V78.46c0-1.24,1-2.24,2.24-2.24h32.74C79.32,76.22,80.2,77.1,80.2,78.19z"/>
			</g>
		</g>
	</g>
	<g>
		<g>
			<g>
				<g>
					<g>
						<path class="st549" d="M8.13,69.72c0,0,1.5,0.74,1.13,2.74c-0.37,2-0.54,2.27-0.12,3.06c0.42,0.78,0.91,4.12,0.53,4.75
							c-0.37,0.63-4.64-2.78-5.23-5.64c-0.59-2.86,0.37-4.14,0.72-4.61C5.5,69.54,6.8,69.05,8.13,69.72z"/>
					</g>
				</g>
			</g>
		</g>
	</g>
	<g>
		<g>
			<polygon class="st141" points="15.67,67.28 10.86,67.28 10.86,70.77 10.86,71.51 11.59,70.77 15.67,70.77 			"/>
		</g>
	</g>
	<g>
		<g>
			<g>
				<g>
					<path class="st141" d="M38.12,70.28c0.8,0.27,1.65,0.42,2.54,0.43c2.69,0.03,5.1-1.22,6.64-3.2c1.06-1.37,1.7-3.09,1.73-4.95
						c0-0.19,0-0.37-0.01-0.55c-0.04-0.83-0.21-1.63-0.48-2.37c-1.14-3.14-4.13-5.39-7.66-5.44c-1.9-0.02-3.67,0.6-5.08,1.66
						c-1.97,1.49-3.26,3.84-3.29,6.49C32.46,66.02,34.82,69.16,38.12,70.28z M34.58,62.37c0.03-1.98,0.98-3.73,2.44-4.84
						c1.06-0.81,2.4-1.29,3.84-1.27c2.65,0.03,4.89,1.73,5.74,4.08l0,0c0.2,0.56,0.33,1.16,0.36,1.78c0.01,0.14,0.01,0.28,0.01,0.42
						c-0.02,1.4-0.5,2.68-1.3,3.71c-1.15,1.48-2.96,2.43-4.98,2.4c-0.67-0.01-1.31-0.12-1.91-0.33
						C36.31,67.49,34.54,65.13,34.58,62.37z"/>
				</g>
			</g>
		</g>
		<g>
			<g>
				<g>
					<path class="st25" d="M45.67,66.25l1.63,1.27c-1.53,1.98-3.94,3.24-6.64,3.2c-0.89-0.01-1.74-0.16-2.54-0.43l0.66-1.96
						c0.6,0.2,1.24,0.32,1.91,0.32C42.71,68.67,44.52,67.73,45.67,66.25z"/>
				</g>
			</g>
		</g>
		<g>
			<g>
				<g>
					<path class="st26" d="M46.95,62.12l2.06-0.11c0.01,0.18,0.01,0.37,0.01,0.55c-0.02,1.87-0.67,3.58-1.73,4.95l-1.63-1.27
						c0.8-1.03,1.28-2.31,1.3-3.71C46.96,62.39,46.96,62.26,46.95,62.12z"/>
				</g>
			</g>
		</g>
		<g>
			<g>
				<g>
					<path class="st26" d="M46.95,62.12c-0.03-0.62-0.16-1.22-0.36-1.78l0,0l1.94-0.71c0.27,0.75,0.44,1.54,0.48,2.37L46.95,62.12z"
						/>
				</g>
			</g>
		</g>
		<g>
			<g>
				<g>
					<path class="st542" d="M35.8,55.85c1.41-1.06,3.17-1.69,5.08-1.66c3.53,0.05,6.52,2.3,7.66,5.44l-1.94,0.71l0,0
						c-0.85-2.35-3.09-4.04-5.74-4.08c-1.44-0.02-2.77,0.46-3.84,1.27L35.8,55.85z"/>
				</g>
			</g>
		</g>
	</g>
	<path class="st542" d="M37.8,73.52c-0.53-0.7-1.36-1.16-2.31-1.17c-1.31-0.02-2.43,0.82-2.82,2l0,0h0
		c-0.1,0.28-0.15,0.59-0.15,0.91c0,0.37,0.06,0.72,0.18,1.05c0.19,0.52,0.53,0.98,0.96,1.31c0.43,0.33,0.96,0.55,1.53,0.6
		c0.08,0.01,0.15,0.01,0.23,0.01c0.05,0,0.1,0,0.15,0c0.02,0,0.03,0,0.05,0c0.3-0.02,0.58-0.08,0.84-0.17
		c1.12-0.41,1.92-1.47,1.94-2.73C38.4,74.65,38.17,74.02,37.8,73.52z M36.2,77.36L36.2,77.36c-0.2,0.07-0.41,0.12-0.63,0.13l0,0
		c-0.05,0-0.1,0-0.15,0c-0.21,0-0.41-0.04-0.6-0.09c-0.26-0.08-0.51-0.2-0.72-0.37c-0.08-0.06-0.15-0.13-0.22-0.2
		c-0.4-0.4-0.64-0.96-0.64-1.58c0-0.16,0.02-0.31,0.06-0.46c0.02-0.07,0.04-0.14,0.06-0.21c0.3-0.88,1.14-1.51,2.12-1.5
		c0.7,0.01,1.33,0.35,1.72,0.87c0.29,0.38,0.46,0.85,0.45,1.37C37.64,76.26,37.04,77.06,36.2,77.36z"/>
	<g>
		<g>
			<path class="st17" d="M100.75,64.42c0,0-0.42-0.73,0.24-2.68c0.64-1.89,2.85-1.72,3.55-0.51c0.7,1.21,0.47,1.96-0.57,3.33
				C102.95,65.92,101.18,65.04,100.75,64.42z"/>
		</g>
	</g>
	<g>
		<g>
			<path class="st17" d="M105.89,98.01c0,0,0.11,0.8,0.12,0.92c0.01,0.12,1.22-0.07,1.22-0.07l0.1-0.95
				C107.33,97.91,106.04,97.9,105.89,98.01z"/>
		</g>
	</g>
	<g>
		<g>
			<path class="st550" d="M106,98.83c0,0-0.38,0.48-0.75,0.69c-0.37,0.21-0.95,0.29-1.17,0.51c-0.16,0.16-0.57,0.84,0.96,0.82
				c1.53-0.01,2.27,0.1,2.43-0.16c0.16-0.26-0.24-1.92-0.24-1.92S106.86,98.89,106,98.83z"/>
		</g>
	</g>
	<g>
		<g>
			<path class="st17" d="M97.56,98.01c0,0,0.11,0.8,0.12,0.92c0.01,0.12,1.22-0.07,1.22-0.07l0.1-0.95
				C99,97.91,97.71,97.9,97.56,98.01z"/>
		</g>
	</g>
	<g>
		<g>
			<path class="st551" d="M97.67,98.83c0,0-0.38,0.48-0.75,0.69c-0.37,0.21-1.73,0.38-1.94,0.6c-0.16,0.16-0.42,0.79,1.74,0.73
				c1.53-0.04,2.27,0.1,2.43-0.16c0.16-0.26-0.24-1.92-0.24-1.92S98.43,98.87,97.67,98.83z"/>
		</g>
	</g>
	<g>
		<g>
			<path class="st552" d="M105.48,78.05c0,0,0.62,1.92,0.54,3.57c-0.08,1.65,0.32,3.46,0.48,5.19c0.18,1.92,0.93,6.48,0.96,7.51
				c0.03,1.03-0.12,4.32-0.12,4.32l-1.49,0.04c0,0-1.25-7.96-1.58-8.78c-0.33-0.81-1.94-6.61-1.99-7.26
				C102.22,81.98,105.48,78.05,105.48,78.05z"/>
		</g>
	</g>
	<g>
		<g>
			<path class="st553" d="M99.29,77.85c0,0-0.91,5.07-1.02,6.08c-0.11,1.01-0.18,4.89-0.23,5.53c-0.05,0.63-0.36,8.27-0.65,9.21
				h1.67c0,0,1.71-5.55,1.71-8.18c0-2.63,1.13-5.71,1.86-7.44c0.73-1.73,2.41-1.77,2.85-4.99C105.48,78.05,99.9,76.83,99.29,77.85z"
				/>
		</g>
	</g>
	<g>
		<g>
			<path class="st17" d="M101.36,64.93c0,0,0.19,0.55,0,0.94c-0.19,0.39,2.4,0.16,2.4,0.16s-0.12-0.81,0.22-1.47
				C104.32,63.89,101.36,64.93,101.36,64.93z"/>
		</g>
	</g>
	<g>
		<g>
			<path class="st554" d="M105.6,78.46c0,0-0.93,0.96-6.4-0.15l0.08-0.47l6.22,0.23L105.6,78.46z"/>
		</g>
	</g>
	<g>
		<g>
			<path class="st17" d="M100.97,66c0,0-0.96,0.1-1.23,0.15c-0.27,0.05-2.11-0.33-2.49-0.37c-0.38-0.04-1.99-1.14-2.04-1.27
				c-0.05-0.13-0.98-2.48-1.03-2.98c-0.05-0.51-0.9-0.25-0.83,0.1c0.14,0.65,0.31,2.24,0.41,2.7c0.1,0.5,0.38,1.62,0.54,1.76
				c0.16,0.14,1.6,1.24,3.02,1.71c1.42,0.47,2.49,1.16,2.49,1.16h6.99c0,0,2.72-3.89,2.78-4.47c0.06-0.59-1.9-4.48-2.29-4.96
				c-0.39-0.49-0.96,0.16-0.96,0.16s1.17,3.43,1.33,3.92c0.16,0.49-1.36,2.63-1.78,2.64c-0.42,0.01-1.49-0.13-1.96-0.15
				c-0.47-0.02-0.98-0.23-0.98-0.23L100.97,66z"/>
		</g>
	</g>
	<g>
		<g>
			<path class="st555" d="M97.95,68.59c0,0,0.86,0.57,0.93,1.54c0.08,0.98,0.39,2.52,0.55,3.04c0.16,0.53-0.14,4.35-0.18,4.63
				c-0.04,0.27,5.41,0.92,6.25,0.27c0,0,0.23-3.57,0.33-4.59c0.1-1.01,0.57-3.47,0.72-3.81c0.16-0.33,2.05-2.99,2.13-3.34
				c0,0-0.98-1.56-1.68-1.58c0,0-1.12,1.31-1.48,1.37c-0.36,0.06-2.59-0.35-2.59-0.35c0,0-0.24,0.33-1.54-0.06
				c0,0-1.54,0.17-1.79,0.21c-0.3,0.04-2.41-0.26-2.41-0.26s-0.85,1.43-0.7,2.15L97.95,68.59z"/>
		</g>
	</g>
	<g>
		<g>
			<path class="st17" d="M94.23,61.83c0,0-0.19-0.9,0.04-1.16c0.13-0.15,0.45-0.54,0.47-0.6c0.03-0.06,0.37-0.25,0.37-0.35
				c0-0.09-0.33-0.21-0.62,0.06c-0.29,0.27-0.47,0.32-0.58,0.29c-0.11-0.03-0.28-0.99-0.29-1.22c-0.01-0.24-0.11-0.86-0.25-0.82
				c-0.15,0.04-0.14,0.32-0.14,0.32s-0.17-0.47-0.29-0.38c-0.12,0.09-0.1,0.32-0.1,0.32s-0.22-0.27-0.27-0.07
				c-0.06,0.19,0,0.37,0,0.37s-0.22-0.12-0.24,0.18c-0.01,0.3,0.06,1.19,0.22,1.5c0.16,0.32,0.75,1.14,0.82,1.47
				C93.43,62.06,94.23,61.83,94.23,61.83z"/>
		</g>
	</g>
	<g>
		<g>
			<path class="st17" d="M106.52,60.24c0,0-0.65-1.09-0.87-1.19c-0.22-0.1-0.53-0.15-0.81-0.35c-0.27-0.2-0.63-0.36-0.61-0.42
				c0.02-0.07,0.34-0.04,0.69,0.11c0.35,0.15,0.5,0.08,0.53,0c0.03-0.08-0.18-0.63-0.29-0.76c-0.1-0.13-0.85-0.88-0.72-0.99
				c0.12-0.11,0.6,0.3,0.68,0.38c0,0-0.38-0.81-0.23-0.85c0.15-0.04,0.43,0.25,0.43,0.25s-0.03-0.69,0.71,0.43
				c0,0-0.16-0.37,0.07-0.25c0.23,0.12,0.45,0.82,0.52,1.17c0.07,0.35,0.4,1.47,0.67,1.74C107.56,59.79,106.52,60.24,106.52,60.24z"
				/>
		</g>
	</g>
	<g>
		<g>
			<path class="st22" d="M103.98,64.56c0,0-0.34,0.03-1.07-0.22c-0.73-0.25-0.78-1.53-0.94-1.37c-0.32,0.31-0.62,0.1-0.75-0.09
				c0,0,0.36-0.47,0.19-0.69c-0.16-0.23-0.43-0.39-0.43-0.39s0.51-2.47,2.84-1.34C106.56,61.76,103.98,64.56,103.98,64.56z"/>
		</g>
	</g>
	<g>
		<g>
			<path class="st555" d="M101.36,65.87l0.08-0.36c0,0,1.49-0.03,2.3,0.09l0.09,0.43C103.83,66.03,102.79,66.5,101.36,65.87z"/>
		</g>
	</g>
	<g>
		<g>
			<path class="st17" d="M101.73,62.65c0.14-0.22,0.64-0.38,0.69,0.26c0.05,0.49-0.89,1.03-0.9,0.57
				C101.51,63.02,101.64,62.8,101.73,62.65z"/>
		</g>
	</g>
	<g>
		<g>
			<path class="st23" d="M94.19,61.62c0,0-0.54,0.01-0.8,0.25c0,0-0.02,0.15,0.04,0.27c0,0,0.47-0.22,0.82-0.26
				C94.26,61.88,94.25,61.69,94.19,61.62z"/>
		</g>
	</g>
	<g>
		<g>
			<path class="st22" d="M93.56,61.76c-0.05,0.12,0.01,0.25,0.12,0.3c0.12,0.05,0.25-0.01,0.3-0.12c0.05-0.12-0.01-0.25-0.12-0.3
				S93.61,61.64,93.56,61.76z"/>
		</g>
	</g>
	<g class="st72">
		<g>
			<g>
				<path class="st542" d="M47.09,93.53v8.94c0,0.88-0.71,1.59-1.59,1.59H32.16c-0.88,0-1.59-0.71-1.59-1.59v-8.94
					c0-0.88,0.71-1.59,1.59-1.59H45.5C46.38,91.94,47.09,92.65,47.09,93.53z"/>
			</g>
		</g>
	</g>
	<g class="st72">
		<g>
			<g>
				<path class="st542" d="M85.26,93.53v8.94c0,0.88-0.71,1.59-1.59,1.59H70.33c-0.88,0-1.59-0.71-1.59-1.59v-8.94
					c0-0.88,0.71-1.59,1.59-1.59h13.34C84.55,91.94,85.26,92.65,85.26,93.53z"/>
			</g>
		</g>
	</g>
	<g class="st556">
		<g>
			<g>
				<path class="st542" d="M65.04,49.27H34.27c-1.54,0-2.79-1.25-2.79-2.79V25.33c0-1.54,1.25-2.79,2.79-2.79h30.77
					c1.54,0,2.79,1.25,2.79,2.79v21.15C67.83,48.02,66.58,49.27,65.04,49.27z M34.27,22.73c-1.43,0-2.59,1.16-2.59,2.59v21.15
					c0,1.43,1.16,2.59,2.59,2.59h30.77c1.43,0,2.59-1.16,2.59-2.59V25.33c0-1.43-1.16-2.59-2.59-2.59H34.27z"/>
			</g>
		</g>
	</g>
	<g>
		<g>
			<g>
				<polygon class="st25" points="16.83,116.71 17.03,116.7 16.01,91.21 33.57,91.21 34.59,116.71 34.79,116.7 33.77,91.01 
					15.8,91.01 				"/>
			</g>
		</g>
	</g>
	<g>
		<g>
			<g>
				<polygon class="st25" points="15.18,116.71 16.2,91.21 33.76,91.21 32.74,116.7 32.94,116.71 33.97,91.01 16,91.01 14.98,116.7 
									"/>
			</g>
		</g>
	</g>
	<g>
		<g>
			<polygon class="st25" points="32.84,108.42 15.08,108.42 16.1,82.82 33.86,82.82 			"/>
		</g>
	</g>
	<g>
		<g>
			<polygon class="st557" points="17.43,108.42 35.19,108.42 34.17,82.82 16.41,82.82 			"/>
		</g>
	</g>
	<g>
		<g>
			<g>
				<rect x="31.44" y="98.51" class="st546" width="0.89" height="6.79"/>
			</g>
		</g>
	</g>
	<g>
		<g>
			<g>
				<rect x="29.67" y="99.27" class="st546" width="0.89" height="6.03"/>
			</g>
		</g>
	</g>
	<g>
		<g>
			<g>
				<rect x="27.76" y="100.26" class="st546" width="0.89" height="5.04"/>
			</g>
		</g>
	</g>
	<g>
		<g>
			<g>
				<rect x="25.79" y="101.51" class="st546" width="0.89" height="3.79"/>
			</g>
		</g>
	</g>
	<g>
		<g>
			<polygon class="st546" points="20.46,100.7 20.27,100.64 21.95,95.91 25.6,94.95 26.92,89.76 29.73,88.52 30.36,84.49 
				30.57,84.52 29.92,88.66 27.09,89.91 25.77,95.11 22.11,96.08 			"/>
		</g>
	</g>
	<g>
		<path class="st557" d="M26.11,94.68c0.19,0.23,0.16,0.58-0.08,0.77c-0.23,0.19-0.58,0.16-0.77-0.08
			c-0.19-0.23-0.16-0.58,0.08-0.77C25.58,94.41,25.92,94.45,26.11,94.68z"/>
	</g>
	<g>
		<path class="st546" d="M26.1,95.53c-0.28,0.23-0.69,0.19-0.92-0.09c-0.23-0.28-0.19-0.69,0.09-0.92c0.28-0.23,0.69-0.19,0.92,0.09
			C26.42,94.9,26.38,95.31,26.1,95.53z M25.41,94.69c-0.19,0.16-0.22,0.44-0.06,0.63c0.16,0.19,0.44,0.22,0.63,0.06
			c0.19-0.16,0.22-0.44,0.06-0.63C25.88,94.56,25.6,94.53,25.41,94.69z"/>
	</g>
	<g>
		<path class="st557" d="M27.44,89.52c0.19,0.23,0.16,0.58-0.08,0.77c-0.23,0.19-0.58,0.16-0.77-0.08
			c-0.19-0.23-0.16-0.58,0.08-0.77C26.9,89.25,27.25,89.29,27.44,89.52z"/>
	</g>
	<g>
		<path class="st546" d="M27.43,90.37c-0.28,0.23-0.69,0.19-0.92-0.09c-0.23-0.28-0.19-0.69,0.09-0.92
			c0.28-0.23,0.69-0.19,0.92,0.09C27.75,89.73,27.71,90.14,27.43,90.37z M26.74,89.52c-0.19,0.16-0.22,0.44-0.06,0.63
			c0.16,0.19,0.44,0.22,0.63,0.06c0.19-0.16,0.22-0.44,0.06-0.63C27.21,89.4,26.93,89.37,26.74,89.52z"/>
	</g>
	<g>
		<path class="st557" d="M30.22,88.24c0.19,0.23,0.16,0.58-0.08,0.77c-0.23,0.19-0.58,0.16-0.77-0.08
			c-0.19-0.23-0.16-0.58,0.08-0.77C29.68,87.97,30.02,88.01,30.22,88.24z"/>
	</g>
	<g>
		<path class="st546" d="M30.2,89.09c-0.28,0.23-0.69,0.19-0.92-0.09c-0.23-0.28-0.19-0.69,0.09-0.92c0.28-0.23,0.69-0.19,0.92,0.09
			C30.52,88.45,30.48,88.87,30.2,89.09z M29.51,88.24c-0.19,0.16-0.22,0.44-0.06,0.63c0.16,0.19,0.44,0.22,0.63,0.06
			c0.19-0.16,0.22-0.44,0.06-0.63C29.98,88.12,29.7,88.09,29.51,88.24z"/>
	</g>
	<g>
		<path class="st557" d="M22.48,95.7c0.19,0.23,0.16,0.58-0.08,0.77c-0.23,0.19-0.58,0.16-0.77-0.08c-0.19-0.23-0.16-0.58,0.08-0.77
			C21.94,95.43,22.28,95.46,22.48,95.7z"/>
	</g>
	<g>
		<path class="st546" d="M22.46,96.55c-0.28,0.23-0.69,0.19-0.92-0.09c-0.23-0.28-0.19-0.69,0.09-0.92
			c0.28-0.23,0.69-0.19,0.92,0.09C22.78,95.91,22.74,96.32,22.46,96.55z M21.77,95.7c-0.19,0.16-0.22,0.44-0.06,0.63
			c0.16,0.19,0.44,0.22,0.63,0.06c0.19-0.16,0.22-0.44,0.06-0.63C22.24,95.57,21.96,95.54,21.77,95.7z"/>
	</g>
	<g>
		<g>
			<path class="st141" d="M79.77,30.87h-3.44c-0.75,0-1.37-0.61-1.37-1.37v-3.44c0-0.75,0.61-1.37,1.37-1.37h3.44
				c0.75,0,1.37,0.61,1.37,1.37v3.44C81.14,30.25,80.53,30.87,79.77,30.87z M76.33,24.95c-0.61,0-1.11,0.5-1.11,1.11v3.44
				c0,0.61,0.5,1.11,1.11,1.11h3.44c0.61,0,1.11-0.5,1.11-1.11v-3.44c0-0.61-0.5-1.11-1.11-1.11H76.33z"/>
		</g>
	</g>
	<g>
		<g>
			<path class="st141" d="M79.77,39.06h-3.44c-0.75,0-1.37-0.61-1.37-1.37v-3.44c0-0.75,0.61-1.37,1.37-1.37h3.44
				c0.75,0,1.37,0.61,1.37,1.37v3.44C81.14,38.44,80.53,39.06,79.77,39.06z M76.33,33.14c-0.61,0-1.11,0.5-1.11,1.11v3.44
				c0,0.61,0.5,1.11,1.11,1.11h3.44c0.61,0,1.11-0.5,1.11-1.11v-3.44c0-0.61-0.5-1.11-1.11-1.11H76.33z"/>
		</g>
	</g>
	<g>
		<g>
			<path class="st141" d="M78.05,47.12L78.05,47.12c-1.63,0-2.96-1.32-2.96-2.96l0,0c0-1.63,1.32-2.96,2.96-2.96h0
				c1.63,0,2.96,1.32,2.96,2.96v0C81.01,45.8,79.69,47.12,78.05,47.12z"/>
		</g>
	</g>
	<g>
		<g>
			<g>
				<g>
					<path class="st148" d="M77.87,45.46l-1.5-1.3c-0.12-0.11-0.14-0.29-0.03-0.42c0.11-0.12,0.29-0.14,0.42-0.03l1.06,0.92
						l1.51-1.68c0.11-0.12,0.29-0.13,0.42-0.02c0.12,0.11,0.13,0.29,0.02,0.42L77.87,45.46z"/>
				</g>
			</g>
		</g>
	</g>
	<g>
		<g>
			<g>
				<path class="st141" d="M23.68,90.56h-4.35c-0.31,0-0.57-0.25-0.57-0.57l0,0c0-0.31,0.25-0.57,0.57-0.57h4.35
					c0.31,0,0.57,0.25,0.57,0.57l0,0C24.25,90.3,23.99,90.56,23.68,90.56z"/>
			</g>
		</g>
	</g>
	<g>
		<g>
			<g>
				<path class="st141" d="M23.68,88.57h-4.35c-0.31,0-0.57-0.25-0.57-0.57l0,0c0-0.31,0.25-0.57,0.57-0.57h4.35
					c0.31,0,0.57,0.25,0.57,0.57v0C24.25,88.31,23.99,88.57,23.68,88.57z"/>
			</g>
		</g>
	</g>
	<g>
		<path class="st558" d="M8.77,112.34c0,0,0.15,0.36,0.44,0.73c0.21,0.27,0.87,1.4,1.15,1.48c0.29,0.08,1.18,0.24,1.26,0.73
			c0.08,0.5,0.12,0.85-0.76,0.89c-0.88,0.04-1.46,0.09-1.88-0.52c-0.42-0.62-1.09-1.06-1.09-1.06v1.61H7.56c0,0-0.16-1.67-0.25-1.79
			c-0.09-0.12-0.33-1.4,0.49-2.07C8.61,111.67,8.77,112.34,8.77,112.34z"/>
	</g>
	<g>
		<path class="st17" d="M10.37,114.55c0,0-0.79,0.2-1.09,0c-0.3-0.2-1.33-1.93-1.67-2.03c0,0,0.33-0.67,1.16-0.18
			C8.77,112.34,10.14,114.26,10.37,114.55z"/>
	</g>
	<g>
		<g>
			<g>
				<g>
					<path class="st17" d="M18.05,84.88c0,0,0.55,0.1,0.73-0.15c0.16-0.22,0.52-0.39,0.63-0.44c0.15-0.07,0.53-0.45,0.62-0.27
						c0.09,0.19-0.59,0.66-0.72,0.79c-0.12,0.13,0.67,0.18,0.81,0.31c0.14,0.12-0.03,1.43-0.57,1.33c-0.54-0.1-1.05-0.57-1.15-0.57
						c-0.1,0-0.4-0.06-0.4-0.06L18.05,84.88z"/>
				</g>
			</g>
		</g>
	</g>
	<g>
		<g>
			<g>
				<g>
					<path class="st17" d="M20,85.07c0,0,1.63,0.42,1.72,0.54c0.09,0.12,0.06,0.21-0.1,0.17c-0.15-0.03-1.59-0.36-1.59-0.36
						s1.85,0.82,1.94,0.91c0.05,0.05,0.01,0.22-0.08,0.21c-0.08-0.01-1.96-0.72-1.96-0.72s1.72,0.77,1.78,0.86
						c0.05,0.08-0.03,0.23-0.16,0.18c-0.13-0.05-1.77-0.67-1.77-0.67S21,86.82,21,86.93c0,0.06-0.03,0.21-0.34,0.04
						c-0.31-0.18-1.08-0.51-1.08-0.51L20,85.07z"/>
				</g>
			</g>
		</g>
	</g>
	<g>
		<path class="st558" d="M4.37,113.38c0,0,0.88,1.31,1.23,1.62c0,0,0.79,0.29,0.87,0.84c0.08,0.55,0.07,0.92-0.87,0.95
			c-0.93,0.03-1.54-0.14-1.71-0.7c-0.17-0.56-0.54-0.95-0.54-0.95v1.18H3.14c0,0-0.05-1.14-0.07-1.35
			c-0.01-0.21-0.15-1.02,0.29-1.37C3.81,113.23,4.37,113.38,4.37,113.38z"/>
	</g>
	<g>
		<path class="st51" d="M3.78,88.18c0,0-1.11,1.44-1.41,3.15c-0.3,1.71,0.18,7.46,0.16,8.3c-0.01,0.85-0.8,2.95-0.64,4.55
			c0.16,1.59,0.78,9.53,0.78,9.53l1.7-0.34c0,0-0.1-8.09,0-8.76c0.1-0.67,0.3-3.11,0.34-3.38c0.04-0.28,2.5-7.51,2.5-8.74
			C7.21,91.26,6.46,86.17,3.78,88.18z"/>
	</g>
	<g>
		<path class="st51" d="M9.36,88.75c0,0,1.82,6.96,2.04,7.92c0.22,0.96,0.53,1.76,0.53,2.17c0,0.95-0.35,2.47-0.35,2.47l-2.32,11.07
			H7.05c0,0,1.23-6.64,1.26-7.94c0.03-1.3,1.04-3.15,0.84-3.7c-0.2-0.55-3.17-6.91-3.17-6.91S3.74,86.73,9.36,88.75z"/>
	</g>
	<g>
		<path class="st17" d="M5.61,115c0,0-0.9,0.5-1.48-0.14c-0.49-0.55-0.76-1.27-0.76-1.27l1.01-0.21L5.61,115z"/>
	</g>
	<g>
		<g>
			<path class="st559" d="M8.61,76.92c0,0,0.75,0.07,1.32,0.68c0.57,0.61,1.1,1.58,1.25,1.9c0.15,0.32,2.23,3.33,2.34,3.4
				c0.11,0.07,1.16,0.42,1.85,0.65c1.07,0.36,3.22,1.14,3.22,1.14l-0.43,1.35c0,0-4.04-1.32-5.05-1.57
				c-1.24-0.3-4.09-3.96-4.09-3.96S6.9,78.03,8.61,76.92z"/>
		</g>
	</g>
	<g>
		<g>
			<path class="st560" d="M7.29,76.4c0,0,0.97,0.46,1.31,0.53c0.34,0.07,1.65,1.77,1.88,2.39c0.23,0.62,0,1.56-0.47,2.65
				c-0.47,1.1-0.03,1.46-0.24,2.56c-0.22,1.1-0.15,5.19-0.11,5.8c0.04,0.61-6.33,1.53-7.59,0.42c0,0,0.85-3.69,1.86-4.75
				c0.22-0.23,0.19-1.75,0.05-2.13c-0.15-0.38-1.83-3.21-1.83-3.21s-0.12-2.87,0.61-3.44c0.64-0.49,2.37-0.67,2.68-0.78
				C5.75,76.35,6.66,76.3,7.29,76.4z"/>
		</g>
	</g>
	<g>
		<g>
			<path class="st17" d="M7.76,75.27c0,0-0.03,0.27-0.06,0.63c-0.01,0.14-0.03,0.3-0.04,0.46c-0.04,0.49-0.07,1.01-0.05,1.27
				c0,0-1.01,1.01-2.16-1.18c0,0,0.48-0.91,0.12-2.14C5.2,73.08,7.76,75.27,7.76,75.27z"/>
		</g>
	</g>
	<g>
		<path class="st561" d="M10.59,82.37c0,0,0.24-1.62-0.02-2.61c0,0,0,0.85-0.46,2.05L10.59,82.37z"/>
	</g>
	<g>
		<path class="st17" d="M4.66,76.61c0,0,0.7,2.06,2.61,1.9c1.91-0.15,0.91-1.74,0.91-1.74s-0.48-0.27-0.61-0.3
			c-0.13-0.03-2.11-0.05-2.11-0.05L4.66,76.61z"/>
	</g>
	<g>
		<path class="st559" d="M8.18,76.78c0,0,1,2.77,1,5.59c0,2.82,0.08,7.42,0.43,8.87c0.35,1.45,1.34,5.94,1.34,5.94l0.78-0.4
			c0,0-1.87-7.16-2.02-7.68c-0.14-0.52,0.11-5.97,0.24-6.43c0.13-0.46,0.71-2.49,0.62-3.06c-0.11-0.71-0.78-1.76-1.85-2.67
			L8.18,76.78z"/>
	</g>
	<g>
		<path class="st559" d="M5.04,76.53c0,0,0.62,1.99,0.94,4.54c0.32,2.55-0.97,14.39-1.83,17.08l-3.33-0.54c0,0,0.72-8.37,1.69-9.89
			c0.97-1.52,1.28-2.87,0.23-6.05c-1.05-3.18,0.46-4.75,0.46-4.75S4.75,76.56,5.04,76.53z"/>
	</g>
	<g>
		<polygon class="st562" points="8.64,84.97 4.6,91.97 0.1,89.38 3.97,82.28 		"/>
	</g>
	<g>
		<polygon class="st563" points="8.15,85.21 4.56,91.43 0.57,89.13 4,82.82 		"/>
	</g>
	<g>
		<polygon class="st562" points="6.83,84.66 7.08,84.22 5.47,83.29 5.15,83.69 		"/>
	</g>
	<g>
		<g>
			<g>
				<g>
					<g>
						<g>
							<path class="st17" d="M6.63,89.62c0,0-0.18,0-0.26-0.04c0,0-0.14-0.08-0.25-0.13c-0.03-0.02-0.06-0.03-0.08-0.04
								c-0.08-0.03-0.27-0.07-0.45-0.19c-0.18-0.12-0.81-0.86-0.81-0.86l0.3-0.45l0.22-0.47c0,0,1.33,0.09,1.51,0.18
								c0.02,0.01,0.03,0.02,0.05,0.03c0.14,0.1,0.21,0.23,0.28,0.29C7.16,87.97,7.4,88.2,7.4,88.3c-0.01,0.14-0.08,0.23-0.16,0.28
								c0,0-0.03,0.27-0.17,0.4c0,0-0.02,0.25-0.23,0.36C6.83,89.33,6.78,89.59,6.63,89.62z"/>
						</g>
					</g>
				</g>
			</g>
		</g>
	</g>
	<g>
		<g>
			<path class="st559" d="M3.9,76.92c0,0-1.23-0.35-1.93,1c-0.7,1.35-0.7,1.93-0.79,2.59c-0.09,0.62-0.49,2.33-0.53,2.5
				c-0.04,0.18-0.95,2.27-0.53,3.01c0.42,0.74,4.67,2.9,4.64,3.07c-0.03,0.16,0.74-1.64,0.74-1.64s-1.72-0.96-2-1.25
				c-0.46-0.48-1.42-1-1.22-1.59c0.23-0.7,0.93-3.05,1.09-3.4C3.52,80.86,4.93,77.36,3.9,76.92z"/>
		</g>
	</g>
	<g>
		<g>
			<g>
				<g>
					<g>
						<path class="st172" d="M7.91,69.95c0,0,2.19,0.69,1,4.46c-1.19,3.77-4.17-0.44-3.86-2.73C5.36,69.37,7.91,69.95,7.91,69.95z"
							/>
					</g>
				</g>
			</g>
		</g>
	</g>
	<g>
		<g>
			<g>
				<g>
					<g>
						<path class="st549" d="M9.13,72.15c0,0-1.09,1.07-2.9,1.2c0,0-0.7,0.82-0.75,1.14c0,0-1.62-2.76,0.37-4.42
							C7.84,68.41,9.86,71.46,9.13,72.15z"/>
					</g>
				</g>
			</g>
		</g>
	</g>
	<g>
		<g>
			<g>
				<g>
					<g>
						<path class="st172" d="M6.25,73.42c-0.01-0.27-0.18-0.9-0.59-0.72c-0.41,0.17,0.03,1.45,0.3,1.37
							C5.96,74.06,6.28,74.07,6.25,73.42z"/>
					</g>
				</g>
			</g>
		</g>
	</g>
	<g>
		<path class="st53" d="M7.7,75.9c-0.01,0.14-0.03,0.3-0.04,0.46c0,0-0.96-0.06-1.61-1.49C6.09,74.94,6.8,75.97,7.7,75.9z"/>
	</g>
	<g>
		<path class="st182" d="M6.15,67.06c-0.43,0-0.84-0.13-1.17-0.37c-0.37-0.27-0.59-0.66-0.62-1.08c-0.12-0.83-0.45-1.67-0.71-2.25
			c-1.08-0.74-1.73-1.95-1.73-3.27c0-2.18,1.77-3.95,3.95-3.95c2.18,0,3.95,1.77,3.95,3.95c0,1.19-0.52,2.29-1.44,3.05
			c-0.23,0.82-0.35,1.57-0.36,2.21c0.06,0.87-0.72,1.63-1.72,1.7C6.25,67.06,6.2,67.06,6.15,67.06z M5.87,56.48
			c-2,0-3.62,1.63-3.62,3.62c0,1.17,0.55,2.31,1.66,3.05c0.34,0.76,0.65,1.6,0.77,2.42l0,0.01c0.02,0.33,0.2,0.63,0.49,0.85
			c0.3,0.22,0.7,0.33,1.1,0.3c0.83-0.06,1.47-0.67,1.42-1.36l0-0.01v-0.01c0.01-0.81,0.18-1.64,0.4-2.4c0.94-0.76,1.4-1.79,1.4-2.86
			C9.5,58.1,7.87,56.48,5.87,56.48z"/>
	</g>
	<g>
		<polygon class="st182" points="5.32,65.78 4.48,61.53 5.43,62.2 5.94,61.54 6.46,62.08 7.24,61.31 7.06,65.65 6.74,65.63 
			6.89,62.12 6.45,62.54 5.96,62.03 5.5,62.64 4.95,62.26 5.64,65.71 		"/>
	</g>
	<g>
		
			<rect x="4.91" y="66.67" transform="matrix(0.9976 -0.0688 0.0688 0.9976 -4.6115 0.5936)" class="st141" width="2.8" height="1.13"/>
	</g>
	<g>
		
			<rect x="4.4" y="65.51" transform="matrix(0.9976 -0.069 0.069 0.9976 -4.5672 0.5897)" class="st141" width="3.7" height="1.82"/>
	</g>
	<g>
		<polygon class="st564" points="98.42,115.35 93.63,100.64 109.16,100.64 113.91,115.21 113.48,115.35 108.84,101.09 94.25,101.09 
			98.85,115.21 		"/>
	</g>
	<g>
		<polygon class="st564" points="89.24,115.35 88.81,115.21 93.55,100.64 109.09,100.64 104.3,115.35 103.87,115.21 108.47,101.09 
			93.88,101.09 		"/>
	</g>
	<g>
		<polygon class="st564" points="110.44,105.54 92.34,105.54 92.34,105.09 110.19,105.09 		"/>
	</g>
	<g>
		<rect x="90.67" y="109.99" class="st564" width="21.36" height="0.45"/>
	</g>
	<g>
		<g>
			<g>
				<path class="st141" d="M82.21,79.93v32.31c0,1.15-0.93,2.08-2.08,2.08H47.05c-1.15,0-2.08-0.93-2.08-2.08V79.93
					c0-1.15,0.93-2.08,2.08-2.08h33.07C81.27,77.85,82.21,78.78,82.21,79.93z"/>
			</g>
		</g>
	</g>
	<g>
		<g>
			<g>
				<path class="st141" d="M81.01,55.6v1.02c0,0.64-0.52,1.16-1.16,1.16H53.85c-0.64,0-1.16-0.52-1.16-1.16V55.6
					c0-0.64,0.52-1.16,1.16-1.16h26.01C80.49,54.45,81.01,54.96,81.01,55.6z"/>
			</g>
		</g>
	</g>
	<g>
		<g>
			<g>
				<path class="st141" d="M79.85,63.74H53.85c-0.73,0-1.32-0.59-1.32-1.32V61.4c0-0.73,0.59-1.32,1.32-1.32h26.01
					c0.73,0,1.32,0.59,1.32,1.32v1.02C81.17,63.15,80.58,63.74,79.85,63.74z M53.85,60.41c-0.55,0-1,0.45-1,1v1.02
					c0,0.55,0.45,1,1,1h26.01c0.55,0,1-0.45,1-1V61.4c0-0.55-0.45-1-1-1H53.85z"/>
			</g>
		</g>
	</g>
	<g>
		<g>
			<g>
				<path class="st141" d="M79.85,69.99H53.85c-0.73,0-1.32-0.59-1.32-1.32v-1.02c0-0.73,0.59-1.32,1.32-1.32h26.01
					c0.73,0,1.32,0.59,1.32,1.32v1.02C81.17,69.4,80.58,69.99,79.85,69.99z M53.85,66.66c-0.55,0-1,0.45-1,1v1.02c0,0.55,0.45,1,1,1
					h26.01c0.55,0,1-0.45,1-1v-1.02c0-0.55-0.45-1-1-1H53.85z"/>
			</g>
		</g>
	</g>
	<g>
		<g>
			<g>
				<path class="st546" d="M72.74,93.87v1.35c0,0.68-0.55,1.23-1.23,1.23H49.58c-0.68,0-1.23-0.55-1.23-1.23v-1.35
					c0-0.68,0.55-1.23,1.23-1.23H71.5C72.18,92.63,72.74,93.18,72.74,93.87z"/>
			</g>
		</g>
	</g>
	<g>
		<g>
			<g>
				<path class="st546" d="M72.74,87.78v1.35c0,0.68-0.55,1.23-1.23,1.23H49.58c-0.68,0-1.23-0.55-1.23-1.23v-1.35
					c0-0.68,0.55-1.23,1.23-1.23H71.5C72.18,86.54,72.74,87.1,72.74,87.78z"/>
			</g>
		</g>
	</g>
	<g>
		<g>
			<g>
				<path class="st546" d="M54.15,109.68v0.64c0,0.13-0.1,0.23-0.23,0.23h-4.94c-0.13,0-0.23-0.1-0.23-0.23v-0.64
					c0-0.13,0.1-0.23,0.23-0.23h4.94C54.05,109.45,54.15,109.55,54.15,109.68z"/>
			</g>
		</g>
	</g>
	<g>
		<g>
			<g>
				<path class="st546" d="M60.59,109.68v0.64c0,0.13-0.1,0.23-0.23,0.23h-4.94c-0.13,0-0.23-0.1-0.23-0.23v-0.64
					c0-0.13,0.1-0.23,0.23-0.23h4.94C60.49,109.45,60.59,109.55,60.59,109.68z"/>
			</g>
		</g>
	</g>
	<g>
		<g>
			<g>
				<path class="st557" d="M67.12,109.68v0.64c0,0.13-0.1,0.23-0.23,0.23h-4.94c-0.13,0-0.23-0.1-0.23-0.23v-0.64
					c0-0.13,0.1-0.23,0.23-0.23h4.94C67.02,109.45,67.12,109.55,67.12,109.68z"/>
			</g>
		</g>
	</g>
	<g class="st556">
		<g>
			<g>
				<path class="st542" d="M52.04,11.09v21.15c0,1.49-1.2,2.69-2.69,2.69H18.58c-1.49,0-2.69-1.2-2.69-2.69V11.09
					c0-1.49,1.2-2.69,2.69-2.69h30.77C50.84,8.4,52.04,9.6,52.04,11.09z"/>
			</g>
		</g>
	</g>
	<g>
		<g>
			<g>
				<path class="st546" d="M48.21,12.63v0.89c0,0.4-0.33,0.73-0.73,0.73H32.03c-0.4,0-0.73-0.33-0.73-0.73v-0.89
					c0-0.4,0.33-0.73,0.73-0.73h15.45C47.88,11.9,48.21,12.23,48.21,12.63z"/>
			</g>
		</g>
	</g>
	<g>
		<g>
			<g>
				<path class="st546" d="M48.21,17.19v1.2c0,0.4-0.33,0.73-0.73,0.73H32.03c-0.4,0-0.73-0.33-0.73-0.73v-1.2
					c0-0.4,0.33-0.73,0.73-0.73h15.45C47.88,16.46,48.21,16.79,48.21,17.19z"/>
			</g>
		</g>
	</g>
	<g>
		<g>
			<g>
				<g>
					<path class="st546" d="M22.3,20.17c0.43,0.14,0.88,0.23,1.36,0.23c1.44,0.02,2.73-0.66,3.55-1.71
						c0.57-0.73,0.91-1.65,0.92-2.65c0-0.1,0-0.2-0.01-0.3c-0.02-0.44-0.11-0.87-0.26-1.27c-0.61-1.68-2.21-2.89-4.1-2.91
						c-1.02-0.01-1.96,0.32-2.72,0.89c-1.05,0.8-1.74,2.05-1.76,3.47C19.28,17.89,20.54,19.57,22.3,20.17z M20.41,15.94
						c0.01-1.06,0.52-1.99,1.3-2.59c0.57-0.43,1.28-0.69,2.05-0.68c1.42,0.02,2.62,0.92,3.07,2.18l0,0c0.11,0.3,0.18,0.62,0.19,0.95
						c0,0.07,0,0.15,0,0.22c-0.01,0.75-0.27,1.44-0.69,1.99c-0.62,0.79-1.58,1.3-2.66,1.28c-0.36,0-0.7-0.07-1.02-0.17
						C21.33,18.67,20.39,17.41,20.41,15.94z"/>
				</g>
			</g>
		</g>
		<g>
			<g>
				<g>
					<path class="st546" d="M26.34,18.01l0.87,0.68c-0.82,1.06-2.11,1.73-3.55,1.71c-0.48-0.01-0.93-0.09-1.36-0.23l0.35-1.05
						c0.32,0.11,0.66,0.17,1.02,0.17C24.76,19.31,25.72,18.8,26.34,18.01z"/>
				</g>
			</g>
		</g>
		<g>
			<g>
				<g>
					<path class="st546" d="M27.03,15.8l1.1-0.06c0.01,0.1,0.01,0.2,0.01,0.3c-0.01,1-0.36,1.92-0.92,2.65l-0.87-0.68
						c0.43-0.55,0.68-1.24,0.69-1.99C27.03,15.95,27.03,15.87,27.03,15.8z"/>
				</g>
			</g>
		</g>
		<g>
			<g>
				<g>
					<path class="st546" d="M27.03,15.8c-0.02-0.33-0.08-0.65-0.19-0.95l0,0l1.04-0.38c0.15,0.4,0.24,0.83,0.26,1.27L27.03,15.8z"/>
				</g>
			</g>
		</g>
		<g>
			<g>
				<g>
					<path class="st546" d="M21.06,12.45c0.75-0.57,1.7-0.9,2.72-0.89c1.89,0.02,3.49,1.23,4.1,2.91l-1.04,0.38l0,0
						c-0.46-1.26-1.65-2.16-3.07-2.18c-0.77-0.01-1.48,0.24-2.05,0.68L21.06,12.45z"/>
				</g>
			</g>
		</g>
	</g>
	<g class="st565">
		<polygon class="st546" points="19.3,30.84 25.24,26.22 30.4,29.02 37.6,23.57 42.76,26.48 48.21,22.78 48.21,30.84 		"/>
	</g>
</g>
</svg>
