<?xml version="1.0" encoding="utf-8"?>
<!-- Generator: Adobe Illustrator 25.3.1, SVG Export Plug-In . SVG Version: 6.00 Build 0)  -->
<svg version="1.1" id="Layer_1" xmlns="http://www.w3.org/2000/svg" xmlns:xlink="http://www.w3.org/1999/xlink" x="0px" y="0px"
	 viewBox="0 0 127.01 99.48" style="enable-background:new 0 0 127.01 99.48;" xml:space="preserve">
<style type="text/css">
	.st0{fill:#24487F;}
	.st1{fill:#8E8E8E;}
	.st2{fill:#FFFFFF;stroke:#8E8E8E;stroke-linecap:round;stroke-miterlimit:10;}
	.st3{fill:#FFFFFF;}
	.st4{fill:#4DB5D1;}
	.st5{fill:#60934D;}
	.st6{fill:#FFFFFF;stroke:#5F934D;stroke-linecap:round;stroke-miterlimit:10;}
	.st7{fill:#23497F;}
	.st8{fill:#FFFFFF;stroke:#23497F;stroke-linecap:round;stroke-miterlimit:10;}
	.st9{fill:url(#SVGID_1_);}
	.st10{fill:url(#SVGID_2_);}
	.st11{fill:url(#SVGID_3_);}
	.st12{fill:url(#SVGID_4_);}
	.st13{fill:#397BBF;}
	.st14{fill:#1466B1;}
	.st15{fill:#054F8C;}
	.st16{fill:url(#SVGID_5_);}
	.st17{fill:#EFA986;}
	.st18{fill:#152B3D;}
	.st19{fill:#62A9DC;}
	.st20{fill:#977332;}
	.st21{fill:#264480;}
	.st22{fill:#363B3D;}
	.st23{fill:#E45354;}
	.st24{fill:#F5F6F6;}
	.st25{fill:#1A5A8D;}
	.st26{fill:#2274B5;}
	.st27{fill:#3A88C8;}
	.st28{fill:#E3F3FC;}
	.st29{fill:#C5CCD1;}
	.st30{fill:#2A2C47;}
	.st31{fill:#E2D2CA;}
	.st32{fill:#434873;}
	.st33{fill:#3B4048;}
	.st34{fill:#323757;}
	.st35{fill:#81A358;}
	.st36{fill:#71A341;}
	.st37{fill:#618A3C;}
	.st38{fill:#87BD43;}
	.st39{fill:#7BA840;}
	.st40{fill:#70A341;}
	.st41{fill:#6A943E;}
	.st42{fill:#B2CF43;}
	.st43{fill:#9FB34D;}
	.st44{fill:url(#SVGID_6_);}
	.st45{filter:url(#Adobe_OpacityMaskFilter);}
	.st46{filter:url(#Adobe_OpacityMaskFilter_1_);}
	.st47{mask:url(#SVGID_7_);fill:url(#SVGID_8_);}
	.st48{fill:url(#SVGID_9_);}
	.st49{fill:#464443;}
	.st50{fill:#928783;}
	.st51{fill:#1D3C55;}
	.st52{fill:#152C3D;}
	.st53{fill:#A77961;}
	.st54{fill:#D8E9F7;}
	.st55{fill:#BFB2AC;}
	.st56{fill:#FED1A2;}
	.st57{fill:#B37953;}
	.st58{fill:#D6995E;}
	.st59{fill:#807167;}
	.st60{fill:#6E6760;}
	.st61{fill:#928880;}
	.st62{fill:#BC8552;}
	.st63{filter:url(#Adobe_OpacityMaskFilter_2_);}
	.st64{filter:url(#Adobe_OpacityMaskFilter_3_);}
	.st65{mask:url(#SVGID_10_);fill:url(#SVGID_11_);}
	.st66{fill:url(#SVGID_12_);}
	.st67{filter:url(#Adobe_OpacityMaskFilter_4_);}
	.st68{filter:url(#Adobe_OpacityMaskFilter_5_);}
	.st69{mask:url(#SVGID_13_);fill:url(#SVGID_14_);}
	.st70{fill:url(#SVGID_15_);}
	.st71{fill:#C3C8E5;}
	.st72{opacity:0.3;}
	.st73{fill:#F4F6FB;}
	.st74{fill:#E8E8F2;}
	.st75{fill:#D7D6E6;}
	.st76{fill:#F3F4F7;}
	.st77{fill:#FCFDFD;}
	.st78{filter:url(#Adobe_OpacityMaskFilter_6_);}
	.st79{mask:url(#SVGID_16_);}
	.st80{fill:#3F54A5;}
	.st81{fill:#A5A7D4;}
	.st82{fill:#B4BBDF;}
	.st83{fill:url(#SVGID_17_);}
	.st84{fill:#CED0E4;}
	.st85{fill:#EDF0F9;}
	.st86{opacity:0.5;fill:#CFD2D3;}
	.st87{opacity:0.5;fill:#A5A7AA;}
	.st88{fill:#332566;}
	.st89{fill:#FAAE42;}
	.st90{fill:#DFDFDE;}
	.st91{fill:#F6C6B1;}
	.st92{fill:#E8B8A9;}
	.st93{fill:#3D4592;}
	.st94{fill:url(#SVGID_18_);}
	.st95{fill:url(#SVGID_19_);}
	.st96{fill:url(#SVGID_20_);}
	.st97{fill:#112F41;}
	.st98{opacity:0.5;fill:#BDBCD8;}
	.st99{opacity:0.2;fill:#ED5B2A;}
	.st100{fill-rule:evenodd;clip-rule:evenodd;fill:#3E55A5;}
	.st101{fill:#2C1C28;}
	.st102{fill:#EE7762;}
	.st103{opacity:0.25;fill:#ED5B2A;}
	.st104{fill:#CD3046;}
	.st105{fill:#282B70;}
	.st106{fill:url(#SVGID_21_);}
	.st107{fill:url(#SVGID_22_);}
	.st108{fill:#212B46;}
	.st109{fill:#D2D2E9;}
	.st110{fill:#8F95CA;}
	.st111{fill:#BDBCD8;}
	.st112{fill:#F2F7F6;}
	.st113{fill:#C9C8DF;}
	.st114{fill:#E3E3EE;}
	.st115{fill:#FAF0F7;}
	.st116{fill:#FFFCFD;}
	.st117{fill:#E4A28B;}
	.st118{opacity:0.05;fill:#010101;}
	.st119{fill:#D9DDEC;}
	.st120{fill:#C6CBE7;}
	.st121{fill:#8A97CC;}
	.st122{fill:#DFE4F3;}
	.st123{fill:#D5A393;}
	.st124{fill:#182540;}
	.st125{fill:url(#SVGID_23_);}
	.st126{fill:#F1A993;}
	.st127{fill:#687094;}
	.st128{fill:#D7DBEF;}
	.st129{fill:#F4F4F8;}
	.st130{fill:#B2B9DE;}
	.st131{fill:#4D60AC;}
	.st132{fill:#8E97CB;}
	.st133{fill:#BCC6E5;}
	.st134{fill:#AAB9DF;}
	.st135{fill:#FFFBFD;}
	.st136{fill:#34479E;}
	.st137{opacity:0.2;}
	.st138{fill:#60848C;}
	.st139{fill:url(#SVGID_24_);}
	.st140{fill:#F36E5C;}
	.st141{fill:#85BEE7;}
	.st142{fill:#908F8F;}
	.st143{fill:#F1F0F0;}
	.st144{fill:url(#SVGID_25_);}
	.st145{fill:#CCCCCC;}
	.st146{fill:#F6F7FB;}
	.st147{fill:#E6E6E5;}
	.st148{fill:#F3F3F3;}
	.st149{fill:#EFF0F7;}
	.st150{fill:url(#SVGID_26_);}
	.st151{fill:url(#SVGID_27_);}
	.st152{fill:url(#SVGID_28_);}
	.st153{fill:url(#SVGID_29_);}
	.st154{fill:url(#SVGID_30_);}
	.st155{fill:url(#SVGID_31_);}
	.st156{fill:#3D426A;}
	.st157{fill:#252840;}
	.st158{fill:#C4B4AF;}
	.st159{fill:#EA4747;}
	.st160{fill:#6B7BBC;}
	.st161{fill:#5266AF;}
	.st162{fill:#5062AD;}
	.st163{fill:#EDDAD3;}
	.st164{fill:#DECDC7;}
	.st165{fill:#E3D1CA;}
	.st166{fill:#B39595;}
	.st167{fill:#DBB8B8;}
	.st168{fill:#F1CCCB;}
	.st169{fill:#323538;}
	.st170{fill:#EFAA88;}
	.st171{fill:#1D2133;}
	.st172{fill:#EFAA87;}
	.st173{fill:#D88A51;}
	.st174{fill:#C68D71;}
	.st175{fill:#A19FA7;}
	.st176{fill:#EAE6F1;}
	.st177{fill:#3B4167;}
	.st178{fill:#DE9674;}
	.st179{fill:#764937;}
	.st180{fill:#5D554E;}
	.st181{fill:#3D4246;}
	.st182{fill:#FFD356;}
	.st183{fill:url(#SVGID_32_);}
	.st184{fill:url(#SVGID_33_);}
	.st185{fill:url(#SVGID_34_);}
	.st186{fill:url(#SVGID_35_);}
	.st187{fill:url(#SVGID_36_);}
	.st188{fill:url(#SVGID_37_);}
	.st189{opacity:0.5;}
	.st190{fill:#FCEACF;}
	.st191{opacity:0.8;}
	.st192{fill:#D4EEF6;}
	.st193{fill:#3AA1C9;}
	.st194{fill:#3F9896;}
	.st195{fill:#7FC6A6;}
	.st196{fill:#DEF2FD;}
	.st197{fill:#223849;}
	.st198{fill:#B4E3F7;}
	.st199{fill:#F89F74;}
	.st200{fill:#E33F3E;}
	.st201{fill:#482B32;}
	.st202{fill:#D8E4F4;}
	.st203{fill:#683E47;}
	.st204{fill:#3788BA;}
	.st205{fill:#22131E;}
	.st206{fill:#FAB59D;}
	.st207{fill:#CC2327;}
	.st208{fill:#E2F3F1;}
	.st209{fill:#F07163;}
	.st210{fill:#49273F;}
	.st211{fill:#4C232E;}
	.st212{fill:#010101;}
	.st213{fill:#F7956E;}
	.st214{fill:#F68D64;}
	.st215{fill:#F27584;}
	.st216{fill:#4EB8D9;}
	.st217{fill:#EF4751;}
	.st218{fill:#ACC7E8;}
	.st219{fill:#268E8D;}
	.st220{fill:#3A1F33;}
	.st221{fill:#FECC87;}
	.st222{fill:#FBB359;}
	.st223{fill:#331A2C;}
	.st224{fill:#FDC886;}
	.st225{fill:#F7934B;}
	.st226{fill:#F04D65;}
	.st227{fill:#F6D6B2;}
	.st228{fill:#61A3C5;}
	.st229{fill:#B1D89B;}
	.st230{fill:#A8C8E5;}
	.st231{fill:#C1D1EC;}
	.st232{fill:#F2AC40;}
	.st233{fill:#3B57A6;}
	.st234{fill:#C2D5EE;}
	.st235{fill:#A9C4E6;}
	.st236{fill:#2D572A;}
	.st237{fill:#274392;}
	.st238{fill:#95B0DB;}
	.st239{fill:#BFBFBF;}
	.st240{fill:#E9F3FB;}
	.st241{fill:#6B81C0;}
	.st242{fill:#8FB1DD;}
	.st243{fill:#F58765;}
	.st244{fill:#2C1913;}
	.st245{fill:#6A3F31;}
	.st246{fill:#F37559;}
	.st247{fill:#F47A55;}
	.st248{fill:#E0B3A8;}
	.st249{fill:#D9D9D9;}
	.st250{fill:#C6DD74;}
	.st251{fill:#9FCB5F;}
	.st252{fill:#7C9D48;}
	.st253{fill:#E7E7E7;}
	.st254{fill:#F2C791;}
	.st255{fill:#B7B7B7;}
	.st256{fill:#7595CD;}
	.st257{fill:#FAB18D;}
	.st258{fill:#F6977C;}
	.st259{fill:#D1E28C;}
	.st260{fill:none;}
	.st261{fill:#1B1B1C;}
	.st262{fill:#F47E46;}
	.st263{fill:#EB6828;}
	.st264{fill:#F79668;}
	.st265{fill:#E6B54E;}
	.st266{fill:#676767;}
	.st267{fill:#4D4C4C;}
	.st268{fill:#F27070;}
	.st269{fill:#C24D4D;}
	.st270{enable-background:new    ;}
	.st271{fill:#C39B6A;}
	.st272{fill:#C9A475;}
	.st273{fill:#E6B880;}
	.st274{fill:#9F3D3E;}
	.st275{fill:#FFD679;}
	.st276{fill:#F4805D;}
	.st277{fill:#DA5958;}
	.st278{fill:#7D3D20;}
	.st279{fill:#562915;}
	.st280{fill:#B15931;}
	.st281{fill:#5076BA;}
	.st282{fill:#59ADC0;}
	.st283{fill:#099895;}
	.st284{fill:#F5AE87;}
	.st285{fill:#D9504F;}
	.st286{fill:#FCC79A;}
	.st287{fill:#FFDC7B;}
	.st288{fill:#F15958;}
	.st289{fill:#674E46;}
	.st290{fill:#785D51;}
	.st291{clip-path:url(#SVGID_39_);fill:#60934D;}
	.st292{clip-path:url(#SVGID_39_);}
	.st293{fill:#BD725F;}
	.st294{fill:#E6F1D1;}
	.st295{fill:#A86046;}
	.st296{fill:#3C251D;}
	.st297{fill:#4A413F;}
	.st298{fill:#716765;}
	.st299{fill:#EEBD7F;}
	.st300{fill:#7DA594;}
	.st301{fill:#252433;}
	.st302{fill:#F7E6C7;}
	.st303{fill:#E79F90;}
	.st304{fill:#CC4A38;}
	.st305{fill:#333333;}
	.st306{fill:#E1755E;}
	.st307{fill:#E8A180;}
	.st308{fill:#694136;}
	.st309{fill:#C06360;}
	.st310{fill:#CD5A5A;}
	.st311{fill:#E17660;}
	.st312{opacity:0.42;}
	.st313{fill-rule:evenodd;clip-rule:evenodd;fill:#B1D89B;}
	.st314{clip-path:url(#SVGID_41_);fill:#92B779;}
	.st315{clip-path:url(#SVGID_43_);fill:url(#SVGID_44_);}
	.st316{fill-rule:evenodd;clip-rule:evenodd;fill:#60934D;}
	.st317{clip-path:url(#SVGID_46_);fill:url(#SVGID_47_);}
	.st318{fill-rule:evenodd;clip-rule:evenodd;fill:#274CA1;}
	.st319{clip-path:url(#SVGID_49_);fill:url(#SVGID_50_);}
	.st320{clip-path:url(#SVGID_52_);fill:url(#SVGID_53_);}
	.st321{fill-rule:evenodd;clip-rule:evenodd;fill:#F3AF8F;}
	.st322{fill-rule:evenodd;clip-rule:evenodd;fill:#6E2D5F;}
	.st323{fill-rule:evenodd;clip-rule:evenodd;fill:#4D1942;}
	.st324{fill-rule:evenodd;clip-rule:evenodd;fill:#101841;}
	.st325{fill-rule:evenodd;clip-rule:evenodd;fill:#144984;}
	.st326{fill-rule:evenodd;clip-rule:evenodd;fill:#35AD82;}
	.st327{fill-rule:evenodd;clip-rule:evenodd;fill:#198C67;}
	.st328{fill-rule:evenodd;clip-rule:evenodd;fill:#F6C1C5;}
	.st329{fill-rule:evenodd;clip-rule:evenodd;fill:#53B9E9;}
	.st330{fill-rule:evenodd;clip-rule:evenodd;fill:#7DD3F7;}
	.st331{clip-path:url(#SVGID_55_);fill:url(#SVGID_56_);}
	.st332{clip-path:url(#SVGID_58_);fill:url(#SVGID_59_);}
	.st333{fill-rule:evenodd;clip-rule:evenodd;fill:#3DB4E8;}
	.st334{clip-path:url(#SVGID_61_);fill:url(#SVGID_62_);}
	.st335{fill-rule:evenodd;clip-rule:evenodd;fill:#F4FBFE;}
	.st336{fill-rule:evenodd;clip-rule:evenodd;fill:#F4B1B1;}
	.st337{fill-rule:evenodd;clip-rule:evenodd;fill:#D4EAD8;}
	.st338{fill-rule:evenodd;clip-rule:evenodd;fill:#E16C6C;}
	.st339{clip-path:url(#SVGID_64_);fill:url(#SVGID_65_);}
	.st340{clip-path:url(#SVGID_67_);fill:url(#SVGID_68_);}
	.st341{clip-path:url(#SVGID_70_);fill:url(#SVGID_71_);}
	.st342{clip-path:url(#SVGID_73_);fill:url(#SVGID_74_);}
	.st343{clip-path:url(#SVGID_76_);fill:url(#SVGID_77_);}
	.st344{fill-rule:evenodd;clip-rule:evenodd;fill:#316CB5;}
	.st345{clip-path:url(#SVGID_79_);fill:url(#SVGID_80_);}
	.st346{fill-rule:evenodd;clip-rule:evenodd;fill:#DF5D7B;}
	.st347{clip-path:url(#SVGID_82_);fill:url(#SVGID_83_);}
	.st348{fill-rule:evenodd;clip-rule:evenodd;fill:#2D572A;}
	.st349{clip-path:url(#SVGID_85_);fill:#60934D;}
	.st350{clip-path:url(#SVGID_87_);fill:url(#SVGID_88_);}
	.st351{clip-path:url(#SVGID_90_);fill:url(#SVGID_91_);}
	.st352{clip-path:url(#SVGID_93_);fill:url(#SVGID_94_);}
	.st353{fill:url(#SVGID_95_);}
	.st354{filter:url(#Adobe_OpacityMaskFilter_7_);}
	.st355{filter:url(#Adobe_OpacityMaskFilter_8_);}
	.st356{mask:url(#SVGID_96_);fill:url(#SVGID_97_);}
	.st357{fill:url(#SVGID_98_);}
	.st358{fill:none;stroke:#FFFFFF;stroke-miterlimit:10;}
	.st359{fill:url(#SVGID_99_);}
	.st360{filter:url(#Adobe_OpacityMaskFilter_9_);}
	.st361{filter:url(#Adobe_OpacityMaskFilter_10_);}
	.st362{mask:url(#SVGID_100_);fill:url(#SVGID_101_);}
	.st363{fill:url(#SVGID_102_);}
	.st364{fill:url(#SVGID_103_);}
	.st365{filter:url(#Adobe_OpacityMaskFilter_11_);}
	.st366{filter:url(#Adobe_OpacityMaskFilter_12_);}
	.st367{mask:url(#SVGID_104_);fill:url(#SVGID_105_);}
	.st368{fill:url(#SVGID_106_);}
	.st369{fill:url(#SVGID_107_);}
	.st370{filter:url(#Adobe_OpacityMaskFilter_13_);}
	.st371{filter:url(#Adobe_OpacityMaskFilter_14_);}
	.st372{mask:url(#SVGID_108_);fill:url(#SVGID_109_);}
	.st373{fill:url(#SVGID_110_);}
	.st374{fill:url(#SVGID_111_);}
	.st375{fill:url(#SVGID_112_);}
	.st376{fill:url(#SVGID_113_);}
	.st377{fill:url(#SVGID_114_);}
	.st378{fill:url(#SVGID_115_);}
	.st379{fill:url(#SVGID_116_);}
	.st380{fill:#FBC5B4;}
	.st381{fill:url(#SVGID_117_);}
	.st382{fill:url(#SVGID_118_);}
	.st383{filter:url(#Adobe_OpacityMaskFilter_15_);}
	.st384{filter:url(#Adobe_OpacityMaskFilter_16_);}
	.st385{mask:url(#SVGID_119_);fill:url(#SVGID_120_);}
	.st386{fill:url(#SVGID_121_);}
	.st387{fill:url(#SVGID_122_);}
	.st388{filter:url(#Adobe_OpacityMaskFilter_17_);}
	.st389{filter:url(#Adobe_OpacityMaskFilter_18_);}
	.st390{mask:url(#SVGID_123_);fill:url(#SVGID_124_);}
	.st391{fill:url(#SVGID_125_);}
	.st392{fill:url(#SVGID_126_);}
	.st393{fill:#F69575;}
	.st394{fill:url(#SVGID_127_);}
	.st395{fill:url(#SVGID_128_);}
	.st396{fill:url(#SVGID_129_);}
	.st397{fill:url(#SVGID_130_);}
	.st398{fill:url(#SVGID_131_);}
	.st399{fill:#F05253;}
	.st400{fill:#ED1C24;}
	.st401{fill:url(#SVGID_132_);}
	.st402{fill:url(#SVGID_133_);}
	.st403{fill:url(#SVGID_134_);}
	.st404{fill:url(#SVGID_135_);}
	.st405{fill:url(#SVGID_136_);}
	.st406{fill:url(#SVGID_137_);}
	.st407{fill:#FDC78D;}
	.st408{fill:#FFD10A;}
	.st409{fill:url(#SVGID_138_);}
	.st410{fill:url(#SVGID_139_);}
	.st411{fill:url(#SVGID_140_);}
	.st412{fill:#6899D1;}
	.st413{fill:#F4F4F4;}
	.st414{fill:#DAEEF6;}
	.st415{fill:url(#SVGID_141_);}
	.st416{fill:#85CEC1;}
	.st417{fill:url(#SVGID_142_);}
	.st418{fill:#F37878;}
	.st419{fill:url(#SVGID_143_);}
	.st420{fill:url(#SVGID_144_);}
	.st421{fill:url(#SVGID_145_);}
	.st422{fill:url(#SVGID_146_);}
	.st423{fill:url(#SVGID_147_);}
	.st424{fill:url(#SVGID_148_);}
	.st425{fill:url(#SVGID_149_);}
	.st426{fill:url(#SVGID_150_);}
	.st427{fill:url(#SVGID_151_);}
	.st428{fill:url(#SVGID_152_);}
	.st429{fill:url(#SVGID_153_);}
	.st430{fill:#F0EFEF;}
	.st431{fill:#DBD7D7;}
	.st432{fill:#63C7D3;}
	.st433{opacity:0.5;fill:#63C7D3;}
	.st434{fill:#E6E7F4;}
	.st435{fill:#23214D;}
	.st436{fill:#283996;}
	.st437{fill:#1B193A;}
	.st438{fill:#F68D63;}
	.st439{fill:#F9A575;}
	.st440{fill:#FEDA04;}
	.st441{fill:#312126;}
	.st442{fill:#F15F4B;}
	.st443{fill:#F15834;}
	.st444{fill:#EC4524;}
	.st445{fill:#F26B76;}
	.st446{fill:#4D5BA9;}
	.st447{fill:#2D327E;}
	.st448{fill:#39469D;}
	.st449{fill:#9AC181;}
	.st450{fill:#7ED0DC;}
	.st451{display:none;}
	.st452{display:inline;fill:#F9A575;}
	.st453{display:inline;}
	.st454{fill:#673A3C;}
	.st455{fill:#794447;}
	.st456{fill:#47222C;}
	.st457{fill:#29275C;}
	.st458{fill:#57B0B9;}
	.st459{fill:#EF434E;}
	.st460{fill:#E24826;}
	.st461{fill:#4754A5;}
	.st462{fill:#B6C153;}
	.st463{fill:#DD4361;}
	.st464{fill:#FBB67B;}
	.st465{fill:#F6EEEA;}
	.st466{fill:#251D1C;}
	.st467{fill:#E0B895;}
	.st468{fill:#DFB793;}
	.st469{fill:#B8A79D;}
	.st470{fill:#9B93C7;}
	.st471{fill:#6A8037;}
	.st472{fill:#E9633E;}
	.st473{fill:#F6936F;}
	.st474{fill:#DBD8EC;}
	.st475{fill:#221A19;}
	.st476{fill:#382621;}
	.st477{fill:#F7EFEC;}
	.st478{fill:#FBB67C;}
	.st479{fill:#70CACA;}
	.st480{fill:#004669;}
	.st481{fill:#33ADA9;}
	.st482{fill:#EE777A;}
	.st483{fill:#C3E8F0;}
	.st484{fill:#C39C44;}
	.st485{fill:#FFE6B0;}
	.st486{fill:#FFCB5D;}
	.st487{fill:#D2EDF5;}
	.st488{fill:none;stroke:#D2EDF5;stroke-width:2.2824;stroke-miterlimit:10;}
	.st489{fill:#0F4672;}
	.st490{fill:#92B779;}
	.st491{fill:#D47C60;}
	.st492{fill:#054A6E;}
	.st493{fill:#2B9996;}
	.st494{fill:#CAE9EB;}
	.st495{fill:#F7A581;}
	.st496{fill:#F18D24;}
	.st497{fill:#CF7929;}
	.st498{fill:#182F40;}
	.st499{fill:#0E1B2D;}
	.st500{fill:#406E34;}
	.st501{fill:#3B83B0;}
	.st502{fill:#3B3F4A;}
	.st503{fill:#242930;}
	.st504{fill:#FBD165;}
	.st505{fill:#FCB017;}
	.st506{fill:#155567;}
	.st507{fill:#236A7E;}
	.st508{fill:#3096B3;}
	.st509{fill:#84D2F6;}
	.st510{fill:#C4E4F8;}
	.st511{fill:#FCB774;}
	.st512{fill:#FAA31B;}
	.st513{fill:#E38D25;}
	.st514{fill:#AADFF3;}
	.st515{fill:#126E84;}
	.st516{fill:#064A56;}
	.st517{fill:#096D84;}
	.st518{fill:#D3CED9;}
	.st519{fill:#D89466;}
	.st520{fill:#FAA61A;}
	.st521{fill:#AA6549;}
	.st522{fill:#B35143;}
	.st523{fill:#3B3E54;}
	.st524{fill:#8A432D;}
	.st525{fill:#4C2F2C;}
	.st526{fill:#3C1C19;}
	.st527{fill:#9889C1;}
	.st528{fill:#CC8759;}
	.st529{fill:#665DA9;}
	.st530{fill:#5C2B20;}
	.st531{fill:#F4F5F0;}
	.st532{fill:#E04A95;}
	.st533{fill:#BC6944;}
	.st534{fill:#673021;}
	.st535{fill:#C4C2DF;}
	.st536{fill:#342B29;}
	.st537{fill:#E69F6F;}
	.st538{fill:#F173AC;}
	.st539{fill:#FAA43A;}
	.st540{fill:#F7F7FA;}
	.st541{fill:#3F4076;}
	.st542{fill:#5CA4DA;}
	.st543{fill:#BBD071;}
	.st544{fill:#97A33B;}
	.st545{fill:#49763A;}
	.st546{fill:#E5F2FC;}
	.st547{opacity:0.85;}
	.st548{fill:#4692CF;}
	.st549{fill:#0E2D3D;}
	.st550{fill:#5478B4;}
	.st551{fill:#5B83C3;}
	.st552{fill:#304664;}
	.st553{fill:#364D71;}
	.st554{fill:#2C3B57;}
	.st555{fill:#D5D8E8;}
	.st556{opacity:0.82;}
	.st557{fill:#418ECC;}
	.st558{fill:#173342;}
	.st559{fill:#295274;}
	.st560{fill:#F47D58;}
	.st561{fill:#183C59;}
	.st562{fill:#616262;}
	.st563{fill:#E0CFC8;}
	.st564{fill:#64A8DC;}
	.st565{opacity:0.66;}
	.st566{fill:#CBE1F5;}
	.st567{fill:#8CB6E1;}
	.st568{fill:#B5D3EF;}
	.st569{fill:#B8D8F2;}
	.st570{fill:#92B4DF;}
	.st571{fill:#BBDDDE;}
	.st572{fill:#D1ECED;}
	.st573{fill:#C8CBE2;}
	.st574{fill:#669AD2;}
	.st575{fill:#4D84C5;}
	.st576{fill:#181C4D;}
	.st577{fill:#EFBBBB;}
	.st578{fill:#F9CBCB;}
	.st579{fill:#2B3874;}
	.st580{fill:#EBAEAD;}
	.st581{fill:#21295D;}
	.st582{fill:#31344D;}
	.st583{fill:#FCD4D1;}
	.st584{fill:#B95050;}
	.st585{fill:#FEE9E2;}
	.st586{fill:#181A2E;}
	.st587{fill:#EB9B9C;}
	.st588{fill:#F9B7B3;}
	.st589{fill:#444C86;}
	.st590{fill:#2B3367;}
	.st591{fill:#93BAE3;}
	.st592{fill:#4B80C1;}
	.st593{fill:#396CAD;}
	.st594{fill:#C0D9F1;}
	.st595{fill:#F9B4AF;}
	.st596{fill:#4E88C7;}
	.st597{fill:#195595;}
	.st598{fill:#D9475A;}
	.st599{fill:#1172BA;}
	.st600{fill:#247BBC;}
	.st601{fill:#FAA71F;}
	.st602{fill:#D55127;}
	.st603{fill:none;stroke:#212F57;stroke-width:0.925;stroke-miterlimit:10;}
	.st604{fill:#212F57;}
	.st605{opacity:0.5;fill:#838DC5;}
	.st606{fill:#F2C7BD;}
	.st607{fill:none;stroke:#212F57;stroke-width:1.2665;stroke-linecap:round;stroke-linejoin:round;stroke-miterlimit:10;}
	.st608{fill:#272A41;}
	.st609{fill:none;stroke:#E8B1C3;stroke-width:2.5241;stroke-miterlimit:10;}
	.st610{fill:#5160A5;}
	.st611{opacity:0.5;fill:#D55127;}
	.st612{opacity:0.5;fill:#DA8727;}
	.st613{opacity:0.7;}
	.st614{fill:#DA8727;}
	.st615{fill:#A3BDE3;}
	.st616{fill:#1B7A84;}
	.st617{fill:#B1D2EF;}
	.st618{fill:#F8ACAD;}
	.st619{opacity:0.63;}
	.st620{clip-path:url(#SVGID_155_);}
	.st621{fill:#D7E7F6;}
	.st622{clip-path:url(#SVGID_157_);}
	.st623{clip-path:url(#SVGID_159_);}
	.st624{clip-path:url(#SVGID_161_);}
	.st625{clip-path:url(#SVGID_163_);}
	.st626{clip-path:url(#SVGID_165_);}
	.st627{clip-path:url(#SVGID_167_);}
	.st628{clip-path:url(#SVGID_169_);}
	.st629{clip-path:url(#SVGID_171_);}
	.st630{clip-path:url(#SVGID_173_);}
	.st631{clip-path:url(#SVGID_175_);}
	.st632{clip-path:url(#SVGID_177_);}
	.st633{clip-path:url(#SVGID_179_);}
	.st634{clip-path:url(#SVGID_181_);}
	.st635{clip-path:url(#SVGID_183_);}
	.st636{clip-path:url(#SVGID_185_);}
	.st637{clip-path:url(#SVGID_187_);}
	.st638{clip-path:url(#SVGID_189_);}
	.st639{clip-path:url(#SVGID_191_);}
	.st640{clip-path:url(#SVGID_193_);}
	.st641{clip-path:url(#SVGID_195_);}
	.st642{fill:#89B2DF;}
	.st643{fill:#4377BC;}
	.st644{fill:#DA6566;}
	.st645{fill:#F58E92;}
	.st646{fill-rule:evenodd;clip-rule:evenodd;fill:#4DB5D1;}
	.st647{fill:#F15C60;}
	.st648{fill:#FFD574;}
	.st649{fill:#F2B892;}
	.st650{fill:#EB836C;}
	.st651{fill:url(#SVGID_196_);}
	.st652{fill:#222C55;}
	.st653{fill:#4551A3;}
	.st654{fill:url(#SVGID_197_);}
	.st655{fill:#0B3C5F;}
	.st656{fill:#F8A187;}
	.st657{fill:#F4B68F;}
	.st658{fill:#232850;}
	.st659{fill:#306D9E;}
	.st660{fill:#255981;}
	.st661{fill:#F69E83;}
	.st662{fill:#0B3D60;}
	.st663{opacity:0.45;fill:#89B2DF;}
	.st664{filter:url(#Adobe_OpacityMaskFilter_19_);}
	.st665{filter:url(#Adobe_OpacityMaskFilter_20_);}
	.st666{mask:url(#SVGID_198_);fill:url(#SVGID_199_);}
	.st667{opacity:0.33;fill:#AADFF3;}
	.st668{filter:url(#Adobe_OpacityMaskFilter_21_);}
	.st669{filter:url(#Adobe_OpacityMaskFilter_22_);}
	.st670{mask:url(#SVGID_200_);fill:url(#SVGID_201_);}
	.st671{filter:url(#Adobe_OpacityMaskFilter_23_);}
	.st672{filter:url(#Adobe_OpacityMaskFilter_24_);}
	.st673{mask:url(#SVGID_202_);fill:url(#SVGID_203_);}
	.st674{fill:#CFD8EE;}
	.st675{fill:#E3E6F4;}
	.st676{fill:#ABBADF;}
	.st677{fill:#C3CCE8;}
	.st678{fill:url(#SVGID_204_);}
	.st679{fill:url(#SVGID_205_);}
	.st680{fill:#D3D0E9;}
	.st681{fill:#078BBF;}
	.st682{fill:#057B97;}
	.st683{fill:url(#SVGID_206_);}
	.st684{fill:#C74534;}
	.st685{fill:#F27B66;}
	.st686{fill:#58449B;}
	.st687{fill:#6B52A2;}
	.st688{fill:#A9A6D2;}
	.st689{fill:#C4C0E0;}
	.st690{opacity:0.33;}
	.st691{opacity:0.23;fill:url(#SVGID_207_);}
	.st692{opacity:0.36;fill:url(#SVGID_208_);}
	.st693{opacity:0.36;fill:url(#SVGID_209_);}
	.st694{opacity:0.23;fill:url(#SVGID_210_);}
	.st695{fill:#D8E0F2;}
	.st696{opacity:0.36;fill:url(#SVGID_211_);}
	.st697{opacity:0.42;fill:url(#SVGID_212_);}
	.st698{fill:#F6F9FD;}
	.st699{fill:#049AC9;}
	.st700{fill:#E0E0E0;}
	.st701{fill:#EBEBEB;}
	.st702{fill:none;stroke:#F2A59D;stroke-width:0.05;stroke-miterlimit:10;}
	.st703{fill:#FAFBFB;}
	.st704{fill:#E7515B;}
	.st705{fill:#CFCFCE;}
	.st706{fill:#FBBD9D;}
	.st707{fill:#EC996F;}
	.st708{opacity:0.6;fill:#FFFFFF;}
	.st709{opacity:0.6;}
	.st710{fill:#263238;}
	.st711{fill:#455B64;}
	.st712{fill:none;stroke:#43494E;stroke-miterlimit:10;}
	.st713{fill:#F5F5F5;}
	.st714{fill:#F3725F;}
	.st715{opacity:0;}
	.st716{clip-path:url(#SVGID_214_);}
	.st717{fill:#C9D8EF;}
	.st718{clip-path:url(#SVGID_216_);}
	.st719{clip-path:url(#SVGID_218_);}
	.st720{clip-path:url(#SVGID_220_);}
	.st721{clip-path:url(#SVGID_222_);}
	.st722{clip-path:url(#SVGID_224_);}
	.st723{clip-path:url(#SVGID_226_);}
	.st724{clip-path:url(#SVGID_228_);}
	.st725{clip-path:url(#SVGID_230_);}
	.st726{clip-path:url(#SVGID_232_);}
	.st727{clip-path:url(#SVGID_234_);}
	.st728{clip-path:url(#SVGID_236_);}
	.st729{clip-path:url(#SVGID_238_);}
	.st730{clip-path:url(#SVGID_240_);}
	.st731{clip-path:url(#SVGID_242_);}
	.st732{clip-path:url(#SVGID_244_);}
	.st733{clip-path:url(#SVGID_246_);}
	.st734{clip-path:url(#SVGID_248_);}
	.st735{clip-path:url(#SVGID_250_);}
	.st736{clip-path:url(#SVGID_252_);}
	.st737{clip-path:url(#SVGID_254_);}
	.st738{fill:#59595B;}
	.st739{fill:#EDF7F7;}
	.st740{fill:#FDD247;}
	.st741{fill:#1D2040;}
	.st742{fill:url(#SVGID_255_);}
	.st743{fill:#F89A45;}
	.st744{fill:#4F2E1F;}
	.st745{fill:#AEADAD;}
	.st746{fill:#3C2116;}
	.st747{fill:#76696D;}
	.st748{fill:#DFB0B4;}
	.st749{fill:#0E4363;}
	.st750{fill:#F8F6F1;}
	.st751{fill:#A4BAE1;}
	.st752{fill:#4D1F38;}
	.st753{fill:#3A1528;}
	.st754{fill:#746875;}
	.st755{fill:#DAADD1;}
	.st756{fill:url(#SVGID_256_);}
	.st757{fill:#CD3570;}
	.st758{fill:url(#SVGID_257_);}
	.st759{fill:url(#SVGID_258_);}
	.st760{fill:#A09F9F;}
	.st761{fill:none;stroke:#FFFFFF;stroke-linecap:round;stroke-miterlimit:10;}
	.st762{fill:none;stroke:#FFFFFF;stroke-linecap:round;stroke-linejoin:round;stroke-miterlimit:10;}
	.st763{fill:none;stroke:#A09F9F;stroke-miterlimit:10;}
	.st764{fill:#7B553A;}
	.st765{fill:#5F422D;}
	.st766{fill:#FDB839;}
	.st767{fill:#401B0F;}
	.st768{fill:#034B4E;}
	.st769{opacity:0.36;}
	.st770{opacity:0.1;fill:#CFCFCE;}
	.st771{opacity:0.15;}
	.st772{fill:#FBB781;}
	.st773{fill:#49A8D5;}
	.st774{fill:#077679;}
	.st775{opacity:0.1;}
	.st776{fill:#BEE0C0;}
	.st777{opacity:0.23;fill:#245C74;}
	.st778{fill:#245C74;}
	.st779{fill:#FCC69B;}
	.st780{fill:#DBA285;}
	.st781{fill:#757576;}
	.st782{fill:#ABABAA;}
	.st783{fill:#6F6F71;}
	.st784{fill:#FFCA70;}
	.st785{fill:#FAA325;}
	.st786{fill:none;stroke:#077679;stroke-width:0.25;stroke-linecap:round;stroke-linejoin:round;stroke-miterlimit:10;}
	.st787{fill:#963A20;}
	.st788{fill:#E2E2E2;}
	.st789{fill:#18184B;}
	.st790{fill:#F8B6C9;}
	.st791{fill:#F58531;}
	.st792{fill:#759CD2;}
	.st793{fill:#BACFEB;}
</style>
<g>
	<path class="st514" d="M127.01,62.18c0,13.02-4.42,25.01-11.85,34.54c-0.71,0.91-1.45,1.8-2.21,2.67H28.52
		c-0.76-0.87-1.5-1.76-2.21-2.67c-7.42-9.54-11.85-21.52-11.85-34.54c0-31.08,25.19-56.27,56.27-56.27
		C101.82,5.91,127.01,31.1,127.01,62.18z"/>
	<g>
		<g>
			<path class="st602" d="M14.72,77.96l-0.92-0.12l0.85,0.51c-0.5,2.4-1.94,4.05-2.05,4.17c-0.01,0.01-0.01,0.01-0.01,0.01
				c-0.34,0.38-1.65-0.5-1.89-0.72c-0.96-0.86-1.4-2.11-1.82-3.29c-0.51-1.44-0.99-2.89-1.6-4.29c-0.49-1.12-1.03-2.21-1.56-3.31
				l0.46-1.36l-1.15-0.12c-0.11-0.24-0.22-0.49-0.32-0.73c-0.47-1.1-0.92-2.2-1.33-3.32c0.2,0.07,5.58,2.09,8.83,5.46l-0.43,0.69
				l1.24,0.24c0.41,0.51,0.76,1.06,1.03,1.63C14.83,75.05,14.93,76.61,14.72,77.96z"/>
			<path class="st602" d="M25.98,74.86c-0.11,0.13-0.21,0.27-0.32,0.41c-1,1.41-2.1,2.75-3.29,4l-0.59-0.39c0,0,0.2,0.39,0.32,0.66
				c-1.03,1.08-2.14,2.1-3.29,3.06c-0.32,0.26-0.68,0.53-1.08,0.7l-0.48-0.51c0,0,0.01,0.37,0.01,0.66
				c-0.18,0.03-0.35,0.04-0.54,0.02c-0.24-0.03-1.12-0.2-1.24-0.44l-0.01-0.01c0,0-1.17-2.63,1.07-4.98
				c0.23-0.24,0.49-0.45,0.77-0.64l0.38,0.49l0.63-1.06c0.6-0.28,1.23-0.5,1.83-0.7c1.34-0.44,2.74-0.76,4.13-1
				C24.85,75.02,25.41,74.94,25.98,74.86z"/>
			<path class="st602" d="M9.65,84.82L9.65,84.82c-1.53,0.66-3.31,0.08-4.92-0.89c0.21-0.44,0.64-1.3,0.68-1.36
				c0.04-0.06-0.79,0.6-1.26,0.99C1.83,82.03,0,79.89,0,79.89s6.09-0.39,8.36,0.79c0.22,0.12,0.42,0.25,0.58,0.39l-0.2,0.46
				l0.51-0.13C10.32,82.77,9.65,84.82,9.65,84.82z"/>
			<g>
				<path class="st603" d="M12.44,89.27c0,0,2.11-13.11-5.57-20.5"/>
				<path class="st603" d="M12.73,91.14c0,0,0.75-10.29,9.37-13.77"/>
				<path class="st603" d="M12.32,88.56c0,0-3.43-6.51-8.69-7.71"/>
			</g>
			<path class="st604" d="M18.04,88.12l-2.59,9.33h-5.4l-2.57-9.27c0-0.01-0.01-0.02-0.01-0.03l-0.01-0.03H18.04z"/>
		</g>
		<path class="st605" d="M10.92,97.45h4.54l2.57-9.27C17.77,88.95,15.1,96.93,10.92,97.45z"/>
	</g>
	<g>
		<g>
			<path class="st606" d="M70.19,53.15c-7.59,0.3-21.11,39.22-15.83,39.97C61.48,98.06,82.47,55.12,70.19,53.15z"/>
			<path class="st4" d="M70.79,51.61l-0.07,9.56l-0.14,18.87c0,0-0.15,0.24-0.42,0.68c-0.07,0.11-0.14,0.23-0.22,0.35
				c-0.24,0.39-0.54,0.88-0.89,1.45l-4.27-2.88l-8.13-5.48c2.08-5.37,4.24-10.56,5.76-13.39C66.46,53.24,70.79,51.61,70.79,51.61z"
				/>
			<path class="st515" d="M70.72,61.17l-0.14,18.87c0,0-0.15,0.24-0.42,0.68c-0.07,0.11-0.14,0.22-0.22,0.35
				c-0.24,0.39-0.54,0.88-0.89,1.45l-4.27-2.88c0.15-5.32,0.07-7.68,0-11.81c-0.08-4.37,1.35-10.04,1.35-10.04
				S68.44,59.49,70.72,61.17z"/>
			<g>
				<polygon class="st606" points="89.83,52.89 83.61,57.56 79.17,53.6 79.17,47.64 88.04,40.68 88.2,41.74 88.66,44.92 				"/>
				<path class="st606" d="M88.66,44.92c-5.33,4.38-8.91,4.14-9.49,4.24c-0.03,0-0.05,0.01-0.05,0.01l0.05-0.04l8.27-7.33
					c0,0,0.33-0.04,0.76-0.05L88.66,44.92z"/>
				<g>
					<path class="st606" d="M88.81,41.93c0,0-1.64,3.67-5.47,5.53c-1.79,0.88-3.83,2.06-5.9,1.65c-1.83-0.36-2.8-2.18-3.58-3.69
						c-0.76-1.47-1.11-3.13-1.12-4.78c0-1.78,0.09-3.51-0.29-5.27c-0.3-1.39-0.75-3.12,0.08-4.41c1.07-1.68,9.45-3.76,9.45-3.76
						l4.93,2.72l3.73,2.47L88.81,41.93z"/>
					<g>
						<g>
							<g>
								<path class="st604" d="M73.62,37.52c0,0.58,0.31,1.05,0.69,1.05c0.37,0,0.67-0.48,0.67-1.06c0-0.29-0.08-0.56-0.2-0.75
									c-0.12-0.19-0.29-0.31-0.48-0.31C73.91,36.47,73.61,36.94,73.62,37.52z"/>
							</g>
							<g>
								<path class="st604" d="M80.21,37.92c0,0.58,0.35,1.05,0.76,1.05c0.42,0,0.75-0.48,0.75-1.06c0-0.29-0.09-0.56-0.23-0.75
									c-0.14-0.19-0.33-0.31-0.54-0.31C80.54,36.86,80.21,37.33,80.21,37.92z"/>
							</g>
						</g>
						<line class="st607" x1="79.42" y1="34.75" x2="81.89" y2="35.03"/>
						<line class="st607" x1="73.09" y1="34.63" x2="75.06" y2="34.66"/>
						<path class="st607" d="M77.36,38.1c0,0-0.77,1.37-1.05,1.74c-0.28,0.37-1.13,1.57,0.77,1.64"/>
						<path class="st604" d="M79.74,43.47c0,0-0.2,0.21-0.55,0.45c-0.51,0.37-1.32,0.82-2.27,0.86c-0.68,0.03-1.34-0.65-1.67-1.05
							c-0.14-0.17-0.22-0.28-0.22-0.28s0.44,0.03,1.06,0.06c0.67,0.03,1.57,0.06,2.35,0.05C78.95,43.55,79.42,43.52,79.74,43.47z"/>
						<path class="st3" d="M79.74,43.47c0,0-0.2,0.21-0.55,0.45c-1.96,0.38-3.49-0.04-3.94-0.19c-0.14-0.17-0.22-0.28-0.22-0.28
							s0.44,0.03,1.06,0.06c0.67,0.03,1.57,0.06,2.35,0.05C78.95,43.55,79.42,43.52,79.74,43.47z"/>
					</g>
					<path class="st608" d="M77.52,31.22c0,0,0.25,1.36,1.68,1.96c0,0-2.69,0.32-4.3-0.88c0,0,0.76,1.17,1.39,1.36
						c0,0-3.35,0.16-4.42-1.07l0.38,2.12c0,0-1.96-1.96-1.93-4.33c0.02-1.68,0.78-3.23,1.29-4.79c0.34-1.03,0.83-2.19,1.84-2.73
						c2.69-1.43,5.95-1.19,8.8-0.46c2.27,0.58,4.61,1.38,6.44,2.9c4.85,4.04,2.98,12.95-0.28,17.42c0,0-0.4-4.09-0.47-5.35
						c-0.06-1.26-1.2-1.58-1.17-0.98c0.03,0.6-0.07,3.55-0.7,3.52c-0.63-0.03-0.88-5.19-2.39-6.27
						C82.17,32.55,78.75,32.23,77.52,31.22z"/>
					<path class="st606" d="M86.74,36.07c0,0,2.12-2.16,2.56-0.04c0.43,2.12-1.98,4.79-1.98,4.79L86.74,36.07z"/>
				</g>
			</g>
			<path class="st4" d="M108.71,95.37H67.26c-1.05-12.93-2.44-33.05-1.3-37.23c1.31-4.8,3.88-6.76,7.8-7.6
				c1.18-0.25,3.98-0.55,5.42-0.65c1.21,6.59,10.28,0.13,10.28,0.13s2.17,0.22,3.75,0.32c3.68,0.23,10,1.42,11.27,6.88
				c0.61,2.64,1.34,9.52,2.11,17.3c0.43,4.39,0.88,9.08,1.32,13.46C108.19,90.59,108.45,93.1,108.71,95.37z"/>
			<path class="st515" d="M96.7,65.21c0,0,5.68,15.91,6.32,17.82c0.64,1.92,0.28,3.48-2.56,4.69c-2.84,1.21,4.48,3.41,4.62,2.99
				c0.14-0.43,9.6-8.67,9.03-9.17C113.54,81.05,96.7,65.21,96.7,65.21z"/>
			<path class="st606" d="M99.23,54.74c-5.06,5.67,13.5,42.44,17.71,39.17C125.44,92.22,109.18,47.28,99.23,54.74z"/>
			<path class="st606" d="M115.8,73.51c0,0,6.11,15.35,3.48,18.76c-2.63,3.41-27.85,5.36-27.85,5.36l-1.08-6.92
				c0,0,17.52-4.3,17.57-4.57c0.05-0.27-4.26-7.84-4.26-7.84L115.8,73.51z"/>
			<g>
				<g>
					<path class="st606" d="M119.81,90.55c-0.02,1.21-0.77,2.31-1.82,2.92c-8.23,4.74-44.65,5.33-43.63,2.77
						C74.31,94.28,119.93,81.41,119.81,90.55z"/>
				</g>
			</g>
			<path class="st4" d="M103.4,79.27C103.4,79.27,103.4,79.27,103.4,79.27c-2.59-4.73-5.85-10.98-6.71-14.05
				c0,0-5.69-11.69-1.46-13.62c0.57-0.26,1.76-0.67,2.34-0.53c4.33,1.05,8.84,4.18,11.89,8.58c2.03,2.93,4.74,8.3,6.98,13.92
				c0,0,0.01,0.01,0.01,0.02L103.4,79.27z"/>
			<path class="st606" d="M64.53,99.15c0.06-0.18,2.97-6.06,6.24-6.61c3.27-0.55,7.76,1.09,8.36,1.09s2-0.12,2-0.12l0.97,3.88
				c0,0-2.58-0.03-2.94,0.39c-0.36,0.42-0.52,1.03-1.88,1.03s-2.76-1.27-4.42-1.27s-2.88,1.94-4.36,1.94
				C67.02,99.48,64.53,99.15,64.53,99.15z"/>
			<g>
				<g>
					<path class="st606" d="M56.97,92.92c-0.98,0.72-2.31,0.78-3.42,0.31c-8.74-3.72-31.15-32.43-28.49-33.16
						C26.59,58.85,64.34,87.52,56.97,92.92z"/>
				</g>
			</g>
		</g>
		<g>
			<g>
				<path class="st516" d="M20.26,86.83h43.85c1.58,0,2.76-1.45,2.44-3l-6.62-31.96c-0.24-1.16-1.26-1.99-2.44-1.99H13.64
					c-1.58,0-2.76,1.45-2.44,3l6.62,31.96C18.05,86,19.07,86.83,20.26,86.83z"/>
				<path class="st3" d="M9.27,53.19l6.51,31.44c0.26,1.28,1.39,2.2,2.7,2.2H61.8c1.75,0,3.05-1.6,2.69-3.31l-6.51-31.44
					c-0.26-1.28-1.39-2.2-2.69-2.2H11.96C10.22,49.88,8.91,51.48,9.27,53.19z"/>
				<path class="st604" d="M39.44,86.83h5.76l-2.01-9.53C43.19,77.3,40.71,83.52,39.44,86.83z"/>
				<polygon class="st3" points="42.46,95.28 29.41,95.28 30.55,76.13 43.61,76.13 				"/>
				
					<rect x="15.91" y="94.5" transform="matrix(-1 -1.224647e-16 1.224647e-16 -1 78.6077 191.1672)" class="st3" width="46.79" height="2.16"/>
			</g>
			<path class="st515" d="M32.76,67.7c0.47,2.3,2.35,3.85,4.21,3.47c1.86-0.38,2.98-2.55,2.51-4.84c-0.47-2.3-2.35-3.85-4.21-3.47
				C33.42,63.24,32.3,65.41,32.76,67.7z"/>
		</g>
	</g>
	<g>
		<g>
			<g>
				<g>
					<g>
						<g>
							<g>
								<g>
									<g>
										<path class="st604" d="M48,18.38v22.45c0,0.62-0.42,1.13-0.93,1.13H6.55c-0.51,0-0.93-0.5-0.93-1.13V18.38
											c0-0.62,0.42-1.12,0.93-1.12h40.53C47.59,17.26,48,17.76,48,18.38z"/>
										<path class="st610" d="M48.01,18.38v2.05H5.62v-2.05c0-0.62,0.42-1.12,0.93-1.12h40.52
											C47.6,17.26,48.01,17.76,48.01,18.38z"/>
									</g>
								</g>
							</g>
						</g>
					</g>
				</g>
			</g>
			<g>
				<circle class="st3" cx="7.5" cy="18.89" r="0.46"/>
				<path class="st3" d="M9.97,18.89c0,0.26-0.21,0.46-0.46,0.46c-0.26,0-0.46-0.21-0.46-0.46c0-0.26,0.21-0.46,0.46-0.46
					C9.77,18.43,9.97,18.64,9.97,18.89z"/>
				<circle class="st3" cx="11.53" cy="18.89" r="0.46"/>
			</g>
		</g>
		<g>
			<rect x="7.85" y="22.77" class="st602" width="8.64" height="0.44"/>
			<rect x="7.85" y="24.27" class="st610" width="8.64" height="0.44"/>
		</g>
		<g>
			<g id="XMLID_00000022544907760896137730000010129061831418082492_">
				<g>
					<path class="st3" d="M40.38,32.42c0,0.1,0,0.2-0.01,0.3l-1.51-1.02l-1.36,1.02c0.01-0.1,0.01-0.19,0.01-0.29
						c0-1.8-1.46-3.26-3.25-3.26c-1.04,0-3.47,1.54-5.59,3.26l-1.18-1.06c-0.19-0.17-0.53-0.48-0.99-0.86
						c1.81-1.51,5.37-4.2,7.76-4.2C37.63,26.31,40.38,29.05,40.38,32.42z"/>
					<path class="st602" d="M38.86,31.7l-1.36,1.02c-0.15,1.66-1.55,2.96-3.24,2.96c-1.04,0-3.47-1.54-5.59-3.26l-1.18-1.06
						c-0.19-0.17-0.53-0.48-0.99-0.86c-1.81-1.51-5.37-4.2-7.76-4.2c-3.37,0-6.12,2.74-6.12,6.12c0,0.12,0,0.24,0.01,0.36l1.45-1.08
						l1.35,0.92c0-0.06,0-0.12,0-0.18c0-1.8,1.46-3.26,3.25-3.26c1.04,0,3.47,1.54,5.58,3.26c0,0,0.94,0.82,2.28,1.86
						c2.31,1.79,5.81,4.24,7.71,4.24c3.27,0,5.95-2.58,6.11-5.82L38.86,31.7z"/>
					<path class="st3" d="M24.27,32.44c0,0,0.94,0.82,2.28,1.86c-1.8,1.5-5.4,4.24-7.81,4.24c-3.25,0-5.92-2.56-6.11-5.76l1.45-1.08
						l1.35,0.92c0.1,1.71,1.52,3.08,3.25,3.08C19.73,35.7,22.16,34.15,24.27,32.44z"/>
				</g>
			</g>
		</g>
	</g>
	<path class="st3" d="M115.82,45.61h-0.73c-0.13-0.57-0.35-1.1-0.64-1.59l0.54-0.54c0.19-0.19,0.19-0.5,0-0.69l-1.18-1.18
		c-0.19-0.19-0.5-0.19-0.69,0l-0.52,0.52c-0.48-0.3-1.01-0.53-1.58-0.67v-0.76c0-0.27-0.22-0.49-0.49-0.49h-1.66
		c-0.27,0-0.49,0.22-0.49,0.49v0.73c-0.57,0.13-1.1,0.35-1.59,0.64l0,0l-0.54-0.54c-0.19-0.19-0.5-0.19-0.69,0l-1.18,1.18
		c-0.19,0.19-0.19,0.5,0,0.69l0.52,0.52c-0.3,0.48-0.53,1.01-0.68,1.57h-0.76c-0.27,0-0.49,0.22-0.49,0.49v1.66
		c0,0.27,0.22,0.49,0.49,0.49h0.73c0.13,0.57,0.35,1.1,0.64,1.59l-0.54,0.54c-0.19,0.19-0.19,0.5,0,0.69l1.18,1.18
		c0.19,0.19,0.5,0.19,0.69,0l0.52-0.52c0,0,0,0,0,0c0.48,0.3,1.01,0.53,1.57,0.67c0,0,0,0,0,0v0.76c0,0.27,0.22,0.49,0.49,0.49h1.66
		c0.27,0,0.49-0.22,0.49-0.49v-0.73c0,0,0,0,0,0c0.57-0.13,1.1-0.35,1.59-0.64c0,0,0,0,0,0l0.54,0.54c0.19,0.19,0.5,0.19,0.69,0
		l1.18-1.18c0.19-0.19,0.19-0.5,0-0.69l-0.52-0.52c0,0,0,0,0,0c0.3-0.48,0.53-1.01,0.68-1.57h0.76c0.27,0,0.49-0.22,0.49-0.49V46.1
		C116.3,45.83,116.09,45.61,115.82,45.61z M109.65,49.97c-1.71,0-3.1-1.38-3.1-3.1s1.39-3.1,3.1-3.1c1.71,0,3.1,1.38,3.1,3.1
		S111.36,49.97,109.65,49.97z"/>
	<path class="st3" d="M120.99,63.22c0,0.66-0.54,1.2-1.2,1.2c-0.66,0-1.2-0.54-1.2-1.2c0-0.66,0.54-1.2,1.2-1.2
		C120.45,62.02,120.99,62.56,120.99,63.22z"/>
	<path class="st3" d="M66.55,40.32h-0.73c-0.13-0.57-0.35-1.1-0.64-1.59l0.54-0.54c0.19-0.19,0.19-0.5,0-0.69l-1.18-1.18
		c-0.19-0.19-0.5-0.19-0.69,0l-0.52,0.52c-0.48-0.3-1.01-0.53-1.58-0.67v-0.76c0-0.27-0.22-0.49-0.49-0.49h-1.66
		c-0.27,0-0.49,0.22-0.49,0.49v0.73c-0.57,0.13-1.1,0.35-1.59,0.64l0,0L57,36.24c-0.19-0.19-0.5-0.19-0.69,0l-1.18,1.18
		c-0.19,0.19-0.19,0.5,0,0.69l0.52,0.52c-0.3,0.48-0.53,1.01-0.67,1.57h-0.76c-0.27,0-0.49,0.22-0.49,0.49v1.66
		c0,0.27,0.22,0.49,0.49,0.49h0.73c0.13,0.57,0.35,1.1,0.64,1.59l-0.54,0.54c-0.19,0.19-0.19,0.5,0,0.69l1.18,1.18
		c0.19,0.19,0.5,0.19,0.69,0l0.52-0.52c0,0,0,0,0,0c0.48,0.3,1.01,0.53,1.57,0.67c0,0,0,0,0,0v0.76c0,0.27,0.22,0.49,0.49,0.49h1.66
		c0.27,0,0.49-0.22,0.49-0.49v-0.73c0,0,0,0,0,0c0.57-0.13,1.1-0.35,1.59-0.64c0,0,0,0,0,0l0.54,0.54c0.19,0.19,0.5,0.19,0.69,0
		l1.18-1.18c0.19-0.19,0.19-0.5,0-0.69l-0.52-0.52c0,0,0,0,0,0c0.3-0.48,0.53-1.01,0.68-1.57h0.76c0.27,0,0.49-0.22,0.49-0.49v-1.66
		C67.04,40.54,66.82,40.32,66.55,40.32z M60.39,44.67c-1.71,0-3.1-1.38-3.1-3.1c0-1.71,1.39-3.1,3.1-3.1c1.71,0,3.1,1.38,3.1,3.1
		C63.48,43.29,62.1,44.67,60.39,44.67z"/>
	<g>
		<g>
			<g>
				<g>
					<g>
						<g>
							<g>
								<g>
									<g>
										<path class="st604" d="M125.6,21.24v15.85c0,0.44-0.29,0.79-0.66,0.79h-28.6c-0.36,0-0.66-0.35-0.66-0.79V21.24
											c0-0.44,0.3-0.79,0.66-0.79h28.6C125.31,20.45,125.6,20.8,125.6,21.24z"/>
										<path class="st610" d="M125.61,21.24v1.45H95.69v-1.45c0-0.44,0.29-0.79,0.66-0.79h28.6
											C125.31,20.45,125.61,20.8,125.61,21.24z"/>
									</g>
								</g>
							</g>
						</g>
					</g>
				</g>
			</g>
			<g>
				<path class="st3" d="M97.34,21.6c0,0.18-0.15,0.33-0.33,0.33s-0.33-0.15-0.33-0.33s0.15-0.33,0.33-0.33S97.34,21.42,97.34,21.6z
					"/>
				<path class="st3" d="M98.76,21.6c0,0.18-0.15,0.33-0.33,0.33c-0.18,0-0.33-0.15-0.33-0.33s0.15-0.33,0.33-0.33
					C98.62,21.28,98.76,21.42,98.76,21.6z"/>
				<path class="st3" d="M100.18,21.6c0,0.18-0.15,0.33-0.33,0.33c-0.18,0-0.33-0.15-0.33-0.33s0.15-0.33,0.33-0.33
					C100.04,21.28,100.18,21.42,100.18,21.6z"/>
			</g>
		</g>
		<g>
			<g>
				<rect x="99.59" y="24.16" class="st604" width="7.23" height="0.51"/>
				<rect x="107.67" y="24.16" class="st611" width="2.23" height="0.51"/>
				<rect x="97.91" y="24.16" class="st610" width="0.61" height="0.51"/>
				<rect x="116.79" y="24.16" class="st610" width="3.06" height="0.51"/>
				<rect x="110.97" y="24.16" class="st610" width="5.16" height="0.51"/>
			</g>
			<g>
				<polygon class="st604" points="108.11,33.81 107.67,33.81 99.59,33.81 99.59,34.32 107.67,34.32 108.11,34.32 109.9,34.32 
					109.9,33.81 				"/>
				<rect x="97.91" y="33.81" class="st610" width="0.61" height="0.51"/>
				<rect x="116.79" y="33.81" class="st610" width="1.69" height="0.51"/>
				<rect x="110.97" y="33.81" class="st611" width="5.16" height="0.51"/>
			</g>
			<g>
				<rect x="99.59" y="25.76" class="st610" width="1.48" height="0.51"/>
				<rect x="101.71" y="25.76" class="st612" width="8.33" height="0.51"/>
				<rect x="97.91" y="25.76" class="st610" width="0.61" height="0.51"/>
				<rect x="110.97" y="25.76" class="st610" width="12.41" height="0.51"/>
			</g>
			<g>
				<rect x="99.59" y="35.42" class="st610" width="1.48" height="0.51"/>
				<rect x="111.56" y="35.42" class="st610" width="1.48" height="0.51"/>
				<rect x="101.71" y="35.42" class="st612" width="8.33" height="0.51"/>
				<rect x="97.91" y="35.42" class="st610" width="0.61" height="0.51"/>
				<rect x="114.34" y="35.42" class="st610" width="9.05" height="0.51"/>
			</g>
			<g>
				<rect x="99.59" y="27.37" class="st610" width="4.5" height="0.51"/>
				<rect x="104.63" y="27.37" class="st610" width="2.19" height="0.51"/>
				<rect x="97.91" y="27.37" class="st610" width="0.61" height="0.51"/>
				<rect x="107.82" y="27.37" class="st610" width="6.78" height="0.51"/>
				<rect x="115.34" y="27.37" class="st611" width="8.04" height="0.51"/>
			</g>
			<g>
				<rect x="99.59" y="28.98" class="st610" width="11.92" height="0.51"/>
				<rect x="97.91" y="28.98" class="st610" width="0.61" height="0.51"/>
				<rect x="112.13" y="28.98" class="st610" width="8.8" height="0.51"/>
			</g>
			<g>
				<rect x="99.59" y="30.59" class="st611" width="6.12" height="0.51"/>
				<rect x="97.91" y="30.59" class="st610" width="0.61" height="0.51"/>
				<rect x="109.27" y="30.59" class="st604" width="11.67" height="0.51"/>
				<rect x="121.81" y="30.59" class="st610" width="1.57" height="0.51"/>
				<rect x="106.52" y="30.59" class="st610" width="1.57" height="0.51"/>
			</g>
			<g>
				<rect x="99.59" y="32.2" class="st610" width="3.08" height="0.51"/>
				<rect x="105.79" y="32.2" class="st610" width="3.08" height="0.51"/>
				<rect x="97.91" y="32.2" class="st610" width="0.61" height="0.51"/>
				<rect x="110.02" y="32.2" class="st610" width="7.97" height="0.51"/>
				<rect x="119.04" y="32.2" class="st612" width="4.34" height="0.51"/>
				<rect x="103.5" y="32.2" class="st610" width="1.57" height="0.51"/>
			</g>
		</g>
	</g>
	<g>
		<path class="st602" d="M79.79,13.45h-7.78c-3.24,0-5.86-2.62-5.86-5.86V5.86c0-3.24,2.62-5.86,5.86-5.86h7.78
			c3.24,0,5.86,2.62,5.86,5.86v1.73C85.65,10.83,83.03,13.45,79.79,13.45z"/>
		<g>
			<path class="st3" d="M71.68,7.19V6.26c0.46-0.02,0.65-0.2,0.65-0.52c0-0.42-0.14-1.1-0.14-1.61c0-0.79,0.52-1.23,1.3-1.23h0.49
				v0.95h-0.27c-0.29,0-0.41,0.13-0.41,0.39c0,0.37,0.12,1.07,0.12,1.55c0,0.48-0.22,0.84-0.73,0.93v0.01
				c0.5,0.1,0.73,0.45,0.73,0.94c0,0.48-0.12,1.17-0.12,1.54c0,0.26,0.12,0.39,0.41,0.39h0.27v0.95h-0.49c-0.78,0-1.3-0.44-1.3-1.23
				c0-0.52,0.14-1.19,0.14-1.61C72.33,7.41,72.14,7.21,71.68,7.19z"/>
			<path class="st3" d="M79.48,7.71c0,0.42,0.14,1.1,0.14,1.61c0,0.8-0.52,1.23-1.3,1.23h-0.49V9.6h0.27c0.29,0,0.41-0.14,0.41-0.39
				c0-0.37-0.12-1.06-0.12-1.54c0-0.49,0.22-0.84,0.73-0.94V6.72c-0.5-0.1-0.73-0.45-0.73-0.93c0-0.48,0.12-1.18,0.12-1.55
				c0-0.26-0.12-0.39-0.41-0.39h-0.27V2.9h0.49c0.78,0,1.3,0.44,1.3,1.23c0,0.52-0.14,1.19-0.14,1.61c0,0.32,0.19,0.5,0.65,0.52
				v0.93C79.67,7.21,79.48,7.41,79.48,7.71z"/>
		</g>
	</g>
	<g>
		<g class="st613">
			<rect x="53.52" y="21.85" class="st614" width="9.13" height="0.65"/>
			<rect x="63.7" y="21.85" class="st3" width="4.49" height="0.65"/>
		</g>
		<g>
			<rect x="53.52" y="24.1" class="st3" width="5.76" height="0.65"/>
			<rect x="60.27" y="24.1" class="st3" width="7.92" height="0.65"/>
		</g>
		<g class="st613">
			<rect x="53.52" y="26.32" class="st3" width="1.65" height="0.65"/>
			<rect x="56.1" y="26.36" class="st3" width="12.04" height="0.65"/>
		</g>
	</g>
	<path class="st3" d="M37.76,46.3c0,0.66-0.54,1.2-1.2,1.2c-0.66,0-1.2-0.54-1.2-1.2c0-0.66,0.54-1.2,1.2-1.2
		C37.22,45.1,37.76,45.63,37.76,46.3z"/>
	<path class="st3" d="M60.1,13.67c0,0.66-0.54,1.2-1.2,1.2c-0.66,0-1.2-0.54-1.2-1.2c0-0.66,0.54-1.2,1.2-1.2
		C59.56,12.47,60.1,13.01,60.1,13.67z"/>
	<path class="st615" d="M39.38,7.48c0,0.66-0.54,1.2-1.2,1.2c-0.66,0-1.2-0.54-1.2-1.2s0.54-1.2,1.2-1.2
		C38.85,6.27,39.38,6.81,39.38,7.48z"/>
	<path class="st615" d="M5.47,48.83c0,0.66-0.54,1.2-1.2,1.2c-0.66,0-1.2-0.54-1.2-1.2c0-0.66,0.54-1.2,1.2-1.2
		C4.93,47.62,5.47,48.16,5.47,48.83z"/>
	<path class="st615" d="M108.06,14.19c0,0.66-0.54,1.2-1.2,1.2c-0.66,0-1.2-0.54-1.2-1.2c0-0.66,0.54-1.2,1.2-1.2
		C107.52,12.99,108.06,13.53,108.06,14.19z"/>
</g>
</svg>
