<?xml version="1.0" encoding="utf-8"?>
<!-- Generator: Adobe Illustrator 25.3.1, SVG Export Plug-In . SVG Version: 6.00 Build 0)  -->
<svg version="1.1" id="Layer_1" xmlns="http://www.w3.org/2000/svg" xmlns:xlink="http://www.w3.org/1999/xlink" x="0px" y="0px"
	 viewBox="0 0 167.35 171.48" style="enable-background:new 0 0 167.35 171.48;" xml:space="preserve">
<style type="text/css">
	.st0{fill:#24487F;}
	.st1{fill:#8E8E8E;}
	.st2{fill:#FFFFFF;stroke:#8E8E8E;stroke-linecap:round;stroke-miterlimit:10;}
	.st3{fill:#FFFFFF;}
	.st4{fill:#4DB5D1;}
	.st5{fill:#60934D;}
	.st6{fill:#FFFFFF;stroke:#5F934D;stroke-linecap:round;stroke-miterlimit:10;}
	.st7{fill:#23497F;}
	.st8{fill:#FFFFFF;stroke:#23497F;stroke-linecap:round;stroke-miterlimit:10;}
	.st9{fill:url(#SVGID_1_);}
	.st10{fill:url(#SVGID_2_);}
	.st11{fill:url(#SVGID_3_);}
	.st12{fill:url(#SVGID_4_);}
	.st13{fill:#397BBF;}
	.st14{fill:#1466B1;}
	.st15{fill:#054F8C;}
	.st16{fill:url(#SVGID_5_);}
	.st17{fill:#EFA986;}
	.st18{fill:#152B3D;}
	.st19{fill:#62A9DC;}
	.st20{fill:#977332;}
	.st21{fill:#264480;}
	.st22{fill:#363B3D;}
	.st23{fill:#E45354;}
	.st24{fill:#F5F6F6;}
	.st25{fill:#1A5A8D;}
	.st26{fill:#2274B5;}
	.st27{fill:#3A88C8;}
	.st28{fill:#E3F3FC;}
	.st29{fill:#C5CCD1;}
	.st30{fill:#2A2C47;}
	.st31{fill:#E2D2CA;}
	.st32{fill:#434873;}
	.st33{fill:#3B4048;}
	.st34{fill:#323757;}
	.st35{fill:#81A358;}
	.st36{fill:#71A341;}
	.st37{fill:#618A3C;}
	.st38{fill:#87BD43;}
	.st39{fill:#7BA840;}
	.st40{fill:#70A341;}
	.st41{fill:#6A943E;}
	.st42{fill:#B2CF43;}
	.st43{fill:#9FB34D;}
	.st44{fill:url(#SVGID_6_);}
	.st45{filter:url(#Adobe_OpacityMaskFilter);}
	.st46{filter:url(#Adobe_OpacityMaskFilter_1_);}
	.st47{mask:url(#SVGID_7_);fill:url(#SVGID_8_);}
	.st48{fill:url(#SVGID_9_);}
	.st49{fill:#464443;}
	.st50{fill:#928783;}
	.st51{fill:#1D3C55;}
	.st52{fill:#152C3D;}
	.st53{fill:#A77961;}
	.st54{fill:#D8E9F7;}
	.st55{fill:#BFB2AC;}
	.st56{fill:#FED1A2;}
	.st57{fill:#B37953;}
	.st58{fill:#D6995E;}
	.st59{fill:#807167;}
	.st60{fill:#6E6760;}
	.st61{fill:#928880;}
	.st62{fill:#BC8552;}
	.st63{filter:url(#Adobe_OpacityMaskFilter_2_);}
	.st64{filter:url(#Adobe_OpacityMaskFilter_3_);}
	.st65{mask:url(#SVGID_10_);fill:url(#SVGID_11_);}
	.st66{fill:url(#SVGID_12_);}
	.st67{filter:url(#Adobe_OpacityMaskFilter_4_);}
	.st68{filter:url(#Adobe_OpacityMaskFilter_5_);}
	.st69{mask:url(#SVGID_13_);fill:url(#SVGID_14_);}
	.st70{fill:url(#SVGID_15_);}
	.st71{fill:#C3C8E5;}
	.st72{opacity:0.3;}
	.st73{fill:#F4F6FB;}
	.st74{fill:#E8E8F2;}
	.st75{fill:#D7D6E6;}
	.st76{fill:#F3F4F7;}
	.st77{fill:#FCFDFD;}
	.st78{filter:url(#Adobe_OpacityMaskFilter_6_);}
	.st79{mask:url(#SVGID_16_);}
	.st80{fill:#3F54A5;}
	.st81{fill:#A5A7D4;}
	.st82{fill:#B4BBDF;}
	.st83{fill:url(#SVGID_17_);}
	.st84{fill:#CED0E4;}
	.st85{fill:#EDF0F9;}
	.st86{opacity:0.5;fill:#CFD2D3;}
	.st87{opacity:0.5;fill:#A5A7AA;}
	.st88{fill:#332566;}
	.st89{fill:#FAAE42;}
	.st90{fill:#DFDFDE;}
	.st91{fill:#F6C6B1;}
	.st92{fill:#E8B8A9;}
	.st93{fill:#3D4592;}
	.st94{fill:url(#SVGID_18_);}
	.st95{fill:url(#SVGID_19_);}
	.st96{fill:url(#SVGID_20_);}
	.st97{fill:#112F41;}
	.st98{opacity:0.5;fill:#BDBCD8;}
	.st99{opacity:0.2;fill:#ED5B2A;}
	.st100{fill-rule:evenodd;clip-rule:evenodd;fill:#3E55A5;}
	.st101{fill:#2C1C28;}
	.st102{fill:#EE7762;}
	.st103{opacity:0.25;fill:#ED5B2A;}
	.st104{fill:#CD3046;}
	.st105{fill:#282B70;}
	.st106{fill:url(#SVGID_21_);}
	.st107{fill:url(#SVGID_22_);}
	.st108{fill:#212B46;}
	.st109{fill:#D2D2E9;}
	.st110{fill:#8F95CA;}
	.st111{fill:#BDBCD8;}
	.st112{fill:#F2F7F6;}
	.st113{fill:#C9C8DF;}
	.st114{fill:#E3E3EE;}
	.st115{fill:#FAF0F7;}
	.st116{fill:#FFFCFD;}
	.st117{fill:#E4A28B;}
	.st118{opacity:0.05;fill:#010101;}
	.st119{fill:#D9DDEC;}
	.st120{fill:#C6CBE7;}
	.st121{fill:#8A97CC;}
	.st122{fill:#DFE4F3;}
	.st123{fill:#D5A393;}
	.st124{fill:#182540;}
	.st125{fill:url(#SVGID_23_);}
	.st126{fill:#F1A993;}
	.st127{fill:#687094;}
	.st128{fill:#D7DBEF;}
	.st129{fill:#F4F4F8;}
	.st130{fill:#B2B9DE;}
	.st131{fill:#4D60AC;}
	.st132{fill:#8E97CB;}
	.st133{fill:#BCC6E5;}
	.st134{fill:#AAB9DF;}
	.st135{fill:#FFFBFD;}
	.st136{fill:#34479E;}
	.st137{opacity:0.2;}
	.st138{fill:#60848C;}
	.st139{fill:url(#SVGID_24_);}
	.st140{fill:#F36E5C;}
	.st141{fill:#85BEE7;}
	.st142{fill:#908F8F;}
	.st143{fill:#F1F0F0;}
	.st144{fill:url(#SVGID_25_);}
	.st145{fill:#CCCCCC;}
	.st146{fill:#F6F7FB;}
	.st147{fill:#E6E6E5;}
	.st148{fill:#F3F3F3;}
	.st149{fill:#EFF0F7;}
	.st150{fill:url(#SVGID_26_);}
	.st151{fill:url(#SVGID_27_);}
	.st152{fill:url(#SVGID_28_);}
	.st153{fill:url(#SVGID_29_);}
	.st154{fill:url(#SVGID_30_);}
	.st155{fill:url(#SVGID_31_);}
	.st156{fill:#3D426A;}
	.st157{fill:#252840;}
	.st158{fill:#C4B4AF;}
	.st159{fill:#EA4747;}
	.st160{fill:#6B7BBC;}
	.st161{fill:#5266AF;}
	.st162{fill:#5062AD;}
	.st163{fill:#EDDAD3;}
	.st164{fill:#DECDC7;}
	.st165{fill:#E3D1CA;}
	.st166{fill:#B39595;}
	.st167{fill:#DBB8B8;}
	.st168{fill:#F1CCCB;}
	.st169{fill:#323538;}
	.st170{fill:#EFAA88;}
	.st171{fill:#1D2133;}
	.st172{fill:#EFAA87;}
	.st173{fill:#D88A51;}
	.st174{fill:#C68D71;}
	.st175{fill:#A19FA7;}
	.st176{fill:#EAE6F1;}
	.st177{fill:#3B4167;}
	.st178{fill:#DE9674;}
	.st179{fill:#764937;}
	.st180{fill:#5D554E;}
	.st181{fill:#3D4246;}
	.st182{fill:#FFD356;}
	.st183{fill:url(#SVGID_32_);}
	.st184{fill:url(#SVGID_33_);}
	.st185{fill:url(#SVGID_34_);}
	.st186{fill:url(#SVGID_35_);}
	.st187{fill:url(#SVGID_36_);}
	.st188{fill:url(#SVGID_37_);}
	.st189{opacity:0.5;}
	.st190{fill:#FCEACF;}
	.st191{opacity:0.8;}
	.st192{fill:#D4EEF6;}
	.st193{fill:#3AA1C9;}
	.st194{fill:#3F9896;}
	.st195{fill:#7FC6A6;}
	.st196{fill:#DEF2FD;}
	.st197{fill:#223849;}
	.st198{fill:#B4E3F7;}
	.st199{fill:#F89F74;}
	.st200{fill:#E33F3E;}
	.st201{fill:#482B32;}
	.st202{fill:#D8E4F4;}
	.st203{fill:#683E47;}
	.st204{fill:#3788BA;}
	.st205{fill:#22131E;}
	.st206{fill:#FAB59D;}
	.st207{fill:#CC2327;}
	.st208{fill:#E2F3F1;}
	.st209{fill:#F07163;}
	.st210{fill:#49273F;}
	.st211{fill:#4C232E;}
	.st212{fill:#010101;}
	.st213{fill:#F7956E;}
	.st214{fill:#F68D64;}
	.st215{fill:#F27584;}
	.st216{fill:#4EB8D9;}
	.st217{fill:#EF4751;}
	.st218{fill:#ACC7E8;}
	.st219{fill:#268E8D;}
	.st220{fill:#3A1F33;}
	.st221{fill:#FECC87;}
	.st222{fill:#FBB359;}
	.st223{fill:#331A2C;}
	.st224{fill:#FDC886;}
	.st225{fill:#F7934B;}
	.st226{fill:#F04D65;}
	.st227{fill:#F6D6B2;}
	.st228{fill:#61A3C5;}
	.st229{fill:#B1D89B;}
	.st230{fill:#A8C8E5;}
	.st231{fill:#C1D1EC;}
	.st232{fill:#F2AC40;}
	.st233{fill:#3B57A6;}
	.st234{fill:#C2D5EE;}
	.st235{fill:#A9C4E6;}
	.st236{fill:#2D572A;}
	.st237{fill:#274392;}
	.st238{fill:#95B0DB;}
	.st239{fill:#BFBFBF;}
	.st240{fill:#E9F3FB;}
	.st241{fill:#6B81C0;}
	.st242{fill:#8FB1DD;}
	.st243{fill:#F58765;}
	.st244{fill:#2C1913;}
	.st245{fill:#6A3F31;}
	.st246{fill:#F37559;}
	.st247{fill:#F47A55;}
	.st248{fill:#E0B3A8;}
	.st249{fill:#D9D9D9;}
	.st250{fill:#C6DD74;}
	.st251{fill:#9FCB5F;}
	.st252{fill:#7C9D48;}
	.st253{fill:#E7E7E7;}
	.st254{fill:#F2C791;}
	.st255{fill:#B7B7B7;}
	.st256{fill:#7595CD;}
	.st257{fill:#FAB18D;}
	.st258{fill:#F6977C;}
	.st259{fill:#D1E28C;}
	.st260{fill:none;}
	.st261{fill:#1B1B1C;}
	.st262{fill:#F47E46;}
	.st263{fill:#EB6828;}
	.st264{fill:#F79668;}
	.st265{fill:#E6B54E;}
	.st266{fill:#676767;}
	.st267{fill:#4D4C4C;}
	.st268{fill:#F27070;}
	.st269{fill:#C24D4D;}
	.st270{enable-background:new    ;}
	.st271{fill:#C39B6A;}
	.st272{fill:#C9A475;}
	.st273{fill:#E6B880;}
	.st274{fill:#9F3D3E;}
	.st275{fill:#FFD679;}
	.st276{fill:#F4805D;}
	.st277{fill:#DA5958;}
	.st278{fill:#7D3D20;}
	.st279{fill:#562915;}
	.st280{fill:#B15931;}
	.st281{fill:#5076BA;}
	.st282{fill:#59ADC0;}
	.st283{fill:#099895;}
	.st284{fill:#F5AE87;}
	.st285{fill:#D9504F;}
	.st286{fill:#FCC79A;}
	.st287{fill:#FFDC7B;}
	.st288{fill:#F15958;}
	.st289{fill:#674E46;}
	.st290{fill:#785D51;}
	.st291{clip-path:url(#SVGID_39_);fill:#60934D;}
	.st292{clip-path:url(#SVGID_39_);}
	.st293{fill:#BD725F;}
	.st294{fill:#E6F1D1;}
	.st295{fill:#A86046;}
	.st296{fill:#3C251D;}
	.st297{fill:#4A413F;}
	.st298{fill:#716765;}
	.st299{fill:#EEBD7F;}
	.st300{fill:#7DA594;}
	.st301{fill:#252433;}
	.st302{fill:#F7E6C7;}
	.st303{fill:#E79F90;}
	.st304{fill:#CC4A38;}
	.st305{fill:#333333;}
	.st306{fill:#E1755E;}
	.st307{fill:#E8A180;}
	.st308{fill:#694136;}
	.st309{fill:#C06360;}
	.st310{fill:#CD5A5A;}
	.st311{fill:#E17660;}
	.st312{opacity:0.42;}
	.st313{fill-rule:evenodd;clip-rule:evenodd;fill:#B1D89B;}
	.st314{clip-path:url(#SVGID_41_);fill:#92B779;}
	.st315{clip-path:url(#SVGID_43_);fill:url(#SVGID_44_);}
	.st316{fill-rule:evenodd;clip-rule:evenodd;fill:#60934D;}
	.st317{clip-path:url(#SVGID_46_);fill:url(#SVGID_47_);}
	.st318{fill-rule:evenodd;clip-rule:evenodd;fill:#274CA1;}
	.st319{clip-path:url(#SVGID_49_);fill:url(#SVGID_50_);}
	.st320{clip-path:url(#SVGID_52_);fill:url(#SVGID_53_);}
	.st321{fill-rule:evenodd;clip-rule:evenodd;fill:#F3AF8F;}
	.st322{fill-rule:evenodd;clip-rule:evenodd;fill:#6E2D5F;}
	.st323{fill-rule:evenodd;clip-rule:evenodd;fill:#4D1942;}
	.st324{fill-rule:evenodd;clip-rule:evenodd;fill:#101841;}
	.st325{fill-rule:evenodd;clip-rule:evenodd;fill:#144984;}
	.st326{fill-rule:evenodd;clip-rule:evenodd;fill:#35AD82;}
	.st327{fill-rule:evenodd;clip-rule:evenodd;fill:#198C67;}
	.st328{fill-rule:evenodd;clip-rule:evenodd;fill:#F6C1C5;}
	.st329{fill-rule:evenodd;clip-rule:evenodd;fill:#53B9E9;}
	.st330{fill-rule:evenodd;clip-rule:evenodd;fill:#7DD3F7;}
	.st331{clip-path:url(#SVGID_55_);fill:url(#SVGID_56_);}
	.st332{clip-path:url(#SVGID_58_);fill:url(#SVGID_59_);}
	.st333{fill-rule:evenodd;clip-rule:evenodd;fill:#3DB4E8;}
	.st334{clip-path:url(#SVGID_61_);fill:url(#SVGID_62_);}
	.st335{fill-rule:evenodd;clip-rule:evenodd;fill:#F4FBFE;}
	.st336{fill-rule:evenodd;clip-rule:evenodd;fill:#F4B1B1;}
	.st337{fill-rule:evenodd;clip-rule:evenodd;fill:#D4EAD8;}
	.st338{fill-rule:evenodd;clip-rule:evenodd;fill:#E16C6C;}
	.st339{clip-path:url(#SVGID_64_);fill:url(#SVGID_65_);}
	.st340{clip-path:url(#SVGID_67_);fill:url(#SVGID_68_);}
	.st341{clip-path:url(#SVGID_70_);fill:url(#SVGID_71_);}
	.st342{clip-path:url(#SVGID_73_);fill:url(#SVGID_74_);}
	.st343{clip-path:url(#SVGID_76_);fill:url(#SVGID_77_);}
	.st344{fill-rule:evenodd;clip-rule:evenodd;fill:#316CB5;}
	.st345{clip-path:url(#SVGID_79_);fill:url(#SVGID_80_);}
	.st346{fill-rule:evenodd;clip-rule:evenodd;fill:#DF5D7B;}
	.st347{clip-path:url(#SVGID_82_);fill:url(#SVGID_83_);}
	.st348{fill-rule:evenodd;clip-rule:evenodd;fill:#2D572A;}
	.st349{clip-path:url(#SVGID_85_);fill:#60934D;}
	.st350{clip-path:url(#SVGID_87_);fill:url(#SVGID_88_);}
	.st351{clip-path:url(#SVGID_90_);fill:url(#SVGID_91_);}
	.st352{clip-path:url(#SVGID_93_);fill:url(#SVGID_94_);}
	.st353{fill:url(#SVGID_95_);}
	.st354{filter:url(#Adobe_OpacityMaskFilter_7_);}
	.st355{filter:url(#Adobe_OpacityMaskFilter_8_);}
	.st356{mask:url(#SVGID_96_);fill:url(#SVGID_97_);}
	.st357{fill:url(#SVGID_98_);}
	.st358{fill:none;stroke:#FFFFFF;stroke-miterlimit:10;}
	.st359{fill:url(#SVGID_99_);}
	.st360{filter:url(#Adobe_OpacityMaskFilter_9_);}
	.st361{filter:url(#Adobe_OpacityMaskFilter_10_);}
	.st362{mask:url(#SVGID_100_);fill:url(#SVGID_101_);}
	.st363{fill:url(#SVGID_102_);}
	.st364{fill:url(#SVGID_103_);}
	.st365{filter:url(#Adobe_OpacityMaskFilter_11_);}
	.st366{filter:url(#Adobe_OpacityMaskFilter_12_);}
	.st367{mask:url(#SVGID_104_);fill:url(#SVGID_105_);}
	.st368{fill:url(#SVGID_106_);}
	.st369{fill:url(#SVGID_107_);}
	.st370{filter:url(#Adobe_OpacityMaskFilter_13_);}
	.st371{filter:url(#Adobe_OpacityMaskFilter_14_);}
	.st372{mask:url(#SVGID_108_);fill:url(#SVGID_109_);}
	.st373{fill:url(#SVGID_110_);}
	.st374{fill:url(#SVGID_111_);}
	.st375{fill:url(#SVGID_112_);}
	.st376{fill:url(#SVGID_113_);}
	.st377{fill:url(#SVGID_114_);}
	.st378{fill:url(#SVGID_115_);}
	.st379{fill:url(#SVGID_116_);}
	.st380{fill:#FBC5B4;}
	.st381{fill:url(#SVGID_117_);}
	.st382{fill:url(#SVGID_118_);}
	.st383{filter:url(#Adobe_OpacityMaskFilter_15_);}
	.st384{filter:url(#Adobe_OpacityMaskFilter_16_);}
	.st385{mask:url(#SVGID_119_);fill:url(#SVGID_120_);}
	.st386{fill:url(#SVGID_121_);}
	.st387{fill:url(#SVGID_122_);}
	.st388{filter:url(#Adobe_OpacityMaskFilter_17_);}
	.st389{filter:url(#Adobe_OpacityMaskFilter_18_);}
	.st390{mask:url(#SVGID_123_);fill:url(#SVGID_124_);}
	.st391{fill:url(#SVGID_125_);}
	.st392{fill:url(#SVGID_126_);}
	.st393{fill:#F69575;}
	.st394{fill:url(#SVGID_127_);}
	.st395{fill:url(#SVGID_128_);}
	.st396{fill:url(#SVGID_129_);}
	.st397{fill:url(#SVGID_130_);}
	.st398{fill:url(#SVGID_131_);}
	.st399{fill:#F05253;}
	.st400{fill:#ED1C24;}
	.st401{fill:url(#SVGID_132_);}
	.st402{fill:url(#SVGID_133_);}
	.st403{fill:url(#SVGID_134_);}
	.st404{fill:url(#SVGID_135_);}
	.st405{fill:url(#SVGID_136_);}
	.st406{fill:url(#SVGID_137_);}
	.st407{fill:#FDC78D;}
	.st408{fill:#FFD10A;}
	.st409{fill:url(#SVGID_138_);}
	.st410{fill:url(#SVGID_139_);}
	.st411{fill:url(#SVGID_140_);}
	.st412{fill:#6899D1;}
	.st413{fill:#F4F4F4;}
	.st414{fill:#DAEEF6;}
	.st415{fill:url(#SVGID_141_);}
	.st416{fill:#85CEC1;}
	.st417{fill:url(#SVGID_142_);}
	.st418{fill:#F37878;}
	.st419{fill:url(#SVGID_143_);}
	.st420{fill:url(#SVGID_144_);}
	.st421{fill:url(#SVGID_145_);}
	.st422{fill:url(#SVGID_146_);}
	.st423{fill:url(#SVGID_147_);}
	.st424{fill:url(#SVGID_148_);}
	.st425{fill:url(#SVGID_149_);}
	.st426{fill:url(#SVGID_150_);}
	.st427{fill:url(#SVGID_151_);}
	.st428{fill:url(#SVGID_152_);}
	.st429{fill:url(#SVGID_153_);}
	.st430{fill:#F0EFEF;}
	.st431{fill:#DBD7D7;}
	.st432{fill:#63C7D3;}
	.st433{opacity:0.5;fill:#63C7D3;}
	.st434{fill:#E6E7F4;}
	.st435{fill:#23214D;}
	.st436{fill:#283996;}
	.st437{fill:#1B193A;}
	.st438{fill:#F68D63;}
	.st439{fill:#F9A575;}
	.st440{fill:#FEDA04;}
	.st441{fill:#312126;}
	.st442{fill:#F15F4B;}
	.st443{fill:#F15834;}
	.st444{fill:#EC4524;}
	.st445{fill:#F26B76;}
	.st446{fill:#4D5BA9;}
	.st447{fill:#2D327E;}
	.st448{fill:#39469D;}
	.st449{fill:#9AC181;}
	.st450{fill:#7ED0DC;}
	.st451{display:none;}
	.st452{display:inline;fill:#F9A575;}
	.st453{display:inline;}
	.st454{fill:#673A3C;}
	.st455{fill:#794447;}
	.st456{fill:#47222C;}
	.st457{fill:#29275C;}
	.st458{fill:#57B0B9;}
	.st459{fill:#EF434E;}
	.st460{fill:#E24826;}
	.st461{fill:#4754A5;}
	.st462{fill:#B6C153;}
	.st463{fill:#DD4361;}
	.st464{fill:#FBB67B;}
	.st465{fill:#F6EEEA;}
	.st466{fill:#251D1C;}
	.st467{fill:#E0B895;}
	.st468{fill:#DFB793;}
	.st469{fill:#B8A79D;}
	.st470{fill:#9B93C7;}
	.st471{fill:#6A8037;}
	.st472{fill:#E9633E;}
	.st473{fill:#F6936F;}
	.st474{fill:#DBD8EC;}
	.st475{fill:#221A19;}
	.st476{fill:#382621;}
	.st477{fill:#F7EFEC;}
	.st478{fill:#FBB67C;}
	.st479{fill:#70CACA;}
	.st480{fill:#004669;}
	.st481{fill:#33ADA9;}
	.st482{fill:#EE777A;}
	.st483{fill:#C3E8F0;}
	.st484{fill:#C39C44;}
	.st485{fill:#FFE6B0;}
	.st486{fill:#FFCB5D;}
	.st487{fill:#D2EDF5;}
	.st488{fill:none;stroke:#D2EDF5;stroke-width:2.2824;stroke-miterlimit:10;}
	.st489{fill:#0F4672;}
	.st490{fill:#92B779;}
	.st491{fill:#D47C60;}
	.st492{fill:#054A6E;}
	.st493{fill:#2B9996;}
	.st494{fill:#CAE9EB;}
	.st495{fill:#F7A581;}
	.st496{fill:#F18D24;}
	.st497{fill:#CF7929;}
	.st498{fill:#182F40;}
	.st499{fill:#0E1B2D;}
	.st500{fill:#406E34;}
	.st501{fill:#3B83B0;}
	.st502{fill:#3B3F4A;}
	.st503{fill:#242930;}
	.st504{fill:#FBD165;}
	.st505{fill:#FCB017;}
	.st506{fill:#155567;}
	.st507{fill:#236A7E;}
	.st508{fill:#3096B3;}
	.st509{fill:#84D2F6;}
	.st510{fill:#C4E4F8;}
	.st511{fill:#FCB774;}
	.st512{fill:#FAA31B;}
	.st513{fill:#E38D25;}
	.st514{fill:#AADFF3;}
	.st515{fill:#126E84;}
	.st516{fill:#064A56;}
	.st517{fill:#096D84;}
	.st518{fill:#D3CED9;}
	.st519{fill:#D89466;}
	.st520{fill:#FAA61A;}
	.st521{fill:#AA6549;}
	.st522{fill:#B35143;}
	.st523{fill:#3B3E54;}
	.st524{fill:#8A432D;}
	.st525{fill:#4C2F2C;}
	.st526{fill:#3C1C19;}
	.st527{fill:#9889C1;}
	.st528{fill:#CC8759;}
	.st529{fill:#665DA9;}
	.st530{fill:#5C2B20;}
	.st531{fill:#F4F5F0;}
	.st532{fill:#E04A95;}
	.st533{fill:#BC6944;}
	.st534{fill:#673021;}
	.st535{fill:#C4C2DF;}
	.st536{fill:#342B29;}
	.st537{fill:#E69F6F;}
	.st538{fill:#F173AC;}
	.st539{fill:#FAA43A;}
	.st540{fill:#F7F7FA;}
	.st541{fill:#3F4076;}
	.st542{fill:#5CA4DA;}
	.st543{fill:#BBD071;}
	.st544{fill:#97A33B;}
	.st545{fill:#49763A;}
	.st546{fill:#E5F2FC;}
	.st547{opacity:0.85;}
	.st548{fill:#4692CF;}
	.st549{fill:#0E2D3D;}
	.st550{fill:#5478B4;}
	.st551{fill:#5B83C3;}
	.st552{fill:#304664;}
	.st553{fill:#364D71;}
	.st554{fill:#2C3B57;}
	.st555{fill:#D5D8E8;}
	.st556{opacity:0.82;}
	.st557{fill:#418ECC;}
	.st558{fill:#173342;}
	.st559{fill:#295274;}
	.st560{fill:#F47D58;}
	.st561{fill:#183C59;}
	.st562{fill:#616262;}
	.st563{fill:#E0CFC8;}
	.st564{fill:#64A8DC;}
	.st565{opacity:0.66;}
	.st566{fill:#CBE1F5;}
	.st567{fill:#8CB6E1;}
	.st568{fill:#B5D3EF;}
	.st569{fill:#B8D8F2;}
	.st570{fill:#92B4DF;}
	.st571{fill:#BBDDDE;}
	.st572{fill:#D1ECED;}
	.st573{fill:#C8CBE2;}
	.st574{fill:#669AD2;}
	.st575{fill:#4D84C5;}
	.st576{fill:#181C4D;}
	.st577{fill:#EFBBBB;}
	.st578{fill:#F9CBCB;}
	.st579{fill:#2B3874;}
	.st580{fill:#EBAEAD;}
	.st581{fill:#21295D;}
	.st582{fill:#31344D;}
	.st583{fill:#FCD4D1;}
	.st584{fill:#B95050;}
	.st585{fill:#FEE9E2;}
	.st586{fill:#181A2E;}
	.st587{fill:#EB9B9C;}
	.st588{fill:#F9B7B3;}
	.st589{fill:#444C86;}
	.st590{fill:#2B3367;}
	.st591{fill:#93BAE3;}
	.st592{fill:#4B80C1;}
	.st593{fill:#396CAD;}
	.st594{fill:#C0D9F1;}
	.st595{fill:#F9B4AF;}
	.st596{fill:#4E88C7;}
	.st597{fill:#195595;}
	.st598{fill:#D9475A;}
	.st599{fill:#1172BA;}
	.st600{fill:#247BBC;}
	.st601{fill:#FAA71F;}
	.st602{fill:#D55127;}
	.st603{fill:none;stroke:#212F57;stroke-width:0.925;stroke-miterlimit:10;}
	.st604{fill:#212F57;}
	.st605{opacity:0.5;fill:#838DC5;}
	.st606{fill:#F2C7BD;}
	.st607{fill:none;stroke:#212F57;stroke-width:1.2665;stroke-linecap:round;stroke-linejoin:round;stroke-miterlimit:10;}
	.st608{fill:#272A41;}
	.st609{fill:none;stroke:#E8B1C3;stroke-width:2.5241;stroke-miterlimit:10;}
	.st610{fill:#5160A5;}
	.st611{opacity:0.5;fill:#D55127;}
	.st612{opacity:0.5;fill:#DA8727;}
	.st613{opacity:0.7;}
	.st614{fill:#DA8727;}
	.st615{fill:#A3BDE3;}
	.st616{fill:#1B7A84;}
	.st617{fill:#B1D2EF;}
	.st618{fill:#F8ACAD;}
	.st619{opacity:0.63;}
	.st620{clip-path:url(#SVGID_155_);}
	.st621{fill:#D7E7F6;}
	.st622{clip-path:url(#SVGID_157_);}
	.st623{clip-path:url(#SVGID_159_);}
	.st624{clip-path:url(#SVGID_161_);}
	.st625{clip-path:url(#SVGID_163_);}
	.st626{clip-path:url(#SVGID_165_);}
	.st627{clip-path:url(#SVGID_167_);}
	.st628{clip-path:url(#SVGID_169_);}
	.st629{clip-path:url(#SVGID_171_);}
	.st630{clip-path:url(#SVGID_173_);}
	.st631{clip-path:url(#SVGID_175_);}
	.st632{clip-path:url(#SVGID_177_);}
	.st633{clip-path:url(#SVGID_179_);}
	.st634{clip-path:url(#SVGID_181_);}
	.st635{clip-path:url(#SVGID_183_);}
	.st636{clip-path:url(#SVGID_185_);}
	.st637{clip-path:url(#SVGID_187_);}
	.st638{clip-path:url(#SVGID_189_);}
	.st639{clip-path:url(#SVGID_191_);}
	.st640{clip-path:url(#SVGID_193_);}
	.st641{clip-path:url(#SVGID_195_);}
	.st642{fill:#89B2DF;}
	.st643{fill:#4377BC;}
	.st644{fill:#DA6566;}
	.st645{fill:#F58E92;}
	.st646{fill-rule:evenodd;clip-rule:evenodd;fill:#4DB5D1;}
	.st647{fill:#F15C60;}
	.st648{fill:#FFD574;}
	.st649{fill:#F2B892;}
	.st650{fill:#EB836C;}
	.st651{fill:url(#SVGID_196_);}
	.st652{fill:#222C55;}
	.st653{fill:#4551A3;}
	.st654{fill:url(#SVGID_197_);}
	.st655{fill:#0B3C5F;}
	.st656{fill:#F8A187;}
	.st657{fill:#F4B68F;}
	.st658{fill:#232850;}
	.st659{fill:#306D9E;}
	.st660{fill:#255981;}
	.st661{fill:#F69E83;}
	.st662{fill:#0B3D60;}
	.st663{opacity:0.45;fill:#89B2DF;}
	.st664{filter:url(#Adobe_OpacityMaskFilter_19_);}
	.st665{filter:url(#Adobe_OpacityMaskFilter_20_);}
	.st666{mask:url(#SVGID_198_);fill:url(#SVGID_199_);}
	.st667{opacity:0.33;fill:#AADFF3;}
	.st668{filter:url(#Adobe_OpacityMaskFilter_21_);}
	.st669{filter:url(#Adobe_OpacityMaskFilter_22_);}
	.st670{mask:url(#SVGID_200_);fill:url(#SVGID_201_);}
	.st671{filter:url(#Adobe_OpacityMaskFilter_23_);}
	.st672{filter:url(#Adobe_OpacityMaskFilter_24_);}
	.st673{mask:url(#SVGID_202_);fill:url(#SVGID_203_);}
	.st674{fill:#CFD8EE;}
	.st675{fill:#E3E6F4;}
	.st676{fill:#ABBADF;}
	.st677{fill:#C3CCE8;}
	.st678{fill:url(#SVGID_204_);}
	.st679{fill:url(#SVGID_205_);}
	.st680{fill:#D3D0E9;}
	.st681{fill:#078BBF;}
	.st682{fill:#057B97;}
	.st683{fill:url(#SVGID_206_);}
	.st684{fill:#C74534;}
	.st685{fill:#F27B66;}
	.st686{fill:#58449B;}
	.st687{fill:#6B52A2;}
	.st688{fill:#A9A6D2;}
	.st689{fill:#C4C0E0;}
	.st690{opacity:0.33;}
	.st691{opacity:0.23;fill:url(#SVGID_207_);}
	.st692{opacity:0.36;fill:url(#SVGID_208_);}
	.st693{opacity:0.36;fill:url(#SVGID_209_);}
	.st694{opacity:0.23;fill:url(#SVGID_210_);}
	.st695{fill:#D8E0F2;}
	.st696{opacity:0.36;fill:url(#SVGID_211_);}
	.st697{opacity:0.42;fill:url(#SVGID_212_);}
	.st698{fill:#F6F9FD;}
	.st699{fill:#049AC9;}
	.st700{fill:#E0E0E0;}
	.st701{fill:#EBEBEB;}
	.st702{fill:none;stroke:#F2A59D;stroke-width:0.05;stroke-miterlimit:10;}
	.st703{fill:#FAFBFB;}
	.st704{fill:#E7515B;}
	.st705{fill:#CFCFCE;}
	.st706{fill:#FBBD9D;}
	.st707{fill:#EC996F;}
	.st708{opacity:0.6;fill:#FFFFFF;}
	.st709{opacity:0.6;}
	.st710{fill:#263238;}
	.st711{fill:#455B64;}
	.st712{fill:none;stroke:#43494E;stroke-miterlimit:10;}
	.st713{fill:#F5F5F5;}
	.st714{fill:#F3725F;}
	.st715{opacity:0;}
	.st716{clip-path:url(#SVGID_214_);}
	.st717{fill:#C9D8EF;}
	.st718{clip-path:url(#SVGID_216_);}
	.st719{clip-path:url(#SVGID_218_);}
	.st720{clip-path:url(#SVGID_220_);}
	.st721{clip-path:url(#SVGID_222_);}
	.st722{clip-path:url(#SVGID_224_);}
	.st723{clip-path:url(#SVGID_226_);}
	.st724{clip-path:url(#SVGID_228_);}
	.st725{clip-path:url(#SVGID_230_);}
	.st726{clip-path:url(#SVGID_232_);}
	.st727{clip-path:url(#SVGID_234_);}
	.st728{clip-path:url(#SVGID_236_);}
	.st729{clip-path:url(#SVGID_238_);}
	.st730{clip-path:url(#SVGID_240_);}
	.st731{clip-path:url(#SVGID_242_);}
	.st732{clip-path:url(#SVGID_244_);}
	.st733{clip-path:url(#SVGID_246_);}
	.st734{clip-path:url(#SVGID_248_);}
	.st735{clip-path:url(#SVGID_250_);}
	.st736{clip-path:url(#SVGID_252_);}
	.st737{clip-path:url(#SVGID_254_);}
	.st738{fill:#59595B;}
	.st739{fill:#EDF7F7;}
	.st740{fill:#FDD247;}
	.st741{fill:#1D2040;}
	.st742{fill:url(#SVGID_255_);}
	.st743{fill:#F89A45;}
	.st744{fill:#4F2E1F;}
	.st745{fill:#AEADAD;}
	.st746{fill:#3C2116;}
	.st747{fill:#76696D;}
	.st748{fill:#DFB0B4;}
	.st749{fill:#0E4363;}
	.st750{fill:#F8F6F1;}
	.st751{fill:#A4BAE1;}
	.st752{fill:#4D1F38;}
	.st753{fill:#3A1528;}
	.st754{fill:#746875;}
	.st755{fill:#DAADD1;}
	.st756{fill:url(#SVGID_256_);}
	.st757{fill:#CD3570;}
	.st758{fill:url(#SVGID_257_);}
	.st759{fill:url(#SVGID_258_);}
	.st760{fill:#A09F9F;}
	.st761{fill:none;stroke:#FFFFFF;stroke-linecap:round;stroke-miterlimit:10;}
	.st762{fill:none;stroke:#FFFFFF;stroke-linecap:round;stroke-linejoin:round;stroke-miterlimit:10;}
	.st763{fill:none;stroke:#A09F9F;stroke-miterlimit:10;}
	.st764{fill:#7B553A;}
	.st765{fill:#5F422D;}
	.st766{fill:#FDB839;}
	.st767{fill:#401B0F;}
	.st768{fill:#034B4E;}
	.st769{opacity:0.36;}
	.st770{opacity:0.1;fill:#CFCFCE;}
	.st771{opacity:0.15;}
	.st772{fill:#FBB781;}
	.st773{fill:#49A8D5;}
	.st774{fill:#077679;}
	.st775{opacity:0.1;}
	.st776{fill:#BEE0C0;}
	.st777{opacity:0.23;fill:#245C74;}
	.st778{fill:#245C74;}
	.st779{fill:#FCC69B;}
	.st780{fill:#DBA285;}
	.st781{fill:#757576;}
	.st782{fill:#ABABAA;}
	.st783{fill:#6F6F71;}
	.st784{fill:#FFCA70;}
	.st785{fill:#FAA325;}
	.st786{fill:none;stroke:#077679;stroke-width:0.25;stroke-linecap:round;stroke-linejoin:round;stroke-miterlimit:10;}
	.st787{fill:#963A20;}
	.st788{fill:#E2E2E2;}
	.st789{fill:#18184B;}
	.st790{fill:#F8B6C9;}
	.st791{fill:#F58531;}
	.st792{fill:#759CD2;}
	.st793{fill:#BACFEB;}
</style>
<g>
	<g>
		<g>
			<path class="st1" d="M167.27,72.44c0.95,10.39-6.69,19.58-17.08,20.53c-10.39,0.95-19.58-6.69-20.53-17.08
				c-0.95-10.39,6.69-19.58,17.08-20.53C157.12,54.41,166.31,62.06,167.27,72.44z"/>
		</g>
		<g>
			<path class="st1" d="M149.33,117.35c-8.99-41.85-51.72-27.35-83.08-52.16c-9-7.12-14.22-14.59-17.05-21.75
				c20.3,1.88,36.31-13.7,58.32-15.26c28.54-2.02,42.16,24.85,42.16,24.85c-2.93-18.26-16.37-37.18-37.27-46.71
				c-9.48-3.99-19.89-6.22-30.8-6.3c-0.2,0-0.39-0.01-0.59-0.01C36.27,0,0,36.27,0,81.02s36.27,81.02,81.02,81.02
				c8.97,0,17.59-1.48,25.66-4.17c0.1-0.02,0.22-0.05,0.36-0.1c0.04-0.01,0.08-0.03,0.13-0.04c0.21-0.07,0.42-0.16,0.62-0.23
				c14.74-5.35,27.35-14.82,36.59-26.91c0.03-0.04,0.06-0.07,0.08-0.11c0.02-0.02,0.03-0.04,0.05-0.06c0,0,0,0,0,0c0,0,0,0,0,0
				c1.86-2.31,3.78-6.02,4.85-8.21C150.08,120.76,149.59,118.53,149.33,117.35z M52.41,5.67c0,0-0.01,0.01-0.02,0.03
				c-1.15,0.45-2.27,0.91-3.36,1.38c-0.01,0-0.01,0.01-0.02,0.01l0.03-0.03C49.05,7.06,50.86,6.26,52.41,5.67z"/>
		</g>
	</g>
	<g>
		<path class="st2" d="M106.8,66.42c-1.19,0-2.34,0.2-3.41,0.56c0.35-1.48,0.55-3,0.55-4.58c0-11.07-8.98-20.05-20.05-20.05
			c-9.49,0-17.43,6.61-19.5,15.47c-7.8,0.63-13.94,7.15-13.94,15.11c0,8.38,6.79,15.17,15.17,15.17h41.18
			c5.98,0,10.84-4.85,10.84-10.84C117.63,71.28,112.78,66.42,106.8,66.42z"/>
		<polygon class="st2" points="96.69,98.65 96.69,80.53 89.26,80.53 89.26,98.65 82.99,98.65 87.98,103.94 92.98,109.24 
			97.97,103.94 102.96,98.65 		"/>
		<polygon class="st2" points="75.56,109.1 75.56,80.53 68.13,80.53 68.13,109.1 61.86,109.1 66.85,114.39 71.84,119.69 
			76.84,114.39 81.83,109.1 		"/>
	</g>
	<g>
		<circle class="st3" cx="39.63" cy="132.57" r="1.43"/>
		<g>
			<path class="st3" d="M39.63,155.86c-5.51,0-10-4.48-10-10s4.48-10,10-10s10,4.48,10,10S45.14,155.86,39.63,155.86z M39.63,138.87
				c-3.86,0-7,3.14-7,7s3.14,7,7,7s7-3.14,7-7S43.48,138.87,39.63,138.87z"/>
		</g>
		<g>
			<circle class="st3" cx="63.39" cy="144.52" r="6.71"/>
		</g>
		<g>
			<circle class="st3" cx="100.96" cy="144.5" r="6.71"/>
		</g>
		<g>
			<path class="st3" d="M82.61,171.48c-5.51,0-10-4.48-10-10c0-5.51,4.48-10,10-10c5.51,0,10,4.48,10,10
				C92.6,167,88.12,171.48,82.61,171.48z M82.61,154.49c-3.86,0-7,3.14-7,7s3.14,7,7,7c3.86,0,7-3.14,7-7S86.47,154.49,82.61,154.49
				z"/>
		</g>
		<g>
			<path class="st3" d="M125.68,155.86c-5.51,0-10-4.48-10-10s4.48-10,10-10c5.51,0,10,4.48,10,10S131.19,155.86,125.68,155.86z
				 M125.68,138.87c-3.86,0-7,3.14-7,7s3.14,7,7,7s7-3.14,7-7S129.54,138.87,125.68,138.87z"/>
		</g>
		<circle class="st3" cx="39.63" cy="127.18" r="1.43"/>
		<path class="st3" d="M64.61,134.73c0,0.65-0.52,1.17-1.17,1.17s-1.17-0.52-1.17-1.17s0.52-1.17,1.17-1.17
			S64.61,134.08,64.61,134.73z"/>
		<circle class="st3" cx="63.39" cy="130.61" r="1.17"/>
		<circle class="st3" cx="63.39" cy="126.48" r="1.17"/>
		<circle class="st3" cx="63.44" cy="122.23" r="1.17"/>
		<path class="st3" d="M64.56,118.14c0,0.65-0.52,1.17-1.17,1.17c-0.65,0-1.17-0.52-1.17-1.17s0.52-1.17,1.17-1.17
			C64.04,116.97,64.56,117.49,64.56,118.14z"/>
		<path class="st3" d="M64.61,113.95c0,0.65-0.52,1.17-1.17,1.17s-1.17-0.52-1.17-1.17c0-0.65,0.52-1.17,1.17-1.17
			S64.61,113.3,64.61,113.95z"/>
		<path class="st3" d="M99.84,134.73c0,0.65,0.52,1.17,1.17,1.17c0.65,0,1.17-0.52,1.17-1.17s-0.52-1.17-1.17-1.17
			C100.36,133.56,99.84,134.08,99.84,134.73z"/>
		<path class="st3" d="M99.88,130.61c0,0.65,0.52,1.17,1.17,1.17s1.17-0.52,1.17-1.17s-0.52-1.17-1.17-1.17
			S99.88,129.96,99.88,130.61z"/>
		<path class="st3" d="M99.88,126.48c0,0.65,0.52,1.17,1.17,1.17s1.17-0.52,1.17-1.17c0-0.65-0.52-1.17-1.17-1.17
			S99.88,125.84,99.88,126.48z"/>
		<path class="st3" d="M99.84,122.23c0,0.65,0.52,1.17,1.17,1.17c0.65,0,1.17-0.52,1.17-1.17s-0.52-1.17-1.17-1.17
			C100.36,121.06,99.84,121.59,99.84,122.23z"/>
		<path class="st3" d="M99.88,118.14c0,0.65,0.52,1.17,1.17,1.17s1.17-0.52,1.17-1.17s-0.52-1.17-1.17-1.17
			S99.88,117.49,99.88,118.14z"/>
		<path class="st3" d="M99.84,113.95c0,0.65,0.52,1.17,1.17,1.17c0.65,0,1.17-0.52,1.17-1.17c0-0.65-0.52-1.17-1.17-1.17
			C100.36,112.78,99.84,113.3,99.84,113.95z"/>
		<path class="st3" d="M99.88,109.76c0,0.65,0.52,1.17,1.17,1.17s1.17-0.52,1.17-1.17c0-0.65-0.52-1.17-1.17-1.17
			S99.88,109.12,99.88,109.76z"/>
		<path class="st3" d="M99.84,105.63c0,0.65,0.52,1.17,1.17,1.17c0.65,0,1.17-0.52,1.17-1.17c0-0.65-0.52-1.17-1.17-1.17
			C100.36,104.46,99.84,104.98,99.84,105.63z"/>
		<circle class="st3" cx="39.63" cy="121.88" r="1.43"/>
		<circle class="st3" cx="39.63" cy="116.5" r="1.43"/>
		<circle class="st3" cx="39.63" cy="111.11" r="1.43"/>
		<path class="st3" d="M84.04,147.83c0,0.79-0.64,1.43-1.43,1.43c-0.79,0-1.43-0.64-1.43-1.43s0.64-1.43,1.43-1.43
			C83.4,146.4,84.04,147.04,84.04,147.83z"/>
		<path class="st3" d="M84.04,142.44c0,0.79-0.64,1.43-1.43,1.43c-0.79,0-1.43-0.64-1.43-1.43s0.64-1.43,1.43-1.43
			C83.4,141.01,84.04,141.65,84.04,142.44z"/>
		<path class="st3" d="M84.04,137.14c0,0.79-0.64,1.43-1.43,1.43c-0.79,0-1.43-0.64-1.43-1.43c0-0.79,0.64-1.43,1.43-1.43
			C83.4,135.71,84.04,136.35,84.04,137.14z"/>
		<path class="st3" d="M84.04,131.76c0,0.79-0.64,1.43-1.43,1.43c-0.79,0-1.43-0.64-1.43-1.43s0.64-1.43,1.43-1.43
			C83.4,130.33,84.04,130.97,84.04,131.76z"/>
		<path class="st3" d="M84.04,126.37c0,0.79-0.64,1.43-1.43,1.43c-0.79,0-1.43-0.64-1.43-1.43c0-0.79,0.64-1.43,1.43-1.43
			C83.4,124.94,84.04,125.58,84.04,126.37z"/>
		<path class="st3" d="M84.04,120.99c0,0.79-0.64,1.43-1.43,1.43c-0.79,0-1.43-0.64-1.43-1.43s0.64-1.43,1.43-1.43
			C83.4,119.56,84.04,120.2,84.04,120.99z"/>
		<path class="st3" d="M84.04,115.61c0,0.79-0.64,1.43-1.43,1.43c-0.79,0-1.43-0.64-1.43-1.43c0-0.79,0.64-1.43,1.43-1.43
			C83.4,114.18,84.04,114.82,84.04,115.61z"/>
		<circle class="st3" cx="41.92" cy="106.54" r="1.43"/>
		<circle class="st3" cx="46.58" cy="103.83" r="1.43"/>
		<path class="st3" d="M52.59,101.2c0,0.79-0.64,1.43-1.43,1.43c-0.79,0-1.43-0.64-1.43-1.43c0-0.79,0.64-1.43,1.43-1.43
			C51.95,99.77,52.59,100.41,52.59,101.2z"/>
		<path class="st3" d="M57.25,98.45c0,0.79-0.64,1.43-1.43,1.43c-0.79,0-1.43-0.64-1.43-1.43c0-0.79,0.64-1.43,1.43-1.43
			C56.61,97.02,57.25,97.66,57.25,98.45z"/>
		<circle class="st3" cx="125.64" cy="132.58" r="1.43"/>
		<circle class="st3" cx="125.64" cy="127.18" r="1.43"/>
		<circle class="st3" cx="125.64" cy="121.88" r="1.43"/>
		<circle class="st3" cx="125.64" cy="116.5" r="1.43"/>
		<circle class="st3" cx="125.64" cy="111.12" r="1.43"/>
		<path class="st3" d="M121.91,106.54c0,0.79,0.64,1.43,1.43,1.43c0.79,0,1.43-0.64,1.43-1.43c0-0.79-0.64-1.43-1.43-1.43
			C122.55,105.11,121.91,105.75,121.91,106.54z"/>
		<path class="st3" d="M117.25,103.84c0,0.79,0.64,1.43,1.43,1.43c0.79,0,1.43-0.64,1.43-1.43c0-0.79-0.64-1.43-1.43-1.43
			C117.89,102.41,117.25,103.05,117.25,103.84z"/>
		<circle class="st3" cx="114.1" cy="101.2" r="1.43"/>
		<path class="st3" d="M108.01,98.46c0,0.79,0.64,1.43,1.43,1.43c0.79,0,1.43-0.64,1.43-1.43c0-0.79-0.64-1.43-1.43-1.43
			C108.65,97.03,108.01,97.67,108.01,98.46z"/>
	</g>
</g>
</svg>
