<?xml version="1.0" encoding="utf-8"?>
<!-- Generator: Adobe Illustrator 25.3.1, SVG Export Plug-In . SVG Version: 6.00 Build 0)  -->
<svg version="1.1" id="Layer_1" xmlns="http://www.w3.org/2000/svg" xmlns:xlink="http://www.w3.org/1999/xlink" x="0px" y="0px"
	 viewBox="0 0 144.1 125.16" style="enable-background:new 0 0 144.1 125.16;" xml:space="preserve">
<style type="text/css">
	.st0{fill:#24487F;}
	.st1{fill:#8E8E8E;}
	.st2{fill:#FFFFFF;stroke:#8E8E8E;stroke-linecap:round;stroke-miterlimit:10;}
	.st3{fill:#FFFFFF;}
	.st4{fill:#4DB5D1;}
	.st5{fill:#60934D;}
	.st6{fill:#FFFFFF;stroke:#5F934D;stroke-linecap:round;stroke-miterlimit:10;}
	.st7{fill:#23497F;}
	.st8{fill:#FFFFFF;stroke:#23497F;stroke-linecap:round;stroke-miterlimit:10;}
	.st9{fill:url(#SVGID_1_);}
	.st10{fill:url(#SVGID_2_);}
	.st11{fill:url(#SVGID_3_);}
	.st12{fill:url(#SVGID_4_);}
	.st13{fill:#397BBF;}
	.st14{fill:#1466B1;}
	.st15{fill:#054F8C;}
	.st16{fill:url(#SVGID_5_);}
	.st17{fill:#EFA986;}
	.st18{fill:#152B3D;}
	.st19{fill:#62A9DC;}
	.st20{fill:#977332;}
	.st21{fill:#264480;}
	.st22{fill:#363B3D;}
	.st23{fill:#E45354;}
	.st24{fill:#F5F6F6;}
	.st25{fill:#1A5A8D;}
	.st26{fill:#2274B5;}
	.st27{fill:#3A88C8;}
	.st28{fill:#E3F3FC;}
	.st29{fill:#C5CCD1;}
	.st30{fill:#2A2C47;}
	.st31{fill:#E2D2CA;}
	.st32{fill:#434873;}
	.st33{fill:#3B4048;}
	.st34{fill:#323757;}
	.st35{fill:#81A358;}
	.st36{fill:#71A341;}
	.st37{fill:#618A3C;}
	.st38{fill:#87BD43;}
	.st39{fill:#7BA840;}
	.st40{fill:#70A341;}
	.st41{fill:#6A943E;}
	.st42{fill:#B2CF43;}
	.st43{fill:#9FB34D;}
	.st44{fill:url(#SVGID_6_);}
	.st45{filter:url(#Adobe_OpacityMaskFilter);}
	.st46{filter:url(#Adobe_OpacityMaskFilter_1_);}
	.st47{mask:url(#SVGID_7_);fill:url(#SVGID_8_);}
	.st48{fill:url(#SVGID_9_);}
	.st49{fill:#464443;}
	.st50{fill:#928783;}
	.st51{fill:#1D3C55;}
	.st52{fill:#152C3D;}
	.st53{fill:#A77961;}
	.st54{fill:#D8E9F7;}
	.st55{fill:#BFB2AC;}
	.st56{fill:#FED1A2;}
	.st57{fill:#B37953;}
	.st58{fill:#D6995E;}
	.st59{fill:#807167;}
	.st60{fill:#6E6760;}
	.st61{fill:#928880;}
	.st62{fill:#BC8552;}
	.st63{filter:url(#Adobe_OpacityMaskFilter_2_);}
	.st64{filter:url(#Adobe_OpacityMaskFilter_3_);}
	.st65{mask:url(#SVGID_10_);fill:url(#SVGID_11_);}
	.st66{fill:url(#SVGID_12_);}
	.st67{filter:url(#Adobe_OpacityMaskFilter_4_);}
	.st68{filter:url(#Adobe_OpacityMaskFilter_5_);}
	.st69{mask:url(#SVGID_13_);fill:url(#SVGID_14_);}
	.st70{fill:url(#SVGID_15_);}
	.st71{fill:#C3C8E5;}
	.st72{opacity:0.3;}
	.st73{fill:#F4F6FB;}
	.st74{fill:#E8E8F2;}
	.st75{fill:#D7D6E6;}
	.st76{fill:#F3F4F7;}
	.st77{fill:#FCFDFD;}
	.st78{filter:url(#Adobe_OpacityMaskFilter_6_);}
	.st79{mask:url(#SVGID_16_);}
	.st80{fill:#3F54A5;}
	.st81{fill:#A5A7D4;}
	.st82{fill:#B4BBDF;}
	.st83{fill:url(#SVGID_17_);}
	.st84{fill:#CED0E4;}
	.st85{fill:#EDF0F9;}
	.st86{opacity:0.5;fill:#CFD2D3;}
	.st87{opacity:0.5;fill:#A5A7AA;}
	.st88{fill:#332566;}
	.st89{fill:#FAAE42;}
	.st90{fill:#DFDFDE;}
	.st91{fill:#F6C6B1;}
	.st92{fill:#E8B8A9;}
	.st93{fill:#3D4592;}
	.st94{fill:url(#SVGID_18_);}
	.st95{fill:url(#SVGID_19_);}
	.st96{fill:url(#SVGID_20_);}
	.st97{fill:#112F41;}
	.st98{opacity:0.5;fill:#BDBCD8;}
	.st99{opacity:0.2;fill:#ED5B2A;}
	.st100{fill-rule:evenodd;clip-rule:evenodd;fill:#3E55A5;}
	.st101{fill:#2C1C28;}
	.st102{fill:#EE7762;}
	.st103{opacity:0.25;fill:#ED5B2A;}
	.st104{fill:#CD3046;}
	.st105{fill:#282B70;}
	.st106{fill:url(#SVGID_21_);}
	.st107{fill:url(#SVGID_22_);}
	.st108{fill:#212B46;}
	.st109{fill:#D2D2E9;}
	.st110{fill:#8F95CA;}
	.st111{fill:#BDBCD8;}
	.st112{fill:#F2F7F6;}
	.st113{fill:#C9C8DF;}
	.st114{fill:#E3E3EE;}
	.st115{fill:#FAF0F7;}
	.st116{fill:#FFFCFD;}
	.st117{fill:#E4A28B;}
	.st118{opacity:0.05;fill:#010101;}
	.st119{fill:#D9DDEC;}
	.st120{fill:#C6CBE7;}
	.st121{fill:#8A97CC;}
	.st122{fill:#DFE4F3;}
	.st123{fill:#D5A393;}
	.st124{fill:#182540;}
	.st125{fill:url(#SVGID_23_);}
	.st126{fill:#F1A993;}
	.st127{fill:#687094;}
	.st128{fill:#D7DBEF;}
	.st129{fill:#F4F4F8;}
	.st130{fill:#B2B9DE;}
	.st131{fill:#4D60AC;}
	.st132{fill:#8E97CB;}
	.st133{fill:#BCC6E5;}
	.st134{fill:#AAB9DF;}
	.st135{fill:#FFFBFD;}
	.st136{fill:#34479E;}
	.st137{opacity:0.2;}
	.st138{fill:#60848C;}
	.st139{fill:url(#SVGID_24_);}
	.st140{fill:#F36E5C;}
	.st141{fill:#85BEE7;}
	.st142{fill:#908F8F;}
	.st143{fill:#F1F0F0;}
	.st144{fill:url(#SVGID_25_);}
	.st145{fill:#CCCCCC;}
	.st146{fill:#F6F7FB;}
	.st147{fill:#E6E6E5;}
	.st148{fill:#F3F3F3;}
	.st149{fill:#EFF0F7;}
	.st150{fill:url(#SVGID_26_);}
	.st151{fill:url(#SVGID_27_);}
	.st152{fill:url(#SVGID_28_);}
	.st153{fill:url(#SVGID_29_);}
	.st154{fill:url(#SVGID_30_);}
	.st155{fill:url(#SVGID_31_);}
	.st156{fill:#3D426A;}
	.st157{fill:#252840;}
	.st158{fill:#C4B4AF;}
	.st159{fill:#EA4747;}
	.st160{fill:#6B7BBC;}
	.st161{fill:#5266AF;}
	.st162{fill:#5062AD;}
	.st163{fill:#EDDAD3;}
	.st164{fill:#DECDC7;}
	.st165{fill:#E3D1CA;}
	.st166{fill:#B39595;}
	.st167{fill:#DBB8B8;}
	.st168{fill:#F1CCCB;}
	.st169{fill:#323538;}
	.st170{fill:#EFAA88;}
	.st171{fill:#1D2133;}
	.st172{fill:#EFAA87;}
	.st173{fill:#D88A51;}
	.st174{fill:#C68D71;}
	.st175{fill:#A19FA7;}
	.st176{fill:#EAE6F1;}
	.st177{fill:#3B4167;}
	.st178{fill:#DE9674;}
	.st179{fill:#764937;}
	.st180{fill:#5D554E;}
	.st181{fill:#3D4246;}
	.st182{fill:#FFD356;}
	.st183{fill:url(#SVGID_32_);}
	.st184{fill:url(#SVGID_33_);}
	.st185{fill:url(#SVGID_34_);}
	.st186{fill:url(#SVGID_35_);}
	.st187{fill:url(#SVGID_36_);}
	.st188{fill:url(#SVGID_37_);}
	.st189{opacity:0.5;}
	.st190{fill:#FCEACF;}
	.st191{opacity:0.8;}
	.st192{fill:#D4EEF6;}
	.st193{fill:#3AA1C9;}
	.st194{fill:#3F9896;}
	.st195{fill:#7FC6A6;}
	.st196{fill:#DEF2FD;}
	.st197{fill:#223849;}
	.st198{fill:#B4E3F7;}
	.st199{fill:#F89F74;}
	.st200{fill:#E33F3E;}
	.st201{fill:#482B32;}
	.st202{fill:#D8E4F4;}
	.st203{fill:#683E47;}
	.st204{fill:#3788BA;}
	.st205{fill:#22131E;}
	.st206{fill:#FAB59D;}
	.st207{fill:#CC2327;}
	.st208{fill:#E2F3F1;}
	.st209{fill:#F07163;}
	.st210{fill:#49273F;}
	.st211{fill:#4C232E;}
	.st212{fill:#010101;}
	.st213{fill:#F7956E;}
	.st214{fill:#F68D64;}
	.st215{fill:#F27584;}
	.st216{fill:#4EB8D9;}
	.st217{fill:#EF4751;}
	.st218{fill:#ACC7E8;}
	.st219{fill:#268E8D;}
	.st220{fill:#3A1F33;}
	.st221{fill:#FECC87;}
	.st222{fill:#FBB359;}
	.st223{fill:#331A2C;}
	.st224{fill:#FDC886;}
	.st225{fill:#F7934B;}
	.st226{fill:#F04D65;}
	.st227{fill:#F6D6B2;}
	.st228{fill:#61A3C5;}
	.st229{fill:#B1D89B;}
	.st230{fill:#A8C8E5;}
	.st231{fill:#C1D1EC;}
	.st232{fill:#F2AC40;}
	.st233{fill:#3B57A6;}
	.st234{fill:#C2D5EE;}
	.st235{fill:#A9C4E6;}
	.st236{fill:#2D572A;}
	.st237{fill:#274392;}
	.st238{fill:#95B0DB;}
	.st239{fill:#BFBFBF;}
	.st240{fill:#E9F3FB;}
	.st241{fill:#6B81C0;}
	.st242{fill:#8FB1DD;}
	.st243{fill:#F58765;}
	.st244{fill:#2C1913;}
	.st245{fill:#6A3F31;}
	.st246{fill:#F37559;}
	.st247{fill:#F47A55;}
	.st248{fill:#E0B3A8;}
	.st249{fill:#D9D9D9;}
	.st250{fill:#C6DD74;}
	.st251{fill:#9FCB5F;}
	.st252{fill:#7C9D48;}
	.st253{fill:#E7E7E7;}
	.st254{fill:#F2C791;}
	.st255{fill:#B7B7B7;}
	.st256{fill:#7595CD;}
	.st257{fill:#FAB18D;}
	.st258{fill:#F6977C;}
	.st259{fill:#D1E28C;}
	.st260{fill:none;}
	.st261{fill:#1B1B1C;}
	.st262{fill:#F47E46;}
	.st263{fill:#EB6828;}
	.st264{fill:#F79668;}
	.st265{fill:#E6B54E;}
	.st266{fill:#676767;}
	.st267{fill:#4D4C4C;}
	.st268{fill:#F27070;}
	.st269{fill:#C24D4D;}
	.st270{enable-background:new    ;}
	.st271{fill:#C39B6A;}
	.st272{fill:#C9A475;}
	.st273{fill:#E6B880;}
	.st274{fill:#9F3D3E;}
	.st275{fill:#FFD679;}
	.st276{fill:#F4805D;}
	.st277{fill:#DA5958;}
	.st278{fill:#7D3D20;}
	.st279{fill:#562915;}
	.st280{fill:#B15931;}
	.st281{fill:#5076BA;}
	.st282{fill:#59ADC0;}
	.st283{fill:#099895;}
	.st284{fill:#F5AE87;}
	.st285{fill:#D9504F;}
	.st286{fill:#FCC79A;}
	.st287{fill:#FFDC7B;}
	.st288{fill:#F15958;}
	.st289{fill:#674E46;}
	.st290{fill:#785D51;}
	.st291{clip-path:url(#SVGID_39_);fill:#60934D;}
	.st292{clip-path:url(#SVGID_39_);}
	.st293{fill:#BD725F;}
	.st294{fill:#E6F1D1;}
	.st295{fill:#A86046;}
	.st296{fill:#3C251D;}
	.st297{fill:#4A413F;}
	.st298{fill:#716765;}
	.st299{fill:#EEBD7F;}
	.st300{fill:#7DA594;}
	.st301{fill:#252433;}
	.st302{fill:#F7E6C7;}
	.st303{fill:#E79F90;}
	.st304{fill:#CC4A38;}
	.st305{fill:#333333;}
	.st306{fill:#E1755E;}
	.st307{fill:#E8A180;}
	.st308{fill:#694136;}
	.st309{fill:#C06360;}
	.st310{fill:#CD5A5A;}
	.st311{fill:#E17660;}
	.st312{opacity:0.42;}
	.st313{fill-rule:evenodd;clip-rule:evenodd;fill:#B1D89B;}
	.st314{clip-path:url(#SVGID_41_);fill:#92B779;}
	.st315{clip-path:url(#SVGID_43_);fill:url(#SVGID_44_);}
	.st316{fill-rule:evenodd;clip-rule:evenodd;fill:#60934D;}
	.st317{clip-path:url(#SVGID_46_);fill:url(#SVGID_47_);}
	.st318{fill-rule:evenodd;clip-rule:evenodd;fill:#274CA1;}
	.st319{clip-path:url(#SVGID_49_);fill:url(#SVGID_50_);}
	.st320{clip-path:url(#SVGID_52_);fill:url(#SVGID_53_);}
	.st321{fill-rule:evenodd;clip-rule:evenodd;fill:#F3AF8F;}
	.st322{fill-rule:evenodd;clip-rule:evenodd;fill:#6E2D5F;}
	.st323{fill-rule:evenodd;clip-rule:evenodd;fill:#4D1942;}
	.st324{fill-rule:evenodd;clip-rule:evenodd;fill:#101841;}
	.st325{fill-rule:evenodd;clip-rule:evenodd;fill:#144984;}
	.st326{fill-rule:evenodd;clip-rule:evenodd;fill:#35AD82;}
	.st327{fill-rule:evenodd;clip-rule:evenodd;fill:#198C67;}
	.st328{fill-rule:evenodd;clip-rule:evenodd;fill:#F6C1C5;}
	.st329{fill-rule:evenodd;clip-rule:evenodd;fill:#53B9E9;}
	.st330{fill-rule:evenodd;clip-rule:evenodd;fill:#7DD3F7;}
	.st331{clip-path:url(#SVGID_55_);fill:url(#SVGID_56_);}
	.st332{clip-path:url(#SVGID_58_);fill:url(#SVGID_59_);}
	.st333{fill-rule:evenodd;clip-rule:evenodd;fill:#3DB4E8;}
	.st334{clip-path:url(#SVGID_61_);fill:url(#SVGID_62_);}
	.st335{fill-rule:evenodd;clip-rule:evenodd;fill:#F4FBFE;}
	.st336{fill-rule:evenodd;clip-rule:evenodd;fill:#F4B1B1;}
	.st337{fill-rule:evenodd;clip-rule:evenodd;fill:#D4EAD8;}
	.st338{fill-rule:evenodd;clip-rule:evenodd;fill:#E16C6C;}
	.st339{clip-path:url(#SVGID_64_);fill:url(#SVGID_65_);}
	.st340{clip-path:url(#SVGID_67_);fill:url(#SVGID_68_);}
	.st341{clip-path:url(#SVGID_70_);fill:url(#SVGID_71_);}
	.st342{clip-path:url(#SVGID_73_);fill:url(#SVGID_74_);}
	.st343{clip-path:url(#SVGID_76_);fill:url(#SVGID_77_);}
	.st344{fill-rule:evenodd;clip-rule:evenodd;fill:#316CB5;}
	.st345{clip-path:url(#SVGID_79_);fill:url(#SVGID_80_);}
	.st346{fill-rule:evenodd;clip-rule:evenodd;fill:#DF5D7B;}
	.st347{clip-path:url(#SVGID_82_);fill:url(#SVGID_83_);}
	.st348{fill-rule:evenodd;clip-rule:evenodd;fill:#2D572A;}
	.st349{clip-path:url(#SVGID_85_);fill:#60934D;}
	.st350{clip-path:url(#SVGID_87_);fill:url(#SVGID_88_);}
	.st351{clip-path:url(#SVGID_90_);fill:url(#SVGID_91_);}
	.st352{clip-path:url(#SVGID_93_);fill:url(#SVGID_94_);}
	.st353{fill:url(#SVGID_95_);}
	.st354{filter:url(#Adobe_OpacityMaskFilter_7_);}
	.st355{filter:url(#Adobe_OpacityMaskFilter_8_);}
	.st356{mask:url(#SVGID_96_);fill:url(#SVGID_97_);}
	.st357{fill:url(#SVGID_98_);}
	.st358{fill:none;stroke:#FFFFFF;stroke-miterlimit:10;}
	.st359{fill:url(#SVGID_99_);}
	.st360{filter:url(#Adobe_OpacityMaskFilter_9_);}
	.st361{filter:url(#Adobe_OpacityMaskFilter_10_);}
	.st362{mask:url(#SVGID_100_);fill:url(#SVGID_101_);}
	.st363{fill:url(#SVGID_102_);}
	.st364{fill:url(#SVGID_103_);}
	.st365{filter:url(#Adobe_OpacityMaskFilter_11_);}
	.st366{filter:url(#Adobe_OpacityMaskFilter_12_);}
	.st367{mask:url(#SVGID_104_);fill:url(#SVGID_105_);}
	.st368{fill:url(#SVGID_106_);}
	.st369{fill:url(#SVGID_107_);}
	.st370{filter:url(#Adobe_OpacityMaskFilter_13_);}
	.st371{filter:url(#Adobe_OpacityMaskFilter_14_);}
	.st372{mask:url(#SVGID_108_);fill:url(#SVGID_109_);}
	.st373{fill:url(#SVGID_110_);}
	.st374{fill:url(#SVGID_111_);}
	.st375{fill:url(#SVGID_112_);}
	.st376{fill:url(#SVGID_113_);}
	.st377{fill:url(#SVGID_114_);}
	.st378{fill:url(#SVGID_115_);}
	.st379{fill:url(#SVGID_116_);}
	.st380{fill:#FBC5B4;}
	.st381{fill:url(#SVGID_117_);}
	.st382{fill:url(#SVGID_118_);}
	.st383{filter:url(#Adobe_OpacityMaskFilter_15_);}
	.st384{filter:url(#Adobe_OpacityMaskFilter_16_);}
	.st385{mask:url(#SVGID_119_);fill:url(#SVGID_120_);}
	.st386{fill:url(#SVGID_121_);}
	.st387{fill:url(#SVGID_122_);}
	.st388{filter:url(#Adobe_OpacityMaskFilter_17_);}
	.st389{filter:url(#Adobe_OpacityMaskFilter_18_);}
	.st390{mask:url(#SVGID_123_);fill:url(#SVGID_124_);}
	.st391{fill:url(#SVGID_125_);}
	.st392{fill:url(#SVGID_126_);}
	.st393{fill:#F69575;}
	.st394{fill:url(#SVGID_127_);}
	.st395{fill:url(#SVGID_128_);}
	.st396{fill:url(#SVGID_129_);}
	.st397{fill:url(#SVGID_130_);}
	.st398{fill:url(#SVGID_131_);}
	.st399{fill:#F05253;}
	.st400{fill:#ED1C24;}
	.st401{fill:url(#SVGID_132_);}
	.st402{fill:url(#SVGID_133_);}
	.st403{fill:url(#SVGID_134_);}
	.st404{fill:url(#SVGID_135_);}
	.st405{fill:url(#SVGID_136_);}
	.st406{fill:url(#SVGID_137_);}
	.st407{fill:#FDC78D;}
	.st408{fill:#FFD10A;}
	.st409{fill:url(#SVGID_138_);}
	.st410{fill:url(#SVGID_139_);}
	.st411{fill:url(#SVGID_140_);}
	.st412{fill:#6899D1;}
	.st413{fill:#F4F4F4;}
	.st414{fill:#DAEEF6;}
	.st415{fill:url(#SVGID_141_);}
	.st416{fill:#85CEC1;}
	.st417{fill:url(#SVGID_142_);}
	.st418{fill:#F37878;}
	.st419{fill:url(#SVGID_143_);}
	.st420{fill:url(#SVGID_144_);}
	.st421{fill:url(#SVGID_145_);}
	.st422{fill:url(#SVGID_146_);}
	.st423{fill:url(#SVGID_147_);}
	.st424{fill:url(#SVGID_148_);}
	.st425{fill:url(#SVGID_149_);}
	.st426{fill:url(#SVGID_150_);}
	.st427{fill:url(#SVGID_151_);}
	.st428{fill:url(#SVGID_152_);}
	.st429{fill:url(#SVGID_153_);}
	.st430{fill:#F0EFEF;}
	.st431{fill:#DBD7D7;}
	.st432{fill:#63C7D3;}
	.st433{opacity:0.5;fill:#63C7D3;}
	.st434{fill:#E6E7F4;}
	.st435{fill:#23214D;}
	.st436{fill:#283996;}
	.st437{fill:#1B193A;}
	.st438{fill:#F68D63;}
	.st439{fill:#F9A575;}
	.st440{fill:#FEDA04;}
	.st441{fill:#312126;}
	.st442{fill:#F15F4B;}
	.st443{fill:#F15834;}
	.st444{fill:#EC4524;}
	.st445{fill:#F26B76;}
	.st446{fill:#4D5BA9;}
	.st447{fill:#2D327E;}
	.st448{fill:#39469D;}
	.st449{fill:#9AC181;}
	.st450{fill:#7ED0DC;}
	.st451{display:none;}
	.st452{display:inline;fill:#F9A575;}
	.st453{display:inline;}
	.st454{fill:#673A3C;}
	.st455{fill:#794447;}
	.st456{fill:#47222C;}
	.st457{fill:#29275C;}
	.st458{fill:#57B0B9;}
	.st459{fill:#EF434E;}
	.st460{fill:#E24826;}
	.st461{fill:#4754A5;}
	.st462{fill:#B6C153;}
	.st463{fill:#DD4361;}
	.st464{fill:#FBB67B;}
	.st465{fill:#F6EEEA;}
	.st466{fill:#251D1C;}
	.st467{fill:#E0B895;}
	.st468{fill:#DFB793;}
	.st469{fill:#B8A79D;}
	.st470{fill:#9B93C7;}
	.st471{fill:#6A8037;}
	.st472{fill:#E9633E;}
	.st473{fill:#F6936F;}
	.st474{fill:#DBD8EC;}
	.st475{fill:#221A19;}
	.st476{fill:#382621;}
	.st477{fill:#F7EFEC;}
	.st478{fill:#FBB67C;}
	.st479{fill:#70CACA;}
	.st480{fill:#004669;}
	.st481{fill:#33ADA9;}
	.st482{fill:#EE777A;}
	.st483{fill:#C3E8F0;}
	.st484{fill:#C39C44;}
	.st485{fill:#FFE6B0;}
	.st486{fill:#FFCB5D;}
	.st487{fill:#D2EDF5;}
	.st488{fill:none;stroke:#D2EDF5;stroke-width:2.2824;stroke-miterlimit:10;}
	.st489{fill:#0F4672;}
	.st490{fill:#92B779;}
	.st491{fill:#D47C60;}
	.st492{fill:#054A6E;}
	.st493{fill:#2B9996;}
	.st494{fill:#CAE9EB;}
	.st495{fill:#F7A581;}
	.st496{fill:#F18D24;}
	.st497{fill:#CF7929;}
	.st498{fill:#182F40;}
	.st499{fill:#0E1B2D;}
	.st500{fill:#406E34;}
	.st501{fill:#3B83B0;}
	.st502{fill:#3B3F4A;}
	.st503{fill:#242930;}
	.st504{fill:#FBD165;}
	.st505{fill:#FCB017;}
	.st506{fill:#155567;}
	.st507{fill:#236A7E;}
	.st508{fill:#3096B3;}
	.st509{fill:#84D2F6;}
	.st510{fill:#C4E4F8;}
	.st511{fill:#FCB774;}
	.st512{fill:#FAA31B;}
	.st513{fill:#E38D25;}
	.st514{fill:#AADFF3;}
	.st515{fill:#126E84;}
	.st516{fill:#064A56;}
	.st517{fill:#096D84;}
	.st518{fill:#D3CED9;}
	.st519{fill:#D89466;}
	.st520{fill:#FAA61A;}
	.st521{fill:#AA6549;}
	.st522{fill:#B35143;}
	.st523{fill:#3B3E54;}
	.st524{fill:#8A432D;}
	.st525{fill:#4C2F2C;}
	.st526{fill:#3C1C19;}
	.st527{fill:#9889C1;}
	.st528{fill:#CC8759;}
	.st529{fill:#665DA9;}
	.st530{fill:#5C2B20;}
	.st531{fill:#F4F5F0;}
	.st532{fill:#E04A95;}
	.st533{fill:#BC6944;}
	.st534{fill:#673021;}
	.st535{fill:#C4C2DF;}
	.st536{fill:#342B29;}
	.st537{fill:#E69F6F;}
	.st538{fill:#F173AC;}
	.st539{fill:#FAA43A;}
	.st540{fill:#F7F7FA;}
	.st541{fill:#3F4076;}
	.st542{fill:#5CA4DA;}
	.st543{fill:#BBD071;}
	.st544{fill:#97A33B;}
	.st545{fill:#49763A;}
	.st546{fill:#E5F2FC;}
	.st547{opacity:0.85;}
	.st548{fill:#4692CF;}
	.st549{fill:#0E2D3D;}
	.st550{fill:#5478B4;}
	.st551{fill:#5B83C3;}
	.st552{fill:#304664;}
	.st553{fill:#364D71;}
	.st554{fill:#2C3B57;}
	.st555{fill:#D5D8E8;}
	.st556{opacity:0.82;}
	.st557{fill:#418ECC;}
	.st558{fill:#173342;}
	.st559{fill:#295274;}
	.st560{fill:#F47D58;}
	.st561{fill:#183C59;}
	.st562{fill:#616262;}
	.st563{fill:#E0CFC8;}
	.st564{fill:#64A8DC;}
	.st565{opacity:0.66;}
	.st566{fill:#CBE1F5;}
	.st567{fill:#8CB6E1;}
	.st568{fill:#B5D3EF;}
	.st569{fill:#B8D8F2;}
	.st570{fill:#92B4DF;}
	.st571{fill:#BBDDDE;}
	.st572{fill:#D1ECED;}
	.st573{fill:#C8CBE2;}
	.st574{fill:#669AD2;}
	.st575{fill:#4D84C5;}
	.st576{fill:#181C4D;}
	.st577{fill:#EFBBBB;}
	.st578{fill:#F9CBCB;}
	.st579{fill:#2B3874;}
	.st580{fill:#EBAEAD;}
	.st581{fill:#21295D;}
	.st582{fill:#31344D;}
	.st583{fill:#FCD4D1;}
	.st584{fill:#B95050;}
	.st585{fill:#FEE9E2;}
	.st586{fill:#181A2E;}
	.st587{fill:#EB9B9C;}
	.st588{fill:#F9B7B3;}
	.st589{fill:#444C86;}
	.st590{fill:#2B3367;}
	.st591{fill:#93BAE3;}
	.st592{fill:#4B80C1;}
	.st593{fill:#396CAD;}
	.st594{fill:#C0D9F1;}
	.st595{fill:#F9B4AF;}
	.st596{fill:#4E88C7;}
	.st597{fill:#195595;}
	.st598{fill:#D9475A;}
	.st599{fill:#1172BA;}
	.st600{fill:#247BBC;}
	.st601{fill:#FAA71F;}
	.st602{fill:#D55127;}
	.st603{fill:none;stroke:#212F57;stroke-width:0.925;stroke-miterlimit:10;}
	.st604{fill:#212F57;}
	.st605{opacity:0.5;fill:#838DC5;}
	.st606{fill:#F2C7BD;}
	.st607{fill:none;stroke:#212F57;stroke-width:1.2665;stroke-linecap:round;stroke-linejoin:round;stroke-miterlimit:10;}
	.st608{fill:#272A41;}
	.st609{fill:none;stroke:#E8B1C3;stroke-width:2.5241;stroke-miterlimit:10;}
	.st610{fill:#5160A5;}
	.st611{opacity:0.5;fill:#D55127;}
	.st612{opacity:0.5;fill:#DA8727;}
	.st613{opacity:0.7;}
	.st614{fill:#DA8727;}
	.st615{fill:#A3BDE3;}
	.st616{fill:#1B7A84;}
	.st617{fill:#B1D2EF;}
	.st618{fill:#F8ACAD;}
	.st619{opacity:0.63;}
	.st620{clip-path:url(#SVGID_155_);}
	.st621{fill:#D7E7F6;}
	.st622{clip-path:url(#SVGID_157_);}
	.st623{clip-path:url(#SVGID_159_);}
	.st624{clip-path:url(#SVGID_161_);}
	.st625{clip-path:url(#SVGID_163_);}
	.st626{clip-path:url(#SVGID_165_);}
	.st627{clip-path:url(#SVGID_167_);}
	.st628{clip-path:url(#SVGID_169_);}
	.st629{clip-path:url(#SVGID_171_);}
	.st630{clip-path:url(#SVGID_173_);}
	.st631{clip-path:url(#SVGID_175_);}
	.st632{clip-path:url(#SVGID_177_);}
	.st633{clip-path:url(#SVGID_179_);}
	.st634{clip-path:url(#SVGID_181_);}
	.st635{clip-path:url(#SVGID_183_);}
	.st636{clip-path:url(#SVGID_185_);}
	.st637{clip-path:url(#SVGID_187_);}
	.st638{clip-path:url(#SVGID_189_);}
	.st639{clip-path:url(#SVGID_191_);}
	.st640{clip-path:url(#SVGID_193_);}
	.st641{clip-path:url(#SVGID_195_);}
	.st642{fill:#89B2DF;}
	.st643{fill:#4377BC;}
	.st644{fill:#DA6566;}
	.st645{fill:#F58E92;}
	.st646{fill-rule:evenodd;clip-rule:evenodd;fill:#4DB5D1;}
	.st647{fill:#F15C60;}
	.st648{fill:#FFD574;}
	.st649{fill:#F2B892;}
	.st650{fill:#EB836C;}
	.st651{fill:url(#SVGID_196_);}
	.st652{fill:#222C55;}
	.st653{fill:#4551A3;}
	.st654{fill:url(#SVGID_197_);}
	.st655{fill:#0B3C5F;}
	.st656{fill:#F8A187;}
	.st657{fill:#F4B68F;}
	.st658{fill:#232850;}
	.st659{fill:#306D9E;}
	.st660{fill:#255981;}
	.st661{fill:#F69E83;}
	.st662{fill:#0B3D60;}
	.st663{opacity:0.45;fill:#89B2DF;}
	.st664{filter:url(#Adobe_OpacityMaskFilter_19_);}
	.st665{filter:url(#Adobe_OpacityMaskFilter_20_);}
	.st666{mask:url(#SVGID_198_);fill:url(#SVGID_199_);}
	.st667{opacity:0.33;fill:#AADFF3;}
	.st668{filter:url(#Adobe_OpacityMaskFilter_21_);}
	.st669{filter:url(#Adobe_OpacityMaskFilter_22_);}
	.st670{mask:url(#SVGID_200_);fill:url(#SVGID_201_);}
	.st671{filter:url(#Adobe_OpacityMaskFilter_23_);}
	.st672{filter:url(#Adobe_OpacityMaskFilter_24_);}
	.st673{mask:url(#SVGID_202_);fill:url(#SVGID_203_);}
	.st674{fill:#CFD8EE;}
	.st675{fill:#E3E6F4;}
	.st676{fill:#ABBADF;}
	.st677{fill:#C3CCE8;}
	.st678{fill:url(#SVGID_204_);}
	.st679{fill:url(#SVGID_205_);}
	.st680{fill:#D3D0E9;}
	.st681{fill:#078BBF;}
	.st682{fill:#057B97;}
	.st683{fill:url(#SVGID_206_);}
	.st684{fill:#C74534;}
	.st685{fill:#F27B66;}
	.st686{fill:#58449B;}
	.st687{fill:#6B52A2;}
	.st688{fill:#A9A6D2;}
	.st689{fill:#C4C0E0;}
	.st690{opacity:0.33;}
	.st691{opacity:0.23;fill:url(#SVGID_207_);}
	.st692{opacity:0.36;fill:url(#SVGID_208_);}
	.st693{opacity:0.36;fill:url(#SVGID_209_);}
	.st694{opacity:0.23;fill:url(#SVGID_210_);}
	.st695{fill:#D8E0F2;}
	.st696{opacity:0.36;fill:url(#SVGID_211_);}
	.st697{opacity:0.42;fill:url(#SVGID_212_);}
	.st698{fill:#F6F9FD;}
	.st699{fill:#049AC9;}
	.st700{fill:#E0E0E0;}
	.st701{fill:#EBEBEB;}
	.st702{fill:none;stroke:#F2A59D;stroke-width:0.05;stroke-miterlimit:10;}
	.st703{fill:#FAFBFB;}
	.st704{fill:#E7515B;}
	.st705{fill:#CFCFCE;}
	.st706{fill:#FBBD9D;}
	.st707{fill:#EC996F;}
	.st708{opacity:0.6;fill:#FFFFFF;}
	.st709{opacity:0.6;}
	.st710{fill:#263238;}
	.st711{fill:#455B64;}
	.st712{fill:none;stroke:#43494E;stroke-miterlimit:10;}
	.st713{fill:#F5F5F5;}
	.st714{fill:#F3725F;}
	.st715{opacity:0;}
	.st716{clip-path:url(#SVGID_214_);}
	.st717{fill:#C9D8EF;}
	.st718{clip-path:url(#SVGID_216_);}
	.st719{clip-path:url(#SVGID_218_);}
	.st720{clip-path:url(#SVGID_220_);}
	.st721{clip-path:url(#SVGID_222_);}
	.st722{clip-path:url(#SVGID_224_);}
	.st723{clip-path:url(#SVGID_226_);}
	.st724{clip-path:url(#SVGID_228_);}
	.st725{clip-path:url(#SVGID_230_);}
	.st726{clip-path:url(#SVGID_232_);}
	.st727{clip-path:url(#SVGID_234_);}
	.st728{clip-path:url(#SVGID_236_);}
	.st729{clip-path:url(#SVGID_238_);}
	.st730{clip-path:url(#SVGID_240_);}
	.st731{clip-path:url(#SVGID_242_);}
	.st732{clip-path:url(#SVGID_244_);}
	.st733{clip-path:url(#SVGID_246_);}
	.st734{clip-path:url(#SVGID_248_);}
	.st735{clip-path:url(#SVGID_250_);}
	.st736{clip-path:url(#SVGID_252_);}
	.st737{clip-path:url(#SVGID_254_);}
	.st738{fill:#59595B;}
	.st739{fill:#EDF7F7;}
	.st740{fill:#FDD247;}
	.st741{fill:#1D2040;}
	.st742{fill:url(#SVGID_255_);}
	.st743{fill:#F89A45;}
	.st744{fill:#4F2E1F;}
	.st745{fill:#AEADAD;}
	.st746{fill:#3C2116;}
	.st747{fill:#76696D;}
	.st748{fill:#DFB0B4;}
	.st749{fill:#0E4363;}
	.st750{fill:#F8F6F1;}
	.st751{fill:#A4BAE1;}
	.st752{fill:#4D1F38;}
	.st753{fill:#3A1528;}
	.st754{fill:#746875;}
	.st755{fill:#DAADD1;}
	.st756{fill:url(#SVGID_256_);}
	.st757{fill:#CD3570;}
	.st758{fill:url(#SVGID_257_);}
	.st759{fill:url(#SVGID_258_);}
	.st760{fill:#A09F9F;}
	.st761{fill:none;stroke:#FFFFFF;stroke-linecap:round;stroke-miterlimit:10;}
	.st762{fill:none;stroke:#FFFFFF;stroke-linecap:round;stroke-linejoin:round;stroke-miterlimit:10;}
	.st763{fill:none;stroke:#A09F9F;stroke-miterlimit:10;}
	.st764{fill:#7B553A;}
	.st765{fill:#5F422D;}
	.st766{fill:#FDB839;}
	.st767{fill:#401B0F;}
	.st768{fill:#034B4E;}
	.st769{opacity:0.36;}
	.st770{opacity:0.1;fill:#CFCFCE;}
	.st771{opacity:0.15;}
	.st772{fill:#FBB781;}
	.st773{fill:#49A8D5;}
	.st774{fill:#077679;}
	.st775{opacity:0.1;}
	.st776{fill:#BEE0C0;}
	.st777{opacity:0.23;fill:#245C74;}
	.st778{fill:#245C74;}
	.st779{fill:#FCC69B;}
	.st780{fill:#DBA285;}
	.st781{fill:#757576;}
	.st782{fill:#ABABAA;}
	.st783{fill:#6F6F71;}
	.st784{fill:#FFCA70;}
	.st785{fill:#FAA325;}
	.st786{fill:none;stroke:#077679;stroke-width:0.25;stroke-linecap:round;stroke-linejoin:round;stroke-miterlimit:10;}
	.st787{fill:#963A20;}
	.st788{fill:#E2E2E2;}
	.st789{fill:#18184B;}
	.st790{fill:#F8B6C9;}
	.st791{fill:#F58531;}
	.st792{fill:#759CD2;}
	.st793{fill:#BACFEB;}
</style>
<g>
	<path class="st705" d="M17.09,118.99c-4.85-0.65-9.46-2.6-13.18-5.78c-4.1-3.51-4.13-5.88-3.76-7.3
		c0.81-3.13,12.52-1.92,14.48-6.86c1.28-3.25-3.21-5.23-3.94-11.16c-0.65-5.28,1.94-11.53,6.48-13.92
		c6.47-3.39,15.38,1.84,23.18,4.36c34.02,10.97,64.14-24.22,86.43-12.4c7.9,4.19,14.2,13.95,12.72,21.51
		c-1.47,7.51-10.57,12.56-8.33,15.84c1.51,2.21,6.07,0.52,9.63,3.36c3.72,2.97,3.89,8.93,2.54,11.65
		c-3.46,7.02-20.19,1.15-54.66,2.12c-21.79,0.62-31.81,3.73-55.07,0.19C30.04,120.06,23.94,119.91,17.09,118.99z"/>
	<g>
		<path class="st738" d="M91.12,103.49c-0.22-9.11,0.34-17.24,3.14-17.92c2.21-0.54,4.51,3.85,6.29,3.14
			c3.15-1.26-1.65-16.13,1.89-17.92c1.88-0.96,4.99,5.52,7.86,4.72c2.37-0.66,1.42-5.25,5.03-10.06c2.09-2.79,6.27-6.37,9.28-5.34
			c3.3,1.13,4.97,7.73,3.46,12.89c-2.33,7.95-11.81,11.06-10.85,13.52c0.83,2.11,8,0.38,9.12,3.14c0.57,1.4-0.75,3.16-1.1,3.62
			c-4.5,5.97-16.72,3.64-16.82,4.87c-0.02,0.29,0.64,0.65,4.72,1.89c6.61,2,8.2,2.07,8.33,2.83c0.27,1.54-5.75,4.81-12.1,5.5
			C101.28,109.24,94.63,105.76,91.12,103.49z"/>
		<g>
			<path class="st760" d="M93.18,102.99c1.75-1.03,3.36-2.25,4.88-3.58c0.78-0.63,1.51-1.34,2.26-2.01
				c0.71-0.71,1.44-1.41,2.14-2.13c2.81-2.89,5.39-5.99,7.77-9.25c2.48-3.18,4.63-6.6,6.8-10.01c1.05-1.72,2.07-3.47,3.1-5.21
				c0.99-1.76,1.96-3.54,2.98-5.29c-0.82,1.85-1.7,3.68-2.55,5.53c-0.95,1.79-1.89,3.59-2.87,5.37c-2.05,3.51-4.22,6.95-6.66,10.21
				c-2.47,3.23-5.07,6.38-8.03,9.19c-0.74,0.7-1.51,1.37-2.26,2.06c-0.8,0.64-1.55,1.32-2.38,1.92
				C96.73,101.01,95.03,102.16,93.18,102.99z"/>
		</g>
	</g>
	<g>
		<path class="st1" d="M94.56,106.54c2.93-5.97,6.04-11.04,8.08-10.54c1.61,0.4,1.62,4.02,3.01,4.16
			c2.47,0.25,4.37-10.99,7.27-10.96c1.54,0.02,1.37,5.26,3.5,5.71c1.76,0.37,2.69-2.92,6.65-4.81c2.3-1.1,6.21-2.01,7.81-0.33
			c1.76,1.84,0.61,6.68-2.11,9.51c-4.19,4.36-11.38,3.17-11.58,5.09c-0.18,1.64,5.05,2.94,4.84,5.11c-0.11,1.1-1.55,1.79-1.93,1.97
			c-4.93,2.34-12.05-3.29-12.53-2.52c-0.11,0.18,0.2,0.64,2.42,2.81c3.6,3.53,4.61,4.11,4.44,4.64c-0.35,1.09-5.35,1.17-9.69-0.52
			C99.19,113.69,96.06,109.2,94.56,106.54z"/>
		<path class="st710" d="M96.06,106.91c0,0,12.05,0.61,32.02-14.15"/>
	</g>
	<path class="st705" d="M122.09,16.94c-2.24-2.02-3.98-0.96-4.9-0.43c-1.2,0.69-2,2.48-3.21,2.72c-1.02,0.19-1.67-0.93-2.77-0.64
		c-0.71,0.19-0.55,0.79-1.35,1.22c-1.18,0.65-2.1-0.24-3.15,0.39c-0.65,0.39-1.19,1.26-0.97,1.74c0.34,0.73,2.32,0.23,5.41,0.06
		c2.92-0.15,2.34,0.24,6.82,0.26c5.64,0.03,5.52-0.59,8.3-0.13c1.58,0.26,2.8,0.66,3.15,0.13c0.37-0.54-0.25-1.94-1.29-2.45
		c-1.25-0.61-2.09,0.58-4.12,0.39C123.07,20.1,123.69,18.39,122.09,16.94z"/>
	<path class="st705" d="M25.36,22.7c-2.78-2.51-4.94-1.19-6.09-0.53c-1.49,0.86-2.48,3.09-3.99,3.37c-1.27,0.24-2.07-1.15-3.44-0.8
		c-0.89,0.23-0.69,0.98-1.68,1.52c-1.47,0.81-2.61-0.3-3.92,0.48c-0.81,0.49-1.47,1.57-1.2,2.16c0.42,0.91,2.89,0.28,6.72,0.08
		c3.63-0.19,2.9,0.29,8.48,0.32c7.01,0.03,6.85-0.74,10.32-0.16c1.97,0.33,3.48,0.82,3.92,0.16c0.45-0.68-0.32-2.41-1.6-3.04
		c-1.55-0.76-2.6,0.72-5.12,0.48C26.58,26.63,27.35,24.5,25.36,22.7z"/>
	<path class="st705" d="M132.93,37.3c-1.99-1.8-3.55-0.85-4.37-0.38c-1.07,0.61-1.78,2.21-2.86,2.42c-0.91,0.17-1.49-0.83-2.47-0.57
		c-0.64,0.17-0.49,0.7-1.2,1.09c-1.05,0.58-1.87-0.22-2.81,0.34c-0.58,0.35-1.06,1.13-0.86,1.55c0.3,0.65,2.07,0.2,4.82,0.06
		c2.6-0.14,2.08,0.21,6.08,0.23c5.03,0.02,4.92-0.53,7.4-0.11c1.41,0.23,2.49,0.59,2.81,0.11c0.33-0.48-0.23-1.73-1.15-2.18
		c-1.11-0.55-1.87,0.52-3.67,0.34C133.81,40.12,134.36,38.59,132.93,37.3z"/>
	<path class="st705" d="M44.99,4.49c-1.99-1.8-3.55-0.85-4.37-0.38c-1.07,0.61-1.78,2.21-2.86,2.42c-0.91,0.17-1.49-0.83-2.47-0.57
		c-0.64,0.17-0.49,0.7-1.2,1.09c-1.05,0.58-1.87-0.22-2.81,0.34c-0.58,0.35-1.06,1.13-0.86,1.55c0.3,0.65,2.07,0.2,4.82,0.06
		c2.6-0.14,2.08,0.21,6.08,0.23c5.03,0.02,4.92-0.53,7.4-0.11c1.41,0.23,2.49,0.59,2.81,0.11c0.33-0.48-0.23-1.73-1.15-2.18
		c-1.11-0.55-1.87,0.52-3.67,0.34C45.86,7.31,46.42,5.78,44.99,4.49z"/>
	<g>
		<path class="st704" d="M115.19,64.02c0-19.27-15.52-34.92-34.74-35.13c-18.94-0.21-34.86,14.98-35.51,33.91
			c-0.44,12.77,5.95,24.07,15.78,30.57c2.36,1.56,3.83,4.15,3.83,6.98v10.42h30.57v-10.14c0-2.85,1.49-5.47,3.88-7.01
			C108.74,87.36,115.19,76.44,115.19,64.02z"/>
		<polyline class="st761" points="85.07,110.76 85.07,79.66 101.1,63.63 		"/>
		<polyline class="st761" points="74.54,110.76 74.54,79.66 58.51,63.63 		"/>
		<polyline class="st762" points="98.08,71.94 92,64.85 85.93,71.94 79.85,64.85 73.77,71.94 67.69,64.85 61.6,71.94 		"/>
		<path class="st738" d="M64.55,110.76h30.57c0,0-3.31,8.84-15.29,8.84C67.86,119.6,64.55,110.76,64.55,110.76z"/>
		<line class="st763" x1="72.77" y1="113.14" x2="86.91" y2="113.14"/>
		<line class="st763" x1="74.63" y1="115.91" x2="85.05" y2="115.91"/>
	</g>
	<g>
		<g>
			<path class="st1" d="M24.68,125.16c0.35,0,0.67-0.25,0.74-0.61l13.16-64.2c0.08-0.41-0.18-0.81-0.59-0.89
				c-0.41-0.09-0.81,0.18-0.89,0.59l-13.16,64.2c-0.08,0.41,0.18,0.81,0.59,0.89C24.58,125.16,24.63,125.16,24.68,125.16z"/>
			<path class="st738" d="M37.22,66.53h18.99c0.42,0,0.76-0.34,0.76-0.76c0-0.42-0.34-0.76-0.76-0.76H37.22
				c-0.42,0-0.76,0.34-0.76,0.76C36.47,66.19,36.8,66.53,37.22,66.53z"/>
			<path class="st738" d="M35.37,74.79h18.99c0.42,0,0.76-0.34,0.76-0.76c0-0.42-0.34-0.76-0.76-0.76H35.37
				c-0.42,0-0.76,0.34-0.76,0.76C34.61,74.45,34.95,74.79,35.37,74.79z"/>
			<path class="st738" d="M33.78,83.05h18.99c0.42,0,0.76-0.34,0.76-0.76c0-0.42-0.34-0.76-0.76-0.76H33.78
				c-0.42,0-0.76,0.34-0.76,0.76C33.02,82.71,33.36,83.05,33.78,83.05z"/>
			<path class="st738" d="M32.06,91.31h18.99c0.42,0,0.76-0.34,0.76-0.76c0-0.42-0.34-0.76-0.76-0.76H32.06
				c-0.42,0-0.76,0.34-0.76,0.76C31.3,90.97,31.64,91.31,32.06,91.31z"/>
			<path class="st738" d="M30.44,99.57h18.99c0.42,0,0.76-0.34,0.76-0.76c0-0.42-0.34-0.76-0.76-0.76H30.44
				c-0.42,0-0.76,0.34-0.76,0.76C29.68,99.23,30.02,99.57,30.44,99.57z"/>
			<path class="st738" d="M28.83,107.82h18.99c0.42,0,0.76-0.34,0.76-0.76c0-0.42-0.34-0.76-0.76-0.76H28.83
				c-0.42,0-0.76,0.34-0.76,0.76C28.07,107.48,28.41,107.82,28.83,107.82z"/>
			<path class="st738" d="M27.18,116.08h18.99c0.42,0,0.76-0.34,0.76-0.76c0-0.42-0.34-0.76-0.76-0.76H27.18
				c-0.42,0-0.76,0.34-0.76,0.76C26.43,115.74,26.77,116.08,27.18,116.08z"/>
			<path class="st1" d="M45,125.16c0.35,0,0.67-0.25,0.74-0.61l13.16-64.2c0.08-0.41-0.18-0.81-0.59-0.89
				c-0.41-0.09-0.81,0.18-0.89,0.59l-13.16,64.2c-0.08,0.41,0.18,0.81,0.59,0.89C44.9,125.16,44.95,125.16,45,125.16z"/>
		</g>
	</g>
	<g>
		<g>
			<g>
				<g>
					<g>
						<path class="st764" d="M39.55,48.81c0,0,0.59,1.61-2.05,4.23c-2.64,2.62-5.7,4.07-5.7,4.07l7.69,7.5l-0.8,0.85
							c0,0-10.06-5.93-9.95-8.25C28.83,54.91,38.07,43.92,39.55,48.81z"/>
						<g>
							<path class="st765" d="M31.64,60.7c0.84,0.67,1.77,1.35,2.68,1.97l1.54-0.07l-0.05-1.57l-3.29-3.21L31.64,60.7z"/>
							<path class="st765" d="M35.2,48.95l-2.29,7.57c0.71-0.41,1.68-1.03,2.71-1.83l-0.17-5.92C35.36,48.82,35.28,48.88,35.2,48.95
								z"/>
						</g>
					</g>
					<g>
						<path class="st766" d="M43.96,95.59c0,0,4.54,2.31,6,2.28s0.4,0.63-1.19,0.83c-1.59,0.2-2.44-0.13-3.42-0.33
							c-0.98-0.2-2.19-0.69-3.08-1.32c-0.01-0.01-0.02-0.01-0.03-0.02c-0.6-0.44-0.61-1.39,0.13-1.41L43.96,95.59z"/>
						<polygon class="st738" points="43.96,95.59 43.86,94.4 42.28,94.53 42.37,95.63 						"/>
						<path class="st738" d="M43.96,95.59c0,0,0.88,0.43,2.8,1.3c1.81,0.82,0.45,0.77-0.54,0.54c-2.07-0.48-3.85-1.8-3.85-1.8
							L43.96,95.59z"/>
						<path class="st738" d="M41.31,59.73l-5.2,1.29c0,0,1.76,14.13,5.35,18.43c0,0-0.05,13.82,0.91,16.19l1.59-0.04
							c0,0,1.53-13.97,1.86-16.04C46.22,77.07,44.52,72.22,41.31,59.73z"/>
					</g>
					<g>
						<path class="st767" d="M41,38.77c0,0-5.71-0.37-1.47,6.95c0,0,1.41,0.43,3.61-0.59c0,0-1.37,0.06-1.79-3.46L41,38.77z"/>
						<path class="st764" d="M41.38,39.34c1.16,1.07,1.67,3.11,0.8,4.46c-0.9,1.39-2.82,1.33-4.06,0.24c-1.1-0.96-1.66-2.72-1.14-4
							C37.65,38.37,39.93,38,41.38,39.34z"/>
						<path class="st764" d="M39.53,41.08l-2.7-0.15l-0.35,6.54c-0.05,0.94,0.67,1.74,1.6,1.79l0,0c1.01,0.05,1.84-0.78,1.79-1.78
							L39.53,41.08z"/>
						<path class="st767" d="M39.63,38.75c0,0,0.49,4.19-3.23,4.31c-2.6,0.08-1.16-6.5,2.36-5.89c4.95,0.86,3.48,3.37,3.48,3.37
							S41.47,38.68,39.63,38.75z"/>
						<path class="st767" d="M37.95,37.16c0,0-5.69,0.07-3.42,8.22c0,0,1.26,0.77,3.64,0.34c0,0-1.34-0.28-0.86-3.8L37.95,37.16z"/>
						<path class="st3" d="M36.96,43.15c0.1,0.25,0.39,0.37,0.64,0.26c0.25-0.1,0.37-0.39,0.26-0.64c-0.1-0.25-0.39-0.37-0.64-0.26
							C36.97,42.61,36.85,42.9,36.96,43.15z"/>
						<polygon class="st765" points="39.75,45.37 37.95,44.08 39.73,44.8 						"/>
						<g>
							<path class="st766" d="M35.07,41.12c-0.43-0.92-0.22-2.11,0.52-2.92c0.38-0.38,0.85-0.7,1.36-0.81
								c0.5-0.14,1.02-0.11,1.51,0.03c-0.44,0.27-0.85,0.45-1.21,0.69c-0.37,0.22-0.66,0.48-0.93,0.76
								C35.78,39.44,35.44,40.19,35.07,41.12z"/>
						</g>
					</g>
					<g>
						<path class="st766" d="M23.65,92.89c0,0,2.7,4.31,3.98,5.04c1.27,0.73,0.02,0.75-1.45,0.1c-1.47-0.65-2.03-1.37-2.76-2.04
							c-0.74-0.68-1.53-1.72-1.97-2.72c0-0.01-0.01-0.02-0.01-0.03c-0.29-0.69,0.19-1.5,0.84-1.14L23.65,92.89z"/>
						<polygon class="st764" points="23.65,92.89 24.78,91.34 22.76,91.11 22.27,92.1 						"/>
						<path class="st764" d="M23.65,92.89c0,0,0.53,0.82,1.73,2.55c1.13,1.63-0.01,0.89-0.74,0.18c-1.53-1.48-2.38-3.52-2.38-3.52
							L23.65,92.89z"/>
					</g>
					<path class="st738" d="M41.62,61.83l-7.37-2.01c0,0-2.79,12.68-2.19,18.25c0,0-8.16,9.18-9.39,13.35l1.31,0.83
						c0,0,10.18-9.03,11.61-10.56C37.29,79.84,40.61,73.69,41.62,61.83z"/>
					<path class="st768" d="M44.4,71.38l-10.24-2.2c0,0-0.73,0.43-1.73,1.08c-0.25,1.99-0.44,3.98-0.46,5.67
						c8.67-1.22,11.71-3.48,12.51-4.23C44.46,71.59,44.43,71.49,44.4,71.38z"/>
					<g class="st769">
						<polygon class="st212" points="42.77,67.59 34.52,70.76 32.62,68.25 						"/>
					</g>
					<polygon class="st3" points="41.37,53.6 43.5,67.53 35.85,68.16 37.62,51.3 					"/>
					<path class="st705" d="M40.74,47.77c-0.17-0.74-0.7-1.34-1.41-1.6c-1.53-0.56-4.09-0.68-4.92,4.28
						C33.38,56.68,31,73.18,31,73.18s9.23,2.03,15.24-1.83L40.74,47.77z"/>
					<path class="st764" d="M55.1,46.57c0,0,1.67-3.59,2.46-4.34c0.79-0.75,0.1,1.06,0.1,1.06l-1.64,3.62L55.1,46.57z"/>
					<path class="st764" d="M37.35,47.51c0,0,1.89-0.6,4.81,2.59c2.92,3.19,4.97,4.86,4.97,4.86l7.84-8.05l1.5,2.16
						c0,0-7,10.17-9.68,9.94C44.1,58.77,31.6,48.99,37.35,47.51z"/>
					<path class="st764" d="M56.47,49.07c0,0,2.38-2.01,2-3.51c-0.4-1.57-1.79-1.51-2.04-1.24c-0.08,0.09-0.22,0.26-0.37,0.45
						c-0.43,0.56-0.77,1.19-0.99,1.85l-0.1,0.3L56.47,49.07z"/>
				</g>
			</g>
			<path class="st764" d="M41.98,40.24c0,0,0.63,1.02,1.25,1.32c0,0-0.26,0.55-0.81,0.73L41.98,40.24z"/>
		</g>
		<line class="st3" x1="40.84" y1="46.91" x2="40.22" y2="44.73"/>
		<polygon class="st3" points="40.54,47.93 39.93,45.75 36.55,45.32 36.55,46.46 		"/>
	</g>
	<g>
		<g>
			<path class="st705" d="M89.67,11.76c0,0-2.19-1.98-4.86,2c-2.67,3.98-4.42,5.86-4.42,5.86l-10.15-5.59l-1.06,2.16
				c0,0,9.14,10.46,12.05,9.75C84.13,25.24,96.23,12.43,89.67,11.76z"/>
			<path class="st705" d="M69.24,16.26c0,0-4.92-3.78-2.57-3.12c1.06,0.3,2,1.11,2.37,0.78c0.37-0.33-0.41-0.63-0.55-1.35
				c-0.12-0.65,2.19,1.8,2.19,1.8L69.24,16.26z"/>
			<polygon class="st770" points="72.67,17.3 76.88,21.23 72.12,19 			"/>
			<g>
				<polygon class="st738" points="80.06,23.46 85.13,18.87 85.13,20.08 82.59,24.14 				"/>
			</g>
			<polygon class="st705" points="68.62,16.19 69.66,16.98 71.6,14.61 70.55,13.82 			"/>
		</g>
		<g class="st771">
			<path class="st212" d="M82.59,33.97c0,0-0.71,12.95-6.29,16.12V32.8L82.59,33.97z"/>
		</g>
		<g>
			<path class="st1" d="M91.82,22.45l0.98,4.43c0.51,2.9-1.58,5.61-4.52,5.84c-2.46,0.19-5.95,0.53-10.88,1.11
				c0,0,1.15,9.48-2.43,16.85h-1.48c0,0-0.73-22.62,1.43-23.57C79.18,25.23,82.31,23.8,91.82,22.45z"/>
			<path class="st738" d="M76.3,28.39c0,0,0.69-1.7,5.96-2.96l1.61,4.29L76.3,28.39z"/>
			<g>
				<g>
					<polygon class="st772" points="72.96,52.13 72.85,50.22 76.01,50.9 76.1,51.83 					"/>
					<path class="st773" d="M72.94,51.86c0,0-2.19,1.62-3.81,2.94c-1.3,1.06-1.36,1.76,0.42,1.45c2.28-0.4,4.98-0.92,6.56-1.46
						c1.07-0.36,0.16-2.87-0.11-3.28L72.94,51.86z"/>
				</g>
				<path class="st774" d="M68.22,56.13c1.97-0.42,6.09-1.32,7.13-1.77c0.61-0.27,1-0.62,1.24-0.94c0.07,0.63-0.02,1.2-0.48,1.36
					c-1.58,0.54-4.28,1.07-6.56,1.46C68.78,56.38,68.35,56.33,68.22,56.13z"/>
			</g>
			<rect x="72.4" y="49.74" class="st774" width="4.62" height="1.44"/>
		</g>
		<path class="st705" d="M87.56,10.16c1.7-0.62,6.5-1.03,7.24,3.07c0.68,3.75-0.75,7.01-1.31,9.67c-0.4,1.9-0.61,4.75-0.61,4.75
			s-3.15,3.72-9,2.05l0.38-6.37l0.4-3.53c-0.32-4-0.23-4.49,0.48-6.51c0.3-0.84,1.39-2.65,2.19-3.05
			C87.4,10.23,87.48,10.19,87.56,10.16z"/>
		<polygon class="st3" points="87.87,11.22 88.44,9.04 91.6,8.62 91.6,9.75 		"/>
		<path class="st772" d="M89.07,3.51l3.05-0.02l-0.37,6.35c-0.01,0.19-0.09,0.37-0.22,0.53c-1.45,1.66-2.31,0.46-2.31,0.46
			c-1.03-0.25-0.28-0.71-0.13-1.87L89.07,3.51z"/>
		<path class="st772" d="M88.68,2.08c-1.48,1.86-1.65,3.49-1.6,5.19c0.06,2.15,2.93,2.18,4.75,1.05c1.62-1,2.38-2.85,1.98-4.61
			C93.3,1.43,90.28,0.07,88.68,2.08z"/>
		<g class="st775">
			<polygon class="st212" points="88.89,9.64 90.58,8.89 88.98,9.06 			"/>
		</g>
		<path class="st772" d="M87.7,4.13c0,0-0.62,0.5-1.25,1.32c0,0,0.26,0.55,0.81,0.73L87.7,4.13z"/>
		<polygon class="st3" points="88.15,12.24 88.72,10.06 91.87,9.64 91.87,10.77 		"/>
		<g>
			<g>
				<g>
					<polygon class="st1" points="75.26,53.58 75.15,51.67 78.31,52.34 78.4,53.28 					"/>
					<path class="st773" d="M75.25,53.31c0,0-2.19,1.62-3.81,2.94c-1.3,1.06-1.36,1.76,0.42,1.45c2.28-0.4,4.98-0.92,6.56-1.46
						c1.07-0.36,0.16-2.87-0.11-3.28L75.25,53.31z"/>
				</g>
				<path class="st774" d="M70.53,57.58c1.97-0.42,6.09-1.32,7.13-1.77c0.61-0.27,1-0.62,1.24-0.94c0.07,0.63-0.02,1.2-0.48,1.36
					c-1.58,0.54-4.28,1.07-6.56,1.46C71.09,57.83,70.66,57.77,70.53,57.58z"/>
			</g>
			<path class="st1" d="M93.28,24.1l-0.08,3.85c0.16,3.49-0.55,5.57-3.49,5.8c-2.46,0.19-4.4,0.96-9.33,1.54
				c0,0,0.11,9.35-1.57,17.13l-3.87-0.09c0,0-0.6-23.51,1.66-24.2C81.34,26.67,83.12,25.57,93.28,24.1z"/>
			<rect x="74.7" y="51.19" class="st1" width="4.62" height="1.44"/>
		</g>
		<path class="st767" d="M94.14,3.37c-0.11-2.94-5.45-3.72-6.06-3.24c-1.19,0.93,0.01,2.79,0.01,2.79l0.25-0.19
			c0.04-0.02,0.09-0.04,0.14-0.06c0.75,0.11,3.38,0.65,2.57,2.72c-0.2,0.52,0.24,0.76,0.78,0.79c0.05,0.63,0.04,1.3-0.06,1.98
			C91.7,8.64,94.32,8.14,94.14,3.37z"/>
		<g>
			<path class="st768" d="M72.88,19.82l-0.72,0.82l-9.91-8.77c-0.26-0.23-0.28-0.62-0.05-0.88l0.31-0.35L72.88,19.82z"/>
			<path class="st776" d="M72.44,16.86c0.3,0.26,0.46,0.64,0.46,1.03l-0.02,1.93L62.5,10.64l2.99,0.46
				c0.35,0.05,0.68,0.21,0.94,0.44L72.44,16.86z"/>
		</g>
		<g>
			<path class="st705" d="M90.48,12.92c0,0-1.98-0.47-4.14,3.81c-2.16,4.28-3.29,5.42-3.29,5.42l-10.18-4.49l-1.77,2.3
				c0,0,10.89,9.29,13.43,7.72C89.28,24.74,97.07,12.77,90.48,12.92z"/>
			<path class="st705" d="M71.11,19.96c0,0-2.33,0.19-2.87-1.19c-0.35-0.88-1.59-2.84-0.37-1.93c0.77,0.57,1.82,1.63,2.14,1.18
				c0.31-0.43-1.3-0.6-0.89-1.45l2.73,1.53L71.11,19.96z"/>
		</g>
		<path class="st705" d="M86.97,15.6c0,0,4.34,2.04,5.4,3.9c0,0,2.74-6-0.06-7.57C88.72,9.92,86.97,15.6,86.97,15.6z"/>
		<polygon class="st3" points="70.31,20.54 71.47,21.15 73.4,17.72 72.24,17.12 		"/>
		<path class="st772" d="M90.1,6.58c0.24,0.35,0.84,0.37,1.35,0.03c0.51-0.34,0.73-0.9,0.5-1.25C91.71,5,91.11,4.99,90.6,5.33
			C90.09,5.66,89.87,6.23,90.1,6.58z"/>
		<path class="st767" d="M87.1,6.11c0,0,3.02,1.29,4.95,0l0.59,1.86c0,0-2.81,2.15-5.21,1.29C85.02,8.4,87.1,6.11,87.1,6.11z"/>
	</g>
</g>
</svg>
