<?xml version="1.0" encoding="utf-8"?>
<!-- Generator: Adobe Illustrator 25.3.1, SVG Export Plug-In . SVG Version: 6.00 Build 0)  -->
<svg version="1.1" id="Layer_1" xmlns="http://www.w3.org/2000/svg" xmlns:xlink="http://www.w3.org/1999/xlink" x="0px" y="0px"
	 viewBox="0 0 136.02 118.74" style="enable-background:new 0 0 136.02 118.74;" xml:space="preserve">
<style type="text/css">
	.st0{fill:#24487F;}
	.st1{fill:#8E8E8E;}
	.st2{fill:#FFFFFF;stroke:#8E8E8E;stroke-linecap:round;stroke-miterlimit:10;}
	.st3{fill:#FFFFFF;}
	.st4{fill:#4DB5D1;}
	.st5{fill:#60934D;}
	.st6{fill:#FFFFFF;stroke:#5F934D;stroke-linecap:round;stroke-miterlimit:10;}
	.st7{fill:#23497F;}
	.st8{fill:#FFFFFF;stroke:#23497F;stroke-linecap:round;stroke-miterlimit:10;}
	.st9{fill:url(#SVGID_1_);}
	.st10{fill:url(#SVGID_2_);}
	.st11{fill:url(#SVGID_3_);}
	.st12{fill:url(#SVGID_4_);}
	.st13{fill:#397BBF;}
	.st14{fill:#1466B1;}
	.st15{fill:#054F8C;}
	.st16{fill:url(#SVGID_5_);}
	.st17{fill:#EFA986;}
	.st18{fill:#152B3D;}
	.st19{fill:#62A9DC;}
	.st20{fill:#977332;}
	.st21{fill:#264480;}
	.st22{fill:#363B3D;}
	.st23{fill:#E45354;}
	.st24{fill:#F5F6F6;}
	.st25{fill:#1A5A8D;}
	.st26{fill:#2274B5;}
	.st27{fill:#3A88C8;}
	.st28{fill:#E3F3FC;}
	.st29{fill:#C5CCD1;}
	.st30{fill:#2A2C47;}
	.st31{fill:#E2D2CA;}
	.st32{fill:#434873;}
	.st33{fill:#3B4048;}
	.st34{fill:#323757;}
	.st35{fill:#81A358;}
	.st36{fill:#71A341;}
	.st37{fill:#618A3C;}
	.st38{fill:#87BD43;}
	.st39{fill:#7BA840;}
	.st40{fill:#70A341;}
	.st41{fill:#6A943E;}
	.st42{fill:#B2CF43;}
	.st43{fill:#9FB34D;}
	.st44{fill:url(#SVGID_6_);}
	.st45{filter:url(#Adobe_OpacityMaskFilter);}
	.st46{filter:url(#Adobe_OpacityMaskFilter_1_);}
	.st47{mask:url(#SVGID_7_);fill:url(#SVGID_8_);}
	.st48{fill:url(#SVGID_9_);}
	.st49{fill:#464443;}
	.st50{fill:#928783;}
	.st51{fill:#1D3C55;}
	.st52{fill:#152C3D;}
	.st53{fill:#A77961;}
	.st54{fill:#D8E9F7;}
	.st55{fill:#BFB2AC;}
	.st56{fill:#FED1A2;}
	.st57{fill:#B37953;}
	.st58{fill:#D6995E;}
	.st59{fill:#807167;}
	.st60{fill:#6E6760;}
	.st61{fill:#928880;}
	.st62{fill:#BC8552;}
	.st63{filter:url(#Adobe_OpacityMaskFilter_2_);}
	.st64{filter:url(#Adobe_OpacityMaskFilter_3_);}
	.st65{mask:url(#SVGID_10_);fill:url(#SVGID_11_);}
	.st66{fill:url(#SVGID_12_);}
	.st67{filter:url(#Adobe_OpacityMaskFilter_4_);}
	.st68{filter:url(#Adobe_OpacityMaskFilter_5_);}
	.st69{mask:url(#SVGID_13_);fill:url(#SVGID_14_);}
	.st70{fill:url(#SVGID_15_);}
	.st71{fill:#C3C8E5;}
	.st72{opacity:0.3;}
	.st73{fill:#F4F6FB;}
	.st74{fill:#E8E8F2;}
	.st75{fill:#D7D6E6;}
	.st76{fill:#F3F4F7;}
	.st77{fill:#FCFDFD;}
	.st78{filter:url(#Adobe_OpacityMaskFilter_6_);}
	.st79{mask:url(#SVGID_16_);}
	.st80{fill:#3F54A5;}
	.st81{fill:#A5A7D4;}
	.st82{fill:#B4BBDF;}
	.st83{fill:url(#SVGID_17_);}
	.st84{fill:#CED0E4;}
	.st85{fill:#EDF0F9;}
	.st86{opacity:0.5;fill:#CFD2D3;}
	.st87{opacity:0.5;fill:#A5A7AA;}
	.st88{fill:#332566;}
	.st89{fill:#FAAE42;}
	.st90{fill:#DFDFDE;}
	.st91{fill:#F6C6B1;}
	.st92{fill:#E8B8A9;}
	.st93{fill:#3D4592;}
	.st94{fill:url(#SVGID_18_);}
	.st95{fill:url(#SVGID_19_);}
	.st96{fill:url(#SVGID_20_);}
	.st97{fill:#112F41;}
	.st98{opacity:0.5;fill:#BDBCD8;}
	.st99{opacity:0.2;fill:#ED5B2A;}
	.st100{fill-rule:evenodd;clip-rule:evenodd;fill:#3E55A5;}
	.st101{fill:#2C1C28;}
	.st102{fill:#EE7762;}
	.st103{opacity:0.25;fill:#ED5B2A;}
	.st104{fill:#CD3046;}
	.st105{fill:#282B70;}
	.st106{fill:url(#SVGID_21_);}
	.st107{fill:url(#SVGID_22_);}
	.st108{fill:#212B46;}
	.st109{fill:#D2D2E9;}
	.st110{fill:#8F95CA;}
	.st111{fill:#BDBCD8;}
	.st112{fill:#F2F7F6;}
	.st113{fill:#C9C8DF;}
	.st114{fill:#E3E3EE;}
	.st115{fill:#FAF0F7;}
	.st116{fill:#FFFCFD;}
	.st117{fill:#E4A28B;}
	.st118{opacity:0.05;fill:#010101;}
	.st119{fill:#D9DDEC;}
	.st120{fill:#C6CBE7;}
	.st121{fill:#8A97CC;}
	.st122{fill:#DFE4F3;}
	.st123{fill:#D5A393;}
	.st124{fill:#182540;}
	.st125{fill:url(#SVGID_23_);}
	.st126{fill:#F1A993;}
	.st127{fill:#687094;}
	.st128{fill:#D7DBEF;}
	.st129{fill:#F4F4F8;}
	.st130{fill:#B2B9DE;}
	.st131{fill:#4D60AC;}
	.st132{fill:#8E97CB;}
	.st133{fill:#BCC6E5;}
	.st134{fill:#AAB9DF;}
	.st135{fill:#FFFBFD;}
	.st136{fill:#34479E;}
	.st137{opacity:0.2;}
	.st138{fill:#60848C;}
	.st139{fill:url(#SVGID_24_);}
	.st140{fill:#F36E5C;}
	.st141{fill:#85BEE7;}
	.st142{fill:#908F8F;}
	.st143{fill:#F1F0F0;}
	.st144{fill:url(#SVGID_25_);}
	.st145{fill:#CCCCCC;}
	.st146{fill:#F6F7FB;}
	.st147{fill:#E6E6E5;}
	.st148{fill:#F3F3F3;}
	.st149{fill:#EFF0F7;}
	.st150{fill:url(#SVGID_26_);}
	.st151{fill:url(#SVGID_27_);}
	.st152{fill:url(#SVGID_28_);}
	.st153{fill:url(#SVGID_29_);}
	.st154{fill:url(#SVGID_30_);}
	.st155{fill:url(#SVGID_31_);}
	.st156{fill:#3D426A;}
	.st157{fill:#252840;}
	.st158{fill:#C4B4AF;}
	.st159{fill:#EA4747;}
	.st160{fill:#6B7BBC;}
	.st161{fill:#5266AF;}
	.st162{fill:#5062AD;}
	.st163{fill:#EDDAD3;}
	.st164{fill:#DECDC7;}
	.st165{fill:#E3D1CA;}
	.st166{fill:#B39595;}
	.st167{fill:#DBB8B8;}
	.st168{fill:#F1CCCB;}
	.st169{fill:#323538;}
	.st170{fill:#EFAA88;}
	.st171{fill:#1D2133;}
	.st172{fill:#EFAA87;}
	.st173{fill:#D88A51;}
	.st174{fill:#C68D71;}
	.st175{fill:#A19FA7;}
	.st176{fill:#EAE6F1;}
	.st177{fill:#3B4167;}
	.st178{fill:#DE9674;}
	.st179{fill:#764937;}
	.st180{fill:#5D554E;}
	.st181{fill:#3D4246;}
	.st182{fill:#FFD356;}
	.st183{fill:url(#SVGID_32_);}
	.st184{fill:url(#SVGID_33_);}
	.st185{fill:url(#SVGID_34_);}
	.st186{fill:url(#SVGID_35_);}
	.st187{fill:url(#SVGID_36_);}
	.st188{fill:url(#SVGID_37_);}
	.st189{opacity:0.5;}
	.st190{fill:#FCEACF;}
	.st191{opacity:0.8;}
	.st192{fill:#D4EEF6;}
	.st193{fill:#3AA1C9;}
	.st194{fill:#3F9896;}
	.st195{fill:#7FC6A6;}
	.st196{fill:#DEF2FD;}
	.st197{fill:#223849;}
	.st198{fill:#B4E3F7;}
	.st199{fill:#F89F74;}
	.st200{fill:#E33F3E;}
	.st201{fill:#482B32;}
	.st202{fill:#D8E4F4;}
	.st203{fill:#683E47;}
	.st204{fill:#3788BA;}
	.st205{fill:#22131E;}
	.st206{fill:#FAB59D;}
	.st207{fill:#CC2327;}
	.st208{fill:#E2F3F1;}
	.st209{fill:#F07163;}
	.st210{fill:#49273F;}
	.st211{fill:#4C232E;}
	.st212{fill:#010101;}
	.st213{fill:#F7956E;}
	.st214{fill:#F68D64;}
	.st215{fill:#F27584;}
	.st216{fill:#4EB8D9;}
	.st217{fill:#EF4751;}
	.st218{fill:#ACC7E8;}
	.st219{fill:#268E8D;}
	.st220{fill:#3A1F33;}
	.st221{fill:#FECC87;}
	.st222{fill:#FBB359;}
	.st223{fill:#331A2C;}
	.st224{fill:#FDC886;}
	.st225{fill:#F7934B;}
	.st226{fill:#F04D65;}
	.st227{fill:#F6D6B2;}
	.st228{fill:#61A3C5;}
	.st229{fill:#B1D89B;}
	.st230{fill:#A8C8E5;}
	.st231{fill:#C1D1EC;}
	.st232{fill:#F2AC40;}
	.st233{fill:#3B57A6;}
	.st234{fill:#C2D5EE;}
	.st235{fill:#A9C4E6;}
	.st236{fill:#2D572A;}
	.st237{fill:#274392;}
	.st238{fill:#95B0DB;}
	.st239{fill:#BFBFBF;}
	.st240{fill:#E9F3FB;}
	.st241{fill:#6B81C0;}
	.st242{fill:#8FB1DD;}
	.st243{fill:#F58765;}
	.st244{fill:#2C1913;}
	.st245{fill:#6A3F31;}
	.st246{fill:#F37559;}
	.st247{fill:#F47A55;}
	.st248{fill:#E0B3A8;}
	.st249{fill:#D9D9D9;}
	.st250{fill:#C6DD74;}
	.st251{fill:#9FCB5F;}
	.st252{fill:#7C9D48;}
	.st253{fill:#E7E7E7;}
	.st254{fill:#F2C791;}
	.st255{fill:#B7B7B7;}
	.st256{fill:#7595CD;}
	.st257{fill:#FAB18D;}
	.st258{fill:#F6977C;}
	.st259{fill:#D1E28C;}
	.st260{fill:none;}
	.st261{fill:#1B1B1C;}
	.st262{fill:#F47E46;}
	.st263{fill:#EB6828;}
	.st264{fill:#F79668;}
	.st265{fill:#E6B54E;}
	.st266{fill:#676767;}
	.st267{fill:#4D4C4C;}
	.st268{fill:#F27070;}
	.st269{fill:#C24D4D;}
	.st270{enable-background:new    ;}
	.st271{fill:#C39B6A;}
	.st272{fill:#C9A475;}
	.st273{fill:#E6B880;}
	.st274{fill:#9F3D3E;}
	.st275{fill:#FFD679;}
	.st276{fill:#F4805D;}
	.st277{fill:#DA5958;}
	.st278{fill:#7D3D20;}
	.st279{fill:#562915;}
	.st280{fill:#B15931;}
	.st281{fill:#5076BA;}
	.st282{fill:#59ADC0;}
	.st283{fill:#099895;}
	.st284{fill:#F5AE87;}
	.st285{fill:#D9504F;}
	.st286{fill:#FCC79A;}
	.st287{fill:#FFDC7B;}
	.st288{fill:#F15958;}
	.st289{fill:#674E46;}
	.st290{fill:#785D51;}
	.st291{clip-path:url(#SVGID_39_);fill:#60934D;}
	.st292{clip-path:url(#SVGID_39_);}
	.st293{fill:#BD725F;}
	.st294{fill:#E6F1D1;}
	.st295{fill:#A86046;}
	.st296{fill:#3C251D;}
	.st297{fill:#4A413F;}
	.st298{fill:#716765;}
	.st299{fill:#EEBD7F;}
	.st300{fill:#7DA594;}
	.st301{fill:#252433;}
	.st302{fill:#F7E6C7;}
	.st303{fill:#E79F90;}
	.st304{fill:#CC4A38;}
	.st305{fill:#333333;}
	.st306{fill:#E1755E;}
	.st307{fill:#E8A180;}
	.st308{fill:#694136;}
	.st309{fill:#C06360;}
	.st310{fill:#CD5A5A;}
	.st311{fill:#E17660;}
	.st312{opacity:0.42;}
	.st313{fill-rule:evenodd;clip-rule:evenodd;fill:#B1D89B;}
	.st314{clip-path:url(#SVGID_41_);fill:#92B779;}
	.st315{clip-path:url(#SVGID_43_);fill:url(#SVGID_44_);}
	.st316{fill-rule:evenodd;clip-rule:evenodd;fill:#60934D;}
	.st317{clip-path:url(#SVGID_46_);fill:url(#SVGID_47_);}
	.st318{fill-rule:evenodd;clip-rule:evenodd;fill:#274CA1;}
	.st319{clip-path:url(#SVGID_49_);fill:url(#SVGID_50_);}
	.st320{clip-path:url(#SVGID_52_);fill:url(#SVGID_53_);}
	.st321{fill-rule:evenodd;clip-rule:evenodd;fill:#F3AF8F;}
	.st322{fill-rule:evenodd;clip-rule:evenodd;fill:#6E2D5F;}
	.st323{fill-rule:evenodd;clip-rule:evenodd;fill:#4D1942;}
	.st324{fill-rule:evenodd;clip-rule:evenodd;fill:#101841;}
	.st325{fill-rule:evenodd;clip-rule:evenodd;fill:#144984;}
	.st326{fill-rule:evenodd;clip-rule:evenodd;fill:#35AD82;}
	.st327{fill-rule:evenodd;clip-rule:evenodd;fill:#198C67;}
	.st328{fill-rule:evenodd;clip-rule:evenodd;fill:#F6C1C5;}
	.st329{fill-rule:evenodd;clip-rule:evenodd;fill:#53B9E9;}
	.st330{fill-rule:evenodd;clip-rule:evenodd;fill:#7DD3F7;}
	.st331{clip-path:url(#SVGID_55_);fill:url(#SVGID_56_);}
	.st332{clip-path:url(#SVGID_58_);fill:url(#SVGID_59_);}
	.st333{fill-rule:evenodd;clip-rule:evenodd;fill:#3DB4E8;}
	.st334{clip-path:url(#SVGID_61_);fill:url(#SVGID_62_);}
	.st335{fill-rule:evenodd;clip-rule:evenodd;fill:#F4FBFE;}
	.st336{fill-rule:evenodd;clip-rule:evenodd;fill:#F4B1B1;}
	.st337{fill-rule:evenodd;clip-rule:evenodd;fill:#D4EAD8;}
	.st338{fill-rule:evenodd;clip-rule:evenodd;fill:#E16C6C;}
	.st339{clip-path:url(#SVGID_64_);fill:url(#SVGID_65_);}
	.st340{clip-path:url(#SVGID_67_);fill:url(#SVGID_68_);}
	.st341{clip-path:url(#SVGID_70_);fill:url(#SVGID_71_);}
	.st342{clip-path:url(#SVGID_73_);fill:url(#SVGID_74_);}
	.st343{clip-path:url(#SVGID_76_);fill:url(#SVGID_77_);}
	.st344{fill-rule:evenodd;clip-rule:evenodd;fill:#316CB5;}
	.st345{clip-path:url(#SVGID_79_);fill:url(#SVGID_80_);}
	.st346{fill-rule:evenodd;clip-rule:evenodd;fill:#DF5D7B;}
	.st347{clip-path:url(#SVGID_82_);fill:url(#SVGID_83_);}
	.st348{fill-rule:evenodd;clip-rule:evenodd;fill:#2D572A;}
	.st349{clip-path:url(#SVGID_85_);fill:#60934D;}
	.st350{clip-path:url(#SVGID_87_);fill:url(#SVGID_88_);}
	.st351{clip-path:url(#SVGID_90_);fill:url(#SVGID_91_);}
	.st352{clip-path:url(#SVGID_93_);fill:url(#SVGID_94_);}
	.st353{fill:url(#SVGID_95_);}
	.st354{filter:url(#Adobe_OpacityMaskFilter_7_);}
	.st355{filter:url(#Adobe_OpacityMaskFilter_8_);}
	.st356{mask:url(#SVGID_96_);fill:url(#SVGID_97_);}
	.st357{fill:url(#SVGID_98_);}
	.st358{fill:none;stroke:#FFFFFF;stroke-miterlimit:10;}
	.st359{fill:url(#SVGID_99_);}
	.st360{filter:url(#Adobe_OpacityMaskFilter_9_);}
	.st361{filter:url(#Adobe_OpacityMaskFilter_10_);}
	.st362{mask:url(#SVGID_100_);fill:url(#SVGID_101_);}
	.st363{fill:url(#SVGID_102_);}
	.st364{fill:url(#SVGID_103_);}
	.st365{filter:url(#Adobe_OpacityMaskFilter_11_);}
	.st366{filter:url(#Adobe_OpacityMaskFilter_12_);}
	.st367{mask:url(#SVGID_104_);fill:url(#SVGID_105_);}
	.st368{fill:url(#SVGID_106_);}
	.st369{fill:url(#SVGID_107_);}
	.st370{filter:url(#Adobe_OpacityMaskFilter_13_);}
	.st371{filter:url(#Adobe_OpacityMaskFilter_14_);}
	.st372{mask:url(#SVGID_108_);fill:url(#SVGID_109_);}
	.st373{fill:url(#SVGID_110_);}
	.st374{fill:url(#SVGID_111_);}
	.st375{fill:url(#SVGID_112_);}
	.st376{fill:url(#SVGID_113_);}
	.st377{fill:url(#SVGID_114_);}
	.st378{fill:url(#SVGID_115_);}
	.st379{fill:url(#SVGID_116_);}
	.st380{fill:#FBC5B4;}
	.st381{fill:url(#SVGID_117_);}
	.st382{fill:url(#SVGID_118_);}
	.st383{filter:url(#Adobe_OpacityMaskFilter_15_);}
	.st384{filter:url(#Adobe_OpacityMaskFilter_16_);}
	.st385{mask:url(#SVGID_119_);fill:url(#SVGID_120_);}
	.st386{fill:url(#SVGID_121_);}
	.st387{fill:url(#SVGID_122_);}
	.st388{filter:url(#Adobe_OpacityMaskFilter_17_);}
	.st389{filter:url(#Adobe_OpacityMaskFilter_18_);}
	.st390{mask:url(#SVGID_123_);fill:url(#SVGID_124_);}
	.st391{fill:url(#SVGID_125_);}
	.st392{fill:url(#SVGID_126_);}
	.st393{fill:#F69575;}
	.st394{fill:url(#SVGID_127_);}
	.st395{fill:url(#SVGID_128_);}
	.st396{fill:url(#SVGID_129_);}
	.st397{fill:url(#SVGID_130_);}
	.st398{fill:url(#SVGID_131_);}
	.st399{fill:#F05253;}
	.st400{fill:#ED1C24;}
	.st401{fill:url(#SVGID_132_);}
	.st402{fill:url(#SVGID_133_);}
	.st403{fill:url(#SVGID_134_);}
	.st404{fill:url(#SVGID_135_);}
	.st405{fill:url(#SVGID_136_);}
	.st406{fill:url(#SVGID_137_);}
	.st407{fill:#FDC78D;}
	.st408{fill:#FFD10A;}
	.st409{fill:url(#SVGID_138_);}
	.st410{fill:url(#SVGID_139_);}
	.st411{fill:url(#SVGID_140_);}
	.st412{fill:#6899D1;}
	.st413{fill:#F4F4F4;}
	.st414{fill:#DAEEF6;}
	.st415{fill:url(#SVGID_141_);}
	.st416{fill:#85CEC1;}
	.st417{fill:url(#SVGID_142_);}
	.st418{fill:#F37878;}
	.st419{fill:url(#SVGID_143_);}
	.st420{fill:url(#SVGID_144_);}
	.st421{fill:url(#SVGID_145_);}
	.st422{fill:url(#SVGID_146_);}
	.st423{fill:url(#SVGID_147_);}
	.st424{fill:url(#SVGID_148_);}
	.st425{fill:url(#SVGID_149_);}
	.st426{fill:url(#SVGID_150_);}
	.st427{fill:url(#SVGID_151_);}
	.st428{fill:url(#SVGID_152_);}
	.st429{fill:url(#SVGID_153_);}
	.st430{fill:#F0EFEF;}
	.st431{fill:#DBD7D7;}
	.st432{fill:#63C7D3;}
	.st433{opacity:0.5;fill:#63C7D3;}
	.st434{fill:#E6E7F4;}
	.st435{fill:#23214D;}
	.st436{fill:#283996;}
	.st437{fill:#1B193A;}
	.st438{fill:#F68D63;}
	.st439{fill:#F9A575;}
	.st440{fill:#FEDA04;}
	.st441{fill:#312126;}
	.st442{fill:#F15F4B;}
	.st443{fill:#F15834;}
	.st444{fill:#EC4524;}
	.st445{fill:#F26B76;}
	.st446{fill:#4D5BA9;}
	.st447{fill:#2D327E;}
	.st448{fill:#39469D;}
	.st449{fill:#9AC181;}
	.st450{fill:#7ED0DC;}
	.st451{display:none;}
	.st452{display:inline;fill:#F9A575;}
	.st453{display:inline;}
	.st454{fill:#673A3C;}
	.st455{fill:#794447;}
	.st456{fill:#47222C;}
	.st457{fill:#29275C;}
	.st458{fill:#57B0B9;}
	.st459{fill:#EF434E;}
	.st460{fill:#E24826;}
	.st461{fill:#4754A5;}
	.st462{fill:#B6C153;}
	.st463{fill:#DD4361;}
	.st464{fill:#FBB67B;}
	.st465{fill:#F6EEEA;}
	.st466{fill:#251D1C;}
	.st467{fill:#E0B895;}
	.st468{fill:#DFB793;}
	.st469{fill:#B8A79D;}
	.st470{fill:#9B93C7;}
	.st471{fill:#6A8037;}
	.st472{fill:#E9633E;}
	.st473{fill:#F6936F;}
	.st474{fill:#DBD8EC;}
	.st475{fill:#221A19;}
	.st476{fill:#382621;}
	.st477{fill:#F7EFEC;}
	.st478{fill:#FBB67C;}
	.st479{fill:#70CACA;}
	.st480{fill:#004669;}
	.st481{fill:#33ADA9;}
	.st482{fill:#EE777A;}
	.st483{fill:#C3E8F0;}
	.st484{fill:#C39C44;}
	.st485{fill:#FFE6B0;}
	.st486{fill:#FFCB5D;}
	.st487{fill:#D2EDF5;}
	.st488{fill:none;stroke:#D2EDF5;stroke-width:2.2824;stroke-miterlimit:10;}
	.st489{fill:#0F4672;}
	.st490{fill:#92B779;}
	.st491{fill:#D47C60;}
	.st492{fill:#054A6E;}
	.st493{fill:#2B9996;}
	.st494{fill:#CAE9EB;}
	.st495{fill:#F7A581;}
	.st496{fill:#F18D24;}
	.st497{fill:#CF7929;}
	.st498{fill:#182F40;}
	.st499{fill:#0E1B2D;}
	.st500{fill:#406E34;}
	.st501{fill:#3B83B0;}
	.st502{fill:#3B3F4A;}
	.st503{fill:#242930;}
	.st504{fill:#FBD165;}
	.st505{fill:#FCB017;}
	.st506{fill:#155567;}
	.st507{fill:#236A7E;}
	.st508{fill:#3096B3;}
	.st509{fill:#84D2F6;}
	.st510{fill:#C4E4F8;}
	.st511{fill:#FCB774;}
	.st512{fill:#FAA31B;}
	.st513{fill:#E38D25;}
	.st514{fill:#AADFF3;}
	.st515{fill:#126E84;}
	.st516{fill:#064A56;}
	.st517{fill:#096D84;}
	.st518{fill:#D3CED9;}
	.st519{fill:#D89466;}
	.st520{fill:#FAA61A;}
	.st521{fill:#AA6549;}
	.st522{fill:#B35143;}
	.st523{fill:#3B3E54;}
	.st524{fill:#8A432D;}
	.st525{fill:#4C2F2C;}
	.st526{fill:#3C1C19;}
	.st527{fill:#9889C1;}
	.st528{fill:#CC8759;}
	.st529{fill:#665DA9;}
	.st530{fill:#5C2B20;}
	.st531{fill:#F4F5F0;}
	.st532{fill:#E04A95;}
	.st533{fill:#BC6944;}
	.st534{fill:#673021;}
	.st535{fill:#C4C2DF;}
	.st536{fill:#342B29;}
	.st537{fill:#E69F6F;}
	.st538{fill:#F173AC;}
	.st539{fill:#FAA43A;}
	.st540{fill:#F7F7FA;}
	.st541{fill:#3F4076;}
	.st542{fill:#5CA4DA;}
	.st543{fill:#BBD071;}
	.st544{fill:#97A33B;}
	.st545{fill:#49763A;}
	.st546{fill:#E5F2FC;}
	.st547{opacity:0.85;}
	.st548{fill:#4692CF;}
	.st549{fill:#0E2D3D;}
	.st550{fill:#5478B4;}
	.st551{fill:#5B83C3;}
	.st552{fill:#304664;}
	.st553{fill:#364D71;}
	.st554{fill:#2C3B57;}
	.st555{fill:#D5D8E8;}
	.st556{opacity:0.82;}
	.st557{fill:#418ECC;}
	.st558{fill:#173342;}
	.st559{fill:#295274;}
	.st560{fill:#F47D58;}
	.st561{fill:#183C59;}
	.st562{fill:#616262;}
	.st563{fill:#E0CFC8;}
	.st564{fill:#64A8DC;}
	.st565{opacity:0.66;}
	.st566{fill:#CBE1F5;}
	.st567{fill:#8CB6E1;}
	.st568{fill:#B5D3EF;}
	.st569{fill:#B8D8F2;}
	.st570{fill:#92B4DF;}
	.st571{fill:#BBDDDE;}
	.st572{fill:#D1ECED;}
	.st573{fill:#C8CBE2;}
	.st574{fill:#669AD2;}
	.st575{fill:#4D84C5;}
	.st576{fill:#181C4D;}
	.st577{fill:#EFBBBB;}
	.st578{fill:#F9CBCB;}
	.st579{fill:#2B3874;}
	.st580{fill:#EBAEAD;}
	.st581{fill:#21295D;}
	.st582{fill:#31344D;}
	.st583{fill:#FCD4D1;}
	.st584{fill:#B95050;}
	.st585{fill:#FEE9E2;}
	.st586{fill:#181A2E;}
	.st587{fill:#EB9B9C;}
	.st588{fill:#F9B7B3;}
	.st589{fill:#444C86;}
	.st590{fill:#2B3367;}
	.st591{fill:#93BAE3;}
	.st592{fill:#4B80C1;}
	.st593{fill:#396CAD;}
	.st594{fill:#C0D9F1;}
	.st595{fill:#F9B4AF;}
	.st596{fill:#4E88C7;}
	.st597{fill:#195595;}
	.st598{fill:#D9475A;}
	.st599{fill:#1172BA;}
	.st600{fill:#247BBC;}
	.st601{fill:#FAA71F;}
	.st602{fill:#D55127;}
	.st603{fill:none;stroke:#212F57;stroke-width:0.925;stroke-miterlimit:10;}
	.st604{fill:#212F57;}
	.st605{opacity:0.5;fill:#838DC5;}
	.st606{fill:#F2C7BD;}
	.st607{fill:none;stroke:#212F57;stroke-width:1.2665;stroke-linecap:round;stroke-linejoin:round;stroke-miterlimit:10;}
	.st608{fill:#272A41;}
	.st609{fill:none;stroke:#E8B1C3;stroke-width:2.5241;stroke-miterlimit:10;}
	.st610{fill:#5160A5;}
	.st611{opacity:0.5;fill:#D55127;}
	.st612{opacity:0.5;fill:#DA8727;}
	.st613{opacity:0.7;}
	.st614{fill:#DA8727;}
	.st615{fill:#A3BDE3;}
	.st616{fill:#1B7A84;}
	.st617{fill:#B1D2EF;}
	.st618{fill:#F8ACAD;}
	.st619{opacity:0.63;}
	.st620{clip-path:url(#SVGID_155_);}
	.st621{fill:#D7E7F6;}
	.st622{clip-path:url(#SVGID_157_);}
	.st623{clip-path:url(#SVGID_159_);}
	.st624{clip-path:url(#SVGID_161_);}
	.st625{clip-path:url(#SVGID_163_);}
	.st626{clip-path:url(#SVGID_165_);}
	.st627{clip-path:url(#SVGID_167_);}
	.st628{clip-path:url(#SVGID_169_);}
	.st629{clip-path:url(#SVGID_171_);}
	.st630{clip-path:url(#SVGID_173_);}
	.st631{clip-path:url(#SVGID_175_);}
	.st632{clip-path:url(#SVGID_177_);}
	.st633{clip-path:url(#SVGID_179_);}
	.st634{clip-path:url(#SVGID_181_);}
	.st635{clip-path:url(#SVGID_183_);}
	.st636{clip-path:url(#SVGID_185_);}
	.st637{clip-path:url(#SVGID_187_);}
	.st638{clip-path:url(#SVGID_189_);}
	.st639{clip-path:url(#SVGID_191_);}
	.st640{clip-path:url(#SVGID_193_);}
	.st641{clip-path:url(#SVGID_195_);}
	.st642{fill:#89B2DF;}
	.st643{fill:#4377BC;}
	.st644{fill:#DA6566;}
	.st645{fill:#F58E92;}
	.st646{fill-rule:evenodd;clip-rule:evenodd;fill:#4DB5D1;}
	.st647{fill:#F15C60;}
	.st648{fill:#FFD574;}
	.st649{fill:#F2B892;}
	.st650{fill:#EB836C;}
	.st651{fill:url(#SVGID_196_);}
	.st652{fill:#222C55;}
	.st653{fill:#4551A3;}
	.st654{fill:url(#SVGID_197_);}
	.st655{fill:#0B3C5F;}
	.st656{fill:#F8A187;}
	.st657{fill:#F4B68F;}
	.st658{fill:#232850;}
	.st659{fill:#306D9E;}
	.st660{fill:#255981;}
	.st661{fill:#F69E83;}
	.st662{fill:#0B3D60;}
	.st663{opacity:0.45;fill:#89B2DF;}
	.st664{filter:url(#Adobe_OpacityMaskFilter_19_);}
	.st665{filter:url(#Adobe_OpacityMaskFilter_20_);}
	.st666{mask:url(#SVGID_198_);fill:url(#SVGID_199_);}
	.st667{opacity:0.33;fill:#AADFF3;}
	.st668{filter:url(#Adobe_OpacityMaskFilter_21_);}
	.st669{filter:url(#Adobe_OpacityMaskFilter_22_);}
	.st670{mask:url(#SVGID_200_);fill:url(#SVGID_201_);}
	.st671{filter:url(#Adobe_OpacityMaskFilter_23_);}
	.st672{filter:url(#Adobe_OpacityMaskFilter_24_);}
	.st673{mask:url(#SVGID_202_);fill:url(#SVGID_203_);}
	.st674{fill:#CFD8EE;}
	.st675{fill:#E3E6F4;}
	.st676{fill:#ABBADF;}
	.st677{fill:#C3CCE8;}
	.st678{fill:url(#SVGID_204_);}
	.st679{fill:url(#SVGID_205_);}
	.st680{fill:#D3D0E9;}
	.st681{fill:#078BBF;}
	.st682{fill:#057B97;}
	.st683{fill:url(#SVGID_206_);}
	.st684{fill:#C74534;}
	.st685{fill:#F27B66;}
	.st686{fill:#58449B;}
	.st687{fill:#6B52A2;}
	.st688{fill:#A9A6D2;}
	.st689{fill:#C4C0E0;}
	.st690{opacity:0.33;}
	.st691{opacity:0.23;fill:url(#SVGID_207_);}
	.st692{opacity:0.36;fill:url(#SVGID_208_);}
	.st693{opacity:0.36;fill:url(#SVGID_209_);}
	.st694{opacity:0.23;fill:url(#SVGID_210_);}
	.st695{fill:#D8E0F2;}
	.st696{opacity:0.36;fill:url(#SVGID_211_);}
	.st697{opacity:0.42;fill:url(#SVGID_212_);}
	.st698{fill:#F6F9FD;}
	.st699{fill:#049AC9;}
	.st700{fill:#E0E0E0;}
	.st701{fill:#EBEBEB;}
	.st702{fill:none;stroke:#F2A59D;stroke-width:0.05;stroke-miterlimit:10;}
	.st703{fill:#FAFBFB;}
	.st704{fill:#E7515B;}
	.st705{fill:#CFCFCE;}
	.st706{fill:#FBBD9D;}
	.st707{fill:#EC996F;}
	.st708{opacity:0.6;fill:#FFFFFF;}
	.st709{opacity:0.6;}
	.st710{fill:#263238;}
	.st711{fill:#455B64;}
	.st712{fill:none;stroke:#43494E;stroke-miterlimit:10;}
	.st713{fill:#F5F5F5;}
	.st714{fill:#F3725F;}
	.st715{opacity:0;}
	.st716{clip-path:url(#SVGID_214_);}
	.st717{fill:#C9D8EF;}
	.st718{clip-path:url(#SVGID_216_);}
	.st719{clip-path:url(#SVGID_218_);}
	.st720{clip-path:url(#SVGID_220_);}
	.st721{clip-path:url(#SVGID_222_);}
	.st722{clip-path:url(#SVGID_224_);}
	.st723{clip-path:url(#SVGID_226_);}
	.st724{clip-path:url(#SVGID_228_);}
	.st725{clip-path:url(#SVGID_230_);}
	.st726{clip-path:url(#SVGID_232_);}
	.st727{clip-path:url(#SVGID_234_);}
	.st728{clip-path:url(#SVGID_236_);}
	.st729{clip-path:url(#SVGID_238_);}
	.st730{clip-path:url(#SVGID_240_);}
	.st731{clip-path:url(#SVGID_242_);}
	.st732{clip-path:url(#SVGID_244_);}
	.st733{clip-path:url(#SVGID_246_);}
	.st734{clip-path:url(#SVGID_248_);}
	.st735{clip-path:url(#SVGID_250_);}
	.st736{clip-path:url(#SVGID_252_);}
	.st737{clip-path:url(#SVGID_254_);}
	.st738{fill:#59595B;}
	.st739{fill:#EDF7F7;}
	.st740{fill:#FDD247;}
	.st741{fill:#1D2040;}
	.st742{fill:url(#SVGID_255_);}
	.st743{fill:#F89A45;}
	.st744{fill:#4F2E1F;}
	.st745{fill:#AEADAD;}
	.st746{fill:#3C2116;}
	.st747{fill:#76696D;}
	.st748{fill:#DFB0B4;}
	.st749{fill:#0E4363;}
	.st750{fill:#F8F6F1;}
	.st751{fill:#A4BAE1;}
	.st752{fill:#4D1F38;}
	.st753{fill:#3A1528;}
	.st754{fill:#746875;}
	.st755{fill:#DAADD1;}
	.st756{fill:url(#SVGID_256_);}
	.st757{fill:#CD3570;}
	.st758{fill:url(#SVGID_257_);}
	.st759{fill:url(#SVGID_258_);}
	.st760{fill:#A09F9F;}
	.st761{fill:none;stroke:#FFFFFF;stroke-linecap:round;stroke-miterlimit:10;}
	.st762{fill:none;stroke:#FFFFFF;stroke-linecap:round;stroke-linejoin:round;stroke-miterlimit:10;}
	.st763{fill:none;stroke:#A09F9F;stroke-miterlimit:10;}
	.st764{fill:#7B553A;}
	.st765{fill:#5F422D;}
	.st766{fill:#FDB839;}
	.st767{fill:#401B0F;}
	.st768{fill:#034B4E;}
	.st769{opacity:0.36;}
	.st770{opacity:0.1;fill:#CFCFCE;}
	.st771{opacity:0.15;}
	.st772{fill:#FBB781;}
	.st773{fill:#49A8D5;}
	.st774{fill:#077679;}
	.st775{opacity:0.1;}
	.st776{fill:#BEE0C0;}
	.st777{opacity:0.23;fill:#245C74;}
	.st778{fill:#245C74;}
	.st779{fill:#FCC69B;}
	.st780{fill:#DBA285;}
	.st781{fill:#757576;}
	.st782{fill:#ABABAA;}
	.st783{fill:#6F6F71;}
	.st784{fill:#FFCA70;}
	.st785{fill:#FAA325;}
	.st786{fill:none;stroke:#077679;stroke-width:0.25;stroke-linecap:round;stroke-linejoin:round;stroke-miterlimit:10;}
	.st787{fill:#963A20;}
	.st788{fill:#E2E2E2;}
	.st789{fill:#18184B;}
	.st790{fill:#F8B6C9;}
	.st791{fill:#F58531;}
	.st792{fill:#759CD2;}
	.st793{fill:#BACFEB;}
</style>
<g>
	<path class="st705" d="M16.13,115.65c-4.57-0.61-8.93-2.45-12.44-5.45c-3.87-3.31-3.9-5.55-3.55-6.89
		c0.77-2.95,11.82-1.82,13.66-6.48c1.21-3.07-3.03-4.94-3.72-10.54c-0.62-4.99,1.83-10.89,6.12-13.14
		c6.11-3.2,14.52,1.74,21.88,4.12c32.11,10.36,60.54-22.86,81.58-11.71c7.45,3.95,13.4,13.17,12,20.3
		c-1.39,7.08-9.98,11.85-7.86,14.95c1.43,2.09,5.73,0.49,9.09,3.17c3.51,2.8,3.67,8.43,2.4,10.99c-3.27,6.63-19.06,1.08-51.6,2
		c-20.57,0.58-30.02,3.52-51.99,0.18C28.36,116.65,22.6,116.52,16.13,115.65z"/>
	<path class="st704" d="M58.85,40.5c15.58,0,28.21,12.63,28.21,28.21S74.43,96.93,58.85,96.93S30.64,84.3,30.64,68.71
		S43.27,40.5,58.85,40.5 M58.85,27.63c-22.65,0-41.08,18.43-41.08,41.08s18.43,41.08,41.08,41.08s41.08-18.43,41.08-41.08
		S81.5,27.63,58.85,27.63L58.85,27.63z"/>
	<path class="st3" d="M58.85,40.5c15.58,0,28.21,12.63,28.21,28.21S74.43,96.93,58.85,96.93S30.64,84.3,30.64,68.71
		S43.27,40.5,58.85,40.5"/>
	
		<ellipse transform="matrix(0.0356 -0.9994 0.9994 0.0356 -11.9429 125.1007)" class="st704" cx="58.85" cy="68.74" rx="15.32" ry="15.32"/>
	<g>
		<circle class="st3" cx="58.85" cy="68.74" r="2.74"/>
	</g>
	<path class="st777" d="M58.85,70.77l-4.4-9.27l-2.24,2.24L36.75,48.28l0.31-10.53L20.33,21.02l-0.31,10.64
		c-0.07,0-0.15,0.02-0.2,0.08c-0.06,0.06-0.08,0.13-0.08,0.2L9.09,32.25l16.73,16.73l10.53-0.31l15.46,15.46l-2.24,2.24L58.85,70.77
		z"/>
	<g>
		<polygon class="st766" points="37.06,35.68 36.74,46.6 25.82,46.92 9.09,30.19 20.01,29.87 20.33,18.96 		"/>
		<path class="st778" d="M58.06,68.2c-0.07,0-0.14-0.03-0.2-0.08L19.81,30.07c-0.11-0.11-0.11-0.28,0-0.39
			c0.11-0.11,0.28-0.11,0.39,0l38.05,38.05c0.11,0.11,0.11,0.28,0,0.39C58.2,68.17,58.13,68.2,58.06,68.2z"/>
		<polygon class="st778" points="49.58,64.32 54.45,59.44 58.85,68.71 		"/>
	</g>
	<g>
		<path class="st767" d="M106.4,58.65c1.43-0.77,3.43-1.19,4.96-0.32c2.21,1.26,0.8,4.86,2.51,10.42c1.89,6.18,5.29,7.17,4.63,10.61
			c-0.59,3.1-4.03,5.92-6.82,5.6c-3.82-0.44-7.36-6.91-6.88-11.88c0.34-3.48,1.89-5.46,1.55-9.86
			C106.2,61.3,106.78,59.58,106.4,58.65z"/>
		<g>
			<g>
				<g>
					<g>
						<path class="st766" d="M103.6,115.26c0,0-3.2,0.91-4.77,1.78c-1.26,0.7-1.42,1.28,0.14,1.29c1.99,0.01,4.35-0.04,5.77-0.26
							c0.96-0.15,0.56-2.4,0.4-2.79L103.6,115.26z"/>
						<polygon class="st779" points="103.88,115.26 103.56,114.01 105.21,114.21 105.14,115.28 						"/>
					</g>
					<path class="st774" d="M97.87,118.03c1.73-0.06,5.35-0.21,6.29-0.44c0.56-0.13,0.94-0.38,1.19-0.61
						c-0.03,0.54-0.19,1.01-0.61,1.08c-1.42,0.22-3.78,0.26-5.77,0.26C98.3,118.32,97.95,118.21,97.87,118.03z"/>
					<g>
						<g>
							<g>
								<path class="st780" d="M111,68.45c0,0-1.34-1.38-5.29,0c-3.95,1.38-6.47,1.87-6.47,1.87l-10.91-3.5l-0.18,1.21
									c0,0,7.13,4.88,9.53,5.91C100.07,74.96,115.23,72.35,111,68.45z"/>
								<path class="st781" d="M96.65,69.3l-1.58,3.29l2.58,1.57c0,0,9.77,0.22,12.76-1.91c2.99-2.12,2.48-4.95,0.82-5.05
									c-1.66-0.1-11.62,2.71-11.62,2.71L96.65,69.3z"/>
								
									<rect x="94.88" y="68.6" transform="matrix(0.9067 0.4217 -0.4217 0.9067 38.7766 -33.7957)" class="st3" width="1.8" height="4.32"/>
								<path class="st780" d="M90.23,69.42c0,0-3.07-4.58-3.9-4.4c0,0,1.64,3.45,2.46,4.71"/>
								<g>
									<path class="st766" d="M123.37,112.13c0,0-2.25,2.45-3.13,4.01c-0.71,1.25-0.54,1.83,0.79,1.02
										c1.7-1.04,3.69-2.31,4.78-3.24c0.74-0.63-0.78-2.34-1.12-2.58L123.37,112.13z"/>
									<polygon class="st779" points="123.61,111.99 122.68,111.1 124.2,110.4 124.69,111.35 									"/>
								</g>
								<g>
									<path class="st738" d="M104.65,84.71l6.57-3.66c0,0-1.1,13.86-5.3,19.98c0,0-0.03,11.15-0.77,13.55l-1.54-0.04
										c0,0-2.35-12.68-2.13-14.7C101.89,96.12,102.28,90.76,104.65,84.71z"/>
								</g>
								<path class="st768" d="M107.87,97.17l-0.28-7.53l1.68,3.05C108.88,94.23,108.42,95.76,107.87,97.17z"/>
								<g>
									<path class="st779" d="M106.1,60.1c-0.83,1.16-1.01,2.8-0.76,4.26c0.28,1.58,2.73,1.29,3.94,0.23
										c1.07-0.93,1.61-2.63,1.11-3.88C109.74,59.1,107.21,58.55,106.1,60.1z"/>
									<path class="st779" d="M107.92,61.73l2.62-0.14l0.34,6.33c0.05,0.91-0.65,1.68-1.55,1.73l0,0
										c-0.98,0.05-1.78-0.75-1.73-1.73L107.92,61.73z"/>
									<path class="st767" d="M107.17,59.54c0,0,0.1,3.56,3.71,3.68c2.52,0.08,1.19-5.87-2.21-5.28
										c-4.79,0.83-3.14,3.34-3.14,3.34S106.31,59.36,107.17,59.54z"/>
									<path class="st3" d="M110,63.57c-0.1,0.24-0.38,0.36-0.62,0.26c-0.24-0.1-0.36-0.38-0.26-0.62
										c0.1-0.24,0.38-0.36,0.62-0.26C109.99,63.05,110.11,63.33,110,63.57z"/>
									<polygon class="st780" points="107.7,65.89 109.45,64.63 107.72,65.34 									"/>
									<polygon class="st3" points="106.85,67.89 107.46,66.06 110.88,65.71 110.88,66.66 									"/>
								</g>
								<path class="st738" d="M105.89,81.83l8,2.13c0,0,2.25,3.05,1.42,14.94c0,0,6.99,5.88,8.94,11.59l-1.3,0.85
									c0,0-9.84-8.79-11.22-10.28C110.08,99.28,106.87,93.32,105.89,81.83z"/>
								<path class="st782" d="M106.74,68.21c0.17-0.72,0.68-1.3,1.37-1.55c1.48-0.54,5.09-0.57,5.12,4.3c0.07,9.58,0.67,13,0.67,13
									s-1.92,1.67-9.24,0.75l0.96-6.05l-0.85-1.86c-0.55-1.48-0.49-3.11,0.15-4.54L106.74,68.21z"/>
								<path class="st779" d="M110.51,69.88c0,0-1.34-1.38-5.29,0c-3.95,1.38-6.47,1.87-6.47,1.87l-10.91-3.5l-0.18,1.21
									c0,0,7.13,4.88,9.53,5.91C99.58,76.4,114.74,73.78,110.51,69.88z"/>
								<path class="st779" d="M88.83,68.62c0,0-2.16-2.34-2.99-2.16c0,0,0.74,1.21,1.56,2.48c0.26,0.4,0.33,2.71,0.75,1.82
									C88.57,69.88,88.83,68.62,88.83,68.62z"/>
							</g>
						</g>
					</g>
					<path class="st779" d="M105.76,60.79c0,0-0.61,0.98-1.2,1.26c0,0,0.25,0.53,0.77,0.7L105.76,60.79z"/>
					<path class="st774" d="M119.94,117.5c1.44-0.95,4.45-2.98,5.14-3.67c0.41-0.41,0.6-0.81,0.7-1.14
						c0.26,0.48,0.37,0.96,0.04,1.24c-1.09,0.93-3.08,2.2-4.78,3.24C120.46,117.52,120.1,117.61,119.94,117.5z"/>
					<path class="st779" d="M124.57,111.42c0,0-1.75,3.02-2.53,2.24l1.29-1.93L124.57,111.42z"/>
				</g>
				<path class="st779" d="M104.95,115.23c0,0-3.07,1.72-3.29,0.64l2.14-0.9L104.95,115.23z"/>
			</g>
			<rect x="103.16" y="113.63" class="st774" width="2.58" height="1.02"/>
			
				<rect x="122.31" y="110.25" transform="matrix(0.866 -0.5 0.5 0.866 -38.8199 76.6363)" class="st774" width="2.58" height="1.02"/>
		</g>
		<path class="st782" d="M95.8,70.81l-1.33,3.07l3.26,1.96c0,0,8.84,0.05,11.83-2.08c2.99-2.12,2.48-4.95,0.82-5.05
			c-1.66-0.1-11.62,2.71-11.62,2.71L95.8,70.81z"/>
		
			<rect x="94.03" y="70.11" transform="matrix(0.9067 0.4217 -0.4217 0.9067 39.3335 -33.2959)" class="st3" width="1.8" height="4.32"/>
	</g>
	<g>
		<g>
			<path class="st764" d="M63.72,10.74c0,0,2.06-0.33,4.58,3.43c2.52,3.76,4.38,5.81,4.38,5.81l9.38-7.11l1,2.03
				c0,0-8.63,9.87-11.37,9.21C68.95,23.46,57.54,11.37,63.72,10.74z"/>
			<path class="st764" d="M83.01,14.99c0,0,4.64-3.57,2.43-2.94c-1,0.29-1.89,1.05-2.24,0.73c-0.34-0.31,0.39-0.59,0.52-1.28
				c0.11-0.62-2.07,1.7-2.07,1.7L83.01,14.99z"/>
			<g class="st775">
				<polygon class="st212" points="79.77,15.97 75.8,19.68 80.29,17.57 				"/>
			</g>
			<g class="st775">
				<g>
					<polygon class="st212" points="72.8,21.78 68.01,17.45 68.01,18.59 70.4,22.42 					"/>
				</g>
			</g>
		</g>
		<g>
			<g class="st771">
				<path class="st212" d="M71.6,33.31c0,0-0.53,10.62,4.74,13.61V30.59L71.6,33.31z"/>
			</g>
			<g>
				<g>
					<g>
						<g>
							<path class="st766" d="M79.18,48.63c0,0,3.29,1.59,4.82,2.84c1.23,1,1.29,1.66-0.4,1.36c-2.15-0.37-4.7-0.87-6.19-1.38
								c-1.01-0.34-0.15-2.71,0.1-3.09L79.18,48.63z"/>
							<polygon class="st764" points="78.92,48.72 79.02,46.92 77.6,47.47 77.52,48.36 							"/>
						</g>
						<path class="st774" d="M84.86,52.73c-1.86-0.39-5.74-1.25-6.73-1.67c-0.58-0.25-0.94-0.59-1.17-0.88
							c-0.07,0.59,0.01,1.13,0.46,1.28c1.49,0.51,4.04,1.01,6.19,1.38C84.33,52.96,84.73,52.91,84.86,52.73z"/>
					</g>
					<path class="st764" d="M61.69,20.83l-0.92,4.19c-0.48,2.74,1.49,5.3,4.26,5.51c2.32,0.18,5.62,0.5,10.27,1.05
						c0,0-1.08,8.95,2.29,15.9H79c0,0,0.77-17.33-0.48-19.18C77.03,26.06,75.55,21.97,61.69,20.83z"/>
					<g class="st775">
						<path class="st212" d="M76.96,30.59c0,0,0.13-4.42-6.24-6.96l-1.52,4.05L76.96,30.59z"/>
					</g>
				</g>
				<g>
					<path class="st705" d="M66.41,8.9c-1.6-0.59-5.09-0.89-5.79,2.98c-0.64,3.54-1.02,6.86-0.49,9.37
						c0.38,1.79-0.69,6.36-0.69,6.36s4.24,1.64,9.76,0.06l-1.19-6.23v-4.41c2.01-1.6,0.82-4.96,0-6.69
						C67.65,9.59,67.38,9.37,66.63,9C66.55,8.96,66.48,8.93,66.41,8.9z"/>
					<path class="st764" d="M66.4,2.97l-2.23-0.01l0.26,6c0.01,0.18,0.06,0.35,0.16,0.5c1.06,1.56,1.64,1.27,1.64,1.27
						c0.75-0.23,0.25-1.51,0.15-2.6L66.4,2.97z"/>
					<path class="st764" d="M66.67,1.61c1.39,1.75,1.55,3.3,1.51,4.9c-0.06,2.03-2.76,2.06-4.48,0.99
						c-1.53-0.95-2.65-2.68-2.27-4.34C61.91,1.01,65.16-0.28,66.67,1.61z"/>
					<g class="st775">
						<polygon class="st212" points="66.47,8.75 64.88,8.04 66.39,8.2 						"/>
					</g>
					<path class="st764" d="M67.59,3.55c0,0,0.6,0.96,1.18,1.24c0,0-0.25,0.52-0.76,0.69L67.59,3.55z"/>
					<polygon class="st3" points="67.24,10.86 66.7,8.8 63.73,8.39 63.73,9.47 					"/>
				</g>
				<g>
					<g>
						<g>
							<path class="st766" d="M77.8,50.19c0,0,3.29,1.59,4.82,2.84c1.23,1,1.29,1.66-0.4,1.36c-2.15-0.37-4.7-0.87-6.19-1.38
								c-1.01-0.34-0.15-2.71,0.1-3.09L77.8,50.19z"/>
							<polygon class="st764" points="77.54,50.28 77.64,48.47 76.22,49.03 76.14,49.92 							"/>
						</g>
						<path class="st774" d="M83.48,54.28c-1.86-0.39-5.74-1.25-6.73-1.67c-0.58-0.25-0.94-0.59-1.17-0.88
							c-0.07,0.59,0.01,1.13,0.46,1.28c1.49,0.51,4.04,1.01,6.19,1.38C82.95,54.51,83.35,54.46,83.48,54.28z"/>
					</g>
					<path class="st764" d="M60.31,22.38l-0.5,3.73c-0.48,2.74,1.49,5.3,4.26,5.51c2.32,0.18,5.2,0.95,9.85,1.5
						c0,0-1.08,8.95,2.29,15.9h1.4c0,0,0.77-17.33-0.48-19.18C75.65,27.62,74.17,23.52,60.31,22.38z"/>
				</g>
				<path class="st767" d="M60.91,1.94c1.1-2.55,5.46-2.01,6.04-1.55c1.12,0.88,0.29,2.02,0.29,2.02L67,2.23
					c-0.04-0.02-0.08-0.04-0.13-0.06c-0.71,0.1-3.19,0.61-2.43,2.56c0.19,0.49-0.23,0.72-0.74,0.75c-0.05,0.59-0.04,1.23,0.06,1.87
					c0.07,0.46-0.83-0.02-1.63-0.92l0,0C62.12,6.43,59.81,4.48,60.91,1.94z"/>
				<path class="st783" d="M60.2,22.01c0,0-4.05,9.14,3.48,10.04c9.57,1.14,8.13,3.19,8.13,3.19l6.23-8.63c0,0-4.08-4.22-10.8-5.06
					L60.2,22.01z"/>
			</g>
			<path class="st764" d="M76.27,49.95c0,0,2.34,2.06,3.07,1.02l-1.96-1.06L76.27,49.95z"/>
			<path class="st764" d="M77.8,48.41c0,0,2.39,2.16,3.12,1.13l-1.96-1.06L77.8,48.41z"/>
		</g>
		<g>
			<path class="st768" d="M79.57,18.34l0.68,0.77l9.33-8.26c0.26-0.23,0.28-0.62,0.05-0.88l-0.27-0.3L79.57,18.34z"/>
			<path class="st776" d="M79.99,15.55c-0.28,0.25-0.44,0.6-0.43,0.98l0.02,1.82l9.8-8.67l-2.82,0.44c-0.33,0.05-0.64,0.2-0.89,0.42
				L79.99,15.55z"/>
		</g>
		<g>
			<path class="st764" d="M64.21,10.73c0,0,1.46-0.26,3.07,3.97c1.61,4.23,2.97,6.65,2.97,6.65l10.74-4.82l0.34,1.88
				c0,0-10.44,8.01-12.96,6.75S58.04,9.96,64.21,10.73z"/>
			<path class="st764" d="M81.24,18.48c0,0,2.58-0.59,2.71-1.12c0.22-0.87,1.5-2.68,0.35-1.83c-0.73,0.54-1.72,1.54-2.02,1.12
				c-0.29-0.41,1.23-0.57,0.84-1.37l-2.58,1.44L81.24,18.48z"/>
		</g>
		<path class="st705" d="M67.24,13.59c0,0-4.27,1.5-5.45,3.14c0,0-1.88-4.63,0.9-5.83C66.26,9.35,67.24,13.59,67.24,13.59z"/>
		
			<rect x="63.91" y="12.09" transform="matrix(0.4315 0.9021 -0.9021 0.4315 50.3444 -49.9447)" class="st3" width="1.79" height="5.77"/>
		<path class="st767" d="M63.22,3.31c-1.01-0.14-2.32,1.53-2.56,3.13c-0.37,2.46,1.72,5.45,4.06,5.98c1.35,0.3,2.42-0.29,3.56,0.57
			c0.86,0.65,1.1,1.63,1.28,1.57c0.2-0.07,0.22-1.4-0.43-2.49c-1.3-2.2-4.09-1.41-4.84-3.13c-0.62-1.41,0.95-2.64,0.07-4.48
			C64.24,4.19,63.86,3.4,63.22,3.31z"/>
		<path class="st764" d="M65.33,5.86c-0.22,0.33-0.79,0.35-1.27,0.03c-0.48-0.32-0.69-0.85-0.47-1.18c0.22-0.33,0.79-0.35,1.27-0.03
			C65.34,5,65.55,5.53,65.33,5.86z"/>
		<path class="st3" d="M64.79,6.16c-0.1,0.23-0.36,0.34-0.59,0.24c-0.23-0.1-0.34-0.36-0.24-0.59c0.1-0.23,0.36-0.34,0.59-0.24
			C64.78,5.67,64.89,5.93,64.79,6.16z"/>
	</g>
	<g>
		<g>
			<g>
				<path class="st766" d="M35.65,82.28l6.24,1.11l4.7-2.43c0,0-0.47-3.32-0.44-4.24c0.06-2.23,1.14-7.24-0.45-10.81
					c-1.16-2.63-3.33-1.43-6.07-0.57l-3.09,0.34c0,0-4.95-2.99-1.49,10.8C35.44,78.04,35.65,82.28,35.65,82.28z"/>
				<g>
					<path class="st779" d="M38.23,55.79c-1.23,1.25-1.74,3.2-1.71,5.01c0.04,1.97,3.07,2.07,4.73,1.02
						c1.47-0.93,2.44-2.89,2.06-4.49C42.81,55.25,39.86,54.11,38.23,55.79z"/>
					<path class="st779" d="M37.59,56.69c0,0-0.75,0.88-1.38,1.07c0,0,0.17,0.56,0.66,0.81L37.59,56.69z"/>
				</g>
				<g>
					<path class="st705" d="M38.17,68.85l-2.65-5.9l-1.35-3l-2.59-11.99l-2.26,0.32l1.45,13.11l1.35,3.27l1.69,9.26
						c0.42,1.02,2.25-2.04,3.27-2.46C38.1,71.03,38.59,69.86,38.17,68.85z"/>
					<path class="st779" d="M31.69,48.47c0,0-0.08-4.35-0.49-3.43c-0.45,1.01-0.58,1.59-0.58,1.59s-1.19-2.96-1.69-2.48
						c-0.5,0.48-0.77,1.32-0.4,2.26c0.44,1.14,0.96,2.33,0.96,2.33L31.69,48.47z"/>
					
						<rect x="29.85" y="47.4" transform="matrix(0.1311 0.9914 -0.9914 0.1311 75.189 12.289)" class="st3" width="1.46" height="3.27"/>
				</g>
				<g>
					<g>
						<polygon class="st705" points="40.89,59.42 36.77,47.87 38.85,46.95 44.53,58.85 45.11,62.34 41.33,62.68 						"/>
						<path class="st705" d="M44.48,70.73c-1.09,0.18-2.11-0.56-2.29-1.64l-0.86-6.41l3.78-0.34l1.2,5.6
							C46.49,69.03,45.56,70.55,44.48,70.73z"/>
					</g>
					<path class="st779" d="M36.95,48.36c0,0-2.22-3.74-1.39-3.17c0.91,0.63,1.33,1.04,1.33,1.04s-0.54-3.14,0.13-3
						c0.68,0.14,1.35,0.72,1.53,1.71c0.22,1.2,0.41,2.49,0.41,2.49L36.95,48.36z"/>
					
						<rect x="37.3" y="46.33" transform="matrix(0.3711 0.9286 -0.9286 0.3711 68.4544 -5.1497)" class="st3" width="1.46" height="3.27"/>
				</g>
				<polygon class="st779" points="37.76,60.86 38.04,67.36 41.6,66.22 39.92,60.29 				"/>
				<path class="st705" d="M42.63,64.02l-1.3-1.34c0,0-0.16,0.63-0.86,1.56c-0.36,0.48-2.08,0.18-2.56-0.19
					c-1.67-1.29-3.46-3.01-3.46-3.01l1.64,3.89l-0.89,0.19v0.12l1.33,3.15c0,0,6.53-0.53,6.53-0.66s0.16-3.76,0.16-3.76L42.63,64.02
					z"/>
			</g>
			<g>
				<path class="st738" d="M47.56,88.72c1.21-6.19-1.23-10.46-1.23-10.46c-3.65,2.03-10.85,1.56-10.85,1.56l-1.02,9.54L33.9,99.94
					c0,0,0.24,5.92,2.73,13.78l2.82-0.45c0,0,0.51-5.58-0.44-13.55c0,0,1.41-5.69,2.18-8.63c0.05-0.19,0.89-0.5,0.93-0.67
					l-1.81,9.99c0,0,0.74,4.8,2.67,13.21l2.46-0.36c0,0,1.15-5.77,0.01-13.38C45.44,99.89,47.4,95.56,47.56,88.72z"/>
				<polygon class="st779" points="36.63,113.72 37.16,115.45 39.12,115.3 39.11,113.35 				"/>
				<g>
					<path class="st784" d="M33.59,118.04c0,0,0.02-1.16,2.21-1.53c1.16-0.19,0.56-1.05,0.56-1.05l2.16-0.66l-2.06,3.62
						L33.59,118.04z"/>
					<g>
						<path class="st785" d="M38.86,114.77c-1.45-0.01-1.35,1.23-1.57,2.02l0,0c0,0-1.02,1.47-3.21,1.3
							c0.52,0.07,1.36,0.19,2.02,0.28c0.67,0.09,1.35,0.05,2-0.13l1.22-0.33c0.71-0.39,1.48-3.07-0.34-3.14
							C38.94,114.77,38.9,114.77,38.86,114.77z"/>
						<path class="st785" d="M33.72,118.05c0.12,0.02,0.24,0.03,0.36,0.04C33.64,118.03,33.42,118.01,33.72,118.05z"/>
					</g>
				</g>
				<polygon class="st779" points="42.97,113.63 43.48,115.37 45.44,115.22 45.43,113.27 				"/>
				<g>
					<path class="st784" d="M39.91,117.96c0,0,0.02-1.16,2.21-1.53c1.16-0.19,0.56-1.05,0.56-1.05l2.16-0.66l-2.06,3.62
						L39.91,117.96z"/>
					<g>
						<path class="st785" d="M45.18,114.69c-1.45-0.01-1.35,1.23-1.57,2.02l0,0c0,0-1.02,1.47-3.21,1.3
							c0.52,0.07,1.36,0.19,2.02,0.28c0.67,0.09,1.35,0.05,2-0.13l1.22-0.33c0.71-0.39,1.48-3.07-0.34-3.14
							C45.26,114.69,45.22,114.69,45.18,114.69z"/>
						<path class="st785" d="M40.05,117.97c0.12,0.02,0.24,0.03,0.36,0.04C39.96,117.95,39.75,117.93,40.05,117.97z"/>
					</g>
				</g>
				<path class="st786" d="M36.43,116.14c0,0-1.03-0.62-0.8-0.3c0.23,0.32,0.79,0.36,0.79,0.36s-0.18,0.03-0.39,0.23
					c-0.22,0.21-0.53,0.11-0.53,0.11"/>
				<path class="st786" d="M42.84,116.14c0,0-1.03-0.62-0.8-0.3c0.23,0.32,0.79,0.36,0.79,0.36s-0.18,0.03-0.39,0.23
					c-0.22,0.21-0.53,0.11-0.53,0.11"/>
			</g>
			
				<rect x="36.04" y="112.57" transform="matrix(0.9941 -0.1083 0.1083 0.9941 -12.0497 4.767)" class="st774" width="3.68" height="1.55"/>
			
				<rect x="42.37" y="112.21" transform="matrix(0.9941 -0.1083 0.1083 0.9941 -11.9729 5.4505)" class="st774" width="3.68" height="1.55"/>
			<path class="st3" d="M37.69,63.26l-0.06,1.09c0,0,1.44,0.5,2.33,0.23c0.9-0.27,1.21-1.11,1.21-1.11l-0.3-0.81
				C40.88,62.67,40.07,63.95,37.69,63.26z"/>
			<path class="st787" d="M38.7,53.29c0,0-2.59,2.49-0.01,4.43c0,0,0.96,0.7-0.46,2.39c-0.29,0.35-0.29,0.85,0,1.19
				c0.86,1.01,2.73,2.48,4.73-0.63c0.93-1.44,1.05-3.14,0.28-4.14c-0.74-0.96-1.42-1.5-2.56-1.9C39.65,54.28,39.59,53.82,38.7,53.29
				z"/>
			<path class="st779" d="M39.63,58.7c0.16,0.32-0.02,0.74-0.42,0.95c-0.4,0.2-0.85,0.11-1.01-0.21c-0.17-0.32,0.02-0.74,0.42-0.95
				C39.01,58.28,39.46,58.38,39.63,58.7z"/>
			<path class="st705" d="M42.62,82.12l1.61,3.96c1.85-0.3,3.72-0.8,5.39-1.59l-3.5-17.36c0,0-10.97,0.65-12.91-1.4l0.52,20.47
				c0,0,3.69,0.53,8.05,0.17L42.62,82.12z"/>
		</g>
	</g>
	<path class="st705" d="M119.15,22.72c-2.62-2.37-4.67-1.12-5.74-0.5c-1.4,0.81-2.34,2.91-3.77,3.19c-1.2,0.23-1.96-1.09-3.25-0.75
		c-0.84,0.22-0.65,0.92-1.59,1.43c-1.39,0.76-2.46-0.29-3.7,0.45c-0.77,0.46-1.39,1.48-1.13,2.04c0.4,0.86,2.73,0.27,6.34,0.08
		c3.43-0.18,2.74,0.28,8,0.3c6.61,0.03,6.47-0.69,9.74-0.15c1.86,0.31,3.28,0.77,3.7,0.15c0.43-0.64-0.3-2.28-1.51-2.87
		c-1.47-0.72-2.46,0.68-4.83,0.45C120.3,26.43,121.03,24.42,119.15,22.72z"/>
	<path class="st705" d="M127.69,40.87c-1.88-1.7-3.35-0.8-4.12-0.36c-1.01,0.58-1.68,2.09-2.7,2.28c-0.86,0.16-1.4-0.78-2.33-0.54
		c-0.6,0.16-0.47,0.66-1.14,1.03c-0.99,0.55-1.77-0.2-2.65,0.32c-0.55,0.33-1,1.06-0.81,1.46c0.29,0.61,1.96,0.19,4.55,0.05
		c2.46-0.13,1.97,0.2,5.74,0.22c4.74,0.02,4.64-0.5,6.99-0.11c1.33,0.22,2.35,0.55,2.65,0.11c0.31-0.46-0.21-1.63-1.08-2.06
		c-1.05-0.51-1.76,0.49-3.47,0.32C128.52,43.54,129.04,42.09,127.69,40.87z"/>
	<path class="st705" d="M32.12,5.67c-1.88-1.7-3.35-0.8-4.12-0.36C27,5.89,26.32,7.41,25.3,7.6c-0.86,0.16-1.4-0.78-2.33-0.54
		c-0.6,0.16-0.47,0.66-1.14,1.03c-0.99,0.55-1.77-0.2-2.65,0.32c-0.55,0.33-1,1.06-0.81,1.46c0.29,0.61,1.96,0.19,4.55,0.05
		c2.46-0.13,1.97,0.2,5.74,0.22c4.74,0.02,4.64-0.5,6.99-0.11c1.33,0.22,2.35,0.55,2.65,0.11c0.31-0.46-0.21-1.63-1.08-2.06
		c-1.05-0.51-1.76,0.49-3.47,0.32C32.95,8.34,33.47,6.89,32.12,5.67z"/>
</g>
</svg>
