<?xml version="1.0" encoding="utf-8"?>
<!-- Generator: Adobe Illustrator 25.3.1, SVG Export Plug-In . SVG Version: 6.00 Build 0)  -->
<svg version="1.1" id="Layer_1" xmlns="http://www.w3.org/2000/svg" xmlns:xlink="http://www.w3.org/1999/xlink" x="0px" y="0px"
	 viewBox="0 0 126.29 92.62" style="enable-background:new 0 0 126.29 92.62;" xml:space="preserve">
<style type="text/css">
	.st0{fill:#24487F;}
	.st1{fill:#8E8E8E;}
	.st2{fill:#FFFFFF;stroke:#8E8E8E;stroke-linecap:round;stroke-miterlimit:10;}
	.st3{fill:#FFFFFF;}
	.st4{fill:#4DB5D1;}
	.st5{fill:#60934D;}
	.st6{fill:#FFFFFF;stroke:#5F934D;stroke-linecap:round;stroke-miterlimit:10;}
	.st7{fill:#23497F;}
	.st8{fill:#FFFFFF;stroke:#23497F;stroke-linecap:round;stroke-miterlimit:10;}
	.st9{fill:url(#SVGID_1_);}
	.st10{fill:url(#SVGID_2_);}
	.st11{fill:url(#SVGID_3_);}
	.st12{fill:url(#SVGID_4_);}
	.st13{fill:#397BBF;}
	.st14{fill:#1466B1;}
	.st15{fill:#054F8C;}
	.st16{fill:url(#SVGID_5_);}
	.st17{fill:#EFA986;}
	.st18{fill:#152B3D;}
	.st19{fill:#62A9DC;}
	.st20{fill:#977332;}
	.st21{fill:#264480;}
	.st22{fill:#363B3D;}
	.st23{fill:#E45354;}
	.st24{fill:#F5F6F6;}
	.st25{fill:#1A5A8D;}
	.st26{fill:#2274B5;}
	.st27{fill:#3A88C8;}
	.st28{fill:#E3F3FC;}
	.st29{fill:#C5CCD1;}
	.st30{fill:#2A2C47;}
	.st31{fill:#E2D2CA;}
	.st32{fill:#434873;}
	.st33{fill:#3B4048;}
	.st34{fill:#323757;}
	.st35{fill:#81A358;}
	.st36{fill:#71A341;}
	.st37{fill:#618A3C;}
	.st38{fill:#87BD43;}
	.st39{fill:#7BA840;}
	.st40{fill:#70A341;}
	.st41{fill:#6A943E;}
	.st42{fill:#B2CF43;}
	.st43{fill:#9FB34D;}
	.st44{fill:url(#SVGID_6_);}
	.st45{filter:url(#Adobe_OpacityMaskFilter);}
	.st46{filter:url(#Adobe_OpacityMaskFilter_1_);}
	.st47{mask:url(#SVGID_7_);fill:url(#SVGID_8_);}
	.st48{fill:url(#SVGID_9_);}
	.st49{fill:#464443;}
	.st50{fill:#928783;}
	.st51{fill:#1D3C55;}
	.st52{fill:#152C3D;}
	.st53{fill:#A77961;}
	.st54{fill:#D8E9F7;}
	.st55{fill:#BFB2AC;}
	.st56{fill:#FED1A2;}
	.st57{fill:#B37953;}
	.st58{fill:#D6995E;}
	.st59{fill:#807167;}
	.st60{fill:#6E6760;}
	.st61{fill:#928880;}
	.st62{fill:#BC8552;}
	.st63{filter:url(#Adobe_OpacityMaskFilter_2_);}
	.st64{filter:url(#Adobe_OpacityMaskFilter_3_);}
	.st65{mask:url(#SVGID_10_);fill:url(#SVGID_11_);}
	.st66{fill:url(#SVGID_12_);}
	.st67{filter:url(#Adobe_OpacityMaskFilter_4_);}
	.st68{filter:url(#Adobe_OpacityMaskFilter_5_);}
	.st69{mask:url(#SVGID_13_);fill:url(#SVGID_14_);}
	.st70{fill:url(#SVGID_15_);}
	.st71{fill:#C3C8E5;}
	.st72{opacity:0.3;}
	.st73{fill:#F4F6FB;}
	.st74{fill:#E8E8F2;}
	.st75{fill:#D7D6E6;}
	.st76{fill:#F3F4F7;}
	.st77{fill:#FCFDFD;}
	.st78{filter:url(#Adobe_OpacityMaskFilter_6_);}
	.st79{mask:url(#SVGID_16_);}
	.st80{fill:#3F54A5;}
	.st81{fill:#A5A7D4;}
	.st82{fill:#B4BBDF;}
	.st83{fill:url(#SVGID_17_);}
	.st84{fill:#CED0E4;}
	.st85{fill:#EDF0F9;}
	.st86{opacity:0.5;fill:#CFD2D3;}
	.st87{opacity:0.5;fill:#A5A7AA;}
	.st88{fill:#332566;}
	.st89{fill:#FAAE42;}
	.st90{fill:#DFDFDE;}
	.st91{fill:#F6C6B1;}
	.st92{fill:#E8B8A9;}
	.st93{fill:#3D4592;}
	.st94{fill:url(#SVGID_18_);}
	.st95{fill:url(#SVGID_19_);}
	.st96{fill:url(#SVGID_20_);}
	.st97{fill:#112F41;}
	.st98{opacity:0.5;fill:#BDBCD8;}
	.st99{opacity:0.2;fill:#ED5B2A;}
	.st100{fill-rule:evenodd;clip-rule:evenodd;fill:#3E55A5;}
	.st101{fill:#2C1C28;}
	.st102{fill:#EE7762;}
	.st103{opacity:0.25;fill:#ED5B2A;}
	.st104{fill:#CD3046;}
	.st105{fill:#282B70;}
	.st106{fill:url(#SVGID_21_);}
	.st107{fill:url(#SVGID_22_);}
	.st108{fill:#212B46;}
	.st109{fill:#D2D2E9;}
	.st110{fill:#8F95CA;}
	.st111{fill:#BDBCD8;}
	.st112{fill:#F2F7F6;}
	.st113{fill:#C9C8DF;}
	.st114{fill:#E3E3EE;}
	.st115{fill:#FAF0F7;}
	.st116{fill:#FFFCFD;}
	.st117{fill:#E4A28B;}
	.st118{opacity:0.05;fill:#010101;}
	.st119{fill:#D9DDEC;}
	.st120{fill:#C6CBE7;}
	.st121{fill:#8A97CC;}
	.st122{fill:#DFE4F3;}
	.st123{fill:#D5A393;}
	.st124{fill:#182540;}
	.st125{fill:url(#SVGID_23_);}
	.st126{fill:#F1A993;}
	.st127{fill:#687094;}
	.st128{fill:#D7DBEF;}
	.st129{fill:#F4F4F8;}
	.st130{fill:#B2B9DE;}
	.st131{fill:#4D60AC;}
	.st132{fill:#8E97CB;}
	.st133{fill:#BCC6E5;}
	.st134{fill:#AAB9DF;}
	.st135{fill:#FFFBFD;}
	.st136{fill:#34479E;}
	.st137{opacity:0.2;}
	.st138{fill:#60848C;}
	.st139{fill:url(#SVGID_24_);}
	.st140{fill:#F36E5C;}
	.st141{fill:#85BEE7;}
	.st142{fill:#908F8F;}
	.st143{fill:#F1F0F0;}
	.st144{fill:url(#SVGID_25_);}
	.st145{fill:#CCCCCC;}
	.st146{fill:#F6F7FB;}
	.st147{fill:#E6E6E5;}
	.st148{fill:#F3F3F3;}
	.st149{fill:#EFF0F7;}
	.st150{fill:url(#SVGID_26_);}
	.st151{fill:url(#SVGID_27_);}
	.st152{fill:url(#SVGID_28_);}
	.st153{fill:url(#SVGID_29_);}
	.st154{fill:url(#SVGID_30_);}
	.st155{fill:url(#SVGID_31_);}
	.st156{fill:#3D426A;}
	.st157{fill:#252840;}
	.st158{fill:#C4B4AF;}
	.st159{fill:#EA4747;}
	.st160{fill:#6B7BBC;}
	.st161{fill:#5266AF;}
	.st162{fill:#5062AD;}
	.st163{fill:#EDDAD3;}
	.st164{fill:#DECDC7;}
	.st165{fill:#E3D1CA;}
	.st166{fill:#B39595;}
	.st167{fill:#DBB8B8;}
	.st168{fill:#F1CCCB;}
	.st169{fill:#323538;}
	.st170{fill:#EFAA88;}
	.st171{fill:#1D2133;}
	.st172{fill:#EFAA87;}
	.st173{fill:#D88A51;}
	.st174{fill:#C68D71;}
	.st175{fill:#A19FA7;}
	.st176{fill:#EAE6F1;}
	.st177{fill:#3B4167;}
	.st178{fill:#DE9674;}
	.st179{fill:#764937;}
	.st180{fill:#5D554E;}
	.st181{fill:#3D4246;}
	.st182{fill:#FFD356;}
	.st183{fill:url(#SVGID_32_);}
	.st184{fill:url(#SVGID_33_);}
	.st185{fill:url(#SVGID_34_);}
	.st186{fill:url(#SVGID_35_);}
	.st187{fill:url(#SVGID_36_);}
	.st188{fill:url(#SVGID_37_);}
	.st189{opacity:0.5;}
	.st190{fill:#FCEACF;}
	.st191{opacity:0.8;}
	.st192{fill:#D4EEF6;}
	.st193{fill:#3AA1C9;}
	.st194{fill:#3F9896;}
	.st195{fill:#7FC6A6;}
	.st196{fill:#DEF2FD;}
	.st197{fill:#223849;}
	.st198{fill:#B4E3F7;}
	.st199{fill:#F89F74;}
	.st200{fill:#E33F3E;}
	.st201{fill:#482B32;}
	.st202{fill:#D8E4F4;}
	.st203{fill:#683E47;}
	.st204{fill:#3788BA;}
	.st205{fill:#22131E;}
	.st206{fill:#FAB59D;}
	.st207{fill:#CC2327;}
	.st208{fill:#E2F3F1;}
	.st209{fill:#F07163;}
	.st210{fill:#49273F;}
	.st211{fill:#4C232E;}
	.st212{fill:#010101;}
	.st213{fill:#F7956E;}
	.st214{fill:#F68D64;}
	.st215{fill:#F27584;}
	.st216{fill:#4EB8D9;}
	.st217{fill:#EF4751;}
	.st218{fill:#ACC7E8;}
	.st219{fill:#268E8D;}
	.st220{fill:#3A1F33;}
	.st221{fill:#FECC87;}
	.st222{fill:#FBB359;}
	.st223{fill:#331A2C;}
	.st224{fill:#FDC886;}
	.st225{fill:#F7934B;}
	.st226{fill:#F04D65;}
	.st227{fill:#F6D6B2;}
	.st228{fill:#61A3C5;}
	.st229{fill:#B1D89B;}
	.st230{fill:#A8C8E5;}
	.st231{fill:#C1D1EC;}
	.st232{fill:#F2AC40;}
	.st233{fill:#3B57A6;}
	.st234{fill:#C2D5EE;}
	.st235{fill:#A9C4E6;}
	.st236{fill:#2D572A;}
	.st237{fill:#274392;}
	.st238{fill:#95B0DB;}
	.st239{fill:#BFBFBF;}
	.st240{fill:#E9F3FB;}
	.st241{fill:#6B81C0;}
	.st242{fill:#8FB1DD;}
	.st243{fill:#F58765;}
	.st244{fill:#2C1913;}
	.st245{fill:#6A3F31;}
	.st246{fill:#F37559;}
	.st247{fill:#F47A55;}
	.st248{fill:#E0B3A8;}
	.st249{fill:#D9D9D9;}
	.st250{fill:#C6DD74;}
	.st251{fill:#9FCB5F;}
	.st252{fill:#7C9D48;}
	.st253{fill:#E7E7E7;}
	.st254{fill:#F2C791;}
	.st255{fill:#B7B7B7;}
	.st256{fill:#7595CD;}
	.st257{fill:#FAB18D;}
	.st258{fill:#F6977C;}
	.st259{fill:#D1E28C;}
	.st260{fill:none;}
	.st261{fill:#1B1B1C;}
	.st262{fill:#F47E46;}
	.st263{fill:#EB6828;}
	.st264{fill:#F79668;}
	.st265{fill:#E6B54E;}
	.st266{fill:#676767;}
	.st267{fill:#4D4C4C;}
	.st268{fill:#F27070;}
	.st269{fill:#C24D4D;}
	.st270{enable-background:new    ;}
	.st271{fill:#C39B6A;}
	.st272{fill:#C9A475;}
	.st273{fill:#E6B880;}
	.st274{fill:#9F3D3E;}
	.st275{fill:#FFD679;}
	.st276{fill:#F4805D;}
	.st277{fill:#DA5958;}
	.st278{fill:#7D3D20;}
	.st279{fill:#562915;}
	.st280{fill:#B15931;}
	.st281{fill:#5076BA;}
	.st282{fill:#59ADC0;}
	.st283{fill:#099895;}
	.st284{fill:#F5AE87;}
	.st285{fill:#D9504F;}
	.st286{fill:#FCC79A;}
	.st287{fill:#FFDC7B;}
	.st288{fill:#F15958;}
	.st289{fill:#674E46;}
	.st290{fill:#785D51;}
	.st291{clip-path:url(#SVGID_39_);fill:#60934D;}
	.st292{clip-path:url(#SVGID_39_);}
	.st293{fill:#BD725F;}
	.st294{fill:#E6F1D1;}
	.st295{fill:#A86046;}
	.st296{fill:#3C251D;}
	.st297{fill:#4A413F;}
	.st298{fill:#716765;}
	.st299{fill:#EEBD7F;}
	.st300{fill:#7DA594;}
	.st301{fill:#252433;}
	.st302{fill:#F7E6C7;}
	.st303{fill:#E79F90;}
	.st304{fill:#CC4A38;}
	.st305{fill:#333333;}
	.st306{fill:#E1755E;}
	.st307{fill:#E8A180;}
	.st308{fill:#694136;}
	.st309{fill:#C06360;}
	.st310{fill:#CD5A5A;}
	.st311{fill:#E17660;}
	.st312{opacity:0.42;}
	.st313{fill-rule:evenodd;clip-rule:evenodd;fill:#B1D89B;}
	.st314{clip-path:url(#SVGID_41_);fill:#92B779;}
	.st315{clip-path:url(#SVGID_43_);fill:url(#SVGID_44_);}
	.st316{fill-rule:evenodd;clip-rule:evenodd;fill:#60934D;}
	.st317{clip-path:url(#SVGID_46_);fill:url(#SVGID_47_);}
	.st318{fill-rule:evenodd;clip-rule:evenodd;fill:#274CA1;}
	.st319{clip-path:url(#SVGID_49_);fill:url(#SVGID_50_);}
	.st320{clip-path:url(#SVGID_52_);fill:url(#SVGID_53_);}
	.st321{fill-rule:evenodd;clip-rule:evenodd;fill:#F3AF8F;}
	.st322{fill-rule:evenodd;clip-rule:evenodd;fill:#6E2D5F;}
	.st323{fill-rule:evenodd;clip-rule:evenodd;fill:#4D1942;}
	.st324{fill-rule:evenodd;clip-rule:evenodd;fill:#101841;}
	.st325{fill-rule:evenodd;clip-rule:evenodd;fill:#144984;}
	.st326{fill-rule:evenodd;clip-rule:evenodd;fill:#35AD82;}
	.st327{fill-rule:evenodd;clip-rule:evenodd;fill:#198C67;}
	.st328{fill-rule:evenodd;clip-rule:evenodd;fill:#F6C1C5;}
	.st329{fill-rule:evenodd;clip-rule:evenodd;fill:#53B9E9;}
	.st330{fill-rule:evenodd;clip-rule:evenodd;fill:#7DD3F7;}
	.st331{clip-path:url(#SVGID_55_);fill:url(#SVGID_56_);}
	.st332{clip-path:url(#SVGID_58_);fill:url(#SVGID_59_);}
	.st333{fill-rule:evenodd;clip-rule:evenodd;fill:#3DB4E8;}
	.st334{clip-path:url(#SVGID_61_);fill:url(#SVGID_62_);}
	.st335{fill-rule:evenodd;clip-rule:evenodd;fill:#F4FBFE;}
	.st336{fill-rule:evenodd;clip-rule:evenodd;fill:#F4B1B1;}
	.st337{fill-rule:evenodd;clip-rule:evenodd;fill:#D4EAD8;}
	.st338{fill-rule:evenodd;clip-rule:evenodd;fill:#E16C6C;}
	.st339{clip-path:url(#SVGID_64_);fill:url(#SVGID_65_);}
	.st340{clip-path:url(#SVGID_67_);fill:url(#SVGID_68_);}
	.st341{clip-path:url(#SVGID_70_);fill:url(#SVGID_71_);}
	.st342{clip-path:url(#SVGID_73_);fill:url(#SVGID_74_);}
	.st343{clip-path:url(#SVGID_76_);fill:url(#SVGID_77_);}
	.st344{fill-rule:evenodd;clip-rule:evenodd;fill:#316CB5;}
	.st345{clip-path:url(#SVGID_79_);fill:url(#SVGID_80_);}
	.st346{fill-rule:evenodd;clip-rule:evenodd;fill:#DF5D7B;}
	.st347{clip-path:url(#SVGID_82_);fill:url(#SVGID_83_);}
	.st348{fill-rule:evenodd;clip-rule:evenodd;fill:#2D572A;}
	.st349{clip-path:url(#SVGID_85_);fill:#60934D;}
	.st350{clip-path:url(#SVGID_87_);fill:url(#SVGID_88_);}
	.st351{clip-path:url(#SVGID_90_);fill:url(#SVGID_91_);}
	.st352{clip-path:url(#SVGID_93_);fill:url(#SVGID_94_);}
	.st353{fill:url(#SVGID_95_);}
	.st354{filter:url(#Adobe_OpacityMaskFilter_7_);}
	.st355{filter:url(#Adobe_OpacityMaskFilter_8_);}
	.st356{mask:url(#SVGID_96_);fill:url(#SVGID_97_);}
	.st357{fill:url(#SVGID_98_);}
	.st358{fill:none;stroke:#FFFFFF;stroke-miterlimit:10;}
	.st359{fill:url(#SVGID_99_);}
	.st360{filter:url(#Adobe_OpacityMaskFilter_9_);}
	.st361{filter:url(#Adobe_OpacityMaskFilter_10_);}
	.st362{mask:url(#SVGID_100_);fill:url(#SVGID_101_);}
	.st363{fill:url(#SVGID_102_);}
	.st364{fill:url(#SVGID_103_);}
	.st365{filter:url(#Adobe_OpacityMaskFilter_11_);}
	.st366{filter:url(#Adobe_OpacityMaskFilter_12_);}
	.st367{mask:url(#SVGID_104_);fill:url(#SVGID_105_);}
	.st368{fill:url(#SVGID_106_);}
	.st369{fill:url(#SVGID_107_);}
	.st370{filter:url(#Adobe_OpacityMaskFilter_13_);}
	.st371{filter:url(#Adobe_OpacityMaskFilter_14_);}
	.st372{mask:url(#SVGID_108_);fill:url(#SVGID_109_);}
	.st373{fill:url(#SVGID_110_);}
	.st374{fill:url(#SVGID_111_);}
	.st375{fill:url(#SVGID_112_);}
	.st376{fill:url(#SVGID_113_);}
	.st377{fill:url(#SVGID_114_);}
	.st378{fill:url(#SVGID_115_);}
	.st379{fill:url(#SVGID_116_);}
	.st380{fill:#FBC5B4;}
	.st381{fill:url(#SVGID_117_);}
	.st382{fill:url(#SVGID_118_);}
	.st383{filter:url(#Adobe_OpacityMaskFilter_15_);}
	.st384{filter:url(#Adobe_OpacityMaskFilter_16_);}
	.st385{mask:url(#SVGID_119_);fill:url(#SVGID_120_);}
	.st386{fill:url(#SVGID_121_);}
	.st387{fill:url(#SVGID_122_);}
	.st388{filter:url(#Adobe_OpacityMaskFilter_17_);}
	.st389{filter:url(#Adobe_OpacityMaskFilter_18_);}
	.st390{mask:url(#SVGID_123_);fill:url(#SVGID_124_);}
	.st391{fill:url(#SVGID_125_);}
	.st392{fill:url(#SVGID_126_);}
	.st393{fill:#F69575;}
	.st394{fill:url(#SVGID_127_);}
	.st395{fill:url(#SVGID_128_);}
	.st396{fill:url(#SVGID_129_);}
	.st397{fill:url(#SVGID_130_);}
	.st398{fill:url(#SVGID_131_);}
	.st399{fill:#F05253;}
	.st400{fill:#ED1C24;}
	.st401{fill:url(#SVGID_132_);}
	.st402{fill:url(#SVGID_133_);}
	.st403{fill:url(#SVGID_134_);}
	.st404{fill:url(#SVGID_135_);}
	.st405{fill:url(#SVGID_136_);}
	.st406{fill:url(#SVGID_137_);}
	.st407{fill:#FDC78D;}
	.st408{fill:#FFD10A;}
	.st409{fill:url(#SVGID_138_);}
	.st410{fill:url(#SVGID_139_);}
	.st411{fill:url(#SVGID_140_);}
	.st412{fill:#6899D1;}
	.st413{fill:#F4F4F4;}
	.st414{fill:#DAEEF6;}
	.st415{fill:url(#SVGID_141_);}
	.st416{fill:#85CEC1;}
	.st417{fill:url(#SVGID_142_);}
	.st418{fill:#F37878;}
	.st419{fill:url(#SVGID_143_);}
	.st420{fill:url(#SVGID_144_);}
	.st421{fill:url(#SVGID_145_);}
	.st422{fill:url(#SVGID_146_);}
	.st423{fill:url(#SVGID_147_);}
	.st424{fill:url(#SVGID_148_);}
	.st425{fill:url(#SVGID_149_);}
	.st426{fill:url(#SVGID_150_);}
	.st427{fill:url(#SVGID_151_);}
	.st428{fill:url(#SVGID_152_);}
	.st429{fill:url(#SVGID_153_);}
	.st430{fill:#F0EFEF;}
	.st431{fill:#DBD7D7;}
	.st432{fill:#63C7D3;}
	.st433{opacity:0.5;fill:#63C7D3;}
	.st434{fill:#E6E7F4;}
	.st435{fill:#23214D;}
	.st436{fill:#283996;}
	.st437{fill:#1B193A;}
	.st438{fill:#F68D63;}
	.st439{fill:#F9A575;}
	.st440{fill:#FEDA04;}
	.st441{fill:#312126;}
	.st442{fill:#F15F4B;}
	.st443{fill:#F15834;}
	.st444{fill:#EC4524;}
	.st445{fill:#F26B76;}
	.st446{fill:#4D5BA9;}
	.st447{fill:#2D327E;}
	.st448{fill:#39469D;}
	.st449{fill:#9AC181;}
	.st450{fill:#7ED0DC;}
	.st451{display:none;}
	.st452{display:inline;fill:#F9A575;}
	.st453{display:inline;}
	.st454{fill:#673A3C;}
	.st455{fill:#794447;}
	.st456{fill:#47222C;}
	.st457{fill:#29275C;}
	.st458{fill:#57B0B9;}
	.st459{fill:#EF434E;}
	.st460{fill:#E24826;}
	.st461{fill:#4754A5;}
	.st462{fill:#B6C153;}
	.st463{fill:#DD4361;}
	.st464{fill:#FBB67B;}
	.st465{fill:#F6EEEA;}
	.st466{fill:#251D1C;}
	.st467{fill:#E0B895;}
	.st468{fill:#DFB793;}
	.st469{fill:#B8A79D;}
	.st470{fill:#9B93C7;}
	.st471{fill:#6A8037;}
	.st472{fill:#E9633E;}
	.st473{fill:#F6936F;}
	.st474{fill:#DBD8EC;}
	.st475{fill:#221A19;}
	.st476{fill:#382621;}
	.st477{fill:#F7EFEC;}
	.st478{fill:#FBB67C;}
	.st479{fill:#70CACA;}
	.st480{fill:#004669;}
	.st481{fill:#33ADA9;}
	.st482{fill:#EE777A;}
	.st483{fill:#C3E8F0;}
	.st484{fill:#C39C44;}
	.st485{fill:#FFE6B0;}
	.st486{fill:#FFCB5D;}
	.st487{fill:#D2EDF5;}
	.st488{fill:none;stroke:#D2EDF5;stroke-width:2.2824;stroke-miterlimit:10;}
	.st489{fill:#0F4672;}
	.st490{fill:#92B779;}
	.st491{fill:#D47C60;}
	.st492{fill:#054A6E;}
	.st493{fill:#2B9996;}
	.st494{fill:#CAE9EB;}
	.st495{fill:#F7A581;}
	.st496{fill:#F18D24;}
	.st497{fill:#CF7929;}
	.st498{fill:#182F40;}
	.st499{fill:#0E1B2D;}
	.st500{fill:#406E34;}
	.st501{fill:#3B83B0;}
	.st502{fill:#3B3F4A;}
	.st503{fill:#242930;}
	.st504{fill:#FBD165;}
	.st505{fill:#FCB017;}
	.st506{fill:#155567;}
	.st507{fill:#236A7E;}
	.st508{fill:#3096B3;}
	.st509{fill:#84D2F6;}
	.st510{fill:#C4E4F8;}
	.st511{fill:#FCB774;}
	.st512{fill:#FAA31B;}
	.st513{fill:#E38D25;}
	.st514{fill:#AADFF3;}
	.st515{fill:#126E84;}
	.st516{fill:#064A56;}
	.st517{fill:#096D84;}
	.st518{fill:#D3CED9;}
	.st519{fill:#D89466;}
	.st520{fill:#FAA61A;}
	.st521{fill:#AA6549;}
	.st522{fill:#B35143;}
	.st523{fill:#3B3E54;}
	.st524{fill:#8A432D;}
	.st525{fill:#4C2F2C;}
	.st526{fill:#3C1C19;}
	.st527{fill:#9889C1;}
	.st528{fill:#CC8759;}
	.st529{fill:#665DA9;}
	.st530{fill:#5C2B20;}
	.st531{fill:#F4F5F0;}
	.st532{fill:#E04A95;}
	.st533{fill:#BC6944;}
	.st534{fill:#673021;}
	.st535{fill:#C4C2DF;}
	.st536{fill:#342B29;}
	.st537{fill:#E69F6F;}
	.st538{fill:#F173AC;}
	.st539{fill:#FAA43A;}
	.st540{fill:#F7F7FA;}
	.st541{fill:#3F4076;}
	.st542{fill:#5CA4DA;}
	.st543{fill:#BBD071;}
	.st544{fill:#97A33B;}
	.st545{fill:#49763A;}
	.st546{fill:#E5F2FC;}
	.st547{opacity:0.85;}
	.st548{fill:#4692CF;}
	.st549{fill:#0E2D3D;}
	.st550{fill:#5478B4;}
	.st551{fill:#5B83C3;}
	.st552{fill:#304664;}
	.st553{fill:#364D71;}
	.st554{fill:#2C3B57;}
	.st555{fill:#D5D8E8;}
	.st556{opacity:0.82;}
	.st557{fill:#418ECC;}
	.st558{fill:#173342;}
	.st559{fill:#295274;}
	.st560{fill:#F47D58;}
	.st561{fill:#183C59;}
	.st562{fill:#616262;}
	.st563{fill:#E0CFC8;}
	.st564{fill:#64A8DC;}
	.st565{opacity:0.66;}
	.st566{fill:#CBE1F5;}
	.st567{fill:#8CB6E1;}
	.st568{fill:#B5D3EF;}
	.st569{fill:#B8D8F2;}
	.st570{fill:#92B4DF;}
	.st571{fill:#BBDDDE;}
	.st572{fill:#D1ECED;}
	.st573{fill:#C8CBE2;}
	.st574{fill:#669AD2;}
	.st575{fill:#4D84C5;}
	.st576{fill:#181C4D;}
	.st577{fill:#EFBBBB;}
	.st578{fill:#F9CBCB;}
	.st579{fill:#2B3874;}
	.st580{fill:#EBAEAD;}
	.st581{fill:#21295D;}
	.st582{fill:#31344D;}
	.st583{fill:#FCD4D1;}
	.st584{fill:#B95050;}
	.st585{fill:#FEE9E2;}
	.st586{fill:#181A2E;}
	.st587{fill:#EB9B9C;}
	.st588{fill:#F9B7B3;}
	.st589{fill:#444C86;}
	.st590{fill:#2B3367;}
	.st591{fill:#93BAE3;}
	.st592{fill:#4B80C1;}
	.st593{fill:#396CAD;}
	.st594{fill:#C0D9F1;}
	.st595{fill:#F9B4AF;}
	.st596{fill:#4E88C7;}
	.st597{fill:#195595;}
	.st598{fill:#D9475A;}
	.st599{fill:#1172BA;}
	.st600{fill:#247BBC;}
	.st601{fill:#FAA71F;}
	.st602{fill:#D55127;}
	.st603{fill:none;stroke:#212F57;stroke-width:0.925;stroke-miterlimit:10;}
	.st604{fill:#212F57;}
	.st605{opacity:0.5;fill:#838DC5;}
	.st606{fill:#F2C7BD;}
	.st607{fill:none;stroke:#212F57;stroke-width:1.2665;stroke-linecap:round;stroke-linejoin:round;stroke-miterlimit:10;}
	.st608{fill:#272A41;}
	.st609{fill:none;stroke:#E8B1C3;stroke-width:2.5241;stroke-miterlimit:10;}
	.st610{fill:#5160A5;}
	.st611{opacity:0.5;fill:#D55127;}
	.st612{opacity:0.5;fill:#DA8727;}
	.st613{opacity:0.7;}
	.st614{fill:#DA8727;}
	.st615{fill:#A3BDE3;}
	.st616{fill:#1B7A84;}
	.st617{fill:#B1D2EF;}
	.st618{fill:#F8ACAD;}
	.st619{opacity:0.63;}
	.st620{clip-path:url(#SVGID_155_);}
	.st621{fill:#D7E7F6;}
	.st622{clip-path:url(#SVGID_157_);}
	.st623{clip-path:url(#SVGID_159_);}
	.st624{clip-path:url(#SVGID_161_);}
	.st625{clip-path:url(#SVGID_163_);}
	.st626{clip-path:url(#SVGID_165_);}
	.st627{clip-path:url(#SVGID_167_);}
	.st628{clip-path:url(#SVGID_169_);}
	.st629{clip-path:url(#SVGID_171_);}
	.st630{clip-path:url(#SVGID_173_);}
	.st631{clip-path:url(#SVGID_175_);}
	.st632{clip-path:url(#SVGID_177_);}
	.st633{clip-path:url(#SVGID_179_);}
	.st634{clip-path:url(#SVGID_181_);}
	.st635{clip-path:url(#SVGID_183_);}
	.st636{clip-path:url(#SVGID_185_);}
	.st637{clip-path:url(#SVGID_187_);}
	.st638{clip-path:url(#SVGID_189_);}
	.st639{clip-path:url(#SVGID_191_);}
	.st640{clip-path:url(#SVGID_193_);}
	.st641{clip-path:url(#SVGID_195_);}
	.st642{fill:#89B2DF;}
	.st643{fill:#4377BC;}
	.st644{fill:#DA6566;}
	.st645{fill:#F58E92;}
	.st646{fill-rule:evenodd;clip-rule:evenodd;fill:#4DB5D1;}
	.st647{fill:#F15C60;}
	.st648{fill:#FFD574;}
	.st649{fill:#F2B892;}
	.st650{fill:#EB836C;}
	.st651{fill:url(#SVGID_196_);}
	.st652{fill:#222C55;}
	.st653{fill:#4551A3;}
	.st654{fill:url(#SVGID_197_);}
	.st655{fill:#0B3C5F;}
	.st656{fill:#F8A187;}
	.st657{fill:#F4B68F;}
	.st658{fill:#232850;}
	.st659{fill:#306D9E;}
	.st660{fill:#255981;}
	.st661{fill:#F69E83;}
	.st662{fill:#0B3D60;}
	.st663{opacity:0.45;fill:#89B2DF;}
	.st664{filter:url(#Adobe_OpacityMaskFilter_19_);}
	.st665{filter:url(#Adobe_OpacityMaskFilter_20_);}
	.st666{mask:url(#SVGID_198_);fill:url(#SVGID_199_);}
	.st667{opacity:0.33;fill:#AADFF3;}
	.st668{filter:url(#Adobe_OpacityMaskFilter_21_);}
	.st669{filter:url(#Adobe_OpacityMaskFilter_22_);}
	.st670{mask:url(#SVGID_200_);fill:url(#SVGID_201_);}
	.st671{filter:url(#Adobe_OpacityMaskFilter_23_);}
	.st672{filter:url(#Adobe_OpacityMaskFilter_24_);}
	.st673{mask:url(#SVGID_202_);fill:url(#SVGID_203_);}
	.st674{fill:#CFD8EE;}
	.st675{fill:#E3E6F4;}
	.st676{fill:#ABBADF;}
	.st677{fill:#C3CCE8;}
	.st678{fill:url(#SVGID_204_);}
	.st679{fill:url(#SVGID_205_);}
	.st680{fill:#D3D0E9;}
	.st681{fill:#078BBF;}
	.st682{fill:#057B97;}
	.st683{fill:url(#SVGID_206_);}
	.st684{fill:#C74534;}
	.st685{fill:#F27B66;}
	.st686{fill:#58449B;}
	.st687{fill:#6B52A2;}
	.st688{fill:#A9A6D2;}
	.st689{fill:#C4C0E0;}
	.st690{opacity:0.33;}
	.st691{opacity:0.23;fill:url(#SVGID_207_);}
	.st692{opacity:0.36;fill:url(#SVGID_208_);}
	.st693{opacity:0.36;fill:url(#SVGID_209_);}
	.st694{opacity:0.23;fill:url(#SVGID_210_);}
	.st695{fill:#D8E0F2;}
	.st696{opacity:0.36;fill:url(#SVGID_211_);}
	.st697{opacity:0.42;fill:url(#SVGID_212_);}
	.st698{fill:#F6F9FD;}
	.st699{fill:#049AC9;}
	.st700{fill:#E0E0E0;}
	.st701{fill:#EBEBEB;}
	.st702{fill:none;stroke:#F2A59D;stroke-width:0.05;stroke-miterlimit:10;}
	.st703{fill:#FAFBFB;}
	.st704{fill:#E7515B;}
	.st705{fill:#CFCFCE;}
	.st706{fill:#FBBD9D;}
	.st707{fill:#EC996F;}
	.st708{opacity:0.6;fill:#FFFFFF;}
	.st709{opacity:0.6;}
	.st710{fill:#263238;}
	.st711{fill:#455B64;}
	.st712{fill:none;stroke:#43494E;stroke-miterlimit:10;}
	.st713{fill:#F5F5F5;}
	.st714{fill:#F3725F;}
	.st715{opacity:0;}
	.st716{clip-path:url(#SVGID_214_);}
	.st717{fill:#C9D8EF;}
	.st718{clip-path:url(#SVGID_216_);}
	.st719{clip-path:url(#SVGID_218_);}
	.st720{clip-path:url(#SVGID_220_);}
	.st721{clip-path:url(#SVGID_222_);}
	.st722{clip-path:url(#SVGID_224_);}
	.st723{clip-path:url(#SVGID_226_);}
	.st724{clip-path:url(#SVGID_228_);}
	.st725{clip-path:url(#SVGID_230_);}
	.st726{clip-path:url(#SVGID_232_);}
	.st727{clip-path:url(#SVGID_234_);}
	.st728{clip-path:url(#SVGID_236_);}
	.st729{clip-path:url(#SVGID_238_);}
	.st730{clip-path:url(#SVGID_240_);}
	.st731{clip-path:url(#SVGID_242_);}
	.st732{clip-path:url(#SVGID_244_);}
	.st733{clip-path:url(#SVGID_246_);}
	.st734{clip-path:url(#SVGID_248_);}
	.st735{clip-path:url(#SVGID_250_);}
	.st736{clip-path:url(#SVGID_252_);}
	.st737{clip-path:url(#SVGID_254_);}
	.st738{fill:#59595B;}
	.st739{fill:#EDF7F7;}
	.st740{fill:#FDD247;}
	.st741{fill:#1D2040;}
	.st742{fill:url(#SVGID_255_);}
	.st743{fill:#F89A45;}
	.st744{fill:#4F2E1F;}
	.st745{fill:#AEADAD;}
	.st746{fill:#3C2116;}
	.st747{fill:#76696D;}
	.st748{fill:#DFB0B4;}
	.st749{fill:#0E4363;}
	.st750{fill:#F8F6F1;}
	.st751{fill:#A4BAE1;}
	.st752{fill:#4D1F38;}
	.st753{fill:#3A1528;}
	.st754{fill:#746875;}
	.st755{fill:#DAADD1;}
	.st756{fill:url(#SVGID_256_);}
	.st757{fill:#CD3570;}
	.st758{fill:url(#SVGID_257_);}
	.st759{fill:url(#SVGID_258_);}
	.st760{fill:#A09F9F;}
	.st761{fill:none;stroke:#FFFFFF;stroke-linecap:round;stroke-miterlimit:10;}
	.st762{fill:none;stroke:#FFFFFF;stroke-linecap:round;stroke-linejoin:round;stroke-miterlimit:10;}
	.st763{fill:none;stroke:#A09F9F;stroke-miterlimit:10;}
	.st764{fill:#7B553A;}
	.st765{fill:#5F422D;}
	.st766{fill:#FDB839;}
	.st767{fill:#401B0F;}
	.st768{fill:#034B4E;}
	.st769{opacity:0.36;}
	.st770{opacity:0.1;fill:#CFCFCE;}
	.st771{opacity:0.15;}
	.st772{fill:#FBB781;}
	.st773{fill:#49A8D5;}
	.st774{fill:#077679;}
	.st775{opacity:0.1;}
	.st776{fill:#BEE0C0;}
	.st777{opacity:0.23;fill:#245C74;}
	.st778{fill:#245C74;}
	.st779{fill:#FCC69B;}
	.st780{fill:#DBA285;}
	.st781{fill:#757576;}
	.st782{fill:#ABABAA;}
	.st783{fill:#6F6F71;}
	.st784{fill:#FFCA70;}
	.st785{fill:#FAA325;}
	.st786{fill:none;stroke:#077679;stroke-width:0.25;stroke-linecap:round;stroke-linejoin:round;stroke-miterlimit:10;}
	.st787{fill:#963A20;}
	.st788{fill:#E2E2E2;}
	.st789{fill:#18184B;}
	.st790{fill:#F8B6C9;}
	.st791{fill:#F58531;}
	.st792{fill:#759CD2;}
	.st793{fill:#BACFEB;}
</style>
<g>
	<g>
		<path class="st788" d="M-585.17-24.5c-4.87,0-9.25,2.7-11.05,6.8c-2.37-0.86-4.87-1.31-7.39-1.32c-5.79,0-11.34,2.3-15.43,6.39
			c-7.24,8.15-6.89,14.99-3.3,23.59c-3.19,1.86-5.15,5.27-5.15,8.96c0,0.32,0.02,0.63,0.05,0.95h74.65c-0.21-2.66-1.21-5.2-2.86-7.3
			c1.21-1.94,1.85-4.17,1.86-6.46c-0.01-4.76-2.77-9.09-7.1-11.09c0.62-1.46,0.94-3.03,0.94-4.61c0-3.12-1.24-6.12-3.45-8.33
			c-2.21-2.21-5.21-3.45-8.33-3.45c-1.23,0-2.44,0.2-3.61,0.58C-577.55-22.73-581.23-24.5-585.17-24.5L-585.17-24.5z"/>
	</g>
	<g>
		<rect x="-611.39" y="2.74" class="st3" width="27.98" height="22.78"/>
	</g>
	<g>
		<path class="st1" d="M-611.64,16.03c-1.37,0-2.65,0.7-3.4,1.84c-0.78-0.69-1.79-1.07-2.83-1.07c-2.28,0-4.17,1.78-4.3,4.06h24.89
			c-0.4-1.33-1.62-2.25-3.01-2.25c-1.16,0-2.23,0.64-2.77,1.67c-0.4-1.47-1.73-2.48-3.25-2.48c-0.6,0-1.18,0.16-1.69,0.46
			C-608.7,16.9-610.1,16.03-611.64,16.03z"/>
	</g>
	<g>
		<rect x="-594.84" y="10.25" class="st3" width="27.98" height="13.34"/>
	</g>
	<g>
		<polygon class="st789" points="-601.72,5.13 -601.05,-10.23 -592.99,-10.23 -592.52,5.04 -590.72,7.39 -594.02,7.39 -595.36,0.63 
			-596.82,-5.04 -598.81,0.65 -600.47,7.39 -603.69,7.39 		"/>
	</g>
	<g>
		<polygon class="st790" points="-597.09,-22.55 -596.44,-22.55 -595.38,-23.61 -595.38,-25.62 -597.71,-25.42 -597.71,-23.61 		"/>
	</g>
	<g>
		<path class="st782" d="M-588.57-30.11l-2.08,3.99l-2.02,1.51l-2.71,0.59v0.4c0,0-0.57,0.57-1.06,0.64
			c-0.49,0.07-1.26-0.64-1.26-0.64l0,0v-0.4l-1.77,1.24c0,0-0.66,0.52-1.61,1.03c0,0-1.03,0.63-1.36,1.48
			c-0.42,1.37,0.3,2.77,0.5,4.42h-4.3l0.09,1.17c0,0,3.54,1.25,4.25,1.31c0.43,0.04,0.71-0.07,0.85-0.16v3.3h2.84h1.48h1.85h1.89
			c-0.04-3.37,0.21-9.55,0.21-9.55s2.7-2.55,3.61-4.24c0.91-1.68,1.69-5.67,1.69-5.67L-588.57-30.11z"/>
	</g>
	<g>
		<path class="st790" d="M-596.71-31.2c-1.25,0-2.26,1.01-2.26,2.27v1.01l0,0c-0.46,0-0.83,0.37-0.83,0.83
			c0,0.46,0.37,0.83,0.83,0.83h0h0.01c0.11,1.16,1.07,2.05,2.25,2.05c1.18,0,2.14-0.9,2.25-2.05h0.01c0.46,0,0.83-0.37,0.83-0.83
			c0-0.46-0.37-0.83-0.83-0.83h0v-1.01C-594.45-30.19-595.45-31.2-596.71-31.2L-596.71-31.2z"/>
	</g>
	<g>
		<path class="st789" d="M-601.24-19.38c-0.06,0-0.11,0.03-0.13,0.08c-0.03,0.05-0.03,0.11,0,0.16l0.33,0.57v8.34
			c0,0.06,0.03,0.11,0.08,0.14c0.05,0.03,0.11,0.03,0.16,0c0.05-0.03,0.08-0.08,0.08-0.14v-8.38c0-0.03-0.01-0.06-0.02-0.08
			l-0.35-0.6C-601.13-19.35-601.18-19.38-601.24-19.38L-601.24-19.38z"/>
	</g>
	<g>
		<path class="st1" d="M-568.69,16.03c1.37,0,2.65,0.7,3.4,1.84c0.78-0.69,1.79-1.07,2.83-1.07c2.28,0,4.17,1.78,4.3,4.06h-24.89
			c0.4-1.33,1.62-2.25,3.01-2.25c1.16,0,2.23,0.64,2.77,1.67c0.4-1.47,1.73-2.48,3.25-2.48c0.6,0,1.18,0.16,1.69,0.46
			C-571.64,16.9-570.23,16.03-568.69,16.03z"/>
	</g>
	<g>
		<path class="st789" d="M-597.25-27.64c-0.06,0-0.11,0.03-0.14,0.08c-0.03,0.05-0.03,0.11,0,0.16c0.03,0.05,0.08,0.08,0.14,0.08
			h0.22c0.06,0,0.11-0.03,0.14-0.08c0.03-0.05,0.03-0.11,0-0.16c-0.03-0.05-0.08-0.08-0.14-0.08H-597.25z"/>
	</g>
	<g>
		<path class="st789" d="M-597.02-27.64c-0.08,0-0.14,0.05-0.16,0.12l-0.28,1.05c-0.01,0.05,0,0.1,0.03,0.14
			c0.03,0.04,0.08,0.06,0.13,0.06h0.65c0.06,0,0.11-0.03,0.14-0.08c0.03-0.05,0.03-0.11,0-0.16c-0.03-0.05-0.08-0.08-0.14-0.08
			h-0.45l0.23-0.85c0.01-0.05,0-0.1-0.02-0.14C-596.92-27.61-596.97-27.64-597.02-27.64L-597.02-27.64z"/>
	</g>
	<g>
		<path class="st789" d="M-598.45-30.76c-1.77,0.07-1.63,1.5-1.1,3.09h0.15c0,0,0.47,1.24,0.76,1.23c0.29-0.01,0.26-0.32,0.26-0.32
			v-0.8c0-0.28-0.31-0.42-0.24-0.72c0.07-0.3,0.43-0.26,0.43-0.26h1.45h1.45c0,0,0.37-0.04,0.43,0.26c0.07,0.3-0.24,0.44-0.24,0.72
			v0.8c0,0-0.03,0.32,0.26,0.32c0.29,0.01,0.76-1.23,0.76-1.23h0.14c1.01-0.83,0.63-3.38-0.32-4.07
			C-595.13-32.02-597.77-31.17-598.45-30.76L-598.45-30.76z"/>
	</g>
	<g>
		<path class="st789" d="M-595.15-24.97c-0.04,0-0.08,0.02-0.11,0.04c-0.38,0.36-0.88,0.57-1.44,0.57c-0.35,0-0.67-0.08-0.96-0.23
			c-0.05-0.03-0.11-0.02-0.16,0.01c-0.05,0.03-0.08,0.08-0.07,0.14c0,0.06,0.04,0.11,0.09,0.13c0.33,0.17,0.71,0.27,1.11,0.27
			c0.64,0,1.23-0.25,1.66-0.66c0.05-0.04,0.06-0.11,0.04-0.17C-595.03-24.93-595.09-24.97-595.15-24.97L-595.15-24.97z"/>
	</g>
	<g>
		<polygon class="st3" points="-592.99,-24.57 -596.66,-15.55 -600.58,-22.02 -599.45,-22.86 -596.67,-18.2 -594.55,-24.25 		"/>
	</g>
	<g>
		<path class="st789" d="M-599.46-23.02c-0.06,0-0.11,0.04-0.13,0.08c-0.03,0.05-0.02,0.11,0.01,0.16l2.78,4.66
			c0.03,0.05,0.09,0.08,0.15,0.08c0.06-0.01,0.11-0.05,0.13-0.11l1.22-3.52c0.02-0.05,0.01-0.11-0.03-0.16
			c-0.04-0.04-0.09-0.06-0.15-0.05c-0.06,0.01-0.1,0.05-0.12,0.11l-1.1,3.2l-2.6-4.37C-599.35-22.99-599.4-23.02-599.46-23.02
			L-599.46-23.02z"/>
	</g>
	<g>
		<path class="st3" d="M-596.67-17.92c0.72,0,1.31,0.58,1.31,1.31c0,0.72-0.58,1.31-1.31,1.31s-1.31-0.58-1.31-1.31
			C-597.97-17.34-597.39-17.92-596.67-17.92z"/>
	</g>
	<g>
		<path class="st790" d="M-588.51-30.8l-1.02-1.78c0.39-0.22,0.64,0.01,1.02,0.44l0.31-1.61c0.79,0.29,1.61,1.11,1.45,2.13
			c-0.12,0.64-0.57,1.18-0.57,1.18L-588.51-30.8z"/>
	</g>
	<g>
		<polygon class="st789" points="-588.51,-30.8 -588.57,-30.11 -587.48,-29.68 -587.32,-30.45 		"/>
	</g>
	<g>
		<g>
			<path class="st789" d="M-559.2,18.3c-0.09,0-0.16,0.07-0.16,0.16v1.12l-0.61,1.21c-0.03,0.05-0.02,0.11,0.01,0.16
				c0.03,0.05,0.09,0.08,0.14,0.07c0.06,0,0.11-0.04,0.13-0.09l0.63-1.25c0.01-0.02,0.02-0.05,0.02-0.07v-1.16
				c0-0.04-0.02-0.08-0.05-0.11C-559.12,18.32-559.16,18.3-559.2,18.3z"/>
		</g>
		<g>
			<g>
				<path class="st782" d="M-567.19,5.5c-1.69,0-3.06,1.37-3.06,3.06c0,0.62,0.19,1.23,0.55,1.74c-0.2,0.51-0.3,1.05-0.3,1.59
					c0,1.16,0.46,2.27,1.28,3.09c0.82,0.82,1.93,1.28,3.09,1.28c1.16,0,2.27-0.46,3.09-1.28c0.82-0.82,1.28-1.93,1.28-3.09
					c0-1.87-1.2-3.54-2.97-4.14C-564.59,6.42-565.8,5.5-567.19,5.5L-567.19,5.5z"/>
			</g>
			<g>
				<path class="st789" d="M-566.06,12.1c-0.06,0-0.11,0.03-0.14,0.09c-0.03,0.05-0.02,0.12,0.01,0.16c0,0,0.33,0.48,0.61,1.44
					c0.27,0.96,0.48,2.38,0.19,4.24c-0.01,0.06,0.01,0.11,0.06,0.15c0.04,0.04,0.1,0.04,0.16,0.02c0.05-0.02,0.09-0.07,0.1-0.12
					c0.29-1.9,0.08-3.37-0.2-4.37c-0.28-1-0.65-1.53-0.65-1.53C-565.96,12.12-566.01,12.1-566.06,12.1L-566.06,12.1z"/>
			</g>
			<g>
				<path class="st738" d="M-559.4,8.42c-0.78,0-1.45,0.55-1.61,1.31c-0.13-0.02-0.26-0.03-0.38-0.03c-1.73,0-3.12,1.4-3.12,3.12
					c0,1.73,1.4,3.12,3.12,3.12c1.73,0,3.12-1.4,3.12-3.12c0-0.46-0.11-0.92-0.31-1.34c0.51-0.29,0.82-0.84,0.82-1.42
					c0-0.44-0.17-0.86-0.48-1.16C-558.54,8.6-558.96,8.42-559.4,8.42z"/>
			</g>
			<g>
				<path class="st789" d="M-561.44,12.1c-0.05,0-0.1,0.03-0.13,0.07c0,0-0.37,0.53-0.65,1.53c-0.28,1-0.49,2.47-0.2,4.37
					c0.01,0.06,0.05,0.1,0.1,0.13c0.05,0.02,0.11,0.01,0.16-0.02c0.04-0.04,0.07-0.09,0.06-0.15c-0.28-1.86-0.08-3.28,0.19-4.24
					c0.27-0.96,0.61-1.44,0.61-1.44c0.03-0.05,0.04-0.11,0.01-0.17C-561.32,12.13-561.38,12.1-561.44,12.1z"/>
			</g>
			<g>
				<polygon class="st3" points="-567.26,20.87 -559.83,20.87 -559.2,19.62 -559.2,18.46 -567.85,18.46 -567.85,19.64 				"/>
			</g>
			<g>
				<path class="st789" d="M-567.85,18.3c-0.09,0-0.16,0.07-0.16,0.16v1.18c0,0.02,0.01,0.05,0.02,0.07l0.59,1.22
					c0.02,0.05,0.07,0.09,0.13,0.09c0.06,0,0.11-0.02,0.14-0.07c0.03-0.05,0.04-0.11,0.01-0.16l-0.57-1.19v-1.15
					c0-0.04-0.02-0.08-0.05-0.11C-567.77,18.32-567.81,18.3-567.85,18.3L-567.85,18.3z"/>
			</g>
			<g>
				<path class="st791" d="M-559.76,17.15c0.4,0,0.72,0.32,0.72,0.72v0.9h-8.97v-0.9c0-0.4,0.32-0.72,0.72-0.72H-559.76z"/>
			</g>
		</g>
	</g>
	<g>
		<path class="st789" d="M-606.68-21.56c-0.06,0-0.11,0.03-0.14,0.08c-0.03,0.05-0.03,0.11,0,0.16c0.03,0.05,0.08,0.08,0.14,0.08
			h2.14c-0.06,0.21-0.19,0.6-0.49,1.11c-0.41,0.67-1.05,1.36-2.06,1.49c-0.06,0.01-0.11,0.04-0.13,0.1
			c-0.02,0.05-0.01,0.11,0.02,0.16c0.04,0.05,0.09,0.07,0.15,0.06c1.13-0.16,1.86-0.93,2.29-1.64c0.43-0.72,0.59-1.39,0.59-1.39
			c0.01-0.05,0-0.1-0.03-0.13c-0.03-0.04-0.08-0.06-0.12-0.06L-606.68-21.56z"/>
	</g>
	<g>
		<path class="st789" d="M-613.05-21.67c-0.05,0-0.09,0.02-0.12,0.06c-0.03,0.04-0.04,0.09-0.03,0.13c0,0,0.16,0.68,0.59,1.39
			c0.43,0.72,1.16,1.49,2.29,1.64c0.06,0.01,0.11-0.01,0.15-0.06c0.04-0.05,0.04-0.11,0.02-0.16c-0.02-0.05-0.07-0.09-0.13-0.1
			c-1.01-0.14-1.66-0.82-2.06-1.49c-0.31-0.51-0.43-0.9-0.49-1.11h2.14c0.06,0,0.11-0.03,0.14-0.08c0.03-0.05,0.03-0.11,0-0.16
			c-0.03-0.05-0.08-0.08-0.14-0.08H-613.05z"/>
	</g>
	<g>
		<path class="st790" d="M-606.92-15.99l-1.4-1.5c-0.32,0.31-0.18,0.62,0.12,1.1l-1.63-0.17c0.04,0.84,0.59,1.87,1.61,2.02
			c0.65,0.08,1.3-0.2,1.3-0.2L-606.92-15.99z"/>
	</g>
	<g>
		<polygon class="st789" points="-606.92,-15.99 -606.24,-15.85 -606.15,-14.68 -606.93,-14.75 		"/>
	</g>
	<g>
		<path class="st791" d="M-611.2-22.53v2.97c0,1.18,0.79,2.17,1.88,2.46l0.03,2.51c-0.43,0.09-0.73,0.25-0.73,0.45v0.59h2.79v-0.59
			c0-0.19-0.29-0.36-0.73-0.45l-0.03-2.51c1.08-0.29,1.88-1.28,1.88-2.46v-2.97H-611.2z"/>
	</g>
	<g>
		<polygon class="st791" points="-608.2,-16.4 -608.68,-17.08 -607.98,-17.1 		"/>
	</g>
	<g>
		<polygon class="st790" points="-608.2,-16.4 -608.68,-17.08 -607.98,-17.1 -606.92,-15.99 		"/>
	</g>
	<g>
		<polygon class="st3" points="-608.1,-19.82 -607.98,-19.12 -608.66,-19.44 -609.3,-19.11 -609.2,-19.85 -609.71,-20.35 
			-608.97,-20.5 -608.65,-21.14 -608.29,-20.48 -607.58,-20.37 		"/>
	</g>
	<g>
		<path class="st791" d="M-595.69-16.62c0,0.26-0.1,0.51-0.29,0.69c-0.18,0.18-0.43,0.29-0.69,0.29c-0.54,0-0.98-0.44-0.98-0.98
			c0-0.26,0.1-0.51,0.29-0.69c0.18-0.18,0.43-0.29,0.69-0.29c0.26,0,0.51,0.1,0.69,0.29C-595.79-17.12-595.69-16.88-595.69-16.62
			L-595.69-16.62z"/>
	</g>
	<g>
		<polygon class="st789" points="-576.01,10.71 -576.68,-3.57 -584.74,-3.57 -585.21,10.62 -587,12.97 -583.71,12.97 -582.37,6.21 
			-580.91,0.54 -578.92,6.23 -577.25,12.97 -574.03,12.97 		"/>
	</g>
	<g>
		<path class="st782" d="M-580.02-17.36c0,0,1,0.78,1.6,1.17c0.55,0.36,0.83,0.33,1.78,0.84c0.95,0.51,1.3,1.06,1.3,1.06l1.27,2.61
			l4.76-3.8l1.09,0.72c0,0-3.61,5.22-4.56,6.26c-0.95,1.05-1.82,0.43-1.82,0.43l-2.07-1.66v6.15h-2.84H-581h-1.85h-1.88v-2.34
			c0,0-2.06-0.55-2.9-1.15c-0.84-0.6-0.67-1.84-0.67-1.84s0.7-3.25,0.92-4.1c0.22-0.86,0.74-1.28,0.74-1.28l2.67-1.93l1.62-1.15
			l0.92,1.06h0.66L-580.02-17.36z"/>
	</g>
	<g>
		<path class="st790" d="M-569.32-15.47l-0.5-1.84c0.44-0.12,0.62,0.16,0.88,0.67l0.68-1.49c0.7,0.47,1.3,1.46,0.91,2.41
			c-0.27,0.6-0.89,0.98-0.89,0.98L-569.32-15.47z"/>
	</g>
	<g>
		<path class="st789" d="M-576.84-9.99c-0.09,0-0.16,0.07-0.16,0.16v5.18c0,0.06,0.03,0.11,0.08,0.14c0.05,0.03,0.11,0.03,0.16,0
			c0.05-0.03,0.08-0.08,0.08-0.14v-5.18c0-0.04-0.02-0.08-0.05-0.11C-576.76-9.97-576.8-9.99-576.84-9.99L-576.84-9.99z"/>
	</g>
	<g>
		<path class="st789" d="M-582.02-6.36c0,0-0.01,0-0.01,0l-2.73,0.29c-0.06,0-0.11,0.04-0.13,0.09c-0.02,0.05-0.02,0.11,0.02,0.16
			c0.03,0.05,0.09,0.07,0.15,0.06l2.73-0.29c0.09-0.01,0.15-0.08,0.14-0.17C-581.86-6.3-581.93-6.36-582.02-6.36z"/>
	</g>
	<g>
		<polygon class="st789" points="-569.32,-15.47 -569.96,-14.96 -568.7,-14.06 -568.23,-14.75 		"/>
	</g>
	<g>
		<polygon class="st789" points="-581.3,-7.58 -582.09,-7.78 -582.18,-6.02 -581.36,-6.12 		"/>
	</g>
	<g>
		<polygon class="st790" points="-581.43,-16.3 -580.77,-16.3 -580.02,-17.36 -580.02,-19.37 -582.35,-19.16 -582.35,-17.36 		"/>
	</g>
	<g>
		<path class="st790" d="M-581.35-24.94c-1.25,0-2.26,1.01-2.26,2.27v1.01l0,0c-0.46,0-0.83,0.37-0.83,0.83
			c0,0.46,0.81,0.37,0.83,0.83h0h0.01c0.11,1.16,1.07,2.05,2.25,2.05c1.18,0,2.14-0.9,2.25-2.05h0.01c0.46,0,0.83-0.37,0.83-0.83
			c0-0.46-0.81-1.3-0.83-0.83h0v-1.01C-579.09-23.93-580.1-24.94-581.35-24.94L-581.35-24.94z"/>
	</g>
	<g>
		<path class="st789" d="M-581.89-21.38c-0.06,0-0.11,0.03-0.14,0.08c-0.03,0.05-0.03,0.11,0,0.16c0.03,0.05,0.08,0.08,0.14,0.08
			h0.22c0.06,0,0.11-0.03,0.14-0.08c0.03-0.05,0.03-0.11,0-0.16c-0.03-0.05-0.08-0.08-0.14-0.08H-581.89z"/>
	</g>
	<g>
		<path class="st789" d="M-581.68-21.39c-0.07,0-0.13,0.05-0.15,0.12l-0.28,1.05c-0.01,0.05,0,0.1,0.03,0.14
			c0.03,0.04,0.08,0.06,0.13,0.06h0.65c0.06,0,0.11-0.03,0.14-0.08c0.03-0.05,0.03-0.11,0-0.16c-0.03-0.05-0.08-0.08-0.14-0.08
			h-0.45l0.23-0.85c0.01-0.05,0-0.1-0.03-0.14C-581.58-21.37-581.63-21.39-581.68-21.39L-581.68-21.39z"/>
	</g>
	<g>
		<path class="st789" d="M-581.38-26.52c-0.45,0-0.85,0.28-1,0.71c-0.07-0.01-0.13-0.02-0.2-0.02c-0.59,0-1.07,0.48-1.07,1.07
			c0,0.05,0,0.11,0.01,0.16c-0.55,0.05-0.97,0.51-0.97,1.06c0,0.28,0.11,0.55,0.31,0.75c0,0.41,0.01,1.06,0.12,1.38h0.15
			c0,0,0.16,0.85,0.45,0.84c0.29-0.01,0.26-0.32,0.26-0.32v-0.23c0-0.29,0-0.6,0.07-0.9c0.07-0.3,0.43-0.26,0.43-0.26h1.45h1.45
			c0,0,0.37-0.04,0.43,0.26c0.07,0.3,0.03,0.44,0.03,0.72v0.2c0,0-0.03,0.32,0.26,0.32c0.29,0.01,0.49-0.63,0.49-0.63h0.14
			c0.28-0.23,0.39-0.96,0.38-1.44c0.16-0.19,0.25-0.44,0.25-0.69c0-0.59-0.48-1.07-1.07-1.07c-0.04,0-0.08,0-0.13,0.01
			c0.01-0.05,0.01-0.11,0.01-0.16c0-0.59-0.48-1.07-1.07-1.07c-0.06,0-0.13,0.01-0.19,0.02C-580.53-26.24-580.93-26.52-581.38-26.52
			L-581.38-26.52z"/>
	</g>
	<g>
		<path class="st789" d="M-579.8-18.72c-0.04,0-0.08,0.02-0.11,0.05c-0.38,0.36-0.88,0.57-1.44,0.57c-0.35,0-0.67-0.08-0.96-0.23
			c-0.05-0.03-0.11-0.03-0.16,0c-0.05,0.03-0.08,0.09-0.07,0.14c0,0.06,0.04,0.11,0.09,0.13c0.33,0.17,0.71,0.27,1.11,0.27
			c0.64,0,1.23-0.25,1.66-0.66c0.05-0.04,0.06-0.11,0.04-0.17C-579.67-18.68-579.73-18.72-579.8-18.72L-579.8-18.72z"/>
	</g>
	<g>
		<path class="st789" d="M-578.19-11.91c-0.06,0-0.11,0.03-0.14,0.08c-0.03,0.05-0.03,0.11,0,0.16c0.03,0.05,0.08,0.08,0.14,0.08
			h1.58c-0.05,0.18-0.15,0.44-0.36,0.79c-0.31,0.5-0.79,1.02-1.54,1.12c-0.06,0.01-0.11,0.04-0.13,0.1
			c-0.02,0.05-0.01,0.11,0.02,0.16c0.04,0.05,0.09,0.07,0.15,0.06c0.88-0.12,1.44-0.72,1.77-1.27c0.33-0.55,0.45-1.07,0.45-1.07
			c0.01-0.05,0-0.1-0.03-0.13c-0.03-0.04-0.08-0.06-0.12-0.06H-578.19z"/>
	</g>
	<g>
		<path class="st789" d="M-583.04-11.98c-0.05,0-0.09,0.02-0.12,0.06c-0.03,0.04-0.04,0.09-0.03,0.13c0,0,0.12,0.52,0.45,1.07
			c0.33,0.55,0.9,1.15,1.77,1.27c0.06,0.01,0.11-0.01,0.15-0.06c0.04-0.05,0.04-0.11,0.02-0.16c-0.02-0.05-0.07-0.09-0.13-0.1
			c-0.75-0.1-1.24-0.62-1.54-1.12c-0.21-0.34-0.3-0.61-0.36-0.79h1.58c0.06,0,0.11-0.03,0.14-0.08c0.03-0.05,0.03-0.11,0-0.16
			c-0.03-0.05-0.08-0.08-0.14-0.08L-583.04-11.98L-583.04-11.98z"/>
	</g>
	<g>
		<path class="st3" d="M-581.63-12.6v2.26c0,0.9,0.6,1.65,1.43,1.87l0.02,2.62c-0.33,0.07-0.55,0.19-0.55,0.34v0.45h2.12V-5.5
			c0-0.15-0.22-0.28-0.55-0.34l-0.02-2.62c0.83-0.22,1.43-0.97,1.43-1.87v-2.26H-581.63z"/>
	</g>
	<g>
		<polygon class="st791" points="-579.27,-10.54 -579.18,-10 -579.7,-10.25 -580.18,-10 -580.11,-10.57 -580.5,-10.95 
			-579.94,-11.05 -579.69,-11.54 -579.42,-11.04 -578.88,-10.96 		"/>
	</g>
	<g>
		<path class="st790" d="M-578.63-8.71l-1.57,0.57v-0.33c0,0-0.24-0.06-0.48-0.2l-0.62,1.09l-0.06,1.46c0,0,1.03-0.01,1.64-0.25
			C-578.77-6.76-578.47-7.89-578.63-8.71z"/>
	</g>
	<g>
		<path class="st792" d="M-580.02-17.36c0,0-0.49,0.76-1.09,0.78c-0.6,0.02-1.24-0.78-1.24-0.78s-0.12,0.97-0.12,1.03
			c0,0.07,0.81,0.91,0.93,0.93c0.12,0.01,1.12-0.33,1.21-0.41c0.09-0.07,0.06-0.02,0.24-0.38
			C-579.91-16.54-580.02-17.36-580.02-17.36z"/>
	</g>
	<g>
		<rect x="-611.39" y="8.14" class="st791" width="27.98" height="2.13"/>
	</g>
	<g>
		<rect x="-594.84" y="13.81" class="st792" width="27.98" height="2.13"/>
	</g>
	<g>
		<g>
			<path class="st789" d="M-615.79-1.77c-0.09,0-0.16,0.07-0.16,0.16v19.36c0,0.06,0.03,0.11,0.08,0.14c0.05,0.03,0.11,0.03,0.16,0
				c0.05-0.03,0.08-0.08,0.08-0.14V-1.61c0-0.04-0.02-0.08-0.05-0.11C-615.7-1.75-615.75-1.77-615.79-1.77z"/>
		</g>
		<g>
			<path class="st789" d="M-614.71,0.69c-0.09,0-0.16,0.07-0.16,0.16v16.87c0,0.06,0.03,0.11,0.08,0.14c0.05,0.03,0.11,0.03,0.16,0
				c0.05-0.03,0.08-0.08,0.08-0.14V0.85c0-0.04-0.02-0.08-0.05-0.11C-614.62,0.71-614.67,0.69-614.71,0.69z"/>
		</g>
		<g>
			<path class="st789" d="M-616.9,6.4c-0.09,0-0.16,0.07-0.16,0.16v11.17c0,0.06,0.03,0.11,0.08,0.14c0.05,0.03,0.11,0.03,0.16,0
				c0.05-0.03,0.08-0.08,0.08-0.14V6.56c0-0.04-0.02-0.08-0.05-0.11C-616.81,6.41-616.85,6.4-616.9,6.4L-616.9,6.4z"/>
		</g>
		<g>
			<path class="st789" d="M-612.43,11.91c-0.09,0-0.16,0.07-0.16,0.16v5.66c0,0.06,0.03,0.11,0.08,0.14c0.05,0.03,0.11,0.03,0.16,0
				c0.05-0.03,0.08-0.08,0.08-0.14v-5.66c0-0.04-0.02-0.08-0.05-0.11C-612.34,11.92-612.39,11.91-612.43,11.91L-612.43,11.91z"/>
		</g>
		<g>
			<path class="st789" d="M-613.7,6.4c-0.09,0-0.16,0.07-0.16,0.16v11.17c0,0.06,0.03,0.11,0.08,0.14c0.05,0.03,0.11,0.03,0.16,0
				c0.05-0.03,0.08-0.08,0.08-0.14V6.56c0-0.04-0.02-0.08-0.05-0.11C-613.61,6.41-613.65,6.4-613.7,6.4L-613.7,6.4z"/>
		</g>
		<g>
			<path class="st738" d="M-616.61,4.52c1.31-0.08,2.14,0.71,0.5,2.34c-1.63,1.63-3.57,2.35-4.32,1.59
				c-0.75-0.75-0.04-2.69,1.59-4.32C-617.21,2.49-616.44,3.26-616.61,4.52z"/>
		</g>
		<g>
			<path class="st791" d="M-615.63,10.07c1.51-0.09,2.46,0.81,0.58,2.7c-1.88,1.88-4.12,2.71-4.99,1.84
				c-0.87-0.87-0.05-3.1,1.84-4.99C-616.32,7.73-615.43,8.62-615.63,10.07z"/>
		</g>
		<g>
			<path class="st738" d="M-612.26,11.87c-1.25-0.08-2.04,0.67-0.48,2.23c1.56,1.56,3.4,2.24,4.12,1.52
				c0.72-0.72,0.04-2.57-1.52-4.12C-611.69,9.94-612.43,10.67-612.26,11.87z"/>
		</g>
		<g>
			<path class="st738" d="M-612.87,5.35c-1.25-0.08-2.04,0.67-0.48,2.23c1.56,1.56,3.4,2.24,4.12,1.52
				c0.72-0.72,0.04-2.57-1.52-4.12C-612.3,3.41-613.03,4.15-612.87,5.35z"/>
		</g>
		<g>
			<path class="st791" d="M-614.39,0.49c-0.8-0.05-1.3,0.43-0.31,1.43c1,1,2.18,1.43,2.64,0.97c0.46-0.46,0.03-1.64-0.97-2.64
				C-614.03-0.75-614.5-0.28-614.39,0.49L-614.39,0.49z"/>
		</g>
		<g>
			<path class="st791" d="M-615.94-2.43c0.8-0.05,1.3,0.43,0.31,1.43c-1,1-2.18,1.43-2.64,0.97c-0.46-0.46-0.03-1.64,0.97-2.64
				C-616.3-3.66-615.83-3.19-615.94-2.43L-615.94-2.43z"/>
		</g>
		<g>
			<rect x="-621.92" y="18.03" class="st3" width="15.16" height="3.56"/>
		</g>
		<g>
			<path class="st789" d="M-618.67,18.3c-0.09,0-0.16,0.07-0.16,0.16v2.41c0,0.06,0.03,0.11,0.08,0.14c0.05,0.03,0.11,0.03,0.16,0
				c0.05-0.03,0.08-0.08,0.08-0.14v-2.41c0-0.04-0.02-0.08-0.05-0.11C-618.59,18.32-618.63,18.3-618.67,18.3z"/>
		</g>
		<g>
			<path class="st789" d="M-610.02,18.3c-0.09,0-0.16,0.07-0.16,0.16v2.41c0,0.06,0.03,0.11,0.08,0.14c0.05,0.03,0.11,0.03,0.16,0
				c0.05-0.03,0.08-0.08,0.08-0.14v-2.41c0-0.04-0.02-0.08-0.05-0.11C-609.94,18.32-609.98,18.3-610.02,18.3L-610.02,18.3z"/>
		</g>
		<g>
			<path class="st791" d="M-618.11,17.15c-0.4,0-0.72,0.32-0.72,0.72v0.9h8.97v-0.9c0-0.4-0.32-0.72-0.72-0.72H-618.11z"/>
		</g>
	</g>
	<g>
		<path class="st789" d="M-589.13,7.23c-0.09,0-0.16,0.07-0.16,0.16v13.44c0,0.06,0.03,0.11,0.08,0.14c0.05,0.03,0.11,0.03,0.16,0
			c0.05-0.03,0.08-0.08,0.08-0.14V7.39c0-0.04-0.02-0.08-0.05-0.11C-589.05,7.25-589.09,7.23-589.13,7.23L-589.13,7.23z"/>
	</g>
	<g>
		<path class="st789" d="M-605.68,7.24c-0.06,0-0.11,0.03-0.14,0.08c-0.03,0.05-0.03,0.11,0,0.16c0.03,0.05,0.08,0.08,0.14,0.08
			h16.55c0.06,0,0.11-0.03,0.14-0.08c0.03-0.05,0.03-0.11,0-0.16c-0.03-0.05-0.08-0.08-0.14-0.08H-605.68z"/>
	</g>
	<g>
		<path class="st789" d="M-589.13,12.82c-0.06,0-0.11,0.03-0.14,0.08c-0.03,0.05-0.03,0.11,0,0.16c0.03,0.05,0.08,0.08,0.14,0.08
			h16.55c0.06,0,0.11-0.03,0.14-0.08c0.03-0.05,0.03-0.11,0-0.16c-0.03-0.05-0.08-0.08-0.14-0.08H-589.13z"/>
	</g>
	<g>
		<path class="st793" d="M-584.42-28c0,0-0.1-0.56-0.28-0.74c-0.18-0.18-0.74-0.27-0.74-0.27s0.58-0.09,0.76-0.27
			c0.18-0.18,0.25-0.75,0.25-0.75s0.11,0.55,0.3,0.73c0.18,0.18,0.72,0.29,0.72,0.29s-0.56,0.11-0.74,0.29
			C-584.32-28.55-584.42-28-584.42-28z"/>
	</g>
	<g>
		<path class="st793" d="M-608.82-24.85c0,0-0.1-0.56-0.28-0.74c-0.18-0.18-0.74-0.27-0.74-0.27s0.58-0.08,0.76-0.26
			c0.18-0.18,0.25-0.75,0.25-0.75s0.12,0.55,0.29,0.73c0.18,0.18,0.72,0.29,0.72,0.29s-0.56,0.11-0.74,0.29
			C-608.72-25.4-608.82-24.85-608.82-24.85L-608.82-24.85z"/>
	</g>
	<g>
		<path class="st793" d="M-604.75-24.22c0,0.1-0.04,0.2-0.11,0.27c-0.07,0.07-0.17,0.11-0.27,0.11c-0.21,0-0.39-0.17-0.39-0.39
			c0-0.21,0.17-0.39,0.39-0.39c0.1,0,0.2,0.04,0.27,0.11C-604.79-24.42-604.75-24.32-604.75-24.22z"/>
	</g>
	<g>
		<path class="st793" d="M-575.28-27.4c0.21,0,0.39,0.17,0.39,0.39c0,0.21-0.17,0.39-0.39,0.39c-0.21,0-0.39-0.17-0.39-0.39
			C-575.67-27.22-575.49-27.4-575.28-27.4z"/>
	</g>
	<g>
		<path class="st791" d="M-588.85-2.81c0,0-0.1-0.56-0.28-0.74c-0.18-0.18-0.74-0.27-0.74-0.27s0.58-0.09,0.76-0.27
			c0.18-0.18,0.25-0.75,0.25-0.75s0.11,0.55,0.29,0.73c0.18,0.18,0.72,0.29,0.72,0.29s-0.56,0.11-0.74,0.29
			C-588.75-3.36-588.85-2.81-588.85-2.81L-588.85-2.81z"/>
	</g>
	<g>
		<path class="st791" d="M-564.16-17.01c0,0-0.1-0.56-0.28-0.74c-0.18-0.18-0.74-0.27-0.74-0.27s0.58-0.09,0.76-0.26
			c0.18-0.18,0.25-0.75,0.25-0.75s0.11,0.55,0.29,0.73c0.18,0.18,0.72,0.29,0.72,0.29s-0.56,0.11-0.74,0.29
			C-564.06-17.56-564.16-17.01-564.16-17.01L-564.16-17.01z"/>
	</g>
	<g>
		<path class="st791" d="M-603.86-9.99c0,0,0.17-0.55,0.1-0.79c-0.08-0.24-0.52-0.58-0.52-0.58s0.56,0.2,0.8,0.12
			c0.24-0.08,0.57-0.55,0.57-0.55s-0.15,0.54-0.08,0.78c0.08,0.24,0.51,0.59,0.51,0.59s-0.54-0.16-0.79-0.09
			C-603.52-10.44-603.86-9.99-603.86-9.99L-603.86-9.99z"/>
	</g>
	<g>
		<path class="st791" d="M-587.34-20.69c0,0-0.1-0.56-0.28-0.74c-0.18-0.18-0.74-0.27-0.74-0.27s0.58-0.09,0.76-0.27
			c0.18-0.18,0.25-0.75,0.25-0.75s0.12,0.55,0.3,0.73c0.18,0.18,0.72,0.29,0.72,0.29s-0.56,0.11-0.74,0.29
			C-587.24-21.24-587.34-20.69-587.34-20.69L-587.34-20.69z"/>
	</g>
	<g>
		<path class="st791" d="M-610.76,4.83c0,0-0.1-0.56-0.28-0.74c-0.18-0.18-0.74-0.27-0.74-0.27s0.58-0.08,0.76-0.26
			c0.18-0.18,0.25-0.75,0.25-0.75s0.12,0.55,0.29,0.73c0.18,0.18,0.72,0.29,0.72,0.29s-0.56,0.11-0.74,0.29
			C-610.66,4.28-610.76,4.83-610.76,4.83z"/>
	</g>
	<g>
		<path class="st791" d="M-590.79-9.29c0,0.21-0.17,0.39-0.39,0.39s-0.39-0.17-0.39-0.39c0-0.1,0.04-0.2,0.11-0.27
			c0.07-0.07,0.17-0.11,0.27-0.11C-590.96-9.68-590.79-9.51-590.79-9.29z"/>
	</g>
	<g>
		<path class="st791" d="M-574.97-23.45c0.21,0,0.39,0.17,0.39,0.39c0,0.21-0.17,0.39-0.39,0.39s-0.39-0.17-0.39-0.39
			C-575.36-23.27-575.19-23.45-574.97-23.45z"/>
	</g>
	<g>
		<path class="st791" d="M-568.37-7.53c0,0.21-0.17,0.39-0.39,0.39c-0.21,0-0.39-0.17-0.39-0.39c0-0.1,0.04-0.2,0.11-0.27
			c0.07-0.07,0.17-0.11,0.27-0.11s0.2,0.04,0.27,0.11C-568.42-7.73-568.37-7.63-568.37-7.53z"/>
	</g>
	<g>
		<path class="st791" d="M-609.93-6.94c0,0.1-0.04,0.2-0.11,0.27c-0.07,0.07-0.17,0.11-0.27,0.11c-0.1,0-0.2-0.04-0.27-0.11
			c-0.07-0.07-0.11-0.17-0.11-0.27c0-0.1,0.04-0.2,0.11-0.27c0.07-0.07,0.17-0.11,0.27-0.11C-610.1-7.33-609.93-7.16-609.93-6.94
			L-609.93-6.94z"/>
	</g>
</g>
</svg>
