<?xml version="1.0" encoding="utf-8"?>
<!-- Generator: Adobe Illustrator 25.3.1, SVG Export Plug-In . SVG Version: 6.00 Build 0)  -->
<svg version="1.1" id="Layer_1" xmlns="http://www.w3.org/2000/svg" xmlns:xlink="http://www.w3.org/1999/xlink" x="0px" y="0px"
	 viewBox="0 0 139.7 133.11" style="enable-background:new 0 0 139.7 133.11;" xml:space="preserve">
<style type="text/css">
	.st0{fill:#24487F;}
	.st1{fill:#8E8E8E;}
	.st2{fill:#FFFFFF;stroke:#8E8E8E;stroke-linecap:round;stroke-miterlimit:10;}
	.st3{fill:#FFFFFF;}
	.st4{fill:#4DB5D1;}
	.st5{fill:#60934D;}
	.st6{fill:#FFFFFF;stroke:#5F934D;stroke-linecap:round;stroke-miterlimit:10;}
	.st7{fill:#23497F;}
	.st8{fill:#FFFFFF;stroke:#23497F;stroke-linecap:round;stroke-miterlimit:10;}
	.st9{fill:url(#SVGID_1_);}
	.st10{fill:url(#SVGID_2_);}
	.st11{fill:url(#SVGID_3_);}
	.st12{fill:url(#SVGID_4_);}
	.st13{fill:#397BBF;}
	.st14{fill:#1466B1;}
	.st15{fill:#054F8C;}
	.st16{fill:url(#SVGID_5_);}
	.st17{fill:#EFA986;}
	.st18{fill:#152B3D;}
	.st19{fill:#62A9DC;}
	.st20{fill:#977332;}
	.st21{fill:#264480;}
	.st22{fill:#363B3D;}
	.st23{fill:#E45354;}
	.st24{fill:#F5F6F6;}
	.st25{fill:#1A5A8D;}
	.st26{fill:#2274B5;}
	.st27{fill:#3A88C8;}
	.st28{fill:#E3F3FC;}
	.st29{fill:#C5CCD1;}
	.st30{fill:#2A2C47;}
	.st31{fill:#E2D2CA;}
	.st32{fill:#434873;}
	.st33{fill:#3B4048;}
	.st34{fill:#323757;}
	.st35{fill:#81A358;}
	.st36{fill:#71A341;}
	.st37{fill:#618A3C;}
	.st38{fill:#87BD43;}
	.st39{fill:#7BA840;}
	.st40{fill:#70A341;}
	.st41{fill:#6A943E;}
	.st42{fill:#B2CF43;}
	.st43{fill:#9FB34D;}
	.st44{fill:url(#SVGID_6_);}
	.st45{filter:url(#Adobe_OpacityMaskFilter);}
	.st46{filter:url(#Adobe_OpacityMaskFilter_1_);}
	.st47{mask:url(#SVGID_7_);fill:url(#SVGID_8_);}
	.st48{fill:url(#SVGID_9_);}
	.st49{fill:#464443;}
	.st50{fill:#928783;}
	.st51{fill:#1D3C55;}
	.st52{fill:#152C3D;}
	.st53{fill:#A77961;}
	.st54{fill:#D8E9F7;}
	.st55{fill:#BFB2AC;}
	.st56{fill:#FED1A2;}
	.st57{fill:#B37953;}
	.st58{fill:#D6995E;}
	.st59{fill:#807167;}
	.st60{fill:#6E6760;}
	.st61{fill:#928880;}
	.st62{fill:#BC8552;}
	.st63{filter:url(#Adobe_OpacityMaskFilter_2_);}
	.st64{filter:url(#Adobe_OpacityMaskFilter_3_);}
	.st65{mask:url(#SVGID_10_);fill:url(#SVGID_11_);}
	.st66{fill:url(#SVGID_12_);}
	.st67{filter:url(#Adobe_OpacityMaskFilter_4_);}
	.st68{filter:url(#Adobe_OpacityMaskFilter_5_);}
	.st69{mask:url(#SVGID_13_);fill:url(#SVGID_14_);}
	.st70{fill:url(#SVGID_15_);}
	.st71{fill:#C3C8E5;}
	.st72{opacity:0.3;}
	.st73{fill:#F4F6FB;}
	.st74{fill:#E8E8F2;}
	.st75{fill:#D7D6E6;}
	.st76{fill:#F3F4F7;}
	.st77{fill:#FCFDFD;}
	.st78{filter:url(#Adobe_OpacityMaskFilter_6_);}
	.st79{mask:url(#SVGID_16_);}
	.st80{fill:#3F54A5;}
	.st81{fill:#A5A7D4;}
	.st82{fill:#B4BBDF;}
	.st83{fill:url(#SVGID_17_);}
	.st84{fill:#CED0E4;}
	.st85{fill:#EDF0F9;}
	.st86{opacity:0.5;fill:#CFD2D3;}
	.st87{opacity:0.5;fill:#A5A7AA;}
	.st88{fill:#332566;}
	.st89{fill:#FAAE42;}
	.st90{fill:#DFDFDE;}
	.st91{fill:#F6C6B1;}
	.st92{fill:#E8B8A9;}
	.st93{fill:#3D4592;}
	.st94{fill:url(#SVGID_18_);}
	.st95{fill:url(#SVGID_19_);}
	.st96{fill:url(#SVGID_20_);}
	.st97{fill:#112F41;}
	.st98{opacity:0.5;fill:#BDBCD8;}
	.st99{opacity:0.2;fill:#ED5B2A;}
	.st100{fill-rule:evenodd;clip-rule:evenodd;fill:#3E55A5;}
	.st101{fill:#2C1C28;}
	.st102{fill:#EE7762;}
	.st103{opacity:0.25;fill:#ED5B2A;}
	.st104{fill:#CD3046;}
	.st105{fill:#282B70;}
	.st106{fill:url(#SVGID_21_);}
	.st107{fill:url(#SVGID_22_);}
	.st108{fill:#212B46;}
	.st109{fill:#D2D2E9;}
	.st110{fill:#8F95CA;}
	.st111{fill:#BDBCD8;}
	.st112{fill:#F2F7F6;}
	.st113{fill:#C9C8DF;}
	.st114{fill:#E3E3EE;}
	.st115{fill:#FAF0F7;}
	.st116{fill:#FFFCFD;}
	.st117{fill:#E4A28B;}
	.st118{opacity:0.05;fill:#010101;}
	.st119{fill:#D9DDEC;}
	.st120{fill:#C6CBE7;}
	.st121{fill:#8A97CC;}
	.st122{fill:#DFE4F3;}
	.st123{fill:#D5A393;}
	.st124{fill:#182540;}
	.st125{fill:url(#SVGID_23_);}
	.st126{fill:#F1A993;}
	.st127{fill:#687094;}
	.st128{fill:#D7DBEF;}
	.st129{fill:#F4F4F8;}
	.st130{fill:#B2B9DE;}
	.st131{fill:#4D60AC;}
	.st132{fill:#8E97CB;}
	.st133{fill:#BCC6E5;}
	.st134{fill:#AAB9DF;}
	.st135{fill:#FFFBFD;}
	.st136{fill:#34479E;}
	.st137{opacity:0.2;}
	.st138{fill:#60848C;}
	.st139{fill:url(#SVGID_24_);}
	.st140{fill:#F36E5C;}
	.st141{fill:#85BEE7;}
	.st142{fill:#908F8F;}
	.st143{fill:#F1F0F0;}
	.st144{fill:url(#SVGID_25_);}
	.st145{fill:#CCCCCC;}
	.st146{fill:#F6F7FB;}
	.st147{fill:#E6E6E5;}
	.st148{fill:#F3F3F3;}
	.st149{fill:#EFF0F7;}
	.st150{fill:url(#SVGID_26_);}
	.st151{fill:url(#SVGID_27_);}
	.st152{fill:url(#SVGID_28_);}
	.st153{fill:url(#SVGID_29_);}
	.st154{fill:url(#SVGID_30_);}
	.st155{fill:url(#SVGID_31_);}
	.st156{fill:#3D426A;}
	.st157{fill:#252840;}
	.st158{fill:#C4B4AF;}
	.st159{fill:#EA4747;}
	.st160{fill:#6B7BBC;}
	.st161{fill:#5266AF;}
	.st162{fill:#5062AD;}
	.st163{fill:#EDDAD3;}
	.st164{fill:#DECDC7;}
	.st165{fill:#E3D1CA;}
	.st166{fill:#B39595;}
	.st167{fill:#DBB8B8;}
	.st168{fill:#F1CCCB;}
	.st169{fill:#323538;}
	.st170{fill:#EFAA88;}
	.st171{fill:#1D2133;}
	.st172{fill:#EFAA87;}
	.st173{fill:#D88A51;}
	.st174{fill:#C68D71;}
	.st175{fill:#A19FA7;}
	.st176{fill:#EAE6F1;}
	.st177{fill:#3B4167;}
	.st178{fill:#DE9674;}
	.st179{fill:#764937;}
	.st180{fill:#5D554E;}
	.st181{fill:#3D4246;}
	.st182{fill:#FFD356;}
	.st183{fill:url(#SVGID_32_);}
	.st184{fill:url(#SVGID_33_);}
	.st185{fill:url(#SVGID_34_);}
	.st186{fill:url(#SVGID_35_);}
	.st187{fill:url(#SVGID_36_);}
	.st188{fill:url(#SVGID_37_);}
	.st189{opacity:0.5;}
	.st190{fill:#FCEACF;}
	.st191{opacity:0.8;}
	.st192{fill:#D4EEF6;}
	.st193{fill:#3AA1C9;}
	.st194{fill:#3F9896;}
	.st195{fill:#7FC6A6;}
	.st196{fill:#DEF2FD;}
	.st197{fill:#223849;}
	.st198{fill:#B4E3F7;}
	.st199{fill:#F89F74;}
	.st200{fill:#E33F3E;}
	.st201{fill:#482B32;}
	.st202{fill:#D8E4F4;}
	.st203{fill:#683E47;}
	.st204{fill:#3788BA;}
	.st205{fill:#22131E;}
	.st206{fill:#FAB59D;}
	.st207{fill:#CC2327;}
	.st208{fill:#E2F3F1;}
	.st209{fill:#F07163;}
	.st210{fill:#49273F;}
	.st211{fill:#4C232E;}
	.st212{fill:#010101;}
	.st213{fill:#F7956E;}
	.st214{fill:#F68D64;}
	.st215{fill:#F27584;}
	.st216{fill:#4EB8D9;}
	.st217{fill:#EF4751;}
	.st218{fill:#ACC7E8;}
	.st219{fill:#268E8D;}
	.st220{fill:#3A1F33;}
	.st221{fill:#FECC87;}
	.st222{fill:#FBB359;}
	.st223{fill:#331A2C;}
	.st224{fill:#FDC886;}
	.st225{fill:#F7934B;}
	.st226{fill:#F04D65;}
	.st227{fill:#F6D6B2;}
	.st228{fill:#61A3C5;}
	.st229{fill:#B1D89B;}
	.st230{fill:#A8C8E5;}
	.st231{fill:#C1D1EC;}
	.st232{fill:#F2AC40;}
	.st233{fill:#3B57A6;}
	.st234{fill:#C2D5EE;}
	.st235{fill:#A9C4E6;}
	.st236{fill:#2D572A;}
	.st237{fill:#274392;}
	.st238{fill:#95B0DB;}
	.st239{fill:#BFBFBF;}
	.st240{fill:#E9F3FB;}
	.st241{fill:#6B81C0;}
	.st242{fill:#8FB1DD;}
	.st243{fill:#F58765;}
	.st244{fill:#2C1913;}
	.st245{fill:#6A3F31;}
	.st246{fill:#F37559;}
	.st247{fill:#F47A55;}
	.st248{fill:#E0B3A8;}
	.st249{fill:#D9D9D9;}
	.st250{fill:#C6DD74;}
	.st251{fill:#9FCB5F;}
	.st252{fill:#7C9D48;}
	.st253{fill:#E7E7E7;}
	.st254{fill:#F2C791;}
	.st255{fill:#B7B7B7;}
	.st256{fill:#7595CD;}
	.st257{fill:#FAB18D;}
	.st258{fill:#F6977C;}
	.st259{fill:#D1E28C;}
	.st260{fill:none;}
	.st261{fill:#1B1B1C;}
	.st262{fill:#F47E46;}
	.st263{fill:#EB6828;}
	.st264{fill:#F79668;}
	.st265{fill:#E6B54E;}
	.st266{fill:#676767;}
	.st267{fill:#4D4C4C;}
	.st268{fill:#F27070;}
	.st269{fill:#C24D4D;}
	.st270{enable-background:new    ;}
	.st271{fill:#C39B6A;}
	.st272{fill:#C9A475;}
	.st273{fill:#E6B880;}
	.st274{fill:#9F3D3E;}
	.st275{fill:#FFD679;}
	.st276{fill:#F4805D;}
	.st277{fill:#DA5958;}
	.st278{fill:#7D3D20;}
	.st279{fill:#562915;}
	.st280{fill:#B15931;}
	.st281{fill:#5076BA;}
	.st282{fill:#59ADC0;}
	.st283{fill:#099895;}
	.st284{fill:#F5AE87;}
	.st285{fill:#D9504F;}
	.st286{fill:#FCC79A;}
	.st287{fill:#FFDC7B;}
	.st288{fill:#F15958;}
	.st289{fill:#674E46;}
	.st290{fill:#785D51;}
	.st291{clip-path:url(#SVGID_39_);fill:#60934D;}
	.st292{clip-path:url(#SVGID_39_);}
	.st293{fill:#BD725F;}
	.st294{fill:#E6F1D1;}
	.st295{fill:#A86046;}
	.st296{fill:#3C251D;}
	.st297{fill:#4A413F;}
	.st298{fill:#716765;}
	.st299{fill:#EEBD7F;}
	.st300{fill:#7DA594;}
	.st301{fill:#252433;}
	.st302{fill:#F7E6C7;}
	.st303{fill:#E79F90;}
	.st304{fill:#CC4A38;}
	.st305{fill:#333333;}
	.st306{fill:#E1755E;}
	.st307{fill:#E8A180;}
	.st308{fill:#694136;}
	.st309{fill:#C06360;}
	.st310{fill:#CD5A5A;}
	.st311{fill:#E17660;}
	.st312{opacity:0.42;}
	.st313{fill-rule:evenodd;clip-rule:evenodd;fill:#B1D89B;}
	.st314{clip-path:url(#SVGID_41_);fill:#92B779;}
	.st315{clip-path:url(#SVGID_43_);fill:url(#SVGID_44_);}
	.st316{fill-rule:evenodd;clip-rule:evenodd;fill:#60934D;}
	.st317{clip-path:url(#SVGID_46_);fill:url(#SVGID_47_);}
	.st318{fill-rule:evenodd;clip-rule:evenodd;fill:#274CA1;}
	.st319{clip-path:url(#SVGID_49_);fill:url(#SVGID_50_);}
	.st320{clip-path:url(#SVGID_52_);fill:url(#SVGID_53_);}
	.st321{fill-rule:evenodd;clip-rule:evenodd;fill:#F3AF8F;}
	.st322{fill-rule:evenodd;clip-rule:evenodd;fill:#6E2D5F;}
	.st323{fill-rule:evenodd;clip-rule:evenodd;fill:#4D1942;}
	.st324{fill-rule:evenodd;clip-rule:evenodd;fill:#101841;}
	.st325{fill-rule:evenodd;clip-rule:evenodd;fill:#144984;}
	.st326{fill-rule:evenodd;clip-rule:evenodd;fill:#35AD82;}
	.st327{fill-rule:evenodd;clip-rule:evenodd;fill:#198C67;}
	.st328{fill-rule:evenodd;clip-rule:evenodd;fill:#F6C1C5;}
	.st329{fill-rule:evenodd;clip-rule:evenodd;fill:#53B9E9;}
	.st330{fill-rule:evenodd;clip-rule:evenodd;fill:#7DD3F7;}
	.st331{clip-path:url(#SVGID_55_);fill:url(#SVGID_56_);}
	.st332{clip-path:url(#SVGID_58_);fill:url(#SVGID_59_);}
	.st333{fill-rule:evenodd;clip-rule:evenodd;fill:#3DB4E8;}
	.st334{clip-path:url(#SVGID_61_);fill:url(#SVGID_62_);}
	.st335{fill-rule:evenodd;clip-rule:evenodd;fill:#F4FBFE;}
	.st336{fill-rule:evenodd;clip-rule:evenodd;fill:#F4B1B1;}
	.st337{fill-rule:evenodd;clip-rule:evenodd;fill:#D4EAD8;}
	.st338{fill-rule:evenodd;clip-rule:evenodd;fill:#E16C6C;}
	.st339{clip-path:url(#SVGID_64_);fill:url(#SVGID_65_);}
	.st340{clip-path:url(#SVGID_67_);fill:url(#SVGID_68_);}
	.st341{clip-path:url(#SVGID_70_);fill:url(#SVGID_71_);}
	.st342{clip-path:url(#SVGID_73_);fill:url(#SVGID_74_);}
	.st343{clip-path:url(#SVGID_76_);fill:url(#SVGID_77_);}
	.st344{fill-rule:evenodd;clip-rule:evenodd;fill:#316CB5;}
	.st345{clip-path:url(#SVGID_79_);fill:url(#SVGID_80_);}
	.st346{fill-rule:evenodd;clip-rule:evenodd;fill:#DF5D7B;}
	.st347{clip-path:url(#SVGID_82_);fill:url(#SVGID_83_);}
	.st348{fill-rule:evenodd;clip-rule:evenodd;fill:#2D572A;}
	.st349{clip-path:url(#SVGID_85_);fill:#60934D;}
	.st350{clip-path:url(#SVGID_87_);fill:url(#SVGID_88_);}
	.st351{clip-path:url(#SVGID_90_);fill:url(#SVGID_91_);}
	.st352{clip-path:url(#SVGID_93_);fill:url(#SVGID_94_);}
	.st353{fill:url(#SVGID_95_);}
	.st354{filter:url(#Adobe_OpacityMaskFilter_7_);}
	.st355{filter:url(#Adobe_OpacityMaskFilter_8_);}
	.st356{mask:url(#SVGID_96_);fill:url(#SVGID_97_);}
	.st357{fill:url(#SVGID_98_);}
	.st358{fill:none;stroke:#FFFFFF;stroke-miterlimit:10;}
	.st359{fill:url(#SVGID_99_);}
	.st360{filter:url(#Adobe_OpacityMaskFilter_9_);}
	.st361{filter:url(#Adobe_OpacityMaskFilter_10_);}
	.st362{mask:url(#SVGID_100_);fill:url(#SVGID_101_);}
	.st363{fill:url(#SVGID_102_);}
	.st364{fill:url(#SVGID_103_);}
	.st365{filter:url(#Adobe_OpacityMaskFilter_11_);}
	.st366{filter:url(#Adobe_OpacityMaskFilter_12_);}
	.st367{mask:url(#SVGID_104_);fill:url(#SVGID_105_);}
	.st368{fill:url(#SVGID_106_);}
	.st369{fill:url(#SVGID_107_);}
	.st370{filter:url(#Adobe_OpacityMaskFilter_13_);}
	.st371{filter:url(#Adobe_OpacityMaskFilter_14_);}
	.st372{mask:url(#SVGID_108_);fill:url(#SVGID_109_);}
	.st373{fill:url(#SVGID_110_);}
	.st374{fill:url(#SVGID_111_);}
	.st375{fill:url(#SVGID_112_);}
	.st376{fill:url(#SVGID_113_);}
	.st377{fill:url(#SVGID_114_);}
	.st378{fill:url(#SVGID_115_);}
	.st379{fill:url(#SVGID_116_);}
	.st380{fill:#FBC5B4;}
	.st381{fill:url(#SVGID_117_);}
	.st382{fill:url(#SVGID_118_);}
	.st383{filter:url(#Adobe_OpacityMaskFilter_15_);}
	.st384{filter:url(#Adobe_OpacityMaskFilter_16_);}
	.st385{mask:url(#SVGID_119_);fill:url(#SVGID_120_);}
	.st386{fill:url(#SVGID_121_);}
	.st387{fill:url(#SVGID_122_);}
	.st388{filter:url(#Adobe_OpacityMaskFilter_17_);}
	.st389{filter:url(#Adobe_OpacityMaskFilter_18_);}
	.st390{mask:url(#SVGID_123_);fill:url(#SVGID_124_);}
	.st391{fill:url(#SVGID_125_);}
	.st392{fill:url(#SVGID_126_);}
	.st393{fill:#F69575;}
	.st394{fill:url(#SVGID_127_);}
	.st395{fill:url(#SVGID_128_);}
	.st396{fill:url(#SVGID_129_);}
	.st397{fill:url(#SVGID_130_);}
	.st398{fill:url(#SVGID_131_);}
	.st399{fill:#F05253;}
	.st400{fill:#ED1C24;}
	.st401{fill:url(#SVGID_132_);}
	.st402{fill:url(#SVGID_133_);}
	.st403{fill:url(#SVGID_134_);}
	.st404{fill:url(#SVGID_135_);}
	.st405{fill:url(#SVGID_136_);}
	.st406{fill:url(#SVGID_137_);}
	.st407{fill:#FDC78D;}
	.st408{fill:#FFD10A;}
	.st409{fill:url(#SVGID_138_);}
	.st410{fill:url(#SVGID_139_);}
	.st411{fill:url(#SVGID_140_);}
	.st412{fill:#6899D1;}
	.st413{fill:#F4F4F4;}
	.st414{fill:#DAEEF6;}
	.st415{fill:url(#SVGID_141_);}
	.st416{fill:#85CEC1;}
	.st417{fill:url(#SVGID_142_);}
	.st418{fill:#F37878;}
	.st419{fill:url(#SVGID_143_);}
	.st420{fill:url(#SVGID_144_);}
	.st421{fill:url(#SVGID_145_);}
	.st422{fill:url(#SVGID_146_);}
	.st423{fill:url(#SVGID_147_);}
	.st424{fill:url(#SVGID_148_);}
	.st425{fill:url(#SVGID_149_);}
	.st426{fill:url(#SVGID_150_);}
	.st427{fill:url(#SVGID_151_);}
	.st428{fill:url(#SVGID_152_);}
	.st429{fill:url(#SVGID_153_);}
	.st430{fill:#F0EFEF;}
	.st431{fill:#DBD7D7;}
	.st432{fill:#63C7D3;}
	.st433{opacity:0.5;fill:#63C7D3;}
	.st434{fill:#E6E7F4;}
	.st435{fill:#23214D;}
	.st436{fill:#283996;}
	.st437{fill:#1B193A;}
	.st438{fill:#F68D63;}
	.st439{fill:#F9A575;}
	.st440{fill:#FEDA04;}
	.st441{fill:#312126;}
	.st442{fill:#F15F4B;}
	.st443{fill:#F15834;}
	.st444{fill:#EC4524;}
	.st445{fill:#F26B76;}
	.st446{fill:#4D5BA9;}
	.st447{fill:#2D327E;}
	.st448{fill:#39469D;}
	.st449{fill:#9AC181;}
	.st450{fill:#7ED0DC;}
	.st451{display:none;}
	.st452{display:inline;fill:#F9A575;}
	.st453{display:inline;}
	.st454{fill:#673A3C;}
	.st455{fill:#794447;}
	.st456{fill:#47222C;}
	.st457{fill:#29275C;}
	.st458{fill:#57B0B9;}
	.st459{fill:#EF434E;}
	.st460{fill:#E24826;}
	.st461{fill:#4754A5;}
	.st462{fill:#B6C153;}
	.st463{fill:#DD4361;}
	.st464{fill:#FBB67B;}
	.st465{fill:#F6EEEA;}
	.st466{fill:#251D1C;}
	.st467{fill:#E0B895;}
	.st468{fill:#DFB793;}
	.st469{fill:#B8A79D;}
	.st470{fill:#9B93C7;}
	.st471{fill:#6A8037;}
	.st472{fill:#E9633E;}
	.st473{fill:#F6936F;}
	.st474{fill:#DBD8EC;}
	.st475{fill:#221A19;}
	.st476{fill:#382621;}
	.st477{fill:#F7EFEC;}
	.st478{fill:#FBB67C;}
	.st479{fill:#70CACA;}
	.st480{fill:#004669;}
	.st481{fill:#33ADA9;}
	.st482{fill:#EE777A;}
	.st483{fill:#C3E8F0;}
	.st484{fill:#C39C44;}
	.st485{fill:#FFE6B0;}
	.st486{fill:#FFCB5D;}
	.st487{fill:#D2EDF5;}
	.st488{fill:none;stroke:#D2EDF5;stroke-width:2.2824;stroke-miterlimit:10;}
	.st489{fill:#0F4672;}
	.st490{fill:#92B779;}
	.st491{fill:#D47C60;}
	.st492{fill:#054A6E;}
	.st493{fill:#2B9996;}
	.st494{fill:#CAE9EB;}
	.st495{fill:#F7A581;}
	.st496{fill:#F18D24;}
	.st497{fill:#CF7929;}
	.st498{fill:#182F40;}
	.st499{fill:#0E1B2D;}
	.st500{fill:#406E34;}
	.st501{fill:#3B83B0;}
	.st502{fill:#3B3F4A;}
	.st503{fill:#242930;}
	.st504{fill:#FBD165;}
	.st505{fill:#FCB017;}
	.st506{fill:#155567;}
	.st507{fill:#236A7E;}
	.st508{fill:#3096B3;}
	.st509{fill:#84D2F6;}
	.st510{fill:#C4E4F8;}
	.st511{fill:#FCB774;}
	.st512{fill:#FAA31B;}
	.st513{fill:#E38D25;}
	.st514{fill:#AADFF3;}
	.st515{fill:#126E84;}
	.st516{fill:#064A56;}
	.st517{fill:#096D84;}
	.st518{fill:#D3CED9;}
	.st519{fill:#D89466;}
	.st520{fill:#FAA61A;}
	.st521{fill:#AA6549;}
	.st522{fill:#B35143;}
	.st523{fill:#3B3E54;}
	.st524{fill:#8A432D;}
	.st525{fill:#4C2F2C;}
	.st526{fill:#3C1C19;}
	.st527{fill:#9889C1;}
	.st528{fill:#CC8759;}
	.st529{fill:#665DA9;}
	.st530{fill:#5C2B20;}
	.st531{fill:#F4F5F0;}
	.st532{fill:#E04A95;}
	.st533{fill:#BC6944;}
	.st534{fill:#673021;}
	.st535{fill:#C4C2DF;}
	.st536{fill:#342B29;}
	.st537{fill:#E69F6F;}
	.st538{fill:#F173AC;}
	.st539{fill:#FAA43A;}
	.st540{fill:#F7F7FA;}
	.st541{fill:#3F4076;}
	.st542{fill:#5CA4DA;}
	.st543{fill:#BBD071;}
	.st544{fill:#97A33B;}
	.st545{fill:#49763A;}
	.st546{fill:#E5F2FC;}
	.st547{opacity:0.85;}
	.st548{fill:#4692CF;}
	.st549{fill:#0E2D3D;}
	.st550{fill:#5478B4;}
	.st551{fill:#5B83C3;}
	.st552{fill:#304664;}
	.st553{fill:#364D71;}
	.st554{fill:#2C3B57;}
	.st555{fill:#D5D8E8;}
	.st556{opacity:0.82;}
	.st557{fill:#418ECC;}
	.st558{fill:#173342;}
	.st559{fill:#295274;}
	.st560{fill:#F47D58;}
	.st561{fill:#183C59;}
	.st562{fill:#616262;}
	.st563{fill:#E0CFC8;}
	.st564{fill:#64A8DC;}
	.st565{opacity:0.66;}
	.st566{fill:#CBE1F5;}
	.st567{fill:#8CB6E1;}
	.st568{fill:#B5D3EF;}
	.st569{fill:#B8D8F2;}
	.st570{fill:#92B4DF;}
	.st571{fill:#BBDDDE;}
	.st572{fill:#D1ECED;}
	.st573{fill:#C8CBE2;}
	.st574{fill:#669AD2;}
	.st575{fill:#4D84C5;}
	.st576{fill:#181C4D;}
	.st577{fill:#EFBBBB;}
	.st578{fill:#F9CBCB;}
	.st579{fill:#2B3874;}
	.st580{fill:#EBAEAD;}
	.st581{fill:#21295D;}
	.st582{fill:#31344D;}
	.st583{fill:#FCD4D1;}
	.st584{fill:#B95050;}
	.st585{fill:#FEE9E2;}
	.st586{fill:#181A2E;}
	.st587{fill:#EB9B9C;}
	.st588{fill:#F9B7B3;}
	.st589{fill:#444C86;}
	.st590{fill:#2B3367;}
	.st591{fill:#93BAE3;}
	.st592{fill:#4B80C1;}
	.st593{fill:#396CAD;}
	.st594{fill:#C0D9F1;}
	.st595{fill:#F9B4AF;}
	.st596{fill:#4E88C7;}
	.st597{fill:#195595;}
	.st598{fill:#D9475A;}
	.st599{fill:#1172BA;}
	.st600{fill:#247BBC;}
	.st601{fill:#FAA71F;}
	.st602{fill:#D55127;}
	.st603{fill:none;stroke:#212F57;stroke-width:0.925;stroke-miterlimit:10;}
	.st604{fill:#212F57;}
	.st605{opacity:0.5;fill:#838DC5;}
	.st606{fill:#F2C7BD;}
	.st607{fill:none;stroke:#212F57;stroke-width:1.2665;stroke-linecap:round;stroke-linejoin:round;stroke-miterlimit:10;}
	.st608{fill:#272A41;}
	.st609{fill:none;stroke:#E8B1C3;stroke-width:2.5241;stroke-miterlimit:10;}
	.st610{fill:#5160A5;}
	.st611{opacity:0.5;fill:#D55127;}
	.st612{opacity:0.5;fill:#DA8727;}
	.st613{opacity:0.7;}
	.st614{fill:#DA8727;}
	.st615{fill:#A3BDE3;}
	.st616{fill:#1B7A84;}
	.st617{fill:#B1D2EF;}
	.st618{fill:#F8ACAD;}
	.st619{opacity:0.63;}
	.st620{clip-path:url(#SVGID_155_);}
	.st621{fill:#D7E7F6;}
	.st622{clip-path:url(#SVGID_157_);}
	.st623{clip-path:url(#SVGID_159_);}
	.st624{clip-path:url(#SVGID_161_);}
	.st625{clip-path:url(#SVGID_163_);}
	.st626{clip-path:url(#SVGID_165_);}
	.st627{clip-path:url(#SVGID_167_);}
	.st628{clip-path:url(#SVGID_169_);}
	.st629{clip-path:url(#SVGID_171_);}
	.st630{clip-path:url(#SVGID_173_);}
	.st631{clip-path:url(#SVGID_175_);}
	.st632{clip-path:url(#SVGID_177_);}
	.st633{clip-path:url(#SVGID_179_);}
	.st634{clip-path:url(#SVGID_181_);}
	.st635{clip-path:url(#SVGID_183_);}
	.st636{clip-path:url(#SVGID_185_);}
	.st637{clip-path:url(#SVGID_187_);}
	.st638{clip-path:url(#SVGID_189_);}
	.st639{clip-path:url(#SVGID_191_);}
	.st640{clip-path:url(#SVGID_193_);}
	.st641{clip-path:url(#SVGID_195_);}
	.st642{fill:#89B2DF;}
	.st643{fill:#4377BC;}
	.st644{fill:#DA6566;}
	.st645{fill:#F58E92;}
	.st646{fill-rule:evenodd;clip-rule:evenodd;fill:#4DB5D1;}
	.st647{fill:#F15C60;}
	.st648{fill:#FFD574;}
	.st649{fill:#F2B892;}
	.st650{fill:#EB836C;}
	.st651{fill:url(#SVGID_196_);}
	.st652{fill:#222C55;}
	.st653{fill:#4551A3;}
	.st654{fill:url(#SVGID_197_);}
	.st655{fill:#0B3C5F;}
	.st656{fill:#F8A187;}
	.st657{fill:#F4B68F;}
	.st658{fill:#232850;}
	.st659{fill:#306D9E;}
	.st660{fill:#255981;}
	.st661{fill:#F69E83;}
	.st662{fill:#0B3D60;}
	.st663{opacity:0.45;fill:#89B2DF;}
	.st664{filter:url(#Adobe_OpacityMaskFilter_19_);}
	.st665{filter:url(#Adobe_OpacityMaskFilter_20_);}
	.st666{mask:url(#SVGID_198_);fill:url(#SVGID_199_);}
	.st667{opacity:0.33;fill:#AADFF3;}
	.st668{filter:url(#Adobe_OpacityMaskFilter_21_);}
	.st669{filter:url(#Adobe_OpacityMaskFilter_22_);}
	.st670{mask:url(#SVGID_200_);fill:url(#SVGID_201_);}
	.st671{filter:url(#Adobe_OpacityMaskFilter_23_);}
	.st672{filter:url(#Adobe_OpacityMaskFilter_24_);}
	.st673{mask:url(#SVGID_202_);fill:url(#SVGID_203_);}
	.st674{fill:#CFD8EE;}
	.st675{fill:#E3E6F4;}
	.st676{fill:#ABBADF;}
	.st677{fill:#C3CCE8;}
	.st678{fill:url(#SVGID_204_);}
	.st679{fill:url(#SVGID_205_);}
	.st680{fill:#D3D0E9;}
	.st681{fill:#078BBF;}
	.st682{fill:#057B97;}
	.st683{fill:url(#SVGID_206_);}
	.st684{fill:#C74534;}
	.st685{fill:#F27B66;}
	.st686{fill:#58449B;}
	.st687{fill:#6B52A2;}
	.st688{fill:#A9A6D2;}
	.st689{fill:#C4C0E0;}
	.st690{opacity:0.33;}
	.st691{opacity:0.23;fill:url(#SVGID_207_);}
	.st692{opacity:0.36;fill:url(#SVGID_208_);}
	.st693{opacity:0.36;fill:url(#SVGID_209_);}
	.st694{opacity:0.23;fill:url(#SVGID_210_);}
	.st695{fill:#D8E0F2;}
	.st696{opacity:0.36;fill:url(#SVGID_211_);}
	.st697{opacity:0.42;fill:url(#SVGID_212_);}
	.st698{fill:#F6F9FD;}
	.st699{fill:#049AC9;}
	.st700{fill:#E0E0E0;}
	.st701{fill:#EBEBEB;}
	.st702{fill:none;stroke:#F2A59D;stroke-width:0.05;stroke-miterlimit:10;}
	.st703{fill:#FAFBFB;}
	.st704{fill:#E7515B;}
	.st705{fill:#CFCFCE;}
	.st706{fill:#FBBD9D;}
	.st707{fill:#EC996F;}
	.st708{opacity:0.6;fill:#FFFFFF;}
	.st709{opacity:0.6;}
	.st710{fill:#263238;}
	.st711{fill:#455B64;}
	.st712{fill:none;stroke:#43494E;stroke-miterlimit:10;}
	.st713{fill:#F5F5F5;}
	.st714{fill:#F3725F;}
	.st715{opacity:0;}
	.st716{clip-path:url(#SVGID_214_);}
	.st717{fill:#C9D8EF;}
	.st718{clip-path:url(#SVGID_216_);}
	.st719{clip-path:url(#SVGID_218_);}
	.st720{clip-path:url(#SVGID_220_);}
	.st721{clip-path:url(#SVGID_222_);}
	.st722{clip-path:url(#SVGID_224_);}
	.st723{clip-path:url(#SVGID_226_);}
	.st724{clip-path:url(#SVGID_228_);}
	.st725{clip-path:url(#SVGID_230_);}
	.st726{clip-path:url(#SVGID_232_);}
	.st727{clip-path:url(#SVGID_234_);}
	.st728{clip-path:url(#SVGID_236_);}
	.st729{clip-path:url(#SVGID_238_);}
	.st730{clip-path:url(#SVGID_240_);}
	.st731{clip-path:url(#SVGID_242_);}
	.st732{clip-path:url(#SVGID_244_);}
	.st733{clip-path:url(#SVGID_246_);}
	.st734{clip-path:url(#SVGID_248_);}
	.st735{clip-path:url(#SVGID_250_);}
	.st736{clip-path:url(#SVGID_252_);}
	.st737{clip-path:url(#SVGID_254_);}
	.st738{fill:#59595B;}
	.st739{fill:#EDF7F7;}
	.st740{fill:#FDD247;}
	.st741{fill:#1D2040;}
	.st742{fill:url(#SVGID_255_);}
	.st743{fill:#F89A45;}
	.st744{fill:#4F2E1F;}
	.st745{fill:#AEADAD;}
	.st746{fill:#3C2116;}
	.st747{fill:#76696D;}
	.st748{fill:#DFB0B4;}
	.st749{fill:#0E4363;}
	.st750{fill:#F8F6F1;}
	.st751{fill:#A4BAE1;}
	.st752{fill:#4D1F38;}
	.st753{fill:#3A1528;}
	.st754{fill:#746875;}
	.st755{fill:#DAADD1;}
	.st756{fill:url(#SVGID_256_);}
	.st757{fill:#CD3570;}
	.st758{fill:url(#SVGID_257_);}
	.st759{fill:url(#SVGID_258_);}
	.st760{fill:#A09F9F;}
	.st761{fill:none;stroke:#FFFFFF;stroke-linecap:round;stroke-miterlimit:10;}
	.st762{fill:none;stroke:#FFFFFF;stroke-linecap:round;stroke-linejoin:round;stroke-miterlimit:10;}
	.st763{fill:none;stroke:#A09F9F;stroke-miterlimit:10;}
	.st764{fill:#7B553A;}
	.st765{fill:#5F422D;}
	.st766{fill:#FDB839;}
	.st767{fill:#401B0F;}
	.st768{fill:#034B4E;}
	.st769{opacity:0.36;}
	.st770{opacity:0.1;fill:#CFCFCE;}
	.st771{opacity:0.15;}
	.st772{fill:#FBB781;}
	.st773{fill:#49A8D5;}
	.st774{fill:#077679;}
	.st775{opacity:0.1;}
	.st776{fill:#BEE0C0;}
	.st777{opacity:0.23;fill:#245C74;}
	.st778{fill:#245C74;}
	.st779{fill:#FCC69B;}
	.st780{fill:#DBA285;}
	.st781{fill:#757576;}
	.st782{fill:#ABABAA;}
	.st783{fill:#6F6F71;}
	.st784{fill:#FFCA70;}
	.st785{fill:#FAA325;}
	.st786{fill:none;stroke:#077679;stroke-width:0.25;stroke-linecap:round;stroke-linejoin:round;stroke-miterlimit:10;}
	.st787{fill:#963A20;}
	.st788{fill:#E2E2E2;}
	.st789{fill:#18184B;}
	.st790{fill:#F8B6C9;}
	.st791{fill:#F58531;}
	.st792{fill:#759CD2;}
	.st793{fill:#BACFEB;}
</style>
<g>
	<g>
		<g>
			<path class="st19" d="M26.44,63.53c-0.01,0-1.37,0.01-3.26-0.34c-1.74-0.33-4.31-1.04-6.66-2.6c-2.32-1.54-5.34-2.07-7.45-2.26
				c-2.3-0.2-4.06-0.03-4.08-0.02l-0.01-0.15c0.02,0,1.8-0.17,4.11,0.02c2.14,0.18,5.17,0.73,7.52,2.28
				c2.32,1.54,4.87,2.25,6.6,2.57c1.87,0.35,3.22,0.34,3.23,0.34L26.44,63.53z"/>
		</g>
		<g>
			<g>
				<g>
					<g>
						<path class="st19" d="M28.12,64.39c-1.55,1.74-8.12,2.81-12.03,0.79c-2.16-1.12-3.87-2.43-5.38-3.59
							c-1.97-1.51-3.67-2.81-5.75-3.28l-0.18-0.04l0.16-0.09c0.03-0.02,3.08-1.76,7.44-2.05c2.56-0.17,5.06,0.18,7.44,1.05
							c2.97,1.09,5.75,2.99,8.27,5.64l-0.05,0.05l0.05-0.05c0.44,0.47,0.48,0.97,0.11,1.46C28.18,64.32,28.15,64.36,28.12,64.39z
							 M5.19,58.21c2.03,0.51,3.7,1.79,5.62,3.26c1.5,1.15,3.21,2.46,5.36,3.58c1.76,0.92,4.3,1.28,6.95,0.99
							c2.25-0.24,4.18-0.94,4.9-1.74c0.03-0.03,0.05-0.06,0.08-0.09c0.33-0.43,0.29-0.86-0.1-1.27c-5.65-5.98-11.6-6.92-15.59-6.65
							C8.65,56.52,5.88,57.85,5.19,58.21z"/>
					</g>
				</g>
			</g>
		</g>
		<g>
			<polygon class="st19" points="11.96,58.64 11.84,58.72 10.31,56.49 10.43,56.4 			"/>
		</g>
		<g>
			<polygon class="st19" points="13.78,59.23 11.04,61.76 10.94,61.65 13.69,59.13 			"/>
		</g>
		<g>
			
				<rect x="16.34" y="56.34" transform="matrix(0.9973 -0.0736 0.0736 0.9973 -4.255 1.3656)" class="st19" width="0.15" height="4.19"/>
		</g>
	</g>
	<g>
		<g>
			<path class="st19" d="M25.73,57.51c-0.02-0.01-1.78-0.63-4.03-2.17c-2.07-1.42-4.99-3.92-7.14-7.8c-2.49-4.5-5.19-7.33-7.03-8.92
				c-1.98-1.72-3.4-2.38-3.41-2.39l0.06-0.13c0.01,0.01,1.44,0.68,3.44,2.41c1.84,1.6,4.56,4.44,7.06,8.96
				c2.13,3.86,5.04,6.34,7.1,7.75c2.23,1.52,3.98,2.14,4,2.15L25.73,57.51z"/>
		</g>
		<g>
			<g>
				<g>
					<g>
						<path class="st19" d="M31.11,57.16l-0.4,0.07c-0.01,0-1.32,0.23-3.32,0.2c-1.85-0.03-4.7-0.31-7.75-1.42
							c-3.43-1.26-6.42-3.3-8.88-6.08c-3.07-3.47-5.32-8.09-6.68-13.74l-0.02-0.06l0.06-0.02c0.02-0.01,2.33-0.71,5.34,0.01
							c1.77,0.42,3.43,1.24,4.94,2.44c1.89,1.5,3.55,3.58,4.93,6.21c3.11,5.91,6.04,8.95,7.96,10.46c2.06,1.63,3.4,1.86,3.42,1.86
							L31.11,57.16z M4.23,36.22c3.08,12.69,10.1,17.69,15.45,19.65c3.03,1.11,5.86,1.38,7.7,1.42c1.4,0.02,2.45-0.08,2.96-0.15
							c-0.53-0.17-1.64-0.62-3.14-1.8c-1.92-1.52-4.87-4.57-7.99-10.5c-3.1-5.9-7.03-7.92-9.78-8.58
							C6.73,35.61,4.62,36.12,4.23,36.22z"/>
					</g>
				</g>
			</g>
		</g>
		<g>
			
				<rect x="12.66" y="46.1" transform="matrix(0.0434 -0.9991 0.9991 0.0434 -36.7021 59.5169)" class="st19" width="0.14" height="5.64"/>
		</g>
		<g>
			<rect x="13.68" y="38.16" class="st19" width="0.14" height="7.88"/>
		</g>
		<g>
			
				<rect x="7.79" y="38.71" transform="matrix(0.052 -0.9986 0.9986 0.052 -33.4959 46.715)" class="st19" width="0.14" height="4.57"/>
		</g>
	</g>
	<g>
		<g>
			<g>
				<g>
					<g>
						<g>
							<path class="st141" d="M119.4,29.52l-2.14-3.48c-0.18-0.29-0.08-0.66,0.2-0.83c0.29-0.17,0.66-0.08,0.84,0.2l1.51,2.46
								l4.02-2.36c0.29-0.17,0.66-0.07,0.83,0.21c0.17,0.29,0.08,0.66-0.21,0.83L119.4,29.52z"/>
						</g>
					</g>
				</g>
			</g>
		</g>
		<g>
			<path class="st141" d="M120.83,34.88c-4.24,0-7.68-3.43-7.68-7.64s3.45-7.64,7.68-7.64s7.68,3.43,7.68,7.64
				S125.07,34.88,120.83,34.88z M120.83,20.69c-3.63,0-6.58,2.94-6.58,6.55s2.95,6.55,6.58,6.55c3.63,0,6.58-2.94,6.58-6.55
				S124.46,20.69,120.83,20.69z"/>
		</g>
	</g>
	<g>
		<g>
			<g>
				<g>
					<g>
						<g>
							<path class="st141" d="M95.61,18.28l-1.32-2.15c-0.11-0.18-0.05-0.41,0.12-0.51c0.18-0.11,0.41-0.05,0.52,0.12l0.93,1.52
								l2.48-1.46c0.18-0.11,0.41-0.05,0.51,0.13c0.11,0.18,0.05,0.41-0.13,0.51L95.61,18.28z"/>
						</g>
					</g>
				</g>
			</g>
		</g>
		<g>
			<path class="st141" d="M96.5,21.59c-2.62,0-4.75-2.12-4.75-4.72s2.13-4.72,4.75-4.72c2.62,0,4.75,2.12,4.75,4.72
				S99.12,21.59,96.5,21.59z M96.5,12.82c-2.24,0-4.07,1.82-4.07,4.05s1.83,4.05,4.07,4.05c2.24,0,4.07-1.82,4.07-4.05
				S98.74,12.82,96.5,12.82z"/>
		</g>
	</g>
	<g>
		<g>
			<g>
				<g>
					<g>
						<g>
							<path class="st141" d="M71.2,10.34l-2.02-3.3c-0.17-0.27-0.08-0.62,0.19-0.79c0.27-0.17,0.63-0.08,0.79,0.19l1.43,2.33
								l3.81-2.24c0.27-0.16,0.63-0.07,0.79,0.2c0.16,0.27,0.07,0.62-0.2,0.79L71.2,10.34z"/>
						</g>
					</g>
				</g>
			</g>
		</g>
		<g>
			<path class="st141" d="M72.56,15.43c-4.01,0-7.28-3.25-7.28-7.24c0-3.99,3.27-7.24,7.28-7.24c4.01,0,7.28,3.25,7.28,7.24
				C79.84,12.18,76.58,15.43,72.56,15.43z M72.56,1.97c-3.44,0-6.24,2.79-6.24,6.21s2.8,6.21,6.24,6.21c3.44,0,6.24-2.79,6.24-6.21
				S76,1.97,72.56,1.97z"/>
		</g>
	</g>
	<g>
		<g>
			<g>
				<g>
					<g>
						<g>
							<path class="st141" d="M49.79,18.25l-1.34-2.18c-0.11-0.18-0.05-0.41,0.13-0.52c0.18-0.11,0.41-0.05,0.52,0.13l0.95,1.54
								l2.51-1.48c0.18-0.11,0.41-0.05,0.52,0.13c0.11,0.18,0.05,0.41-0.13,0.52L49.79,18.25z"/>
						</g>
					</g>
				</g>
			</g>
		</g>
		<g>
			<path class="st141" d="M50.69,21.61c-2.65,0-4.81-2.15-4.81-4.79s2.16-4.79,4.81-4.79c2.65,0,4.81,2.15,4.81,4.79
				S53.34,21.61,50.69,21.61z M50.69,12.72c-2.27,0-4.12,1.84-4.12,4.1s1.85,4.1,4.12,4.1c2.27,0,4.12-1.84,4.12-4.1
				S52.96,12.72,50.69,12.72z"/>
		</g>
	</g>
	<g>
		<g>
			<g>
				<g>
					<g>
						<g>
							<path class="st141" d="M30.99,7.78l-1.67-2.73c-0.14-0.22-0.07-0.52,0.16-0.65C29.7,4.26,30,4.33,30.13,4.56l1.18,1.93
								l3.15-1.85c0.23-0.13,0.52-0.06,0.65,0.17c0.13,0.23,0.06,0.52-0.17,0.65L30.99,7.78z"/>
						</g>
					</g>
				</g>
			</g>
		</g>
		<g>
			<path class="st141" d="M32.12,11.98c-3.32,0-6.02-2.69-6.02-5.99c0-3.3,2.7-5.99,6.02-5.99c3.32,0,6.02,2.69,6.02,5.99
				C38.14,9.3,35.44,11.98,32.12,11.98z M32.12,0.86c-2.85,0-5.16,2.3-5.16,5.14c0,2.83,2.32,5.14,5.16,5.14s5.16-2.3,5.16-5.14
				C37.28,3.16,34.97,0.86,32.12,0.86z"/>
		</g>
	</g>
	<g>
		<g>
			<g>
				<g>
					<g>
						<g>
							<path class="st141" d="M9.66,21.34L7.8,18.32c-0.15-0.25-0.07-0.57,0.18-0.72c0.25-0.15,0.57-0.07,0.73,0.17l1.31,2.14
								l3.49-2.06c0.25-0.15,0.58-0.07,0.72,0.18c0.15,0.25,0.07,0.57-0.19,0.72L9.66,21.34z"/>
						</g>
					</g>
				</g>
			</g>
		</g>
		<g>
			<path class="st141" d="M10.91,26c-3.68,0-6.68-2.98-6.68-6.64c0-3.66,3-6.64,6.68-6.64s6.68,2.98,6.68,6.64
				C17.58,23.02,14.59,26,10.91,26z M10.91,13.67c-3.16,0-5.72,2.55-5.72,5.69c0,3.14,2.57,5.69,5.72,5.69s5.72-2.55,5.72-5.69
				C16.63,16.22,14.06,13.67,10.91,13.67z"/>
		</g>
	</g>
	<g>
		<g>
			<g>
				<g>
					<g>
						<g>
							<path class="st141" d="M111.53,8.91l-1.06-1.72c-0.09-0.14-0.04-0.33,0.1-0.41c0.14-0.09,0.33-0.04,0.41,0.1l0.75,1.22
								l1.98-1.17c0.14-0.08,0.33-0.04,0.41,0.11c0.08,0.14,0.04,0.33-0.11,0.41L111.53,8.91z"/>
						</g>
					</g>
				</g>
			</g>
		</g>
		<g>
			<path class="st141" d="M112.23,11.56c-2.09,0-3.8-1.69-3.8-3.78s1.7-3.78,3.8-3.78c2.09,0,3.8,1.69,3.8,3.78
				S114.33,11.56,112.23,11.56z M112.23,4.54c-1.79,0-3.25,1.45-3.25,3.24c0,1.79,1.46,3.24,3.25,3.24c1.79,0,3.25-1.45,3.25-3.24
				C115.49,5.99,114.03,4.54,112.23,4.54z"/>
		</g>
	</g>
	<g>
		
			<rect x="58.39" y="82.07" transform="matrix(-1 -1.224647e-16 1.224647e-16 -1 127.2594 195.7862)" class="st142" width="10.47" height="31.65"/>
	</g>
	<g>
		<path class="st143" d="M50.15,97.31h26.96c17.53,0,31.73-14.21,31.73-31.73v0c0-17.53-14.21-31.73-31.73-31.73H50.15
			c-17.53,0-31.73,14.21-31.73,31.73v0C18.42,83.11,32.62,97.31,50.15,97.31z"/>
	</g>
	<g>
		
			<rect x="21.96" y="27.09" transform="matrix(-1 -1.224647e-16 1.224647e-16 -1 127.2594 114.4625)" class="st3" width="83.34" height="60.27"/>
	</g>
	<g>
		<linearGradient id="SVGID_1_" gradientUnits="userSpaceOnUse" x1="21.9582" y1="30.7339" x2="105.3013" y2="30.7339">
			<stop  offset="0" style="stop-color:#F89E59"/>
			<stop  offset="1" style="stop-color:#FFD356"/>
		</linearGradient>
		<polygon class="st9" points="21.96,34.37 105.3,34.37 105.3,27.09 21.96,27.09 		"/>
	</g>
	<g>
		<path class="st145" d="M95.16,91.92c0,1.6,1.54,2.9,3.43,2.9c1.89,0,3.43-1.3,3.43-2.9c0-1.6-1.54-2.9-3.43-2.9
			C96.69,89.02,95.16,90.32,95.16,91.92z"/>
	</g>
	<rect x="40.07" y="112.52" class="st145" width="47.11" height="2.39"/>
	<path class="st146" d="M35.95,32.11h-9.14c-0.76,0-1.38-0.62-1.38-1.38v0c0-0.76,0.62-1.38,1.38-1.38h9.14
		c0.76,0,1.38,0.62,1.38,1.38l0,0C37.33,31.49,36.71,32.11,35.95,32.11z"/>
	<rect x="28.06" y="51.61" class="st147" width="43.64" height="1.49"/>
	<rect x="28.06" y="54.3" class="st147" width="32.36" height="1.49"/>
	<rect x="28.06" y="60.14" class="st147" width="20.52" height="1.49"/>
	<rect x="28.06" y="62.83" class="st147" width="36.87" height="1.49"/>
	<rect x="28.06" y="69.25" class="st147" width="26.23" height="1.49"/>
	<rect x="28.06" y="71.94" class="st147" width="32.03" height="1.49"/>
	<rect x="28.06" y="78.36" class="st147" width="35.07" height="1.49"/>
	<rect x="28.06" y="81.05" class="st147" width="18.43" height="1.49"/>
	<rect x="25.93" y="51.61" class="st141" width="1.1" height="4.18"/>
	<rect x="25.93" y="60.14" class="st141" width="1.1" height="4.18"/>
	<rect x="25.93" y="69.25" class="st141" width="1.1" height="4.18"/>
	<rect x="25.93" y="78.36" class="st141" width="1.1" height="4.18"/>
	<g>
		<g>
			<path class="st141" d="M84.46,83.44h-0.03c-1.65,0-2.99-1.34-2.99-2.99v0c0-1.65,1.34-2.99,2.99-2.99h0.03
				c1.65,0,2.99,1.34,2.99,2.99l0,0C87.45,82.1,86.11,83.44,84.46,83.44z"/>
		</g>
		<g>
			<g>
				<g>
					<path class="st148" d="M84.25,81.77l-1.52-1.32c-0.12-0.11-0.14-0.3-0.03-0.42c0.11-0.12,0.3-0.14,0.42-0.03l1.07,0.93
						l1.53-1.7c0.11-0.12,0.3-0.13,0.42-0.02c0.12,0.11,0.13,0.3,0.02,0.42L84.25,81.77z"/>
				</g>
			</g>
		</g>
	</g>
	<g>
		<g>
			<g>
				<path class="st141" d="M86.08,74.33h-3.28c-0.76,0-1.37-0.61-1.37-1.36v-3.26c0-0.75,0.61-1.36,1.37-1.36h3.28
					c0.76,0,1.37,0.61,1.37,1.36v3.26C87.45,73.72,86.84,74.33,86.08,74.33z M82.81,68.73c-0.54,0-0.99,0.44-0.99,0.98v3.26
					c0,0.54,0.44,0.98,0.99,0.98h3.28c0.54,0,0.99-0.44,0.99-0.98v-3.26c0-0.54-0.44-0.98-0.99-0.98H82.81z"/>
			</g>
		</g>
	</g>
	<g>
		<g>
			<g>
				<path class="st141" d="M95.13,65.22h-3.28c-0.76,0-1.37-0.61-1.37-1.36V60.6c0-0.75,0.61-1.36,1.37-1.36h3.28
					c0.76,0,1.37,0.61,1.37,1.36v3.26C96.5,64.61,95.89,65.22,95.13,65.22z M91.85,59.62c-0.54,0-0.99,0.44-0.99,0.98v3.26
					c0,0.54,0.44,0.98,0.99,0.98h3.28c0.54,0,0.99-0.44,0.99-0.98V60.6c0-0.54-0.44-0.98-0.99-0.98H91.85z"/>
			</g>
		</g>
	</g>
	<g>
		<g>
			<g>
				<path class="st141" d="M95.13,83.44h-3.28c-0.76,0-1.37-0.61-1.37-1.36v-3.26c0-0.75,0.61-1.36,1.37-1.36h3.28
					c0.76,0,1.37,0.61,1.37,1.36v3.26C96.5,82.83,95.89,83.44,95.13,83.44z M91.85,77.84c-0.54,0-0.99,0.44-0.99,0.98v3.26
					c0,0.54,0.44,0.98,0.99,0.98h3.28c0.54,0,0.99-0.44,0.99-0.98v-3.26c0-0.54-0.44-0.98-0.99-0.98H91.85z"/>
			</g>
		</g>
	</g>
	<g>
		<g>
			<path class="st141" d="M93.51,74.33h-0.03c-1.65,0-2.99-1.34-2.99-2.99v0c0-1.65,1.34-2.99,2.99-2.99h0.03
				c1.65,0,2.99,1.34,2.99,2.99l0,0C96.5,72.99,95.16,74.33,93.51,74.33z"/>
		</g>
		<g>
			<g>
				<g>
					<path class="st148" d="M93.3,72.66l-1.52-1.32c-0.12-0.11-0.14-0.3-0.03-0.42c0.11-0.12,0.3-0.14,0.42-0.03l1.07,0.93l1.53-1.7
						c0.11-0.12,0.3-0.13,0.42-0.02c0.12,0.11,0.13,0.3,0.02,0.42L93.3,72.66z"/>
				</g>
			</g>
		</g>
	</g>
	<g>
		<g>
			<path class="st141" d="M84.46,65.22h-0.03c-1.65,0-2.99-1.34-2.99-2.99l0,0c0-1.65,1.34-2.99,2.99-2.99h0.03
				c1.65,0,2.99,1.34,2.99,2.99l0,0C87.45,63.88,86.11,65.22,84.46,65.22z"/>
		</g>
		<g>
			<g>
				<g>
					<path class="st148" d="M84.25,63.55l-1.52-1.32c-0.12-0.11-0.14-0.3-0.03-0.42c0.11-0.12,0.3-0.14,0.42-0.03l1.07,0.93
						l1.53-1.7c0.11-0.12,0.3-0.13,0.42-0.02c0.12,0.11,0.13,0.3,0.02,0.42L84.25,63.55z"/>
				</g>
			</g>
		</g>
	</g>
	<g>
		<path class="st149" d="M97.82,47c0,2.16-0.78,4.14-2.08,5.67c-1.67,1.97-4.13,3.14-6.78,3.14c-2.81,0-5.37-1.31-7.01-3.42
			c-1.16-1.49-1.85-3.36-1.85-5.39c0-4.87,3.96-8.81,8.86-8.81C93.86,38.19,97.82,42.13,97.82,47z"/>
		<path class="st141" d="M95.3,51.72c-0.03-0.03-0.11-0.06-0.15-0.09c0,0-0.01,0-0.01-0.01l0,0c-0.39-0.21-1.53-0.78-3.77-1.42
			c0,0,0,0,0,0c-0.41-0.12-0.72-0.2-0.82-0.23l-0.19-0.3c-0.03-0.3-0.02-0.76-0.02-1.06c0.32-0.37,0.6-0.94,0.76-1.83
			c0.05,0.04,0.09-0.05,0.09-0.05c-0.03-0.05,0.43-1.16,0.35-1.41c-0.05-0.14-0.14-0.12-0.22-0.08c0.01-0.06,0.02-0.13,0.03-0.2
			c0,0,0.18-1.7-0.68-2.64c-0.09-0.09-0.41-0.11-0.41-0.11c-1.39-0.42-2.22-0.23-2.74-0.01c-0.77,0.63-0.83,1.7-0.8,2.29
			c0.02,0.14,0.03,0.28,0.05,0.42c0,0,0,0,0,0c0.01,0.05,0.01,0.11,0.02,0.16c-0.07-0.04-0.17-0.07-0.22,0.07
			c-0.09,0.25,0.24,1.35,0.29,1.42c0,0,0.07,0.11,0.13,0.06c0,0,0,0,0,0c0.16,0.97,0.45,1.57,0.75,1.94
			c-0.02,0.39-0.08,0.86-0.12,1.15l-0.34,0.36l0,0l0,0c-0.02,0.01-0.04,0.01-0.05,0.02c0,0,0,0,0,0c-3.88,1.03-4.97,1.75-4.97,1.75
			c-0.1,0.06-0.2,0.22-0.3,0.46c1.62,2.09,4.17,3.42,7.01,3.42c2.65,0,5.11-1.16,6.78-3.14C95.58,52.26,95.46,51.88,95.3,51.72z"/>
	</g>
	<g>
		<linearGradient id="SVGID_2_" gradientUnits="userSpaceOnUse" x1="112.7535" y1="86.7401" x2="129.208" y2="86.7401">
			<stop  offset="0" style="stop-color:#59C7DB"/>
			<stop  offset="1" style="stop-color:#5B71B6"/>
		</linearGradient>
		<path class="st10" d="M114.19,65.11c1.42-0.68,2.83,3.82,2.83,3.82c2.41,3.17,5.78-1.05,5.45,3.69c-0.58,8.29,9.59,2.61,4.9,11.27
			c-4.69,8.66,4.14,4.9,1.23,11.88c-2.92,6.98,0.86,15.31-3.52,11.89c0,0-3.86-8.43-7.85-11.04c-3.98-2.61,2.39-5.7,1.14-9.24
			c-1.81-5.14-6.17-4.94-3.03-10.47C118.49,71.37,109.37,67.4,114.19,65.11z"/>
		<g>
			<path class="st3" d="M126.47,104.48c-1.9-1.33-4.13-10.6-4.26-16.13c-0.07-2.83-0.91-4.01-1.65-5.05
				c-0.71-0.99-1.32-1.85-0.96-3.82c0.68-3.77-1.11-5.39-1.13-5.41l0.21-0.24c0.08,0.07,1.95,1.75,1.23,5.7
				c-0.33,1.84,0.22,2.61,0.91,3.59c0.73,1.02,1.64,2.3,1.71,5.22c0.14,5.93,2.42,14.68,4.13,15.88L126.47,104.48z"/>
		</g>
		<g>
			<linearGradient id="SVGID_3_" gradientUnits="userSpaceOnUse" x1="124.8242" y1="95.875" x2="139.7041" y2="95.875">
				<stop  offset="0" style="stop-color:#59C7DB"/>
				<stop  offset="1" style="stop-color:#5B71B6"/>
			</linearGradient>
			<path class="st11" d="M127.18,105.16c-0.25,0-0.51-0.03-0.8-0.09c-0.73-0.15-1.21-0.53-1.43-1.14c-0.51-1.46,0.68-3.83,1.64-4.97
				c0.02-0.02,1.63-1.98,1.46-4.7c-0.03-0.46-0.08-0.88-0.12-1.25c-0.12-1.08-0.21-1.85,0.26-2.37c0.41-0.46,1.2-0.66,2.64-0.66
				c2.53-0.01,3.53-1.05,4.34-1.89c0.34-0.36,0.66-0.69,1.06-0.9l0,0c1.26-0.69,2.6-0.79,3.18-0.24c0.28,0.26,0.51,0.77,0.05,1.72
				c-0.42,0.87-0.96,1.42-1.39,1.86c-0.58,0.59-0.97,0.98-0.77,1.77c0.05,0.18,0.1,0.37,0.16,0.55c0.39,1.33,0.83,2.83-1.45,3.85
				c-0.48,0.22-0.93,0.39-1.32,0.54c-1.59,0.62-2.56,1-3.64,3.28c-0.21,0.44-0.4,0.86-0.58,1.27
				C129.6,103.7,128.95,105.16,127.18,105.16z M136.37,87.45c-0.35,0.19-0.64,0.49-0.98,0.85c-0.85,0.88-1.9,1.98-4.56,1.99
				c-1.33,0.01-2.07,0.18-2.41,0.56c-0.37,0.42-0.29,1.13-0.18,2.13c0.04,0.38,0.09,0.8,0.12,1.27c0.18,2.85-1.46,4.84-1.53,4.92
				c-0.95,1.13-2.04,3.38-1.58,4.67c0.18,0.5,0.58,0.82,1.19,0.94c2.15,0.43,2.75-0.91,3.73-3.13c0.18-0.41,0.37-0.83,0.58-1.27
				c1.14-2.39,2.2-2.81,3.81-3.44c0.39-0.15,0.82-0.32,1.3-0.54c2.03-0.91,1.67-2.16,1.28-3.48c-0.06-0.19-0.11-0.38-0.16-0.56
				c-0.24-0.95,0.24-1.44,0.85-2.06c0.44-0.45,0.94-0.95,1.33-1.77c0.21-0.43,0.38-1.01,0.02-1.35
				C138.7,86.72,137.49,86.84,136.37,87.45L136.37,87.45z"/>
		</g>
		<g>
			<linearGradient id="SVGID_4_" gradientUnits="userSpaceOnUse" x1="126.0962" y1="98.0278" x2="137.2646" y2="98.0278">
				<stop  offset="0" style="stop-color:#59C7DB"/>
				<stop  offset="1" style="stop-color:#5B71B6"/>
			</linearGradient>
			<path class="st12" d="M126.41,106.97l-0.31-0.02c0.02-0.29,0.41-7.21,3.2-9.24c3.06-2.22,4.03-4.61,4.49-6.21
				c0.54-1.89,3.3-2.39,3.42-2.41l0.05,0.31c-0.03,0-2.68,0.49-3.17,2.19c-0.47,1.65-1.46,4.1-4.61,6.38
				C126.81,99.9,126.41,106.9,126.41,106.97z"/>
		</g>
		<linearGradient id="SVGID_5_" gradientUnits="userSpaceOnUse" x1="122.063" y1="89.0862" x2="135.0697" y2="89.0862">
			<stop  offset="0" style="stop-color:#59C7DB"/>
			<stop  offset="1" style="stop-color:#5B71B6"/>
		</linearGradient>
		<path class="st16" d="M132.8,72.09c-1.99-0.68-1.57,3.13-2.41,5.95c-0.84,2.82-9.33,1.23-5.77,8.28c3.56,7.05-4.51,2.36-2.1,8.51
			c2.41,6.15,0.21,12.74,2.83,11.06c2.62-1.67,1.47-9.42,4.2-10.35c2.73-0.92,3.17-1.99,0.47-4.5c-2.7-2.5,7.07-4.99,4.66-10.04
			C132.27,75.95,135.09,72.87,132.8,72.09z"/>
		<g>
			<path class="st3" d="M126.57,105.6c-0.25-1.05-2.38-10.33-0.39-11.45c1.75-0.99,1.71-4.83,1.44-8.46
				c-0.24-3.21,3.9-4.71,4.08-4.78l0.11,0.29c-0.04,0.01-4.1,1.48-3.87,4.46c0.28,3.73,0.31,7.68-1.6,8.75
				c-1.51,0.85-0.12,8.3,0.54,11.1L126.57,105.6z"/>
		</g>
		<linearGradient id="SVGID_6_" gradientUnits="userSpaceOnUse" x1="119.0783" y1="107.6475" x2="131.0807" y2="107.6475">
			<stop  offset="0" style="stop-color:#F79245"/>
			<stop  offset="1" style="stop-color:#FFCF46"/>
		</linearGradient>
		<polygon class="st44" points="131.08,102.3 128.25,113 121.91,113 119.08,102.3 		"/>
		<linearGradient id="SVGID_7_" gradientUnits="userSpaceOnUse" x1="119.0783" y1="107.6475" x2="131.0807" y2="107.6475">
			<stop  offset="0" style="stop-color:#C97332"/>
			<stop  offset="1" style="stop-color:#FFCF46"/>
		</linearGradient>
		<path style="fill:url(#SVGID_7_);" d="M131.08,102.3c0,0-6.24,1.17-6.24,10.7h-2.93l-2.83-10.7H131.08z"/>
	</g>
	<g>
		<g>
			<path class="st156" d="M31.94,79.68c0,0,0.28,5.02-0.65,5.76c-0.43,0.34-1.44,0.45-2.53,0.45c-0.36,0-0.73-0.01-1.09-0.03
				c0,0,0,0,0,0c-1.43-0.07-2.72-0.25-2.72-0.25s-3.72,0.19-3.53-2.11c0,0,0.43-0.69,0.99-0.85c0.51-0.15,2.85,0.26,3.26,0.27
				c0.45,0.02,3.62,0.72,3.76,0.67c0.14-0.05,0.5-1.29,0.52-2.12c0.03-1.2,0.03-2.3,0.03-2.3L31.94,79.68z"/>
		</g>
		<path class="st157" d="M12.24,127.39c0,0-0.31,0.75-0.58,1.04c-0.26,0.3-1.27,0.83-1.28,1.71c-0.01,0.96,1.7,0.69,2.36,0.66
			c0.67-0.03,0.72-0.55,1-1.09c0.28-0.54,0.56-0.45,0.62-0.89c0.05-0.44-0.21-1.41-0.21-1.41L12.24,127.39z"/>
		<g>
			<path class="st157" d="M25.58,127.56c0,0,0.93,0.97,1.87,1.17c0.94,0.2,1.6,0.46,1.61,1.02c0.01,0.56-2.71,0.92-3.79,0.36
				c-1.61-0.84-1.77-0.58-1.95-1c-0.18-0.42,0.21-1.54,0.2-1.67C23.51,127.27,25.58,127.56,25.58,127.56z"/>
		</g>
		<g>
			<path class="st30" d="M25.47,99.55c0,0,0.98,7.05,1.37,9.43c0.47,2.79,0.62,5.09,0.75,6.53c0.16,1.81-1.55,11.57-1.43,12.1
				c0.11,0.53-3.08-0.22-3.08-0.22s1-11.61,0.52-13.54c-0.45-1.8-2.09-9.7-2.5-9.21c-0.41,0.49-3.01,9.16-3.31,10.58
				c-0.31,1.42-3.26,12.52-3.26,12.52s-2.21,0.47-2.77,0.03c0,0,1.93-10.2,2.12-12.86c0.07-1.01,0.68-12.08,2.4-16.56
				C17.2,95.98,25.47,99.55,25.47,99.55z"/>
		</g>
		<g>
			<path class="st158" d="M0,80.05l0.18-2.65c0.04-0.54,0.51-0.96,1.06-0.92l5.71,0.38c0.55,0.04,0.96,0.51,0.92,1.05l-0.18,2.65
				c-0.04,0.54-0.51,0.96-1.06,0.92l-5.71-0.38C0.38,81.07-0.03,80.6,0,80.05z"/>
			
				<rect x="20.25" y="61.54" transform="matrix(-0.0674 0.9977 -0.9977 -0.0674 104.3269 62.9754)" class="st159" width="4.96" height="37.4"/>
			
				<rect x="22.02" y="59.89" transform="matrix(0.0667 -0.9978 0.9978 0.0667 -57.1014 96.1424)" class="st160" width="1.65" height="37.4"/>
			
				<rect x="21.91" y="61.54" transform="matrix(-0.0674 0.9977 -0.9977 -0.0674 104.3262 62.9719)" class="st161" width="1.65" height="37.4"/>
			
				<rect x="21.79" y="63.19" transform="matrix(-0.0675 0.9977 -0.9977 -0.0675 105.8539 64.849)" class="st162" width="1.65" height="37.4"/>
			<polygon class="st163" points="41.22,83.97 41.56,79.02 46.96,81.36 48.35,81.96 46.89,82.37 			"/>
			<path class="st164" d="M41.45,80.67c-0.44-0.03-0.78-0.42-0.75-0.88c0.03-0.46,0.42-0.8,0.86-0.77L41.45,80.67z"/>
			<path class="st165" d="M41.34,82.32c-0.44-0.03-0.78-0.42-0.75-0.88c0.03-0.46,0.42-0.8,0.86-0.77L41.34,82.32z"/>
			<path class="st163" d="M41.22,83.97c-0.44-0.03-0.78-0.42-0.75-0.88c0.03-0.46,0.42-0.8,0.86-0.77L41.22,83.97z"/>
			
				<rect x="3.22" y="76.19" transform="matrix(0.0667 -0.9978 0.9978 0.0667 -73.3891 76.2141)" class="st166" width="1.65" height="2.3"/>
			
				<rect x="3.11" y="77.84" transform="matrix(-0.0674 0.9977 -0.9977 -0.0674 83.0085 80.3885)" class="st167" width="1.65" height="2.3"/>
			
				<rect x="3" y="79.49" transform="matrix(-0.0675 0.9977 -0.9977 -0.0675 84.5351 82.2606)" class="st168" width="1.65" height="2.3"/>
			<polygon class="st164" points="41.45,80.67 48.35,81.96 41.56,79.02 			"/>
			<polygon class="st165" points="41.34,82.32 48.35,81.96 41.45,80.67 			"/>
			<polygon class="st163" points="41.34,82.32 48.35,81.96 41.22,83.97 			"/>
			<polygon class="st169" points="46.89,82.37 46.96,81.36 48.35,81.96 			"/>
		</g>
		<g>
			<g>
				<path class="st170" d="M30.35,78.03c0,0-0.19,0.85-0.01,1.09c0.19,0.24,0.27-0.07,0.27-0.07s-0.09,0.3,0.14,0.4
					s0.32-0.26,0.32-0.26s-0.01,0.25,0.26,0.26s0.26-0.3,0.26-0.3s0.18,0.36,0.4,0.11c0.36-0.42,0.22-1.04,0.22-1.04
					s-0.05-0.15-0.31-0.14c0,0-0.1-0.37-0.51-0.22c0,0-0.33-0.3-0.53,0C30.87,77.85,30.5,77.55,30.35,78.03z"/>
			</g>
		</g>
		<g>
			<path class="st19" d="M12.64,99.44c0,0,1.21,0.37,1.72,0.27c0.51-0.09,0.25-6.28,0.27-7.57c0.02-1.04,0.59-3.8,0.59-3.8s0,0,0,0
				c0,0,0,0,0,0c0,0,0,0,0,0c0.06,0.21,0.83,3.07,0.86,4.44c0.03,1.43-0.19,6.89-0.19,6.89l2.14,0.21l6.14,0.15l1.28-0.15
				c0,0-0.15-2.33-0.21-3.44c-0.04-0.7-0.17-1.97-0.14-3.2c0,0-0.02-1.3,0.11-1.85c0.01-2.46,0.16-4.9,0.16-4.9
				c0.08-1.12,0.14-2.16,0.17-3.13c-0.27-0.14-0.6-0.31-0.86-0.43c-0.81-0.38-1.93-0.9-2.65-1.22c-0.42-0.19-0.84-0.33-0.84-0.33
				s-2.88-0.27-3.11-0.26c-0.07,0-0.43,0.13-0.91,0.31c-1.02,0.39-2.99,1.17-3.3,1.39c-0.46,0.33-1.43,8.11-1.48,8.66
				C12.33,92.45,12.64,99.44,12.64,99.44z"/>
		</g>
		<path class="st171" d="M25.27,98.91c0,0-4.21,0.36-7.91,0v1.21c0,0,5.54,0.8,8.09-0.23L25.27,98.91z"/>
		<g>
			<path class="st156" d="M21.68,81.54c0,0,0.69,1.6,1.2,5.18c0.2,1.38,0.56,3.69,0.83,6.06v0c0.21,1.86,0.69,3.78,0.84,5.2
				c0.16,1.48,0.63,5.83,0.63,5.83l1.15-0.72c0.16-0.15,0.4-0.35,0.33-0.56c-0.32-1.02-0.92-4.39-1.28-7.32c0,0,0,0,0-0.01
				c-0.02-0.14-0.03-0.28-0.05-0.42c0-0.01,0-0.01,0-0.02c-0.07-0.59-0.12-1.15-0.16-1.66c-0.03-0.39,0-0.78,0.05-1.16
				c0.16-2.63,0.24-5.41,0.24-5.41c0.08-1.14,0.29-2.61,0.33-3.6c-0.4-0.05-0.7-0.11-1.02-0.2C24.76,82.73,22.49,81.89,21.68,81.54z
				"/>
		</g>
		<g>
			<path class="st172" d="M20.2,73.98c0,0,2.14,0.36,1.78,3.69c-0.36,3.33-2.25,3.04-2.38,3.03c-0.13,0-1.9,0.04-1.99-4.03
				C17.61,76.67,17.58,73.66,20.2,73.98z"/>
		</g>
		<g>
			<path class="st172" d="M21.14,79.74c0,0,0,1.37,0.06,1.67c0.06,0.32-1.72,1.24-2.87,0.17c0,0,0.23-1.5,0.16-2.03
				C18.42,79.02,21.14,79.74,21.14,79.74z"/>
		</g>
		<g>
			<path class="st172" d="M21.99,76.89c0,0,0.24-0.25,0.32,0.01c0.08,0.25-0.3,1.32-0.35,1.43c0,0-0.04,0.1-0.1,0.04
				C21.8,78.32,21.99,76.89,21.99,76.89z"/>
		</g>
		<g>
			<path class="st172" d="M17.63,76.64c0,0-0.23-0.26-0.32-0.01c-0.09,0.25,0.25,1.37,0.29,1.44c0,0,0.07,0.11,0.13,0.06
				C17.79,78.08,17.63,76.64,17.63,76.64z"/>
		</g>
		<g>
			<path class="st173" d="M22.16,76.44c-0.07,0.46-0.14,0.79-0.14,0.79l-0.31,0.4c0,0,0.02-0.89-0.03-1.03
				c-0.02-0.05-0.04-0.15-0.06-0.25c-0.04-0.17-0.07-0.36-0.1-0.42c-0.04-0.1-1.83-0.62-3.43,0.11c0,0,0.01,0.14,0.01,0.29
				c0,0.18-0.02,0.38-0.1,0.41c-0.15,0.06-0.09,1.05-0.09,1.05l-0.25-0.29c0,0-0.07-0.52-0.14-1.11c0,0,0,0,0,0
				c-0.02-0.14-0.03-0.28-0.05-0.42c-0.04-0.6,0.02-1.68,0.81-2.32c0.53-0.23,1.37-0.42,2.78,0.01c0,0,0.32,0.02,0.41,0.11
				C22.34,74.72,22.16,76.44,22.16,76.44z"/>
		</g>
		<path class="st174" d="M18.64,80.26c0,0,0.34,0.47,1.13,0.45c0.79-0.02,1.14-0.43,1.14-0.43s-0.38,0.78-1.14,0.77
			S18.64,80.26,18.64,80.26z"/>
		<path class="st175" d="M21.28,82.45l-0.8,0.59c0,0,0.67-1.41,0.68-1.98L21.28,82.45z"/>
		<polygon class="st176" points="21.16,81.05 21.71,81.56 22.28,83.25 21.28,82.45 		"/>
		<path class="st172" d="M21.06,81.56c0,0-0.22,0.77-0.58,1.47c0,0-0.84-0.73-1.1-0.99C19.12,81.78,21.06,81.56,21.06,81.56z"/>
		<path class="st175" d="M19.6,82.22l0.88,0.82c0,0-1.04-0.07-1.23-0.24L19.6,82.22z"/>
		<path class="st176" d="M18.44,80.72c0,0,0.7,1.13,1.16,1.5l-0.78,1.28l-1.25-2.25L18.44,80.72z"/>
		<g>
			<path class="st156" d="M14.72,92.2c-0.09,1.2,0.42,7.81-0.09,7.9c-0.51,0.09-2.37-0.31-2.37-0.31s-0.23-7.13-0.16-7.88
				c0.05-0.54,0.93-8.71,1.38-9.03c0.27-0.19,2.23-0.88,3.2-1.26c0.18-0.07,0.74-0.3,0.89-0.36c0.2,0.23,1.99,4.39,2.16,7.64
				c0.05,0.99-0.18,3.08-0.36,4.78c-0.19,1.82-0.4,3.24-0.55,4.76c-0.3,3-0.51,5.38-0.51,5.38l-3-1.33
				c-0.49-0.24-1.16-1.23-0.97-1.74c0.69-1.93,1.57-5.23,1.57-6.93c0,0-0.33-4.15-0.6-5.06C15.31,88.76,14.83,90.68,14.72,92.2z"/>
		</g>
		<path class="st170" d="M12.26,103.18c0,0-0.1-0.25-0.09-0.38c0,0,0.03-0.23,0.05-0.4c0-0.05,0.01-0.1,0-0.13
			c-0.01-0.13-0.06-0.4,0.01-0.71c0.07-0.31,0.43-1.37,0.43-1.37l0.96,0.14l0.84-0.11c0,0,0.62,1.81,0.59,2.11
			c0,0.03-0.01,0.06-0.01,0.08c-0.05,0.25-0.19,0.41-0.23,0.53c-0.02,0.05-0.2,0.5-0.34,0.54c-0.19,0.06-0.35,0.02-0.46-0.06
			c0,0-0.38,0.1-0.63-0.01c0,0-0.35,0.1-0.61-0.12C12.75,103.29,12.39,103.36,12.26,103.18z"/>
		<g>
			<path class="st156" d="M14.8,95.54l-0.03,5.26c0,0-1.05-0.05-2.51-0.58l-0.1-7.41L14.8,95.54z"/>
		</g>
		<rect x="20.28" y="98.99" class="st177" width="1.99" height="1.47"/>
	</g>
	<g>
		<path class="st51" d="M115.91,123.83c0,0,0.34-0.56,0.81-0.77c0.47-0.22,1.43,0.54,1.52,0.96l1.12,1.62l-0.21,0.14l-0.6-0.87
			c0.41,0.97,0.99,2.13,0.58,2.72c-0.55,0.78-1.79,1.58-2.11,1.44c-0.33-0.14-0.26-2.42-0.26-2.42
			C117.11,124.65,115.91,123.83,115.91,123.83z"/>
		<g>
			<path class="st178" d="M115.91,123.83c0,0,0.41,0.78,0.62,1.38c0.21,0.6,0.25,2.28,0.38,2.39c0.13,0.12,1.17-0.41,1.31-1.03
				c0.14-0.63-0.28-1.88-0.68-2.53c-0.4-0.66-0.81-0.99-0.81-0.99S116.02,123.2,115.91,123.83z"/>
		</g>
		<path class="st178" d="M111.9,109.17c0,0,0.64,3.36,0.64,4.16c0,0.8,0.22,2.12,0.73,3.09c0.51,0.97,2.77,7.63,2.96,8.4
			c0.2,0.77,0.36,1.51,0.36,1.51s1.13-0.51,1.13-1.24c0-0.73-0.98-6.77-1.15-7.96c-0.17-1.19-1.59-7.3-1.59-7.3L111.9,109.17z"/>
		<path class="st17" d="M115.5,108.95c0,0-0.22,2.8-0.2,3.53c0.02,0.73,0.37,2.39,0.37,2.82c0,0.44,0,9.52-0.36,10.61
			c-0.37,1.1,1.03,0.34,1.03,0.34s2.42-5.97,2.42-8.46c0-2.49-0.29-3.73-0.12-5.31c0.17-1.58,0.93-3.67,0.93-3.67L115.5,108.95z"/>
		<path class="st21" d="M119.16,95.48c0,0,1.3,1.59,1.64,3.7c0.34,2.12-0.41,6.11-0.67,7.27c-0.23,1.01-0.68,4.26-0.7,4.6
			c0,0-4.38,0.49-7.71-0.55c0,0-0.3-4.53-0.5-6.46c-0.2-1.92,0.76-8.42,0.76-8.42L119.16,95.48z"/>
		<path class="st51" d="M114.16,128.68c1.57-1.36,1.15-2.76,1.15-2.76s0.63-0.22,1.14-0.1c0.51,0.13,0.78,1.33,0.58,1.72l-0.16,1.98
			l-0.26-0.02l0.08-1.06c-0.3,1.02-0.59,2.31-1.29,2.51c-0.93,0.27-2.42,0.11-2.59-0.2C112.64,130.43,114.16,128.68,114.16,128.68z"
			/>
		<path class="st179" d="M113.24,80.65c0,0,0.39,2.3,0.05,3.07c-0.33,0.77,1.78-0.9,1.78-0.9S114.19,80.28,113.24,80.65z"/>
		<path class="st179" d="M114.02,74.26c0,0,3.4-0.77,3.82,2.84c0.42,3.61-1.1,4.06-0.07,6.51c1.03,2.45-2.53-0.8-2.53-0.8
			L114.02,74.26z"/>
		<path class="st17" d="M114.31,74.21c-0.87-0.02-2.79,0.47-3.02,2.78c0,0,0.09,0.62,0.25,1.1c0.16,0.48-0.23,1.93-0.12,2
			c0.12,0.07,0.59,0.14,0.59,0.14s0.55,1.55,1.1,1.52c0.55-0.03,2.63-0.52,3.56-2.49C117.61,77.28,117.83,74.28,114.31,74.21z"/>
		<g>
			<g>
				<path class="st51" d="M123.81,102.8c0,0-0.08-1.39-0.45-1.61c-0.37-0.22-0.16,0.21-0.16,0.21s0.21,1.01,0.25,1.42
					C123.46,102.84,123.81,102.8,123.81,102.8z"/>
			</g>
		</g>
		<g>
			<g>
				<path class="st17" d="M122.1,99.67c0,0-0.1,0.62-0.29,1.22c-0.19,0.6-0.36,0.79-0.29,1.14c0.06,0.26,0.35,0.45,0.43,0.37
					c0.07-0.08,0.11-1.09,0.53-1.09c0.42,0-0.13,1.25,0.12,1.16s1.21-0.62,1.15-1.13c-0.06-0.51-0.45-0.88-0.42-1.64
					c0.02-0.69-0.19-0.98-0.19-0.98L122.1,99.67z"/>
			</g>
		</g>
		<g>
			<g>
				<path class="st51" d="M122.44,101.27c0,0-0.56,0.14-0.53,2.03l0.63-0.11c0,0-0.01-1.04,0.18-1.61
					C122.72,101.58,122.69,101.21,122.44,101.27z"/>
			</g>
		</g>
		<g>
			<g>
				<polygon class="st163" points="120.11,103.72 125.05,102.33 125.03,108.38 120.12,111.31 				"/>
			</g>
		</g>
		<g>
			<polygon class="st163" points="120.12,111.31 120.74,111.42 125.52,108.46 125.46,102.35 125.05,102.33 			"/>
		</g>
		<path class="st21" d="M113.84,82.7c0,0-1.32,0.54-1.55,0.7c-0.24,0.16-0.71,2.06-0.82,2.22c-0.12,0.16-1.25,1.57-1.1,2.71
			c0.12,0.89,0.63,1.37,0.96,1.72c0.33,0.35,0.63,2.24,0.74,2.52c0.1,0.28-0.22,3.96-0.22,3.96s3.86,1.5,7.32-1.05
			c0,0-0.69-2.47-0.69-2.91c0-0.44,0.45-3.58,1.65-5.43c1.2-1.85-0.21-3.81-1.13-4.05c-0.92-0.23-2.68-0.89-2.68-0.89L113.84,82.7z"
			/>
		<path class="st21" d="M118.06,82.82c0,0,1.93-0.12,2.9,1c0.97,1.12,0.92,2.46,1.16,3.03c0.25,0.58,0.81,3.07,0.93,3.47
			c0.12,0.4,0.24,2.67,0.42,4.5c0.18,1.82,0.14,5.23,0.14,5.23l-1.85-0.33c0,0-0.07-3.25-0.12-5.13c-0.05-1.88-1.59-5.21-2.17-6.67
			C118.9,86.47,116.58,83.73,118.06,82.82z"/>
		<path class="st21" d="M112.48,83.29c0,0-0.85,0.05-1.26,0.9c-0.41,0.84-0.56,1.54-0.67,1.75c-0.11,0.21-1.57,2.98-1.66,3.6
			c-0.09,0.61,0.05,1.74,0.83,2.03c0.78,0.3,3.56,0.33,3.56,0.33s-0.71-1.43-0.05-2.16c0,0-2.02-0.36-2.5-0.41
			C110.23,89.28,113.12,83.92,112.48,83.29z"/>
		<g>
			<polygon class="st19" points="117.11,85.67 113.35,94.43 108.65,92.22 112.12,83.82 			"/>
		</g>
		<g>
			<path class="st17" d="M114.95,89.97c0,0,0.51,0.13,0.67,0.16s-0.04,0.32-0.24,0.33C115.19,90.47,114.95,89.97,114.95,89.97z"/>
		</g>
		<g>
			<path class="st17" d="M114.61,92.46c0,0-0.24-0.01-0.34-0.07c0,0-0.18-0.11-0.31-0.19c-0.04-0.02-0.08-0.04-0.1-0.05
				c-0.1-0.04-0.35-0.1-0.57-0.28c-0.22-0.17-0.94-0.85-0.94-0.85l0.48-0.71l0.37-0.57c0,0,1.55,0.04,1.77,0.18
				c0.02,0.01,0.04,0.03,0.06,0.04c0.18,0.13,0.26,0.31,0.34,0.39c0.03,0.03,0.32,0.35,0.31,0.47c-0.02,0.18-0.11,0.29-0.22,0.34
				c0,0-0.06,0.34-0.24,0.5c0,0-0.05,0.32-0.33,0.45C114.89,92.11,114.8,92.43,114.61,92.46z"/>
		</g>
		<path class="st21" d="M113.24,89.74c0,0-2.29-0.41-2.93-0.47c0,0-0.04-0.8,0.07-1.48c0.12-0.68,0.68-1.59,0.68-1.59l-1.17,1.07
			c0,0-0.96,1.84-0.99,2.27c-0.02,0.43-0.14,1.09,0.43,1.77c0.57,0.67,3.26,0.36,3.26,0.36S112.37,90.84,113.24,89.74z"/>
		<path class="st17" d="M113.94,81.38c0,0,0.07,0.22,0.16,0.54c0.04,0.17,0.09,0.36,0.13,0.56c0.12,0.57,0.19,1.24,0.06,1.68
			c0,0,1.23,0.39,2.15-1.36c0,0-0.47-1.84,0.04-2.98C116.99,78.7,113.94,81.38,113.94,81.38z"/>
		<path class="st179" d="M111.29,76.99c0,0,1.44,0.92,2.85,1.07c1.41,0.15,2.19,2.27,2.19,2.27s2.21-3.43,0.43-5.54
			C114.98,72.69,110.91,74.32,111.29,76.99z"/>
		<path class="st17" d="M114.72,77.98c0-0.27,0.29-0.68,0.75-0.33c0.46,0.36-0.11,1.66-0.47,1.54
			C114.62,79.08,114.72,78.26,114.72,77.98z"/>
		<path class="st17" d="M113.76,82.73c0,0-0.58,1.7,0.78,1.7c1.36-0.01,1.95-1.07,2.34-2.01c0,0-0.63-0.3-0.92-0.35
			C115.67,82.02,113.76,82.73,113.76,82.73z"/>
		<polygon class="st51" points="121.91,103.21 122.54,103.3 122.54,103 		"/>
		<path class="st51" d="M123.45,102.78l0.35,0.04c0,0,0-0.11,0-0.14C123.8,102.64,123.47,102.76,123.45,102.78z"/>
		<g>
			<path class="st17" d="M115.31,125.92c0,0-0.18,0.87-0.4,1.48c-0.22,0.61-1.26,1.95-1.23,2.13c0.03,0.18,1.18,0.42,1.69,0.02
				c0.51-0.4,0.98-1.66,1.08-2.43c0.11-0.77,0.05-1.27,0.05-1.27S115.8,125.48,115.31,125.92z"/>
		</g>
		<path class="st53" d="M113.99,81.56c0.04,0.17,0.11,0.36,0.16,0.56c1.11-0.75,1.65-1.64,1.65-1.64
			C115.17,81.08,113.99,81.56,113.99,81.56z"/>
	</g>
	<g>
		<g>
			<g>
				<g>
					<g>
						<g>
							<path class="st180" d="M68.64,103.05c0,0-0.27,1.06-0.31,1.22c-0.04,0.16-1.7-0.28-1.7-0.28l0-1.29
								C66.64,102.7,68.45,102.88,68.64,103.05z"/>
						</g>
					</g>
				</g>
			</g>
		</g>
		<g>
			<g>
				<g>
					<g>
						<g>
							<path class="st181" d="M68.37,104.13c0,0,0.47,0.7,0.95,1.04c0.49,0.34,2.37,0.77,2.65,1.1c0.2,0.23,0.47,1.12-2.55,0.72
								c-2.15-0.29-3.21-0.21-3.4-0.59c-0.19-0.37,0.61-2.53,0.61-2.53S67.09,104.12,68.37,104.13z"/>
						</g>
					</g>
				</g>
			</g>
		</g>
		<g>
			<g>
				<g>
					<g>
						<g>
							<g>
								<polygon class="st21" points="69,133.11 75.03,71.97 74.27,71.9 68.24,133.04 								"/>
							</g>
						</g>
					</g>
				</g>
			</g>
			<g>
				<g>
					<g>
						<g>
							<g>
								<polygon class="st21" points="56.7,131.93 62.73,70.78 61.97,70.71 55.94,131.85 								"/>
							</g>
						</g>
					</g>
				</g>
			</g>
			<g>
				<g>
					<g>
						<g>
							<g>
								<g>
									
										<rect x="67.98" y="66.57" transform="matrix(0.097 -0.9953 0.9953 0.097 -10.6735 133.7298)" class="st21" width="0.76" height="12.35"/>
								</g>
							</g>
						</g>
					</g>
				</g>
				<g>
					<g>
						<g>
							<g>
								<g>
									
										<rect x="67.42" y="72.26" transform="matrix(0.0971 -0.9953 0.9953 0.0971 -16.8445 138.3035)" class="st21" width="0.76" height="12.35"/>
								</g>
							</g>
						</g>
					</g>
				</g>
				<g>
					<g>
						<g>
							<g>
								<g>
									
										<rect x="66.87" y="77.95" transform="matrix(0.0971 -0.9953 0.9953 0.0971 -23.0075 142.8877)" class="st21" width="0.76" height="12.35"/>
								</g>
							</g>
						</g>
					</g>
				</g>
				<g>
					<g>
						<g>
							<g>
								<g>
									<polygon class="st21" points="72.81,90.79 72.88,90.03 60.58,88.84 60.51,89.6 									"/>
								</g>
							</g>
						</g>
					</g>
				</g>
				<g>
					<g>
						<g>
							<g>
								<g>
									
										<rect x="65.76" y="89.33" transform="matrix(0.0971 -0.9953 0.9953 0.0971 -35.3337 152.0561)" class="st21" width="0.76" height="12.35"/>
								</g>
							</g>
						</g>
					</g>
				</g>
				<g>
					<g>
						<g>
							<g>
								<g>
									<polygon class="st21" points="71.7,102.16 71.77,101.41 59.47,100.22 59.4,100.98 									"/>
								</g>
							</g>
						</g>
					</g>
				</g>
				<g>
					<g>
						<g>
							<g>
								<g>
									<polygon class="st21" points="71.14,107.85 71.22,107.1 58.92,105.91 58.84,106.66 									"/>
								</g>
							</g>
						</g>
					</g>
				</g>
				<g>
					<g>
						<g>
							<g>
								<g>
									
										<rect x="64.1" y="106.39" transform="matrix(0.097 -0.9953 0.9953 0.097 -53.8166 165.8226)" class="st21" width="0.76" height="12.35"/>
								</g>
							</g>
						</g>
					</g>
				</g>
				<g>
					<g>
						<g>
							<g>
								<g>
									
										<rect x="63.54" y="112.08" transform="matrix(0.097 -0.9953 0.9953 0.097 -59.9791 170.409)" class="st21" width="0.76" height="12.35"/>
								</g>
							</g>
						</g>
					</g>
				</g>
			</g>
			<g>
				<g>
					<g>
						<g>
							<g>
								<g>
									
										<rect x="62.99" y="117.77" transform="matrix(0.0971 -0.9953 0.9953 0.0971 -66.149 174.977)" class="st21" width="0.76" height="12.35"/>
								</g>
							</g>
						</g>
					</g>
				</g>
				<g>
					<g>
						<g>
							<g>
								<g>
									
										<rect x="62.43" y="123.46" transform="matrix(0.097 -0.9953 0.9953 0.097 -72.3062 179.5771)" class="st21" width="0.76" height="12.35"/>
								</g>
							</g>
						</g>
					</g>
				</g>
			</g>
		</g>
		<g>
			<g>
				<g>
					<g>
						<g>
							<path class="st181" d="M70.7,80.81c0,0,1.21,4.48,1.53,6.07c0.28,1.39,0.84,5.11,0.92,5.99c0.08,0.88-3.58,9.43-3.96,10.97
								l-3.33-0.53c0,0,3.51-8.89,2.6-10.87c-1.36-2.94-1.54-2.85-2.61-5.27c-1.07-2.42-3.53-2.48-4.19-6.97
								C61.65,80.21,69.8,79.39,70.7,80.81z"/>
						</g>
					</g>
				</g>
			</g>
		</g>
		<g>
			<g>
				<g>
					<g>
						<g>
							<path class="st17" d="M64.77,59.07c0,0,2.21-0.82,3.23,0.85c1.02,1.67,0.92,5.03-0.19,5.44c-1.11,0.41-2.79,0.2-3.36-0.85
								c-0.57-1.05-1.09-2.56-1.06-3.58C63.42,59.93,64.19,59.36,64.77,59.07z"/>
						</g>
					</g>
				</g>
			</g>
		</g>
		<g>
			<g>
				<g>
					<g>
						<g>
							<path class="st17" d="M67.44,65.26c0,0-0.09,0.58,0.06,0.86c0.15,0.28-2.78,0.29-2.78,0.29s-0.24-1.55-0.69-2.85
								C63.58,62.26,67.44,65.26,67.44,65.26z"/>
						</g>
					</g>
				</g>
			</g>
		</g>
		<g>
			<g>
				<g>
					<g>
						<g>
							<path class="st33" d="M64.03,63.56c0,0,0.2,0.33,1.03,0.2c0.83-0.13,1.83-1.22,2.18-1.34c0.34-0.12,0.35-0.32,0.35-0.32
								l0.22,0.31l0.37,0.02c0,0-0.33-0.98,0.17-1.38c0.5-0.4-0.52-3.16-3.17-2.24c0,0-2.03,0.56-1.96,1.71
								C63.28,61.68,63.57,62.99,64.03,63.56z"/>
						</g>
					</g>
				</g>
			</g>
		</g>
		<g>
			<g>
				<g>
					<g>
						<g>
							<path class="st17" d="M67.53,61.69c-0.05-0.19-0.54-0.74-0.73-0.15c-0.19,0.59,0.29,1.38,0.55,1.32
								C67.61,62.78,67.64,62.17,67.53,61.69z"/>
						</g>
					</g>
				</g>
			</g>
		</g>
		<g>
			<g>
				<g>
					<g>
						<path class="st19" d="M59.09,73.67c0.02,0.29,0.36,0.6,0.58,0.76c0.14,0.1,0.32,0.16,0.5,0.16l0.13,0v0l2.3,0.08
							c0,0,1.71-5.49-1.5-7.59C61.01,67.1,58.87,71.03,59.09,73.67z"/>
					</g>
				</g>
			</g>
		</g>
		<g>
			<g>
				<g>
					<g>
						<g>
							<path class="st181" d="M66.02,106.4c0.19,0.37,1.25,0.3,3.4,0.59c0.59,0.08,1.05,0.11,1.41,0.1l0.13-1.29
								c-0.63-0.22-1.36-0.44-1.64-0.63c-0.49-0.34-0.95-1.04-0.95-1.04c-1.27-0.01-1.73-0.26-1.73-0.26S65.83,106.03,66.02,106.4z"
								/>
						</g>
					</g>
				</g>
			</g>
		</g>
		<g>
			<g>
				<g>
					<g>
						<path class="st182" d="M67.44,65.95c0,0-1.8-0.42-2.82-0.08l-0.15,0.14c0,0-0.31,0.59,0.85,0.64
							C66.49,66.71,68.31,66.79,67.44,65.95z"/>
					</g>
				</g>
			</g>
		</g>
		<g>
			<g>
				<g>
					<g>
						<g>
							<path class="st180" d="M60.4,107.99c0,0-0.27,1.06-0.31,1.22c-0.04,0.16-1.7-0.28-1.7-0.28l0-1.29
								C58.39,107.64,60.2,107.82,60.4,107.99z"/>
						</g>
					</g>
				</g>
			</g>
		</g>
		<g>
			<g>
				<g>
					<g>
						<g>
							<path class="st181" d="M61.65,80.21c0,0-0.61,2.49-0.79,4.98c-0.17,2.3-0.47,4.83-0.71,7.24c-0.27,2.69-1.03,7.03-1.07,8.47
								c-0.04,1.44-1.26,7.72-1.26,7.72l3.11,0.36c0,0,2.02-11.1,2.5-12.24c0.48-1.13,2.84-9.22,2.92-10.13
								C66.44,85.7,61.65,80.21,61.65,80.21z"/>
						</g>
					</g>
				</g>
			</g>
		</g>
		<g>
			<g>
				<g>
					<g>
						<g>
							<path class="st181" d="M60.12,109.07c0,0,0.47,0.7,0.95,1.04c0.49,0.34,2.37,0.77,2.65,1.1c0.2,0.23,0.47,1.12-2.55,0.72
								c-2.15-0.29-3.21-0.21-3.4-0.59c-0.19-0.37,0.61-2.53,0.61-2.53S58.85,109.06,60.12,109.07z"/>
						</g>
					</g>
				</g>
			</g>
		</g>
		<g>
			<g>
				<g>
					<g>
						<path class="st19" d="M71.33,86.4c0.26-0.04-0.66-7.89-0.59-8.39c0.05-0.33,0.04-2.88,0.02-4.47l0.29-1.61
							c0.16-0.12,0.38-0.25,0.63-0.4c0.4-0.23,0.9-0.49,1.46-0.77c-0.06-0.38-0.11-0.68-0.13-0.86c-0.14-1.42-1.09-2.16-1.64-2.48
							c-0.22-0.13-0.37-0.19-0.37-0.19c-0.21-0.09-0.41-0.17-0.6-0.25c-1.3-0.53-2.96-1.04-2.96-1.04h-2.66c0,0-2.03,0.4-3.23,0.89
							c-0.15,0.06-0.3,0.14-0.44,0.24l0.36,7.55c0,0,0,0,0,0c0,0,0,0.01,0,0.01c0.16,1.06,0.33,2.32,0.39,3.19
							c0.02,0.36-0.39,2.28-0.6,4.05l-0.75,4.23C60.51,86.13,60.94,87.88,71.33,86.4z"/>
					</g>
				</g>
			</g>
		</g>
		<g>
			<g>
				<g>
					<g>
						<g>
							<path class="st17" d="M84.91,61.92c0,0-0.16,0.19-0.27,0.25c0,0-0.21,0.08-0.35,0.14c-0.05,0.02-0.09,0.04-0.11,0.05
								c-0.1,0.06-0.3,0.23-0.59,0.31c-0.28,0.08-1.57,0.37-1.57,0.37l-0.3-0.76l-0.21-0.61c0,0,1.19-1.53,1.45-1.64
								c0.03-0.01,0.05-0.02,0.07-0.03c0.23-0.07,0.42-0.03,0.55-0.05c0.05-0.01,0.5-0.06,0.6,0.04c0.14,0.13,0.18,0.28,0.15,0.4
								c0,0,0.26,0.27,0.27,0.52c0,0,0.24,0.24,0.18,0.55C84.78,61.46,85,61.73,84.91,61.92z"/>
						</g>
					</g>
				</g>
			</g>
		</g>
		<g>
			<g>
				<g>
					<g>
						<g>
							<path class="st19" d="M71.13,71.87c0.3-0.19,0.68-0.45,2.01-1.11c2.48-1.23,5.53-3.47,6.11-3.79
								c0.89-0.5,3.72-3.93,3.72-3.93c-0.15-0.52-1.48-1.55-1.48-1.55s-4.28,4.03-5.22,4.53c-0.8,0.43-4.78,0.86-5.87,0.97
								c-0.18,0.02-0.28,0.03-0.28,0.03C68.98,68.57,70.49,72.28,71.13,71.87z"/>
						</g>
					</g>
				</g>
			</g>
		</g>
	</g>
	<g>
		<linearGradient id="SVGID_8_" gradientUnits="userSpaceOnUse" x1="20.162" y1="42.4979" x2="70.9011" y2="44.1936">
			<stop  offset="0" style="stop-color:#F89E59"/>
			<stop  offset="1" style="stop-color:#FFD356"/>
		</linearGradient>
		<path style="fill:url(#SVGID_8_);" d="M26.02,45.09l1.19-0.7c0.34,0.95,1.03,1.42,2.09,1.42c1.04,0,1.56-0.44,1.56-1.1
			c0-0.35-0.14-0.6-0.42-0.78c-0.28-0.18-0.78-0.38-1.49-0.6c-0.8-0.24-1.2-0.4-1.76-0.77c-0.54-0.38-0.82-0.94-0.82-1.69
			c0-0.74,0.26-1.33,0.79-1.76c0.53-0.44,1.16-0.66,1.91-0.66c1.34,0,2.39,0.7,2.93,1.85l-1.16,0.67c-0.35-0.78-0.94-1.18-1.76-1.18
			c-0.8,0-1.32,0.41-1.32,1.04c0,0.62,0.41,0.91,1.69,1.31c0.32,0.11,0.55,0.18,0.7,0.24c0.16,0.05,0.36,0.13,0.62,0.24
			c0.28,0.11,0.48,0.23,0.61,0.34c0.44,0.35,0.92,0.92,0.86,1.73c0,0.75-0.28,1.37-0.83,1.81c-0.54,0.44-1.26,0.66-2.15,0.66
			C27.64,47.15,26.46,46.37,26.02,45.09z"/>
		<linearGradient id="SVGID_9_" gradientUnits="userSpaceOnUse" x1="20.171" y1="42.2251" x2="70.9101" y2="43.9208">
			<stop  offset="0" style="stop-color:#F89E59"/>
			<stop  offset="1" style="stop-color:#FFD356"/>
		</linearGradient>
		<path class="st48" d="M34.19,45.9c-0.83-0.84-1.25-1.87-1.25-3.11c0-1.24,0.42-2.27,1.25-3.09c0.83-0.84,1.88-1.26,3.14-1.26
			c1.52,0,2.89,0.77,3.61,2l-1.2,0.7c-0.44-0.83-1.36-1.36-2.41-1.36c-0.9,0-1.62,0.29-2.18,0.85c-0.55,0.56-0.83,1.28-0.83,2.16
			c0,0.88,0.28,1.59,0.83,2.16c0.56,0.56,1.28,0.85,2.18,0.85c1.06,0,1.98-0.53,2.41-1.36l1.2,0.68c-0.35,0.61-0.85,1.1-1.5,1.48
			c-0.64,0.36-1.34,0.54-2.11,0.54C36.07,47.15,35.02,46.73,34.19,45.9z"/>
		<linearGradient id="SVGID_10_" gradientUnits="userSpaceOnUse" x1="20.1809" y1="41.9328" x2="70.9199" y2="43.6285">
			<stop  offset="0" style="stop-color:#F89E59"/>
			<stop  offset="1" style="stop-color:#FFD356"/>
		</linearGradient>
		<path style="fill:url(#SVGID_10_);" d="M46.08,47.15c-1.21,0-2.24-0.42-3.09-1.26c-0.84-0.85-1.26-1.88-1.26-3.09
			c0-1.21,0.42-2.24,1.26-3.08c0.85-0.85,1.88-1.27,3.09-1.27s2.24,0.42,3.08,1.27c0.85,0.84,1.27,1.87,1.27,3.08
			c0,1.21-0.42,2.24-1.27,3.09C48.32,46.73,47.29,47.15,46.08,47.15z M46.08,45.81c0.84,0,1.55-0.29,2.11-0.85
			c0.58-0.58,0.86-1.29,0.86-2.16c0-0.86-0.29-1.58-0.86-2.15c-0.56-0.58-1.27-0.86-2.11-0.86c-0.84,0-1.55,0.29-2.12,0.86
			c-0.56,0.56-0.85,1.28-0.85,2.15c0,0.86,0.29,1.58,0.85,2.16C44.53,45.52,45.24,45.81,46.08,45.81z"/>
		<linearGradient id="SVGID_11_" gradientUnits="userSpaceOnUse" x1="20.1894" y1="41.6883" x2="70.9279" y2="43.3839">
			<stop  offset="0" style="stop-color:#F89E59"/>
			<stop  offset="1" style="stop-color:#FFD356"/>
		</linearGradient>
		<path style="fill:url(#SVGID_11_);" d="M56.48,47l-1.77-3.06h-1.63V47H51.7v-8.4h3.36c0.76,0,1.39,0.26,1.91,0.79
			c0.53,0.52,0.79,1.15,0.79,1.91c0,1.07-0.67,2.04-1.67,2.43L58,47H56.48z M53.08,39.9v2.81h1.98c0.73,0,1.32-0.62,1.32-1.4
			c0-0.78-0.59-1.4-1.32-1.4H53.08z"/>
		<linearGradient id="SVGID_12_" gradientUnits="userSpaceOnUse" x1="20.1978" y1="41.4156" x2="70.9372" y2="43.1113">
			<stop  offset="0" style="stop-color:#F89E59"/>
			<stop  offset="1" style="stop-color:#FFD356"/>
		</linearGradient>
		<path class="st66" d="M60.43,45.68h3.72V47h-5.1v-8.4h5.04v1.32h-3.66v2.18h3.36v1.31h-3.36V45.68z"/>
		<linearGradient id="SVGID_13_" gradientUnits="userSpaceOnUse" x1="20.2053" y1="41.1977" x2="70.9445" y2="42.8933">
			<stop  offset="0" style="stop-color:#F89E59"/>
			<stop  offset="1" style="stop-color:#FFD356"/>
		</linearGradient>
		<path style="fill:url(#SVGID_13_);" d="M64.97,45.09l1.19-0.7c0.34,0.95,1.03,1.42,2.09,1.42c1.04,0,1.56-0.44,1.56-1.1
			c0-0.35-0.14-0.6-0.42-0.78c-0.28-0.18-0.78-0.38-1.49-0.6c-0.8-0.24-1.2-0.4-1.76-0.77c-0.54-0.38-0.82-0.94-0.82-1.69
			c0-0.74,0.26-1.33,0.79-1.76c0.53-0.44,1.16-0.66,1.91-0.66c1.34,0,2.39,0.7,2.93,1.85l-1.16,0.67c-0.35-0.78-0.94-1.18-1.76-1.18
			c-0.8,0-1.32,0.41-1.32,1.04c0,0.62,0.41,0.91,1.69,1.31c0.32,0.11,0.55,0.18,0.7,0.24c0.16,0.05,0.36,0.13,0.62,0.24
			c0.28,0.11,0.48,0.23,0.61,0.34c0.44,0.35,0.92,0.92,0.86,1.73c0,0.75-0.28,1.37-0.83,1.81c-0.54,0.44-1.26,0.66-2.15,0.66
			C66.59,47.15,65.41,46.37,64.97,45.09z"/>
	</g>
</g>
</svg>
